<svg width="36" height="37" viewBox="0 0 36 37" fill="none" xmlns="http://www.w3.org/2000/svg">
<path d="M35.015 15.645C36.3397 22.3347 33.4254 31.0114 26.0733 34.3453C16.4472 38.6947 4.70154 34.6102 1.03654 23.9906C-2.91547 12.5319 4.90024 0.918745 16.5576 0.0576919C21.1278 -0.273482 25.2123 0.808354 28.811 3.63437C29.1864 3.92139 29.5175 4.25257 30.0474 4.71621C28.4799 6.19546 27.0006 7.60846 25.3889 9.13187C22.6733 6.79157 19.5161 5.99675 16.0719 6.57079C13.5108 6.99027 11.3913 8.29289 9.64708 10.2137C6.35741 13.8345 5.78338 19.5528 8.3003 23.8802C10.9276 28.4062 15.829 30.4595 21.1278 29.2452C24.8811 28.4062 28.1708 25.0062 28.4578 21.5178H18.7875V15.645H35.015Z" fill="white"/>
</svg>
