<svg width="7" height="7" viewBox="0 0 7 7" fill="none" xmlns="http://www.w3.org/2000/svg">
<path d="M3.72418 6.41234C5.29211 6.41234 6.56316 5.14129 6.56316 3.57336C6.56316 2.00543 5.29211 0.734375 3.72418 0.734375C2.15625 0.734375 0.885193 2.00543 0.885193 3.57336C0.885193 5.14129 2.15625 6.41234 3.72418 6.41234Z" fill="#D9D9D9"/>
<path fill-rule="evenodd" clip-rule="evenodd" d="M3.72442 0.89937C2.24758 0.89937 1.05037 2.09658 1.05037 3.57341C1.05037 5.05025 2.24758 6.24746 3.72442 6.24746C5.20125 6.24746 6.39846 5.05025 6.39846 3.57341C6.39846 2.09658 5.20125 0.89937 3.72442 0.89937ZM0.702271 3.57341C0.702271 1.90433 2.05533 0.55127 3.72442 0.55127C5.3935 0.55127 6.74656 1.90433 6.74656 3.57341C6.74656 5.2425 5.3935 6.59556 3.72442 6.59556C2.05533 6.59556 0.702271 5.2425 0.702271 3.57341Z" fill="#D9D9D9"/>
<path d="M3.81578 5.31321C4.0181 5.31321 4.1821 5.1492 4.1821 4.94689C4.1821 4.74457 4.0181 4.58057 3.81578 4.58057C3.61347 4.58057 3.44946 4.74457 3.44946 4.94689C3.44946 5.1492 3.61347 5.31321 3.81578 5.31321Z" fill="black" fill-opacity="0.8"/>
<path fill-rule="evenodd" clip-rule="evenodd" d="M3.44517 2.49483C3.35156 2.57229 3.28221 2.69163 3.28221 2.86722H2.89996C2.89996 2.59616 3.01178 2.37976 3.18992 2.23234C3.3646 2.08779 3.59225 2.01818 3.81387 2.01616C4.0354 2.01414 4.26372 2.07955 4.43943 2.22056C4.61888 2.36457 4.73157 2.57828 4.73157 2.84665C4.73157 3.05061 4.62257 3.19725 4.51055 3.30533C4.4555 3.35844 4.3951 3.40662 4.34289 3.44824L4.34273 3.44836C4.28799 3.49201 4.24227 3.52846 4.20323 3.56571L4.20279 3.56613L4.20235 3.56655C4.07818 3.68348 4.02285 3.79 4.00782 3.94271C4.00739 3.94792 4.00697 3.95285 4.00657 3.95752C4.00383 3.98999 4.00211 4.01034 4.00211 4.03088H3.61986C3.61986 3.99542 3.62292 3.95977 3.6256 3.92861C3.62601 3.92379 3.62641 3.91909 3.6268 3.91451L3.62689 3.9134L3.627 3.9123C3.65032 3.672 3.74778 3.49087 3.92885 3.32021C3.97989 3.27155 4.03679 3.2262 4.08668 3.18644C4.08878 3.18476 4.09087 3.1831 4.09295 3.18144C4.14706 3.1383 4.19376 3.10072 4.23427 3.06163C4.31337 2.98532 4.34932 2.92185 4.34932 2.84665C4.34932 2.67571 4.28084 2.56067 4.18854 2.48659C4.09249 2.40951 3.95847 2.36748 3.81766 2.36876C3.67694 2.37005 3.54225 2.41449 3.44517 2.49483Z" fill="black" fill-opacity="0.8"/>
</svg>
