<svg width="88" height="13" viewBox="0 0 88 13" fill="none" xmlns="http://www.w3.org/2000/svg">
<path d="M8.29513 1.30471L3.72584 1.32925C1.78598 1.33967 0.215475 2.92065 0.225857 4.85406L0.250497 9.44269C0.260879 11.3761 1.84827 12.9401 3.78813 12.9297L8.35098 12.9052C10.2973 12.8948 11.8613 11.3138 11.851 9.3804L11.8263 4.79177C11.8224 2.85833 10.235 1.2943 8.29513 1.30471ZM10.8858 9.66916C10.8925 10.913 9.88607 11.9302 8.64224 11.9369L3.48648 11.9646C2.24266 11.9713 1.2254 10.9649 1.21872 9.72107L1.19104 4.5653C1.18436 3.32148 2.19075 2.30423 3.43457 2.29755L8.59033 2.26986C9.83416 2.26318 10.8514 3.26957 10.8581 4.5134L10.8858 9.66916Z" fill="#F1F4ED"/>
<path d="M9.16351 4.74736C9.55147 4.74528 9.86429 4.42908 9.86221 4.04112C9.86013 3.65315 9.54393 3.34034 9.15596 3.34242C8.768 3.3445 8.45518 3.6607 8.45726 4.04866C8.45935 4.43663 8.77554 4.74945 9.16351 4.74736Z" fill="#F1F4ED"/>
<path d="M6.04243 4.18417C4.39903 4.193 3.06566 5.5278 3.07445 7.16476C3.08328 8.80816 4.42446 10.1286 6.0743 10.1197C7.72414 10.1109 9.05107 8.77547 9.04224 7.13271C9.02701 5.49579 7.68583 4.17535 6.04243 4.18417ZM6.10078 9.04975C5.03096 9.05549 4.16273 8.19654 4.15702 7.13317C4.15131 6.06979 5.01027 5.20156 6.08009 5.19582C7.14991 5.19007 8.01813 6.04903 8.02384 7.1124C8.02955 8.17578 7.1706 9.04401 6.10078 9.04975Z" fill="#F1F4ED"/>
<path fill-rule="evenodd" clip-rule="evenodd" d="M36.1828 6.81988C36.166 3.69154 33.6159 1.1686 30.4875 1.1854C27.3592 1.2022 24.8363 3.75238 24.8531 6.88072C24.8682 9.70811 26.952 12.0406 29.6629 12.4514L29.6416 8.49307L28.2029 8.50079L28.1941 6.86278L29.6328 6.85505L29.6261 5.607C29.6185 4.18749 30.4602 3.39821 31.754 3.39126C32.3739 3.38793 33.0229 3.49522 33.0229 3.49522L33.0304 4.88944L32.3157 4.89328C31.6124 4.89706 31.3947 5.33474 31.3971 5.78338L31.4028 6.84555L32.9738 6.83711L32.7318 8.47647L31.4119 8.48356L31.4331 12.4424C34.1394 12.0027 36.198 9.64803 36.1828 6.81988Z" fill="#D9D9D9"/>
<path d="M59.5912 1.02948L50.1356 1.08025C49.619 1.08303 49.1695 1.45721 49.1723 1.96781L49.2232 11.4444C49.2259 11.9577 49.6798 12.4128 50.1965 12.41L59.6493 12.3593C60.1687 12.3565 60.5557 11.8939 60.553 11.3835L60.5021 1.90697C60.5024 1.39635 60.1079 1.0267 59.5912 1.02948ZM52.7302 10.5105L51.1071 10.5192L51.08 5.47268L52.7031 5.46397L52.7302 10.5105ZM51.9436 4.70073L51.932 4.70079C51.4125 4.70358 51.0741 4.31871 51.0715 3.83467C51.0689 3.34177 51.412 2.96234 51.9431 2.95949C52.4742 2.95664 52.8012 3.32968 52.8155 3.8253C52.8178 4.30935 52.4835 4.69783 51.9436 4.70073ZM58.6622 10.4787L57.0391 10.4874L57.0243 7.72803C57.0207 7.06696 56.7821 6.61655 56.1949 6.6197C55.7462 6.62211 55.4823 6.92702 55.3658 7.22329C55.3221 7.32974 55.311 7.47446 55.3118 7.62215L55.3272 10.4966L53.7041 10.5053L53.677 5.45874L55.3001 5.45002L55.3039 6.15232C55.5383 5.81469 55.9047 5.32867 56.7633 5.32406C57.8287 5.31834 58.6385 6.0163 58.6466 7.5304L58.6622 10.4787Z" fill="#D9D9D9"/>
<path d="M87.5152 2.20611C86.9914 2.43704 86.4368 2.59031 85.8687 2.66108C86.4642 2.30809 86.9104 1.74999 87.1237 1.09145C86.5608 1.42471 85.9452 1.65974 85.3033 1.78644C85.0312 1.50435 84.7046 1.28052 84.3434 1.12858C83.9821 0.976633 83.5937 0.899737 83.2018 0.902566C81.615 0.911086 80.3377 2.18342 80.3461 3.74335C80.3462 3.96033 80.3722 4.17654 80.4236 4.38733C79.2855 4.3401 78.1698 4.05583 77.1479 3.5527C76.1259 3.04957 75.2203 2.33866 74.4888 1.46546C74.2361 1.89664 74.1039 2.38777 74.106 2.88752C74.1113 3.86722 74.627 4.73045 75.4016 5.23365C74.9442 5.22525 74.4957 5.10663 74.094 4.88785L74.0942 4.92284C74.1015 6.29325 75.099 7.42799 76.4125 7.68044C76.1661 7.74754 75.912 7.78223 75.6567 7.78364C75.4755 7.78493 75.2946 7.76832 75.1167 7.73405C75.4875 8.85466 76.5535 9.66537 77.8112 9.68195C76.7936 10.475 75.5413 10.9073 74.2511 10.9111C74.0221 10.912 73.7933 10.8996 73.5657 10.874C74.8826 11.705 76.4106 12.1401 77.9678 12.1275C83.2558 12.0991 86.1216 7.77702 86.1015 4.04193C86.1009 3.91947 86.097 3.79703 86.0905 3.67751C86.6491 3.27564 87.1316 2.77737 87.5152 2.20611Z" fill="#D9D9D9"/>
</svg>
