<svg width="90" height="13" viewBox="0 0 90 13" fill="none" xmlns="http://www.w3.org/2000/svg">
<path d="M9.08407 0.695174L4.44614 0.720079C2.47714 0.730652 0.883037 2.33539 0.893575 4.29784L0.918584 8.95541C0.929122 10.9179 2.54037 12.5054 4.50936 12.4948L9.14076 12.4699C11.1163 12.4593 12.7039 10.8546 12.6933 8.89218L12.6683 4.23462C12.6643 2.27213 11.0531 0.684602 9.08407 0.695174ZM11.7136 9.18528C11.7204 10.4478 10.6989 11.4803 9.4364 11.4871L4.20318 11.5152C2.94067 11.522 1.90814 10.5005 1.90136 9.23797L1.87326 4.00475C1.86648 2.74224 2.88798 1.7097 4.15049 1.70292L9.38371 1.67482C10.6462 1.66804 11.6788 2.68955 11.6855 3.95206L11.7136 9.18528Z" fill="#F1F4ED"/>
<path d="M9.9655 4.18931C10.3593 4.1872 10.6768 3.86625 10.6747 3.47246C10.6726 3.07866 10.3516 2.76115 9.95784 2.76326C9.56404 2.76538 9.24653 3.08632 9.24864 3.48012C9.25076 3.87391 9.5717 4.19143 9.9655 4.18931Z" fill="#F1F4ED"/>
<path d="M6.79754 3.61801C5.12945 3.62697 3.77605 4.98183 3.78497 6.64338C3.79393 8.31146 5.15526 9.65175 6.82989 9.64275C8.50452 9.63376 9.85137 8.27828 9.84242 6.61085C9.82696 4.94934 8.46562 3.60906 6.79754 3.61801ZM6.85677 8.55669C5.77087 8.56252 4.8896 7.69066 4.88381 6.61131C4.87801 5.53196 5.74987 4.65069 6.83576 4.64486C7.92165 4.63903 8.80292 5.51088 8.80872 6.59023C8.81451 7.66959 7.94266 8.55086 6.85677 8.55669Z" fill="#F1F4ED"/>
<path fill-rule="evenodd" clip-rule="evenodd" d="M37.3907 6.29323C37.3737 3.11789 34.7852 0.557054 31.6099 0.574105C28.4345 0.591155 25.8737 3.17965 25.8907 6.35498C25.9061 9.22485 28.0213 11.5924 30.7728 12.0094L30.7512 7.99155L29.2909 7.99939L29.282 6.33677L30.7423 6.32893L30.7355 5.06213C30.7278 3.62129 31.5821 2.82016 32.8954 2.8131C33.5246 2.80972 34.1833 2.91862 34.1833 2.91862L34.1909 4.33379L33.4655 4.33769C32.7516 4.34152 32.5307 4.78578 32.5331 5.24116L32.5389 6.31928L34.1335 6.31072L33.8878 7.97471L32.5481 7.9819L32.5697 12.0002C35.3166 11.554 37.4062 9.16386 37.3907 6.29323Z" fill="#D9D9D9"/>
<path d="M61.1507 0.415355L51.5531 0.466891C51.0287 0.469708 50.5725 0.849512 50.5753 1.36778L50.6269 10.9867C50.6297 11.5078 51.0904 11.9697 51.6149 11.9669L61.2097 11.9154C61.7369 11.9125 62.1297 11.443 62.1269 10.925L62.0753 1.30603C62.0756 0.787743 61.6752 0.412539 61.1507 0.415355ZM54.1867 10.0388L52.5392 10.0477L52.5117 4.92531L54.1592 4.91646L54.1867 10.0388ZM53.3883 4.14176L53.3764 4.14183C52.8492 4.14466 52.5057 3.754 52.503 3.26269C52.5004 2.76238 52.8487 2.37726 53.3878 2.37436C53.9268 2.37147 54.2587 2.75012 54.2732 3.25318C54.2756 3.7445 53.9363 4.13882 53.3883 4.14176ZM60.2078 10.0065L58.5603 10.0154L58.5453 7.21454C58.5416 6.54354 58.2994 6.08636 57.7034 6.08956C57.248 6.09201 56.9801 6.40149 56.8619 6.70221C56.8175 6.81027 56.8062 6.95716 56.807 7.10707L56.8227 10.0247L55.1752 10.0335L55.1477 4.91115L56.7952 4.90231L56.799 5.61515C57.037 5.27246 57.4088 4.77913 58.2803 4.77445C59.3618 4.76865 60.1837 5.4771 60.192 7.01394L60.2078 10.0065Z" fill="#D9D9D9"/>
<path d="M89.4943 1.61017C88.9626 1.84457 88.3996 2.00014 87.8231 2.07197C88.4275 1.71368 88.8804 1.14719 89.0969 0.478756C88.5255 0.817031 87.9006 1.05558 87.2491 1.18419C86.973 0.897861 86.6415 0.670675 86.2748 0.516446C85.9081 0.362218 85.5139 0.284167 85.1161 0.287038C83.5055 0.295686 82.209 1.58713 82.2175 3.1705C82.2175 3.39074 82.2439 3.61019 82.2962 3.82416C81.141 3.77622 80.0085 3.48767 78.9712 2.97698C77.9339 2.46629 77.0146 1.74471 76.2722 0.858384C76.0157 1.29605 75.8815 1.79456 75.8836 2.30182C75.8889 3.29623 76.4125 4.17243 77.1986 4.68319C76.7344 4.67467 76.2792 4.55426 75.8714 4.3322L75.8716 4.36771C75.8791 5.75871 76.8915 6.91049 78.2248 7.16674C77.9747 7.23485 77.7168 7.27006 77.4576 7.27149C77.2737 7.27279 77.0901 7.25594 76.9095 7.22116C77.2859 8.3586 78.3679 9.18149 79.6445 9.19831C78.6115 10.0032 77.3404 10.4421 76.0309 10.446C75.7985 10.4469 75.5662 10.4343 75.3352 10.4083C76.6719 11.2518 78.2229 11.6934 79.8034 11.6806C85.1709 11.6518 88.0797 7.26476 88.0594 3.47357C88.0587 3.34927 88.0548 3.22498 88.0482 3.10367C88.6152 2.69577 89.1049 2.19001 89.4943 1.61017Z" fill="#D9D9D9"/>
</svg>
