<svg width="89" height="13" viewBox="0 0 89 13" fill="none" xmlns="http://www.w3.org/2000/svg">
<path d="M8.8827 0.658276L4.3183 0.682785C2.38052 0.693191 0.811688 2.27248 0.822059 4.20383L0.846672 8.78754C0.857043 10.7189 2.44274 12.2812 4.38052 12.2708L8.93849 12.2464C10.8827 12.2359 12.4451 10.6567 12.4347 8.72532L12.4101 4.1416C12.4062 2.21023 10.8205 0.64787 8.8827 0.658276ZM11.4706 9.01377C11.4772 10.2563 10.4719 11.2724 9.22944 11.2791L4.0792 11.3068C2.8367 11.3134 1.82054 10.3081 1.81386 9.06562L1.78621 3.91538C1.77954 2.67288 2.78485 1.65672 4.02734 1.65005L9.17759 1.62239C10.4201 1.61572 11.4362 2.62103 11.4429 3.86352L11.4706 9.01377Z" fill="#F1F4ED"/>
<path d="M9.75015 4.09743C10.1377 4.09535 10.4502 3.77949 10.4481 3.39194C10.446 3.00439 10.1302 2.6919 9.74261 2.69399C9.35506 2.69607 9.04258 3.01193 9.04466 3.39947C9.04674 3.78702 9.3626 4.09951 9.75015 4.09743Z" fill="#F1F4ED"/>
<path d="M6.63241 3.53526C4.99077 3.54408 3.65882 4.87746 3.6676 6.51266C3.67642 8.1543 5.01617 9.47333 6.66424 9.46448C8.31232 9.45563 9.63782 8.12165 9.62901 6.48065C9.61379 4.84548 8.27405 3.52645 6.63241 3.53526ZM6.6907 8.39563C5.62202 8.40137 4.75472 7.54334 4.74902 6.4811C4.74331 5.41886 5.60135 4.55157 6.67002 4.54583C7.7387 4.54009 8.606 5.39812 8.6117 6.46036C8.6174 7.5226 7.75937 8.3899 6.6907 8.39563Z" fill="#F1F4ED"/>
<path fill-rule="evenodd" clip-rule="evenodd" d="M36.7406 6.16789C36.7238 3.0429 34.1763 0.522657 31.0514 0.539438C27.9264 0.556218 25.4061 3.10367 25.4229 6.22866C25.4381 9.05302 27.5197 11.383 30.2276 11.7934L30.2063 7.83928L28.7691 7.847L28.7604 6.21074L30.1975 6.20302L30.1909 4.95631C30.1832 3.53832 31.0241 2.74988 32.3165 2.74294C32.9357 2.73961 33.584 2.84679 33.584 2.84679L33.5915 4.23952L32.8776 4.24335C32.175 4.24712 31.9576 4.68434 31.96 5.13249L31.9657 6.19353L33.535 6.1851L33.2932 7.82271L31.9747 7.82979L31.996 11.7844C34.6993 11.3452 36.7557 8.99301 36.7406 6.16789Z" fill="#D9D9D9"/>
<path d="M60.1239 0.383053L50.6784 0.433772C50.1623 0.436543 49.7134 0.810326 49.7161 1.32038L49.7669 10.7868C49.7697 11.2996 50.2231 11.7542 50.7392 11.7514L60.1819 11.7007C60.7008 11.6979 61.0873 11.2358 61.0846 10.726L61.0338 1.25961C61.0341 0.749537 60.64 0.380281 60.1239 0.383053ZM53.2702 9.85396L51.6489 9.86267L51.6218 4.8215L53.2432 4.8128L53.2702 9.85396ZM52.4845 4.05038L52.4728 4.05044C51.954 4.05323 51.6159 3.66877 51.6133 3.18524C51.6106 2.69287 51.9535 2.31385 52.484 2.311C53.0145 2.30815 53.3411 2.6808 53.3554 3.17588C53.3577 3.65941 53.0238 4.04748 52.4845 4.05038ZM59.1959 9.82214L57.5745 9.83085L57.5597 7.07444C57.5562 6.41407 57.3178 5.96415 56.7312 5.9673C56.283 5.96971 56.0194 6.27428 55.903 6.57024C55.8594 6.67658 55.8483 6.82114 55.8491 6.96868L55.8645 9.84003L54.2431 9.84873L54.216 4.80757L55.8374 4.79887L55.8412 5.50041C56.0753 5.16315 56.4413 4.67764 57.299 4.67304C58.3633 4.66732 59.1722 5.36454 59.1803 6.87702L59.1959 9.82214Z" fill="#D9D9D9"/>
<path d="M88.018 1.55878C87.4948 1.78946 86.9407 1.94257 86.3733 2.01325C86.9681 1.66064 87.4139 1.10314 87.6269 0.445304C87.0646 0.778216 86.4496 1.01299 85.8085 1.13956C85.5367 0.857764 85.2104 0.63418 84.8495 0.482396C84.4887 0.330613 84.1007 0.253799 83.7092 0.256625C82.1241 0.265137 80.8482 1.53611 80.8566 3.09437C80.8566 3.31112 80.8826 3.52709 80.934 3.73766C79.7971 3.69048 78.6826 3.40651 77.6617 2.90392C76.6409 2.40133 75.7362 1.69118 75.0055 0.818913C74.7531 1.24964 74.6211 1.74024 74.6231 2.23946C74.6284 3.21811 75.1436 4.08042 75.9173 4.58308C75.4605 4.57469 75.0124 4.45619 74.6111 4.23765L74.6113 4.2726C74.6187 5.64154 75.6151 6.77506 76.9272 7.02725C76.681 7.09428 76.4272 7.12893 76.1722 7.13034C75.9912 7.13162 75.8105 7.11503 75.6327 7.0808C76.0031 8.20021 77.068 9.01006 78.3244 9.02661C77.3078 9.81877 76.0569 10.2507 74.7681 10.2545C74.5394 10.2554 74.3107 10.243 74.0834 10.2174C75.3989 11.0475 76.9253 11.4821 78.4808 11.4695C83.7631 11.4412 86.6259 7.12372 86.6058 3.39263C86.6052 3.2703 86.6013 3.14799 86.5949 3.0286C87.1528 2.62716 87.6348 2.12943 88.018 1.55878Z" fill="#D9D9D9"/>
</svg>
