<svg width="88" height="6" viewBox="0 0 88 6" fill="none" xmlns="http://www.w3.org/2000/svg">
<path d="M8.52539 -6.38509L3.97087 -6.36063C2.03729 -6.35025 0.471857 -4.77437 0.482205 -2.84722L0.506765 1.72658C0.517113 3.65373 2.09938 5.21271 4.03296 5.20232L8.58105 5.1779C10.5211 5.16748 12.0801 3.59165 12.0697 1.66449L12.0452 -2.9093C12.0412 -4.8365 10.459 -6.39547 8.52539 -6.38509ZM11.1077 1.95231C11.1143 3.19212 10.1112 4.20608 8.87138 4.21274L3.73229 4.24033C2.49248 4.24699 1.47852 3.24386 1.47186 2.00405L1.44427 -3.13504C1.43761 -4.37484 2.44074 -5.38881 3.68055 -5.39546L8.81964 -5.42306C10.0594 -5.42972 11.0734 -4.42659 11.0801 -3.18678L11.1077 1.95231Z" fill="#F1F4ED"/>
<path d="M6.27997 -3.51499C4.64189 -3.5062 3.31283 -2.17571 3.32159 -0.544046C3.33039 1.09404 4.66723 2.41021 6.31174 2.40138C7.95625 2.39255 9.27888 1.06146 9.27009 -0.575988C9.2549 -2.20761 7.91806 -3.52379 6.27997 -3.51499ZM6.33814 1.33485C5.27177 1.34058 4.40635 0.484401 4.40066 -0.575536C4.39497 -1.63547 5.25115 -2.50089 6.31751 -2.50662C7.38387 -2.51235 8.24929 -1.65617 8.25498 -0.596233C8.26067 0.463704 7.4045 1.32912 6.33814 1.33485Z" fill="#F1F4ED"/>
<path fill-rule="evenodd" clip-rule="evenodd" d="M36.3229 -0.887695C36.3062 -4.00592 33.7643 -6.5207 30.646 -6.50395C27.5278 -6.48721 25.013 -3.94528 25.0298 -0.827053C25.0449 1.99119 27.122 4.31613 29.824 4.72563L29.8028 0.780082L28.3688 0.787782L28.36 -0.844936L29.7941 -0.852636L29.7874 -2.09665C29.7798 -3.51157 30.6188 -4.2983 31.9084 -4.30523C32.5263 -4.30854 33.1732 -4.2016 33.1732 -4.2016L33.1807 -2.81189L32.4683 -2.80806C31.7673 -2.8043 31.5503 -2.36803 31.5527 -1.92084L31.5584 -0.86211L33.1243 -0.870519L32.883 0.763542L31.5674 0.770607L31.5886 4.71666C34.2861 4.27842 36.3381 1.93131 36.3229 -0.887695Z" fill="#D9D9D9"/>
<path d="M59.6556 -6.6598L50.2306 -6.60919C49.7156 -6.60642 49.2676 -6.23345 49.2703 -5.7245L49.3211 3.72142C49.3238 4.23314 49.7762 4.68674 50.2912 4.68397L59.7135 4.63338C60.2312 4.6306 60.617 4.16948 60.6142 3.66078L60.5635 -5.78514C60.5638 -6.2941 60.1706 -6.66256 59.6556 -6.6598ZM52.8168 2.7906L51.199 2.79929L51.1719 -2.23096L52.7898 -2.23964L52.8168 2.7906ZM52.0327 -3.00041L52.0211 -3.00035C51.5034 -2.99757 51.166 -3.3812 51.1634 -3.86368C51.1608 -4.35498 51.5029 -4.73318 52.0322 -4.73602C52.5616 -4.73887 52.8875 -4.36702 52.9018 -3.87301C52.9041 -3.39053 52.5709 -3.0033 52.0327 -3.00041ZM58.7296 2.75885L57.1117 2.76754L57.097 0.017099C57.0934 -0.641837 56.8556 -1.09079 56.2702 -1.08764C55.823 -1.08524 55.56 -0.781325 55.4438 -0.486012C55.4003 -0.379902 55.3892 -0.235649 55.39 -0.0884351L55.4054 2.7767L53.7876 2.78539L53.7605 -2.24486L55.3784 -2.25354L55.3822 -1.55352C55.6158 -1.89005 55.981 -2.3745 56.8368 -2.3791C57.8988 -2.3848 58.7059 -1.68909 58.714 -0.179893L58.7296 2.75885Z" fill="#D9D9D9"/>
<path d="M87.4893 -5.4869C86.9672 -5.25671 86.4143 -5.10394 85.8481 -5.03341C86.4417 -5.38525 86.8865 -5.94155 87.0991 -6.59796C86.5379 -6.26577 85.9243 -6.03151 85.2845 -5.90521C85.0133 -6.18639 84.6878 -6.40949 84.3277 -6.56095C83.9676 -6.7124 83.5805 -6.78905 83.1898 -6.78623C81.6082 -6.77774 80.335 -5.50952 80.3434 -3.95463C80.3434 -3.73835 80.3693 -3.52285 80.4206 -3.31273C79.2862 -3.35981 78.1741 -3.64316 77.1555 -4.14467C76.1368 -4.64617 75.2341 -5.35478 74.505 -6.22516C74.2531 -5.79537 74.1214 -5.30583 74.1234 -4.80769C74.1287 -3.83116 74.6428 -2.97072 75.4148 -2.46915C74.959 -2.47752 74.5119 -2.59576 74.1115 -2.81383L74.1117 -2.77895C74.119 -1.41298 75.1132 -0.281909 76.4225 -0.030269C76.1769 0.0366132 75.9236 0.0711922 75.6691 0.0725942C75.4885 0.0738789 75.3082 0.057323 75.1309 0.0231685C75.5005 1.14015 76.563 1.94824 77.8166 1.96476C76.8023 2.75521 75.5541 3.18619 74.2681 3.18998C74.0398 3.19086 73.8117 3.1785 73.5849 3.15296C74.8976 3.98127 76.4206 4.41496 77.9727 4.4024C83.2436 4.3741 86.1002 0.0659911 86.0802 -3.65701C86.0795 -3.77908 86.0757 -3.90113 86.0692 -4.02026C86.626 -4.42083 87.1069 -4.91748 87.4893 -5.4869Z" fill="#D9D9D9"/>
</svg>
