<svg width="88" height="13" viewBox="0 0 88 13" fill="none" xmlns="http://www.w3.org/2000/svg">
<path d="M8.22196 1.04446L3.62656 1.06913C1.67563 1.07961 0.0961463 2.66963 0.106587 4.61408L0.131368 9.22892C0.141809 11.1734 1.73827 12.7463 3.68921 12.7359L8.27812 12.7112C10.2355 12.7007 11.8085 11.1107 11.7981 9.16627L11.7733 4.55143C11.7694 2.60694 10.1729 1.03398 8.22196 1.04446ZM10.8274 9.45668C10.8341 10.7076 9.82198 11.7307 8.57105 11.7374L3.38584 11.7652C2.13491 11.772 1.11184 10.7598 1.10513 9.50889L1.07728 4.32367C1.07057 3.07274 2.0827 2.04968 3.33363 2.04296L8.51885 2.01512C9.76978 2.0084 10.7928 3.02053 10.7996 4.27147L10.8274 9.45668Z" fill="#F1F4ED"/>
<path d="M9.09538 4.50671C9.48556 4.50462 9.80017 4.18661 9.79807 3.79643C9.79598 3.40625 9.47798 3.09165 9.0878 3.09374C8.69761 3.09584 8.38301 3.41384 8.3851 3.80402C8.3872 4.1942 8.7052 4.50881 9.09538 4.50671Z" fill="#F1F4ED"/>
<path d="M5.95651 3.94055C4.30372 3.94943 2.96274 5.29186 2.97158 6.93816C2.98045 8.59095 4.32929 9.91894 5.98856 9.91003C7.64783 9.90112 8.98233 8.55807 8.97346 6.90593C8.95814 5.25966 7.60929 3.93168 5.95651 3.94055ZM6.01519 8.83392C4.93926 8.8397 4.06607 7.97584 4.06033 6.90639C4.05459 5.83694 4.91845 4.96375 5.99438 4.95798C7.07031 4.9522 7.9435 5.81606 7.94924 6.88551C7.95498 7.95496 7.09112 8.82814 6.01519 8.83392Z" fill="#F1F4ED"/>
<path fill-rule="evenodd" clip-rule="evenodd" d="M36.269 6.59127C36.2521 3.44506 33.6873 0.907713 30.5411 0.924607C27.3949 0.941502 24.8576 3.50625 24.8745 6.65246C24.8897 9.496 26.9854 11.8418 29.7117 12.255L29.6904 8.27402L28.2434 8.28179L28.2346 6.63441L29.6815 6.62664L29.6748 5.37147C29.6671 3.94385 30.5136 3.15006 31.8149 3.14307C32.4382 3.13972 33.091 3.24762 33.091 3.24762L33.0985 4.64981L32.3797 4.65367C31.6724 4.65747 31.4535 5.09765 31.4559 5.54885L31.4617 6.61709L33.0416 6.6086L32.7982 8.25733L31.4708 8.26446L31.4921 12.2459C34.2138 11.8037 36.2842 9.43558 36.269 6.59127Z" fill="#D9D9D9"/>
<path d="M59.8112 0.767439L50.3016 0.818502C49.782 0.821293 49.33 1.19761 49.3328 1.71113L49.3839 11.2418C49.3867 11.7581 49.8432 12.2158 50.3628 12.213L59.8696 12.162C60.392 12.1592 60.7812 11.6939 60.7785 11.1806L60.7273 1.64994C60.7276 1.13641 60.3308 0.764648 59.8112 0.767439ZM52.911 10.3026L51.2787 10.3114L51.2514 5.23602L52.8838 5.22726L52.911 10.3026ZM52.1199 4.45967L52.1082 4.45973C51.5858 4.46253 51.2455 4.07546 51.2428 3.58865C51.2402 3.09294 51.5853 2.71134 52.1194 2.70847C52.6535 2.70561 52.9824 3.08079 52.9968 3.57923C52.9991 4.06604 52.663 4.45675 52.1199 4.45967ZM58.8769 10.2706L57.2445 10.2794L57.2296 7.50426C57.2261 6.83941 56.9861 6.38643 56.3955 6.3896C55.9443 6.39202 55.6789 6.69867 55.5617 6.99663C55.5177 7.10369 55.5066 7.24924 55.5074 7.39778L55.5229 10.2886L53.8905 10.2974L53.8633 5.222L55.4956 5.21323L55.4994 5.91954C55.7352 5.57999 56.1036 5.09119 56.9671 5.08655C58.0387 5.0808 58.853 5.78275 58.8612 7.3055L58.8769 10.2706Z" fill="#D9D9D9"/>
<path d="M87.8946 1.95093C87.3678 2.18318 86.81 2.33733 86.2387 2.40849C86.8375 2.05349 87.2863 1.4922 87.5009 0.829899C86.9347 1.16507 86.3155 1.40144 85.67 1.52887C85.3964 1.24516 85.0679 1.02006 84.7046 0.867244C84.3413 0.714429 83.9507 0.637094 83.5565 0.639939C81.9607 0.648508 80.6761 1.92811 80.6845 3.49695C80.6846 3.71518 80.7107 3.93261 80.7625 4.14461C79.6179 4.09711 78.4958 3.81121 77.468 3.30521C76.4402 2.7992 75.5294 2.08424 74.7937 1.20604C74.5396 1.63969 74.4067 2.13363 74.4088 2.63624C74.414 3.62153 74.9328 4.48969 75.7117 4.99577C75.2518 4.98732 74.8007 4.86802 74.3967 4.64799L74.3969 4.68318C74.4043 6.06142 75.4074 7.20264 76.7284 7.45654C76.4806 7.52402 76.2251 7.55891 75.9683 7.56032C75.7861 7.56162 75.6042 7.54491 75.4252 7.51045C75.7981 8.63746 76.8702 9.4528 78.1351 9.46947C77.1117 10.267 75.8522 10.7019 74.5547 10.7057C74.3244 10.7066 74.0942 10.6941 73.8654 10.6683C75.1898 11.5041 76.7265 11.9417 78.2926 11.929C83.6108 11.9004 86.493 7.55366 86.4728 3.79724C86.4722 3.67408 86.4683 3.55093 86.4618 3.43074C87.0235 3.02657 87.5087 2.52546 87.8946 1.95093Z" fill="#D9D9D9"/>
</svg>
