<svg width="87" height="12" viewBox="0 0 87 12" fill="none" xmlns="http://www.w3.org/2000/svg">
<path d="M8.25482 0.166504H3.71545C1.78829 0.166504 0.219681 1.72871 0.219681 3.64946V8.20804C0.219681 10.1288 1.78829 11.691 3.71545 11.691H8.24842C10.182 11.691 11.7442 10.1288 11.7442 8.20804V3.64946C11.7506 1.72871 10.182 0.166504 8.25482 0.166504ZM10.7838 8.48975C10.7838 9.72544 9.77861 10.7306 8.54293 10.7306H3.42093C2.18525 10.7306 1.18006 9.72544 1.18006 8.48975V3.36775C1.18006 2.13207 2.18525 1.12688 3.42093 1.12688H8.54293C9.77861 1.12688 10.7838 2.13207 10.7838 3.36775V8.48975Z" fill="#F1F4ED"/>
<path d="M9.09912 3.59155C9.48454 3.59155 9.79699 3.2791 9.79699 2.89367C9.79699 2.50825 9.48454 2.1958 9.09912 2.1958C8.71369 2.1958 8.40125 2.50825 8.40125 2.89367C8.40125 3.2791 8.71369 3.59155 9.09912 3.59155Z" fill="#F1F4ED"/>
<path d="M6.00157 3.01562C4.36894 3.01562 3.03722 4.33454 3.03722 5.96078C3.03722 7.59341 4.36253 8.91233 6.00157 8.91233C7.64061 8.91233 8.96593 7.59277 8.96593 5.96078C8.95953 4.33454 7.63421 3.01562 6.00157 3.01562ZM6.03359 7.84951C4.97077 7.84951 4.11284 6.99158 4.11284 5.93517C4.11284 4.87875 4.97077 4.02082 6.03359 4.02082C7.0964 4.02082 7.95434 4.87875 7.95434 5.93517C7.95434 6.99158 7.0964 7.84951 6.03359 7.84951Z" fill="#F1F4ED"/>
<path fill-rule="evenodd" clip-rule="evenodd" d="M35.9297 5.7943C35.9297 2.68645 33.4097 0.166504 30.3019 0.166504C27.194 0.166504 24.6741 2.68645 24.6741 5.7943C24.6741 8.60318 26.7318 10.9314 29.4225 11.354V7.42159H27.9932V5.7943H29.4225V4.55443C29.4225 3.14421 30.2629 2.36461 31.5483 2.36461C32.1641 2.36461 32.8083 2.47466 32.8083 2.47466V3.85975H32.0983C31.3996 3.85975 31.181 4.29339 31.181 4.73909V5.7943H32.7417L32.4925 7.42159H31.1812V11.3545C33.872 10.9322 35.9297 8.60393 35.9297 5.7943Z" fill="#D9D9D9"/>
<path d="M59.215 0.166504H49.8213C49.308 0.166504 48.8596 0.535828 48.8596 1.04308V10.4576C48.8596 10.9676 49.308 11.4221 49.8213 11.4221H59.2122C59.7282 11.4221 60.1152 10.9646 60.1152 10.4576V1.04308C60.1182 0.535828 59.7282 0.166504 59.215 0.166504ZM52.3485 9.5486H50.7361V4.53508H52.3485V9.5486ZM51.5981 3.77282H51.5865C51.0705 3.77282 50.7363 3.38867 50.7363 2.9078C50.7363 2.41813 51.0793 2.04302 51.6069 2.04302C52.1345 2.04302 52.4573 2.41536 52.4689 2.9078C52.4686 3.38867 52.1345 3.77282 51.5981 3.77282ZM58.2417 9.5486H56.6292V6.80731C56.6292 6.15056 56.3945 5.70185 55.8111 5.70185C55.3654 5.70185 55.1016 6.00334 54.9843 6.29704C54.9403 6.40256 54.9285 6.54627 54.9285 6.69299V9.5486H53.3161V4.53508H54.9285V5.23278C55.1632 4.89863 55.5298 4.41775 56.3827 4.41775C57.4412 4.41775 58.2419 5.11545 58.2419 6.61963L58.2417 9.5486Z" fill="#D9D9D9"/>
<path d="M86.9491 1.48449C86.4275 1.71111 85.8757 1.86041 85.311 1.92768C85.9044 1.58019 86.3507 1.02814 86.5661 0.375068C86.0051 0.703142 85.3923 0.933334 84.754 1.05578C84.4852 0.774092 84.1619 0.549999 83.8038 0.397125C83.4458 0.244251 83.0603 0.165789 82.671 0.166509C81.0946 0.166509 79.8189 1.42366 79.8189 2.97337C79.8178 3.18893 79.8425 3.40385 79.8925 3.61354C78.7621 3.56055 77.6553 3.27219 76.6427 2.76692C75.6302 2.26164 74.7343 1.55058 74.0123 0.679218C73.759 1.10622 73.625 1.59342 73.6244 2.08989C73.6244 3.06317 74.1322 3.92348 74.8989 4.4275C74.4447 4.41672 73.9997 4.29648 73.6018 4.077V4.11176C73.6018 5.47319 74.5867 6.60579 75.8902 6.86359C75.6451 6.92894 75.3925 6.96204 75.1388 6.96208C74.9588 6.96239 74.7792 6.94493 74.6026 6.90994C74.965 8.02515 76.0197 8.83622 77.269 8.85939C76.2538 9.64176 75.0075 10.0646 73.7258 10.0615C73.4983 10.0612 73.271 10.0476 73.0451 10.021C74.3489 10.8535 75.8645 11.2939 77.4115 11.2897C82.6649 11.2897 85.5349 7.01132 85.5349 3.3007C85.5349 3.17904 85.5317 3.05738 85.5259 2.93861C86.083 2.54237 86.5649 2.04995 86.9491 1.48449Z" fill="#D9D9D9"/>
</svg>
