<svg width="89" height="13" viewBox="0 0 89 13" fill="none" xmlns="http://www.w3.org/2000/svg">
<path d="M8.89185 1.13568L4.31296 1.16026C2.36904 1.1707 0.795235 2.75501 0.805639 4.69247L0.83033 9.29073C0.840734 11.2282 2.43146 12.7955 4.37539 12.7851L8.94781 12.7605C10.8982 12.75 12.4655 11.1658 12.4551 9.22831L12.4304 4.63005C12.4265 2.69255 10.8358 1.12524 8.89185 1.13568ZM11.4879 9.51767C11.4946 10.7641 10.4861 11.7835 9.23969 11.7902L4.07311 11.8179C2.82667 11.8246 1.80728 10.8161 1.80059 9.56969L1.77285 4.40311C1.76615 3.15667 2.77465 2.13729 4.02109 2.13059L9.18767 2.10285C10.4341 2.09616 11.4535 3.10465 11.4602 4.35109L11.4879 9.51767Z" fill="#F1F4ED"/>
<path d="M9.76204 4.58575C10.1508 4.58367 10.4643 4.26681 10.4622 3.87803C10.4601 3.48925 10.1433 3.17577 9.75448 3.17786C9.3657 3.17995 9.05223 3.49681 9.05432 3.88559C9.0564 4.27437 9.37326 4.58784 9.76204 4.58575Z" fill="#F1F4ED"/>
<path d="M6.63441 4.02154C4.98757 4.03038 3.6514 5.36799 3.66021 7.00838C3.66905 8.65523 5.01305 9.97844 6.66635 9.96957C8.31966 9.96069 9.64936 8.62247 9.64052 6.97627C9.62526 5.33591 8.28126 4.0127 6.63441 4.02154ZM6.69289 8.89733C5.62082 8.90308 4.75077 8.04233 4.74505 6.97672C4.73933 5.91112 5.60008 5.04107 6.67215 5.03531C7.74421 5.02955 8.61426 5.89031 8.61999 6.95592C8.62571 8.02152 7.76495 8.89157 6.69289 8.89733Z" fill="#F1F4ED"/>
<path fill-rule="evenodd" clip-rule="evenodd" d="M36.8381 6.66269C36.8212 3.52779 34.2657 0.999559 31.1308 1.01639C27.9959 1.03323 25.4677 3.58876 25.4845 6.72366C25.4997 9.55698 27.5879 11.8944 30.3044 12.306L30.2831 8.33939L28.8413 8.34713L28.8325 6.70568L30.2743 6.69794L30.2676 5.44727C30.2599 4.02478 31.1034 3.23384 32.4 3.22688C33.0211 3.22355 33.6715 3.33106 33.6715 3.33106L33.679 4.72821L32.9628 4.73205C32.258 4.73584 32.0399 5.17444 32.0423 5.62402L32.048 6.68841L33.6223 6.67996L33.3797 8.32276L32.0571 8.32986L32.0784 12.297C34.7903 11.8564 36.8533 9.49678 36.8381 6.66269Z" fill="#D9D9D9"/>
<path d="M60.2955 0.859926L50.8201 0.910806C50.3024 0.913587 49.852 1.28855 49.8547 1.80023L49.9057 11.2967C49.9085 11.8111 50.3633 12.2672 50.8811 12.2644L60.3537 12.2135C60.8743 12.2107 61.2621 11.7471 61.2593 11.2357L61.2083 1.73926C61.2086 1.22757 60.8133 0.857146 60.2955 0.859926ZM53.4202 10.3609L51.7937 10.3696L51.7665 5.31245L53.393 5.30372L53.4202 10.3609ZM52.6319 4.53888L52.6202 4.53895C52.0997 4.54174 51.7606 4.15606 51.758 3.671C51.7553 3.17707 52.0992 2.79684 52.6314 2.79399C53.1636 2.79113 53.4913 3.16496 53.5056 3.66162C53.5079 4.14668 53.173 4.53598 52.6319 4.53888ZM59.3646 10.329L57.7381 10.3377L57.7232 7.57254C57.7197 6.91007 57.4805 6.45872 56.8921 6.46188C56.4425 6.4643 56.178 6.76984 56.0613 7.06673C56.0175 7.17341 56.0064 7.31843 56.0072 7.46644L56.0226 10.3469L54.3961 10.3556L54.369 5.29848L55.9955 5.28975L55.9992 5.99351C56.2341 5.65518 56.6013 5.16814 57.4617 5.16352C58.5294 5.15779 59.3408 5.85722 59.349 7.37449L59.3646 10.329Z" fill="#D9D9D9"/>
<path d="M88.2781 2.03881C87.7533 2.27023 87.1974 2.42382 86.6282 2.49473C87.2249 2.14101 87.6721 1.58173 87.8859 0.921812C87.3217 1.25578 86.7048 1.49129 86.0616 1.61827C85.789 1.33558 85.4617 1.11129 85.0997 0.959022C84.7376 0.806757 84.3484 0.7297 83.9557 0.732535C82.3656 0.741073 81.0856 2.01608 81.094 3.57928C81.094 3.79672 81.1201 4.01337 81.1717 4.22461C80.0312 4.17728 78.9131 3.89241 77.889 3.38823C76.865 2.88404 75.9574 2.17164 75.2244 1.29661C74.9712 1.7287 74.8387 2.22086 74.8408 2.72166C74.8461 3.70341 75.3629 4.56845 76.1391 5.07271C75.6808 5.06429 75.2313 4.94542 74.8288 4.72619L74.829 4.76125C74.8363 6.13453 75.8359 7.27165 77.1521 7.52463C76.9052 7.59187 76.6506 7.62664 76.3947 7.62805C76.2132 7.62934 76.0319 7.61269 75.8536 7.57836C76.2252 8.70132 77.2934 9.51373 78.5538 9.53034C77.534 10.325 76.2791 10.7583 74.9862 10.7621C74.7568 10.763 74.5274 10.7506 74.2994 10.7249C75.6191 11.5576 77.1503 11.9936 78.7107 11.981C84.0098 11.9526 86.8816 7.62141 86.8615 3.87849C86.8609 3.75577 86.857 3.63307 86.8505 3.5133C87.4102 3.11059 87.8937 2.61128 88.2781 2.03881Z" fill="#D9D9D9"/>
</svg>
