<svg width="154" height="22" viewBox="0 0 154 22" fill="none" xmlns="http://www.w3.org/2000/svg">
<path d="M14.5009 0.729492L6.48031 0.729492C3.07522 0.729492 0.303635 3.48976 0.303635 6.88354L0.303635 14.9381C0.303635 18.3319 3.07522 21.0921 6.48031 21.0921L14.4896 21.0921C17.906 21.0921 20.6663 18.3319 20.6663 14.9381L20.6663 6.88354C20.6776 3.48976 17.906 0.729492 14.5009 0.729492ZM18.9694 15.4359C18.9694 17.6192 17.1933 19.3953 15.01 19.3953L5.95993 19.3953C3.7766 19.3953 2.00052 17.6192 2.00052 15.4359L2.00052 6.38578C2.00052 4.20246 3.7766 2.42638 5.95993 2.42638L15.01 2.42638C17.1933 2.42638 18.9694 4.20246 18.9694 6.38578L18.9694 15.4359Z" fill="#F1F4ED"/>
<path d="M15.9927 6.78035C16.6737 6.78035 17.2258 6.22829 17.2258 5.54728C17.2258 4.86627 16.6737 4.31421 15.9927 4.31421C15.3117 4.31421 14.7596 4.86627 14.7596 5.54728C14.7596 6.22829 15.3117 6.78035 15.9927 6.78035Z" fill="#F1F4ED"/>
<path d="M10.5197 5.76294C7.63495 5.76294 5.28193 8.09333 5.28193 10.9667C5.28193 13.8514 7.62363 16.1818 10.5197 16.1818C13.4157 16.1818 15.7574 13.8503 15.7574 10.9667C15.7461 8.09333 13.4044 5.76294 10.5197 5.76294ZM10.5762 14.3039C8.69833 14.3039 7.18244 12.7881 7.18244 10.9215C7.18244 9.0549 8.69833 7.53902 10.5762 7.53902C12.4541 7.53902 13.97 9.0549 13.97 10.9215C13.97 12.7881 12.4541 14.3039 10.5762 14.3039Z" fill="#F1F4ED"/>
<path fill-rule="evenodd" clip-rule="evenodd" d="M63.3997 10.6733C63.3997 5.18199 58.9472 0.729492 53.4559 0.729492C47.9646 0.729492 43.5121 5.18199 43.5121 10.6733C43.5121 15.6363 47.1478 19.7501 51.9022 20.4967V13.5485H49.3767V10.6733H51.9022V8.48252C51.9022 5.99081 53.3871 4.61333 55.6582 4.61333C56.7462 4.61333 57.8844 4.80777 57.8844 4.80777V7.25509H56.6299C55.3954 7.25509 55.0092 8.02129 55.0092 8.8088V10.6733H57.7668L57.3264 13.5485H55.0096V20.4976C59.764 19.7514 63.3997 15.6376 63.3997 10.6733Z" fill="#D9D9D9"/>
<path d="M104.542 0.729492L87.9448 0.729492C87.0379 0.729492 86.2455 1.38205 86.2455 2.27832V18.9128C86.2455 19.814 87.0379 20.617 87.9448 20.617L104.538 20.617C105.449 20.617 106.133 19.8087 106.133 18.9128V2.27832C106.138 1.38205 105.449 0.729492 104.542 0.729492ZM92.4102 17.3067H89.5611V8.44834L92.4102 8.44834V17.3067ZM91.0842 7.10149H91.0638C90.152 7.10149 89.5616 6.42274 89.5616 5.57308C89.5616 4.70789 90.1675 4.04512 91.0998 4.04512C92.032 4.04512 92.6024 4.703 92.6228 5.57308C92.6224 6.42274 92.032 7.10149 91.0842 7.10149ZM102.823 17.3067H99.9737V12.4631C99.9737 11.3027 99.5591 10.5099 98.5283 10.5099C97.7408 10.5099 97.2747 11.0426 97.0673 11.5615C96.9897 11.748 96.9688 12.0019 96.9688 12.2612V17.3067H94.1197V8.44834L96.9688 8.44834V9.6811C97.3834 9.09069 98.0311 8.24103 99.5382 8.24103C101.408 8.24103 102.823 9.47379 102.823 12.1315L102.823 17.3067Z" fill="#D9D9D9"/>
<path d="M153.546 3.05824C152.624 3.45866 151.649 3.72246 150.652 3.84132C151.7 3.22734 152.489 2.25192 152.869 1.09801C151.878 1.67768 150.795 2.0844 149.667 2.30076C149.192 1.80304 148.621 1.40709 147.989 1.13698C147.356 0.866864 146.675 0.728229 145.987 0.729501C143.202 0.729501 140.948 2.95076 140.948 5.68895C140.946 6.06983 140.989 6.44957 141.078 6.82006C139.08 6.72643 137.125 6.21693 135.336 5.32416C133.547 4.4314 131.964 3.17502 130.688 1.63541C130.24 2.38988 130.004 3.25071 130.003 4.12793C130.003 5.84762 130.9 7.3677 132.254 8.25825C131.452 8.2392 130.666 8.02676 129.963 7.63896V7.70037C129.963 10.1059 131.703 12.1071 134.006 12.5626C133.573 12.678 133.126 12.7365 132.678 12.7366C132.36 12.7372 132.043 12.7063 131.731 12.6445C132.371 14.6149 134.235 16.048 136.442 16.089C134.648 17.4713 132.446 18.2185 130.182 18.213C129.78 18.2124 129.378 18.1885 128.979 18.1413C131.283 19.6124 133.961 20.3905 136.694 20.3831C145.976 20.3831 151.047 12.8236 151.047 6.2673C151.047 6.05234 151.042 5.83738 151.031 5.62754C152.016 4.92741 152.867 4.05736 153.546 3.05824Z" fill="#D9D9D9"/>
</svg>
