<svg width="37" height="37" viewBox="0 0 37 37" fill="none" xmlns="http://www.w3.org/2000/svg">
<path d="M7.77328 23.381C7.77263 24.1496 7.54412 24.9007 7.11666 25.5394C6.68919 26.1781 6.08195 26.6758 5.3717 26.9694C4.66146 27.2631 3.88009 27.3396 3.12637 27.1892C2.37265 27.0389 1.68043 26.6685 1.1372 26.1248C0.593979 25.5811 0.22414 24.8886 0.0744411 24.1347C-0.0752582 23.3809 0.00190299 22.5996 0.29617 21.8896C0.590438 21.1796 1.0886 20.5728 1.72768 20.1458C2.36676 19.7189 3.11808 19.491 3.88664 19.491H7.77328V23.381Z" fill="white"/>
<path d="M9.73242 23.3811C9.73242 22.3503 10.1419 21.3618 10.8708 20.6329C11.5997 19.904 12.5883 19.4945 13.6191 19.4945C14.6499 19.4945 15.6384 19.904 16.3673 20.6329C17.0962 21.3618 17.5057 22.3503 17.5057 23.3811V33.1134C17.5057 34.1442 17.0962 35.1328 16.3673 35.8617C15.6384 36.5906 14.6499 37.0001 13.6191 37.0001C12.5883 37.0001 11.5997 36.5906 10.8708 35.8617C10.1419 35.1328 9.73242 34.1442 9.73242 33.1134V23.3811Z" fill="white"/>
<path d="M13.6189 7.77328C12.8504 7.77263 12.0993 7.54412 11.4605 7.11666C10.8218 6.68919 10.3242 6.08195 10.0305 5.3717C9.73684 4.66146 9.66034 3.88009 9.81068 3.12637C9.96102 2.37265 10.3314 1.68043 10.8751 1.1372C11.4188 0.593979 12.1114 0.22414 12.8652 0.0744411C13.619 -0.0752582 14.4004 0.00190299 15.1104 0.29617C15.8204 0.590438 16.4272 1.0886 16.8541 1.72768C17.281 2.36676 17.5089 3.11808 17.5089 3.88664V7.77328H13.6189Z" fill="white"/>
<path d="M13.6189 9.7321C14.6497 9.7321 15.6383 10.1416 16.3672 10.8705C17.0961 11.5994 17.5056 12.5879 17.5056 13.6187C17.5056 14.6495 17.0961 15.6381 16.3672 16.367C15.6383 17.0959 14.6497 17.5054 13.6189 17.5054H3.88664C2.85584 17.5054 1.86726 17.0959 1.13837 16.367C0.409484 15.6381 0 14.6495 0 13.6187C0 12.5879 0.409484 11.5994 1.13837 10.8705C1.86726 10.1416 2.85584 9.7321 3.88664 9.7321H13.6189Z" fill="white"/>
<path d="M29.2268 13.6189C29.2275 12.8503 29.456 12.0992 29.8834 11.4605C30.3109 10.8218 30.9181 10.3241 31.6284 10.0305C32.3386 9.7368 33.12 9.6603 33.8737 9.81064C34.6274 9.96098 35.3197 10.3314 35.8629 10.8751C36.4061 11.4188 36.7759 12.1113 36.9256 12.8652C37.0753 13.619 36.9982 14.4003 36.7039 15.1103C36.4096 15.8203 35.9115 16.4271 35.2724 16.8541C34.6333 17.281 33.882 17.5088 33.1134 17.5088H29.2268V13.6189Z" fill="white"/>
<path d="M27.2677 13.6189C27.2677 14.6497 26.8582 15.6383 26.1293 16.3672C25.4004 17.0961 24.4118 17.5056 23.381 17.5056C22.3502 17.5056 21.3616 17.0961 20.6328 16.3672C19.9039 15.6383 19.4944 14.6497 19.4944 13.6189V3.88664C19.4944 2.85584 19.9039 1.86726 20.6328 1.13837C21.3616 0.409484 22.3502 0 23.381 0C24.4118 0 25.4004 0.409484 26.1293 1.13837C26.8582 1.86726 27.2677 2.85584 27.2677 3.88664V13.6189Z" fill="white"/>
<path d="M23.3812 29.2266C24.1497 29.2273 24.9008 29.4558 25.5396 29.8832C26.1783 30.3107 26.6759 30.9179 26.9696 31.6282C27.2632 32.3384 27.3397 33.1198 27.1894 33.8735C27.0391 34.6272 26.6686 35.3195 26.125 35.8627C25.5813 36.4059 24.8887 36.7757 24.1349 36.9254C23.381 37.0751 22.5997 36.998 21.8897 36.7037C21.1797 36.4095 20.5729 35.9113 20.146 35.2722C19.7191 34.6331 19.4912 33.8818 19.4912 33.1132V29.2266H23.3812Z" fill="white"/>
<path d="M23.381 27.2678C22.3502 27.2678 21.3616 26.8583 20.6328 26.1294C19.9039 25.4005 19.4944 24.4119 19.4944 23.3811C19.4944 22.3503 19.9039 21.3618 20.6328 20.6329C21.3616 19.904 22.3502 19.4945 23.381 19.4945H33.1133C34.1441 19.4945 35.1327 19.904 35.8616 20.6329C36.5905 21.3618 37 22.3503 37 23.3811C37 24.4119 36.5905 25.4005 35.8616 26.1294C35.1327 26.8583 34.1441 27.2678 33.1133 27.2678H23.381Z" fill="white"/>
</svg>
