<svg width="37" height="36" viewBox="0 0 37 36" fill="none" xmlns="http://www.w3.org/2000/svg">
<path d="M33.1898 0H3.08248C1.43736 0 0 1.18125 0 2.80366V32.9151C0 34.5463 1.43736 36 3.08248 36H33.1809C34.8349 36 36.075 34.5367 36.075 32.9151V2.80366C36.0847 1.18125 34.8349 0 33.1898 0ZM11.1824 30.0078H6.01438V13.9725H11.1824V30.0078ZM8.77718 11.5345H8.74013C7.08616 11.5345 6.01518 10.3058 6.01518 8.76777C6.01518 7.20161 7.11435 6.00188 8.80536 6.00188C10.4964 6.00188 11.5311 7.19277 11.5682 8.76777C11.5674 10.3058 10.4964 11.5345 8.77718 11.5345ZM30.0703 30.0078H24.9022V21.24C24.9022 19.1395 24.1501 17.7043 22.2803 17.7043C20.8518 17.7043 20.0063 18.6686 19.6303 19.6079C19.4894 19.9454 19.4515 20.4051 19.4515 20.8744V30.0078H14.2834V13.9725H19.4515V16.204C20.2036 15.1353 21.3785 13.5972 24.1123 13.5972C27.5048 13.5972 30.0711 15.8288 30.0711 20.6397L30.0703 30.0078Z" fill="white"/>
</svg>
