<svg width="37" height="37" viewBox="0 0 37 37" fill="none" xmlns="http://www.w3.org/2000/svg">
<path d="M7.77328 23.381C7.77263 24.1496 7.54412 24.9007 7.11666 25.5394C6.68919 26.1781 6.08195 26.6758 5.3717 26.9694C4.66146 27.2631 3.88009 27.3396 3.12637 27.1892C2.37265 27.0389 1.68043 26.6685 1.1372 26.1248C0.593979 25.5811 0.22414 24.8886 0.0744411 24.1347C-0.0752582 23.3809 0.00190299 22.5996 0.29617 21.8896C0.590438 21.1796 1.0886 20.5728 1.72768 20.1458C2.36677 19.7189 3.11808 19.491 3.88664 19.491H7.77328V23.381Z" fill="white"/>
<path d="M9.73242 23.3811C9.73242 22.3503 10.1419 21.3618 10.8708 20.6329C11.5997 19.904 12.5883 19.4945 13.6191 19.4945C14.6499 19.4945 15.6384 19.904 16.3673 20.6329C17.0962 21.3618 17.5057 22.3503 17.5057 23.3811V33.1134C17.5057 34.1442 17.0962 35.1328 16.3673 35.8617C15.6384 36.5906 14.6499 37.0001 13.6191 37.0001C12.5883 37.0001 11.5997 36.5906 10.8708 35.8617C10.1419 35.1328 9.73242 34.1442 9.73242 33.1134V23.3811Z" fill="white"/>
<path d="M13.6189 7.77328C12.8504 7.77263 12.0993 7.54412 11.4605 7.11666C10.8218 6.68919 10.3242 6.08195 10.0305 5.3717C9.73684 4.66146 9.66034 3.88009 9.81068 3.12637C9.96102 2.37265 10.3314 1.68043 10.8751 1.1372C11.4188 0.593979 12.1114 0.22414 12.8652 0.0744411C13.619 -0.0752582 14.4004 0.00190299 15.1104 0.29617C15.8204 0.590438 16.4272 1.0886 16.8541 1.72768C17.281 2.36677 17.5089 3.11808 17.5089 3.88664V7.77328H13.6189Z" fill="white"/>
<path d="M13.6189 9.7321C14.6497 9.7321 15.6383 10.1416 16.3672 10.8705C17.0961 11.5994 17.5056 12.5879 17.5056 13.6187C17.5056 14.6495 17.0961 15.6381 16.3672 16.367C15.6383 17.0959 14.6497 17.5054 13.6189 17.5054H3.88664C2.85584 17.5054 1.86726 17.0959 1.13837 16.367C0.409484 15.6381 0 14.6495 0 13.6187C0 12.5879 0.409484 11.5994 1.13837 10.8705C1.86726 10.1416 2.85584 9.7321 3.88664 9.7321H13.6189Z" fill="white"/>
<path d="M29.2269 13.6189C29.2276 12.8503 29.4561 12.0992 29.8836 11.4605C30.311 10.8218 30.9183 10.3241 31.6285 10.0305C32.3388 9.7368 33.1201 9.6603 33.8738 9.81064C34.6276 9.96098 35.3198 10.3314 35.863 10.8751C36.4062 11.4188 36.7761 12.1113 36.9258 12.8652C37.0755 13.619 36.9983 14.4003 36.704 15.1103C36.4098 15.8203 35.9116 16.4271 35.2725 16.8541C34.6334 17.281 33.8821 17.5088 33.1136 17.5088H29.2269V13.6189Z" fill="white"/>
<path d="M27.2678 13.6189C27.2678 14.6497 26.8583 15.6383 26.1294 16.3672C25.4005 17.0961 24.4119 17.5056 23.3811 17.5056C22.3503 17.5056 21.3618 17.0961 20.6329 16.3672C19.904 15.6383 19.4945 14.6497 19.4945 13.6189V3.88664C19.4945 2.85584 19.904 1.86726 20.6329 1.13837C21.3618 0.409484 22.3503 0 23.3811 0C24.4119 0 25.4005 0.409484 26.1294 1.13837C26.8583 1.86726 27.2678 2.85584 27.2678 3.88664V13.6189Z" fill="white"/>
<path d="M23.3813 29.2266C24.1498 29.2273 24.901 29.4558 25.5397 29.8832C26.1784 30.3107 26.676 30.9179 26.9697 31.6282C27.2634 32.3384 27.3399 33.1198 27.1895 33.8735C27.0392 34.6272 26.6688 35.3195 26.1251 35.8627C25.5814 36.4059 24.8888 36.7757 24.135 36.9254C23.3812 37.0751 22.5999 36.998 21.8899 36.7037C21.1799 36.4095 20.573 35.9113 20.1461 35.2722C19.7192 34.6331 19.4913 33.8818 19.4913 33.1132V29.2266H23.3813Z" fill="white"/>
<path d="M23.3811 27.2678C22.3503 27.2678 21.3618 26.8583 20.6329 26.1294C19.904 25.4005 19.4945 24.4119 19.4945 23.3811C19.4945 22.3503 19.904 21.3618 20.6329 20.6329C21.3618 19.904 22.3503 19.4945 23.3811 19.4945H33.1134C34.1442 19.4945 35.1328 19.904 35.8617 20.6329C36.5906 21.3618 37.0001 22.3503 37.0001 23.3811C37.0001 24.4119 36.5906 25.4005 35.8617 26.1294C35.1328 26.8583 34.1442 27.2678 33.1134 27.2678H23.3811Z" fill="white"/>
</svg>
