<svg width="45" height="6" viewBox="0 0 45 6" fill="none" xmlns="http://www.w3.org/2000/svg">
<path d="M0.711246 3.11328C0.708966 2.68866 0.689409 2.31448 0.652575 1.99076C0.652122 1.90638 0.686822 1.8327 0.756675 1.76972C0.826528 1.70674 0.919408 1.65861 1.03532 1.62532C1.26716 1.56419 1.52211 1.53288 1.80017 1.53139C2.15921 1.52946 2.44175 1.60824 2.64778 1.76773C2.8565 1.92449 2.96174 2.16754 2.96351 2.4969C2.96527 2.82625 2.83441 3.09099 2.57092 3.29111C2.30743 3.49123 1.98536 3.59231 1.60472 3.59436C1.41035 3.5954 1.20631 3.55567 0.992605 3.47515C0.979808 3.60588 0.974009 3.78284 0.975208 4.00604L0.980332 4.20608C0.980682 4.27141 0.979698 4.33946 0.977378 4.41025C0.963983 4.42937 0.949208 4.44306 0.933054 4.45131C0.916901 4.45957 0.904782 4.46508 0.896698 4.46784C0.891328 4.47331 0.881901 4.47745 0.868418 4.48024C0.854935 4.48304 0.845493 4.48445 0.840094 4.48448C0.823926 4.49001 0.805043 4.49283 0.783447 4.49295L0.714607 4.49332C0.708112 4.2892 0.704426 4.10549 0.703549 3.94217L0.711246 3.11328ZM0.982927 3.18123C1.18071 3.31355 1.41729 3.37896 1.69264 3.37749C1.96799 3.37329 2.19969 3.2863 2.38776 3.11652C2.57581 2.94403 2.66917 2.73393 2.66784 2.48624C2.66651 2.23854 2.56833 2.05397 2.3733 1.93253C2.17827 1.81108 1.94443 1.75109 1.67177 1.75256C1.40181 1.75401 1.16323 1.8179 0.956038 1.94422C0.970486 2.12107 0.979449 2.53341 0.982927 3.18123Z" fill="white"/>
<path d="M3.71229 4.01176L3.72569 4.24442C3.72601 4.3043 3.70869 4.34658 3.67372 4.37127C3.64144 4.39322 3.60776 4.40429 3.57266 4.40448C3.54027 4.40465 3.50649 4.39939 3.47134 4.38869C3.41026 4.07326 3.36225 3.68019 3.32733 3.20947C3.2951 2.73874 3.27612 2.47208 3.27039 2.40951C3.31068 2.37118 3.35242 2.3519 3.39561 2.35167C3.4415 2.35142 3.48203 2.35665 3.51718 2.36735C3.5284 2.44623 3.53744 2.62039 3.54428 2.88983C3.55113 3.15927 3.55878 3.328 3.56725 3.396C3.60382 3.16716 3.67016 2.95312 3.76628 2.7539C3.81967 2.64201 3.88938 2.55317 3.97542 2.48738C4.06414 2.41885 4.15844 2.38432 4.25833 2.38379C4.36091 2.38324 4.4543 2.42901 4.53848 2.5211C4.62535 2.61046 4.66898 2.69189 4.66938 2.76538C4.66952 2.7926 4.65344 2.81446 4.62113 2.83097C4.58881 2.84475 4.5524 2.85175 4.51191 2.85197C4.47412 2.85217 4.44434 2.83736 4.42258 2.80754C4.40082 2.77771 4.3858 2.74513 4.37751 2.70979C4.36921 2.67172 4.35148 2.63779 4.32432 2.608C4.29717 2.5782 4.26064 2.56343 4.21475 2.56367C4.09327 2.56432 3.98993 2.67512 3.90472 2.89606C3.77421 3.22613 3.71007 3.59802 3.71229 4.01176Z" fill="white"/>
<path d="M5.04378 2.71029C5.18032 2.49724 5.37817 2.39002 5.63733 2.38863C5.89649 2.38724 6.10358 2.49228 6.2586 2.70377C6.41631 2.91524 6.4959 3.15707 6.49736 3.42926C6.49881 3.69873 6.415 3.92783 6.24594 4.11656C6.07687 4.30529 5.86141 4.40035 5.59955 4.40176C5.33769 4.40316 5.14697 4.33069 5.0274 4.18435C4.90782 4.03528 4.8473 3.82601 4.84585 3.55654C4.84397 3.20541 4.90994 2.92333 5.04378 2.71029ZM5.22312 2.92573C5.18859 3.03207 5.16217 3.13837 5.14384 3.24463C5.12821 3.35087 5.12065 3.45027 5.12115 3.54281C5.12163 3.63264 5.12882 3.71562 5.14273 3.79176C5.15662 3.86518 5.17996 3.93855 5.21275 4.01187C5.24553 4.08246 5.29443 4.13936 5.35945 4.18256C5.42446 4.22305 5.50151 4.24305 5.5906 4.24257C5.77147 4.2416 5.92224 4.16593 6.04292 4.01557C6.1663 3.8652 6.22742 3.68386 6.22628 3.47155C6.22514 3.25924 6.16734 3.05404 6.05289 2.85595C5.94113 2.65512 5.80426 2.55514 5.64228 2.55601C5.5451 2.55653 5.46024 2.59101 5.38772 2.65945C5.3152 2.72789 5.26033 2.81665 5.22312 2.92573Z" fill="white"/>
<path d="M6.68367 2.43201C6.70768 2.38016 6.76019 2.35402 6.84117 2.35358C6.87627 2.3534 6.90601 2.3614 6.93039 2.3776C7.00711 2.58679 7.08248 2.79734 7.15651 3.00926C7.29628 3.39775 7.42616 3.70464 7.54615 3.92993C7.60106 3.59755 7.7086 3.26216 7.86876 2.92377C8.03162 2.58537 8.18054 2.4158 8.31552 2.41508C8.35602 2.41486 8.39656 2.42417 8.43716 2.44301C8.12891 2.85569 7.90912 3.40127 7.77778 4.07975C7.75163 4.23777 7.72242 4.32775 7.69014 4.3497C7.65518 4.37439 7.6188 4.38683 7.581 4.38704C7.54321 4.38724 7.51347 4.37923 7.49178 4.36302C7.4728 4.34679 7.45786 4.33053 7.44698 4.31426C7.43879 4.29797 7.4265 4.27082 7.4101 4.2328C7.39639 4.19476 7.38546 4.16896 7.37728 4.1554C7.09913 3.63699 6.86793 3.06252 6.68367 2.43201Z" fill="white"/>
<path d="M8.97496 1.37854C8.9726 1.44115 8.97162 1.51057 8.97203 1.58678C8.97244 1.663 8.97691 1.74191 8.98545 1.82353C8.94789 1.86728 8.89671 1.88933 8.83192 1.88968C8.75093 1.89012 8.71009 1.82501 8.70939 1.69435C8.70936 1.68891 8.70925 1.6685 8.70906 1.63311C8.70887 1.59773 8.7087 1.56642 8.70856 1.5392C8.7111 1.50925 8.71631 1.47519 8.7242 1.43704C8.74275 1.37162 8.78442 1.33873 8.84921 1.33838C8.914 1.33803 8.95592 1.35142 8.97496 1.37854ZM8.72654 3.38055C8.72368 2.84705 8.74902 2.53932 8.80257 2.45738C8.82131 2.42733 8.84418 2.41224 8.87117 2.4121C8.89817 2.41195 8.94279 2.42668 9.00504 2.45629C8.99279 2.68773 8.98739 2.93954 8.98885 3.21173C8.98885 3.21173 8.99317 3.51249 9.0018 4.11401C9.00225 4.19839 8.98367 4.25837 8.94607 4.29396C8.91115 4.32681 8.87749 4.34333 8.8451 4.3435C8.8154 4.34366 8.78431 4.33566 8.75183 4.3195C8.73643 3.96572 8.728 3.65274 8.72654 3.38055Z" fill="white"/>
<path d="M11.0193 1.10216C10.9217 2.03906 10.874 2.70757 10.8762 3.10769C10.8783 3.50509 10.9169 3.9023 10.9919 4.29931C10.9382 4.35404 10.8911 4.38151 10.8506 4.38173C10.8101 4.38195 10.7763 4.37668 10.7493 4.36594C10.6915 4.16482 10.6566 3.94589 10.6445 3.70914C10.5803 3.81292 10.5321 3.88667 10.4999 3.9304C10.4705 3.97411 10.4182 4.03835 10.343 4.12314C10.2062 4.2872 10.0433 4.36973 9.85436 4.37075C9.71128 4.37151 9.60699 4.30538 9.54148 4.17236C9.47866 4.03659 9.44669 3.86392 9.44556 3.65433C9.44442 3.44202 9.46629 3.24047 9.51116 3.04969C9.55871 2.85617 9.64016 2.68969 9.7555 2.55025C9.87082 2.40809 10.0135 2.33655 10.1836 2.33564C10.2862 2.33509 10.3808 2.35635 10.4674 2.39944C10.554 2.44253 10.6137 2.50073 10.6465 2.57405C10.6515 2.50053 10.6563 2.38754 10.6609 2.23508C10.6655 2.08262 10.6701 1.94786 10.6749 1.83079C10.6824 1.71098 10.6939 1.58979 10.7094 1.46721C10.7377 1.20575 10.8031 1.07474 10.9057 1.07419C10.9408 1.074 10.9787 1.08333 11.0193 1.10216ZM10.5542 2.72153C10.5214 2.66182 10.4767 2.61851 10.4198 2.5916C10.363 2.56196 10.2873 2.5474 10.1928 2.5479C10.101 2.5484 10.0149 2.60194 9.93452 2.70853C9.77637 2.91897 9.69836 3.2229 9.7005 3.6203C9.70119 3.74823 9.72212 3.87605 9.7633 4.00376C9.80447 4.12875 9.86419 4.19104 9.94248 4.19062C10.0559 4.19001 10.1661 4.11456 10.2733 3.96428C10.3805 3.81399 10.4633 3.64206 10.5216 3.44848C10.58 3.25219 10.6087 3.07646 10.6079 2.92131C10.6075 2.84782 10.5896 2.78123 10.5542 2.72153Z" fill="white"/>
<path d="M11.6996 1.36391C11.6972 1.42652 11.6963 1.49594 11.6967 1.57215C11.6971 1.64837 11.7015 1.72728 11.7101 1.8089C11.6725 1.85265 11.6213 1.8747 11.5566 1.87505C11.4756 1.87548 11.4347 1.81038 11.434 1.67972C11.434 1.67428 11.4339 1.65386 11.4337 1.61848C11.4335 1.58309 11.4333 1.55179 11.4332 1.52457C11.4357 1.49462 11.4409 1.46056 11.4488 1.42241C11.4674 1.35699 11.5091 1.3241 11.5738 1.32375C11.6386 1.3234 11.6805 1.33679 11.6996 1.36391ZM11.4512 3.36592C11.4483 2.83242 11.4737 2.52469 11.5272 2.44275C11.5459 2.4127 11.5688 2.39761 11.5958 2.39746C11.6228 2.39732 11.6674 2.41205 11.7297 2.44166C11.7174 2.6731 11.712 2.92491 11.7135 3.1971C11.7135 3.1971 11.7178 3.49786 11.7264 4.09938C11.7269 4.18376 11.7083 4.24374 11.6707 4.27933C11.6358 4.31218 11.6021 4.3287 11.5697 4.32887C11.54 4.32903 11.5089 4.32103 11.4765 4.30487C11.4611 3.95109 11.4526 3.63811 11.4512 3.36592Z" fill="white"/>
<path d="M13.9026 4.24285C13.8543 4.29483 13.7991 4.32098 13.737 4.32132C13.6209 4.32194 13.5342 4.2598 13.4768 4.13489C13.4194 4.00999 13.3849 3.85774 13.3731 3.67815C13.364 3.49855 13.3577 3.31893 13.354 3.1393C13.3503 2.95967 13.3347 2.80732 13.307 2.68225C13.282 2.55717 13.2345 2.49482 13.1643 2.4952C13.0698 2.49571 12.9893 2.58188 12.9227 2.75373C12.8588 2.92556 12.814 3.11634 12.7881 3.32607C12.7156 3.91169 12.6445 4.24008 12.5747 4.31122C12.5262 4.33598 12.4845 4.34846 12.4494 4.34864C12.4143 4.34883 12.3846 4.34491 12.3602 4.33687C12.3022 4.08676 12.2634 3.65553 12.2439 3.04318C12.2369 2.73836 12.2304 2.54105 12.2246 2.45125C12.281 2.41284 12.3295 2.39353 12.37 2.39331C12.4105 2.39309 12.4429 2.397 12.4673 2.40503C12.4814 2.522 12.4894 2.7615 12.4914 3.12352C12.496 3.48552 12.4998 3.69373 12.5028 3.74815C12.516 3.69092 12.5317 3.59829 12.5499 3.47026C12.5708 3.34221 12.5892 3.23731 12.6049 3.15557C12.6207 3.0711 12.6458 2.97298 12.6803 2.86119C12.7148 2.7494 12.7535 2.66073 12.7963 2.59517C12.8391 2.52689 12.8982 2.46941 12.9736 2.42273C13.0489 2.37333 13.1338 2.34838 13.2283 2.34787C13.3552 2.34719 13.4473 2.40522 13.5046 2.52195C13.5646 2.63596 13.5977 2.77868 13.6041 2.95014C13.6104 3.12159 13.614 3.29578 13.615 3.4727C13.6186 3.64961 13.6411 3.81145 13.6824 3.95822C13.7264 4.10497 13.7998 4.19985 13.9026 4.24285Z" fill="white"/>
<path d="M14.8624 2.31051C15.1081 2.30919 15.2787 2.40899 15.3742 2.60991C15.4261 2.71579 15.4685 2.81627 15.5014 2.91137C15.5343 3.00646 15.5566 3.137 15.5683 3.30298C15.5858 3.55603 15.5955 3.84451 15.5972 4.16842C15.599 4.48961 15.5234 4.74588 15.3705 4.93724C15.2204 5.13131 14.9982 5.22914 14.7039 5.23072C14.4124 5.23228 14.1689 5.13832 13.9735 4.94883C14.0272 4.8941 14.0851 4.86657 14.1472 4.86624C14.212 4.86589 14.2999 4.89264 14.4109 4.94648C14.5245 5.00303 14.6448 5.03097 14.7717 5.03029C14.8986 5.02961 15.0037 4.9991 15.0871 4.93877C15.1705 4.88116 15.2321 4.79917 15.272 4.69279C15.3385 4.50462 15.371 4.27307 15.3695 3.99816C15.3693 3.95733 15.3645 3.80628 15.355 3.54502C15.2833 3.76861 15.1803 3.95426 15.0461 4.10197C14.9119 4.24696 14.7598 4.31991 14.5897 4.32082C14.4197 4.32173 14.2937 4.24619 14.2119 4.0942C14.1328 3.93947 14.0927 3.76412 14.0916 3.56814C14.0906 3.37216 14.1166 3.18148 14.1696 2.9961C14.2225 2.80799 14.3094 2.64693 14.4302 2.5129C14.551 2.37887 14.695 2.31141 14.8624 2.31051ZM14.4365 2.93342C14.402 3.05337 14.377 3.16647 14.3614 3.27271C14.3457 3.37895 14.3382 3.48651 14.3388 3.59539C14.3394 3.70155 14.3616 3.81983 14.4055 3.95025C14.4521 4.08066 14.5186 4.14563 14.605 4.14517C14.7751 4.14425 14.9255 4.01551 15.0565 3.75894C15.1873 3.49965 15.2521 3.23935 15.2507 2.97804C15.2502 2.88822 15.2078 2.78773 15.1235 2.67658C15.0419 2.5627 14.939 2.50609 14.8149 2.50675C14.7285 2.50722 14.6517 2.54846 14.5847 2.63048C14.5203 2.71248 14.4709 2.81346 14.4365 2.93342Z" fill="white"/>
<path d="M18.6282 4.21747C18.5799 4.26945 18.5246 4.29561 18.4626 4.29594C18.3465 4.29656 18.2598 4.23442 18.2024 4.10952C18.145 3.98461 18.1105 3.83237 18.0987 3.65278C18.0896 3.47317 18.0833 3.29356 18.0796 3.11392C18.0759 2.93429 18.0603 2.78194 18.0326 2.65688C18.0076 2.5318 17.9601 2.46945 17.8899 2.46983C17.7954 2.47033 17.7149 2.55651 17.6483 2.72835C17.5844 2.90018 17.5395 3.09096 17.5137 3.3007C17.4412 3.88632 17.3701 4.2147 17.3003 4.28585C17.2518 4.31061 17.2101 4.32308 17.175 4.32327C17.1399 4.32346 17.1102 4.31953 17.0858 4.3115C17.0278 4.06139 16.989 3.63016 16.9695 3.01781C16.9625 2.71298 16.956 2.51567 16.9502 2.42588C17.0066 2.38746 17.0551 2.36815 17.0956 2.36793C17.1361 2.36771 17.1685 2.37162 17.1929 2.37966C17.207 2.49663 17.215 2.73612 17.217 3.09814C17.2216 3.46014 17.2254 3.66836 17.2284 3.72278C17.2416 3.66555 17.2573 3.57291 17.2755 3.44488C17.2964 3.31683 17.3148 3.21194 17.3305 3.13019C17.3463 3.04573 17.3714 2.9476 17.4059 2.83581C17.4404 2.72403 17.4791 2.63535 17.5219 2.56979C17.5647 2.50151 17.6238 2.44403 17.6992 2.39736C17.7745 2.34795 17.8594 2.323 17.9539 2.32249C18.0808 2.32181 18.1729 2.37984 18.2302 2.49658C18.2902 2.61058 18.3233 2.75331 18.3297 2.92476C18.336 3.09621 18.3396 3.2704 18.3406 3.44733C18.3442 3.62424 18.3667 3.78608 18.408 3.93285C18.4519 4.0796 18.5253 4.17447 18.6282 4.21747Z" fill="white"/>
<path d="M19.0924 3.50045C19.0873 3.55492 19.0848 3.59168 19.0849 3.61074C19.0857 3.77405 19.135 3.90036 19.2327 3.98966C19.3331 4.07895 19.4507 4.12323 19.5857 4.12251C19.7207 4.12178 19.8299 4.10214 19.9134 4.06358C19.9996 4.02501 20.0615 3.98385 20.099 3.9401C20.1955 3.81709 20.2843 3.75537 20.3653 3.75493C20.395 3.75477 20.4301 3.76275 20.4707 3.77886C20.4444 3.91238 20.3425 4.03542 20.1649 4.14798C19.99 4.2578 19.769 4.31342 19.5017 4.31486C19.3127 4.31587 19.1491 4.25687 19.0108 4.13784C18.8751 4.01608 18.8067 3.8504 18.8056 3.64082C18.8045 3.43123 18.8439 3.22823 18.9238 3.03181C19.0065 2.83266 19.1243 2.66326 19.2775 2.52362C19.4333 2.38124 19.5908 2.30962 19.7501 2.30877C19.9121 2.3079 20.0418 2.34122 20.1394 2.40875C20.2396 2.47354 20.2901 2.5699 20.2908 2.69783C20.292 2.93464 20.1878 3.13118 19.9781 3.28746C19.771 3.44101 19.5501 3.51841 19.3152 3.51967C19.2531 3.52001 19.1788 3.5136 19.0924 3.50045ZM19.3994 3.36407C19.5263 3.36338 19.6395 3.32195 19.7389 3.23975C19.8383 3.15756 19.9081 3.07144 19.9481 2.9814C19.9908 2.89134 20.012 2.80957 20.0116 2.73608C20.0112 2.66259 19.9825 2.59877 19.9255 2.54464C19.8685 2.48778 19.8022 2.45956 19.7266 2.45996C19.5916 2.46069 19.4666 2.55527 19.3515 2.7437C19.2392 2.93213 19.1592 3.12718 19.1117 3.32886C19.2306 3.35272 19.3265 3.36446 19.3994 3.36407Z" fill="white"/>
<path d="M21.891 3.84065C21.8485 3.96609 21.7654 4.07269 21.6417 4.16046C21.5207 4.24822 21.3873 4.29248 21.2415 4.29327C21.0984 4.29404 20.986 4.22251 20.9042 4.07868C20.8251 3.93211 20.7849 3.72954 20.7835 3.47096C20.7796 2.74148 20.8843 2.37617 21.0975 2.37502C21.1245 2.37488 21.1583 2.37878 21.1988 2.38673C21.191 2.43032 21.1725 2.51344 21.1435 2.63609C21.0854 2.87594 21.0568 3.08705 21.0578 3.26942C21.0588 3.45179 21.0855 3.64491 21.1379 3.84878C21.1902 4.04992 21.2637 4.15024 21.3581 4.14974C21.4067 4.14947 21.4538 4.11792 21.4994 4.05507C21.5449 3.99222 21.581 3.92669 21.6076 3.8585C21.6343 3.78759 21.6622 3.70714 21.6914 3.61715C21.7206 3.52717 21.7392 3.47263 21.7472 3.45353C21.7059 3.29588 21.6848 3.13539 21.6839 2.97208C21.6838 2.96391 21.6837 2.93942 21.6835 2.89859C21.6832 2.85504 21.6844 2.81284 21.6869 2.772C21.6893 2.73115 21.6972 2.68211 21.7104 2.62488C21.7367 2.51041 21.8093 2.45286 21.9281 2.45222C22.028 2.45169 22.0788 2.60385 22.0804 2.9087C22.0807 2.96314 22.073 3.04212 22.0574 3.14564C22.0444 3.24915 22.0381 3.32132 22.0383 3.36214C22.039 3.48735 22.0992 3.64899 22.2191 3.84705C22.3389 4.04512 22.4501 4.14387 22.5527 4.14332C22.658 4.14276 22.7346 4.08246 22.7826 3.96243C22.8305 3.84241 22.8541 3.7089 22.8533 3.56192C22.8524 3.39316 22.8369 3.26531 22.8067 3.17837C22.7792 3.08869 22.7614 3.03026 22.7531 3.00308C22.7476 2.97589 22.7298 2.9338 22.6998 2.8768C22.6725 2.81706 22.6547 2.77905 22.6465 2.76276C22.641 2.74646 22.6206 2.7071 22.5852 2.64468C22.5497 2.58227 22.5293 2.54699 22.5238 2.53885C22.4448 2.40045 22.3985 2.32449 22.3849 2.31095C22.4521 2.25343 22.5141 2.22451 22.5708 2.22421C22.7361 2.34309 22.8681 2.53836 22.9667 2.81004C23.0653 3.07898 23.1152 3.32506 23.1164 3.54826C23.1176 3.76873 23.0713 3.94319 22.9775 4.07163C22.8864 4.19733 22.7423 4.26071 22.5452 4.26177C22.4076 4.26251 22.2764 4.2251 22.1518 4.14956C22.0299 4.07127 21.943 3.9683 21.891 3.84065Z" fill="white"/>
<path d="M24.4713 1.36474C24.5033 1.30468 24.5626 1.27442 24.649 1.27396C24.6679 1.27385 24.6868 1.27647 24.7057 1.28182C24.7119 1.42605 24.7167 1.82888 24.7203 2.49031C24.723 2.48757 24.735 2.47526 24.7565 2.45337C24.7807 2.43146 24.7955 2.41777 24.8009 2.4123C24.8062 2.40683 24.8197 2.39451 24.8411 2.37534C24.8626 2.35345 24.8788 2.33975 24.8895 2.33425C24.903 2.32601 24.9205 2.31503 24.942 2.3013C24.9635 2.28485 24.9823 2.27386 24.9985 2.26833C25.0147 2.26008 25.0335 2.25181 25.0551 2.24353C25.0955 2.22971 25.1427 2.22265 25.1967 2.22236C25.3965 2.22128 25.5575 2.3048 25.6799 2.47291C25.8023 2.63829 25.864 2.82442 25.8651 3.03129C25.8663 3.23815 25.8363 3.43566 25.7752 3.62381C25.7141 3.80923 25.6191 3.9717 25.4903 4.11122C25.3615 4.25073 25.2107 4.32095 25.0379 4.32188C24.8678 4.32279 24.7244 4.25959 24.6076 4.13229C24.4935 4.00497 24.4361 3.85965 24.4352 3.69633C24.4343 3.53029 24.4421 3.22539 24.4586 2.78161C24.4751 2.33511 24.4829 2.01523 24.4818 1.82198C24.4808 1.626 24.4772 1.47358 24.4713 1.36474ZM25.0651 4.12166C25.1704 4.1211 25.2646 4.07024 25.3478 3.96907C25.5168 3.76946 25.6003 3.48728 25.5984 3.12255C25.5973 2.92657 25.5586 2.75393 25.4822 2.60463C25.4058 2.4526 25.2987 2.37696 25.1611 2.3777C25.0828 2.37812 25.0142 2.41796 24.9552 2.49722C24.8962 2.57375 24.8509 2.67607 24.8192 2.80417C24.7584 3.04676 24.7288 3.31639 24.7304 3.61308C24.7317 3.8635 24.7838 4.01702 24.8867 4.07363C24.9327 4.1006 24.9922 4.11661 25.0651 4.12166Z" fill="white"/>
<path d="M26.4714 3.46083C26.4663 3.5153 26.4638 3.55206 26.4639 3.57111C26.4648 3.73443 26.5141 3.86074 26.6117 3.95004C26.7121 4.03933 26.8298 4.08361 26.9648 4.08288C27.0997 4.08216 27.209 4.06252 27.2924 4.02396C27.3786 3.98539 27.4405 3.94423 27.4781 3.90047C27.5746 3.77746 27.6633 3.71574 27.7443 3.71531C27.774 3.71515 27.8092 3.72313 27.8498 3.73924C27.8235 3.87276 27.7215 3.9958 27.544 4.10835C27.3691 4.21817 27.148 4.2738 26.8807 4.27524C26.6918 4.27625 26.5281 4.21724 26.3898 4.09822C26.2542 3.97646 26.1858 3.81078 26.1847 3.60119C26.1835 3.3916 26.2229 3.1886 26.3029 2.99219C26.3855 2.79304 26.5034 2.62364 26.6565 2.484C26.8123 2.34162 26.9699 2.27 27.1291 2.26914C27.2911 2.26827 27.4209 2.3016 27.5184 2.36913C27.6187 2.43392 27.6691 2.53028 27.6698 2.65821C27.6711 2.89502 27.5669 3.09156 27.3571 3.24784C27.1501 3.40139 26.9291 3.47879 26.6943 3.48005C26.6322 3.48038 26.5579 3.47398 26.4714 3.46083ZM26.7785 3.32444C26.9053 3.32376 27.0185 3.28232 27.1179 3.20013C27.2174 3.11793 27.2871 3.03182 27.3271 2.94178C27.3698 2.85172 27.391 2.76995 27.3906 2.69645C27.3902 2.62296 27.3615 2.55915 27.3045 2.50501C27.2475 2.44816 27.1812 2.41993 27.1057 2.42034C26.9707 2.42106 26.8457 2.51564 26.7306 2.70408C26.6182 2.8925 26.5383 3.08756 26.4908 3.28924C26.6097 3.3131 26.7056 3.32483 26.7785 3.32444Z" fill="white"/>
<path d="M29.6883 1.00191C29.5908 1.93881 29.5431 2.60732 29.5452 3.00744C29.5474 3.40484 29.5859 3.80205 29.661 4.19906C29.6073 4.25379 29.5602 4.28126 29.5197 4.28148C29.4792 4.2817 29.4454 4.27643 29.4183 4.26569C29.3606 4.06457 29.3256 3.84564 29.3136 3.60889C29.2493 3.71267 29.2011 3.78642 29.169 3.83015C29.1395 3.87386 29.0872 3.93811 29.0121 4.02289C28.8753 4.18695 28.7124 4.26948 28.5234 4.2705C28.3804 4.27127 28.2761 4.20514 28.2106 4.07211C28.1477 3.93635 28.1158 3.76367 28.1146 3.55408C28.1135 3.34177 28.1354 3.14023 28.1802 2.94944C28.2278 2.75593 28.3092 2.58945 28.4246 2.45C28.5399 2.30784 28.6826 2.2363 28.8527 2.23539C28.9552 2.23484 29.0498 2.25611 29.1365 2.29919C29.2231 2.34228 29.2828 2.40048 29.3156 2.4738C29.3206 2.40028 29.3254 2.28729 29.33 2.13483C29.3345 1.98238 29.3392 1.84761 29.344 1.73054C29.3514 1.61073 29.3629 1.48954 29.3785 1.36697C29.4068 1.1055 29.4722 0.974494 29.5748 0.973943C29.6099 0.973755 29.6477 0.983079 29.6883 1.00191ZM29.2232 2.62129C29.1905 2.56158 29.1457 2.51827 29.0889 2.49135C29.0321 2.46171 28.9564 2.44715 28.8619 2.44766C28.7701 2.44815 28.684 2.50169 28.6036 2.60828C28.4454 2.81872 28.3674 3.12265 28.3696 3.52005C28.3703 3.64798 28.3912 3.7758 28.4324 3.90352C28.4735 4.02851 28.5333 4.09079 28.6115 4.09037C28.7249 4.08976 28.8352 4.01432 28.9424 3.86403C29.0496 3.71374 29.1323 3.54181 29.1907 3.34824C29.249 3.15194 29.2778 2.97621 29.2769 2.82106C29.2766 2.74757 29.2587 2.68098 29.2232 2.62129Z" fill="white"/>
<path d="M31.1049 2.6316C31.0803 2.56912 31.0341 2.52037 30.9664 2.48535C30.8988 2.45033 30.815 2.43309 30.7151 2.43362C30.6152 2.43416 30.5209 2.46461 30.4321 2.52497C30.3461 2.58531 30.3033 2.66584 30.3038 2.76655C30.3044 2.86727 30.3453 2.94735 30.4266 3.00679C30.5106 3.0635 30.6107 3.10652 30.727 3.13584C30.8459 3.16514 30.9649 3.19717 31.0838 3.23191C31.2028 3.26394 31.303 3.3192 31.3844 3.3977C31.4685 3.47347 31.5109 3.57395 31.5115 3.69916C31.5125 3.88153 31.4377 4.02076 31.287 4.11684C31.1391 4.2129 30.9598 4.2615 30.7492 4.26263C30.625 4.2633 30.4615 4.23015 30.2587 4.16319C30.0586 4.09621 29.9582 4.01509 29.9577 3.91982C29.9573 3.84905 30.0165 3.81335 30.1353 3.81271C30.1704 3.81252 30.2164 3.83405 30.2734 3.8773C30.4468 4.0043 30.624 4.06732 30.8049 4.06635C30.902 4.06582 30.9856 4.04904 31.0557 4.016C31.1849 3.9527 31.2491 3.85164 31.2484 3.71282C31.2479 3.62844 31.2057 3.56062 31.1218 3.50935C31.0405 3.45807 30.9404 3.41778 30.8215 3.38848C30.7052 3.35916 30.5876 3.32713 30.4686 3.29238C30.3497 3.25763 30.2481 3.19965 30.164 3.11844C30.0826 3.0345 30.0415 2.92856 30.0408 2.80063C30.0399 2.63459 30.1134 2.49946 30.2614 2.39523C30.4093 2.291 30.5926 2.2383 30.8112 2.23712C30.9597 2.23632 31.0935 2.27507 31.2128 2.35337C31.3346 2.42893 31.396 2.54021 31.3968 2.68719C31.3973 2.78518 31.3422 2.83447 31.2315 2.83507C31.1856 2.83531 31.1546 2.82731 31.1383 2.81107C31.1247 2.79481 31.1164 2.76627 31.1135 2.72546C31.1133 2.68191 31.1104 2.65062 31.1049 2.6316Z" fill="white"/>
<path d="M33.0783 4.28279C33.0297 4.28305 33.0032 3.8708 32.9988 3.04606C32.9969 2.69765 32.9944 2.48671 32.9913 2.41323L32.9104 2.41367C32.8726 2.41387 32.8429 2.41403 32.8213 2.41415C32.7997 2.41154 32.7713 2.41033 32.7362 2.41052C32.7038 2.40797 32.6768 2.40403 32.6552 2.39871C32.6362 2.39336 32.616 2.38667 32.5943 2.37862C32.5537 2.3625 32.5333 2.33403 32.5331 2.2932C32.5328 2.24149 32.6164 2.21518 32.7838 2.21428C32.8566 2.21389 32.9228 2.21626 32.9822 2.22138C32.9846 2.16693 32.9856 2.09751 32.9852 2.01313C32.9874 1.92601 32.9897 1.85931 32.9922 1.81303C32.9946 1.76402 32.997 1.70548 32.9993 1.63742C33.0044 1.56934 33.0108 1.51623 33.0187 1.47808C33.0293 1.43991 33.0426 1.39765 33.0585 1.35129C33.0745 1.30221 33.0959 1.26535 33.1227 1.2407C33.1496 1.21606 33.1805 1.1914 33.2155 1.16671C33.2773 1.1201 33.3798 1.09642 33.5229 1.09565C33.6686 1.09487 33.7755 1.13104 33.8433 1.20417C33.9139 1.27456 33.9767 1.39535 34.0316 1.56655C33.9913 1.61576 33.9442 1.64051 33.8902 1.6408C33.8713 1.6409 33.8524 1.63828 33.8335 1.63294C33.7842 1.50255 33.7392 1.41432 33.6984 1.36827C33.6604 1.3222 33.6076 1.29934 33.5402 1.29971C33.4727 1.30007 33.4214 1.31259 33.3865 1.33728C33.3542 1.36195 33.3287 1.39339 33.31 1.4316C33.27 1.51347 33.2508 1.71092 33.2525 2.02394C33.2525 2.03755 33.2527 2.06205 33.2529 2.09744C33.2531 2.13282 33.2532 2.16548 33.2534 2.19543L33.5974 2.16091C33.7324 2.16019 33.8001 2.19113 33.8004 2.25373C33.8006 2.29456 33.7684 2.32196 33.7036 2.33591C33.6389 2.34987 33.5566 2.35848 33.4568 2.36174C33.3596 2.36498 33.2921 2.37351 33.2544 2.38732C33.2494 2.46357 33.2473 2.56429 33.2479 2.6895C33.2486 2.81199 33.2564 3.00793 33.2714 3.27733C33.2863 3.54401 33.2941 3.74811 33.2949 3.88965C33.2957 4.03119 33.2813 4.13199 33.252 4.19203C33.2253 4.25205 33.1674 4.28231 33.0783 4.28279Z" fill="white"/>
<path d="M34.1131 2.5542C34.2497 2.34115 34.4475 2.23393 34.7067 2.23254C34.9658 2.23114 35.1729 2.33619 35.3279 2.54767C35.4857 2.75914 35.5652 3.00098 35.5667 3.27317C35.5681 3.54264 35.4843 3.77174 35.3153 3.96047C35.1462 4.14919 34.9307 4.24426 34.6689 4.24566C34.407 4.24707 34.2163 4.1746 34.0967 4.02825C33.9772 3.87919 33.9166 3.66992 33.9152 3.40044C33.9133 3.04932 33.9793 2.76723 34.1131 2.5542ZM34.2925 2.76963C34.2579 2.87598 34.2315 2.98228 34.2132 3.08854C34.1975 3.19478 34.19 3.29417 34.1905 3.38672C34.191 3.47654 34.1982 3.55952 34.2121 3.63567C34.226 3.70908 34.2493 3.78245 34.2821 3.85577C34.3149 3.92637 34.3638 3.98327 34.4288 4.02647C34.4938 4.06695 34.5708 4.08695 34.6599 4.08647C34.8408 4.0855 34.9916 4.00984 35.1123 3.85948C35.2356 3.70911 35.2967 3.52777 35.2956 3.31545C35.2945 3.10314 35.2367 2.89794 35.1222 2.69985C35.0105 2.49902 34.8736 2.39904 34.7116 2.39991C34.6144 2.40043 34.5296 2.43492 34.4571 2.50335C34.3845 2.57179 34.3297 2.66055 34.2925 2.76963Z" fill="white"/>
<path d="M36.3644 3.83642L36.3778 4.06908C36.3781 4.12897 36.3608 4.17125 36.3258 4.19594C36.2935 4.21789 36.2598 4.22895 36.2248 4.22914C36.1924 4.22932 36.1586 4.22405 36.1234 4.21336C36.0623 3.89793 36.0143 3.50486 35.9794 3.03414C35.9472 2.5634 35.9282 2.29675 35.9225 2.23417C35.9628 2.19585 36.0045 2.17657 36.0477 2.17634C36.0936 2.17609 36.1341 2.18132 36.1693 2.19202C36.1805 2.2709 36.1895 2.44506 36.1964 2.7145C36.2032 2.98394 36.2109 3.15266 36.2193 3.22067C36.2559 2.99182 36.3222 2.77779 36.4184 2.57857C36.4718 2.46668 36.5415 2.37784 36.6275 2.31205C36.7162 2.24352 36.8105 2.20899 36.9104 2.20845C37.013 2.2079 37.1064 2.25367 37.1906 2.34577C37.2774 2.43513 37.3211 2.51656 37.3215 2.59005C37.3216 2.61727 37.3055 2.63913 37.2732 2.65564C37.2409 2.66942 37.2045 2.67642 37.164 2.67664C37.1262 2.67684 37.0964 2.66203 37.0747 2.6322C37.0529 2.60238 37.0379 2.5698 37.0296 2.53445C37.0213 2.49639 37.0036 2.46246 36.9764 2.43266C36.9493 2.40287 36.9127 2.38809 36.8668 2.38834C36.7454 2.38899 36.642 2.49979 36.5568 2.72073C36.4263 3.05079 36.3622 3.42269 36.3644 3.83642Z" fill="white"/>
<path d="M38.8083 1.19384C38.8121 1.38436 38.8142 1.52726 38.8147 1.62252C38.8152 1.71507 38.8143 1.80762 38.8121 1.90018C38.8126 1.99273 38.8095 2.1724 38.8029 2.43919C38.7962 2.70326 38.7919 2.91288 38.79 3.06804C38.8922 2.99672 39.0145 2.88718 39.1568 2.73943C39.2991 2.58896 39.4279 2.46033 39.5435 2.35355C39.7261 2.18653 39.8568 2.13547 39.9354 2.20038C39.9653 2.22471 39.9748 2.2478 39.9642 2.26963C39.9375 2.32694 39.8758 2.39668 39.779 2.47886C39.685 2.56103 39.5734 2.65417 39.4444 2.7583C39.3154 2.86243 39.2133 2.95825 39.1382 3.04576C39.3354 3.07192 39.4939 3.18267 39.6138 3.37801C39.6655 3.46756 39.716 3.55711 39.765 3.64668C39.8905 3.88282 40.0263 4.04269 40.1726 4.12628C40.1189 4.18101 40.0569 4.20857 39.9867 4.20894C39.9165 4.20932 39.8462 4.17567 39.7756 4.108C39.7077 4.04032 39.6479 3.95762 39.5961 3.8599C39.547 3.76217 39.4965 3.66445 39.4447 3.56674C39.3273 3.33055 39.1917 3.21287 39.0378 3.2137C38.965 3.21409 38.903 3.23892 38.852 3.28819C38.8009 3.33474 38.7755 3.38387 38.7758 3.43559C38.7776 3.76222 38.7735 4.0045 38.7635 4.16243C38.726 4.21435 38.6856 4.24043 38.6425 4.24066C38.629 4.24073 38.6141 4.23809 38.5979 4.23273C38.5384 4.20855 38.5084 4.15836 38.508 4.08214C38.5103 4.00592 38.5171 3.77451 38.5285 3.38792C38.5529 2.3997 38.5644 1.76813 38.5629 1.49322C38.5622 1.36529 38.5739 1.27948 38.598 1.2358C38.6247 1.1921 38.6557 1.17016 38.6908 1.16997C38.7286 1.16977 38.7677 1.17773 38.8083 1.19384Z" fill="white"/>
<path d="M40.678 1.2083C40.6756 1.27092 40.6746 1.34033 40.675 1.41655C40.6754 1.49276 40.6799 1.57168 40.6885 1.65329C40.6509 1.69705 40.5997 1.7191 40.5349 1.71944C40.4539 1.71988 40.4131 1.65477 40.4124 1.52412C40.4124 1.51867 40.4123 1.49826 40.4121 1.46287C40.4119 1.42749 40.4117 1.39619 40.4116 1.36897C40.4141 1.33901 40.4193 1.30496 40.4272 1.26681C40.4458 1.20138 40.4874 1.16849 40.5522 1.16814C40.617 1.1678 40.6589 1.18118 40.678 1.2083ZM40.4296 3.21031C40.4267 2.67681 40.452 2.36909 40.5056 2.28714C40.5243 2.2571 40.5472 2.242 40.5742 2.24186C40.6012 2.24171 40.6458 2.25645 40.7081 2.28605C40.6958 2.51749 40.6904 2.7693 40.6919 3.0415C40.6919 3.0415 40.6962 3.34226 40.7048 3.94377C40.7053 4.02815 40.6867 4.08814 40.6491 4.12373C40.6142 4.15658 40.5805 4.17309 40.5481 4.17326C40.5184 4.17342 40.4873 4.16542 40.4548 4.14927C40.4394 3.79549 40.431 3.4825 40.4296 3.21031Z" fill="white"/>
<path d="M42.7223 0.931926C42.6247 1.86882 42.577 2.53733 42.5792 2.93745C42.5813 3.33486 42.6199 3.73206 42.6949 4.12907C42.6412 4.1838 42.5941 4.21127 42.5536 4.21149C42.5131 4.21171 42.4793 4.20645 42.4523 4.1957C42.3945 3.99458 42.3596 3.77565 42.3475 3.5389C42.2833 3.64268 42.2351 3.71643 42.2029 3.76016C42.1735 3.80387 42.1212 3.86812 42.046 3.9529C41.9092 4.11696 41.7463 4.19949 41.5574 4.20051C41.4143 4.20128 41.31 4.13515 41.2445 4.00212C41.1817 3.86636 41.1497 3.69368 41.1486 3.48409C41.1474 3.27178 41.1693 3.07024 41.2142 2.87946C41.2617 2.68594 41.3432 2.51946 41.4585 2.38002C41.5738 2.23785 41.7165 2.16631 41.8866 2.1654C41.9892 2.16485 42.0838 2.18612 42.1704 2.2292C42.257 2.27229 42.3167 2.33049 42.3495 2.40381C42.3545 2.33029 42.3593 2.2173 42.3639 2.06484C42.3685 1.91239 42.3732 1.77762 42.3779 1.66055C42.3854 1.54074 42.3969 1.41955 42.4124 1.29698C42.4407 1.03551 42.5062 0.904505 42.6087 0.903955C42.6438 0.903766 42.6817 0.91309 42.7223 0.931926ZM42.2572 2.5513C42.2245 2.49159 42.1797 2.44828 42.1229 2.42136C42.066 2.39172 41.9903 2.37716 41.8958 2.37767C41.8041 2.37816 41.718 2.4317 41.6375 2.53829C41.4794 2.74874 41.4014 3.05266 41.4035 3.45006C41.4042 3.57799 41.4251 3.70581 41.4663 3.83353C41.5075 3.95852 41.5672 4.0208 41.6455 4.02038C41.7589 4.01977 41.8692 3.94433 41.9763 3.79404C42.0835 3.64375 42.1663 3.47182 42.2246 3.27825C42.283 3.08195 42.3117 2.90623 42.3109 2.75108C42.3105 2.67758 42.2926 2.61099 42.2572 2.5513Z" fill="white"/>
<path d="M44.1389 2.56161C44.1142 2.49913 44.0681 2.45039 44.0004 2.41536C43.9327 2.38034 43.8489 2.3631 43.749 2.36363C43.6492 2.36417 43.5548 2.39462 43.4661 2.45498C43.38 2.51533 43.3372 2.59585 43.3378 2.69657C43.3383 2.79728 43.3792 2.87736 43.4606 2.9368C43.5446 2.99352 43.6447 3.03653 43.7609 3.06585C43.8799 3.09515 43.9988 3.12718 44.1178 3.16192C44.2367 3.19395 44.3369 3.24921 44.4183 3.32771C44.5024 3.40348 44.5448 3.50396 44.5455 3.62917C44.5465 3.81154 44.4716 3.95077 44.321 4.04685C44.173 4.14291 43.9937 4.19151 43.7832 4.19264C43.659 4.19331 43.4955 4.16016 43.2926 4.0932C43.0925 4.02622 42.9922 3.9451 42.9917 3.84983C42.9913 3.77906 43.0505 3.74336 43.1693 3.74272C43.2044 3.74253 43.2504 3.76406 43.3073 3.80731C43.4808 3.93431 43.6579 3.99733 43.8388 3.99636C43.936 3.99583 44.0196 3.97905 44.0896 3.94601C44.2188 3.88271 44.2831 3.78165 44.2823 3.64284C44.2819 3.55846 44.2397 3.49063 44.1557 3.43936C44.0745 3.38808 43.9744 3.34779 43.8554 3.31849C43.7392 3.28917 43.6216 3.25714 43.5026 3.22239C43.3836 3.18764 43.2821 3.12966 43.1979 3.04846C43.1165 2.96451 43.0754 2.85857 43.0747 2.73064C43.0739 2.5646 43.1474 2.42947 43.2953 2.32524C43.4432 2.22101 43.6265 2.16831 43.8452 2.16713C43.9937 2.16634 44.1275 2.20509 44.2467 2.28338C44.3686 2.35895 44.4299 2.47022 44.4307 2.6172C44.4312 2.71519 44.3762 2.76448 44.2655 2.76508C44.2196 2.76532 44.1885 2.75733 44.1722 2.74108C44.1586 2.72482 44.1504 2.69629 44.1475 2.65547C44.1472 2.61192 44.1444 2.58063 44.1389 2.56161Z" fill="white"/>
</svg>
