<svg width="62" height="7" viewBox="0 0 62 7" fill="none" xmlns="http://www.w3.org/2000/svg">
<path d="M1.01916 3.24486C1.01916 2.66197 0.995074 2.14822 0.946899 1.70358C0.946899 1.58775 0.995074 1.48687 1.09142 1.40093C1.18777 1.31499 1.31562 1.2496 1.47497 1.20476C1.79367 1.12256 2.14386 1.08146 2.52556 1.08146C3.01842 1.08146 3.40568 1.19169 3.68731 1.41214C3.97266 1.62885 4.11533 1.96326 4.11533 2.41537C4.11533 2.86748 3.93375 3.22991 3.57058 3.50267C3.20742 3.77543 2.76458 3.91181 2.24207 3.91181C1.97525 3.91181 1.69546 3.85577 1.40271 3.74367C1.38418 3.92302 1.37492 4.16589 1.37492 4.47228L1.38047 4.74691C1.38047 4.83658 1.37862 4.92999 1.37492 5.02714C1.35639 5.0533 1.336 5.07198 1.31377 5.08319C1.29154 5.0944 1.27486 5.10187 1.26374 5.10561C1.25633 5.11308 1.24336 5.11868 1.22483 5.12242C1.2063 5.12616 1.19333 5.12802 1.18592 5.12802C1.16369 5.1355 1.13775 5.13923 1.1081 5.13923H1.0136C1.00619 4.859 1.00249 4.60679 1.00249 4.3826L1.01916 3.24486ZM1.39159 3.34014C1.66211 3.52322 1.98637 3.61477 2.36436 3.61477C2.74234 3.61103 3.06104 3.49333 3.32044 3.26167C3.57985 3.02628 3.70955 2.73857 3.70955 2.39856C3.70955 2.05854 3.57614 1.80446 3.30933 1.63632C3.04251 1.46818 2.72196 1.38411 2.34768 1.38411C1.9771 1.38411 1.64914 1.47005 1.3638 1.64193C1.38233 1.8848 1.39159 2.45087 1.39159 3.34014Z" fill="white"/>
<path d="M5.132 4.5003L5.14868 4.81977C5.14868 4.90197 5.12459 4.95988 5.07641 4.99351C5.03194 5.0234 4.98562 5.03835 4.93745 5.03835C4.89298 5.03835 4.84665 5.03088 4.79848 5.01593C4.71695 4.5825 4.65396 4.04259 4.60949 3.39618C4.56872 2.74978 4.54463 2.38361 4.53722 2.29767C4.59281 2.24536 4.65025 2.21921 4.70954 2.21921C4.77254 2.21921 4.82813 2.22668 4.8763 2.24163C4.89112 2.34998 4.90224 2.58911 4.90965 2.95902C4.91706 3.32893 4.92633 3.56059 4.93745 3.654C4.98933 3.34014 5.08197 3.04683 5.21538 2.77407C5.28949 2.62087 5.38584 2.49944 5.50443 2.40977C5.62672 2.31635 5.75642 2.26965 5.89353 2.26965C6.03435 2.26965 6.1622 2.33317 6.27708 2.46021C6.39567 2.58351 6.45496 2.6956 6.45496 2.79649C6.45496 2.83385 6.43272 2.86374 6.38825 2.88616C6.34378 2.90484 6.29376 2.91418 6.23817 2.91418C6.18629 2.91418 6.14553 2.89363 6.11588 2.85253C6.08623 2.81143 6.06585 2.7666 6.05473 2.71802C6.04362 2.66571 6.01953 2.61901 5.98247 2.57791C5.94541 2.5368 5.89539 2.51625 5.83239 2.51625C5.66563 2.51625 5.52296 2.66758 5.40437 2.97023C5.22279 3.42234 5.132 3.93236 5.132 4.5003Z" fill="white"/>
<path d="M6.96931 2.72363C7.1583 2.43218 7.43067 2.28646 7.78643 2.28646C8.14218 2.28646 8.42567 2.43218 8.6369 2.72363C8.85184 3.01507 8.9593 3.34761 8.9593 3.72126C8.9593 4.09116 8.84257 4.40502 8.60911 4.66284C8.37564 4.92065 8.07918 5.04956 7.71972 5.04956C7.36027 5.04956 7.09901 4.94868 6.93595 4.74691C6.7729 4.5414 6.69137 4.2537 6.69137 3.88379C6.69137 3.40179 6.78402 3.01507 6.96931 2.72363ZM7.21389 3.02067C7.16571 3.16639 7.12865 3.31212 7.10271 3.45784C7.08048 3.60356 7.06936 3.73994 7.06936 3.86698C7.06936 3.99028 7.07863 4.10424 7.09716 4.20886C7.11568 4.30974 7.14718 4.41063 7.19165 4.51151C7.23612 4.60866 7.30283 4.68712 7.39176 4.74691C7.4807 4.80295 7.58632 4.83098 7.70861 4.83098C7.95689 4.83098 8.16442 4.72823 8.33118 4.52272C8.50164 4.31722 8.58687 4.06874 8.58687 3.7773C8.58687 3.48586 8.50905 3.20376 8.35341 2.931C8.20147 2.6545 8.01433 2.51625 7.79199 2.51625C7.65858 2.51625 7.54185 2.56296 7.44179 2.65637C7.34174 2.74978 7.26577 2.87122 7.21389 3.02067Z" fill="white"/>
<path d="M9.22238 2.35372C9.25574 2.28273 9.328 2.24723 9.43917 2.24723C9.48735 2.24723 9.52811 2.25844 9.56146 2.28086C9.66522 2.56856 9.76713 2.85814 9.86719 3.14958C10.0562 3.68389 10.2322 4.10611 10.3953 4.41623C10.4731 3.96039 10.6232 3.50081 10.8455 3.03749C11.0716 2.57417 11.2772 2.34251 11.4625 2.34251C11.5181 2.34251 11.5737 2.35559 11.6293 2.38174C11.2031 2.94594 10.8974 3.69323 10.7121 4.62361C10.675 4.84032 10.6343 4.96362 10.5898 4.99351C10.5416 5.02714 10.4916 5.04395 10.4397 5.04395C10.3878 5.04395 10.3471 5.03275 10.3174 5.01033C10.2915 4.98791 10.2711 4.96549 10.2563 4.94307C10.2452 4.92065 10.2285 4.88329 10.2063 4.83098C10.1877 4.77867 10.1729 4.74317 10.1618 4.72449C9.78381 4.01083 9.47067 3.22057 9.22238 2.35372Z" fill="white"/>
<path d="M12.3754 0.924531C12.3717 1.01047 12.3698 1.10575 12.3698 1.21037C12.3698 1.31499 12.3754 1.42335 12.3865 1.53544C12.3346 1.59522 12.2642 1.62511 12.1752 1.62511C12.0641 1.62511 12.0085 1.53544 12.0085 1.35609C12.0085 1.34862 12.0085 1.32059 12.0085 1.27202C12.0085 1.22345 12.0085 1.18048 12.0085 1.14311C12.0122 1.10201 12.0196 1.05531 12.0307 1.003C12.0567 0.913322 12.1141 0.868485 12.203 0.868485C12.292 0.868485 12.3494 0.887167 12.3754 0.924531ZM12.0196 3.67081C12.0196 2.93847 12.0567 2.51625 12.1308 2.40416C12.1567 2.36306 12.1882 2.34251 12.2253 2.34251C12.2623 2.34251 12.3235 2.36306 12.4087 2.40416C12.3902 2.72176 12.3809 3.06738 12.3809 3.44102C12.3809 3.44102 12.3846 3.8539 12.392 4.67965C12.392 4.79548 12.3661 4.87768 12.3142 4.92626C12.266 4.97109 12.2197 4.99351 12.1752 4.99351C12.1345 4.99351 12.0919 4.9823 12.0474 4.95988C12.0289 4.47415 12.0196 4.04446 12.0196 3.67081Z" fill="white"/>
<path d="M15.1836 0.560228C15.0427 1.84556 14.9723 2.76286 14.9723 3.31212C14.9723 3.85764 15.0224 4.40316 15.1224 4.94868C15.0483 5.0234 14.9834 5.06077 14.9279 5.06077C14.8723 5.06077 14.826 5.0533 14.7889 5.03835C14.7111 4.76185 14.6648 4.46107 14.6499 4.136C14.561 4.27798 14.4943 4.37887 14.4498 4.43865C14.4091 4.49843 14.3368 4.58624 14.233 4.70207C14.044 4.92626 13.8198 5.03835 13.5604 5.03835C13.364 5.03835 13.2214 4.94681 13.1324 4.76372C13.0472 4.5769 13.0046 4.33964 13.0046 4.05193C13.0046 3.76049 13.0361 3.48399 13.0991 3.22244C13.1658 2.95715 13.2788 2.72923 13.4381 2.53867C13.5975 2.34438 13.7939 2.24723 14.0274 2.24723C14.1682 2.24723 14.2979 2.27712 14.4165 2.3369C14.5351 2.39669 14.6166 2.47702 14.661 2.57791C14.6685 2.47702 14.6759 2.32196 14.6833 2.11272C14.6907 1.90348 14.6981 1.71852 14.7055 1.55786C14.7166 1.39345 14.7333 1.22718 14.7555 1.05904C14.7963 0.700345 14.8871 0.520996 15.0279 0.520996C15.0761 0.520996 15.128 0.534074 15.1836 0.560228ZM14.5332 2.77967C14.4887 2.69747 14.4276 2.63769 14.3498 2.60032C14.2719 2.55922 14.1682 2.53867 14.0385 2.53867C13.9125 2.53867 13.7939 2.61153 13.6827 2.75725C13.4641 3.04496 13.3548 3.46157 13.3548 4.00709C13.3548 4.18271 13.3826 4.35832 13.4381 4.53393C13.4937 4.70581 13.5753 4.79174 13.6827 4.79174C13.8384 4.79174 13.9903 4.68899 14.1385 4.48349C14.2868 4.27798 14.4016 4.04259 14.4832 3.7773C14.5647 3.50828 14.6055 3.26728 14.6055 3.0543C14.6055 2.95342 14.5814 2.86187 14.5332 2.77967Z" fill="white"/>
<path d="M16.1155 0.924531C16.1118 1.01047 16.1099 1.10575 16.1099 1.21037C16.1099 1.31499 16.1155 1.42335 16.1266 1.53544C16.0747 1.59522 16.0043 1.62511 15.9154 1.62511C15.8042 1.62511 15.7486 1.53544 15.7486 1.35609C15.7486 1.34862 15.7486 1.32059 15.7486 1.27202C15.7486 1.22345 15.7486 1.18048 15.7486 1.14311C15.7523 1.10201 15.7597 1.05531 15.7709 1.003C15.7968 0.913322 15.8542 0.868485 15.9432 0.868485C16.0321 0.868485 16.0896 0.887167 16.1155 0.924531ZM15.7597 3.67081C15.7597 2.93847 15.7968 2.51625 15.8709 2.40416C15.8969 2.36306 15.9284 2.34251 15.9654 2.34251C16.0025 2.34251 16.0636 2.36306 16.1489 2.40416C16.1303 2.72176 16.1211 3.06738 16.1211 3.44102C16.1211 3.44102 16.1248 3.8539 16.1322 4.67965C16.1322 4.79548 16.1062 4.87768 16.0544 4.92626C16.0062 4.97109 15.9599 4.99351 15.9154 4.99351C15.8746 4.99351 15.832 4.9823 15.7875 4.95988C15.769 4.47415 15.7597 4.04446 15.7597 3.67081Z" fill="white"/>
<path d="M19.1183 4.89263C19.0516 4.96362 18.9756 4.99912 18.8904 4.99912C18.731 4.99912 18.6124 4.91318 18.5346 4.7413C18.4568 4.56943 18.4105 4.36019 18.3956 4.11358C18.3845 3.86698 18.3771 3.62037 18.3734 3.37377C18.3697 3.12716 18.3493 2.91792 18.3123 2.74605C18.2789 2.57417 18.2141 2.48823 18.1177 2.48823C17.988 2.48823 17.8768 2.60593 17.7842 2.84132C17.6952 3.07672 17.6322 3.33827 17.5952 3.62598C17.4914 4.42931 17.3914 4.87955 17.295 4.9767C17.2283 5.01033 17.1709 5.02714 17.1227 5.02714C17.0745 5.02714 17.0338 5.02154 17.0004 5.01033C16.9226 4.66657 16.8726 4.07435 16.8503 3.23365C16.8429 2.81517 16.8355 2.54428 16.8281 2.42097C16.9059 2.36866 16.9726 2.34251 17.0282 2.34251C17.0838 2.34251 17.1283 2.34811 17.1616 2.35932C17.1801 2.51999 17.1894 2.8488 17.1894 3.34574C17.1931 3.84269 17.1968 4.12853 17.2005 4.20326C17.2191 4.12479 17.2413 3.99775 17.2672 3.82214C17.2969 3.64653 17.3228 3.50267 17.345 3.39058C17.3673 3.27475 17.4025 3.14024 17.4507 2.98705C17.4988 2.83385 17.5526 2.71242 17.6119 2.62274C17.6712 2.52933 17.7527 2.45087 17.8564 2.38735C17.9602 2.32009 18.0769 2.28646 18.2066 2.28646C18.3808 2.28646 18.5068 2.3668 18.5846 2.52746C18.6662 2.68439 18.7106 2.88056 18.718 3.11595C18.7254 3.35135 18.7292 3.59048 18.7292 3.83335C18.7329 4.07622 18.7625 4.29854 18.8181 4.5003C18.8774 4.70207 18.9774 4.83285 19.1183 4.89263Z" fill="white"/>
<path d="M20.45 2.24723C20.7873 2.24723 21.0207 2.38548 21.1504 2.66197C21.2208 2.8077 21.2783 2.94594 21.3227 3.07672C21.3672 3.20749 21.3969 3.38684 21.4117 3.61477C21.4339 3.96226 21.445 4.35832 21.445 4.80295C21.445 5.24385 21.3394 5.59508 21.1282 5.85663C20.9207 6.12192 20.6149 6.25456 20.211 6.25456C19.8108 6.25456 19.4773 6.12378 19.2105 5.86223C19.2846 5.78751 19.3642 5.75014 19.4495 5.75014C19.5384 5.75014 19.6589 5.78751 19.8108 5.86223C19.9664 5.9407 20.1313 5.97993 20.3055 5.97993C20.4797 5.97993 20.6242 5.93883 20.7391 5.85663C20.854 5.77816 20.9392 5.66607 20.9948 5.52035C21.0874 5.26254 21.1337 4.94494 21.1337 4.56756C21.1337 4.51151 21.1282 4.30414 21.1171 3.94544C21.017 4.25183 20.8743 4.50591 20.6891 4.70767C20.5038 4.90571 20.2944 5.00472 20.0609 5.00472C19.8275 5.00472 19.6551 4.9001 19.544 4.69086C19.4365 4.47788 19.3828 4.23688 19.3828 3.96786C19.3828 3.69884 19.4198 3.43729 19.4939 3.18321C19.5681 2.92539 19.6885 2.70494 19.8553 2.52186C20.022 2.33877 20.2203 2.24723 20.45 2.24723ZM19.8608 3.09914C19.8126 3.26354 19.7774 3.4186 19.7552 3.56432C19.733 3.71005 19.7219 3.85764 19.7219 4.00709C19.7219 4.15281 19.7515 4.31535 19.8108 4.4947C19.8738 4.67405 19.9646 4.76372 20.0832 4.76372C20.3166 4.76372 20.5241 4.58811 20.7057 4.23688C20.8873 3.88192 20.9781 3.52509 20.9781 3.16639C20.9781 3.04309 20.9207 2.90484 20.8058 2.75165C20.6946 2.59472 20.5538 2.51625 20.3833 2.51625C20.2647 2.51625 20.1591 2.5723 20.0665 2.68439C19.9775 2.79649 19.909 2.93474 19.8608 3.09914Z" fill="white"/>
<path d="M25.6052 4.89263C25.5385 4.96362 25.4625 4.99912 25.3773 4.99912C25.2179 4.99912 25.0993 4.91318 25.0215 4.7413C24.9437 4.56943 24.8974 4.36019 24.8825 4.11358C24.8714 3.86698 24.864 3.62037 24.8603 3.37377C24.8566 3.12716 24.8362 2.91792 24.7992 2.74605C24.7658 2.57417 24.701 2.48823 24.6046 2.48823C24.4749 2.48823 24.3637 2.60593 24.2711 2.84132C24.1821 3.07672 24.1191 3.33827 24.0821 3.62598C23.9783 4.42931 23.8783 4.87955 23.7819 4.9767C23.7152 5.01033 23.6578 5.02714 23.6096 5.02714C23.5614 5.02714 23.5207 5.02154 23.4873 5.01033C23.4095 4.66657 23.3595 4.07435 23.3372 3.23365C23.3298 2.81517 23.3224 2.54428 23.315 2.42097C23.3928 2.36866 23.4595 2.34251 23.5151 2.34251C23.5707 2.34251 23.6152 2.34811 23.6485 2.35932C23.667 2.51999 23.6763 2.8488 23.6763 3.34574C23.68 3.84269 23.6837 4.12853 23.6874 4.20326C23.706 4.12479 23.7282 3.99775 23.7541 3.82214C23.7838 3.64653 23.8097 3.50267 23.832 3.39058C23.8542 3.27475 23.8894 3.14024 23.9376 2.98705C23.9857 2.83385 24.0395 2.71242 24.0988 2.62274C24.1581 2.52933 24.2396 2.45087 24.3433 2.38735C24.4471 2.32009 24.5638 2.28646 24.6935 2.28646C24.8677 2.28646 24.9937 2.3668 25.0715 2.52746C25.1531 2.68439 25.1975 2.88056 25.2049 3.11595C25.2124 3.35135 25.2161 3.59048 25.2161 3.83335C25.2198 4.07622 25.2494 4.29854 25.305 4.5003C25.3643 4.70207 25.4643 4.83285 25.6052 4.89263Z" fill="white"/>
<path d="M26.2477 3.91181C26.2403 3.98654 26.2365 4.03698 26.2365 4.06314C26.2365 4.28733 26.3033 4.46107 26.4367 4.58437C26.5738 4.70767 26.735 4.76933 26.9203 4.76933C27.1055 4.76933 27.2556 4.74317 27.3705 4.69086C27.4891 4.63855 27.5743 4.5825 27.6262 4.52272C27.7596 4.35458 27.8819 4.27051 27.9931 4.27051C28.0338 4.27051 28.082 4.28172 28.1376 4.30414C28.1005 4.48723 27.9597 4.65536 27.7151 4.80856C27.4743 4.95802 27.1704 5.03275 26.8035 5.03275C26.5441 5.03275 26.3199 4.95054 26.1309 4.78614C25.9456 4.618 25.853 4.39008 25.853 4.10237C25.853 3.81467 25.9086 3.5363 26.0198 3.26728C26.1346 2.99452 26.2977 2.76286 26.5089 2.5723C26.7239 2.37801 26.9406 2.28086 27.1593 2.28086C27.3816 2.28086 27.5595 2.32756 27.6929 2.42097C27.83 2.51065 27.8986 2.64329 27.8986 2.81891C27.8986 3.14398 27.7541 3.413 27.465 3.62598C27.1797 3.83522 26.8758 3.93984 26.5534 3.93984C26.4682 3.93984 26.3662 3.9305 26.2477 3.91181ZM26.6701 3.72686C26.8443 3.72686 26.9999 3.67081 27.137 3.55872C27.2742 3.44663 27.3705 3.32893 27.4261 3.20563C27.4854 3.08232 27.515 2.97023 27.515 2.86935C27.515 2.76846 27.4761 2.68066 27.3983 2.60593C27.3205 2.52746 27.2297 2.48823 27.1259 2.48823C26.9406 2.48823 26.7683 2.61714 26.609 2.87495C26.4533 3.13277 26.3422 3.39992 26.2755 3.67642C26.4385 3.71005 26.5701 3.72686 26.6701 3.72686Z" fill="white"/>
<path d="M30.0868 4.39942C30.0275 4.57129 29.9126 4.71702 29.7421 4.83658C29.5754 4.95615 29.3919 5.01593 29.1918 5.01593C28.9954 5.01593 28.8416 4.91692 28.7305 4.71888C28.623 4.51712 28.5693 4.23875 28.5693 3.88379C28.5693 2.88242 28.7156 2.38174 29.0084 2.38174C29.0455 2.38174 29.0918 2.38735 29.1474 2.39856C29.1363 2.45834 29.1103 2.5723 29.0695 2.74044C28.988 3.06925 28.9473 3.35882 28.9473 3.60916C28.9473 3.8595 28.9825 4.12479 29.0529 4.40502C29.1233 4.68152 29.2233 4.81977 29.353 4.81977C29.4197 4.81977 29.4846 4.7768 29.5476 4.69086C29.6106 4.60492 29.6606 4.51525 29.6977 4.42184C29.7347 4.32469 29.7736 4.21447 29.8144 4.09116C29.8552 3.96786 29.8811 3.89313 29.8922 3.86698C29.8366 3.65026 29.8088 3.42981 29.8088 3.20563C29.8088 3.19442 29.8088 3.16079 29.8088 3.10474C29.8088 3.04496 29.8107 2.98705 29.8144 2.931C29.8181 2.87495 29.8292 2.8077 29.8478 2.72923C29.8848 2.5723 29.9849 2.49384 30.1479 2.49384C30.285 2.49384 30.3536 2.70308 30.3536 3.12156C30.3536 3.19629 30.3425 3.30464 30.3202 3.44663C30.3017 3.58861 30.2925 3.68763 30.2925 3.74367C30.2925 3.91555 30.374 4.13787 30.537 4.41063C30.7001 4.68339 30.852 4.81977 30.9928 4.81977C31.1374 4.81977 31.243 4.73757 31.3097 4.57316C31.3764 4.40876 31.4097 4.22567 31.4097 4.02391C31.4097 3.79225 31.3894 3.61664 31.3486 3.49707C31.3115 3.37377 31.2875 3.29343 31.2763 3.25607C31.2689 3.2187 31.2448 3.16079 31.2041 3.08232C31.167 3.00012 31.1429 2.94781 31.1318 2.92539C31.1244 2.90298 31.0966 2.8488 31.0484 2.76286C31.0003 2.67692 30.9725 2.62835 30.965 2.61714C30.8576 2.42658 30.7946 2.32196 30.7761 2.30328C30.8687 2.22481 30.9539 2.18558 31.0318 2.18558C31.2578 2.34998 31.4375 2.61901 31.5709 2.99265C31.7043 3.36256 31.7711 3.7007 31.7711 4.00709C31.7711 4.30974 31.7062 4.54888 31.5765 4.72449C31.4505 4.89637 31.2522 4.9823 30.9817 4.9823C30.7927 4.9823 30.613 4.92999 30.4425 4.82537C30.2758 4.71702 30.1572 4.57503 30.0868 4.39942Z" fill="white"/>
<path d="M33.6469 1.01981C33.6913 0.937609 33.7729 0.896508 33.8915 0.896508C33.9174 0.896508 33.9433 0.900244 33.9693 0.907717C33.9767 1.10575 33.9804 1.65874 33.9804 2.5667C33.9841 2.56296 34.0008 2.54615 34.0304 2.51625C34.0638 2.48636 34.0842 2.46768 34.0916 2.46021C34.099 2.45273 34.1175 2.43592 34.1472 2.40977C34.1768 2.37987 34.199 2.36119 34.2139 2.35372C34.2324 2.34251 34.2565 2.32756 34.2861 2.30888C34.3158 2.28646 34.3417 2.27152 34.3639 2.26404C34.3862 2.25284 34.4121 2.24163 34.4418 2.23042C34.4974 2.21173 34.5622 2.20239 34.6363 2.20239C34.9105 2.20239 35.131 2.31822 35.2978 2.54988C35.4646 2.7778 35.5479 3.03375 35.5479 3.31772C35.5479 3.60169 35.5053 3.87258 35.4201 4.1304C35.3349 4.38447 35.2033 4.60679 35.0254 4.79735C34.8475 4.98791 34.64 5.08319 34.4029 5.08319C34.1694 5.08319 33.973 4.99538 33.8136 4.81977C33.658 4.64416 33.5802 4.44426 33.5802 4.22007C33.5802 3.99215 33.5931 3.57367 33.6191 2.96463C33.645 2.35185 33.658 1.91282 33.658 1.64753C33.658 1.37851 33.6543 1.16927 33.6469 1.01981ZM34.4418 4.80856C34.5863 4.80856 34.716 4.73943 34.8309 4.60119C35.0643 4.32843 35.1811 3.94171 35.1811 3.44102C35.1811 3.172 35.1292 2.93473 35.0254 2.72923C34.9217 2.51999 34.7753 2.41537 34.5863 2.41537C34.4788 2.41537 34.3843 2.46955 34.3028 2.57791C34.2213 2.68253 34.1583 2.82264 34.1138 2.99825C34.0286 3.3308 33.986 3.7007 33.986 4.10798C33.986 4.45173 34.0564 4.66284 34.1972 4.7413C34.2602 4.77867 34.3417 4.80109 34.4418 4.80856Z" fill="white"/>
<path d="M36.377 3.91181C36.3696 3.98654 36.3659 4.03698 36.3659 4.06314C36.3659 4.28733 36.4326 4.46107 36.566 4.58437C36.7031 4.70767 36.8643 4.76933 37.0496 4.76933C37.2349 4.76933 37.385 4.74317 37.4998 4.69086C37.6184 4.63855 37.7037 4.5825 37.7555 4.52272C37.889 4.35458 38.0112 4.27051 38.1224 4.27051C38.1632 4.27051 38.2114 4.28172 38.2669 4.30414C38.2299 4.48723 38.0891 4.65536 37.8445 4.80856C37.6036 4.95802 37.2997 5.03275 36.9329 5.03275C36.6735 5.03275 36.4493 4.95054 36.2603 4.78614C36.075 4.618 35.9823 4.39008 35.9823 4.10237C35.9823 3.81467 36.0379 3.5363 36.1491 3.26728C36.264 2.99452 36.427 2.76286 36.6383 2.5723C36.8532 2.37801 37.07 2.28086 37.2886 2.28086C37.511 2.28086 37.6888 2.32756 37.8223 2.42097C37.9594 2.51065 38.0279 2.64329 38.0279 2.81891C38.0279 3.14398 37.8834 3.413 37.5943 3.62598C37.309 3.83522 37.0051 3.93984 36.6827 3.93984C36.5975 3.93984 36.4956 3.9305 36.377 3.91181ZM36.7995 3.72686C36.9736 3.72686 37.1293 3.67081 37.2664 3.55872C37.4035 3.44663 37.4998 3.32893 37.5554 3.20563C37.6147 3.08232 37.6444 2.97023 37.6444 2.86935C37.6444 2.76846 37.6055 2.68066 37.5276 2.60593C37.4498 2.52746 37.359 2.48823 37.2553 2.48823C37.07 2.48823 36.8977 2.61714 36.7383 2.87495C36.5827 3.13277 36.4715 3.39992 36.4048 3.67642C36.5678 3.71005 36.6994 3.72686 36.7995 3.72686Z" fill="white"/>
<path d="M40.8109 0.560228C40.6701 1.84556 40.5997 2.76286 40.5997 3.31212C40.5997 3.85764 40.6497 4.40316 40.7498 4.94868C40.6756 5.0234 40.6108 5.06077 40.5552 5.06077C40.4996 5.06077 40.4533 5.0533 40.4162 5.03835C40.3384 4.76185 40.2921 4.46107 40.2773 4.136C40.1883 4.27798 40.1216 4.37887 40.0771 4.43865C40.0364 4.49843 39.9641 4.58624 39.8604 4.70207C39.6714 4.92626 39.4472 5.03835 39.1878 5.03835C38.9914 5.03835 38.8487 4.94681 38.7598 4.76372C38.6745 4.5769 38.6319 4.33964 38.6319 4.05193C38.6319 3.76049 38.6634 3.48399 38.7264 3.22244C38.7931 2.95715 38.9061 2.72923 39.0655 2.53867C39.2248 2.34438 39.4212 2.24723 39.6547 2.24723C39.7955 2.24723 39.9252 2.27712 40.0438 2.3369C40.1624 2.39669 40.2439 2.47702 40.2884 2.57791C40.2958 2.47702 40.3032 2.32196 40.3106 2.11272C40.318 1.90348 40.3254 1.71852 40.3329 1.55786C40.344 1.39345 40.3606 1.22718 40.3829 1.05904C40.4236 0.700345 40.5144 0.520996 40.6553 0.520996C40.7034 0.520996 40.7553 0.534074 40.8109 0.560228ZM40.1605 2.77967C40.1161 2.69747 40.0549 2.63769 39.9771 2.60032C39.8993 2.55922 39.7955 2.53867 39.6658 2.53867C39.5398 2.53867 39.4212 2.61153 39.3101 2.75725C39.0914 3.04496 38.9821 3.46157 38.9821 4.00709C38.9821 4.18271 39.0099 4.35832 39.0655 4.53393C39.1211 4.70581 39.2026 4.79174 39.3101 4.79174C39.4657 4.79174 39.6176 4.68899 39.7659 4.48349C39.9141 4.27798 40.029 4.04259 40.1105 3.7773C40.192 3.50828 40.2328 3.26728 40.2328 3.0543C40.2328 2.95342 40.2087 2.86187 40.1605 2.77967Z" fill="white"/>
<path d="M42.7434 2.8077C42.71 2.72176 42.647 2.6545 42.5544 2.60593C42.4618 2.55735 42.3469 2.53307 42.2098 2.53307C42.0727 2.53307 41.9429 2.57417 41.8207 2.65637C41.7021 2.73857 41.6428 2.8488 41.6428 2.98705C41.6428 3.12529 41.6984 3.23552 41.8095 3.31772C41.9244 3.39619 42.0615 3.45597 42.2209 3.49707C42.3839 3.53817 42.547 3.58301 42.71 3.63158C42.8731 3.67642 43.0102 3.75301 43.1214 3.86137C43.2363 3.96599 43.2937 4.10424 43.2937 4.27612C43.2937 4.52646 43.1899 4.71702 42.9824 4.84779C42.7786 4.97857 42.5322 5.04395 42.2431 5.04395C42.0726 5.04395 41.8485 4.99725 41.5705 4.90384C41.2963 4.81043 41.1592 4.69833 41.1592 4.56756C41.1592 4.47041 41.2407 4.42184 41.4038 4.42184C41.4519 4.42184 41.5149 4.45173 41.5928 4.51151C41.8299 4.68712 42.0727 4.77493 42.3209 4.77493C42.4543 4.77493 42.5692 4.75251 42.6656 4.70767C42.8434 4.62174 42.9324 4.48349 42.9324 4.29293C42.9324 4.1771 42.8749 4.08369 42.7601 4.0127C42.6489 3.9417 42.5118 3.88566 42.3487 3.84456C42.1894 3.80346 42.0282 3.75862 41.8651 3.71005C41.7021 3.66147 41.5631 3.58114 41.4482 3.46905C41.3371 3.35322 41.2815 3.20749 41.2815 3.03188C41.2815 2.80396 41.3834 2.61901 41.5872 2.47702C41.791 2.33504 42.043 2.26404 42.3432 2.26404C42.547 2.26404 42.7304 2.31822 42.8935 2.42658C43.0602 2.5312 43.1436 2.68439 43.1436 2.88616C43.1436 3.02067 43.0677 3.08793 42.9157 3.08793C42.8527 3.08793 42.8101 3.07672 42.7879 3.0543C42.7693 3.03188 42.7582 2.99265 42.7545 2.9366C42.7545 2.87682 42.7508 2.83385 42.7434 2.8077Z" fill="white"/>
<path d="M45.4401 5.08879C45.3734 5.08879 45.34 4.52272 45.34 3.39058C45.34 2.91232 45.3382 2.62274 45.3345 2.52186H45.2233C45.1714 2.52186 45.1307 2.52186 45.101 2.52186C45.0714 2.51812 45.0325 2.51625 44.9843 2.51625C44.9398 2.51252 44.9027 2.50691 44.8731 2.49944C44.8472 2.49197 44.8194 2.48263 44.7897 2.47142C44.7341 2.449 44.7063 2.40977 44.7063 2.35372C44.7063 2.28273 44.8212 2.24723 45.051 2.24723C45.151 2.24723 45.2418 2.25097 45.3233 2.25844C45.3271 2.18371 45.3289 2.08843 45.3289 1.9726C45.3326 1.85304 45.3363 1.76149 45.34 1.69797C45.3437 1.63072 45.3474 1.55038 45.3511 1.45697C45.3586 1.36356 45.3678 1.2907 45.3789 1.23839C45.3938 1.18608 45.4123 1.12817 45.4345 1.06465C45.4568 0.997392 45.4864 0.94695 45.5235 0.913322C45.5605 0.879694 45.6031 0.846066 45.6513 0.812438C45.7365 0.748919 45.8774 0.717159 46.0738 0.717159C46.2739 0.717159 46.4203 0.767601 46.5129 0.868485C46.6093 0.965632 46.6945 1.1319 46.7686 1.3673C46.713 1.43456 46.6482 1.46818 46.574 1.46818C46.5481 1.46818 46.5222 1.46445 46.4962 1.45697C46.4295 1.27762 46.3684 1.15619 46.3128 1.09267C46.2609 1.02915 46.1887 0.997392 46.096 0.997392C46.0034 0.997392 45.9329 1.01421 45.8848 1.04783C45.8403 1.08146 45.8051 1.12443 45.7792 1.17674C45.7236 1.28883 45.6958 1.55973 45.6958 1.98942C45.6958 2.0081 45.6958 2.04173 45.6958 2.0903C45.6958 2.13887 45.6958 2.18371 45.6958 2.22481L46.1683 2.17997C46.3536 2.17997 46.4462 2.22294 46.4462 2.30888C46.4462 2.36493 46.4017 2.40229 46.3128 2.42097C46.2238 2.43966 46.1108 2.45087 45.9737 2.4546C45.8403 2.45834 45.7477 2.46955 45.6958 2.48823C45.6884 2.59285 45.6847 2.7311 45.6847 2.90298C45.6847 3.07111 45.6939 3.34014 45.7125 3.71005C45.731 4.07622 45.7403 4.35645 45.7403 4.55074C45.7403 4.74504 45.7199 4.88329 45.6791 4.96549C45.642 5.04769 45.5624 5.08879 45.4401 5.08879Z" fill="white"/>
<path d="M46.8733 2.72363C47.0623 2.43218 47.3346 2.28646 47.6904 2.28646C48.0461 2.28646 48.3296 2.43218 48.5409 2.72363C48.7558 3.01507 48.8633 3.34761 48.8633 3.72126C48.8633 4.09116 48.7465 4.40502 48.5131 4.66284C48.2796 4.92065 47.9831 5.04956 47.6237 5.04956C47.2642 5.04956 47.003 4.94868 46.8399 4.74691C46.6769 4.5414 46.5953 4.2537 46.5953 3.88379C46.5953 3.40179 46.688 3.01507 46.8733 2.72363ZM47.1178 3.02067C47.0697 3.16639 47.0326 3.31212 47.0067 3.45784C46.9844 3.60356 46.9733 3.73994 46.9733 3.86698C46.9733 3.99028 46.9826 4.10424 47.0011 4.20886C47.0196 4.30974 47.0511 4.41063 47.0956 4.51151C47.1401 4.60866 47.2068 4.68712 47.2957 4.74691C47.3847 4.80295 47.4903 4.83098 47.6126 4.83098C47.8608 4.83098 48.0684 4.72823 48.2351 4.52272C48.4056 4.31722 48.4908 4.06874 48.4908 3.7773C48.4908 3.48586 48.413 3.20376 48.2574 2.931C48.1054 2.6545 47.9183 2.51625 47.6959 2.51625C47.5625 2.51625 47.4458 2.56296 47.3457 2.65637C47.2457 2.74978 47.1697 2.87122 47.1178 3.02067Z" fill="white"/>
<path d="M49.9541 4.5003L49.9707 4.81977C49.9707 4.90197 49.9466 4.95988 49.8985 4.99351C49.854 5.0234 49.8077 5.03835 49.7595 5.03835C49.715 5.03835 49.6687 5.03088 49.6205 5.01593C49.539 4.5825 49.476 4.04259 49.4315 3.39618C49.3908 2.74978 49.3667 2.38361 49.3593 2.29767C49.4149 2.24536 49.4723 2.21921 49.5316 2.21921C49.5946 2.21921 49.6502 2.22668 49.6984 2.24163C49.7132 2.34998 49.7243 2.58911 49.7317 2.95902C49.7391 3.32893 49.7484 3.56059 49.7595 3.654C49.8114 3.34014 49.904 3.04683 50.0374 2.77407C50.1115 2.62087 50.2079 2.49944 50.3265 2.40977C50.4488 2.31635 50.5785 2.26965 50.7156 2.26965C50.8564 2.26965 50.9843 2.33317 51.0991 2.46021C51.2177 2.58351 51.277 2.6956 51.277 2.79649C51.277 2.83385 51.2548 2.86374 51.2103 2.88616C51.1658 2.90484 51.1158 2.91418 51.0602 2.91418C51.0083 2.91418 50.9676 2.89363 50.9379 2.85253C50.9083 2.81143 50.8879 2.7666 50.8768 2.71802C50.8657 2.66571 50.8416 2.61901 50.8045 2.57791C50.7675 2.5368 50.7174 2.51625 50.6544 2.51625C50.4877 2.51625 50.345 2.66758 50.2264 2.97023C50.0448 3.42234 49.9541 3.93236 49.9541 4.5003Z" fill="white"/>
<path d="M53.3283 0.890903C53.332 1.15245 53.3338 1.34862 53.3338 1.47939C53.3338 1.60643 53.332 1.73347 53.3283 1.86051C53.3283 1.98755 53.3227 2.23415 53.3116 2.60032C53.3005 2.96276 53.2931 3.25046 53.2894 3.46344C53.4302 3.36629 53.5988 3.21684 53.7952 3.01507C53.9916 2.80956 54.1695 2.63395 54.3288 2.48823C54.5808 2.26031 54.7606 2.19118 54.868 2.28086C54.9088 2.31449 54.9218 2.34625 54.9069 2.37614C54.8699 2.4546 54.7847 2.54988 54.6512 2.66197C54.5215 2.77407 54.3678 2.90111 54.1899 3.04309C54.012 3.18508 53.8712 3.31585 53.7674 3.43542C54.0379 3.47278 54.2547 3.62598 54.4178 3.895C54.4882 4.0183 54.5567 4.1416 54.6235 4.26491C54.7939 4.58998 54.9792 4.81043 55.1793 4.92626C55.1052 5.00099 55.02 5.03835 54.9236 5.03835C54.8273 5.03835 54.7309 4.99164 54.6346 4.89823C54.5419 4.80482 54.4604 4.69086 54.39 4.55635C54.3233 4.42184 54.2547 4.28733 54.1843 4.15281C54.025 3.82774 53.8397 3.66521 53.6285 3.66521C53.5284 3.66521 53.4432 3.69884 53.3728 3.76609C53.3023 3.82961 53.2671 3.89687 53.2671 3.96786C53.2671 4.41623 53.2597 4.74878 53.2449 4.96549C53.193 5.03648 53.1374 5.07198 53.0781 5.07198C53.0596 5.07198 53.0392 5.06824 53.017 5.06077C52.9355 5.02714 52.8947 4.95802 52.8947 4.8534C52.8984 4.74878 52.9095 4.43118 52.9281 3.9006C52.9688 2.54428 52.9892 1.67742 52.9892 1.30004C52.9892 1.12443 53.0059 1.00673 53.0392 0.94695C53.0763 0.887167 53.1189 0.857275 53.1671 0.857275C53.219 0.857275 53.2727 0.868485 53.3283 0.890903Z" fill="white"/>
<path d="M55.8946 0.924531C55.8909 1.01047 55.889 1.10575 55.889 1.21037C55.889 1.31499 55.8946 1.42335 55.9057 1.53544C55.8538 1.59522 55.7834 1.62511 55.6945 1.62511C55.5833 1.62511 55.5277 1.53544 55.5277 1.35609C55.5277 1.34862 55.5277 1.32059 55.5277 1.27202C55.5277 1.22345 55.5277 1.18048 55.5277 1.14311C55.5314 1.10201 55.5388 1.05531 55.55 1.003C55.5759 0.913322 55.6333 0.868485 55.7223 0.868485C55.8112 0.868485 55.8687 0.887167 55.8946 0.924531ZM55.5388 3.67081C55.5388 2.93847 55.5759 2.51625 55.65 2.40416C55.676 2.36306 55.7075 2.34251 55.7445 2.34251C55.7816 2.34251 55.8427 2.36306 55.928 2.40416C55.9094 2.72176 55.9002 3.06738 55.9002 3.44102C55.9002 3.44102 55.9039 3.8539 55.9113 4.67965C55.9113 4.79548 55.8853 4.87768 55.8335 4.92626C55.7853 4.97109 55.739 4.99351 55.6945 4.99351C55.6537 4.99351 55.6111 4.9823 55.5666 4.95988C55.5481 4.47415 55.5388 4.04446 55.5388 3.67081Z" fill="white"/>
<path d="M58.7028 0.560228C58.562 1.84556 58.4916 2.76286 58.4916 3.31212C58.4916 3.85764 58.5416 4.40316 58.6417 4.94868C58.5675 5.0234 58.5027 5.06077 58.4471 5.06077C58.3915 5.06077 58.3452 5.0533 58.3081 5.03835C58.2303 4.76185 58.184 4.46107 58.1692 4.136C58.0802 4.27798 58.0135 4.37887 57.9691 4.43865C57.9283 4.49843 57.856 4.58624 57.7523 4.70207C57.5633 4.92626 57.3391 5.03835 57.0797 5.03835C56.8833 5.03835 56.7406 4.94681 56.6517 4.76372C56.5664 4.5769 56.5238 4.33964 56.5238 4.05193C56.5238 3.76049 56.5553 3.48399 56.6183 3.22244C56.685 2.95715 56.798 2.72923 56.9574 2.53867C57.1167 2.34438 57.3131 2.24723 57.5466 2.24723C57.6874 2.24723 57.8171 2.27712 57.9357 2.3369C58.0543 2.39669 58.1358 2.47702 58.1803 2.57791C58.1877 2.47702 58.1951 2.32196 58.2025 2.11272C58.2099 1.90348 58.2173 1.71852 58.2248 1.55786C58.2359 1.39345 58.2525 1.22718 58.2748 1.05904C58.3155 0.700345 58.4063 0.520996 58.5472 0.520996C58.5953 0.520996 58.6472 0.534074 58.7028 0.560228ZM58.0524 2.77967C58.008 2.69747 57.9468 2.63769 57.869 2.60032C57.7912 2.55922 57.6874 2.53867 57.5577 2.53867C57.4317 2.53867 57.3131 2.61153 57.202 2.75725C56.9833 3.04496 56.874 3.46157 56.874 4.00709C56.874 4.18271 56.9018 4.35832 56.9574 4.53393C57.013 4.70581 57.0945 4.79174 57.202 4.79174C57.3576 4.79174 57.5095 4.68899 57.6578 4.48349C57.806 4.27798 57.9209 4.04259 58.0024 3.7773C58.0839 3.50828 58.1247 3.26728 58.1247 3.0543C58.1247 2.95342 58.1006 2.86187 58.0524 2.77967Z" fill="white"/>
<path d="M60.6353 2.8077C60.602 2.72176 60.539 2.6545 60.4463 2.60593C60.3537 2.55735 60.2388 2.53307 60.1017 2.53307C59.9646 2.53307 59.8349 2.57417 59.7126 2.65637C59.594 2.73857 59.5347 2.8488 59.5347 2.98705C59.5347 3.12529 59.5903 3.23552 59.7015 3.31772C59.8163 3.39619 59.9534 3.45597 60.1128 3.49707C60.2758 3.53817 60.4389 3.58301 60.602 3.63158C60.765 3.67642 60.9021 3.75301 61.0133 3.86137C61.1282 3.96599 61.1856 4.10424 61.1856 4.27612C61.1856 4.52646 61.0819 4.71702 60.8743 4.84779C60.6705 4.97857 60.4241 5.04395 60.135 5.04395C59.9646 5.04395 59.7404 4.99725 59.4624 4.90384C59.1882 4.81043 59.0511 4.69833 59.0511 4.56756C59.0511 4.47041 59.1326 4.42184 59.2957 4.42184C59.3438 4.42184 59.4068 4.45173 59.4847 4.51151C59.7218 4.68712 59.9646 4.77493 60.2128 4.77493C60.3463 4.77493 60.4611 4.75251 60.5575 4.70767C60.7354 4.62174 60.8243 4.48349 60.8243 4.29293C60.8243 4.1771 60.7669 4.08369 60.652 4.0127C60.5408 3.9417 60.4037 3.88566 60.2406 3.84456C60.0813 3.80346 59.9201 3.75862 59.757 3.71005C59.594 3.66147 59.455 3.58114 59.3401 3.46905C59.229 3.35322 59.1734 3.20749 59.1734 3.03188C59.1734 2.80396 59.2753 2.61901 59.4791 2.47702C59.6829 2.33504 59.9349 2.26404 60.2351 2.26404C60.4389 2.26404 60.6223 2.31822 60.7854 2.42658C60.9521 2.5312 61.0355 2.68439 61.0355 2.88616C61.0355 3.02067 60.9596 3.08793 60.8076 3.08793C60.7446 3.08793 60.702 3.07672 60.6798 3.0543C60.6612 3.03188 60.6501 2.99265 60.6464 2.9366C60.6464 2.87682 60.6427 2.83385 60.6353 2.8077Z" fill="white"/>
</svg>
