<svg width="37" height="4" viewBox="0 0 37 4" fill="none" xmlns="http://www.w3.org/2000/svg">
<path d="M0.815834 1.85111C0.815834 1.50922 0.801743 1.20787 0.77356 0.947066C0.77356 0.879126 0.801743 0.819952 0.858109 0.769545C0.914475 0.719138 0.989268 0.680784 1.08249 0.654485C1.26893 0.606269 1.4738 0.582161 1.6971 0.582161C1.98543 0.582161 2.21198 0.646814 2.37674 0.77612C2.54367 0.903234 2.62714 1.09938 2.62714 1.36457C2.62714 1.62976 2.52091 1.84234 2.30845 2.00233C2.096 2.16232 1.83693 2.24231 1.53125 2.24231C1.37516 2.24231 1.21148 2.20944 1.04021 2.14369C1.02937 2.24889 1.02396 2.39134 1.02396 2.57106L1.02721 2.73214C1.02721 2.78474 1.02612 2.83953 1.02396 2.89651C1.01312 2.91185 1.00119 2.92281 0.988184 2.92939C0.975177 2.93596 0.965421 2.94035 0.958917 2.94254C0.954582 2.94692 0.946994 2.95021 0.936154 2.9524C0.925314 2.95459 0.917727 2.95569 0.913391 2.95569C0.900383 2.96007 0.885208 2.96226 0.867864 2.96226H0.812582C0.808246 2.79789 0.806078 2.64996 0.806078 2.51846L0.815834 1.85111ZM1.03371 1.907C1.19197 2.01439 1.38166 2.06808 1.60279 2.06808C1.82392 2.06589 2.01036 1.99685 2.16212 1.86097C2.31387 1.7229 2.38975 1.55415 2.38975 1.35471C2.38975 1.15527 2.3117 1.00624 2.15561 0.907617C1.99952 0.808994 1.812 0.759682 1.59304 0.759682C1.37624 0.759682 1.18438 0.81009 1.01745 0.910904C1.02829 1.05336 1.03371 1.38539 1.03371 1.907Z" fill="white"/>
<path d="M3.2219 2.58749L3.23166 2.77488C3.23166 2.82309 3.21757 2.85706 3.18938 2.87679C3.16337 2.89432 3.13627 2.90309 3.10809 2.90309C3.08207 2.90309 3.05497 2.89871 3.02679 2.88994C2.9791 2.63571 2.94224 2.31902 2.91623 1.93987C2.89238 1.56072 2.87829 1.34594 2.87395 1.29553C2.90647 1.26485 2.94007 1.24951 2.97476 1.24951C3.01161 1.24951 3.04413 1.25389 3.07232 1.26266C3.08099 1.32622 3.08749 1.46648 3.09183 1.68345C3.09616 1.90042 3.10158 2.0363 3.10809 2.09109C3.13844 1.907 3.19264 1.73495 3.27068 1.57497C3.31404 1.48511 3.37041 1.41388 3.43978 1.36128C3.51132 1.30649 3.5872 1.2791 3.66741 1.2791C3.74979 1.2791 3.82459 1.31635 3.89179 1.39087C3.96117 1.46319 3.99585 1.52894 3.99585 1.58812C3.99585 1.61003 3.98285 1.62756 3.95683 1.64071C3.93082 1.65167 3.90155 1.65715 3.86903 1.65715C3.83868 1.65715 3.81483 1.6451 3.79749 1.62099C3.78014 1.59688 3.76822 1.57058 3.76172 1.54209C3.75521 1.51141 3.74112 1.48401 3.71944 1.45991C3.69776 1.4358 3.6685 1.42374 3.63164 1.42374C3.53408 1.42374 3.45062 1.5125 3.38125 1.69003C3.27502 1.95521 3.2219 2.25437 3.2219 2.58749Z" fill="white"/>
<path d="M4.29675 1.54538C4.40732 1.37443 4.56666 1.28896 4.77478 1.28896C4.9829 1.28896 5.14875 1.37443 5.27232 1.54538C5.39806 1.71633 5.46093 1.91138 5.46093 2.13054C5.46093 2.34751 5.39264 2.53161 5.25606 2.68283C5.11948 2.83405 4.94605 2.90966 4.73576 2.90966C4.52547 2.90966 4.37263 2.85049 4.27724 2.73214C4.18185 2.6116 4.13416 2.44285 4.13416 2.22588C4.13416 1.94316 4.18836 1.71633 4.29675 1.54538ZM4.43984 1.71961C4.41165 1.80509 4.38998 1.89056 4.3748 1.97603C4.36179 2.06151 4.35529 2.1415 4.35529 2.21601C4.35529 2.28834 4.36071 2.35518 4.37155 2.41655C4.38239 2.47572 4.40082 2.5349 4.42683 2.59407C4.45285 2.65105 4.49187 2.69708 4.5439 2.73214C4.59593 2.76502 4.65771 2.78145 4.72926 2.78145C4.87451 2.78145 4.99591 2.72118 5.09347 2.60064C5.19319 2.48011 5.24305 2.33436 5.24305 2.16342C5.24305 1.99247 5.19753 1.827 5.10648 1.66701C5.01759 1.50483 4.90811 1.42374 4.77803 1.42374C4.69999 1.42374 4.6317 1.45114 4.57317 1.50593C4.51463 1.56072 4.47019 1.63195 4.43984 1.71961Z" fill="white"/>
<path d="M5.61484 1.32841C5.63435 1.28677 5.67662 1.26595 5.74166 1.26595C5.76984 1.26595 5.79369 1.27252 5.8132 1.28567C5.8739 1.45443 5.93352 1.62428 5.99206 1.79522C6.10262 2.10863 6.2056 2.35628 6.30099 2.53818C6.34651 2.27081 6.43431 2.00124 6.56439 1.72947C6.69663 1.45771 6.81695 1.32183 6.92535 1.32183C6.95787 1.32183 6.99039 1.3295 7.02291 1.34485C6.77359 1.67578 6.59474 2.1141 6.48634 2.65982C6.46466 2.78693 6.44082 2.85926 6.4148 2.87679C6.38662 2.89651 6.35735 2.90638 6.327 2.90638C6.29665 2.90638 6.2728 2.8998 6.25546 2.88665C6.24028 2.8735 6.22836 2.86035 6.21969 2.8472C6.21319 2.83405 6.20343 2.81214 6.19042 2.78145C6.17958 2.75077 6.17091 2.72995 6.16441 2.71899C5.94328 2.30039 5.76009 1.83686 5.61484 1.32841Z" fill="white"/>
<path d="M7.45937 0.490113C7.4572 0.54052 7.45612 0.596407 7.45612 0.657772C7.45612 0.719138 7.45937 0.782695 7.46587 0.848443C7.43552 0.883509 7.39433 0.901042 7.3423 0.901042C7.27727 0.901042 7.24475 0.848443 7.24475 0.743245C7.24475 0.738862 7.24475 0.722425 7.24475 0.693934C7.24475 0.665443 7.24475 0.640239 7.24475 0.618323C7.24691 0.594215 7.25125 0.56682 7.25775 0.536137C7.27293 0.483538 7.30653 0.457239 7.35856 0.457239C7.41059 0.457239 7.4442 0.468197 7.45937 0.490113ZM7.25125 2.10095C7.25125 1.6714 7.27293 1.42374 7.31629 1.358C7.33146 1.33389 7.34989 1.32183 7.37157 1.32183C7.39325 1.32183 7.42902 1.33389 7.47888 1.358C7.46804 1.54428 7.46262 1.74701 7.46262 1.96617C7.46262 1.96617 7.46479 2.20834 7.46913 2.69269C7.46913 2.76063 7.45395 2.80885 7.4236 2.83734C7.39542 2.86364 7.36832 2.87679 7.3423 2.87679C7.31846 2.87679 7.29352 2.87021 7.26751 2.85706C7.25667 2.57215 7.25125 2.32012 7.25125 2.10095Z" fill="white"/>
<path d="M9.10221 0.27643C9.01983 1.03035 8.97864 1.56839 8.97864 1.89056C8.97864 2.21054 9.00791 2.53051 9.06644 2.85049C9.02308 2.89432 8.98514 2.91624 8.95262 2.91624C8.9201 2.91624 8.89301 2.91185 8.87133 2.90309C8.8258 2.74091 8.7987 2.56448 8.79003 2.37381C8.738 2.45709 8.69898 2.51627 8.67296 2.55133C8.64911 2.5864 8.60684 2.6379 8.54614 2.70584C8.43557 2.83734 8.30441 2.90309 8.15266 2.90309C8.03776 2.90309 7.95429 2.84939 7.90226 2.742C7.8524 2.63242 7.82747 2.49326 7.82747 2.3245C7.82747 2.15355 7.8459 1.99137 7.88275 1.83796C7.92177 1.68236 7.9879 1.54867 8.08112 1.43689C8.17434 1.32293 8.28924 1.26595 8.42582 1.26595C8.5082 1.26595 8.58408 1.28348 8.65345 1.31855C8.72282 1.35361 8.77052 1.40073 8.79653 1.45991C8.80087 1.40073 8.80521 1.30978 8.80954 1.18705C8.81388 1.06432 8.81821 0.955833 8.82255 0.861593C8.82905 0.765162 8.83881 0.667634 8.85182 0.569012C8.87566 0.358616 8.92878 0.253418 9.01116 0.253418C9.03934 0.253418 9.06969 0.261089 9.10221 0.27643ZM8.72174 1.57825C8.69572 1.53004 8.65995 1.49497 8.61443 1.47306C8.5689 1.44895 8.5082 1.43689 8.43232 1.43689C8.35861 1.43689 8.28924 1.47963 8.2242 1.5651C8.09629 1.73386 8.03234 1.97822 8.03234 2.2982C8.03234 2.40121 8.0486 2.50421 8.08112 2.60722C8.11364 2.70803 8.16133 2.75844 8.2242 2.75844C8.31525 2.75844 8.40414 2.69817 8.49086 2.57763C8.57757 2.45709 8.64478 2.31902 8.69247 2.16342C8.74017 2.00562 8.76401 1.86426 8.76401 1.73934C8.76401 1.68016 8.74992 1.62647 8.72174 1.57825Z" fill="white"/>
<path d="M9.64741 0.490113C9.64524 0.54052 9.64416 0.596407 9.64416 0.657772C9.64416 0.719138 9.64741 0.782695 9.65391 0.848443C9.62356 0.883509 9.58237 0.901042 9.53034 0.901042C9.4653 0.901042 9.43279 0.848443 9.43279 0.743245C9.43279 0.738862 9.43279 0.722425 9.43279 0.693934C9.43279 0.665443 9.43279 0.640239 9.43279 0.618323C9.43495 0.594215 9.43929 0.56682 9.44579 0.536137C9.46097 0.483538 9.49457 0.457239 9.5466 0.457239C9.59863 0.457239 9.63224 0.468197 9.64741 0.490113ZM9.43929 2.10095C9.43929 1.6714 9.46097 1.42374 9.50433 1.358C9.5195 1.33389 9.53793 1.32183 9.55961 1.32183C9.58129 1.32183 9.61706 1.33389 9.66692 1.358C9.65608 1.54428 9.65066 1.74701 9.65066 1.96617C9.65066 1.96617 9.65283 2.20834 9.65717 2.69269C9.65717 2.76063 9.64199 2.80885 9.61164 2.83734C9.58346 2.86364 9.55636 2.87679 9.53034 2.87679C9.5065 2.87679 9.48156 2.87021 9.45555 2.85706C9.44471 2.57215 9.43929 2.32012 9.43929 2.10095Z" fill="white"/>
<path d="M11.4041 2.81762C11.365 2.85926 11.3206 2.88008 11.2707 2.88008C11.1775 2.88008 11.1081 2.82967 11.0626 2.72885C11.0171 2.62804 10.99 2.50531 10.9813 2.36066C10.9748 2.21601 10.9705 2.07137 10.9683 1.92672C10.9661 1.78207 10.9542 1.65934 10.9325 1.55853C10.913 1.45771 10.8751 1.40731 10.8187 1.40731C10.7428 1.40731 10.6778 1.47634 10.6236 1.61441C10.5716 1.75249 10.5347 1.9059 10.513 2.07466C10.4523 2.54585 10.3938 2.80994 10.3374 2.86693C10.2984 2.88665 10.2648 2.89651 10.2366 2.89651C10.2085 2.89651 10.1846 2.89323 10.1651 2.88665C10.1196 2.68502 10.0903 2.33765 10.0773 1.84454C10.073 1.59907 10.0686 1.44018 10.0643 1.36786C10.1098 1.33717 10.1488 1.32183 10.1814 1.32183C10.2139 1.32183 10.2399 1.32512 10.2594 1.3317C10.2702 1.42594 10.2757 1.6188 10.2757 1.91028C10.2778 2.20177 10.28 2.36943 10.2822 2.41326C10.293 2.36724 10.306 2.29272 10.3212 2.18972C10.3385 2.08671 10.3537 2.00233 10.3667 1.93658C10.3797 1.86864 10.4003 1.78974 10.4285 1.69989C10.4567 1.61003 10.4881 1.5388 10.5228 1.48621C10.5575 1.43141 10.6052 1.38539 10.6659 1.34813C10.7266 1.30868 10.7949 1.28896 10.8708 1.28896C10.9726 1.28896 11.0464 1.33608 11.0919 1.43032C11.1396 1.52237 11.1656 1.63743 11.1699 1.7755C11.1743 1.91357 11.1764 2.05384 11.1764 2.19629C11.1786 2.33875 11.1959 2.46915 11.2285 2.58749C11.2632 2.70584 11.3217 2.78255 11.4041 2.81762Z" fill="white"/>
<path d="M12.1832 1.26595C12.3805 1.26595 12.517 1.34704 12.5929 1.50922C12.6341 1.59469 12.6677 1.67578 12.6937 1.75249C12.7197 1.82919 12.7371 1.93439 12.7458 2.06808C12.7588 2.2719 12.7653 2.50421 12.7653 2.76502C12.7653 3.02363 12.7035 3.22964 12.5799 3.38305C12.4585 3.53866 12.2796 3.61646 12.0433 3.61646C11.8092 3.61646 11.6141 3.53975 11.458 3.38634C11.5014 3.34251 11.548 3.32059 11.5978 3.32059C11.6499 3.32059 11.7203 3.34251 11.8092 3.38634C11.9003 3.43236 11.9967 3.45538 12.0986 3.45538C12.2005 3.45538 12.2851 3.43127 12.3523 3.38305C12.4195 3.33703 12.4693 3.27128 12.5019 3.18581C12.5561 3.03459 12.5832 2.8483 12.5832 2.62694C12.5832 2.59407 12.5799 2.47243 12.5734 2.26204C12.5149 2.44175 12.4314 2.59078 12.323 2.70913C12.2146 2.82529 12.0921 2.88336 11.9555 2.88336C11.819 2.88336 11.7182 2.822 11.6531 2.69927C11.5902 2.57435 11.5588 2.43299 11.5588 2.27519C11.5588 2.11739 11.5805 1.96398 11.6238 1.81495C11.6672 1.66373 11.7377 1.53442 11.8352 1.42703C11.9328 1.31964 12.0488 1.26595 12.1832 1.26595ZM11.8385 1.76564C11.8103 1.86207 11.7897 1.95302 11.7767 2.03849C11.7637 2.12397 11.7572 2.21054 11.7572 2.2982C11.7572 2.38367 11.7745 2.47901 11.8092 2.58421C11.8461 2.68941 11.8992 2.742 11.9685 2.742C12.1051 2.742 12.2265 2.639 12.3328 2.43299C12.439 2.22478 12.4921 2.01548 12.4921 1.80509C12.4921 1.73276 12.4585 1.65167 12.3913 1.56182C12.3263 1.46977 12.2439 1.42374 12.1442 1.42374C12.0748 1.42374 12.013 1.45662 11.9588 1.52237C11.9068 1.58812 11.8667 1.66921 11.8385 1.76564Z" fill="white"/>
<path d="M15.199 2.81762C15.16 2.85926 15.1155 2.88008 15.0657 2.88008C14.9725 2.88008 14.9031 2.82967 14.8576 2.72885C14.812 2.62804 14.7849 2.50531 14.7763 2.36066C14.7697 2.21601 14.7654 2.07137 14.7632 1.92672C14.7611 1.78207 14.7492 1.65934 14.7275 1.55853C14.708 1.45771 14.67 1.40731 14.6137 1.40731C14.5378 1.40731 14.4727 1.47634 14.4185 1.61441C14.3665 1.75249 14.3297 1.9059 14.308 2.07466C14.2473 2.54585 14.1887 2.80994 14.1324 2.86693C14.0934 2.88665 14.0598 2.89651 14.0316 2.89651C14.0034 2.89651 13.9795 2.89323 13.96 2.88665C13.9145 2.68502 13.8852 2.33765 13.8722 1.84454C13.8679 1.59907 13.8636 1.44018 13.8592 1.36786C13.9047 1.33717 13.9438 1.32183 13.9763 1.32183C14.0088 1.32183 14.0348 1.32512 14.0543 1.3317C14.0652 1.42594 14.0706 1.6188 14.0706 1.91028C14.0728 2.20177 14.0749 2.36943 14.0771 2.41326C14.0879 2.36724 14.1009 2.29272 14.1161 2.18972C14.1335 2.08671 14.1486 2.00233 14.1616 1.93658C14.1747 1.86864 14.1952 1.78974 14.2234 1.69989C14.2516 1.61003 14.2831 1.5388 14.3177 1.48621C14.3524 1.43141 14.4001 1.38539 14.4608 1.34813C14.5215 1.30868 14.5898 1.28896 14.6657 1.28896C14.7676 1.28896 14.8413 1.33608 14.8868 1.43032C14.9345 1.52237 14.9605 1.63743 14.9649 1.7755C14.9692 1.91357 14.9714 2.05384 14.9714 2.19629C14.9735 2.33875 14.9909 2.46915 15.0234 2.58749C15.0581 2.70584 15.1166 2.78255 15.199 2.81762Z" fill="white"/>
<path d="M15.5749 2.24231C15.5705 2.28615 15.5684 2.31573 15.5684 2.33108C15.5684 2.46257 15.6074 2.56448 15.6854 2.63681C15.7656 2.70913 15.86 2.74529 15.9683 2.74529C16.0767 2.74529 16.1645 2.72995 16.2318 2.69927C16.3011 2.66858 16.351 2.63571 16.3813 2.60064C16.4594 2.50202 16.5309 2.45271 16.596 2.45271C16.6198 2.45271 16.648 2.45929 16.6805 2.47243C16.6588 2.57982 16.5765 2.67845 16.4334 2.7683C16.2925 2.85597 16.1147 2.8998 15.9001 2.8998C15.7483 2.8998 15.6171 2.85159 15.5066 2.75515C15.3982 2.65653 15.344 2.52284 15.344 2.35409C15.344 2.18533 15.3765 2.02206 15.4415 1.86426C15.5087 1.70427 15.6041 1.56839 15.7277 1.45662C15.8535 1.34265 15.9803 1.28567 16.1082 1.28567C16.2383 1.28567 16.3423 1.31307 16.4204 1.36786C16.5006 1.42046 16.5407 1.49826 16.5407 1.60127C16.5407 1.79194 16.4561 1.94973 16.287 2.07466C16.1201 2.19739 15.9423 2.25875 15.7537 2.25875C15.7039 2.25875 15.6442 2.25327 15.5749 2.24231ZM15.822 2.13383C15.9239 2.13383 16.015 2.10095 16.0952 2.03521C16.1754 1.96946 16.2318 1.90042 16.2643 1.8281C16.299 1.75577 16.3163 1.69003 16.3163 1.63085C16.3163 1.57168 16.2935 1.52018 16.248 1.47634C16.2025 1.43032 16.1494 1.40731 16.0887 1.40731C15.9803 1.40731 15.8795 1.48292 15.7862 1.63414C15.6952 1.78536 15.6302 1.94206 15.5911 2.10424C15.6865 2.12397 15.7635 2.13383 15.822 2.13383Z" fill="white"/>
<path d="M17.8208 2.52832C17.7861 2.62914 17.7189 2.71461 17.6192 2.78474C17.5216 2.85487 17.4143 2.88994 17.2973 2.88994C17.1824 2.88994 17.0924 2.83186 17.0273 2.7157C16.9645 2.59736 16.933 2.43408 16.933 2.22588C16.933 1.63852 17.0187 1.34485 17.1899 1.34485C17.2116 1.34485 17.2387 1.34813 17.2712 1.35471C17.2647 1.38977 17.2496 1.45662 17.2257 1.55524C17.178 1.7481 17.1542 1.91795 17.1542 2.06479C17.1542 2.21163 17.1748 2.36724 17.216 2.53161C17.2572 2.69379 17.3157 2.77488 17.3916 2.77488C17.4306 2.77488 17.4685 2.74968 17.5054 2.69927C17.5422 2.64886 17.5715 2.59626 17.5932 2.54147C17.6149 2.48449 17.6376 2.41984 17.6615 2.34751C17.6853 2.27519 17.7005 2.23136 17.707 2.21601C17.6745 2.0889 17.6582 1.9596 17.6582 1.8281C17.6582 1.82152 17.6582 1.8018 17.6582 1.76892C17.6582 1.73386 17.6593 1.69989 17.6615 1.66701C17.6636 1.63414 17.6701 1.59469 17.681 1.54867C17.7027 1.45662 17.7612 1.41059 17.8566 1.41059C17.9368 1.41059 17.9769 1.53332 17.9769 1.77879C17.9769 1.82262 17.9704 1.88618 17.9574 1.96946C17.9466 2.05274 17.9411 2.11082 17.9411 2.14369C17.9411 2.24451 17.9888 2.37491 18.0842 2.5349C18.1796 2.69488 18.2685 2.77488 18.3509 2.77488C18.4354 2.77488 18.4972 2.72666 18.5362 2.63023C18.5753 2.5338 18.5948 2.42641 18.5948 2.30806C18.5948 2.17218 18.5828 2.06918 18.559 1.99904C18.5373 1.92672 18.5232 1.8796 18.5167 1.85768C18.5124 1.83577 18.4983 1.8018 18.4744 1.75577C18.4528 1.70756 18.4387 1.67688 18.4322 1.66373C18.4278 1.65058 18.4116 1.6188 18.3834 1.56839C18.3552 1.51798 18.3389 1.48949 18.3346 1.48292C18.2717 1.37115 18.2349 1.30978 18.224 1.29882C18.2782 1.2528 18.3281 1.22979 18.3736 1.22979C18.5059 1.32622 18.611 1.48401 18.6891 1.70318C18.7671 1.92015 18.8061 2.11849 18.8061 2.2982C18.8061 2.47572 18.7682 2.61599 18.6923 2.71899C18.6186 2.81981 18.5026 2.87021 18.3444 2.87021C18.2338 2.87021 18.1287 2.83953 18.0289 2.77817C17.9314 2.71461 17.862 2.63133 17.8208 2.52832Z" fill="white"/>
<path d="M19.9035 0.545999C19.9295 0.497784 19.9772 0.473676 20.0466 0.473676C20.0618 0.473676 20.077 0.475867 20.0921 0.480251C20.0965 0.596407 20.0986 0.920767 20.0986 1.45333C20.1008 1.45114 20.1106 1.44128 20.1279 1.42374C20.1474 1.40621 20.1593 1.39525 20.1637 1.39087C20.168 1.38649 20.1788 1.37662 20.1962 1.36128C20.2135 1.34375 20.2265 1.33279 20.2352 1.32841C20.2461 1.32183 20.2601 1.31307 20.2775 1.30211C20.2948 1.28896 20.31 1.28019 20.323 1.27581C20.336 1.26923 20.3512 1.26266 20.3685 1.25608C20.4011 1.24513 20.439 1.23965 20.4824 1.23965C20.6428 1.23965 20.7718 1.30759 20.8693 1.44347C20.9669 1.57716 21.0157 1.72728 21.0157 1.89385C21.0157 2.06041 20.9907 2.2193 20.9409 2.37052C20.891 2.51955 20.814 2.64996 20.71 2.76173C20.6059 2.8735 20.4845 2.92939 20.3458 2.92939C20.2092 2.92939 20.0943 2.87788 20.0011 2.77488C19.91 2.67187 19.8645 2.55462 19.8645 2.42312C19.8645 2.28943 19.8721 2.04397 19.8873 1.68674C19.9024 1.32731 19.91 1.0698 19.91 0.914192C19.91 0.756395 19.9079 0.633664 19.9035 0.545999ZM20.3685 2.7683C20.4531 2.7683 20.529 2.72776 20.5962 2.64667C20.7328 2.48668 20.801 2.25985 20.801 1.96617C20.801 1.80837 20.7707 1.66921 20.71 1.54867C20.6493 1.42594 20.5637 1.36457 20.4531 1.36457C20.3902 1.36457 20.3349 1.39635 20.2872 1.45991C20.2395 1.52127 20.2027 1.60346 20.1767 1.70646C20.1268 1.90152 20.1019 2.11849 20.1019 2.35737C20.1019 2.559 20.1431 2.68283 20.2255 2.72885C20.2623 2.75077 20.31 2.76392 20.3685 2.7683Z" fill="white"/>
<path d="M21.5007 2.24231C21.4963 2.28615 21.4942 2.31573 21.4942 2.33108C21.4942 2.46257 21.5332 2.56448 21.6112 2.63681C21.6915 2.70913 21.7858 2.74529 21.8942 2.74529C22.0026 2.74529 22.0904 2.72995 22.1576 2.69927C22.2269 2.66858 22.2768 2.63571 22.3071 2.60064C22.3852 2.50202 22.4567 2.45271 22.5218 2.45271C22.5456 2.45271 22.5738 2.45929 22.6063 2.47243C22.5846 2.57982 22.5023 2.67845 22.3592 2.7683C22.2183 2.85597 22.0405 2.8998 21.8259 2.8998C21.6741 2.8998 21.543 2.85159 21.4324 2.75515C21.324 2.65653 21.2698 2.52284 21.2698 2.35409C21.2698 2.18533 21.3023 2.02206 21.3674 1.86426C21.4346 1.70427 21.5299 1.56839 21.6535 1.45662C21.7793 1.34265 21.9061 1.28567 22.034 1.28567C22.1641 1.28567 22.2681 1.31307 22.3462 1.36786C22.4264 1.42046 22.4665 1.49826 22.4665 1.60127C22.4665 1.79194 22.3819 1.94973 22.2128 2.07466C22.0459 2.19739 21.8681 2.25875 21.6795 2.25875C21.6297 2.25875 21.5701 2.25327 21.5007 2.24231ZM21.7478 2.13383C21.8497 2.13383 21.9408 2.10095 22.021 2.03521C22.1012 1.96946 22.1576 1.90042 22.1901 1.8281C22.2248 1.75577 22.2421 1.69003 22.2421 1.63085C22.2421 1.57168 22.2193 1.52018 22.1738 1.47634C22.1283 1.43032 22.0752 1.40731 22.0145 1.40731C21.9061 1.40731 21.8053 1.48292 21.7121 1.63414C21.621 1.78536 21.556 1.94206 21.5169 2.10424C21.6123 2.12397 21.6893 2.13383 21.7478 2.13383Z" fill="white"/>
<path d="M24.0946 0.27643C24.0122 1.03035 23.971 1.56839 23.971 1.89056C23.971 2.21054 24.0003 2.53051 24.0588 2.85049C24.0154 2.89432 23.9775 2.91624 23.945 2.91624C23.9125 2.91624 23.8854 2.91185 23.8637 2.90309C23.8182 2.74091 23.7911 2.56448 23.7824 2.37381C23.7304 2.45709 23.6913 2.51627 23.6653 2.55133C23.6415 2.5864 23.5992 2.6379 23.5385 2.70584C23.4279 2.83734 23.2968 2.90309 23.145 2.90309C23.0301 2.90309 22.9467 2.84939 22.8946 2.742C22.8448 2.63242 22.8198 2.49326 22.8198 2.3245C22.8198 2.15355 22.8383 1.99137 22.8751 1.83796C22.9141 1.68236 22.9803 1.54867 23.0735 1.43689C23.1667 1.32293 23.2816 1.26595 23.4182 1.26595C23.5006 1.26595 23.5764 1.28348 23.6458 1.31855C23.7152 1.35361 23.7629 1.40073 23.7889 1.45991C23.7932 1.40073 23.7976 1.30978 23.8019 1.18705C23.8062 1.06432 23.8106 0.955833 23.8149 0.861593C23.8214 0.765162 23.8312 0.667634 23.8442 0.569012C23.868 0.358616 23.9211 0.253418 24.0035 0.253418C24.0317 0.253418 24.0621 0.261089 24.0946 0.27643ZM23.7141 1.57825C23.6881 1.53004 23.6523 1.49497 23.6068 1.47306C23.5613 1.44895 23.5006 1.43689 23.4247 1.43689C23.351 1.43689 23.2816 1.47963 23.2166 1.5651C23.0887 1.73386 23.0247 1.97822 23.0247 2.2982C23.0247 2.40121 23.041 2.50421 23.0735 2.60722C23.106 2.70803 23.1537 2.75844 23.2166 2.75844C23.3076 2.75844 23.3965 2.69817 23.4832 2.57763C23.5699 2.45709 23.6371 2.31902 23.6848 2.16342C23.7325 2.00562 23.7564 1.86426 23.7564 1.73934C23.7564 1.68016 23.7423 1.62647 23.7141 1.57825Z" fill="white"/>
<path d="M25.2251 1.59469C25.2056 1.54428 25.1687 1.50483 25.1145 1.47634C25.0603 1.44785 24.9931 1.43361 24.9129 1.43361C24.8327 1.43361 24.7568 1.45771 24.6853 1.50593C24.6159 1.55415 24.5812 1.6188 24.5812 1.69989C24.5812 1.78098 24.6138 1.84563 24.6788 1.89385C24.746 1.93987 24.8262 1.97494 24.9194 1.99904C25.0148 2.02315 25.1102 2.04945 25.2056 2.07794C25.301 2.10424 25.3812 2.14917 25.4462 2.21273C25.5134 2.27409 25.5471 2.35518 25.5471 2.456C25.5471 2.60284 25.4863 2.71461 25.3649 2.79132C25.2457 2.86802 25.1015 2.90638 24.9324 2.90638C24.8327 2.90638 24.7016 2.87898 24.539 2.82419C24.3785 2.7694 24.2983 2.70365 24.2983 2.62694C24.2983 2.56996 24.346 2.54147 24.4414 2.54147C24.4696 2.54147 24.5064 2.559 24.552 2.59407C24.6907 2.69708 24.8327 2.74858 24.978 2.74858C25.056 2.74858 25.1232 2.73543 25.1796 2.70913C25.2836 2.65872 25.3357 2.57763 25.3357 2.46586C25.3357 2.39792 25.3021 2.34313 25.2349 2.30149C25.1698 2.25985 25.0896 2.22697 24.9942 2.20287C24.901 2.17876 24.8067 2.15246 24.7113 2.12397C24.6159 2.09548 24.5346 2.04836 24.4674 1.98261C24.4024 1.91467 24.3699 1.82919 24.3699 1.72619C24.3699 1.5925 24.4295 1.48401 24.5487 1.40073C24.668 1.31745 24.8154 1.27581 24.991 1.27581C25.1102 1.27581 25.2175 1.30759 25.3129 1.37114C25.4105 1.43251 25.4592 1.52237 25.4592 1.64071C25.4592 1.71961 25.4148 1.75906 25.3259 1.75906C25.2891 1.75906 25.2641 1.75249 25.2511 1.73934C25.2403 1.72619 25.2338 1.70318 25.2316 1.6703C25.2316 1.63524 25.2294 1.61003 25.2251 1.59469Z" fill="white"/>
<path d="M26.8027 2.93268C26.7637 2.93268 26.7442 2.60064 26.7442 1.93658C26.7442 1.65606 26.7431 1.4862 26.7409 1.42703H26.6759C26.6455 1.42703 26.6217 1.42703 26.6043 1.42703C26.587 1.42484 26.5642 1.42374 26.5361 1.42374C26.51 1.42155 26.4884 1.41826 26.471 1.41388C26.4558 1.4095 26.4396 1.40402 26.4222 1.39744C26.3897 1.38429 26.3735 1.36128 26.3735 1.32841C26.3735 1.28677 26.4407 1.26595 26.5751 1.26595C26.6336 1.26595 26.6867 1.26814 26.7344 1.27252C26.7366 1.22869 26.7377 1.1728 26.7377 1.10486C26.7398 1.03473 26.742 0.981036 26.7442 0.943779C26.7463 0.904329 26.7485 0.85721 26.7507 0.802419C26.755 0.747629 26.7604 0.704892 26.7669 0.674209C26.7756 0.643527 26.7865 0.609556 26.7995 0.572299C26.8125 0.53285 26.8298 0.503263 26.8515 0.483538C26.8732 0.463814 26.8981 0.444089 26.9263 0.424364C26.9761 0.387107 27.0585 0.368478 27.1734 0.368478C27.2905 0.368478 27.3761 0.398065 27.4303 0.457239C27.4867 0.514221 27.5366 0.611748 27.5799 0.74982C27.5474 0.789269 27.5095 0.808994 27.4661 0.808994C27.4509 0.808994 27.4357 0.806802 27.4206 0.802419C27.3815 0.697221 27.3458 0.625994 27.3133 0.588736C27.2829 0.551478 27.2406 0.53285 27.1864 0.53285C27.1322 0.53285 27.091 0.542712 27.0629 0.562436C27.0368 0.582161 27.0163 0.607365 27.0011 0.638047C26.9686 0.703796 26.9523 0.862689 26.9523 1.11473C26.9523 1.12568 26.9523 1.14541 26.9523 1.1739C26.9523 1.20239 26.9523 1.22869 26.9523 1.2528L27.2287 1.2265C27.3371 1.2265 27.3913 1.2517 27.3913 1.30211C27.3913 1.33498 27.3653 1.3569 27.3133 1.36786C27.2612 1.37882 27.1951 1.38539 27.1149 1.38758C27.0368 1.38977 26.9827 1.39635 26.9523 1.40731C26.948 1.46867 26.9458 1.54976 26.9458 1.65058C26.9458 1.7492 26.9512 1.907 26.9621 2.12397C26.9729 2.33875 26.9783 2.50312 26.9783 2.61708C26.9783 2.73105 26.9664 2.81214 26.9425 2.86035C26.9209 2.90857 26.8743 2.93268 26.8027 2.93268Z" fill="white"/>
<path d="M27.6411 1.54538C27.7517 1.37443 27.911 1.28896 28.1192 1.28896C28.3273 1.28896 28.4931 1.37443 28.6167 1.54538C28.7425 1.71633 28.8053 1.91138 28.8053 2.13054C28.8053 2.34751 28.737 2.53161 28.6005 2.68283C28.4639 2.83405 28.2904 2.90966 28.0801 2.90966C27.8699 2.90966 27.717 2.85049 27.6216 2.73214C27.5262 2.6116 27.4785 2.44285 27.4785 2.22588C27.4785 1.94316 27.5327 1.71633 27.6411 1.54538ZM27.7842 1.71961C27.756 1.80509 27.7344 1.89056 27.7192 1.97603C27.7062 2.06151 27.6997 2.1415 27.6997 2.21601C27.6997 2.28834 27.7051 2.35518 27.7159 2.41655C27.7268 2.47572 27.7452 2.5349 27.7712 2.59407C27.7972 2.65105 27.8363 2.69708 27.8883 2.73214C27.9403 2.76502 28.0021 2.78145 28.0736 2.78145C28.2189 2.78145 28.3403 2.72118 28.4379 2.60064C28.5376 2.48011 28.5874 2.33436 28.5874 2.16342C28.5874 1.99247 28.5419 1.827 28.4509 1.66701C28.362 1.50483 28.2525 1.42374 28.1224 1.42374C28.0444 1.42374 27.9761 1.45114 27.9176 1.50593C27.859 1.56072 27.8146 1.63195 27.7842 1.71961Z" fill="white"/>
<path d="M29.4435 2.58749L29.4532 2.77488C29.4532 2.82309 29.4391 2.85706 29.4109 2.87679C29.3849 2.89432 29.3578 2.90309 29.3296 2.90309C29.3036 2.90309 29.2765 2.89871 29.2483 2.88994C29.2006 2.63571 29.1638 2.31902 29.1378 1.93987C29.1139 1.56072 29.0998 1.34594 29.0955 1.29553C29.128 1.26485 29.1616 1.24951 29.1963 1.24951C29.2332 1.24951 29.2657 1.25389 29.2939 1.26266C29.3025 1.32622 29.309 1.46648 29.3134 1.68345C29.3177 1.90042 29.3231 2.0363 29.3296 2.09109C29.36 1.907 29.4142 1.73495 29.4922 1.57497C29.5356 1.48511 29.592 1.41388 29.6613 1.36128C29.7329 1.30649 29.8087 1.2791 29.889 1.2791C29.9713 1.2791 30.0461 1.31635 30.1133 1.39087C30.1827 1.46319 30.2174 1.52894 30.2174 1.58812C30.2174 1.61003 30.2044 1.62756 30.1784 1.64071C30.1524 1.65167 30.1231 1.65715 30.0906 1.65715C30.0602 1.65715 30.0364 1.6451 30.019 1.62099C30.0017 1.59688 29.9898 1.57058 29.9833 1.54209C29.9768 1.51141 29.9627 1.48401 29.941 1.45991C29.9193 1.4358 29.89 1.42374 29.8532 1.42374C29.7556 1.42374 29.6722 1.5125 29.6028 1.69003C29.4966 1.95521 29.4435 2.25437 29.4435 2.58749Z" fill="white"/>
<path d="M31.4174 0.470388C31.4196 0.623802 31.4207 0.738862 31.4207 0.815569C31.4207 0.890084 31.4196 0.964599 31.4174 1.03911C31.4174 1.11363 31.4142 1.25828 31.4077 1.47306C31.4012 1.68564 31.3968 1.8544 31.3947 1.97932C31.477 1.92234 31.5757 1.83467 31.6906 1.71633C31.8055 1.59579 31.9095 1.49278 32.0028 1.40731C32.1502 1.27362 32.2553 1.23307 32.3182 1.28567C32.342 1.3054 32.3496 1.32403 32.341 1.34156C32.3193 1.38758 32.2694 1.44347 32.1914 1.50922C32.1155 1.57497 32.0255 1.64948 31.9215 1.73276C31.8174 1.81604 31.735 1.89275 31.6743 1.96288C31.8326 1.9848 31.9594 2.07466 32.0548 2.23245C32.096 2.30478 32.1361 2.3771 32.1751 2.44942C32.2748 2.64009 32.3832 2.7694 32.5003 2.83734C32.4569 2.88117 32.4071 2.90309 32.3507 2.90309C32.2944 2.90309 32.238 2.87569 32.1816 2.8209C32.1274 2.76611 32.0797 2.69927 32.0385 2.62037C31.9995 2.54147 31.9594 2.46257 31.9182 2.38367C31.825 2.193 31.7166 2.09767 31.593 2.09767C31.5345 2.09767 31.4846 2.11739 31.4434 2.15684C31.4023 2.1941 31.3817 2.23355 31.3817 2.27519C31.3817 2.53818 31.3773 2.73324 31.3686 2.86035C31.3383 2.90199 31.3058 2.92281 31.2711 2.92281C31.2603 2.92281 31.2483 2.92062 31.2353 2.91624C31.1876 2.89651 31.1638 2.85597 31.1638 2.7946C31.1659 2.73324 31.1725 2.54695 31.1833 2.23574C31.2071 1.44018 31.2191 0.931725 31.2191 0.710371C31.2191 0.607365 31.2288 0.538329 31.2483 0.503263C31.27 0.468197 31.2949 0.450664 31.3231 0.450664C31.3535 0.450664 31.3849 0.457239 31.4174 0.470388Z" fill="white"/>
<path d="M32.9188 0.490113C32.9166 0.54052 32.9155 0.596407 32.9155 0.657772C32.9155 0.719138 32.9188 0.782695 32.9253 0.848443C32.8949 0.883509 32.8537 0.901042 32.8017 0.901042C32.7367 0.901042 32.7041 0.848443 32.7041 0.743245C32.7041 0.738862 32.7041 0.722425 32.7041 0.693934C32.7041 0.665443 32.7041 0.640239 32.7041 0.618323C32.7063 0.594215 32.7106 0.56682 32.7171 0.536137C32.7323 0.483538 32.7659 0.457239 32.8179 0.457239C32.87 0.457239 32.9036 0.468197 32.9188 0.490113ZM32.7106 2.10095C32.7106 1.6714 32.7323 1.42374 32.7757 1.358C32.7909 1.33389 32.8093 1.32183 32.831 1.32183C32.8526 1.32183 32.8884 1.33389 32.9383 1.358C32.9274 1.54428 32.922 1.74701 32.922 1.96617C32.922 1.96617 32.9242 2.20834 32.9285 2.69269C32.9285 2.76063 32.9133 2.80885 32.883 2.83734C32.8548 2.86364 32.8277 2.87679 32.8017 2.87679C32.7778 2.87679 32.7529 2.87021 32.7269 2.85706C32.7161 2.57215 32.7106 2.32012 32.7106 2.10095Z" fill="white"/>
<path d="M34.5616 0.27643C34.4792 1.03035 34.438 1.56839 34.438 1.89056C34.438 2.21054 34.4673 2.53051 34.5258 2.85049C34.4825 2.89432 34.4445 2.91624 34.412 2.91624C34.3795 2.91624 34.3524 2.91185 34.3307 2.90309C34.2852 2.74091 34.2581 2.56448 34.2494 2.37381C34.1974 2.45709 34.1584 2.51627 34.1323 2.55133C34.1085 2.5864 34.0662 2.6379 34.0055 2.70584C33.895 2.83734 33.7638 2.90309 33.612 2.90309C33.4971 2.90309 33.4137 2.84939 33.3616 2.742C33.3118 2.63242 33.2869 2.49326 33.2869 2.3245C33.2869 2.15355 33.3053 1.99137 33.3421 1.83796C33.3812 1.68236 33.4473 1.54867 33.5405 1.43689C33.6337 1.32293 33.7486 1.26595 33.8852 1.26595C33.9676 1.26595 34.0435 1.28348 34.1128 1.31855C34.1822 1.35361 34.2299 1.40073 34.2559 1.45991C34.2603 1.40073 34.2646 1.30978 34.2689 1.18705C34.2733 1.06432 34.2776 0.955833 34.2819 0.861593C34.2884 0.765162 34.2982 0.667634 34.3112 0.569012C34.335 0.358616 34.3882 0.253418 34.4705 0.253418C34.4987 0.253418 34.5291 0.261089 34.5616 0.27643ZM34.1811 1.57825C34.1551 1.53004 34.1193 1.49497 34.0738 1.47306C34.0283 1.44895 33.9676 1.43689 33.8917 1.43689C33.818 1.43689 33.7486 1.47963 33.6836 1.5651C33.5557 1.73386 33.4917 1.97822 33.4917 2.2982C33.4917 2.40121 33.508 2.50421 33.5405 2.60722C33.573 2.70803 33.6207 2.75844 33.6836 2.75844C33.7746 2.75844 33.8635 2.69817 33.9502 2.57763C34.037 2.45709 34.1042 2.31902 34.1519 2.16342C34.1996 2.00562 34.2234 1.86426 34.2234 1.73934C34.2234 1.68016 34.2093 1.62647 34.1811 1.57825Z" fill="white"/>
<path d="M35.6921 1.59469C35.6726 1.54428 35.6358 1.50483 35.5816 1.47634C35.5274 1.44785 35.4602 1.43361 35.38 1.43361C35.2997 1.43361 35.2239 1.45771 35.1523 1.50593C35.0829 1.55415 35.0483 1.6188 35.0483 1.69989C35.0483 1.78098 35.0808 1.84563 35.1458 1.89385C35.213 1.93987 35.2932 1.97494 35.3865 1.99904C35.4818 2.02315 35.5772 2.04945 35.6726 2.07794C35.768 2.10424 35.8482 2.14917 35.9133 2.21273C35.9805 2.27409 36.0141 2.35518 36.0141 2.456C36.0141 2.60284 35.9534 2.71461 35.832 2.79132C35.7127 2.86802 35.5686 2.90638 35.3995 2.90638C35.2997 2.90638 35.1686 2.87898 35.006 2.82419C34.8456 2.7694 34.7653 2.70365 34.7653 2.62694C34.7653 2.56996 34.813 2.54147 34.9084 2.54147C34.9366 2.54147 34.9735 2.559 35.019 2.59407C35.1577 2.69708 35.2997 2.74858 35.445 2.74858C35.523 2.74858 35.5902 2.73543 35.6466 2.70913C35.7507 2.65872 35.8027 2.57763 35.8027 2.46586C35.8027 2.39792 35.7691 2.34313 35.7019 2.30149C35.6369 2.25985 35.5566 2.22697 35.4613 2.20287C35.368 2.17876 35.2737 2.15246 35.1783 2.12397C35.083 2.09548 35.0017 2.04836 34.9344 1.98261C34.8694 1.91467 34.8369 1.82919 34.8369 1.72619C34.8369 1.5925 34.8965 1.48401 35.0157 1.40073C35.135 1.31745 35.2824 1.27581 35.458 1.27581C35.5772 1.27581 35.6846 1.30759 35.7799 1.37114C35.8775 1.43251 35.9263 1.52237 35.9263 1.64071C35.9263 1.71961 35.8818 1.75906 35.7929 1.75906C35.7561 1.75906 35.7312 1.75249 35.7182 1.73934C35.7073 1.72619 35.7008 1.70318 35.6986 1.6703C35.6986 1.63524 35.6965 1.61003 35.6921 1.59469Z" fill="white"/>
</svg>
