<svg width="34" height="4" viewBox="0 0 34 4" fill="none" xmlns="http://www.w3.org/2000/svg">
<path d="M0.426879 2.35382C0.425167 2.03486 0.410476 1.7538 0.382808 1.51064C0.382468 1.44726 0.408533 1.39191 0.461004 1.3446C0.513474 1.29729 0.583241 1.26114 0.670305 1.23613C0.844455 1.19022 1.03596 1.1667 1.24483 1.16558C1.51453 1.16413 1.72675 1.2233 1.88152 1.34311C2.03829 1.46086 2.11735 1.64343 2.11868 1.89082C2.12 2.13822 2.02171 2.33708 1.82378 2.4874C1.62586 2.63772 1.38394 2.71365 1.09802 2.71519C0.952014 2.71597 0.798749 2.68612 0.638223 2.62565C0.628611 2.72384 0.624255 2.85677 0.625155 3.02442L0.629004 3.17468C0.629268 3.22375 0.628528 3.27487 0.626786 3.32804C0.616724 3.34241 0.605626 3.35269 0.593492 3.35889C0.581358 3.36509 0.572255 3.36923 0.566182 3.37131C0.562149 3.37542 0.555068 3.37852 0.54494 3.38062C0.534812 3.38272 0.52772 3.38378 0.523664 3.3838C0.511519 3.38796 0.497336 3.39008 0.481113 3.39017L0.429404 3.39044C0.424525 3.23712 0.421756 3.09912 0.421097 2.97645L0.426879 2.35382ZM0.630954 2.40486C0.779522 2.50425 0.957224 2.55339 1.16406 2.55228C1.37089 2.54913 1.54493 2.48379 1.6862 2.35626C1.82745 2.22669 1.89758 2.06887 1.89658 1.88281C1.89558 1.69676 1.82183 1.55812 1.67534 1.46689C1.52884 1.37567 1.35319 1.33061 1.14838 1.33171C0.9456 1.3328 0.766392 1.38079 0.610756 1.47568C0.621608 1.60852 0.628341 1.91825 0.630954 2.40486Z" fill="black"/>
<path d="M2.68113 3.02872L2.69119 3.20348C2.69143 3.24846 2.67842 3.28022 2.65216 3.29877C2.62791 3.31525 2.60261 3.32357 2.57625 3.32371C2.55191 3.32384 2.52654 3.31989 2.50014 3.31185C2.45425 3.07492 2.41819 2.77966 2.39196 2.42608C2.36776 2.07248 2.3535 1.87218 2.34919 1.82518C2.37945 1.79639 2.41081 1.78191 2.44325 1.78174C2.47773 1.78155 2.50817 1.78548 2.53457 1.79351C2.543 1.85276 2.54979 1.98358 2.55493 2.18598C2.56007 2.38837 2.56582 2.51511 2.57218 2.56619C2.59965 2.39429 2.64948 2.23352 2.72168 2.08387C2.76179 1.99983 2.81415 1.93309 2.87878 1.88367C2.94542 1.8322 3.01626 1.80626 3.09129 1.80586C3.16834 1.80545 3.23849 1.83983 3.30172 1.90901C3.36698 1.97613 3.39975 2.03729 3.40005 2.0925C3.40016 2.11294 3.38808 2.12936 3.36381 2.14176C3.33953 2.15212 3.31218 2.15738 3.28177 2.15754C3.25338 2.15769 3.23101 2.14657 3.21467 2.12416C3.19832 2.10176 3.18704 2.07728 3.18081 2.05074C3.17458 2.02214 3.16126 1.99666 3.14086 1.97428C3.12046 1.95189 3.09302 1.9408 3.05855 1.94098C2.9673 1.94147 2.88967 2.0247 2.82567 2.19066C2.72764 2.43859 2.67946 2.71794 2.68113 3.02872Z" fill="black"/>
<path d="M3.68129 2.05112C3.78385 1.89108 3.93246 1.81054 4.12713 1.8095C4.3218 1.80845 4.47736 1.88736 4.5938 2.04622C4.71227 2.20506 4.77205 2.38672 4.77315 2.59117C4.77424 2.79359 4.71128 2.96568 4.58429 3.10744C4.45729 3.2492 4.29545 3.32061 4.09875 3.32167C3.90205 3.32273 3.7588 3.26829 3.66898 3.15836C3.57915 3.04639 3.5337 2.88919 3.53261 2.68678C3.53119 2.42303 3.58075 2.21114 3.68129 2.05112ZM3.81599 2.21294C3.79006 2.29282 3.77021 2.37267 3.75644 2.45249C3.74471 2.53229 3.73902 2.60695 3.7394 2.67647C3.73976 2.74394 3.74516 2.80627 3.75561 2.86347C3.76605 2.91861 3.78358 2.97373 3.80821 3.0288C3.83283 3.08183 3.86956 3.12457 3.9184 3.15702C3.96723 3.18743 4.02511 3.20245 4.09203 3.20209C4.22789 3.20136 4.34114 3.14453 4.43179 3.03159C4.52447 2.91863 4.57038 2.78242 4.56952 2.62294C4.56866 2.46346 4.52525 2.30932 4.43928 2.16052C4.35533 2.00967 4.25252 1.93457 4.13085 1.93522C4.05785 1.93562 3.99411 1.96152 3.93963 2.01293C3.88516 2.06433 3.84394 2.13101 3.81599 2.21294Z" fill="black"/>
<path d="M4.91309 1.84208C4.93113 1.80314 4.97057 1.7835 5.0314 1.78317C5.05777 1.78303 5.0801 1.78905 5.09842 1.80122C5.15605 1.95834 5.21266 2.1165 5.26827 2.27568C5.37326 2.56751 5.47082 2.79803 5.56095 2.96725C5.6022 2.71758 5.68297 2.46565 5.80328 2.21147C5.92561 1.95728 6.03748 1.82991 6.13887 1.82937C6.16929 1.8292 6.19974 1.83619 6.23023 1.85034C5.99869 2.16033 5.8336 2.57015 5.73494 3.07979C5.7153 3.19849 5.69335 3.26608 5.66911 3.28257C5.64285 3.30111 5.61552 3.31046 5.58713 3.31061C5.55874 3.31076 5.5364 3.30475 5.52011 3.29257C5.50585 3.28038 5.49463 3.26817 5.48646 3.25594C5.48031 3.24371 5.47107 3.22331 5.45875 3.19475C5.44846 3.16618 5.44024 3.1468 5.43411 3.13661C5.22517 2.74721 5.0515 2.3157 4.91309 1.84208Z" fill="black"/>
<path d="M6.63421 1.05076C6.63243 1.0978 6.6317 1.14994 6.63201 1.20719C6.63231 1.26444 6.63567 1.32371 6.64209 1.38502C6.61387 1.41788 6.57543 1.43445 6.52676 1.43471C6.46593 1.43504 6.43525 1.38613 6.43472 1.28799C6.4347 1.2839 6.43462 1.26857 6.43448 1.24199C6.43433 1.21541 6.43421 1.19189 6.4341 1.17145C6.436 1.14895 6.43992 1.12337 6.44585 1.09471C6.45978 1.04556 6.49108 1.02086 6.53975 1.0206C6.58842 1.02034 6.6199 1.03039 6.63421 1.05076ZM6.44761 2.55458C6.44546 2.15384 6.46449 1.92269 6.50472 1.86114C6.51879 1.83857 6.53597 1.82723 6.55625 1.82712C6.57653 1.82702 6.61005 1.83808 6.65681 1.86032C6.6476 2.03417 6.64355 2.22332 6.64464 2.42778C6.64464 2.42778 6.64788 2.65369 6.65437 3.10553C6.65471 3.16891 6.64075 3.21397 6.61251 3.2407C6.58628 3.26537 6.561 3.27778 6.53666 3.27791C6.51436 3.27803 6.491 3.27202 6.4666 3.25988C6.45504 2.99414 6.44871 2.75904 6.44761 2.55458Z" fill="black"/>
<path d="M8.1698 0.843161C8.09652 1.54691 8.06068 2.04907 8.0623 2.34962C8.0639 2.64813 8.09288 2.9465 8.14923 3.24471C8.10889 3.28582 8.07352 3.30646 8.0431 3.30662C8.01268 3.30679 7.98731 3.30283 7.96699 3.29476C7.9236 3.14369 7.89736 2.97924 7.8883 2.8014C7.84005 2.87936 7.80384 2.93476 7.77969 2.9676C7.75756 3.00044 7.71827 3.0487 7.66183 3.11238C7.55907 3.23561 7.43672 3.29761 7.29477 3.29837C7.1873 3.29895 7.10896 3.24928 7.05976 3.14935C7.01257 3.04737 6.98855 2.91767 6.9877 2.76023C6.98685 2.60076 7.00327 2.44936 7.03698 2.30606C7.0727 2.1607 7.13388 2.03564 7.22051 1.9309C7.30714 1.82411 7.41432 1.77038 7.54208 1.76969C7.61913 1.76928 7.69019 1.78525 7.75526 1.81762C7.82033 1.84998 7.86517 1.8937 7.8898 1.94878C7.89356 1.89355 7.89716 1.80868 7.9006 1.69416C7.90404 1.57964 7.90756 1.47841 7.91114 1.39047C7.91674 1.30048 7.92538 1.20944 7.93705 1.11737C7.9583 0.920972 8.00746 0.822564 8.08451 0.822151C8.11087 0.822009 8.1393 0.829013 8.1698 0.843161ZM7.82044 2.05956C7.79586 2.01471 7.76223 1.98218 7.71953 1.96196C7.67683 1.9397 7.61999 1.92876 7.54902 1.92914C7.48007 1.92951 7.41539 1.96973 7.35499 2.04979C7.23619 2.20787 7.1776 2.43616 7.1792 2.73467C7.17972 2.83077 7.19544 2.92678 7.22637 3.02271C7.2573 3.1166 7.30216 3.16339 7.36097 3.16307C7.44613 3.16261 7.52897 3.10594 7.60948 2.99305C7.68999 2.88016 7.75216 2.75102 7.79599 2.60561C7.83981 2.45816 7.86141 2.32617 7.86079 2.20962C7.86049 2.15442 7.84704 2.1044 7.82044 2.05956Z" fill="black"/>
<path d="M8.68083 1.03977C8.67905 1.08681 8.67832 1.13895 8.67863 1.1962C8.67893 1.25345 8.68229 1.31272 8.68871 1.37403C8.66049 1.40689 8.62205 1.42346 8.57338 1.42372C8.51255 1.42405 8.48187 1.37514 8.48134 1.277C8.48132 1.27291 8.48124 1.25758 8.4811 1.231C8.48095 1.20442 8.48083 1.1809 8.48072 1.16046C8.48262 1.13796 8.48654 1.11238 8.49247 1.08372C8.5064 1.03457 8.5377 1.00987 8.58637 1.00961C8.63504 1.00935 8.66652 1.0194 8.68083 1.03977ZM8.49423 2.54359C8.49208 2.14285 8.51111 1.9117 8.55134 1.85015C8.56541 1.82758 8.58259 1.81624 8.60287 1.81613C8.62315 1.81603 8.65667 1.82709 8.70343 1.84933C8.69422 2.02318 8.69017 2.21233 8.69126 2.41679C8.69126 2.41679 8.69451 2.6427 8.70099 3.09454C8.70133 3.15792 8.68737 3.20298 8.65913 3.22971C8.6329 3.25438 8.60762 3.26679 8.58328 3.26692C8.56098 3.26704 8.53762 3.26103 8.51322 3.24889C8.50166 2.98315 8.49533 2.74805 8.49423 2.54359Z" fill="black"/>
<path d="M10.3356 3.2023C10.2993 3.24135 10.2578 3.26099 10.2112 3.26124C10.124 3.26171 10.0589 3.21504 10.0158 3.12121C9.97269 3.02739 9.94673 2.91303 9.93789 2.77813C9.93109 2.64322 9.92631 2.5083 9.92355 2.37337C9.9208 2.23843 9.90903 2.124 9.88825 2.03005C9.86949 1.9361 9.83376 1.88927 9.78103 1.88955C9.71006 1.88993 9.64957 1.95466 9.59957 2.08374C9.55159 2.21281 9.51789 2.35612 9.49846 2.51366C9.44404 2.95355 9.39061 3.20022 9.33817 3.25366C9.30177 3.27226 9.27039 3.28163 9.24403 3.28177C9.21767 3.28191 9.19534 3.27897 9.17706 3.27293C9.13347 3.08506 9.10435 2.76114 9.08971 2.30117C9.08443 2.0722 9.07958 1.92399 9.07516 1.85654C9.11759 1.82768 9.15401 1.81317 9.18443 1.81301C9.21485 1.81285 9.2392 1.81578 9.25748 1.82182C9.26809 1.90968 9.27413 2.08958 9.27559 2.36151C9.27907 2.63343 9.28194 2.78983 9.28419 2.83071C9.2941 2.78772 9.30589 2.71814 9.31957 2.62197C9.33528 2.52578 9.34905 2.44699 9.36089 2.38559C9.37271 2.32214 9.39158 2.24843 9.41749 2.16446C9.4434 2.08049 9.47245 2.01389 9.50463 1.96464C9.5368 1.91335 9.58118 1.87018 9.63778 1.83511C9.69436 1.79801 9.75813 1.77926 9.82911 1.77888C9.92441 1.77837 9.9936 1.82196 10.0367 1.90965C10.0817 1.99528 10.1066 2.10249 10.1114 2.23128C10.1161 2.36006 10.1189 2.49091 10.1196 2.62381C10.1223 2.75669 10.1392 2.87826 10.1702 2.9885C10.2032 3.09874 10.2584 3.17 10.3356 3.2023Z" fill="black"/>
<path d="M11.0566 1.75082C11.2411 1.74983 11.3693 1.82479 11.4411 1.97571C11.48 2.05524 11.5119 2.13072 11.5366 2.20215C11.5613 2.27358 11.578 2.37164 11.5868 2.49631C11.6 2.6864 11.6073 2.90309 11.6086 3.1464C11.6099 3.38766 11.5531 3.58016 11.4383 3.7239C11.3255 3.86968 11.1586 3.94316 10.9376 3.94435C10.7186 3.94552 10.5357 3.87494 10.3889 3.7326C10.4292 3.69149 10.4727 3.67081 10.5194 3.67056C10.568 3.6703 10.634 3.69039 10.7174 3.73084C10.8028 3.77332 10.8932 3.7943 10.9885 3.79379C11.0838 3.79328 11.1627 3.77036 11.2254 3.72505C11.288 3.68177 11.3343 3.62018 11.3643 3.54028C11.4142 3.39893 11.4386 3.22501 11.4375 3.0185C11.4374 2.98783 11.4337 2.87437 11.4266 2.67813C11.3727 2.84608 11.2954 2.98553 11.1946 3.09648C11.0938 3.20539 10.9795 3.26019 10.8518 3.26087C10.724 3.26156 10.6294 3.20482 10.568 3.09064C10.5085 2.97442 10.4784 2.8427 10.4776 2.69549C10.4768 2.54828 10.4964 2.40505 10.5362 2.2658C10.576 2.1245 10.6412 2.00352 10.7319 1.90284C10.8226 1.80217 10.9309 1.75149 11.0566 1.75082ZM10.7367 2.21872C10.7108 2.30882 10.692 2.39378 10.6802 2.47358C10.6685 2.55338 10.6629 2.63418 10.6633 2.71596C10.6637 2.7957 10.6804 2.88455 10.7134 2.98252C10.7484 3.08047 10.7983 3.12928 10.8632 3.12893C10.991 3.12824 11.104 3.03154 11.2023 2.83881C11.3007 2.64404 11.3493 2.44852 11.3482 2.25224C11.3479 2.18477 11.316 2.10928 11.2527 2.02579C11.1914 1.94025 11.1142 1.89773 11.0209 1.89823C10.956 1.89857 10.8984 1.92955 10.848 1.99116C10.7997 2.05276 10.7625 2.12861 10.7367 2.21872Z" fill="black"/>
<path d="M13.8853 3.18324C13.849 3.22229 13.8075 3.24193 13.7609 3.24218C13.6737 3.24265 13.6085 3.19597 13.5654 3.10215C13.5223 3.00833 13.4964 2.89397 13.4875 2.75907C13.4807 2.62416 13.476 2.48924 13.4732 2.35431C13.4705 2.21937 13.4587 2.10494 13.4379 2.01099C13.4192 1.91704 13.3834 1.87021 13.3307 1.87049C13.2597 1.87087 13.1992 1.9356 13.1492 2.06468C13.1012 2.19375 13.0675 2.33706 13.0481 2.4946C12.9937 2.93449 12.9403 3.18116 12.8878 3.2346C12.8514 3.2532 12.82 3.26257 12.7937 3.26271C12.7673 3.26285 12.745 3.25991 12.7267 3.25387C12.6831 3.066 12.654 2.74208 12.6394 2.28211C12.6341 2.05314 12.6292 1.90492 12.6248 1.83748C12.6672 1.80862 12.7037 1.79411 12.7341 1.79395C12.7645 1.79379 12.7889 1.79672 12.8071 1.80276C12.8177 1.89062 12.8238 2.07052 12.8252 2.34245C12.8287 2.61437 12.8316 2.77077 12.8338 2.81165C12.8438 2.76866 12.8555 2.69908 12.8692 2.60291C12.8849 2.50672 12.8987 2.42793 12.9105 2.36653C12.9224 2.30308 12.9412 2.22937 12.9671 2.1454C12.9931 2.06143 13.0221 1.99482 13.0543 1.94558C13.0865 1.89429 13.1308 1.85112 13.1874 1.81605C13.244 1.77894 13.3078 1.7602 13.3788 1.75982C13.4741 1.75931 13.5433 1.8029 13.5863 1.89058C13.6314 1.97622 13.6563 2.08343 13.661 2.21222C13.6658 2.341 13.6685 2.47185 13.6692 2.60474C13.672 2.73763 13.6888 2.8592 13.7199 2.96944C13.7529 3.07968 13.808 3.15094 13.8853 3.18324Z" fill="black"/>
<path d="M14.234 2.64465C14.2301 2.68556 14.2282 2.71318 14.2283 2.72749C14.229 2.85016 14.266 2.94504 14.3394 3.01212C14.4147 3.07919 14.5031 3.11245 14.6045 3.11191C14.7059 3.11136 14.788 3.09661 14.8507 3.06765C14.9154 3.03868 14.9619 3.00776 14.9901 2.97489C15.0626 2.88249 15.1293 2.83613 15.1901 2.8358C15.2124 2.83568 15.2388 2.84167 15.2693 2.85378C15.2496 2.95407 15.173 3.04649 15.0396 3.13104C14.9082 3.21353 14.7422 3.25532 14.5414 3.25639C14.3995 3.25716 14.2766 3.21283 14.1727 3.12343C14.0708 3.03196 14.0194 2.90752 14.0186 2.75008C14.0177 2.59265 14.0473 2.44016 14.1074 2.29263C14.1694 2.14303 14.258 2.01579 14.373 1.9109C14.49 1.80395 14.6084 1.75015 14.728 1.74951C14.8497 1.74885 14.9471 1.77389 15.0204 1.82461C15.0957 1.87328 15.1336 1.94566 15.1341 2.04176C15.1351 2.21964 15.0568 2.36727 14.8993 2.48466C14.7437 2.6 14.5778 2.65814 14.4013 2.65909C14.3547 2.65934 14.2989 2.65452 14.234 2.64465ZM14.4646 2.5422C14.5599 2.54169 14.6449 2.51056 14.7196 2.44882C14.7943 2.38708 14.8467 2.32239 14.8767 2.25476C14.9088 2.18711 14.9247 2.12569 14.9244 2.07048C14.9241 2.01528 14.9026 1.96735 14.8598 1.92668C14.8169 1.88398 14.7671 1.86278 14.7104 1.86308C14.609 1.86362 14.5151 1.93467 14.4286 2.07621C14.3442 2.21775 14.2842 2.36426 14.2485 2.51576C14.3378 2.53368 14.4098 2.5425 14.4646 2.5422Z" fill="black"/>
<path d="M16.3362 2.90019C16.3042 2.99441 16.2418 3.07449 16.1489 3.14042C16.058 3.20634 15.9578 3.23959 15.8483 3.24018C15.7408 3.24075 15.6563 3.18702 15.5949 3.07899C15.5355 2.96889 15.5053 2.81673 15.5043 2.62249C15.5013 2.07454 15.58 1.80014 15.7401 1.79928C15.7604 1.79917 15.7858 1.8021 15.8162 1.80807C15.8103 1.84082 15.7965 1.90325 15.7747 1.99538C15.731 2.17554 15.7096 2.33412 15.7103 2.47111C15.711 2.60809 15.7311 2.75316 15.7704 2.90629C15.8098 3.05739 15.8649 3.13274 15.9359 3.13236C15.9724 3.13216 16.0078 3.10846 16.042 3.06125C16.0762 3.01404 16.1033 2.96482 16.1233 2.9136C16.1433 2.86033 16.1643 2.7999 16.1862 2.73231C16.2082 2.66472 16.2221 2.62375 16.2281 2.60941C16.1971 2.49098 16.1812 2.37043 16.1806 2.24776C16.1805 2.24162 16.1804 2.22322 16.1803 2.19255C16.1801 2.15984 16.1809 2.12814 16.1828 2.09746C16.1847 2.06678 16.1906 2.02995 16.2005 1.98696C16.2203 1.90098 16.2748 1.85775 16.364 1.85727C16.4391 1.85686 16.4772 1.97116 16.4784 2.20015C16.4786 2.24105 16.4729 2.30037 16.4611 2.37813C16.4514 2.45588 16.4466 2.51009 16.4468 2.54076C16.4473 2.63481 16.4926 2.75622 16.5826 2.905C16.6726 3.05378 16.7561 3.12796 16.8332 3.12754C16.9123 3.12712 16.9698 3.08183 17.0059 2.99167C17.0419 2.90151 17.0596 2.80123 17.059 2.69082C17.0583 2.56405 17.0466 2.46802 17.024 2.40271C17.0033 2.33535 16.9899 2.29146 16.9837 2.27105C16.9796 2.25062 16.9662 2.219 16.9437 2.17619C16.9232 2.13131 16.9098 2.10276 16.9037 2.09053C16.8996 2.07828 16.8842 2.04872 16.8576 2.00183C16.831 1.95495 16.8156 1.92845 16.8115 1.92234C16.7522 1.81838 16.7174 1.76132 16.7072 1.75115C16.7576 1.70794 16.8042 1.68622 16.8468 1.68599C16.9709 1.77529 17.0701 1.92197 17.1442 2.12604C17.2183 2.32806 17.2558 2.5129 17.2567 2.68056C17.2575 2.84617 17.2228 2.97721 17.1523 3.07369C17.0839 3.16811 16.9756 3.21572 16.8276 3.21651C16.7242 3.21707 16.6257 3.18897 16.5321 3.13223C16.4405 3.07342 16.3752 2.99608 16.3362 2.90019Z" fill="black"/>
<path d="M18.2743 1.04039C18.2984 0.995283 18.3429 0.972553 18.4078 0.972205C18.422 0.972128 18.4362 0.974097 18.4504 0.97811C18.4551 1.08645 18.4587 1.38904 18.4614 1.88588C18.4634 1.88382 18.4725 1.87457 18.4886 1.85813C18.5068 1.84167 18.5179 1.83139 18.5219 1.82728C18.5259 1.82317 18.536 1.81391 18.5522 1.79951C18.5683 1.78307 18.5804 1.77278 18.5885 1.76865C18.5986 1.76246 18.6118 1.75421 18.6279 1.7439C18.6441 1.73155 18.6582 1.72329 18.6704 1.71914C18.6825 1.71294 18.6967 1.70673 18.7129 1.70051C18.7432 1.69012 18.7787 1.68482 18.8192 1.6846C18.9693 1.6838 19.0903 1.74653 19.1822 1.8728C19.2741 1.99703 19.3205 2.13684 19.3214 2.29223C19.3222 2.44762 19.2997 2.59598 19.2538 2.73731C19.2079 2.87659 19.1366 2.99863 19.0398 3.10343C18.943 3.20822 18.8297 3.26097 18.6999 3.26167C18.5722 3.26235 18.4645 3.21488 18.3768 3.11925C18.2911 3.02362 18.2479 2.91446 18.2472 2.79178C18.2466 2.66706 18.2524 2.43803 18.2648 2.10469C18.2772 1.7693 18.283 1.52902 18.2823 1.38385C18.2815 1.23664 18.2788 1.12216 18.2743 1.04039ZM18.7204 3.11127C18.7995 3.11085 18.8703 3.07264 18.9327 2.99666C19.0597 2.84672 19.1224 2.63476 19.121 2.36078C19.1202 2.21357 19.0911 2.08389 19.0337 1.97174C18.9763 1.85755 18.8959 1.80073 18.7925 1.80129C18.7337 1.80161 18.6821 1.83153 18.6378 1.89106C18.5935 1.94855 18.5595 2.02541 18.5357 2.12163C18.49 2.30385 18.4678 2.50639 18.469 2.72925C18.47 2.91736 18.5091 3.03267 18.5864 3.07519C18.621 3.09545 18.6657 3.10748 18.7204 3.11127Z" fill="black"/>
<path d="M19.7768 2.61489C19.7729 2.6558 19.771 2.68341 19.7711 2.69772C19.7718 2.8204 19.8088 2.91528 19.8822 2.98236C19.9575 3.04943 20.0459 3.08269 20.1473 3.08214C20.2487 3.0816 20.3308 3.06685 20.3935 3.03788C20.4582 3.00891 20.5047 2.97799 20.5329 2.94513C20.6054 2.85273 20.6721 2.80637 20.7329 2.80604C20.7552 2.80592 20.7816 2.81191 20.8121 2.82402C20.7924 2.92431 20.7158 3.01673 20.5824 3.10128C20.451 3.18377 20.285 3.22555 20.0842 3.22663C19.9423 3.22739 19.8194 3.18307 19.7155 3.09366C19.6136 3.0022 19.5622 2.87775 19.5614 2.72032C19.5605 2.56289 19.5901 2.4104 19.6502 2.26286C19.7122 2.11327 19.8008 1.98603 19.9158 1.88113C20.0328 1.77418 20.1512 1.72039 20.2708 1.71974C20.3925 1.71909 20.49 1.74413 20.5632 1.79485C20.6385 1.84352 20.6764 1.9159 20.6769 2.01199C20.6779 2.18987 20.5996 2.33751 20.4421 2.4549C20.2865 2.57023 20.1206 2.62838 19.9441 2.62932C19.8975 2.62957 19.8417 2.62476 19.7768 2.61489ZM20.0074 2.51244C20.1027 2.51193 20.1877 2.4808 20.2624 2.41906C20.3371 2.35732 20.3895 2.29263 20.4195 2.225C20.4516 2.15735 20.4675 2.09593 20.4672 2.04072C20.4669 1.98552 20.4454 1.93758 20.4026 1.89692C20.3597 1.85421 20.31 1.83301 20.2532 1.83332C20.1518 1.83386 20.0579 1.90491 19.9714 2.04645C19.887 2.18798 19.827 2.3345 19.7913 2.486C19.8806 2.50392 19.9526 2.51273 20.0074 2.51244Z" fill="black"/>
<path d="M22.1932 0.76786C22.1199 1.47161 22.084 1.97377 22.0857 2.27432C22.0873 2.57283 22.1162 2.8712 22.1726 3.16941C22.1323 3.21052 22.0969 3.23116 22.0665 3.23132C22.036 3.23148 22.0107 3.22753 21.9904 3.21946C21.947 3.06839 21.9207 2.90394 21.9117 2.7261C21.8634 2.80406 21.8272 2.85946 21.803 2.8923C21.7809 2.92513 21.7416 2.97339 21.6852 3.03708C21.5824 3.16031 21.4601 3.22231 21.3181 3.22307C21.2107 3.22365 21.1323 3.17398 21.0831 3.07405C21.0359 2.97207 21.0119 2.84237 21.0111 2.68493C21.0102 2.52545 21.0266 2.37406 21.0603 2.23076C21.0961 2.08539 21.1572 1.96034 21.2439 1.8556C21.3305 1.74881 21.4377 1.69508 21.5654 1.69439C21.6425 1.69398 21.7136 1.70995 21.7786 1.74232C21.8437 1.77468 21.8885 1.8184 21.9132 1.87347C21.9169 1.81825 21.9205 1.73338 21.924 1.61886C21.9274 1.50434 21.9309 1.40311 21.9345 1.31517C21.9401 1.22518 21.9487 1.13414 21.9604 1.04207C21.9817 0.84567 22.0308 0.747263 22.1079 0.746849C22.1342 0.746708 22.1627 0.753711 22.1932 0.76786ZM21.8438 1.98426C21.8192 1.93941 21.7856 1.90687 21.7429 1.88666C21.7002 1.86439 21.6434 1.85345 21.5724 1.85384C21.5034 1.85421 21.4388 1.89442 21.3783 1.97449C21.2596 2.13257 21.201 2.36086 21.2026 2.65937C21.2031 2.75546 21.2188 2.85148 21.2497 2.94741C21.2807 3.0413 21.3255 3.08809 21.3843 3.08777C21.4695 3.08731 21.5523 3.03064 21.6328 2.91775C21.7134 2.80486 21.7755 2.67572 21.8194 2.53031C21.8632 2.38286 21.8848 2.25086 21.8841 2.13432C21.8838 2.07912 21.8704 2.0291 21.8438 1.98426Z" fill="black"/>
<path d="M23.2572 1.992C23.2387 1.94508 23.2041 1.90846 23.1532 1.88215C23.1024 1.85584 23.0394 1.84289 22.9644 1.84329C22.8894 1.8437 22.8185 1.86657 22.7519 1.91191C22.6872 1.95724 22.6551 2.01773 22.6555 2.09338C22.6559 2.16903 22.6866 2.22918 22.7477 2.27383C22.8108 2.31643 22.886 2.34874 22.9733 2.37077C23.0627 2.39278 23.152 2.41683 23.2414 2.44293C23.3308 2.46699 23.406 2.5085 23.4672 2.56747C23.5303 2.62438 23.5622 2.69986 23.5627 2.79391C23.5634 2.9309 23.5072 3.03548 23.394 3.10765C23.2829 3.17981 23.1482 3.21631 22.99 3.21716C22.8968 3.21766 22.7739 3.19276 22.6216 3.14247C22.4713 3.09216 22.3959 3.03122 22.3955 2.95966C22.3952 2.9065 22.4397 2.87968 22.5289 2.8792C22.5553 2.87906 22.5898 2.89523 22.6326 2.92772C22.7629 3.02312 22.896 3.07045 23.0318 3.06972C23.1048 3.06933 23.1676 3.05672 23.2202 3.03191C23.3173 2.98436 23.3656 2.90845 23.365 2.80417C23.3647 2.74079 23.333 2.68984 23.2699 2.65133C23.2089 2.61281 23.1337 2.58255 23.0443 2.56054C22.957 2.53851 22.8687 2.51445 22.7793 2.48835C22.6899 2.46225 22.6136 2.4187 22.5505 2.3577C22.4893 2.29465 22.4584 2.21507 22.4579 2.11897C22.4572 1.99425 22.5125 1.89275 22.6236 1.81445C22.7347 1.73616 22.8724 1.69657 23.0366 1.69569C23.1482 1.69509 23.2487 1.7242 23.3382 1.78301C23.4298 1.83977 23.4759 1.92336 23.4765 2.03376C23.4769 2.10737 23.4355 2.14439 23.3523 2.14484C23.3179 2.14503 23.2945 2.13902 23.2823 2.12682C23.2721 2.1146 23.2659 2.09317 23.2637 2.06251C23.2635 2.0298 23.2614 2.00629 23.2572 1.992Z" fill="black"/>
<path d="M24.7396 3.2323C24.7031 3.2325 24.6832 2.92284 24.6798 2.30333C24.6784 2.04162 24.6766 1.88317 24.6742 1.82798L24.6134 1.82831C24.585 1.82846 24.5627 1.82858 24.5465 1.82866C24.5303 1.82671 24.509 1.8258 24.4826 1.82594C24.4582 1.82403 24.438 1.82107 24.4217 1.81707C24.4075 1.81305 24.3923 1.80802 24.376 1.80198C24.3455 1.78987 24.3302 1.76849 24.33 1.73782C24.3298 1.69897 24.3926 1.67921 24.5183 1.67853C24.5731 1.67824 24.6227 1.68002 24.6674 1.68387C24.6692 1.64296 24.6699 1.59082 24.6696 1.52744C24.6713 1.462 24.673 1.4119 24.6749 1.37713C24.6767 1.34032 24.6785 1.29635 24.6802 1.24522C24.684 1.19408 24.6889 1.15419 24.6948 1.12553C24.7028 1.09686 24.7127 1.06512 24.7247 1.03029C24.7367 0.993426 24.7527 0.965737 24.7729 0.947227C24.7931 0.928717 24.8163 0.91019 24.8426 0.891647C24.889 0.856639 24.966 0.838846 25.0735 0.838269C25.183 0.837681 25.2632 0.864853 25.3142 0.919784C25.3672 0.972661 25.4144 1.06339 25.4556 1.19199C25.4254 1.22895 25.39 1.24754 25.3494 1.24776C25.3352 1.24784 25.321 1.24587 25.3068 1.24186C25.2698 1.14391 25.236 1.07764 25.2054 1.04305C25.1768 1.00844 25.1372 0.991275 25.0865 0.991548C25.0358 0.99182 24.9973 1.00123 24.971 1.01977C24.9468 1.0383 24.9277 1.06192 24.9136 1.09062C24.8835 1.15212 24.8691 1.30043 24.8704 1.53556C24.8704 1.54579 24.8705 1.56419 24.8707 1.59077C24.8708 1.61735 24.871 1.64188 24.8711 1.66437L25.1295 1.63845C25.2309 1.6379 25.2817 1.66114 25.282 1.70817C25.2821 1.73884 25.2579 1.75942 25.2093 1.7699C25.1607 1.78038 25.0989 1.78685 25.0238 1.7893C24.9508 1.79173 24.9002 1.79814 24.8718 1.80852C24.8681 1.86579 24.8665 1.94145 24.867 2.0355C24.8675 2.1275 24.8733 2.27469 24.8846 2.47705C24.8958 2.67736 24.9017 2.83068 24.9022 2.937C24.9028 3.04332 24.8921 3.11903 24.87 3.16413C24.85 3.20922 24.8065 3.23194 24.7396 3.2323Z" fill="black"/>
<path d="M25.5169 1.93386C25.6194 1.77383 25.768 1.69329 25.9627 1.69225C26.1574 1.6912 26.3129 1.77011 26.4294 1.92896C26.5478 2.08781 26.6076 2.26946 26.6087 2.47392C26.6098 2.67634 26.5469 2.84843 26.4199 2.99019C26.2929 3.13195 26.131 3.20336 25.9343 3.20442C25.7376 3.20547 25.5944 3.15104 25.5046 3.04111C25.4147 2.92914 25.3693 2.77194 25.3682 2.56953C25.3668 2.30577 25.4163 2.09389 25.5169 1.93386ZM25.6516 2.09569C25.6256 2.17557 25.6058 2.25542 25.592 2.33524C25.5803 2.41504 25.5746 2.4897 25.575 2.55922C25.5753 2.62669 25.5807 2.68902 25.5912 2.74621C25.6016 2.80136 25.6192 2.85648 25.6438 2.91155C25.6684 2.96458 25.7051 3.00732 25.754 3.03977C25.8028 3.07018 25.8607 3.0852 25.9276 3.08484C26.0635 3.08411 26.1767 3.02728 26.2674 2.91433C26.36 2.80138 26.4059 2.66516 26.4051 2.50569C26.4042 2.34621 26.3608 2.19207 26.2749 2.04327C26.1909 1.89242 26.0881 1.81732 25.9664 1.81797C25.8934 1.81836 25.8297 1.84427 25.7752 1.89567C25.7207 1.94708 25.6795 2.01376 25.6516 2.09569Z" fill="black"/>
<path d="M27.2079 2.89702L27.218 3.07178C27.2182 3.11676 27.2052 3.14852 27.1789 3.16707C27.1547 3.18355 27.1294 3.19187 27.103 3.19201C27.0787 3.19214 27.0533 3.18819 27.0269 3.18015C26.981 2.94322 26.945 2.64796 26.9187 2.29437C26.8945 1.94078 26.8803 1.74048 26.876 1.69348C26.9062 1.66469 26.9376 1.65021 26.97 1.65003C27.0045 1.64985 27.0349 1.65377 27.0613 1.66181C27.0698 1.72106 27.0766 1.85188 27.0817 2.05428C27.0868 2.25667 27.0926 2.38341 27.099 2.43449C27.1264 2.26259 27.1763 2.10182 27.2485 1.95217C27.2886 1.86812 27.3409 1.80139 27.4056 1.75197C27.4722 1.7005 27.543 1.67456 27.6181 1.67416C27.6951 1.67374 27.7653 1.70813 27.8285 1.7773C27.8937 1.84443 27.9265 1.90559 27.9268 1.96079C27.9269 1.98124 27.9149 1.99766 27.8906 2.01006C27.8663 2.02041 27.839 2.02567 27.8085 2.02584C27.7802 2.02599 27.7578 2.01486 27.7414 1.99246C27.7251 1.97006 27.7138 1.94558 27.7076 1.91903C27.7013 1.89044 27.688 1.86496 27.6676 1.84257C27.6472 1.82019 27.6198 1.80909 27.5853 1.80928C27.4941 1.80977 27.4164 1.89299 27.3524 2.05896C27.2544 2.30688 27.2062 2.58624 27.2079 2.89702Z" fill="black"/>
<path d="M29.0437 0.912026C29.0465 1.05514 29.0481 1.16247 29.0485 1.23403C29.0488 1.30355 29.0482 1.37307 29.0465 1.4426C29.0469 1.51211 29.0446 1.64707 29.0396 1.84748C29.0346 2.04583 29.0314 2.20329 29.03 2.31984C29.1067 2.26627 29.1985 2.18399 29.3054 2.073C29.4123 1.95997 29.5091 1.86336 29.5959 1.78315C29.7331 1.65769 29.8313 1.61934 29.8903 1.66809C29.9127 1.68637 29.9199 1.70371 29.9119 1.72011C29.8918 1.76316 29.8455 1.81555 29.7728 1.87727C29.7022 1.93899 29.6184 2.00896 29.5215 2.08718C29.4246 2.1654 29.3479 2.23737 29.2915 2.3031C29.4396 2.32275 29.5587 2.40594 29.6487 2.55268C29.6876 2.61994 29.7255 2.68721 29.7623 2.75449C29.8566 2.93186 29.9586 3.05195 30.0684 3.11475C30.0281 3.15586 29.9816 3.17655 29.9288 3.17683C29.8761 3.17712 29.8233 3.15184 29.7703 3.10101C29.7193 3.05017 29.6743 2.98805 29.6354 2.91465C29.5985 2.84124 29.5606 2.76784 29.5217 2.69444C29.4335 2.51703 29.3317 2.42863 29.2161 2.42925C29.1613 2.42955 29.1148 2.4482 29.0765 2.48521C29.0381 2.52017 29.0191 2.55708 29.0193 2.59593C29.0206 2.84128 29.0175 3.02327 29.01 3.1419C28.9819 3.1809 28.9515 3.20048 28.9191 3.20066C28.909 3.20071 28.8978 3.19873 28.8856 3.1947C28.8409 3.17654 28.8184 3.13884 28.8181 3.08159C28.8198 3.02433 28.8249 2.85051 28.8335 2.56012C28.8518 1.81781 28.8605 1.34341 28.8593 1.13691C28.8588 1.04081 28.8676 0.976356 28.8857 0.943544C28.9058 0.910722 28.929 0.89424 28.9554 0.894098C28.9838 0.893946 29.0132 0.899922 29.0437 0.912026Z" fill="black"/>
<path d="M30.4481 0.922887C30.4463 0.969923 30.4456 1.02207 30.4459 1.07931C30.4462 1.13656 30.4495 1.19584 30.456 1.25714C30.4277 1.29001 30.3893 1.30657 30.3406 1.30684C30.2798 1.30716 30.2491 1.25826 30.2486 1.16011C30.2486 1.15603 30.2485 1.14069 30.2483 1.11411C30.2482 1.08753 30.2481 1.06402 30.248 1.04357C30.2499 1.02107 30.2538 0.995493 30.2597 0.966836C30.2737 0.917689 30.305 0.892985 30.3536 0.892724C30.4023 0.892463 30.4338 0.902517 30.4481 0.922887ZM30.2615 2.42671C30.2593 2.02597 30.2784 1.79482 30.3186 1.73326C30.3327 1.7107 30.3498 1.69936 30.3701 1.69925C30.3904 1.69914 30.4239 1.71021 30.4707 1.73245C30.4615 1.90629 30.4574 2.09544 30.4585 2.2999C30.4585 2.2999 30.4618 2.52582 30.4682 2.97765C30.4686 3.04103 30.4546 3.08609 30.4264 3.11282C30.4002 3.1375 30.3749 3.1499 30.3505 3.15003C30.3282 3.15015 30.3049 3.14415 30.2805 3.13201C30.2689 2.86627 30.2626 2.63117 30.2615 2.42671Z" fill="black"/>
<path d="M31.9837 0.715288C31.9104 1.41904 31.8746 1.92119 31.8762 2.22175C31.8778 2.52026 31.9067 2.81862 31.9631 3.11684C31.9228 3.15795 31.8874 3.17859 31.857 3.17875C31.8266 3.17891 31.8012 3.17496 31.7809 3.16689C31.7375 3.01582 31.7112 2.85137 31.7022 2.67353C31.6539 2.75149 31.6177 2.80688 31.5936 2.83973C31.5714 2.87256 31.5321 2.92082 31.4757 2.98451C31.3729 3.10774 31.2506 3.16974 31.1086 3.1705C31.0012 3.17108 30.9228 3.1214 30.8736 3.02148C30.8264 2.9195 30.8024 2.78979 30.8016 2.63236C30.8007 2.47288 30.8171 2.32149 30.8508 2.17818C30.8866 2.03282 30.9477 1.90777 31.0344 1.80303C31.121 1.69624 31.2282 1.6425 31.3559 1.64182C31.433 1.6414 31.5041 1.65738 31.5691 1.68974C31.6342 1.72211 31.679 1.76583 31.7037 1.8209C31.7074 1.76568 31.711 1.6808 31.7145 1.56629C31.7179 1.45177 31.7214 1.35054 31.725 1.2626C31.7306 1.1726 31.7392 1.08157 31.7509 0.989498C31.7722 0.793098 31.8213 0.694691 31.8984 0.694277C31.9247 0.694135 31.9532 0.701139 31.9837 0.715288ZM31.6343 1.93169C31.6097 1.88684 31.5761 1.8543 31.5334 1.83408C31.4907 1.81182 31.4339 1.80088 31.3629 1.80126C31.2939 1.80163 31.2293 1.84185 31.1689 1.92192C31.0501 2.07999 30.9915 2.30829 30.9931 2.6068C30.9936 2.70289 31.0093 2.79891 31.0402 2.89484C31.0712 2.98873 31.116 3.03551 31.1748 3.0352C31.26 3.03474 31.3428 2.97807 31.4234 2.86518C31.5039 2.75229 31.566 2.62314 31.6099 2.47774C31.6537 2.33029 31.6753 2.19829 31.6747 2.08175C31.6744 2.02655 31.6609 1.97653 31.6343 1.93169Z" fill="black"/>
<path d="M33.0477 1.93943C33.0292 1.8925 32.9946 1.85589 32.9437 1.82958C32.8929 1.80327 32.83 1.79032 32.7549 1.79072C32.6799 1.79112 32.609 1.814 32.5424 1.85934C32.4777 1.90467 32.4456 1.96516 32.446 2.04081C32.4464 2.11645 32.4772 2.17661 32.5382 2.22126C32.6013 2.26386 32.6765 2.29617 32.7638 2.31819C32.8532 2.3402 32.9425 2.36426 33.0319 2.39036C33.1213 2.41442 33.1965 2.45593 33.2577 2.51489C33.3208 2.57181 33.3527 2.64729 33.3532 2.74134C33.3539 2.87833 33.2977 2.9829 33.1845 3.05508C33.0734 3.12723 32.9387 3.16374 32.7806 3.16459C32.6873 3.16509 32.5645 3.14019 32.4121 3.08989C32.2618 3.03958 32.1864 2.97865 32.186 2.90709C32.1857 2.85393 32.2302 2.82711 32.3194 2.82663C32.3458 2.82649 32.3804 2.84266 32.4231 2.87515C32.5534 2.97054 32.6865 3.01788 32.8224 3.01715C32.8954 3.01676 32.9582 3.00415 33.0107 2.97933C33.1078 2.93179 33.1561 2.85587 33.1555 2.7516C33.1552 2.68822 33.1235 2.63727 33.0604 2.59876C32.9994 2.56024 32.9242 2.52998 32.8348 2.50796C32.7475 2.48594 32.6592 2.46188 32.5698 2.43578C32.4804 2.40968 32.4042 2.36613 32.341 2.30513C32.2798 2.24207 32.2489 2.1625 32.2484 2.0664C32.2478 1.94168 32.303 1.84018 32.4141 1.76188C32.5252 1.68359 32.6629 1.644 32.8271 1.64312C32.9387 1.64252 33.0392 1.67163 33.1287 1.73044C33.2203 1.7872 33.2664 1.87078 33.267 1.98119C33.2674 2.0548 33.226 2.09182 33.1429 2.09227C33.1084 2.09245 33.085 2.08645 33.0728 2.07424C33.0626 2.06203 33.0564 2.04059 33.0542 2.00994C33.054 1.97722 33.0519 1.95372 33.0477 1.93943Z" fill="black"/>
</svg>
