<svg width="85" height="9" viewBox="0 0 85 9" fill="none" xmlns="http://www.w3.org/2000/svg">
<path d="M0.826922 3.81688C0.826922 3.0065 0.793433 2.29222 0.726456 1.67404C0.726456 1.51301 0.793433 1.37275 0.927388 1.25327C1.06134 1.13379 1.23909 1.04288 1.46063 0.980545C1.90371 0.866261 2.39059 0.809119 2.92125 0.809119C3.60648 0.809119 4.14488 0.962364 4.53644 1.26885C4.93315 1.57015 5.1315 2.03508 5.1315 2.66364C5.1315 3.29221 4.87905 3.7961 4.37415 4.17531C3.86924 4.55453 3.25356 4.74414 2.52712 4.74414C2.15616 4.74414 1.76718 4.66622 1.36016 4.51037C1.3344 4.75972 1.32152 5.09738 1.32152 5.52335L1.32925 5.90516C1.32925 6.02984 1.32668 6.15971 1.32152 6.29477C1.29576 6.33113 1.26743 6.35711 1.23651 6.37269C1.2056 6.38828 1.18242 6.39866 1.16696 6.40386C1.15666 6.41425 1.13862 6.42204 1.11286 6.42724C1.0871 6.43243 1.06907 6.43503 1.05877 6.43503C1.02785 6.44542 0.991789 6.45061 0.950572 6.45061H0.819194C0.808889 6.06101 0.803737 5.71036 0.803737 5.39868L0.826922 3.81688ZM1.34471 3.94934C1.72081 4.20389 2.17162 4.33116 2.69714 4.33116C3.22265 4.32596 3.66573 4.16233 4.02638 3.84025C4.38703 3.51298 4.56735 3.11299 4.56735 2.64027C4.56735 2.16755 4.38187 1.8143 4.01092 1.58054C3.63997 1.34678 3.19431 1.22989 2.67395 1.22989C2.15874 1.22989 1.70278 1.34937 1.30607 1.58833C1.33183 1.92599 1.34471 2.71299 1.34471 3.94934Z" fill="white"/>
<path d="M6.54497 5.56231L6.56816 6.00646C6.56816 6.12075 6.53467 6.20127 6.46769 6.24802C6.40587 6.28958 6.34146 6.31035 6.27449 6.31035C6.21266 6.31035 6.14826 6.29996 6.08128 6.27919C5.96794 5.6766 5.88035 4.92595 5.81853 4.02726C5.76185 3.12857 5.72836 2.61949 5.71806 2.50001C5.79534 2.42728 5.8752 2.39092 5.95763 2.39092C6.04522 2.39092 6.1225 2.40131 6.18948 2.42209C6.21009 2.57273 6.22554 2.9052 6.23585 3.41948C6.24615 3.93376 6.25903 4.25583 6.27449 4.3857C6.34662 3.94934 6.47542 3.54156 6.66089 3.16234C6.76394 2.94935 6.89789 2.78052 7.06276 2.65585C7.23278 2.52598 7.4131 2.46105 7.60373 2.46105C7.79951 2.46105 7.97726 2.54936 8.13697 2.72598C8.30184 2.89741 8.38427 3.05325 8.38427 3.19351C8.38427 3.24545 8.35336 3.28701 8.29154 3.31818C8.22971 3.34415 8.16016 3.35714 8.08288 3.35714C8.01075 3.35714 7.95407 3.32857 7.91286 3.27143C7.87164 3.21429 7.8433 3.15195 7.82785 3.08442C7.81239 3.01169 7.7789 2.94676 7.72738 2.88961C7.67586 2.83247 7.60631 2.8039 7.51872 2.8039C7.28687 2.8039 7.08852 3.01429 6.92365 3.43506C6.6712 4.06363 6.54497 4.77271 6.54497 5.56231Z" fill="white"/>
<path d="M9.09937 3.09221C9.36213 2.68702 9.74081 2.48442 10.2354 2.48442C10.73 2.48442 11.1241 2.68702 11.4178 3.09221C11.7166 3.4974 11.866 3.95973 11.866 4.47921C11.866 4.99349 11.7038 5.42985 11.3792 5.78828C11.0546 6.14672 10.6424 6.32594 10.1427 6.32594C9.64292 6.32594 9.27969 6.18568 9.053 5.90516C8.82631 5.61945 8.71296 5.21946 8.71296 4.70518C8.71296 4.03506 8.84176 3.4974 9.09937 3.09221ZM9.43941 3.50519C9.37243 3.70779 9.32091 3.91038 9.28484 4.11298C9.25393 4.31557 9.23848 4.50518 9.23848 4.6818C9.23848 4.85323 9.25136 5.01167 9.27712 5.15712C9.30288 5.29738 9.34667 5.43764 9.4085 5.5779C9.47032 5.71296 9.56306 5.82205 9.68671 5.90516C9.81036 5.98309 9.95719 6.02205 10.1272 6.02205C10.4724 6.02205 10.7609 5.87919 10.9928 5.59348C11.2298 5.30777 11.3483 4.96232 11.3483 4.55713C11.3483 4.15194 11.2401 3.75973 11.0237 3.38052C10.8124 2.99611 10.5523 2.8039 10.2431 2.8039C10.0577 2.8039 9.89537 2.86884 9.75626 2.9987C9.61716 3.12857 9.51154 3.2974 9.43941 3.50519Z" fill="white"/>
<path d="M12.2318 2.57793C12.2782 2.47923 12.3786 2.42988 12.5332 2.42988C12.6002 2.42988 12.6569 2.44546 12.7032 2.47663C12.8475 2.87663 12.9892 3.27922 13.1283 3.68441C13.391 4.42726 13.6358 5.01427 13.8624 5.44543C13.9706 4.81167 14.1793 4.17272 14.4884 3.52857C14.8027 2.88442 15.0887 2.56235 15.3463 2.56235C15.4235 2.56235 15.5008 2.58053 15.5781 2.61689C14.9856 3.4013 14.5606 4.44025 14.303 5.73374C14.2514 6.03503 14.1948 6.20646 14.1329 6.24802C14.066 6.29477 13.9964 6.31815 13.9243 6.31815C13.8521 6.31815 13.7955 6.30256 13.7543 6.27139C13.7182 6.24023 13.6899 6.20906 13.6692 6.17789C13.6538 6.14672 13.6306 6.09477 13.5997 6.02205C13.5739 5.94932 13.5533 5.89997 13.5379 5.874C13.0124 4.8818 12.577 3.78311 12.2318 2.57793Z" fill="white"/>
<path d="M16.6154 0.590939C16.6102 0.710419 16.6076 0.842885 16.6076 0.988337C16.6076 1.13379 16.6154 1.28444 16.6308 1.44028C16.5587 1.5234 16.4608 1.56495 16.3371 1.56495C16.1826 1.56495 16.1053 1.44028 16.1053 1.19093C16.1053 1.18054 16.1053 1.14158 16.1053 1.07405C16.1053 1.00652 16.1053 0.94678 16.1053 0.894832C16.1105 0.83769 16.1208 0.772756 16.1362 0.700029C16.1723 0.575355 16.2521 0.513018 16.3758 0.513018C16.4994 0.513018 16.5793 0.538992 16.6154 0.590939ZM16.1208 4.40908C16.1208 3.39091 16.1723 2.8039 16.2753 2.64806C16.3114 2.59092 16.3552 2.56235 16.4067 2.56235C16.4582 2.56235 16.5432 2.59092 16.6617 2.64806C16.636 3.08961 16.6231 3.57013 16.6231 4.0896C16.6231 4.0896 16.6282 4.66362 16.6385 5.81166C16.6385 5.9727 16.6025 6.08698 16.5304 6.15451C16.4634 6.21685 16.399 6.24802 16.3371 6.24802C16.2805 6.24802 16.2212 6.23243 16.1594 6.20126C16.1336 5.52595 16.1208 4.92855 16.1208 4.40908Z" fill="white"/>
<path d="M20.5196 0.0844517C20.3238 1.87144 20.2259 3.14675 20.2259 3.91038C20.2259 4.66881 20.2955 5.42725 20.4346 6.18568C20.3315 6.28958 20.2414 6.34152 20.1641 6.34152C20.0868 6.34152 20.0224 6.33113 19.9709 6.31035C19.8627 5.92594 19.7983 5.50777 19.7777 5.05582C19.654 5.25322 19.5613 5.39348 19.4995 5.4766C19.4428 5.55971 19.3423 5.68179 19.1981 5.84283C18.9353 6.15451 18.6236 6.31035 18.263 6.31035C17.9899 6.31035 17.7916 6.18308 17.6679 5.92854C17.5494 5.6688 17.4902 5.33894 17.4902 4.93894C17.4902 4.53375 17.5339 4.14934 17.6215 3.78571C17.7143 3.41688 17.8714 3.1 18.093 2.83507C18.3145 2.56494 18.5876 2.42988 18.9121 2.42988C19.1079 2.42988 19.2882 2.47144 19.4531 2.55455C19.618 2.63767 19.7313 2.74936 19.7931 2.88961C19.8034 2.74936 19.8138 2.53377 19.8241 2.24287C19.8344 1.95196 19.8447 1.69482 19.855 1.47145C19.8704 1.24288 19.8936 1.01171 19.9245 0.777951C19.9812 0.279255 20.1074 0.0299072 20.3032 0.0299072C20.3702 0.0299072 20.4423 0.0480887 20.5196 0.0844517ZM19.6154 3.17013C19.5536 3.05585 19.4686 2.97273 19.3604 2.92078C19.2522 2.86364 19.1079 2.83507 18.9276 2.83507C18.7524 2.83507 18.5876 2.93637 18.433 3.13896C18.129 3.53896 17.977 4.11817 17.977 4.8766C17.977 5.12076 18.0157 5.36491 18.093 5.60906C18.1702 5.84802 18.2836 5.9675 18.433 5.9675C18.6494 5.9675 18.8606 5.82465 19.0667 5.53893C19.2728 5.25322 19.4325 4.92596 19.5458 4.55713C19.6592 4.18311 19.7159 3.84805 19.7159 3.55194C19.7159 3.41169 19.6824 3.28442 19.6154 3.17013Z" fill="white"/>
<path d="M21.8153 0.590939C21.8101 0.710419 21.8075 0.842885 21.8075 0.988337C21.8075 1.13379 21.8153 1.28444 21.8307 1.44028C21.7586 1.5234 21.6607 1.56495 21.5371 1.56495C21.3825 1.56495 21.3052 1.44028 21.3052 1.19093C21.3052 1.18054 21.3052 1.14158 21.3052 1.07405C21.3052 1.00652 21.3052 0.94678 21.3052 0.894832C21.3104 0.83769 21.3207 0.772756 21.3361 0.700029C21.3722 0.575355 21.452 0.513018 21.5757 0.513018C21.6993 0.513018 21.7792 0.538992 21.8153 0.590939ZM21.3207 4.40908C21.3207 3.39091 21.3722 2.8039 21.4752 2.64806C21.5113 2.59092 21.5551 2.56235 21.6066 2.56235C21.6581 2.56235 21.7431 2.59092 21.8616 2.64806C21.8359 3.08961 21.823 3.57013 21.823 4.0896C21.823 4.0896 21.8281 4.66362 21.8384 5.81166C21.8384 5.9727 21.8024 6.08698 21.7303 6.15451C21.6633 6.21685 21.5989 6.24802 21.5371 6.24802C21.4804 6.24802 21.4211 6.23243 21.3593 6.20126C21.3335 5.52595 21.3207 4.92855 21.3207 4.40908Z" fill="white"/>
<path d="M25.99 6.10776C25.8972 6.20646 25.7916 6.25581 25.6731 6.25581C25.4516 6.25581 25.2867 6.13633 25.1785 5.89737C25.0703 5.65841 25.0059 5.36751 24.9853 5.02465C24.9699 4.6818 24.9596 4.33895 24.9544 3.9961C24.9493 3.65324 24.9209 3.36234 24.8694 3.12338C24.823 2.88442 24.7329 2.76494 24.5989 2.76494C24.4186 2.76494 24.264 2.92858 24.1352 3.25584C24.0116 3.58311 23.924 3.94675 23.8725 4.34674C23.7282 5.46361 23.5891 6.08958 23.4551 6.22464C23.3624 6.27139 23.2825 6.29477 23.2156 6.29477C23.1486 6.29477 23.0919 6.28698 23.0456 6.27139C22.9374 5.79348 22.8678 4.97011 22.8369 3.80129C22.8266 3.21948 22.8163 2.84286 22.806 2.67144C22.9142 2.59871 23.0069 2.56235 23.0842 2.56235C23.1615 2.56235 23.2233 2.57014 23.2697 2.58572C23.2954 2.8091 23.3083 3.26623 23.3083 3.95713C23.3135 4.64804 23.3186 5.04543 23.3238 5.14933C23.3495 5.04024 23.3804 4.86362 23.4165 4.61946C23.4577 4.37531 23.4938 4.17531 23.5247 4.01947C23.5556 3.85843 23.6046 3.67142 23.6715 3.45844C23.7385 3.24545 23.8132 3.07663 23.8956 2.95195C23.9781 2.82208 24.0914 2.71299 24.2357 2.62468C24.3799 2.53118 24.5422 2.48442 24.7226 2.48442C24.9647 2.48442 25.1399 2.59611 25.2481 2.81949C25.3614 3.03766 25.4232 3.31039 25.4336 3.63766C25.4439 3.96493 25.449 4.29739 25.449 4.63505C25.4542 4.97271 25.4954 5.2818 25.5727 5.56231C25.6551 5.84283 25.7942 6.02464 25.99 6.10776Z" fill="white"/>
<path d="M27.8415 2.42988C28.3104 2.42988 28.635 2.62209 28.8153 3.0065C28.9132 3.20909 28.993 3.4013 29.0549 3.58311C29.1167 3.76493 29.1579 4.01428 29.1785 4.33116C29.2094 4.81427 29.2249 5.36491 29.2249 5.98309C29.2249 6.59607 29.078 7.08437 28.7844 7.448C28.4959 7.81683 28.0708 8.00124 27.5092 8.00124C26.9528 8.00124 26.4891 7.81943 26.1182 7.4558C26.2212 7.3519 26.332 7.29995 26.4505 7.29995C26.5741 7.29995 26.7416 7.3519 26.9528 7.4558C27.1692 7.56489 27.3985 7.61943 27.6406 7.61943C27.8828 7.61943 28.0837 7.56229 28.2434 7.448C28.4031 7.33891 28.5216 7.18307 28.5989 6.98048C28.7277 6.62204 28.7921 6.18049 28.7921 5.65582C28.7921 5.5779 28.7844 5.28959 28.7689 4.79089C28.6298 5.21686 28.4315 5.5701 28.1738 5.85062C27.9162 6.12594 27.6251 6.2636 27.3006 6.2636C26.976 6.2636 26.7364 6.11815 26.5818 5.82724C26.4324 5.53114 26.3577 5.19608 26.3577 4.82206C26.3577 4.44804 26.4093 4.08441 26.5123 3.73116C26.6153 3.37273 26.7828 3.06624 27.0146 2.81169C27.2465 2.55715 27.5221 2.42988 27.8415 2.42988ZM27.0224 3.61428C26.9554 3.84285 26.9064 4.05843 26.8755 4.26103C26.8446 4.46362 26.8291 4.66881 26.8291 4.8766C26.8291 5.0792 26.8704 5.30517 26.9528 5.55452C27.0404 5.80387 27.1666 5.92854 27.3315 5.92854C27.6561 5.92854 27.9446 5.68439 28.197 5.19608C28.4495 4.70258 28.5757 4.20648 28.5757 3.70779C28.5757 3.53636 28.4959 3.34415 28.3361 3.13117C28.1816 2.91299 27.9858 2.8039 27.7488 2.8039C27.5839 2.8039 27.4371 2.88182 27.3083 3.03766C27.1846 3.19351 27.0893 3.38571 27.0224 3.61428Z" fill="white"/>
<path d="M35.0087 6.10776C34.9159 6.20646 34.8103 6.25581 34.6918 6.25581C34.4703 6.25581 34.3054 6.13633 34.1972 5.89737C34.089 5.65841 34.0246 5.36751 34.004 5.02465C33.9886 4.6818 33.9783 4.33895 33.9731 3.9961C33.968 3.65324 33.9396 3.36234 33.8881 3.12338C33.8417 2.88442 33.7516 2.76494 33.6176 2.76494C33.4373 2.76494 33.2827 2.92858 33.1539 3.25584C33.0303 3.58311 32.9427 3.94675 32.8912 4.34674C32.7469 5.46361 32.6078 6.08958 32.4738 6.22464C32.3811 6.27139 32.3012 6.29477 32.2343 6.29477C32.1673 6.29477 32.1106 6.28698 32.0642 6.27139C31.9561 5.79348 31.8865 4.97011 31.8556 3.80129C31.8453 3.21948 31.835 2.84286 31.8247 2.67144C31.9329 2.59871 32.0256 2.56235 32.1029 2.56235C32.1802 2.56235 32.242 2.57014 32.2884 2.58572C32.3141 2.8091 32.327 3.26623 32.327 3.95713C32.3322 4.64804 32.3373 5.04543 32.3425 5.14933C32.3682 5.04024 32.3991 4.86362 32.4352 4.61946C32.4764 4.37531 32.5125 4.17531 32.5434 4.01947C32.5743 3.85843 32.6233 3.67142 32.6902 3.45844C32.7572 3.24545 32.8319 3.07663 32.9143 2.95195C32.9968 2.82208 33.1101 2.71299 33.2544 2.62468C33.3986 2.53118 33.5609 2.48442 33.7413 2.48442C33.9834 2.48442 34.1586 2.59611 34.2668 2.81949C34.3801 3.03766 34.4419 3.31039 34.4523 3.63766C34.4626 3.96493 34.4677 4.29739 34.4677 4.63505C34.4729 4.97271 34.5141 5.2818 34.5914 5.56231C34.6738 5.84283 34.8129 6.02464 35.0087 6.10776Z" fill="white"/>
<path d="M35.9019 4.74414C35.8916 4.84803 35.8865 4.91816 35.8865 4.95453C35.8865 5.26621 35.9792 5.50777 36.1647 5.67919C36.3553 5.85062 36.5794 5.93633 36.837 5.93633C37.0947 5.93633 37.3033 5.89997 37.463 5.82724C37.6279 5.75452 37.7464 5.6766 37.8185 5.59348C38.004 5.35972 38.174 5.24283 38.3286 5.24283C38.3853 5.24283 38.4522 5.25842 38.5295 5.28959C38.478 5.54413 38.2822 5.77789 37.9422 5.99088C37.6073 6.19867 37.1848 6.30256 36.6748 6.30256C36.3141 6.30256 36.0024 6.18828 35.7397 5.95971C35.482 5.72595 35.3532 5.40907 35.3532 5.00907C35.3532 4.60908 35.4305 4.22207 35.5851 3.84805C35.7448 3.46883 35.9715 3.14675 36.2652 2.88182C36.564 2.6117 36.8654 2.47663 37.1694 2.47663C37.4785 2.47663 37.7258 2.54157 37.9113 2.67144C38.1019 2.79611 38.1972 2.98052 38.1972 3.22468C38.1972 3.67662 37.9963 4.05064 37.5944 4.34674C37.1977 4.63765 36.7752 4.7831 36.327 4.7831C36.2085 4.7831 36.0668 4.77011 35.9019 4.74414ZM36.4893 4.487C36.7314 4.487 36.9478 4.40908 37.1384 4.25324C37.3291 4.09739 37.463 3.93376 37.5403 3.76233C37.6227 3.59091 37.664 3.43506 37.664 3.2948C37.664 3.15455 37.6099 3.03247 37.5017 2.92858C37.3935 2.81949 37.2673 2.76494 37.123 2.76494C36.8654 2.76494 36.6258 2.94416 36.4043 3.3026C36.1879 3.66103 36.0333 4.03246 35.9406 4.41687C36.1673 4.46362 36.3502 4.487 36.4893 4.487Z" fill="white"/>
<path d="M41.2394 5.42205C41.157 5.66101 40.9973 5.86361 40.7603 6.02984C40.5285 6.19607 40.2734 6.27919 39.9952 6.27919C39.7221 6.27919 39.5083 6.14153 39.3538 5.8662C39.2044 5.58569 39.1297 5.19868 39.1297 4.70518C39.1297 3.31299 39.3332 2.61689 39.7402 2.61689C39.7917 2.61689 39.8561 2.62468 39.9334 2.64027C39.9179 2.72338 39.8819 2.88182 39.8252 3.11559C39.7118 3.57272 39.6552 3.97532 39.6552 4.32336C39.6552 4.67141 39.7041 5.04024 39.802 5.42984C39.8999 5.81426 40.039 6.00646 40.2193 6.00646C40.3121 6.00646 40.4022 5.94672 40.4898 5.82724C40.5774 5.70776 40.647 5.58309 40.6985 5.45322C40.75 5.31816 40.8041 5.16491 40.8608 4.99349C40.9174 4.82206 40.9535 4.71816 40.969 4.6818C40.8917 4.38051 40.853 4.07402 40.853 3.76233C40.853 3.74675 40.853 3.69999 40.853 3.62207C40.853 3.53896 40.8556 3.45844 40.8608 3.38052C40.8659 3.3026 40.8814 3.20909 40.9071 3.1C40.9587 2.88182 41.0978 2.77273 41.3245 2.77273C41.5151 2.77273 41.6104 3.06364 41.6104 3.64545C41.6104 3.74934 41.5949 3.89999 41.564 4.09739C41.5383 4.29479 41.5254 4.43245 41.5254 4.51037C41.5254 4.74933 41.6387 5.05842 41.8654 5.43764C42.0921 5.81685 42.3034 6.00646 42.4991 6.00646C42.7001 6.00646 42.8469 5.89218 42.9396 5.66361C43.0324 5.43504 43.0787 5.1805 43.0787 4.89998C43.0787 4.57791 43.0504 4.33375 42.9937 4.16752C42.9422 3.9961 42.9087 3.88441 42.8933 3.83246C42.883 3.78051 42.8495 3.69999 42.7928 3.59091C42.7413 3.47662 42.7078 3.40389 42.6923 3.37273C42.682 3.34156 42.6434 3.26623 42.5764 3.14675C42.5094 3.02728 42.4708 2.95974 42.4605 2.94416C42.3111 2.67923 42.2235 2.53377 42.1977 2.5078C42.3265 2.39871 42.445 2.34417 42.5532 2.34417C42.8675 2.57274 43.1174 2.94676 43.3029 3.46623C43.4883 3.98051 43.5811 4.45064 43.5811 4.8766C43.5811 5.29738 43.4909 5.62984 43.3106 5.874C43.1354 6.11295 42.8598 6.23243 42.4837 6.23243C42.2209 6.23243 41.971 6.15971 41.734 6.01425C41.5022 5.86361 41.3373 5.66621 41.2394 5.42205Z" fill="white"/>
<path d="M46.189 0.723406C46.2508 0.609121 46.3642 0.551979 46.5291 0.551979C46.5651 0.551979 46.6012 0.557174 46.6373 0.567563C46.6476 0.842885 46.6527 1.61171 46.6527 2.87403C46.6579 2.86884 46.681 2.84546 46.7223 2.8039C46.7686 2.76234 46.797 2.73637 46.8073 2.72598C46.8176 2.71559 46.8433 2.69221 46.8846 2.65585C46.9258 2.61429 46.9567 2.58832 46.9773 2.57793C47.0031 2.56235 47.0365 2.54157 47.0778 2.51559C47.119 2.48442 47.155 2.46365 47.186 2.45326C47.2169 2.43767 47.2529 2.42209 47.2941 2.4065C47.3714 2.38053 47.4616 2.36754 47.5646 2.36754C47.9459 2.36754 48.2524 2.52858 48.4843 2.85065C48.7161 3.16753 48.8321 3.52337 48.8321 3.91817C48.8321 4.31297 48.7728 4.68959 48.6543 5.04803C48.5358 5.40127 48.3529 5.71036 48.1056 5.97529C47.8583 6.24023 47.5698 6.37269 47.2401 6.37269C46.9155 6.37269 46.6424 6.25062 46.4209 6.00646C46.2045 5.76231 46.0963 5.48439 46.0963 5.17271C46.0963 4.85583 46.1143 4.27401 46.1504 3.42727C46.1864 2.57533 46.2045 1.96495 46.2045 1.59612C46.2045 1.2221 46.1993 0.931196 46.189 0.723406ZM47.2941 5.99088C47.4951 5.99088 47.6754 5.89477 47.8351 5.70257C48.1597 5.32335 48.322 4.7857 48.322 4.0896C48.322 3.71558 48.2499 3.38571 48.1056 3.1C47.9613 2.8091 47.7578 2.66364 47.4951 2.66364C47.3457 2.66364 47.2143 2.73897 47.1009 2.88961C46.9876 3.03507 46.9 3.22987 46.8382 3.47402C46.7197 3.93636 46.6604 4.45064 46.6604 5.01686C46.6604 5.49478 46.7583 5.78828 46.9541 5.89737C47.0417 5.94932 47.155 5.98049 47.2941 5.99088Z" fill="white"/>
<path d="M49.9847 4.74414C49.9744 4.84803 49.9692 4.91816 49.9692 4.95453C49.9692 5.26621 50.062 5.50777 50.2475 5.67919C50.4381 5.85062 50.6622 5.93633 50.9198 5.93633C51.1774 5.93633 51.3861 5.89997 51.5458 5.82724C51.7106 5.75452 51.8291 5.6766 51.9013 5.59348C52.0868 5.35972 52.2568 5.24283 52.4113 5.24283C52.468 5.24283 52.535 5.25842 52.6123 5.28959C52.5607 5.54413 52.365 5.77789 52.0249 5.99088C51.69 6.19867 51.2676 6.30256 50.7575 6.30256C50.3969 6.30256 50.0852 6.18828 49.8224 5.95971C49.5648 5.72595 49.436 5.40907 49.436 5.00907C49.436 4.60908 49.5133 4.22207 49.6678 3.84805C49.8276 3.46883 50.0542 3.14675 50.3479 2.88182C50.6467 2.6117 50.9481 2.47663 51.2521 2.47663C51.5612 2.47663 51.8085 2.54157 51.994 2.67144C52.1846 2.79611 52.28 2.98052 52.28 3.22468C52.28 3.67662 52.079 4.05064 51.6772 4.34674C51.2804 4.63765 50.858 4.7831 50.4097 4.7831C50.2912 4.7831 50.1496 4.77011 49.9847 4.74414ZM50.572 4.487C50.8142 4.487 51.0306 4.40908 51.2212 4.25324C51.4118 4.09739 51.5458 3.93376 51.6231 3.76233C51.7055 3.59091 51.7467 3.43506 51.7467 3.2948C51.7467 3.15455 51.6926 3.03247 51.5844 2.92858C51.4762 2.81949 51.35 2.76494 51.2057 2.76494C50.9481 2.76494 50.7086 2.94416 50.487 3.3026C50.2706 3.66103 50.1161 4.03246 50.0233 4.41687C50.25 4.46362 50.4329 4.487 50.572 4.487Z" fill="white"/>
<path d="M56.1491 0.0844517C55.9533 1.87144 55.8554 3.14675 55.8554 3.91038C55.8554 4.66881 55.925 5.42725 56.0641 6.18568C55.9611 6.28958 55.8709 6.34152 55.7936 6.34152C55.7163 6.34152 55.6519 6.33113 55.6004 6.31035C55.4922 5.92594 55.4278 5.50777 55.4072 5.05582C55.2836 5.25322 55.1908 5.39348 55.129 5.4766C55.0723 5.55971 54.9718 5.68179 54.8276 5.84283C54.5648 6.15451 54.2531 6.31035 53.8925 6.31035C53.6194 6.31035 53.4211 6.18308 53.2974 5.92854C53.1789 5.6688 53.1197 5.33894 53.1197 4.93894C53.1197 4.53375 53.1635 4.14934 53.251 3.78571C53.3438 3.41688 53.5009 3.1 53.7225 2.83507C53.944 2.56494 54.2171 2.42988 54.5417 2.42988C54.7374 2.42988 54.9178 2.47144 55.0826 2.55455C55.2475 2.63767 55.3608 2.74936 55.4227 2.88961C55.433 2.74936 55.4433 2.53377 55.4536 2.24287C55.4639 1.95196 55.4742 1.69482 55.4845 1.47145C55.4999 1.24288 55.5231 1.01171 55.554 0.777951C55.6107 0.279255 55.7369 0.0299072 55.9327 0.0299072C55.9997 0.0299072 56.0718 0.0480887 56.1491 0.0844517ZM55.2449 3.17013C55.1831 3.05585 55.0981 2.97273 54.9899 2.92078C54.8817 2.86364 54.7374 2.83507 54.5571 2.83507C54.3819 2.83507 54.2171 2.93637 54.0625 3.13896C53.7585 3.53896 53.6065 4.11817 53.6065 4.8766C53.6065 5.12076 53.6452 5.36491 53.7225 5.60906C53.7997 5.84802 53.9131 5.9675 54.0625 5.9675C54.2789 5.9675 54.4901 5.82465 54.6962 5.53893C54.9023 5.25322 55.062 4.92596 55.1754 4.55713C55.2887 4.18311 55.3454 3.84805 55.3454 3.55194C55.3454 3.41169 55.3119 3.28442 55.2449 3.17013Z" fill="white"/>
<path d="M58.8358 3.20909C58.7895 3.08961 58.7019 2.99611 58.5731 2.92858C58.4443 2.86104 58.2846 2.82728 58.0939 2.82728C57.9033 2.82728 57.723 2.88442 57.553 2.9987C57.3881 3.11299 57.3057 3.26623 57.3057 3.45844C57.3057 3.65064 57.383 3.80389 57.5375 3.91817C57.6972 4.02726 57.8879 4.11038 58.1094 4.16752C58.3361 4.22466 58.5628 4.287 58.7895 4.35453C59.0162 4.41687 59.2068 4.52336 59.3614 4.67401C59.5211 4.81946 59.6009 5.01167 59.6009 5.25063C59.6009 5.59867 59.4567 5.86361 59.1682 6.04542C58.8848 6.22724 58.5422 6.31815 58.1403 6.31815C57.9033 6.31815 57.5916 6.25321 57.2052 6.12334C56.824 5.99348 56.6333 5.83763 56.6333 5.65582C56.6333 5.52075 56.7467 5.45322 56.9734 5.45322C57.0403 5.45322 57.1279 5.49478 57.2361 5.5779C57.5659 5.82205 57.9033 5.94412 58.2485 5.94412C58.434 5.94412 58.5937 5.91296 58.7277 5.85062C58.975 5.73114 59.0986 5.53893 59.0986 5.274C59.0986 5.11297 59.0187 4.9831 58.859 4.8844C58.7045 4.7857 58.5138 4.70778 58.2872 4.65063C58.0656 4.59349 57.8415 4.53115 57.6148 4.46362C57.3881 4.39609 57.1949 4.2844 57.0352 4.12856C56.8806 3.96752 56.8033 3.76493 56.8033 3.52078C56.8033 3.2039 56.945 2.94676 57.2284 2.74936C57.5118 2.55196 57.8621 2.45326 58.2794 2.45326C58.5628 2.45326 58.8178 2.52858 59.0445 2.67923C59.2764 2.82468 59.3923 3.03766 59.3923 3.31818C59.3923 3.50519 59.2867 3.5987 59.0754 3.5987C58.9878 3.5987 58.9286 3.58311 58.8977 3.55194C58.8719 3.52078 58.8565 3.46623 58.8513 3.38831C58.8513 3.30519 58.8462 3.24545 58.8358 3.20909Z" fill="white"/>
<path d="M62.585 6.38048C62.4923 6.38048 62.4459 5.59348 62.4459 4.01947C62.4459 3.35454 62.4434 2.95195 62.4382 2.81169H62.2836C62.2115 2.81169 62.1548 2.81169 62.1136 2.81169C62.0724 2.8065 62.0183 2.8039 61.9513 2.8039C61.8895 2.79871 61.838 2.79091 61.7968 2.78052C61.7607 2.77014 61.7221 2.75715 61.6808 2.74156C61.6036 2.7104 61.5649 2.65585 61.5649 2.57793C61.5649 2.47923 61.7246 2.42988 62.0441 2.42988C62.1832 2.42988 62.3094 2.43507 62.4227 2.44546C62.4279 2.34157 62.4305 2.2091 62.4305 2.04807C62.4356 1.88183 62.4408 1.75456 62.4459 1.66625C62.4511 1.57275 62.4562 1.46106 62.4614 1.33119C62.4717 1.20132 62.4846 1.10002 62.5 1.0273C62.5206 0.954572 62.5464 0.874053 62.5773 0.785743C62.6082 0.692237 62.6494 0.622108 62.701 0.575355C62.7525 0.528603 62.8117 0.48185 62.8787 0.435097C62.9972 0.346786 63.193 0.302631 63.466 0.302631C63.7443 0.302631 63.9478 0.37276 64.0766 0.513018C64.2105 0.648082 64.329 0.879248 64.4321 1.20652C64.3548 1.30002 64.2646 1.34677 64.1616 1.34677C64.1255 1.34677 64.0894 1.34158 64.0534 1.33119C63.9606 1.08184 63.8756 0.913014 63.7984 0.824703C63.7262 0.736393 63.6258 0.692237 63.497 0.692237C63.3682 0.692237 63.2703 0.715613 63.2033 0.762366C63.1415 0.809119 63.0925 0.868858 63.0565 0.941585C62.9792 1.09743 62.9405 1.47405 62.9405 2.07144C62.9405 2.09742 62.9405 2.14417 62.9405 2.2117C62.9405 2.27923 62.9405 2.34157 62.9405 2.39871L63.5974 2.33637C63.855 2.33637 63.9838 2.39611 63.9838 2.51559C63.9838 2.59351 63.922 2.64546 63.7984 2.67144C63.6747 2.69741 63.5176 2.71299 63.3269 2.71819C63.1415 2.72338 63.0127 2.73897 62.9405 2.76494C62.9302 2.91039 62.9251 3.1026 62.9251 3.34156C62.9251 3.57532 62.938 3.94934 62.9637 4.46362C62.9895 4.97271 63.0024 5.36231 63.0024 5.63244C63.0024 5.90257 62.974 6.09477 62.9173 6.20906C62.8658 6.32334 62.7551 6.38048 62.585 6.38048Z" fill="white"/>
<path d="M64.5776 3.09221C64.8403 2.68702 65.219 2.48442 65.7136 2.48442C66.2082 2.48442 66.6024 2.68702 66.896 3.09221C67.1948 3.4974 67.3443 3.95973 67.3443 4.47921C67.3443 4.99349 67.182 5.42985 66.8574 5.78828C66.5328 6.14672 66.1206 6.32594 65.6209 6.32594C65.1211 6.32594 64.7579 6.18568 64.5312 5.90516C64.3045 5.61945 64.1912 5.21946 64.1912 4.70518C64.1912 4.03506 64.32 3.4974 64.5776 3.09221ZM64.9176 3.50519C64.8506 3.70779 64.7991 3.91038 64.763 4.11298C64.7321 4.31557 64.7167 4.50518 64.7167 4.6818C64.7167 4.85323 64.7296 5.01167 64.7553 5.15712C64.7811 5.29738 64.8249 5.43764 64.8867 5.5779C64.9485 5.71296 65.0413 5.82205 65.1649 5.90516C65.2886 5.98309 65.4354 6.02205 65.6054 6.02205C65.9506 6.02205 66.2391 5.87919 66.471 5.59348C66.708 5.30777 66.8265 4.96232 66.8265 4.55713C66.8265 4.15194 66.7183 3.75973 66.5019 3.38052C66.2906 2.99611 66.0305 2.8039 65.7213 2.8039C65.5359 2.8039 65.3736 2.86884 65.2345 2.9987C65.0954 3.12857 64.9897 3.2974 64.9176 3.50519Z" fill="white"/>
<path d="M68.8608 5.56231L68.884 6.00646C68.884 6.12075 68.8505 6.20127 68.7835 6.24802C68.7217 6.28958 68.6573 6.31035 68.5903 6.31035C68.5285 6.31035 68.4641 6.29996 68.3971 6.27919C68.2837 5.6766 68.1962 4.92595 68.1343 4.02726C68.0777 3.12857 68.0442 2.61949 68.0339 2.50001C68.1111 2.42728 68.191 2.39092 68.2734 2.39092C68.361 2.39092 68.4383 2.40131 68.5053 2.42209C68.5259 2.57273 68.5413 2.9052 68.5517 3.41948C68.562 3.93376 68.5748 4.25583 68.5903 4.3857C68.6624 3.94934 68.7912 3.54156 68.9767 3.16234C69.0797 2.94935 69.2137 2.78052 69.3786 2.65585C69.5486 2.52598 69.7289 2.46105 69.9195 2.46105C70.1153 2.46105 70.2931 2.54936 70.4528 2.72598C70.6176 2.89741 70.7001 3.05325 70.7001 3.19351C70.7001 3.24545 70.6692 3.28701 70.6073 3.31818C70.5455 3.34415 70.476 3.35714 70.3987 3.35714C70.3266 3.35714 70.2699 3.32857 70.2287 3.27143C70.1874 3.21429 70.1591 3.15195 70.1437 3.08442C70.1282 3.01169 70.0947 2.94676 70.0432 2.88961C69.9917 2.83247 69.9221 2.8039 69.8345 2.8039C69.6027 2.8039 69.4043 3.01429 69.2395 3.43506C68.987 4.06363 68.8608 4.77271 68.8608 5.56231Z" fill="white"/>
<path d="M73.552 0.544187C73.5571 0.907819 73.5597 1.18054 73.5597 1.36236C73.5597 1.53898 73.5571 1.7156 73.552 1.89222C73.552 2.06884 73.5442 2.4117 73.5288 2.92078C73.5133 3.42467 73.503 3.82467 73.4979 4.12077C73.6936 3.98571 73.9281 3.77792 74.2011 3.4974C74.4742 3.21169 74.7215 2.96754 74.943 2.76494C75.2934 2.44806 75.5432 2.35196 75.6927 2.47663C75.7493 2.52338 75.7674 2.56754 75.7468 2.6091C75.6952 2.71819 75.5767 2.85065 75.3913 3.0065C75.2109 3.16234 74.9971 3.33896 74.7498 3.53636C74.5025 3.73376 74.3067 3.91558 74.1625 4.08181C74.5386 4.13376 74.84 4.34674 75.0667 4.72076C75.1646 4.89219 75.2599 5.06362 75.3526 5.23504C75.5896 5.68699 75.8472 5.99348 76.1254 6.15451C76.0224 6.25841 75.9039 6.31035 75.7699 6.31035C75.636 6.31035 75.502 6.24542 75.3681 6.11555C75.2393 5.98568 75.1259 5.82724 75.028 5.64023C74.9353 5.45322 74.84 5.26621 74.7421 5.0792C74.5206 4.62726 74.2629 4.40129 73.9693 4.40129C73.8302 4.40129 73.7117 4.44804 73.6138 4.54154C73.5159 4.62985 73.4669 4.72336 73.4669 4.82206C73.4669 5.44543 73.4566 5.90776 73.436 6.20906C73.3639 6.30776 73.2866 6.35711 73.2042 6.35711C73.1784 6.35711 73.1501 6.35191 73.1192 6.34152C73.0058 6.29477 72.9492 6.19867 72.9492 6.05321C72.9543 5.90776 72.9698 5.46621 72.9955 4.72855C73.0522 2.84286 73.0805 1.63768 73.0805 1.11301C73.0805 0.868859 73.1037 0.705224 73.1501 0.622108C73.2016 0.538992 73.2609 0.497434 73.3278 0.497434C73.4 0.497434 73.4747 0.513018 73.552 0.544187Z" fill="white"/>
<path d="M77.1199 0.590939C77.1147 0.710419 77.1122 0.842885 77.1122 0.988337C77.1122 1.13379 77.1199 1.28444 77.1353 1.44028C77.0632 1.5234 76.9653 1.56495 76.8417 1.56495C76.6871 1.56495 76.6098 1.44028 76.6098 1.19093C76.6098 1.18054 76.6098 1.14158 76.6098 1.07405C76.6098 1.00652 76.6098 0.94678 76.6098 0.894832C76.615 0.83769 76.6253 0.772756 76.6407 0.700029C76.6768 0.575355 76.7567 0.513018 76.8803 0.513018C77.004 0.513018 77.0838 0.538992 77.1199 0.590939ZM76.6253 4.40908C76.6253 3.39091 76.6768 2.8039 76.7798 2.64806C76.8159 2.59092 76.8597 2.56235 76.9112 2.56235C76.9627 2.56235 77.0478 2.59092 77.1663 2.64806C77.1405 3.08961 77.1276 3.57013 77.1276 4.0896C77.1276 4.0896 77.1328 4.66362 77.1431 5.81166C77.1431 5.9727 77.107 6.08698 77.0349 6.15451C76.9679 6.21685 76.9035 6.24802 76.8417 6.24802C76.785 6.24802 76.7257 6.23243 76.6639 6.20126C76.6382 5.52595 76.6253 4.92855 76.6253 4.40908Z" fill="white"/>
<path d="M81.0241 0.0844517C80.8283 1.87144 80.7304 3.14675 80.7304 3.91038C80.7304 4.66881 80.8 5.42725 80.9391 6.18568C80.8361 6.28958 80.7459 6.34152 80.6686 6.34152C80.5913 6.34152 80.5269 6.33113 80.4754 6.31035C80.3672 5.92594 80.3028 5.50777 80.2822 5.05582C80.1586 5.25322 80.0658 5.39348 80.004 5.4766C79.9473 5.55971 79.8469 5.68179 79.7026 5.84283C79.4398 6.15451 79.1281 6.31035 78.7675 6.31035C78.4944 6.31035 78.2961 6.18308 78.1724 5.92854C78.0539 5.6688 77.9947 5.33894 77.9947 4.93894C77.9947 4.53375 78.0385 4.14934 78.1261 3.78571C78.2188 3.41688 78.3759 3.1 78.5975 2.83507C78.819 2.56494 79.0921 2.42988 79.4167 2.42988C79.6124 2.42988 79.7928 2.47144 79.9576 2.55455C80.1225 2.63767 80.2358 2.74936 80.2977 2.88961C80.308 2.74936 80.3183 2.53377 80.3286 2.24287C80.3389 1.95196 80.3492 1.69482 80.3595 1.47145C80.3749 1.24288 80.3981 1.01171 80.429 0.777951C80.4857 0.279255 80.6119 0.0299072 80.8077 0.0299072C80.8747 0.0299072 80.9468 0.0480887 81.0241 0.0844517ZM80.1199 3.17013C80.0581 3.05585 79.9731 2.97273 79.8649 2.92078C79.7567 2.86364 79.6124 2.83507 79.4321 2.83507C79.2569 2.83507 79.0921 2.93637 78.9375 3.13896C78.6335 3.53896 78.4816 4.11817 78.4816 4.8766C78.4816 5.12076 78.5202 5.36491 78.5975 5.60906C78.6748 5.84802 78.7881 5.9675 78.9375 5.9675C79.1539 5.9675 79.3651 5.82465 79.5712 5.53893C79.7773 5.25322 79.937 4.92596 80.0504 4.55713C80.1637 4.18311 80.2204 3.84805 80.2204 3.55194C80.2204 3.41169 80.1869 3.28442 80.1199 3.17013Z" fill="white"/>
<path d="M83.7109 3.20909C83.6645 3.08961 83.5769 2.99611 83.4481 2.92858C83.3193 2.86104 83.1596 2.82728 82.969 2.82728C82.7783 2.82728 82.598 2.88442 82.428 2.9987C82.2631 3.11299 82.1807 3.26623 82.1807 3.45844C82.1807 3.65064 82.258 3.80389 82.4125 3.91817C82.5722 4.02726 82.7629 4.11038 82.9844 4.16752C83.2111 4.22466 83.4378 4.287 83.6645 4.35453C83.8912 4.41687 84.0818 4.52336 84.2364 4.67401C84.3961 4.81946 84.4759 5.01167 84.4759 5.25063C84.4759 5.59867 84.3317 5.86361 84.0432 6.04542C83.7598 6.22724 83.4172 6.31815 83.0153 6.31815C82.7783 6.31815 82.4666 6.25321 82.0802 6.12334C81.699 5.99348 81.5083 5.83763 81.5083 5.65582C81.5083 5.52075 81.6217 5.45322 81.8484 5.45322C81.9153 5.45322 82.0029 5.49478 82.1111 5.5779C82.4409 5.82205 82.7783 5.94412 83.1235 5.94412C83.309 5.94412 83.4687 5.91296 83.6027 5.85062C83.85 5.73114 83.9736 5.53893 83.9736 5.274C83.9736 5.11297 83.8938 4.9831 83.734 4.8844C83.5795 4.7857 83.3889 4.70778 83.1622 4.65063C82.9406 4.59349 82.7165 4.53115 82.4898 4.46362C82.2631 4.39609 82.0699 4.2844 81.9102 4.12856C81.7556 3.96752 81.6783 3.76493 81.6783 3.52078C81.6783 3.2039 81.82 2.94676 82.1034 2.74936C82.3868 2.55196 82.7371 2.45326 83.1544 2.45326C83.4378 2.45326 83.6928 2.52858 83.9195 2.67923C84.1514 2.82468 84.2673 3.03766 84.2673 3.31818C84.2673 3.50519 84.1617 3.5987 83.9504 3.5987C83.8628 3.5987 83.8036 3.58311 83.7727 3.55194C83.7469 3.52078 83.7315 3.46623 83.7263 3.38831C83.7263 3.30519 83.7212 3.24545 83.7109 3.20909Z" fill="white"/>
</svg>
