<svg width="48" height="5" viewBox="0 0 48 5" fill="none" xmlns="http://www.w3.org/2000/svg">
<path d="M0.328829 2.51452C0.32635 2.05286 0.305087 1.64604 0.265039 1.29408C0.264547 1.20233 0.302274 1.12222 0.378222 1.05375C0.454169 0.985272 0.555153 0.932939 0.681172 0.896748C0.933243 0.830286 1.21044 0.796243 1.51275 0.794619C1.90312 0.792523 2.21031 0.878179 2.43432 1.05159C2.66125 1.22202 2.77567 1.48628 2.77759 1.84437C2.77952 2.20246 2.63724 2.49029 2.35075 2.70787C2.06427 2.92545 1.71411 3.03536 1.30026 3.03758C1.08893 3.03871 0.867087 2.99551 0.634735 2.90797C0.620823 3.05011 0.614518 3.24251 0.615821 3.48518L0.621392 3.70267C0.621773 3.7737 0.620703 3.84769 0.618181 3.92465C0.603616 3.94545 0.587553 3.96033 0.56999 3.9693C0.552427 3.97827 0.53925 3.98426 0.530461 3.98727C0.524622 3.99322 0.514373 3.99772 0.499714 4.00075C0.485054 4.00379 0.474789 4.00533 0.468919 4.00536C0.45134 4.01137 0.43081 4.01444 0.407329 4.01457L0.332483 4.01497C0.325421 3.79305 0.321414 3.5933 0.32046 3.41574L0.328829 2.51452ZM0.624214 2.58841C0.839256 2.73227 1.09647 2.80339 1.39585 2.80179C1.69522 2.79722 1.94714 2.70264 2.15161 2.51805C2.35607 2.33051 2.45757 2.10208 2.45613 1.83278C2.45468 1.56347 2.34793 1.3628 2.13589 1.23076C1.92385 1.09872 1.6696 1.0335 1.37316 1.03509C1.07964 1.03666 0.820251 1.10613 0.594978 1.24347C0.610686 1.43575 0.620432 1.88407 0.624214 2.58841Z" fill="white"/>
<path d="M3.5917 3.49139L3.60627 3.74435C3.60662 3.80946 3.58779 3.85543 3.54977 3.88227C3.51468 3.90614 3.47805 3.91817 3.4399 3.91838C3.40468 3.91857 3.36796 3.91284 3.32973 3.90121C3.26332 3.55827 3.21113 3.1309 3.17316 2.61911C3.13812 2.10731 3.11748 1.81739 3.11125 1.74935C3.15505 1.70768 3.20044 1.68672 3.2474 1.68647C3.29729 1.6862 3.34135 1.69189 3.37957 1.70352C3.39177 1.78928 3.4016 1.97863 3.40904 2.27158C3.41648 2.56453 3.42481 2.74798 3.43401 2.82192C3.47377 2.5731 3.5459 2.3404 3.6504 2.12379C3.70845 2.00214 3.78425 1.90555 3.87779 1.83402C3.97425 1.75952 4.07678 1.72197 4.18538 1.72139C4.29692 1.72079 4.39845 1.77056 4.48998 1.87069C4.58443 1.96784 4.63186 2.05637 4.63229 2.13628C4.63245 2.16587 4.61497 2.18964 4.57984 2.20759C4.5447 2.22257 4.50512 2.23018 4.46109 2.23042C4.42 2.23064 4.38762 2.21454 4.36397 2.18211C4.34031 2.14968 4.32398 2.11426 4.31497 2.07583C4.30594 2.03445 4.28666 1.99756 4.25714 1.96516C4.22761 1.93277 4.1879 1.9167 4.138 1.91697C4.00592 1.91768 3.89356 2.03814 3.80093 2.27836C3.65903 2.63722 3.58929 3.04156 3.5917 3.49139Z" fill="white"/>
<path d="M5.03937 2.07638C5.18782 1.84474 5.40293 1.72817 5.6847 1.72665C5.96647 1.72514 6.19163 1.83935 6.36017 2.06929C6.53165 2.29921 6.61818 2.56214 6.61977 2.85808C6.62134 3.15106 6.53022 3.40015 6.34641 3.60534C6.16259 3.81053 5.92833 3.91389 5.64362 3.91542C5.35892 3.91695 5.15156 3.83816 5.02156 3.67904C4.89154 3.51697 4.82574 3.28944 4.82417 2.99646C4.82212 2.6147 4.89385 2.308 5.03937 2.07638ZM5.23435 2.31061C5.19681 2.42624 5.16808 2.54181 5.14816 2.65734C5.13116 2.77285 5.12294 2.88092 5.12348 2.98153C5.124 3.0792 5.13183 3.16942 5.14695 3.2522C5.16205 3.33203 5.18743 3.4118 5.22308 3.49151C5.25871 3.56827 5.31188 3.63013 5.38258 3.67711C5.45326 3.72112 5.53703 3.74286 5.63389 3.74234C5.83054 3.74129 5.99447 3.65902 6.12568 3.49555C6.25982 3.33205 6.32627 3.13489 6.32503 2.90406C6.32379 2.67322 6.26095 2.45012 6.13652 2.23474C6.015 2.01639 5.86619 1.90769 5.69008 1.90863C5.58442 1.9092 5.49216 1.94669 5.41331 2.0211C5.33446 2.09551 5.27481 2.19202 5.23435 2.31061Z" fill="white"/>
<path d="M6.82232 1.77382C6.84844 1.71745 6.90552 1.68902 6.99358 1.68855C7.03173 1.68835 7.06407 1.69705 7.09058 1.71467C7.17398 1.9421 7.25593 2.17102 7.33642 2.40143C7.48838 2.82382 7.6296 3.15749 7.76006 3.40242C7.81976 3.04104 7.93668 2.6764 8.11081 2.30849C8.28789 1.94056 8.4498 1.7562 8.59656 1.75541C8.64058 1.75517 8.68466 1.7653 8.7288 1.78578C8.39366 2.23446 8.15469 2.82764 8.0119 3.56532C7.98347 3.73713 7.9517 3.83496 7.91661 3.85882C7.8786 3.88566 7.83904 3.89919 7.79795 3.89942C7.75686 3.89964 7.72453 3.89093 7.70095 3.8733C7.68031 3.85565 7.66407 3.83798 7.65223 3.82029C7.64333 3.80258 7.62997 3.77306 7.61213 3.73172C7.59724 3.69037 7.58534 3.66232 7.57646 3.64757C7.27404 3.08393 7.02266 2.45934 6.82232 1.77382Z" fill="white"/>
<path d="M9.31353 0.628432C9.31096 0.696515 9.3099 0.771987 9.31034 0.854851C9.31079 0.937715 9.31565 1.02351 9.32493 1.11225C9.28409 1.15982 9.22845 1.18379 9.15801 1.18417C9.06996 1.18465 9.02555 1.11386 9.02479 0.971805C9.02476 0.965886 9.02464 0.94369 9.02443 0.905218C9.02422 0.866746 9.02404 0.832712 9.02388 0.803118C9.02664 0.770549 9.03231 0.733525 9.0409 0.692046C9.06106 0.62091 9.10636 0.585152 9.17681 0.584774C9.24725 0.584396 9.29282 0.598949 9.31353 0.628432ZM9.04344 2.80511C9.04032 2.22507 9.06788 1.8905 9.1261 1.8014C9.14647 1.76874 9.17133 1.75233 9.20069 1.75217C9.23004 1.75201 9.27855 1.76803 9.34624 1.80022C9.33291 2.05185 9.32704 2.32563 9.32863 2.62157C9.32863 2.62157 9.33332 2.94857 9.34271 3.60257C9.3432 3.69431 9.323 3.75953 9.28212 3.79822C9.24415 3.83394 9.20756 3.85189 9.17234 3.85208C9.14005 3.85226 9.10625 3.84356 9.07093 3.82599C9.05419 3.44135 9.04503 3.10105 9.04344 2.80511Z" fill="white"/>
<path d="M11.5362 0.327946C11.4301 1.34658 11.3783 2.07342 11.3806 2.50845C11.3829 2.94052 11.4249 3.37239 11.5064 3.80403C11.448 3.86354 11.3968 3.89341 11.3528 3.89364C11.3088 3.89388 11.2721 3.88816 11.2426 3.87648C11.1798 3.65781 11.1419 3.41978 11.1287 3.16237C11.0589 3.27521 11.0065 3.3554 10.9715 3.40294C10.9395 3.45046 10.8826 3.52031 10.8009 3.6125C10.6522 3.79086 10.4751 3.8806 10.2697 3.8817C10.1141 3.88254 10.0007 3.81064 9.92948 3.66601C9.86118 3.5184 9.82641 3.33066 9.82519 3.10278C9.82395 2.87195 9.84772 2.65282 9.89651 2.44539C9.94821 2.23499 10.0368 2.05399 10.1622 1.90238C10.2875 1.74781 10.4427 1.67003 10.6276 1.66904C10.7391 1.66844 10.842 1.69156 10.9362 1.73841C11.0304 1.78526 11.0953 1.84854 11.1309 1.92825C11.1364 1.84832 11.1416 1.72547 11.1466 1.55971C11.1515 1.39395 11.1566 1.24743 11.1618 1.12014C11.1699 0.989881 11.1824 0.858116 11.1993 0.724848C11.2301 0.440572 11.3012 0.298134 11.4127 0.297535C11.4509 0.29733 11.4921 0.307467 11.5362 0.327946ZM11.0305 2.0886C10.9949 2.02368 10.9463 1.97659 10.8845 1.94733C10.8227 1.91511 10.7404 1.89927 10.6377 1.89982C10.5379 1.90036 10.4442 1.95857 10.3568 2.07446C10.1849 2.30327 10.1 2.63371 10.1024 3.06578C10.1031 3.20487 10.1259 3.34385 10.1706 3.4827C10.2154 3.6186 10.2803 3.68632 10.3655 3.68586C10.4887 3.6852 10.6086 3.60317 10.7252 3.43977C10.8417 3.27637 10.9317 3.08944 10.9951 2.87898C11.0586 2.66555 11.0898 2.4745 11.0889 2.30581C11.0885 2.22591 11.069 2.1535 11.0305 2.0886Z" fill="white"/>
<path d="M12.2759 0.612525C12.2733 0.680608 12.2722 0.75608 12.2727 0.838944C12.2731 0.921808 12.278 1.00761 12.2873 1.09634C12.2464 1.14391 12.1908 1.16789 12.1204 1.16827C12.0323 1.16874 11.9879 1.09795 11.9871 0.955898C11.9871 0.949979 11.987 0.927783 11.9868 0.889311C11.9866 0.850839 11.9864 0.816805 11.9862 0.787211C11.989 0.754642 11.9947 0.717618 12.0032 0.676139C12.0234 0.605003 12.0687 0.569245 12.1392 0.568867C12.2096 0.568489 12.2552 0.583042 12.2759 0.612525ZM12.0058 2.78921C12.0027 2.20916 12.0302 1.87459 12.0885 1.78549C12.1088 1.75283 12.1337 1.73642 12.163 1.73626C12.1924 1.7361 12.2409 1.75212 12.3086 1.78431C12.2953 2.03594 12.2894 2.30972 12.291 2.60567C12.291 2.60567 12.2957 2.93266 12.3051 3.58666C12.3055 3.6784 12.2853 3.74362 12.2445 3.78231C12.2065 3.81803 12.1699 3.83599 12.1347 3.83618C12.1024 3.83635 12.0686 3.82765 12.0333 3.81008C12.0165 3.42544 12.0074 3.08515 12.0058 2.78921Z" fill="white"/>
<path d="M14.6711 3.74265C14.6185 3.79916 14.5585 3.8276 14.491 3.82796C14.3648 3.82864 14.2705 3.76108 14.2081 3.62527C14.1458 3.48947 14.1082 3.32394 14.0954 3.12868C14.0855 2.93341 14.0786 2.73812 14.0746 2.54282C14.0707 2.34751 14.0536 2.18187 14.0235 2.0459C13.9964 1.9099 13.9447 1.84211 13.8683 1.84252C13.7656 1.84308 13.6781 1.93677 13.6057 2.12361C13.5362 2.31043 13.4875 2.51785 13.4593 2.74589C13.3806 3.3826 13.3032 3.73964 13.2273 3.81699C13.1746 3.84391 13.1292 3.85747 13.0911 3.85767C13.0529 3.85788 13.0206 3.85361 12.9941 3.84488C12.931 3.57294 12.8889 3.10409 12.8677 2.43832C12.8601 2.10689 12.853 1.89237 12.8466 1.79474C12.9081 1.75298 12.9608 1.73198 13.0048 1.73174C13.0488 1.7315 13.0841 1.73575 13.1105 1.74449C13.1259 1.87167 13.1346 2.13205 13.1367 2.52566C13.1418 2.91924 13.1459 3.14562 13.1492 3.20479C13.1635 3.14257 13.1806 3.04185 13.2004 2.90265C13.2231 2.76343 13.2431 2.64938 13.2602 2.56051C13.2773 2.46867 13.3046 2.36198 13.3421 2.24044C13.3797 2.1189 13.4217 2.02249 13.4683 1.95121C13.5148 1.87698 13.5791 1.81448 13.661 1.76373C13.7429 1.71002 13.8352 1.68289 13.9379 1.68234C14.0759 1.6816 14.176 1.74469 14.2383 1.87161C14.3036 1.99556 14.3396 2.15074 14.3465 2.33715C14.3534 2.52356 14.3573 2.71295 14.3584 2.90531C14.3623 3.09766 14.3868 3.27362 14.4316 3.43319C14.4795 3.59274 14.5593 3.6959 14.6711 3.74265Z" fill="white"/>
<path d="M15.7146 1.64172C15.9817 1.64029 16.1672 1.74879 16.2711 1.96724C16.3275 2.08236 16.3736 2.19161 16.4094 2.295C16.4452 2.39839 16.4694 2.54032 16.4821 2.72078C16.5012 2.99591 16.5117 3.30956 16.5136 3.66173C16.5155 4.01094 16.4333 4.28957 16.2671 4.49763C16.1039 4.70863 15.8623 4.81499 15.5424 4.81671C15.2254 4.81841 14.9606 4.71625 14.7482 4.51022C14.8066 4.45072 14.8695 4.42079 14.937 4.42043C15.0075 4.42005 15.103 4.44913 15.2237 4.50767C15.3473 4.56916 15.4781 4.59953 15.616 4.59879C15.754 4.59805 15.8683 4.56488 15.9589 4.49928C16.0496 4.43665 16.1166 4.3475 16.16 4.23185C16.2323 4.02726 16.2676 3.77551 16.266 3.47661C16.2658 3.43222 16.2605 3.26799 16.2502 2.98394C16.1722 3.22703 16.0603 3.42888 15.9144 3.58948C15.7685 3.74711 15.6031 3.82643 15.4182 3.82742C15.2333 3.82841 15.0963 3.74628 15.0074 3.58103C14.9214 3.4128 14.8778 3.22215 14.8766 3.00907C14.8755 2.79599 14.9037 2.58868 14.9613 2.38712C15.019 2.18261 15.1134 2.00749 15.2447 1.86177C15.376 1.71605 15.5326 1.6427 15.7146 1.64172ZM15.2516 2.31897C15.2141 2.44939 15.1869 2.57236 15.1699 2.68787C15.1529 2.80338 15.1447 2.92033 15.1454 3.0387C15.146 3.15412 15.1702 3.28273 15.2179 3.42453C15.2685 3.56631 15.3408 3.63695 15.4348 3.63645C15.6197 3.63545 15.7833 3.49548 15.9256 3.21652C16.0679 2.9346 16.1383 2.65159 16.1368 2.36749C16.1363 2.26983 16.0902 2.16058 15.9985 2.03973C15.9098 1.91591 15.798 1.85436 15.6629 1.85508C15.569 1.85559 15.4856 1.90043 15.4127 1.9896C15.3427 2.07876 15.289 2.18855 15.2516 2.31897Z" fill="white"/>
<path d="M19.8089 3.71506C19.7564 3.77157 19.6964 3.80001 19.6289 3.80037C19.5027 3.80105 19.4084 3.73349 19.346 3.59769C19.2837 3.46188 19.2461 3.29635 19.2333 3.1011C19.2234 2.90582 19.2165 2.71053 19.2125 2.51523C19.2085 2.31992 19.1915 2.15428 19.1614 2.01831C19.1343 1.88232 19.0826 1.81452 19.0062 1.81493C18.9035 1.81549 18.816 1.90918 18.7436 2.09602C18.6741 2.28284 18.6254 2.49027 18.5972 2.7183C18.5185 3.35501 18.4411 3.71205 18.3652 3.7894C18.3125 3.81632 18.2671 3.82988 18.229 3.83009C18.1908 3.83029 18.1585 3.82602 18.132 3.81729C18.0689 3.54535 18.0268 3.0765 18.0056 2.41073C17.998 2.0793 17.9909 1.86478 17.9845 1.76715C18.0459 1.72539 18.0987 1.70439 18.1427 1.70415C18.1867 1.70391 18.222 1.70816 18.2484 1.7169C18.2638 1.84408 18.2725 2.10447 18.2746 2.49807C18.2797 2.89165 18.2838 3.11803 18.2871 3.1772C18.3014 3.11498 18.3185 3.01426 18.3383 2.87506C18.361 2.73584 18.381 2.62179 18.3981 2.53292C18.4152 2.44108 18.4425 2.33439 18.48 2.21285C18.5175 2.09131 18.5596 1.9949 18.6062 1.92362C18.6527 1.84939 18.717 1.78689 18.7989 1.73614C18.8808 1.68243 18.9731 1.6553 19.0758 1.65475C19.2138 1.65401 19.3139 1.7171 19.3762 1.84402C19.4415 1.96797 19.4775 2.12315 19.4844 2.30956C19.4913 2.49597 19.4952 2.68536 19.4963 2.87772C19.5002 3.07007 19.5247 3.24603 19.5695 3.4056C19.6174 3.56515 19.6972 3.66831 19.8089 3.71506Z" fill="white"/>
<path d="M20.3137 2.93548C20.3081 2.9947 20.3054 3.03467 20.3055 3.05539C20.3065 3.23295 20.36 3.37028 20.4662 3.46737C20.5753 3.56445 20.7033 3.61259 20.85 3.61181C20.9968 3.61102 21.1156 3.58966 21.2063 3.54774C21.3 3.50581 21.3673 3.46105 21.4081 3.41348C21.5131 3.27974 21.6096 3.21263 21.6976 3.21216C21.7299 3.21199 21.7681 3.22066 21.8122 3.23818C21.7837 3.38335 21.6729 3.51712 21.4798 3.6395C21.2896 3.7589 21.0493 3.81938 20.7587 3.82094C20.5532 3.82204 20.3753 3.75789 20.2249 3.62848C20.0775 3.49609 20.0031 3.31596 20.0019 3.08809C20.0007 2.86022 20.0435 2.6395 20.1304 2.42595C20.2202 2.20943 20.3484 2.02525 20.5149 1.87342C20.6843 1.71862 20.8556 1.64075 21.0288 1.63982C21.2049 1.63888 21.346 1.67511 21.452 1.74853C21.561 1.81897 21.6159 1.92374 21.6166 2.06283C21.618 2.3203 21.5047 2.53399 21.2766 2.70391C21.0515 2.87085 20.8113 2.95501 20.5559 2.95638C20.4884 2.95674 20.4077 2.94977 20.3137 2.93548ZM20.6475 2.78719C20.7854 2.78645 20.9085 2.7414 21.0166 2.65203C21.1247 2.56267 21.2005 2.46904 21.244 2.37114C21.2905 2.27323 21.3135 2.18432 21.313 2.10442C21.3126 2.02451 21.2814 1.95513 21.2195 1.89627C21.1575 1.83446 21.0854 1.80377 21.0032 1.80421C20.8565 1.805 20.7205 1.90783 20.5954 2.11271C20.4732 2.31757 20.3863 2.52964 20.3347 2.74892C20.464 2.77486 20.5682 2.78762 20.6475 2.78719Z" fill="white"/>
<path d="M23.3565 3.30536C23.3102 3.44174 23.2199 3.55765 23.0854 3.65307C22.9538 3.74848 22.8088 3.79661 22.6503 3.79747C22.4947 3.7983 22.3725 3.72053 22.2836 3.56416C22.1976 3.4048 22.1539 3.18456 22.1523 2.90341C22.1481 2.11029 22.2619 1.71311 22.4938 1.71186C22.5231 1.7117 22.5598 1.71595 22.6039 1.72459C22.5954 1.77199 22.5753 1.86236 22.5437 1.9957C22.4806 2.25648 22.4495 2.48601 22.4506 2.68429C22.4516 2.88257 22.4806 3.09254 22.5376 3.31419C22.5945 3.53289 22.6744 3.64196 22.7771 3.64141C22.8299 3.64113 22.8811 3.60682 22.9307 3.53848C22.9802 3.47015 23.0194 3.39891 23.0484 3.32477C23.0773 3.24767 23.1077 3.1602 23.1394 3.06236C23.1712 2.96453 23.1914 2.90523 23.2001 2.88447C23.1552 2.71306 23.1322 2.53857 23.1313 2.36101C23.1312 2.35213 23.1311 2.32549 23.1308 2.2811C23.1306 2.23375 23.1318 2.18787 23.1345 2.14347C23.1372 2.09906 23.1457 2.04574 23.1601 1.98352C23.1887 1.85906 23.2677 1.79649 23.3968 1.7958C23.5054 1.79521 23.5606 1.96065 23.5624 2.2921C23.5627 2.35129 23.5543 2.43716 23.5373 2.54971C23.5233 2.66225 23.5163 2.74071 23.5166 2.78511C23.5173 2.92124 23.5828 3.09698 23.7131 3.31232C23.8434 3.52766 23.9644 3.63504 24.0759 3.63444C24.1904 3.63382 24.2737 3.56827 24.3258 3.43777C24.3779 3.30727 24.4036 3.16212 24.4027 3.00231C24.4017 2.81883 24.3848 2.67982 24.352 2.58529C24.3222 2.48779 24.3027 2.42426 24.2938 2.39472C24.2878 2.36516 24.2684 2.31939 24.2358 2.25741C24.2061 2.19246 24.1868 2.15113 24.1779 2.13342C24.1719 2.1157 24.1497 2.07291 24.1112 2.00505C24.0727 1.93718 24.0504 1.89883 24.0445 1.88998C23.9586 1.73951 23.9082 1.65691 23.8935 1.6422C23.9665 1.57965 24.0339 1.54822 24.0955 1.54789C24.2753 1.67714 24.4188 1.88945 24.526 2.18483C24.6332 2.47724 24.6875 2.74478 24.6888 2.98746C24.6901 3.22717 24.6398 3.41685 24.5378 3.55649C24.4387 3.69316 24.282 3.76207 24.0678 3.76322C23.9181 3.76402 23.7755 3.72336 23.6401 3.64122C23.5075 3.5561 23.413 3.44415 23.3565 3.30536Z" fill="white"/>
<path d="M26.1618 0.613429C26.1967 0.548133 26.2611 0.515232 26.355 0.514728C26.3756 0.514618 26.3961 0.517467 26.4167 0.523275C26.4234 0.680093 26.4287 1.11807 26.4326 1.83721C26.4355 1.83423 26.4486 1.82084 26.472 1.79704C26.4983 1.77322 26.5143 1.75834 26.5202 1.75239C26.526 1.74644 26.5406 1.73304 26.564 1.7122C26.5873 1.6884 26.6049 1.67351 26.6166 1.66753C26.6312 1.65857 26.6502 1.64663 26.6736 1.63171C26.697 1.61382 26.7175 1.60188 26.7351 1.59586C26.7526 1.58689 26.7731 1.5779 26.7966 1.5689C26.8405 1.55386 26.8918 1.54619 26.9505 1.54587C27.1677 1.54471 27.3429 1.63551 27.4759 1.81829C27.609 1.9981 27.6761 2.20047 27.6773 2.42538C27.6785 2.6503 27.6459 2.86503 27.5795 3.0696C27.5131 3.2712 27.4098 3.44784 27.2698 3.59953C27.1297 3.75122 26.9657 3.82756 26.7779 3.82857C26.593 3.82957 26.437 3.76086 26.3101 3.62244C26.1861 3.48401 26.1236 3.32601 26.1226 3.14845C26.1217 2.96792 26.1301 2.63641 26.1481 2.15392C26.166 1.66847 26.1744 1.32068 26.1733 1.11056C26.1722 0.897485 26.1683 0.731774 26.1618 0.613429ZM26.8075 3.61089C26.922 3.61028 27.0244 3.55498 27.1148 3.44499C27.2986 3.22796 27.3894 2.92116 27.3873 2.5246C27.3861 2.31152 27.344 2.12382 27.261 1.9615C27.1779 1.79621 27.0615 1.71397 26.9118 1.71477C26.8267 1.71523 26.7521 1.75854 26.688 1.84471C26.6239 1.92792 26.5746 2.03917 26.5401 2.17845C26.474 2.4422 26.4418 2.73536 26.4435 3.05794C26.445 3.33021 26.5017 3.49711 26.6135 3.55866C26.6636 3.58799 26.7283 3.6054 26.8075 3.61089Z" fill="white"/>
<path d="M28.3365 2.8924C28.331 2.95162 28.3282 2.99159 28.3283 3.0123C28.3293 3.18987 28.3829 3.3272 28.4891 3.42429C28.5982 3.52137 28.7261 3.56951 28.8729 3.56873C29.0196 3.56794 29.1384 3.54658 29.2292 3.50466C29.3229 3.46273 29.3901 3.41797 29.431 3.3704C29.5359 3.23666 29.6324 3.16955 29.7205 3.16908C29.7528 3.16891 29.791 3.17758 29.8351 3.1951C29.8065 3.34027 29.6957 3.47404 29.5026 3.59642C29.3125 3.71582 29.0721 3.7763 28.7815 3.77786C28.5761 3.77896 28.3982 3.71481 28.2478 3.5854C28.1003 3.45301 28.026 3.27288 28.0247 3.04501C28.0235 2.81714 28.0664 2.59642 28.1533 2.38287C28.2431 2.16635 28.3712 1.98217 28.5377 1.83034C28.7071 1.67554 28.8784 1.59767 29.0516 1.59674C29.2277 1.5958 29.3688 1.63203 29.4749 1.70545C29.5838 1.77589 29.6387 1.88066 29.6395 2.01975C29.6408 2.27722 29.5275 2.49091 29.2995 2.66083C29.0744 2.82777 28.8341 2.91193 28.5788 2.9133C28.5113 2.91366 28.4305 2.90669 28.3365 2.8924ZM28.6703 2.74411C28.8083 2.74337 28.9313 2.69832 29.0394 2.60895C29.1476 2.51959 29.2234 2.42596 29.2669 2.32806C29.3133 2.23015 29.3363 2.14124 29.3359 2.06134C29.3355 1.98143 29.3043 1.91205 29.2423 1.85319C29.1803 1.79138 29.1083 1.76069 29.0261 1.76113C28.8793 1.76192 28.7434 1.86475 28.6183 2.06963C28.4961 2.27449 28.4092 2.48656 28.3575 2.70584C28.4868 2.73178 28.5911 2.74454 28.6703 2.74411Z" fill="white"/>
<path d="M31.8341 0.218952C31.728 1.23759 31.6761 1.96442 31.6785 2.39946C31.6808 2.83153 31.7227 3.26339 31.8043 3.69504C31.7459 3.75454 31.6947 3.78441 31.6507 3.78465C31.6067 3.78489 31.5699 3.77916 31.5405 3.76748C31.4777 3.54882 31.4398 3.31078 31.4266 3.05338C31.3568 3.16621 31.3044 3.2464 31.2694 3.29394C31.2374 3.34147 31.1805 3.41132 31.0988 3.5035C30.9501 3.68187 30.773 3.77161 30.5675 3.77271C30.412 3.77354 30.2986 3.70165 30.2274 3.55701C30.1591 3.4094 30.1243 3.22166 30.1231 2.99379C30.1218 2.76296 30.1456 2.54382 30.1944 2.3364C30.2461 2.126 30.3347 1.94499 30.4601 1.79338C30.5854 1.63882 30.7406 1.56104 30.9255 1.56004C31.037 1.55944 31.1399 1.58257 31.2341 1.62941C31.3282 1.67626 31.3932 1.73954 31.4288 1.81926C31.4342 1.73932 31.4395 1.61647 31.4444 1.45072C31.4494 1.28496 31.4545 1.13843 31.4597 1.01115C31.4678 0.880887 31.4803 0.749122 31.4972 0.615854C31.528 0.331577 31.5991 0.18914 31.7106 0.188541C31.7488 0.188336 31.7899 0.198473 31.8341 0.218952ZM31.3284 1.97961C31.2928 1.91469 31.2442 1.8676 31.1824 1.83834C31.1205 1.80611 31.0383 1.79028 30.9355 1.79083C30.8357 1.79137 30.7421 1.84958 30.6547 1.96547C30.4828 2.19427 30.3979 2.52471 30.4003 2.95679C30.401 3.09588 30.4238 3.23485 30.4685 3.37371C30.5133 3.50961 30.5782 3.57733 30.6634 3.57687C30.7866 3.57621 30.9065 3.49418 31.0231 3.33078C31.1396 3.16738 31.2296 2.98045 31.293 2.76998C31.3565 2.55656 31.3877 2.3655 31.3868 2.19682C31.3864 2.11691 31.3669 2.04451 31.3284 1.97961Z" fill="white"/>
<path d="M33.3743 1.99082C33.3475 1.92289 33.2973 1.86989 33.2237 1.83181C33.1501 1.79374 33.059 1.77499 32.9504 1.77557C32.8418 1.77615 32.7393 1.80926 32.6428 1.87489C32.5492 1.9405 32.5027 2.02805 32.5033 2.13755C32.5039 2.24705 32.5484 2.33412 32.6368 2.39875C32.7281 2.46041 32.837 2.50718 32.9633 2.53905C33.0927 2.57091 33.222 2.60573 33.3513 2.64351C33.4807 2.67833 33.5896 2.73842 33.6781 2.82377C33.7696 2.90614 33.8156 3.01539 33.8164 3.15153C33.8174 3.34981 33.7361 3.50118 33.5722 3.60564C33.4114 3.71009 33.2165 3.76292 32.9875 3.76415C32.8525 3.76488 32.6747 3.72884 32.4542 3.65604C32.2366 3.58322 32.1275 3.49502 32.127 3.39144C32.1266 3.31449 32.1909 3.27568 32.3201 3.27498C32.3582 3.27478 32.4083 3.29818 32.4702 3.3452C32.6587 3.48329 32.8514 3.5518 33.048 3.55075C33.1537 3.55018 33.2446 3.53193 33.3207 3.49601C33.4612 3.42719 33.5311 3.31731 33.5303 3.16638C33.5298 3.07464 33.4839 3.0009 33.3926 2.94516C33.3042 2.8894 33.1954 2.84559 33.0661 2.81373C32.9397 2.78186 32.8118 2.74703 32.6825 2.70925C32.5531 2.67147 32.4427 2.60844 32.3512 2.52014C32.2627 2.42887 32.218 2.31369 32.2173 2.1746C32.2163 1.99408 32.2963 1.84715 32.4571 1.73383C32.6179 1.6205 32.8172 1.5632 33.055 1.56193C33.2164 1.56106 33.3619 1.60319 33.4915 1.68832C33.624 1.77048 33.6907 1.89146 33.6916 2.05126C33.6922 2.1578 33.6323 2.2114 33.5119 2.21204C33.462 2.21231 33.4282 2.20361 33.4105 2.18595C33.3958 2.16827 33.3868 2.13725 33.3836 2.09287C33.3834 2.04552 33.3802 2.0115 33.3743 1.99082Z" fill="white"/>
<path d="M35.5198 3.78607C35.467 3.78635 35.4382 3.33814 35.4334 2.44144C35.4313 2.06264 35.4286 1.83329 35.4253 1.7534L35.3372 1.75388C35.2961 1.7541 35.2638 1.75427 35.2404 1.7544C35.2169 1.75156 35.186 1.75025 35.1479 1.75045C35.1126 1.74768 35.0833 1.7434 35.0598 1.73761C35.0392 1.7318 35.0171 1.72452 34.9936 1.71577C34.9495 1.69825 34.9273 1.66729 34.9271 1.6229C34.9268 1.56667 35.0176 1.53807 35.1996 1.53709C35.2788 1.53667 35.3507 1.53924 35.4153 1.54481C35.418 1.48561 35.419 1.41014 35.4185 1.31839C35.421 1.22368 35.4235 1.15116 35.4262 1.10083C35.4288 1.04755 35.4314 0.983902 35.434 0.909901C35.4394 0.835884 35.4465 0.778137 35.455 0.736658C35.4666 0.695163 35.481 0.649213 35.4983 0.598808C35.5157 0.545444 35.5389 0.505366 35.5681 0.478574C35.5973 0.451782 35.6309 0.424966 35.669 0.398126C35.7362 0.347454 35.8476 0.3217 36.0032 0.320864C36.1617 0.320013 36.2778 0.359343 36.3516 0.438853C36.4283 0.515388 36.4966 0.646719 36.5563 0.832847C36.5125 0.886353 36.4613 0.913263 36.4026 0.913578C36.382 0.913689 36.3615 0.91084 36.3409 0.905031C36.2873 0.763263 36.2384 0.667342 36.1941 0.617269C36.1527 0.567179 36.0953 0.542332 36.022 0.542726C35.9486 0.54312 35.8929 0.556736 35.8549 0.583576C35.8198 0.6104 35.7921 0.644583 35.7718 0.686125C35.7282 0.775144 35.7074 0.989819 35.7092 1.33015C35.7093 1.34495 35.7094 1.37158 35.7096 1.41006C35.7098 1.44853 35.71 1.48404 35.7102 1.51659L36.0842 1.47907C36.231 1.47828 36.3045 1.51192 36.3049 1.57999C36.3051 1.62438 36.2701 1.65416 36.1997 1.66934C36.1294 1.68451 36.0399 1.69387 35.9313 1.69742C35.8257 1.70094 35.7523 1.71022 35.7113 1.72523C35.7059 1.80813 35.7035 1.91764 35.7043 2.05377C35.705 2.18695 35.7135 2.39999 35.7297 2.69289C35.7459 2.98283 35.7545 3.20475 35.7553 3.35864C35.7561 3.51253 35.7406 3.62211 35.7086 3.68739C35.6796 3.75266 35.6167 3.78555 35.5198 3.78607Z" fill="white"/>
<path d="M36.6449 1.90667C36.7934 1.67503 37.0085 1.55845 37.2903 1.55694C37.572 1.55543 37.7972 1.66964 37.9657 1.89958C38.1372 2.1295 38.2237 2.39243 38.2253 2.68837C38.2269 2.98135 38.1358 3.23044 37.952 3.43563C37.7681 3.64082 37.5339 3.74418 37.2492 3.74571C36.9645 3.74724 36.7571 3.66845 36.6271 3.50933C36.4971 3.34726 36.4313 3.11973 36.4297 2.82675C36.4277 2.44498 36.4994 2.13829 36.6449 1.90667ZM36.8399 2.1409C36.8024 2.25652 36.7736 2.3721 36.7537 2.48762C36.7367 2.60314 36.7285 2.7112 36.729 2.81182C36.7296 2.90948 36.7374 2.99971 36.7525 3.08249C36.7676 3.16232 36.793 3.24209 36.8286 3.3218C36.8643 3.39856 36.9174 3.46042 36.9881 3.50739C37.0588 3.5514 37.1426 3.57315 37.2394 3.57263C37.4361 3.57158 37.6 3.48931 37.7312 3.32583C37.8654 3.16234 37.9318 2.96518 37.9306 2.73434C37.9293 2.50351 37.8665 2.2804 37.7421 2.06503C37.6206 1.84668 37.4717 1.73798 37.2956 1.73892C37.19 1.73949 37.0977 1.77698 37.0189 1.85139C36.94 1.9258 36.8804 2.0223 36.8399 2.1409Z" fill="white"/>
<path d="M39.0926 3.30076L39.1072 3.55372C39.1075 3.61883 39.0887 3.6648 39.0507 3.69164C39.0156 3.71551 38.9789 3.72754 38.9408 3.72775C38.9056 3.72794 38.8688 3.72221 38.8306 3.71058C38.7642 3.36764 38.712 2.94027 38.674 2.42848C38.639 1.91668 38.6184 1.62676 38.6121 1.55872C38.6559 1.51705 38.7013 1.49609 38.7483 1.49584C38.7982 1.49557 38.8422 1.50126 38.8805 1.51289C38.8927 1.59865 38.9025 1.788 38.9099 2.08095C38.9174 2.3739 38.9257 2.55735 38.9349 2.63129C38.9747 2.38247 39.0468 2.14977 39.1513 1.93316C39.2093 1.81151 39.2851 1.71492 39.3787 1.64339C39.4751 1.56889 39.5777 1.53134 39.6863 1.53076C39.7978 1.53016 39.8993 1.57993 39.9909 1.68006C40.0853 1.77721 40.1327 1.86574 40.1332 1.94565C40.1333 1.97524 40.1159 1.99901 40.0807 2.01696C40.0456 2.03194 40.006 2.03955 39.962 2.03979C39.9209 2.04001 39.8885 2.02391 39.8649 1.99148C39.8412 1.95905 39.8249 1.92363 39.8159 1.8852C39.8068 1.84382 39.7875 1.80693 39.758 1.77453C39.7285 1.74214 39.6888 1.72607 39.6389 1.72634C39.5068 1.72705 39.3944 1.84751 39.3018 2.08773C39.1599 2.44659 39.0902 2.85093 39.0926 3.30076Z" fill="white"/>
<path d="M41.7498 0.427623C41.7538 0.634766 41.7561 0.790127 41.7567 0.893707C41.7572 0.994327 41.7563 1.09495 41.7539 1.19559C41.7544 1.29621 41.7511 1.49156 41.7438 1.78162C41.7366 2.06873 41.7319 2.29664 41.7299 2.46534C41.841 2.3878 41.9739 2.26871 42.1286 2.10806C42.2833 1.94446 42.4235 1.80461 42.549 1.68852C42.7477 1.50692 42.8897 1.45141 42.9752 1.52198C43.0077 1.54844 43.0181 1.57354 43.0064 1.59728C42.9774 1.65958 42.9103 1.73541 42.8051 1.82476C42.7029 1.91409 42.5816 2.01537 42.4413 2.12858C42.3011 2.24179 42.1901 2.34597 42.1084 2.44111C42.3228 2.46956 42.4952 2.58997 42.6255 2.80236C42.6818 2.89972 42.7366 2.99709 42.7899 3.09446C42.9263 3.35121 43.074 3.52502 43.233 3.61591C43.1746 3.67542 43.1073 3.70537 43.031 3.70578C42.9547 3.70619 42.8781 3.66961 42.8014 3.59604C42.7277 3.52244 42.6626 3.43253 42.6063 3.32629C42.5529 3.22003 42.498 3.11379 42.4417 3.00755C42.3141 2.75076 42.1666 2.62281 41.9993 2.62371C41.9201 2.62413 41.8527 2.65113 41.7972 2.7047C41.7417 2.75531 41.7141 2.80873 41.7144 2.86496C41.7163 3.22009 41.7119 3.48351 41.7011 3.65522C41.6603 3.71166 41.6164 3.74002 41.5694 3.74027C41.5548 3.74035 41.5386 3.73747 41.521 3.73165C41.4562 3.70536 41.4237 3.65079 41.4232 3.56792C41.4257 3.48504 41.4332 3.23345 41.4456 2.81313C41.4721 1.73869 41.4845 1.05202 41.4829 0.753121C41.4822 0.614029 41.4949 0.520736 41.5211 0.473244C41.5502 0.425736 41.5838 0.401879 41.6219 0.401674C41.663 0.401454 41.7056 0.410103 41.7498 0.427623Z" fill="white"/>
<path d="M43.7825 0.443343C43.78 0.511426 43.7789 0.586898 43.7793 0.669762C43.7798 0.752625 43.7847 0.838425 43.7939 0.92716C43.7531 0.974731 43.6975 0.998706 43.627 0.999084C43.539 0.999557 43.4946 0.928767 43.4938 0.786716C43.4938 0.780797 43.4936 0.758601 43.4934 0.720129C43.4932 0.681657 43.493 0.647623 43.4929 0.618029C43.4956 0.58546 43.5013 0.548436 43.5099 0.506957C43.5301 0.43582 43.5754 0.400063 43.6458 0.399685C43.7163 0.399307 43.7618 0.41386 43.7825 0.443343ZM43.5124 2.62002C43.5093 2.03998 43.5369 1.70541 43.5951 1.61631C43.6155 1.58365 43.6403 1.56724 43.6697 1.56708C43.699 1.56692 43.7476 1.58294 43.8152 1.61513C43.8019 1.86676 43.7961 2.14054 43.7976 2.43648C43.7976 2.43648 43.8023 2.76348 43.8117 3.41748C43.8122 3.50922 43.792 3.57444 43.7511 3.61313C43.7132 3.64885 43.6766 3.6668 43.6413 3.66699C43.6091 3.66717 43.5753 3.65847 43.5399 3.6409C43.5232 3.25626 43.514 2.91596 43.5124 2.62002Z" fill="white"/>
<path d="M46.0052 0.142857C45.8991 1.16149 45.8473 1.88833 45.8496 2.32336C45.8519 2.75544 45.8939 3.1873 45.9754 3.61895C45.917 3.67845 45.8658 3.70832 45.8218 3.70856C45.7778 3.70879 45.7411 3.70307 45.7117 3.69139C45.6488 3.47272 45.6109 3.23469 45.5978 2.97728C45.5279 3.09012 45.4755 3.17031 45.4405 3.21785C45.4085 3.26537 45.3516 3.33522 45.27 3.42741C45.1212 3.60578 44.9441 3.69551 44.7387 3.69661C44.5831 3.69745 44.4697 3.62555 44.3985 3.48092C44.3302 3.33331 44.2954 3.14557 44.2942 2.91769C44.293 2.68686 44.3167 2.46773 44.3655 2.2603C44.4172 2.0499 44.5058 1.8689 44.6312 1.71729C44.7566 1.56272 44.9117 1.48494 45.0966 1.48395C45.2081 1.48335 45.311 1.50647 45.4052 1.55332C45.4994 1.60017 45.5643 1.66345 45.5999 1.74316C45.6054 1.66323 45.6106 1.54038 45.6156 1.37462C45.6205 1.20886 45.6256 1.06234 45.6308 0.935053C45.6389 0.804792 45.6514 0.673027 45.6683 0.539759C45.6991 0.255482 45.7702 0.113045 45.8818 0.112446C45.9199 0.112241 45.9611 0.122378 46.0052 0.142857ZM45.4995 1.90351C45.464 1.8386 45.4153 1.7915 45.3535 1.76224C45.2917 1.73002 45.2094 1.71418 45.1067 1.71474C45.0069 1.71527 44.9133 1.77348 44.8258 1.88937C44.6539 2.11818 44.5691 2.44862 44.5714 2.88069C44.5721 3.01978 44.5949 3.15876 44.6397 3.29761C44.6844 3.43351 44.7494 3.50123 44.8345 3.50077C44.9577 3.50011 45.0776 3.41808 45.1942 3.25468C45.3107 3.09129 45.4007 2.90435 45.4641 2.69389C45.5276 2.48046 45.5588 2.28941 45.5579 2.12072C45.5575 2.04082 45.538 1.96842 45.4995 1.90351Z" fill="white"/>
<path d="M47.5454 1.91472C47.5186 1.8468 47.4684 1.7938 47.3948 1.75572C47.3212 1.71764 47.2301 1.69889 47.1215 1.69948C47.013 1.70006 46.9104 1.73317 46.8139 1.79879C46.7203 1.8644 46.6738 1.95196 46.6744 2.06146C46.675 2.17095 46.7195 2.25802 46.8079 2.32266C46.8992 2.38431 47.0081 2.43108 47.1345 2.46296C47.2638 2.49482 47.3931 2.52964 47.5225 2.56742C47.6518 2.60224 47.7607 2.66232 47.8492 2.74767C47.9407 2.83004 47.9868 2.9393 47.9875 3.07543C47.9886 3.27371 47.9072 3.42508 47.7434 3.52955C47.5825 3.63399 47.3876 3.68683 47.1586 3.68806C47.0236 3.68878 46.8459 3.65274 46.6253 3.57994C46.4077 3.50712 46.2987 3.41892 46.2981 3.31534C46.2977 3.2384 46.3621 3.19958 46.4912 3.19889C46.5294 3.19868 46.5794 3.22209 46.6413 3.26911C46.8299 3.40719 47.0225 3.47571 47.2191 3.47465C47.3248 3.47408 47.4157 3.45584 47.4918 3.41992C47.6323 3.35109 47.7022 3.24122 47.7014 3.09029C47.7009 2.99854 47.655 2.9248 47.5637 2.86906C47.4754 2.81331 47.3665 2.7695 47.2372 2.73764C47.1108 2.70576 46.9829 2.67094 46.8536 2.63316C46.7242 2.59538 46.6138 2.53234 46.5224 2.44405C46.4338 2.35278 46.3892 2.2376 46.3884 2.09851C46.3875 1.91798 46.4674 1.77106 46.6282 1.65773C46.789 1.54441 46.9883 1.48711 47.2261 1.48583C47.3875 1.48497 47.533 1.5271 47.6626 1.61223C47.7952 1.69438 47.8618 1.81536 47.8627 1.97517C47.8633 2.08171 47.8034 2.1353 47.683 2.13595C47.6332 2.13621 47.5994 2.12752 47.5816 2.10986C47.5669 2.09218 47.5579 2.06115 47.5547 2.01678C47.5545 1.96943 47.5514 1.93541 47.5454 1.91472Z" fill="white"/>
</svg>
