<svg width="49" height="5" viewBox="0 0 49 5" fill="none" xmlns="http://www.w3.org/2000/svg">
<path d="M0.821868 2.45568C0.819374 1.99137 0.79799 1.58223 0.757713 1.22826C0.757218 1.13599 0.795161 1.05543 0.871542 0.986559C0.947924 0.917692 1.04948 0.865059 1.17622 0.828662C1.42973 0.76182 1.70851 0.727583 2.01256 0.72595C2.40516 0.723842 2.7141 0.809987 2.93939 0.984385C3.16761 1.15579 3.28269 1.42156 3.28462 1.78169C3.28655 2.14183 3.14346 2.43131 2.85534 2.65013C2.56723 2.86896 2.21506 2.97949 1.79884 2.98172C1.58631 2.98286 1.3632 2.93942 1.12952 2.85138C1.11553 2.99432 1.10919 3.18782 1.1105 3.43188L1.1161 3.65061C1.11648 3.72205 1.11541 3.79646 1.11287 3.87386C1.09822 3.89478 1.08207 3.90974 1.06441 3.91877C1.04674 3.92779 1.03349 3.93382 1.02465 3.93684C1.01878 3.94282 1.00847 3.94734 0.993728 3.9504C0.978985 3.95345 0.968661 3.955 0.962757 3.95503C0.945078 3.96108 0.924431 3.96417 0.900816 3.96429L0.825543 3.9647C0.81844 3.7415 0.81441 3.54062 0.813451 3.36204L0.821868 2.45568ZM1.11894 2.52998C1.33521 2.67467 1.59389 2.7462 1.89498 2.74458C2.19606 2.73999 2.44942 2.64487 2.65506 2.45923C2.86069 2.27061 2.96277 2.04088 2.96132 1.77004C2.95986 1.49919 2.85251 1.29737 2.63925 1.16458C2.426 1.03179 2.1703 0.966191 1.87216 0.967792C1.57697 0.969377 1.3161 1.03924 1.08954 1.17737C1.10533 1.37075 1.11514 1.82162 1.11894 2.52998Z" fill="white"/>
<path d="M4.10338 3.43813L4.11803 3.69253C4.11838 3.75801 4.09944 3.80425 4.06121 3.83124C4.02592 3.85524 3.98908 3.86735 3.95071 3.86755C3.91528 3.86774 3.87835 3.86199 3.83992 3.85029C3.77312 3.50538 3.72063 3.07558 3.68244 2.56086C3.64721 2.04614 3.62645 1.75456 3.62018 1.68614C3.66424 1.64423 3.70988 1.62315 3.75711 1.6229C3.80729 1.62263 3.8516 1.62834 3.89004 1.64004C3.90231 1.72629 3.91219 1.91673 3.91967 2.21135C3.92716 2.50597 3.93553 2.69047 3.94479 2.76483C3.98477 2.51459 4.05731 2.28056 4.16241 2.06272C4.2208 1.94037 4.29703 1.84323 4.3911 1.77129C4.48812 1.69636 4.59123 1.6586 4.70045 1.65801C4.81262 1.65741 4.91473 1.70746 5.00679 1.80816C5.10177 1.90588 5.14948 1.99491 5.14992 2.07527C5.15008 2.10503 5.13249 2.12894 5.09716 2.14699C5.06182 2.16206 5.02201 2.16972 4.97773 2.16995C4.93641 2.17017 4.90385 2.15398 4.88006 2.12137C4.85627 2.08875 4.83984 2.05313 4.83078 2.01448C4.8217 1.97286 4.80231 1.93576 4.77262 1.90318C4.74292 1.8706 4.70298 1.85444 4.6528 1.85471C4.51997 1.85542 4.40697 1.97658 4.3138 2.21816C4.17109 2.57908 4.10095 2.98573 4.10338 3.43813Z" fill="white"/>
<path d="M5.55932 2.01503C5.70862 1.78207 5.92496 1.66483 6.20834 1.66331C6.49172 1.66179 6.71816 1.77665 6.88766 2.0079C7.06012 2.23913 7.14715 2.50357 7.14875 2.8012C7.15033 3.09585 7.05869 3.34636 6.87382 3.55273C6.68895 3.75909 6.45335 3.86304 6.16702 3.86458C5.88069 3.86612 5.67215 3.78688 5.5414 3.62685C5.41064 3.46385 5.34447 3.23502 5.34289 2.94037C5.34083 2.55642 5.41297 2.24798 5.55932 2.01503ZM5.75541 2.2506C5.71766 2.36689 5.68876 2.48312 5.66872 2.59931C5.65164 2.71548 5.64336 2.82416 5.64391 2.92536C5.64443 3.02358 5.6523 3.11431 5.66751 3.19757C5.6827 3.27785 5.70822 3.35808 5.74408 3.43825C5.77991 3.51544 5.83338 3.57766 5.90449 3.6249C5.97557 3.66917 6.05982 3.69104 6.15723 3.69051C6.35501 3.68945 6.51987 3.60672 6.65183 3.4423C6.78674 3.27788 6.85357 3.07959 6.85232 2.84744C6.85107 2.61528 6.78788 2.3909 6.66273 2.1743C6.54052 1.9547 6.39086 1.84538 6.21375 1.84633C6.10748 1.8469 6.0147 1.8846 5.93539 1.95944C5.85609 2.03427 5.7961 2.13133 5.75541 2.2506Z" fill="white"/>
<path d="M7.35246 1.71074C7.37872 1.65405 7.43613 1.62546 7.52469 1.62499C7.56306 1.62478 7.59558 1.63354 7.62224 1.65125C7.70613 1.87998 7.78854 2.11021 7.86949 2.34194C8.02232 2.76674 8.16434 3.10231 8.29555 3.34865C8.35559 2.98521 8.47318 2.61848 8.64831 2.24846C8.82639 1.87843 8.98923 1.69302 9.13682 1.69223C9.1811 1.69199 9.22544 1.70217 9.26983 1.72277C8.93277 2.17401 8.69244 2.77059 8.54882 3.51248C8.52023 3.68527 8.48829 3.78366 8.45299 3.80766C8.41476 3.83465 8.37498 3.84826 8.33366 3.84848C8.29233 3.8487 8.25981 3.83995 8.2361 3.82222C8.21534 3.80447 8.19901 3.7867 8.18711 3.76891C8.17816 3.7511 8.16471 3.7214 8.14678 3.67983C8.1318 3.63824 8.11984 3.61003 8.1109 3.5952C7.80676 3.02834 7.55394 2.40018 7.35246 1.71074Z" fill="white"/>
<path d="M9.85789 0.558814C9.85531 0.627285 9.85424 0.703189 9.85469 0.786525C9.85513 0.869862 9.86002 0.956152 9.86936 1.04539C9.82829 1.09324 9.77233 1.11735 9.70149 1.11773C9.61293 1.1182 9.56827 1.04701 9.5675 0.904147C9.56747 0.898195 9.56735 0.875872 9.56714 0.83718C9.56693 0.798488 9.56675 0.76426 9.56659 0.734497C9.56937 0.701742 9.57507 0.664506 9.5837 0.62279C9.60398 0.551248 9.64954 0.515286 9.72039 0.514906C9.79123 0.514525 9.83707 0.529161 9.85789 0.558814ZM9.58626 2.74793C9.58312 2.16457 9.61084 1.82809 9.6694 1.73848C9.68988 1.70563 9.71489 1.68913 9.7444 1.68897C9.77392 1.68881 9.82272 1.70492 9.89079 1.73729C9.87739 1.99036 9.87148 2.26571 9.87308 2.56334C9.87308 2.56334 9.8778 2.89221 9.88724 3.54994C9.88773 3.64221 9.86742 3.7078 9.8263 3.74671C9.78812 3.78263 9.75132 3.80069 9.71589 3.80088C9.68342 3.80105 9.64943 3.79231 9.61391 3.77464C9.59707 3.3878 9.58785 3.04556 9.58626 2.74793Z" fill="white"/>
<path d="M12.0932 0.256611C11.9866 1.28107 11.9344 2.01205 11.9368 2.44957C11.9391 2.88411 11.9813 3.31844 12.0633 3.75256C12.0046 3.8124 11.9531 3.84244 11.9088 3.84268C11.8645 3.84292 11.8276 3.83716 11.798 3.82541C11.7349 3.6055 11.6967 3.3661 11.6835 3.10723C11.6132 3.22071 11.5605 3.30135 11.5254 3.34917C11.4932 3.39696 11.436 3.46721 11.3538 3.55992C11.2042 3.73931 11.0261 3.82956 10.8195 3.83067C10.663 3.83151 10.549 3.7592 10.4774 3.61374C10.4087 3.46529 10.3737 3.27648 10.3725 3.0473C10.3712 2.81515 10.3951 2.59476 10.4442 2.38615C10.4962 2.17455 10.5853 1.99251 10.7114 1.84004C10.8375 1.68459 10.9935 1.60636 11.1795 1.60536C11.2916 1.60476 11.3951 1.62802 11.4898 1.67513C11.5845 1.72224 11.6498 1.78589 11.6857 1.86606C11.6911 1.78566 11.6964 1.66212 11.7014 1.49541C11.7064 1.32871 11.7115 1.18135 11.7167 1.05333C11.7249 0.922327 11.7374 0.789809 11.7544 0.65578C11.7854 0.36988 11.8569 0.226628 11.9691 0.226026C12.0075 0.22582 12.0489 0.236015 12.0932 0.256611ZM11.5847 2.02732C11.5489 1.96204 11.5 1.91468 11.4378 1.88525C11.3756 1.85284 11.2929 1.83691 11.1896 1.83747C11.0892 1.83801 10.9951 1.89655 10.9071 2.0131C10.7342 2.24322 10.6489 2.57554 10.6512 3.01009C10.652 3.14997 10.6749 3.28974 10.7199 3.42939C10.7649 3.56606 10.8302 3.63417 10.9158 3.63371C11.0398 3.63304 11.1604 3.55054 11.2776 3.38621C11.3948 3.22188 11.4853 3.03388 11.5491 2.82222C11.6129 2.60757 11.6443 2.41543 11.6434 2.24578C11.643 2.16541 11.6234 2.0926 11.5847 2.02732Z" fill="white"/>
<path d="M12.8372 0.542816C12.8346 0.611287 12.8335 0.687191 12.834 0.770528C12.8344 0.853865 12.8393 0.940154 12.8486 1.0294C12.8076 1.07724 12.7516 1.10135 12.6808 1.10173C12.5922 1.10221 12.5475 1.03101 12.5468 0.888149C12.5467 0.882197 12.5466 0.859875 12.5464 0.821182C12.5462 0.78249 12.546 0.748263 12.5459 0.718499C12.5486 0.685744 12.5543 0.648509 12.563 0.606792C12.5833 0.53525 12.6288 0.499288 12.6997 0.498908C12.7705 0.498528 12.8163 0.513164 12.8372 0.542816ZM12.5655 2.73193C12.5624 2.14857 12.5901 1.81209 12.6487 1.72248C12.6692 1.68963 12.6942 1.67313 12.7237 1.67297C12.7532 1.67281 12.802 1.68892 12.8701 1.72129C12.8567 1.97436 12.8508 2.24971 12.8524 2.54734C12.8524 2.54734 12.8571 2.87621 12.8665 3.53394C12.867 3.62621 12.8467 3.6918 12.8056 3.73071C12.7674 3.76663 12.7306 3.78469 12.6952 3.78488C12.6627 3.78505 12.6287 3.77631 12.5932 3.75864C12.5763 3.3718 12.5671 3.02956 12.5655 2.73193Z" fill="white"/>
<path d="M15.246 3.69082C15.1932 3.74766 15.1328 3.77626 15.0649 3.77662C14.938 3.7773 14.8432 3.70935 14.7805 3.57278C14.7177 3.4362 14.6799 3.26972 14.6671 3.07335C14.6572 2.87696 14.6502 2.68055 14.6462 2.48413C14.6422 2.28771 14.6251 2.12113 14.5948 1.98437C14.5675 1.84761 14.5155 1.77943 14.4387 1.77984C14.3354 1.78039 14.2474 1.87462 14.1746 2.06253C14.1047 2.25042 14.0557 2.45903 14.0274 2.68836C13.9482 3.32872 13.8704 3.68779 13.7941 3.76559C13.7411 3.79266 13.6954 3.8063 13.657 3.8065C13.6186 3.80671 13.5861 3.80242 13.5595 3.79363C13.4961 3.52014 13.4537 3.04861 13.4324 2.37904C13.4247 2.04572 13.4176 1.82997 13.4112 1.73178C13.473 1.68978 13.526 1.66866 13.5703 1.66842C13.6145 1.66819 13.65 1.67246 13.6766 1.68125C13.692 1.80915 13.7008 2.07103 13.703 2.46688C13.708 2.86271 13.7122 3.09038 13.7155 3.14989C13.7299 3.08731 13.7471 2.98602 13.767 2.84602C13.7898 2.70601 13.8099 2.59131 13.8271 2.50193C13.8443 2.40956 13.8718 2.30227 13.9095 2.18003C13.9472 2.0578 13.9895 1.96084 14.0364 1.88915C14.0832 1.81449 14.1478 1.75164 14.2302 1.7006C14.3126 1.64658 14.4054 1.61929 14.5087 1.61874C14.6475 1.61799 14.7482 1.68145 14.8108 1.80909C14.8765 1.93375 14.9127 2.08982 14.9196 2.27729C14.9265 2.46477 14.9305 2.65524 14.9315 2.8487C14.9355 3.04214 14.9601 3.21911 15.0052 3.37959C15.0533 3.54006 15.1336 3.6438 15.246 3.69082Z" fill="white"/>
<path d="M16.2956 1.57789C16.5642 1.57645 16.7507 1.68557 16.8552 1.90527C16.9119 2.02104 16.9583 2.13092 16.9943 2.2349C17.0303 2.33888 17.0546 2.48162 17.0674 2.66311C17.0866 2.93981 17.0972 3.25525 17.0991 3.60944C17.101 3.96064 17.0183 4.24087 16.8512 4.45011C16.687 4.66232 16.4441 4.76929 16.1223 4.77101C15.8035 4.77272 15.5373 4.66998 15.3236 4.46278C15.3823 4.40294 15.4456 4.37283 15.5135 4.37247C15.5844 4.37209 15.6805 4.40134 15.8018 4.46021C15.9261 4.52205 16.0577 4.55259 16.1964 4.55185C16.3351 4.5511 16.4501 4.51775 16.5412 4.45178C16.6324 4.38878 16.6998 4.29913 16.7435 4.18281C16.8162 3.97705 16.8517 3.72387 16.8501 3.42326C16.8499 3.37861 16.8445 3.21345 16.8342 2.92777C16.7558 3.17226 16.6432 3.37526 16.4965 3.53677C16.3497 3.69531 16.1834 3.77508 15.9974 3.77608C15.8114 3.77708 15.6737 3.69448 15.5843 3.52828C15.4978 3.35909 15.4539 3.16735 15.4528 2.95305C15.4516 2.73876 15.48 2.53025 15.538 2.32755C15.5959 2.12187 15.6909 1.94575 15.823 1.79919C15.955 1.65264 16.1125 1.57887 16.2956 1.57789ZM15.8298 2.25901C15.7922 2.39018 15.7648 2.51384 15.7477 2.63001C15.7306 2.74619 15.7224 2.8638 15.723 2.98285C15.7237 3.09893 15.748 3.22827 15.796 3.37088C15.8469 3.51347 15.9196 3.58452 16.0141 3.58401C16.2001 3.58301 16.3646 3.44224 16.5077 3.16169C16.6509 2.87816 16.7217 2.59353 16.7201 2.30781C16.7196 2.20959 16.6733 2.09971 16.5811 1.97817C16.4919 1.85364 16.3794 1.79174 16.2436 1.79247C16.1491 1.79298 16.0652 1.83808 15.9919 1.92776C15.9215 2.01743 15.8675 2.12785 15.8298 2.25901Z" fill="white"/>
<path d="M20.4133 3.66307C20.3604 3.71991 20.3001 3.74851 20.2322 3.74887C20.1052 3.74955 20.0104 3.68161 19.9477 3.54503C19.885 3.40845 19.8472 3.24198 19.8343 3.0456C19.8244 2.84921 19.8174 2.65281 19.8134 2.45639C19.8094 2.25997 19.7923 2.09338 19.7621 1.95663C19.7347 1.81986 19.6827 1.75168 19.606 1.75209C19.5027 1.75265 19.4146 1.84688 19.3418 2.03478C19.272 2.22267 19.2229 2.43128 19.1946 2.66062C19.1154 3.30097 19.0376 3.66004 18.9613 3.73784C18.9083 3.76491 18.8626 3.77855 18.8243 3.77876C18.7859 3.77896 18.7534 3.77467 18.7268 3.76589C18.6633 3.4924 18.6209 3.02087 18.5996 2.35129C18.5919 2.01797 18.5849 1.80222 18.5784 1.70404C18.6402 1.66203 18.6932 1.64092 18.7375 1.64068C18.7818 1.64044 18.8172 1.64471 18.8438 1.6535C18.8593 1.7814 18.8681 2.04328 18.8702 2.43913C18.8753 2.83496 18.8794 3.06264 18.8827 3.12215C18.8971 3.05956 18.9143 2.95827 18.9342 2.81828C18.9571 2.67826 18.9771 2.56356 18.9944 2.47418C19.0116 2.38182 19.039 2.27452 19.0768 2.15228C19.1145 2.03005 19.1568 1.93309 19.2036 1.8614C19.2504 1.78674 19.3151 1.72389 19.3974 1.67285C19.4798 1.61883 19.5726 1.59155 19.676 1.59099C19.8147 1.59025 19.9154 1.6537 19.9781 1.78135C20.0437 1.906 20.08 2.06207 20.0869 2.24955C20.0938 2.43702 20.0978 2.62749 20.0988 2.82095C20.1028 3.0144 20.1273 3.19136 20.1725 3.35184C20.2206 3.51231 20.3008 3.61605 20.4133 3.66307Z" fill="white"/>
<path d="M20.9209 2.87904C20.9153 2.9386 20.9125 2.9788 20.9127 2.99963C20.9136 3.17821 20.9675 3.31632 21.0743 3.41397C21.184 3.5116 21.3127 3.56002 21.4603 3.55923C21.6079 3.55844 21.7273 3.53696 21.8186 3.4948C21.9129 3.45263 21.9805 3.40762 22.0216 3.35977C22.1271 3.22527 22.2242 3.15778 22.3127 3.1573C22.3452 3.15713 22.3836 3.16585 22.428 3.18347C22.3993 3.32947 22.2878 3.46401 22.0936 3.58708C21.9024 3.70716 21.6607 3.76799 21.3684 3.76956C21.1618 3.77067 20.9829 3.70615 20.8316 3.576C20.6833 3.44286 20.6085 3.2617 20.6073 3.03252C20.6061 2.80335 20.6492 2.58137 20.7366 2.3666C20.8269 2.14884 20.9558 1.96361 21.1232 1.81092C21.2936 1.65523 21.4659 1.57692 21.6401 1.57598C21.8172 1.57503 21.9591 1.61147 22.0657 1.68531C22.1753 1.75616 22.2305 1.86152 22.2313 2.00141C22.2326 2.26035 22.1187 2.47526 21.8893 2.64615C21.6629 2.81404 21.4213 2.89868 21.1645 2.90006C21.0966 2.90042 21.0154 2.89342 20.9209 2.87904ZM21.2566 2.72991C21.3953 2.72916 21.5191 2.68385 21.6278 2.59398C21.7365 2.5041 21.8128 2.40993 21.8565 2.31148C21.9032 2.21301 21.9264 2.12359 21.926 2.04323C21.9255 1.96287 21.8941 1.89309 21.8318 1.8339C21.7695 1.77173 21.697 1.74087 21.6144 1.74131C21.4668 1.7421 21.3301 1.84552 21.2042 2.05157C21.0814 2.2576 20.9939 2.47088 20.942 2.69142C21.072 2.7175 21.1769 2.73034 21.2566 2.72991Z" fill="white"/>
<path d="M23.9811 3.25103C23.9346 3.38819 23.8437 3.50476 23.7084 3.60073C23.5761 3.69669 23.4302 3.74509 23.2708 3.74595C23.1144 3.74679 22.9914 3.66858 22.902 3.51131C22.8156 3.35105 22.7716 3.12954 22.7701 2.84679C22.7658 2.04914 22.8802 1.64968 23.1134 1.64843C23.1429 1.64827 23.1799 1.65254 23.2242 1.66123C23.2156 1.7089 23.1954 1.79979 23.1637 1.9339C23.1001 2.19616 23.0689 2.427 23.07 2.62641C23.071 2.82583 23.1002 3.03699 23.1575 3.25992C23.2148 3.47986 23.2951 3.58956 23.3984 3.589C23.4515 3.58872 23.503 3.55421 23.5528 3.48549C23.6026 3.41676 23.6421 3.34512 23.6712 3.27055C23.7003 3.19301 23.7308 3.10504 23.7628 3.00665C23.7947 2.90826 23.8151 2.84862 23.8238 2.82774C23.7786 2.65535 23.7555 2.47986 23.7546 2.30129C23.7545 2.29236 23.7544 2.26557 23.7541 2.22093C23.7539 2.1733 23.7551 2.12716 23.7578 2.0825C23.7605 2.03784 23.7691 1.98422 23.7835 1.92164C23.8124 1.79648 23.8917 1.73354 24.0216 1.73285C24.1308 1.73226 24.1863 1.89864 24.1881 2.23199C24.1884 2.29152 24.1801 2.37788 24.163 2.49107C24.1488 2.60425 24.1418 2.68316 24.1421 2.72781C24.1428 2.86472 24.2087 3.04146 24.3398 3.25803C24.4708 3.47461 24.5924 3.58259 24.7046 3.58199C24.8197 3.58137 24.9035 3.51544 24.9559 3.3842C25.0084 3.25295 25.0341 3.10697 25.0333 2.94625C25.0323 2.76172 25.0153 2.62192 24.9823 2.52685C24.9523 2.42879 24.9327 2.3649 24.9237 2.33519C24.9177 2.30546 24.8982 2.25943 24.8654 2.1971C24.8355 2.13178 24.8161 2.09021 24.8072 2.0724C24.8012 2.05458 24.7788 2.01154 24.7401 1.94329C24.7013 1.87504 24.679 1.83647 24.673 1.82757C24.5866 1.67624 24.536 1.59317 24.5211 1.57837C24.5946 1.51547 24.6623 1.48385 24.7243 1.48352C24.9051 1.61351 25.0494 1.82704 25.1573 2.1241C25.2651 2.41818 25.3197 2.68725 25.321 2.93131C25.3223 3.17239 25.2717 3.36316 25.1691 3.5036C25.0695 3.64105 24.9119 3.71035 24.6964 3.71151C24.5459 3.71232 24.4025 3.67142 24.2663 3.58881C24.133 3.50321 24.0379 3.39062 23.9811 3.25103Z" fill="white"/>
<path d="M26.8025 0.543724C26.8375 0.478055 26.9023 0.444967 26.9967 0.44446C27.0174 0.444349 27.0381 0.447214 27.0588 0.453056C27.0655 0.610769 27.0709 1.05125 27.0747 1.77449C27.0777 1.7715 27.0909 1.75804 27.1144 1.7341C27.1408 1.71015 27.157 1.69518 27.1628 1.68919C27.1687 1.68321 27.1834 1.66974 27.2069 1.64877C27.2304 1.62484 27.248 1.60986 27.2598 1.60384C27.2745 1.59484 27.2936 1.58283 27.3172 1.56782C27.3407 1.54983 27.3613 1.53782 27.379 1.53177C27.3966 1.52275 27.4172 1.51371 27.4408 1.50465C27.485 1.48953 27.5366 1.48181 27.5957 1.4815C27.8141 1.48032 27.9902 1.57165 28.1241 1.75546C28.2579 1.93631 28.3254 2.13983 28.3266 2.36603C28.3278 2.59223 28.295 2.80819 28.2282 3.01392C28.1614 3.21668 28.0576 3.39433 27.9167 3.54688C27.7758 3.69944 27.6109 3.77622 27.422 3.77723C27.236 3.77823 27.0792 3.70913 26.9515 3.56992C26.8268 3.4307 26.764 3.2718 26.763 3.09322C26.762 2.91167 26.7706 2.57827 26.7886 2.09302C26.8067 1.60479 26.8151 1.25502 26.814 1.0437C26.8128 0.829403 26.809 0.662745 26.8025 0.543724ZM27.4518 3.55831C27.567 3.55769 27.67 3.50207 27.7609 3.39146C27.9457 3.17319 28.037 2.86464 28.0349 2.46582C28.0337 2.25152 27.9914 2.06275 27.9079 1.89949C27.8243 1.73326 27.7073 1.65055 27.5567 1.65136C27.4711 1.65182 27.3961 1.69538 27.3316 1.78204C27.2671 1.86573 27.2175 1.97761 27.1829 2.11769C27.1164 2.38294 27.084 2.67778 27.0858 3.0022C27.0872 3.27602 27.1442 3.44388 27.2567 3.50578C27.3071 3.53528 27.3721 3.55278 27.4518 3.55831Z" fill="white"/>
<path d="M28.9895 2.83572C28.984 2.89527 28.9812 2.93547 28.9813 2.9563C28.9823 3.13488 29.0362 3.273 29.143 3.37064C29.2527 3.46828 29.3814 3.5167 29.529 3.5159C29.6766 3.51511 29.796 3.49363 29.8873 3.45147C29.9815 3.4093 30.0492 3.36429 30.0903 3.31645C30.1958 3.18194 30.2929 3.11445 30.3814 3.11398C30.4139 3.1138 30.4523 3.12252 30.4967 3.14014C30.4679 3.28614 30.3565 3.42068 30.1623 3.54375C29.9711 3.66384 29.7294 3.72466 29.4371 3.72623C29.2305 3.72734 29.0515 3.66282 28.9003 3.53267C28.752 3.39953 28.6772 3.21837 28.676 2.9892C28.6748 2.76002 28.7178 2.53805 28.8052 2.32328C28.8956 2.10551 29.0245 1.92028 29.1919 1.76759C29.3623 1.6119 29.5346 1.53359 29.7087 1.53265C29.8858 1.5317 30.0277 1.56815 30.1344 1.64198C30.244 1.71283 30.2992 1.81819 30.2999 1.95808C30.3013 2.21702 30.1873 2.43193 29.958 2.60282C29.7316 2.77071 29.49 2.85535 29.2332 2.85673C29.1653 2.85709 29.0841 2.85009 28.9895 2.83572ZM29.3253 2.68658C29.464 2.68584 29.5877 2.64053 29.6965 2.55065C29.8052 2.46077 29.8815 2.36661 29.9252 2.26815C29.9719 2.16968 29.9951 2.08026 29.9946 1.9999C29.9942 1.91954 29.9628 1.84976 29.9005 1.79057C29.8382 1.7284 29.7657 1.69754 29.6831 1.69798C29.5355 1.69877 29.3987 1.80219 29.2729 2.00824C29.15 2.21427 29.0626 2.42756 29.0107 2.64809C29.1407 2.67418 29.2456 2.68701 29.3253 2.68658Z" fill="white"/>
<path d="M32.5071 0.146994C32.4004 1.17145 32.3483 1.90244 32.3506 2.33995C32.3529 2.7745 32.3951 3.20883 32.4772 3.64294C32.4184 3.70278 32.3669 3.73282 32.3227 3.73306C32.2784 3.7333 32.2415 3.72754 32.2119 3.7158C32.1487 3.49588 32.1105 3.25649 32.0973 2.99761C32.0271 3.11109 31.9744 3.19174 31.9392 3.23955C31.907 3.28734 31.8498 3.3576 31.7676 3.45031C31.6181 3.62969 31.44 3.71994 31.2333 3.72105C31.0769 3.72189 30.9628 3.64958 30.8912 3.50412C30.8225 3.35567 30.7875 3.16686 30.7863 2.93768C30.7851 2.70553 30.809 2.48515 30.858 2.27654C30.91 2.06493 30.9991 1.88289 31.1252 1.73042C31.2513 1.57497 31.4073 1.49675 31.5933 1.49575C31.7055 1.49514 31.8089 1.5184 31.9036 1.56551C31.9984 1.61263 32.0637 1.67627 32.0995 1.75644C32.105 1.67605 32.1102 1.5525 32.1152 1.38579C32.1202 1.21909 32.1253 1.07173 32.1306 0.943716C32.1387 0.81271 32.1513 0.680193 32.1683 0.546164C32.1992 0.260263 32.2708 0.117011 32.3829 0.116409C32.4213 0.116203 32.4627 0.126398 32.5071 0.146994ZM31.9985 1.91771C31.9628 1.85242 31.9138 1.80506 31.8516 1.77563C31.7895 1.74322 31.7067 1.7273 31.6034 1.72785C31.5031 1.72839 31.4089 1.78694 31.321 1.90349C31.148 2.1336 31.0627 2.46593 31.0651 2.90047C31.0658 3.04036 31.0887 3.18012 31.1338 3.31977C31.1788 3.45645 31.2441 3.52455 31.3297 3.52409C31.4537 3.52343 31.5742 3.44093 31.6914 3.2766C31.8086 3.11227 31.8991 2.92427 31.9629 2.7126C32.0267 2.49796 32.0582 2.30581 32.0573 2.13616C32.0568 2.0558 32.0373 1.98298 31.9985 1.91771Z" fill="white"/>
<path d="M34.0561 1.92898C34.0291 1.86067 33.9787 1.80737 33.9047 1.76907C33.8307 1.73077 33.739 1.71192 33.6298 1.71251C33.5206 1.71309 33.4175 1.74639 33.3204 1.81239C33.2263 1.87837 33.1795 1.96643 33.1801 2.07655C33.1807 2.18668 33.2255 2.27424 33.3144 2.33924C33.4062 2.40126 33.5157 2.44829 33.6428 2.48035C33.7729 2.51239 33.9029 2.54741 34.033 2.5854C34.1631 2.62042 34.2726 2.68085 34.3617 2.76669C34.4536 2.84953 34.5 2.95941 34.5007 3.09632C34.5018 3.29573 34.4199 3.44797 34.2552 3.55303C34.0934 3.65807 33.8974 3.71121 33.6671 3.71245C33.5313 3.71318 33.3526 3.67693 33.1308 3.60371C32.9119 3.53048 32.8022 3.44177 32.8017 3.3376C32.8012 3.26022 32.866 3.22118 32.9959 3.22048C33.0342 3.22028 33.0846 3.24382 33.1468 3.2911C33.3365 3.42998 33.5302 3.49888 33.728 3.49782C33.8342 3.49725 33.9256 3.4789 34.0022 3.44277C34.1435 3.37356 34.2138 3.26305 34.213 3.11126C34.2125 3.01899 34.1663 2.94483 34.0745 2.88877C33.9856 2.8327 33.8762 2.78864 33.7461 2.7566C33.619 2.72454 33.4904 2.68951 33.3603 2.65152C33.2302 2.61353 33.1192 2.55013 33.0272 2.46133C32.9382 2.36954 32.8933 2.2537 32.8925 2.11381C32.8915 1.93226 32.9719 1.7845 33.1337 1.67052C33.2954 1.55655 33.4958 1.49892 33.7349 1.49764C33.8973 1.49677 34.0436 1.53914 34.174 1.62476C34.3073 1.70738 34.3743 1.82905 34.3752 1.98977C34.3758 2.09692 34.3156 2.15082 34.1945 2.15147C34.1443 2.15174 34.1104 2.14299 34.0925 2.12523C34.0777 2.10745 34.0687 2.07625 34.0655 2.03162C34.0652 1.984 34.0621 1.94979 34.0561 1.92898Z" fill="white"/>
<path d="M36.2139 3.73449C36.1608 3.73477 36.1318 3.28401 36.1269 2.38218C36.1249 2.00121 36.1222 1.77056 36.1188 1.69021L36.0302 1.69069C35.9889 1.69091 35.9565 1.69108 35.9328 1.69121C35.9092 1.68836 35.8782 1.68704 35.8398 1.68725C35.8044 1.68446 35.7748 1.68015 35.7512 1.67433C35.7305 1.66849 35.7083 1.66116 35.6847 1.65236C35.6403 1.63474 35.618 1.60361 35.6177 1.55896C35.6174 1.50241 35.7088 1.47365 35.8918 1.47267C35.9715 1.47224 36.0438 1.47483 36.1088 1.48043C36.1115 1.42089 36.1125 1.34498 36.112 1.25272C36.1145 1.15746 36.117 1.08452 36.1197 1.03391C36.1224 0.980321 36.125 0.916314 36.1275 0.84189C36.133 0.767451 36.1401 0.709373 36.1487 0.667657C36.1603 0.625925 36.1748 0.579713 36.1923 0.52902C36.2097 0.475352 36.2331 0.435044 36.2625 0.408099C36.2918 0.381154 36.3256 0.354185 36.3639 0.327192C36.4315 0.27623 36.5435 0.250329 36.7 0.249489C36.8594 0.248633 36.9762 0.288187 37.0504 0.368151C37.1276 0.445123 37.1962 0.577205 37.2562 0.764396C37.2123 0.818207 37.1607 0.845271 37.1017 0.845588C37.081 0.845699 37.0604 0.842834 37.0397 0.836992C36.9858 0.694415 36.9365 0.597946 36.892 0.547586C36.8504 0.497211 36.7927 0.472221 36.7189 0.472617C36.6451 0.473013 36.5891 0.486708 36.5509 0.513701C36.5156 0.540678 36.4877 0.575056 36.4673 0.616836C36.4235 0.706363 36.4025 0.922265 36.4043 1.26454C36.4044 1.27942 36.4046 1.30621 36.4048 1.3449C36.405 1.38359 36.4052 1.41931 36.4053 1.45205L36.7815 1.41431C36.9291 1.41352 37.0031 1.44735 37.0035 1.51581C37.0037 1.56045 36.9684 1.5904 36.8977 1.60567C36.8269 1.62093 36.7369 1.63034 36.6277 1.6339C36.5215 1.63745 36.4477 1.64678 36.4065 1.66188C36.401 1.74525 36.3986 1.85539 36.3994 1.9923C36.4001 2.12623 36.4086 2.34049 36.425 2.63506C36.4413 2.92666 36.4499 3.14985 36.4507 3.30462C36.4515 3.45938 36.4359 3.5696 36.4038 3.63525C36.3746 3.70089 36.3113 3.73397 36.2139 3.73449Z" fill="white"/>
<path d="M37.3454 1.84435C37.4947 1.61139 37.7111 1.49415 37.9944 1.49263C38.2778 1.49111 38.5043 1.60597 38.6738 1.83722C38.8462 2.06845 38.9332 2.33288 38.9348 2.63052C38.9364 2.92517 38.8448 3.17568 38.6599 3.38205C38.4751 3.58841 38.2395 3.69236 37.9531 3.6939C37.6668 3.69544 37.4582 3.61619 37.3275 3.45617C37.1967 3.29317 37.1306 3.06434 37.129 2.76969C37.1269 2.38574 37.1991 2.0773 37.3454 1.84435ZM37.5415 2.07992C37.5038 2.1962 37.4749 2.31244 37.4548 2.42863C37.4377 2.5448 37.4295 2.65348 37.43 2.75468C37.4305 2.85289 37.4384 2.94363 37.4536 3.02689C37.4688 3.10717 37.4943 3.1874 37.5302 3.26757C37.566 3.34476 37.6195 3.40698 37.6906 3.45422C37.7617 3.49848 37.8459 3.52035 37.9433 3.51983C38.1411 3.51877 38.306 3.43603 38.4379 3.27162C38.5728 3.1072 38.6397 2.90891 38.6384 2.67675C38.6372 2.4446 38.574 2.22022 38.4488 2.00362C38.3266 1.78402 38.177 1.6747 37.9998 1.67565C37.8936 1.67622 37.8008 1.71392 37.7215 1.78876C37.6422 1.86359 37.5822 1.96065 37.5415 2.07992Z" fill="white"/>
<path d="M39.8071 3.24641L39.8217 3.50082C39.8221 3.56629 39.8031 3.61253 39.7649 3.63952C39.7296 3.66352 39.6928 3.67563 39.6544 3.67583C39.619 3.67602 39.582 3.67027 39.5436 3.65857C39.4768 3.31367 39.4243 2.88386 39.3861 2.36915C39.3509 1.85442 39.3301 1.56284 39.3239 1.49442C39.3679 1.45251 39.4136 1.43143 39.4608 1.43118C39.511 1.43091 39.5553 1.43662 39.5937 1.44832C39.606 1.53457 39.6159 1.72501 39.6234 2.01963C39.6308 2.31426 39.6392 2.49875 39.6485 2.57311C39.6885 2.32288 39.761 2.08884 39.8661 1.871C39.9245 1.74865 40.0007 1.65151 40.0948 1.57957C40.1918 1.50464 40.2949 1.46688 40.4041 1.46629C40.5163 1.46569 40.6184 1.51574 40.7105 1.61645C40.8055 1.71416 40.8532 1.80319 40.8536 1.88355C40.8538 1.91332 40.8362 1.93722 40.8008 1.95527C40.7655 1.97034 40.7257 1.978 40.6814 1.97823C40.6401 1.97846 40.6075 1.96226 40.5837 1.92965C40.56 1.89704 40.5435 1.86141 40.5345 1.82276C40.5254 1.78114 40.506 1.74404 40.4763 1.71146C40.4466 1.67888 40.4067 1.66272 40.3565 1.66299C40.2236 1.66371 40.1107 1.78486 40.0175 2.02645C39.8748 2.38736 39.8046 2.79401 39.8071 3.24641Z" fill="white"/>
<path d="M42.4794 0.356857C42.4835 0.565184 42.4858 0.721432 42.4864 0.825603C42.4869 0.926798 42.486 1.028 42.4836 1.12921C42.4841 1.23041 42.4807 1.42687 42.4735 1.71859C42.4661 2.00734 42.4615 2.23655 42.4594 2.40622C42.5712 2.32823 42.7049 2.20846 42.8604 2.0469C43.016 1.88236 43.157 1.74171 43.2833 1.62495C43.483 1.44232 43.6259 1.38649 43.7119 1.45746C43.7445 1.48407 43.755 1.50932 43.7433 1.53319C43.7141 1.59585 43.6466 1.67211 43.5408 1.76197C43.438 1.85182 43.316 1.95367 43.1749 2.06753C43.0339 2.18139 42.9222 2.28616 42.8401 2.38185C43.0558 2.41046 43.2291 2.53156 43.3601 2.74516C43.4167 2.84307 43.4719 2.941 43.5255 3.03893C43.6627 3.29714 43.8113 3.47195 43.9712 3.56336C43.9124 3.6232 43.8447 3.65333 43.768 3.65374C43.6912 3.65416 43.6143 3.61737 43.5371 3.54337C43.4629 3.46936 43.3975 3.37893 43.3408 3.27208C43.2871 3.16522 43.2319 3.05837 43.1753 2.95152C43.0469 2.69326 42.8987 2.56458 42.7304 2.56549C42.6507 2.56592 42.5829 2.59307 42.5271 2.64694C42.4713 2.69784 42.4436 2.75157 42.4439 2.80812C42.4458 3.16527 42.4413 3.4302 42.4304 3.60289C42.3894 3.65966 42.3453 3.68817 42.2981 3.68843C42.2833 3.6885 42.267 3.68562 42.2493 3.67976C42.1842 3.65332 42.1514 3.59843 42.151 3.5151C42.1535 3.43174 42.161 3.17871 42.1735 2.75599C42.2002 1.67541 42.2127 0.984822 42.2111 0.684214C42.2103 0.544328 42.2231 0.450502 42.2494 0.402738C42.2787 0.354959 42.3125 0.330966 42.3509 0.33076C42.3922 0.330538 42.4351 0.339237 42.4794 0.356857Z" fill="white"/>
<path d="M44.5238 0.372667C44.5212 0.441138 44.5202 0.517042 44.5206 0.600379C44.521 0.683716 44.5259 0.770006 44.5353 0.859247C44.4942 0.907091 44.4382 0.931202 44.3674 0.931583C44.2788 0.932058 44.2342 0.860864 44.2334 0.718001C44.2334 0.712048 44.2333 0.689726 44.2331 0.651034C44.2328 0.612342 44.2327 0.578114 44.2325 0.548351C44.2353 0.515596 44.241 0.47836 44.2496 0.436644C44.2699 0.365101 44.3155 0.32914 44.3863 0.328759C44.4571 0.328379 44.503 0.343015 44.5238 0.372667ZM44.2522 2.56178C44.249 1.97842 44.2768 1.64194 44.3353 1.55233C44.3558 1.51948 44.3808 1.50298 44.4103 1.50282C44.4398 1.50266 44.4886 1.51877 44.5567 1.55115C44.5433 1.80421 44.5374 2.07956 44.539 2.37719C44.539 2.37719 44.5437 2.70606 44.5531 3.36379C44.5536 3.45606 44.5333 3.52165 44.4922 3.56056C44.454 3.59649 44.4172 3.61454 44.3818 3.61473C44.3493 3.61491 44.3153 3.60616 44.2798 3.58849C44.263 3.20165 44.2538 2.85941 44.2522 2.56178Z" fill="white"/>
<path d="M46.7592 0.0704646C46.6525 1.09492 46.6003 1.82591 46.6027 2.26343C46.605 2.69797 46.6472 3.1323 46.7292 3.56641C46.6705 3.62625 46.619 3.65629 46.5747 3.65653C46.5305 3.65677 46.4935 3.65101 46.4639 3.63927C46.4008 3.41935 46.3626 3.17996 46.3494 2.92108C46.2791 3.03456 46.2264 3.11521 46.1913 3.16302C46.1591 3.21081 46.1019 3.28107 46.0197 3.37378C45.8701 3.55316 45.692 3.64341 45.4854 3.64452C45.3289 3.64536 45.2149 3.57305 45.1433 3.42759C45.0746 3.27914 45.0396 3.09033 45.0384 2.86115C45.0371 2.629 45.061 2.40862 45.1101 2.20001C45.1621 1.9884 45.2512 1.80636 45.3773 1.65389C45.5034 1.49844 45.6594 1.42022 45.8454 1.41922C45.9576 1.41861 46.061 1.44187 46.1557 1.48898C46.2504 1.5361 46.3157 1.59974 46.3516 1.67991C46.357 1.59952 46.3623 1.47597 46.3673 1.30926C46.3723 1.14256 46.3774 0.995199 46.3826 0.867186C46.3908 0.73618 46.4034 0.603663 46.4204 0.469634C46.4513 0.183733 46.5228 0.0404816 46.635 0.0398792C46.6734 0.0396732 46.7148 0.0498683 46.7592 0.0704646ZM46.2506 1.84118C46.2148 1.77589 46.1659 1.72853 46.1037 1.6991C46.0416 1.66669 45.9588 1.65077 45.8555 1.65132C45.7551 1.65186 45.661 1.71041 45.573 1.82696C45.4001 2.05707 45.3148 2.3894 45.3172 2.82394C45.3179 2.96383 45.3408 3.10359 45.3858 3.24324C45.4308 3.37992 45.4961 3.44802 45.5817 3.44756C45.7057 3.4469 45.8263 3.3644 45.9435 3.20007C46.0607 3.03574 46.1512 2.84774 46.215 2.63607C46.2788 2.42143 46.3102 2.22928 46.3093 2.05963C46.3089 1.97927 46.2893 1.90645 46.2506 1.84118Z" fill="white"/>
<path d="M48.3081 1.85245C48.2812 1.78414 48.2307 1.73084 48.1567 1.69254C48.0827 1.65424 47.9911 1.63539 47.8819 1.63598C47.7727 1.63656 47.6695 1.66986 47.5725 1.73586C47.4784 1.80185 47.4316 1.8899 47.4322 2.00002C47.4328 2.11015 47.4775 2.19771 47.5664 2.26271C47.6583 2.32473 47.7678 2.37176 47.8949 2.40382C48.0249 2.43586 48.155 2.47088 48.2851 2.50887C48.4152 2.54389 48.5247 2.60432 48.6137 2.69016C48.7057 2.773 48.752 2.88288 48.7528 3.01979C48.7538 3.2192 48.672 3.37144 48.5073 3.4765C48.3455 3.58154 48.1494 3.63468 47.9192 3.63592C47.7834 3.63665 47.6046 3.6004 47.3828 3.52718C47.164 3.45395 47.0543 3.36525 47.0537 3.26107C47.0533 3.18369 47.1181 3.14465 47.2479 3.14395C47.2863 3.14375 47.3366 3.16729 47.3989 3.21458C47.5885 3.35345 47.7823 3.42235 47.98 3.42129C48.0863 3.42072 48.1777 3.40237 48.2543 3.36624C48.3956 3.29703 48.4659 3.18652 48.465 3.03473C48.4645 2.94246 48.4184 2.8683 48.3266 2.81224C48.2377 2.75617 48.1283 2.71211 47.9982 2.68007C47.8711 2.64801 47.7425 2.61298 47.6124 2.57499C47.4823 2.537 47.3713 2.4736 47.2793 2.3848C47.1902 2.29301 47.1453 2.17717 47.1446 2.03729C47.1436 1.85573 47.224 1.70797 47.3857 1.59399C47.5475 1.48002 47.7479 1.42239 47.987 1.42111C48.1494 1.42024 48.2957 1.46261 48.4261 1.54823C48.5593 1.63085 48.6264 1.75252 48.6273 1.91324C48.6279 2.02039 48.5676 2.07429 48.4466 2.07494C48.3964 2.07521 48.3624 2.06646 48.3446 2.0487C48.3298 2.03092 48.3207 1.99972 48.3175 1.95509C48.3173 1.90747 48.3142 1.87326 48.3081 1.85245Z" fill="white"/>
</svg>
