<svg width="69" height="9" viewBox="0 0 69 9" fill="none" xmlns="http://www.w3.org/2000/svg">
<path d="M-9.79456 4.34903C-9.79456 3.58647 -9.82607 2.91434 -9.8891 2.33264C-9.8891 2.18111 -9.82607 2.04913 -9.70002 1.9367C-9.57397 1.82427 -9.40671 1.73872 -9.19825 1.68006C-8.78131 1.57252 -8.32317 1.51875 -7.82381 1.51875C-7.17902 1.51875 -6.67239 1.66296 -6.30394 1.95136C-5.93064 2.23488 -5.74399 2.67237 -5.74399 3.26385C-5.74399 3.85532 -5.98154 4.32948 -6.45665 4.68632C-6.93177 5.04315 -7.51111 5.22157 -8.19469 5.22157C-8.54375 5.22157 -8.90979 5.14825 -9.29278 5.0016C-9.31702 5.23624 -9.32915 5.55397 -9.32915 5.95481L-9.32187 6.31409C-9.32187 6.43141 -9.3243 6.55361 -9.32915 6.68071C-9.35339 6.71492 -9.38005 6.73936 -9.40914 6.75403C-9.43823 6.76869 -9.46004 6.77847 -9.47459 6.78336C-9.48428 6.79313 -9.50125 6.80047 -9.52549 6.80535C-9.54973 6.81024 -9.5667 6.81269 -9.5764 6.81269C-9.60549 6.82246 -9.63942 6.82735 -9.67821 6.82735H-9.80183C-9.81153 6.46074 -9.81638 6.13078 -9.81638 5.83749L-9.79456 4.34903ZM-9.30733 4.47368C-8.95342 4.7132 -8.52921 4.83296 -8.03471 4.83296C-7.5402 4.82807 -7.12327 4.67409 -6.7839 4.37103C-6.44453 4.06307 -6.27485 3.68668 -6.27485 3.24185C-6.27485 2.79702 -6.44938 2.46462 -6.79844 2.24465C-7.14751 2.02468 -7.56687 1.9147 -8.05652 1.9147C-8.54133 1.9147 -8.97039 2.02713 -9.34369 2.25199C-9.31945 2.56972 -9.30733 3.31028 -9.30733 4.47368Z" fill="white"/>
<path d="M-4.41392 5.99147L-4.39211 6.40941C-4.39211 6.51695 -4.42362 6.59272 -4.48665 6.63671C-4.54482 6.67582 -4.60542 6.69537 -4.66845 6.69537C-4.72663 6.69537 -4.78723 6.68559 -4.85025 6.66604C-4.95691 6.09901 -5.03933 5.39266 -5.0975 4.547C-5.15083 3.70134 -5.18235 3.2223 -5.19204 3.10987C-5.11932 3.04143 -5.04418 3.00721 -4.96661 3.00721C-4.88419 3.00721 -4.81147 3.01699 -4.74844 3.03654C-4.72905 3.1783 -4.71451 3.49115 -4.70481 3.97508C-4.69511 4.45901 -4.68299 4.76208 -4.66845 4.88429C-4.60058 4.47368 -4.47937 4.08995 -4.30484 3.73311C-4.20788 3.5327 -4.08183 3.37383 -3.92669 3.25651C-3.7667 3.13431 -3.59702 3.07321 -3.41764 3.07321C-3.23342 3.07321 -3.06616 3.1563 -2.91587 3.3225C-2.76073 3.48382 -2.68316 3.63046 -2.68316 3.76244C-2.68316 3.81133 -2.71225 3.85043 -2.77042 3.87976C-2.8286 3.9042 -2.89405 3.91642 -2.96677 3.91642C-3.03464 3.91642 -3.08797 3.88954 -3.12676 3.83577C-3.16554 3.782 -3.19221 3.72334 -3.20675 3.65979C-3.2213 3.59136 -3.25281 3.53025 -3.30129 3.47648C-3.34977 3.42271 -3.41522 3.39583 -3.49764 3.39583C-3.7158 3.39583 -3.90245 3.5938 -4.05759 3.98974C-4.29515 4.58122 -4.41392 5.24846 -4.41392 5.99147Z" fill="white"/>
<path d="M-2.01026 3.66712C-1.76301 3.28584 -1.40667 3.0952 -0.941255 3.0952C-0.475839 3.0952 -0.10496 3.28584 0.171381 3.66712C0.45257 4.0484 0.593164 4.48345 0.593164 4.97228C0.593164 5.45621 0.440449 5.86682 0.135019 6.2041C-0.17041 6.54139 -0.558257 6.71003 -1.02852 6.71003C-1.49879 6.71003 -1.84058 6.57805 -2.05389 6.31409C-2.26721 6.04524 -2.37387 5.66885 -2.37387 5.18491C-2.37387 4.55433 -2.25266 4.0484 -2.01026 3.66712ZM-1.69028 4.05574C-1.75331 4.24638 -1.80179 4.43702 -1.83573 4.62766C-1.86482 4.8183 -1.87936 4.99672 -1.87936 5.16292C-1.87936 5.32423 -1.86724 5.47332 -1.843 5.61019C-1.81876 5.74217 -1.77755 5.87415 -1.71937 6.00613C-1.6612 6.13323 -1.57393 6.23588 -1.45758 6.31409C-1.34122 6.38741 -1.20305 6.42407 -1.04306 6.42407C-0.718243 6.42407 -0.446751 6.28965 -0.228587 6.0208C-0.00557481 5.75195 0.105931 5.42688 0.105931 5.0456C0.105931 4.66432 0.00412204 4.29526 -0.199498 3.93842C-0.398269 3.57669 -0.643098 3.39583 -0.933984 3.39583C-1.10851 3.39583 -1.26123 3.45693 -1.39213 3.57914C-1.52303 3.70134 -1.62241 3.86021 -1.69028 4.05574Z" fill="white"/>
<path d="M0.93734 3.18319C0.980972 3.09031 1.07551 3.04388 1.22095 3.04388C1.28398 3.04388 1.33731 3.05854 1.38094 3.08787C1.51669 3.46426 1.65001 3.8431 1.78091 4.22438C2.02816 4.92339 2.25844 5.47576 2.47176 5.88148C2.57357 5.28512 2.76992 4.68387 3.0608 4.07773C3.35653 3.47159 3.6256 3.16853 3.86801 3.16853C3.94073 3.16853 4.01345 3.18563 4.08617 3.21985C3.52864 3.95797 3.12867 4.93561 2.88627 6.15278C2.83779 6.43629 2.78446 6.59761 2.72628 6.63671C2.66326 6.68071 2.59781 6.7027 2.52994 6.7027C2.46206 6.7027 2.40873 6.68804 2.36995 6.65871C2.33601 6.62938 2.30935 6.60005 2.28996 6.57072C2.27541 6.54139 2.2536 6.49251 2.22451 6.42407C2.20027 6.35564 2.18087 6.3092 2.16633 6.28476C1.67182 5.35111 1.26216 4.31726 0.93734 3.18319Z" fill="white"/>
<path d="M5.06223 1.31345C5.05738 1.42588 5.05496 1.55053 5.05496 1.6874C5.05496 1.82427 5.06223 1.96603 5.07677 2.11267C5.0089 2.19088 4.91679 2.22999 4.80043 2.22999C4.65499 2.22999 4.58227 2.11267 4.58227 1.87804C4.58227 1.86826 4.58227 1.8316 4.58227 1.76805C4.58227 1.70451 4.58227 1.64829 4.58227 1.59941C4.58712 1.54564 4.59681 1.48454 4.61136 1.4161C4.64529 1.29878 4.72044 1.24013 4.83679 1.24013C4.95315 1.24013 5.02829 1.26457 5.06223 1.31345ZM4.59681 4.90628C4.59681 3.94819 4.64529 3.39583 4.74226 3.24918C4.77619 3.19541 4.8174 3.16853 4.86588 3.16853C4.91436 3.16853 4.99436 3.19541 5.10586 3.24918C5.08162 3.66468 5.0695 4.11684 5.0695 4.60566C5.0695 4.60566 5.07435 5.14581 5.08405 6.2261C5.08405 6.37764 5.05011 6.48518 4.98224 6.54872C4.91921 6.60738 4.85861 6.63671 4.80043 6.63671C4.7471 6.63671 4.69135 6.62205 4.63317 6.59272C4.60893 5.95725 4.59681 5.39511 4.59681 4.90628Z" fill="white"/>
<path d="M8.73607 0.836848C8.55185 2.51839 8.45973 3.71845 8.45973 4.43702C8.45973 5.1507 8.52518 5.86437 8.65608 6.57805C8.55912 6.67582 8.47428 6.7247 8.40156 6.7247C8.32883 6.7247 8.26823 6.71492 8.21975 6.69537C8.11794 6.33364 8.05734 5.94014 8.03795 5.51487C7.9216 5.70062 7.83433 5.8326 7.77615 5.91081C7.72282 5.98902 7.62829 6.1039 7.49254 6.25543C7.24529 6.54872 6.95198 6.69537 6.61261 6.69537C6.35566 6.69537 6.16901 6.57561 6.05266 6.33609C5.94115 6.09168 5.8854 5.78127 5.8854 5.40488C5.8854 5.0236 5.92661 4.66187 6.00902 4.3197C6.09629 3.97264 6.24416 3.67446 6.45263 3.42516C6.66109 3.17097 6.91804 3.04388 7.22347 3.04388C7.4077 3.04388 7.57738 3.08298 7.73252 3.16119C7.88766 3.2394 7.99432 3.3445 8.05249 3.47648C8.06219 3.3445 8.07189 3.14164 8.08158 2.8679C8.09128 2.59416 8.10097 2.35219 8.11067 2.142C8.12522 1.92692 8.14703 1.70939 8.17612 1.48942C8.22945 1.02016 8.34823 0.785522 8.53246 0.785522C8.59548 0.785522 8.66335 0.802631 8.73607 0.836848ZM7.88523 3.74045C7.82706 3.63291 7.74706 3.55469 7.64525 3.50581C7.54344 3.45204 7.4077 3.42516 7.23802 3.42516C7.07318 3.42516 6.91804 3.52048 6.7726 3.71112C6.48656 4.08751 6.34354 4.63254 6.34354 5.34622C6.34354 5.57597 6.3799 5.80572 6.45263 6.03546C6.52535 6.26032 6.632 6.37275 6.7726 6.37275C6.97622 6.37275 7.17499 6.23832 7.36891 5.96947C7.56284 5.70062 7.71313 5.39266 7.81979 5.0456C7.92644 4.69365 7.97977 4.37836 7.97977 4.09973C7.97977 3.96775 7.94826 3.84799 7.88523 3.74045Z" fill="white"/>
<path d="M9.95529 1.31345C9.95044 1.42588 9.94802 1.55053 9.94802 1.6874C9.94802 1.82427 9.95529 1.96603 9.96984 2.11267C9.90196 2.19088 9.80985 2.22999 9.69349 2.22999C9.54805 2.22999 9.47533 2.11267 9.47533 1.87804C9.47533 1.86826 9.47533 1.8316 9.47533 1.76805C9.47533 1.70451 9.47533 1.64829 9.47533 1.59941C9.48018 1.54564 9.48988 1.48454 9.50442 1.4161C9.53836 1.29878 9.6135 1.24013 9.72986 1.24013C9.84621 1.24013 9.92136 1.26457 9.95529 1.31345ZM9.48988 4.90628C9.48988 3.94819 9.53836 3.39583 9.63532 3.24918C9.66925 3.19541 9.71046 3.16853 9.75894 3.16853C9.80743 3.16853 9.88742 3.19541 9.99892 3.24918C9.97468 3.66468 9.96256 4.11684 9.96256 4.60566C9.96256 4.60566 9.96741 5.14581 9.97711 6.2261C9.97711 6.37764 9.94317 6.48518 9.8753 6.54872C9.81227 6.60738 9.75167 6.63671 9.69349 6.63671C9.64017 6.63671 9.58441 6.62205 9.52624 6.59272C9.502 5.95725 9.48988 5.39511 9.48988 4.90628Z" fill="white"/>
<path d="M13.8837 6.50473C13.7964 6.59761 13.697 6.64404 13.5855 6.64404C13.377 6.64404 13.2219 6.53161 13.1201 6.30676C13.0183 6.0819 12.9577 5.80816 12.9383 5.48554C12.9237 5.16292 12.914 4.84029 12.9092 4.51767C12.9043 4.19505 12.8777 3.92131 12.8292 3.69645C12.7856 3.47159 12.7007 3.35917 12.5747 3.35917C12.405 3.35917 12.2596 3.51314 12.1383 3.8211C12.022 4.12906 11.9396 4.47123 11.8911 4.84763C11.7554 5.89859 11.6245 6.48762 11.4984 6.61471C11.4111 6.65871 11.336 6.68071 11.273 6.68071C11.2099 6.68071 11.1566 6.67337 11.113 6.65871C11.0112 6.20899 10.9457 5.43421 10.9166 4.33436C10.9069 3.78688 10.8972 3.43249 10.8875 3.27118C10.9894 3.20274 11.0766 3.16853 11.1493 3.16853C11.2221 3.16853 11.2802 3.17586 11.3239 3.19052C11.3481 3.40072 11.3602 3.83088 11.3602 4.48101C11.3651 5.13114 11.3699 5.50509 11.3748 5.60285C11.399 5.5002 11.4281 5.334 11.462 5.10426C11.5008 4.87451 11.5348 4.68631 11.5639 4.53967C11.5929 4.38813 11.639 4.21216 11.702 4.01174C11.765 3.81133 11.8353 3.65246 11.9129 3.53514C11.9905 3.41294 12.0971 3.31028 12.2329 3.22718C12.3686 3.1392 12.5213 3.0952 12.691 3.0952C12.9189 3.0952 13.0837 3.2003 13.1855 3.41049C13.2922 3.6158 13.3504 3.87243 13.3601 4.18038C13.3698 4.48834 13.3746 4.80119 13.3746 5.11892C13.3795 5.43666 13.4182 5.7275 13.491 5.99147C13.5685 6.25543 13.6994 6.42652 13.8837 6.50473Z" fill="white"/>
<path d="M15.626 3.04388C16.0671 3.04388 16.3726 3.22474 16.5423 3.58647C16.6344 3.77711 16.7095 3.95797 16.7677 4.12906C16.8259 4.30015 16.8646 4.53478 16.884 4.83296C16.9131 5.28757 16.9277 5.80572 16.9277 6.38741C16.9277 6.96422 16.7895 7.42371 16.5132 7.76589C16.2417 8.11295 15.8417 8.28648 15.3133 8.28648C14.7897 8.28648 14.3533 8.1154 14.0043 7.77322C14.1012 7.67546 14.2055 7.62657 14.317 7.62657C14.4333 7.62657 14.5909 7.67546 14.7897 7.77322C14.9933 7.87587 15.209 7.9272 15.4369 7.9272C15.6647 7.9272 15.8538 7.87343 16.0041 7.76589C16.1544 7.66324 16.2659 7.51659 16.3386 7.32595C16.4598 6.98866 16.5204 6.57316 16.5204 6.07946C16.5204 6.00613 16.5132 5.73484 16.4986 5.26557C16.3677 5.6664 16.1811 5.9988 15.9387 6.26276C15.6963 6.52184 15.4223 6.65138 15.1169 6.65138C14.8115 6.65138 14.586 6.51451 14.4406 6.24077C14.3 5.96214 14.2297 5.64685 14.2297 5.2949C14.2297 4.94295 14.2782 4.60077 14.3752 4.26837C14.4721 3.93109 14.6297 3.64268 14.8478 3.40316C15.066 3.16364 15.3254 3.04388 15.626 3.04388ZM14.8551 4.15839C14.7921 4.37347 14.746 4.57633 14.7169 4.76697C14.6879 4.95761 14.6733 5.1507 14.6733 5.34622C14.6733 5.53686 14.7121 5.7495 14.7897 5.98414C14.8721 6.21877 14.9909 6.33609 15.146 6.33609C15.4514 6.33609 15.7229 6.10634 15.9605 5.64685C16.198 5.18247 16.3168 4.71564 16.3168 4.24638C16.3168 4.08507 16.2417 3.9042 16.0914 3.70378C15.9459 3.49848 15.7617 3.39583 15.5387 3.39583C15.3836 3.39583 15.2454 3.46915 15.1242 3.6158C15.0078 3.76244 14.9181 3.94331 14.8551 4.15839Z" fill="white"/>
<path d="M22.3702 6.50473C22.2829 6.59761 22.1835 6.64404 22.072 6.64404C21.8636 6.64404 21.7084 6.53161 21.6066 6.30676C21.5048 6.0819 21.4442 5.80816 21.4248 5.48554C21.4103 5.16292 21.4006 4.84029 21.3957 4.51767C21.3909 4.19505 21.3642 3.92131 21.3157 3.69645C21.2721 3.47159 21.1872 3.35917 21.0612 3.35917C20.8915 3.35917 20.7461 3.51314 20.6249 3.8211C20.5085 4.12906 20.4261 4.47123 20.3776 4.84763C20.2419 5.89859 20.111 6.48762 19.9849 6.61471C19.8977 6.65871 19.8225 6.68071 19.7595 6.68071C19.6965 6.68071 19.6431 6.67337 19.5995 6.65871C19.4977 6.20899 19.4322 5.43421 19.4032 4.33436C19.3935 3.78688 19.3838 3.43249 19.3741 3.27118C19.4759 3.20274 19.5631 3.16853 19.6359 3.16853C19.7086 3.16853 19.7668 3.17586 19.8104 3.19052C19.8346 3.40072 19.8468 3.83088 19.8468 4.48101C19.8516 5.13114 19.8564 5.50509 19.8613 5.60285C19.8855 5.5002 19.9146 5.334 19.9486 5.10426C19.9873 4.87451 20.0213 4.68631 20.0504 4.53967C20.0795 4.38813 20.1255 4.21216 20.1885 4.01174C20.2516 3.81133 20.3219 3.65246 20.3994 3.53514C20.477 3.41294 20.5837 3.31028 20.7194 3.22718C20.8552 3.1392 21.0079 3.0952 21.1776 3.0952C21.4054 3.0952 21.5702 3.2003 21.6721 3.41049C21.7787 3.6158 21.8369 3.87243 21.8466 4.18038C21.8563 4.48834 21.8611 4.80119 21.8611 5.11892C21.866 5.43666 21.9048 5.7275 21.9775 5.99147C22.0551 6.25543 22.186 6.42652 22.3702 6.50473Z" fill="white"/>
<path d="M23.2107 5.22157C23.201 5.31934 23.1962 5.38533 23.1962 5.41955C23.1962 5.71284 23.2835 5.94014 23.458 6.10145C23.6374 6.26276 23.8483 6.34342 24.0907 6.34342C24.3331 6.34342 24.5294 6.3092 24.6797 6.24077C24.8348 6.17233 24.9464 6.09901 25.0142 6.0208C25.1888 5.80083 25.3487 5.69084 25.4942 5.69084C25.5475 5.69084 25.6105 5.70551 25.6833 5.73484C25.6348 5.97436 25.4506 6.19433 25.1306 6.39475C24.8155 6.59027 24.4179 6.68804 23.9379 6.68804C23.5986 6.68804 23.3053 6.5805 23.058 6.36542C22.8156 6.14545 22.6944 5.84727 22.6944 5.47087C22.6944 5.09448 22.7671 4.73031 22.9126 4.37836C23.0629 4.02152 23.2762 3.71845 23.5525 3.46915C23.8337 3.21496 24.1173 3.08787 24.4034 3.08787C24.6943 3.08787 24.927 3.14897 25.1015 3.27118C25.2809 3.3885 25.3706 3.56203 25.3706 3.79177C25.3706 4.21705 25.1815 4.569 24.8033 4.84763C24.43 5.12137 24.0325 5.25824 23.6107 5.25824C23.4992 5.25824 23.3659 5.24602 23.2107 5.22157ZM23.7634 4.97961C23.9913 4.97961 24.1949 4.90628 24.3743 4.75964C24.5537 4.61299 24.6797 4.45901 24.7524 4.2977C24.83 4.13639 24.8688 3.98974 24.8688 3.85776C24.8688 3.72578 24.8179 3.61091 24.7161 3.51314C24.6143 3.41049 24.4955 3.35917 24.3597 3.35917C24.1173 3.35917 23.8919 3.52781 23.6834 3.8651C23.4798 4.20238 23.3344 4.55189 23.2471 4.91362C23.4604 4.95761 23.6325 4.97961 23.7634 4.97961Z" fill="white"/>
<path d="M28.2333 5.85949C28.1557 6.08434 28.0054 6.27498 27.7824 6.43141C27.5642 6.58783 27.3243 6.66604 27.0625 6.66604C26.8055 6.66604 26.6043 6.5365 26.4589 6.27743C26.3183 6.01346 26.248 5.64929 26.248 5.18491C26.248 3.87487 26.4395 3.21985 26.8225 3.21985C26.871 3.21985 26.9316 3.22718 27.0043 3.24185C26.9897 3.32006 26.9558 3.46915 26.9025 3.68912C26.7958 4.11928 26.7425 4.49812 26.7425 4.82563C26.7425 5.15314 26.7885 5.5002 26.8807 5.86682C26.9728 6.22855 27.1037 6.40941 27.2734 6.40941C27.3606 6.40941 27.4455 6.3532 27.5279 6.24077C27.6103 6.12834 27.6757 6.01102 27.7242 5.88881C27.7727 5.76172 27.8236 5.61752 27.8769 5.45621C27.9303 5.2949 27.9642 5.19713 27.9788 5.16292C27.906 4.8794 27.8697 4.59099 27.8697 4.2977C27.8697 4.28304 27.8697 4.23904 27.8697 4.16572C27.8697 4.08751 27.8721 4.01174 27.8769 3.93842C27.8818 3.8651 27.8963 3.77711 27.9206 3.67446C27.9691 3.46915 28.1 3.3665 28.3133 3.3665C28.4926 3.3665 28.5823 3.64024 28.5823 4.18772C28.5823 4.28548 28.5678 4.42724 28.5387 4.61299C28.5145 4.79874 28.5023 4.92828 28.5023 5.0016C28.5023 5.22646 28.609 5.51731 28.8223 5.87415C29.0356 6.23099 29.2344 6.40941 29.4186 6.40941C29.6077 6.40941 29.7459 6.30187 29.8331 6.08679C29.9204 5.87171 29.964 5.63218 29.964 5.36822C29.964 5.06515 29.9374 4.83541 29.884 4.67898C29.8356 4.51767 29.8041 4.41258 29.7895 4.36369C29.7798 4.31481 29.7483 4.23904 29.695 4.13639C29.6465 4.02885 29.615 3.96042 29.6004 3.93109C29.5907 3.90176 29.5544 3.83088 29.4914 3.71845C29.4283 3.60602 29.392 3.54247 29.3823 3.52781C29.2417 3.27851 29.1593 3.14164 29.135 3.1172C29.2562 3.01455 29.3677 2.96322 29.4695 2.96322C29.7653 3.1783 30.0004 3.53025 30.1749 4.01907C30.3495 4.50301 30.4367 4.94539 30.4367 5.34622C30.4367 5.74217 30.3519 6.05501 30.1822 6.28476C30.0174 6.50962 29.758 6.62205 29.4041 6.62205C29.1568 6.62205 28.9217 6.55361 28.6987 6.41674C28.4805 6.27498 28.3254 6.08923 28.2333 5.85949Z" fill="white"/>
<path d="M32.8908 1.4381C32.949 1.33056 33.0556 1.27679 33.2108 1.27679C33.2447 1.27679 33.2786 1.28168 33.3126 1.29145C33.3223 1.55053 33.3271 2.27398 33.3271 3.46182C33.332 3.45693 33.3538 3.43493 33.3926 3.39583C33.4362 3.35672 33.4629 3.33228 33.4726 3.3225C33.4823 3.31273 33.5065 3.29073 33.5453 3.25651C33.5841 3.21741 33.6132 3.19297 33.6325 3.18319C33.6568 3.16853 33.6883 3.14897 33.7271 3.12453C33.7659 3.0952 33.7998 3.07565 33.8289 3.06587C33.858 3.05121 33.8919 3.03654 33.9307 3.02188C34.0034 2.99744 34.0883 2.98522 34.1852 2.98522C34.544 2.98522 34.8325 3.13675 35.0506 3.43982C35.2688 3.738 35.3779 4.07284 35.3779 4.44435C35.3779 4.81585 35.3221 5.17025 35.2106 5.50753C35.0991 5.83993 34.927 6.13078 34.6943 6.38008C34.4616 6.62938 34.1901 6.75403 33.8798 6.75403C33.5744 6.75403 33.3174 6.63916 33.109 6.40941C32.9053 6.17966 32.8035 5.91814 32.8035 5.62485C32.8035 5.32667 32.8205 4.77919 32.8544 3.98241C32.8884 3.18075 32.9053 2.60638 32.9053 2.25932C32.9053 1.90737 32.9005 1.63363 32.8908 1.4381ZM33.9307 6.39475C34.1198 6.39475 34.2895 6.30431 34.4398 6.12345C34.7452 5.76661 34.8979 5.26068 34.8979 4.60566C34.8979 4.25371 34.83 3.94331 34.6943 3.67446C34.5585 3.40072 34.367 3.26385 34.1198 3.26385C33.9792 3.26385 33.8556 3.33472 33.7489 3.47648C33.6422 3.61335 33.5598 3.79666 33.5016 4.02641C33.3901 4.46146 33.3344 4.94539 33.3344 5.47821C33.3344 5.92792 33.4265 6.2041 33.6107 6.30676C33.6931 6.35564 33.7998 6.38497 33.9307 6.39475Z" fill="white"/>
<path d="M36.4625 5.22157C36.4528 5.31934 36.4479 5.38533 36.4479 5.41955C36.4479 5.71284 36.5352 5.94014 36.7097 6.10145C36.8891 6.26276 37.1 6.34342 37.3424 6.34342C37.5848 6.34342 37.7812 6.3092 37.9315 6.24077C38.0866 6.17233 38.1981 6.09901 38.266 6.0208C38.4405 5.80083 38.6005 5.69084 38.7459 5.69084C38.7993 5.69084 38.8623 5.70551 38.935 5.73484C38.8865 5.97436 38.7023 6.19433 38.3823 6.39475C38.0672 6.59027 37.6697 6.68804 37.1897 6.68804C36.8503 6.68804 36.557 6.5805 36.3098 6.36542C36.0674 6.14545 35.9462 5.84727 35.9462 5.47087C35.9462 5.09448 36.0189 4.73031 36.1643 4.37836C36.3146 4.02152 36.5279 3.71845 36.8043 3.46915C37.0855 3.21496 37.3691 3.08787 37.6551 3.08787C37.946 3.08787 38.1787 3.14897 38.3532 3.27118C38.5326 3.3885 38.6223 3.56203 38.6223 3.79177C38.6223 4.21705 38.4332 4.569 38.0551 4.84763C37.6818 5.12137 37.2842 5.25824 36.8625 5.25824C36.7509 5.25824 36.6176 5.24602 36.4625 5.22157ZM37.0152 4.97961C37.243 4.97961 37.4466 4.90628 37.626 4.75964C37.8054 4.61299 37.9315 4.45901 38.0042 4.2977C38.0817 4.13639 38.1205 3.98974 38.1205 3.85776C38.1205 3.72578 38.0696 3.61091 37.9678 3.51314C37.866 3.41049 37.7472 3.35917 37.6115 3.35917C37.3691 3.35917 37.1436 3.52781 36.9352 3.8651C36.7316 4.20238 36.5861 4.55189 36.4988 4.91362C36.7122 4.95761 36.8843 4.97961 37.0152 4.97961Z" fill="white"/>
<path d="M42.2631 0.836848C42.0789 2.51839 41.9868 3.71845 41.9868 4.43702C41.9868 5.1507 42.0523 5.86437 42.1832 6.57805C42.0862 6.67582 42.0014 6.7247 41.9286 6.7247C41.8559 6.7247 41.7953 6.71492 41.7468 6.69537C41.645 6.33364 41.5844 5.94014 41.565 5.51487C41.4487 5.70062 41.3614 5.8326 41.3032 5.91081C41.2499 5.98902 41.1554 6.1039 41.0196 6.25543C40.7724 6.54872 40.4791 6.69537 40.1397 6.69537C39.8827 6.69537 39.6961 6.57561 39.5797 6.33609C39.4682 6.09168 39.4125 5.78127 39.4125 5.40488C39.4125 5.0236 39.4537 4.66187 39.5361 4.3197C39.6234 3.97264 39.7712 3.67446 39.9797 3.42516C40.1882 3.17097 40.4451 3.04388 40.7505 3.04388C40.9348 3.04388 41.1045 3.08298 41.2596 3.16119C41.4147 3.2394 41.5214 3.3445 41.5796 3.47648C41.5893 3.3445 41.599 3.14164 41.6087 2.8679C41.6183 2.59416 41.628 2.35219 41.6377 2.142C41.6523 1.92692 41.6741 1.70939 41.7032 1.48942C41.7565 1.02016 41.8753 0.785522 42.0595 0.785522C42.1226 0.785522 42.1904 0.802631 42.2631 0.836848ZM41.4123 3.74045C41.3541 3.63291 41.2741 3.55469 41.1723 3.50581C41.0705 3.45204 40.9348 3.42516 40.7651 3.42516C40.6003 3.42516 40.4451 3.52048 40.2997 3.71112C40.0136 4.08751 39.8706 4.63254 39.8706 5.34622C39.8706 5.57597 39.907 5.80572 39.9797 6.03546C40.0524 6.26032 40.1591 6.37275 40.2997 6.37275C40.5033 6.37275 40.7021 6.23832 40.896 5.96947C41.0899 5.70062 41.2402 5.39266 41.3469 5.0456C41.4535 4.69365 41.5068 4.37836 41.5068 4.09973C41.5068 3.96775 41.4753 3.84799 41.4123 3.74045Z" fill="white"/>
<path d="M44.7913 3.77711C44.7477 3.66468 44.6653 3.57669 44.5441 3.51314C44.4229 3.4496 44.2726 3.41782 44.0932 3.41782C43.9138 3.41782 43.7442 3.47159 43.5842 3.57914C43.429 3.68668 43.3515 3.83088 43.3515 4.01174C43.3515 4.19261 43.4242 4.33681 43.5696 4.44435C43.7199 4.547 43.8993 4.62521 44.1078 4.67898C44.3211 4.73275 44.5344 4.79141 44.7477 4.85496C44.961 4.91362 45.1404 5.01383 45.2859 5.15558C45.4361 5.29245 45.5113 5.47332 45.5113 5.69817C45.5113 6.02568 45.3755 6.27498 45.1041 6.44607C44.8374 6.61716 44.515 6.7027 44.1369 6.7027C43.9138 6.7027 43.6205 6.6416 43.2569 6.51939C42.8982 6.39719 42.7188 6.25054 42.7188 6.07946C42.7188 5.95236 42.8255 5.88881 43.0388 5.88881C43.1018 5.88881 43.1842 5.92792 43.286 6.00613C43.5963 6.23588 43.9138 6.35075 44.2387 6.35075C44.4132 6.35075 44.5635 6.32142 44.6895 6.26276C44.9222 6.15033 45.0386 5.96947 45.0386 5.72017C45.0386 5.56864 44.9635 5.44643 44.8132 5.35356C44.6677 5.26068 44.4883 5.18736 44.275 5.13359C44.0666 5.07982 43.8557 5.02116 43.6424 4.95761C43.429 4.89406 43.2472 4.78897 43.0969 4.64232C42.9515 4.49079 42.8788 4.30015 42.8788 4.0704C42.8788 3.77222 43.0121 3.53025 43.2787 3.3445C43.5454 3.15875 43.8751 3.06587 44.2678 3.06587C44.5344 3.06587 44.7744 3.13675 44.9877 3.27851C45.2059 3.41538 45.3149 3.6158 45.3149 3.87976C45.3149 4.05574 45.2156 4.14372 45.0168 4.14372C44.9344 4.14372 44.8786 4.12906 44.8495 4.09973C44.8253 4.0704 44.8107 4.01907 44.8059 3.94575C44.8059 3.86754 44.801 3.81133 44.7913 3.77711Z" fill="white"/>
<path d="M48.3193 6.76136C48.232 6.76136 48.1884 6.0208 48.1884 4.53967C48.1884 3.91398 48.186 3.53514 48.1811 3.40316H48.0357C47.9678 3.40316 47.9145 3.40316 47.8757 3.40316C47.8369 3.39827 47.786 3.39583 47.723 3.39583C47.6648 3.39094 47.6163 3.38361 47.5775 3.37383C47.5436 3.36405 47.5072 3.35183 47.4685 3.33717C47.3957 3.30784 47.3594 3.25651 47.3594 3.18319C47.3594 3.09031 47.5097 3.04388 47.8103 3.04388C47.9412 3.04388 48.0599 3.04876 48.1666 3.05854C48.1714 2.96078 48.1739 2.83613 48.1739 2.68459C48.1787 2.52817 48.1836 2.40841 48.1884 2.32531C48.1933 2.23732 48.1981 2.13222 48.203 2.01002C48.2126 1.88781 48.2248 1.79249 48.2393 1.72406C48.2587 1.65562 48.2829 1.57986 48.312 1.49676C48.3411 1.40877 48.3799 1.34278 48.4284 1.29878C48.4769 1.25479 48.5326 1.2108 48.5956 1.1668C48.7072 1.0837 48.8914 1.04215 49.1483 1.04215C49.4101 1.04215 49.6016 1.10814 49.7228 1.24013C49.8489 1.36722 49.9604 1.58475 50.0573 1.8927C49.9846 1.98069 49.8998 2.02468 49.8028 2.02468C49.7689 2.02468 49.7349 2.0198 49.701 2.01002C49.6137 1.77539 49.5337 1.61652 49.461 1.53342C49.3932 1.45032 49.2986 1.40877 49.1774 1.40877C49.0562 1.40877 48.9641 1.43077 48.9011 1.47476C48.8429 1.51875 48.7968 1.57497 48.7629 1.6434C48.6902 1.79005 48.6538 2.14445 48.6538 2.70659C48.6538 2.73103 48.6538 2.77502 48.6538 2.83857C48.6538 2.90212 48.6538 2.96078 48.6538 3.01455L49.272 2.95589C49.5144 2.95589 49.6356 3.0121 49.6356 3.12453C49.6356 3.19785 49.5774 3.24674 49.461 3.27118C49.3447 3.29562 49.1968 3.31028 49.0174 3.31517C48.8429 3.32006 48.7217 3.33472 48.6538 3.35917C48.6441 3.49604 48.6393 3.6769 48.6393 3.90176C48.6393 4.12173 48.6514 4.47368 48.6756 4.95761C48.6999 5.43666 48.712 5.80327 48.712 6.05746C48.712 6.31165 48.6853 6.49251 48.632 6.60005C48.5835 6.70759 48.4793 6.76136 48.3193 6.76136Z" fill="white"/>
<path d="M50.1943 3.66712C50.4415 3.28584 50.7978 3.0952 51.2633 3.0952C51.7287 3.0952 52.0996 3.28584 52.3759 3.66712C52.6571 4.0484 52.7977 4.48345 52.7977 4.97228C52.7977 5.45621 52.645 5.86682 52.3395 6.2041C52.0341 6.54139 51.6463 6.71003 51.176 6.71003C50.7057 6.71003 50.3639 6.57805 50.1506 6.31409C49.9373 6.04524 49.8307 5.66885 49.8307 5.18491C49.8307 4.55433 49.9519 4.0484 50.1943 3.66712ZM50.5142 4.05574C50.4512 4.24638 50.4027 4.43702 50.3688 4.62766C50.3397 4.8183 50.3252 4.99672 50.3252 5.16292C50.3252 5.32423 50.3373 5.47332 50.3615 5.61019C50.3858 5.74217 50.427 5.87415 50.4851 6.00613C50.5433 6.13323 50.6306 6.23588 50.7469 6.31409C50.8633 6.38741 51.0015 6.42407 51.1615 6.42407C51.4863 6.42407 51.7578 6.28965 51.9759 6.0208C52.199 5.75195 52.3105 5.42688 52.3105 5.0456C52.3105 4.66432 52.2086 4.29526 52.005 3.93842C51.8062 3.57669 51.5614 3.39583 51.2705 3.39583C51.096 3.39583 50.9433 3.45693 50.8124 3.57914C50.6815 3.70134 50.5821 3.86021 50.5142 4.05574Z" fill="white"/>
<path d="M54.2247 5.99147L54.2465 6.40941C54.2465 6.51695 54.215 6.59272 54.152 6.63671C54.0938 6.67582 54.0332 6.69537 53.9702 6.69537C53.912 6.69537 53.8514 6.68559 53.7884 6.66604C53.6817 6.09901 53.5993 5.39266 53.5411 4.547C53.4878 3.70134 53.4563 3.2223 53.4466 3.10987C53.5193 3.04143 53.5945 3.00721 53.672 3.00721C53.7545 3.00721 53.8272 3.01699 53.8902 3.03654C53.9096 3.1783 53.9241 3.49115 53.9338 3.97508C53.9435 4.45901 53.9557 4.76208 53.9702 4.88429C54.0381 4.47368 54.1593 4.08995 54.3338 3.73311C54.4308 3.5327 54.5568 3.37383 54.712 3.25651C54.8719 3.13431 55.0416 3.07321 55.221 3.07321C55.4052 3.07321 55.5725 3.1563 55.7228 3.3225C55.8779 3.48382 55.9555 3.63046 55.9555 3.76244C55.9555 3.81133 55.9264 3.85043 55.8682 3.87976C55.81 3.9042 55.7446 3.91642 55.6719 3.91642C55.604 3.91642 55.5507 3.88954 55.5119 3.83577C55.4731 3.782 55.4464 3.72334 55.4319 3.65979C55.4174 3.59136 55.3858 3.53025 55.3374 3.47648C55.2889 3.42271 55.2234 3.39583 55.141 3.39583C54.9228 3.39583 54.7362 3.5938 54.5811 3.98974C54.3435 4.58122 54.2247 5.24846 54.2247 5.99147Z" fill="white"/>
<path d="M58.6391 1.26946C58.6439 1.61163 58.6463 1.86826 58.6463 2.03935C58.6463 2.20555 58.6439 2.37175 58.6391 2.53795C58.6391 2.70415 58.6318 3.02677 58.6173 3.50581C58.6027 3.97997 58.593 4.35636 58.5882 4.63499C58.7724 4.5079 58.993 4.31237 59.2499 4.0484C59.5069 3.77955 59.7396 3.54981 59.9481 3.35917C60.2777 3.06098 60.5129 2.97055 60.6535 3.08787C60.7068 3.13186 60.7238 3.17341 60.7044 3.21252C60.6559 3.31517 60.5444 3.43982 60.3698 3.58647C60.2002 3.73311 59.999 3.89931 59.7663 4.08507C59.5336 4.27082 59.3493 4.4419 59.2136 4.59833C59.5675 4.64721 59.8511 4.84763 60.0644 5.19958C60.1565 5.36089 60.2462 5.5222 60.3335 5.68351C60.5565 6.10879 60.7989 6.39719 61.0607 6.54872C60.9637 6.64649 60.8522 6.69537 60.7262 6.69537C60.6001 6.69537 60.4741 6.63427 60.348 6.51206C60.2268 6.38986 60.1202 6.24077 60.0281 6.06479C59.9408 5.88882 59.8511 5.71284 59.759 5.53686C59.5505 5.11159 59.3081 4.89895 59.0318 4.89895C58.9009 4.89895 58.7894 4.94295 58.6973 5.03093C58.6051 5.11403 58.5591 5.20202 58.5591 5.2949C58.5591 5.88148 58.5494 6.31653 58.53 6.60005C58.4621 6.69293 58.3894 6.73936 58.3118 6.73936C58.2876 6.73936 58.2609 6.73448 58.2318 6.7247C58.1252 6.68071 58.0718 6.59027 58.0718 6.4534C58.0767 6.31653 58.0912 5.90104 58.1155 5.20691C58.1688 3.43249 58.1955 2.29842 58.1955 1.80471C58.1955 1.57497 58.2173 1.42099 58.2609 1.34278C58.3094 1.26457 58.3652 1.22546 58.4282 1.22546C58.4961 1.22546 58.5664 1.24013 58.6391 1.26946Z" fill="white"/>
<path d="M61.9965 1.31345C61.9916 1.42588 61.9892 1.55053 61.9892 1.6874C61.9892 1.82427 61.9965 1.96603 62.011 2.11267C61.9431 2.19088 61.851 2.22999 61.7347 2.22999C61.5892 2.22999 61.5165 2.11267 61.5165 1.87804C61.5165 1.86826 61.5165 1.8316 61.5165 1.76805C61.5165 1.70451 61.5165 1.64829 61.5165 1.59941C61.5214 1.54564 61.5311 1.48454 61.5456 1.4161C61.5795 1.29878 61.6547 1.24013 61.771 1.24013C61.8874 1.24013 61.9625 1.26457 61.9965 1.31345ZM61.5311 4.90628C61.5311 3.94819 61.5795 3.39583 61.6765 3.24918C61.7104 3.19541 61.7516 3.16853 61.8001 3.16853C61.8486 3.16853 61.9286 3.19541 62.0401 3.24918C62.0159 3.66468 62.0037 4.11684 62.0037 4.60566C62.0037 4.60566 62.0086 5.14581 62.0183 6.2261C62.0183 6.37764 61.9844 6.48518 61.9165 6.54872C61.8535 6.60738 61.7928 6.63671 61.7347 6.63671C61.6813 6.63671 61.6256 6.62205 61.5674 6.59272C61.5432 5.95725 61.5311 5.39511 61.5311 4.90628Z" fill="white"/>
<path d="M65.6703 0.836848C65.4861 2.51839 65.394 3.71845 65.394 4.43702C65.394 5.1507 65.4594 5.86437 65.5903 6.57805C65.4934 6.67582 65.4085 6.7247 65.3358 6.7247C65.2631 6.7247 65.2025 6.71492 65.154 6.69537C65.0522 6.33364 64.9916 5.94014 64.9722 5.51487C64.8558 5.70062 64.7686 5.8326 64.7104 5.91081C64.6571 5.98902 64.5625 6.1039 64.4268 6.25543C64.1795 6.54872 63.8862 6.69537 63.5468 6.69537C63.2899 6.69537 63.1033 6.57561 62.9869 6.33609C62.8754 6.09168 62.8196 5.78127 62.8196 5.40488C62.8196 5.0236 62.8608 4.66187 62.9433 4.3197C63.0305 3.97264 63.1784 3.67446 63.3869 3.42516C63.5953 3.17097 63.8523 3.04388 64.1577 3.04388C64.3419 3.04388 64.5116 3.08298 64.6668 3.16119C64.8219 3.2394 64.9286 3.3445 64.9867 3.47648C64.9964 3.3445 65.0061 3.14164 65.0158 2.8679C65.0255 2.59416 65.0352 2.35219 65.0449 2.142C65.0595 1.92692 65.0813 1.70939 65.1104 1.48942C65.1637 1.02016 65.2825 0.785522 65.4667 0.785522C65.5297 0.785522 65.5976 0.802631 65.6703 0.836848ZM64.8195 3.74045C64.7613 3.63291 64.6813 3.55469 64.5795 3.50581C64.4777 3.45204 64.3419 3.42516 64.1723 3.42516C64.0074 3.42516 63.8523 3.52048 63.7068 3.71112C63.4208 4.08751 63.2778 4.63254 63.2778 5.34622C63.2778 5.57597 63.3141 5.80572 63.3869 6.03546C63.4596 6.26032 63.5662 6.37275 63.7068 6.37275C63.9105 6.37275 64.1092 6.23832 64.3032 5.96947C64.4971 5.70062 64.6474 5.39266 64.754 5.0456C64.8607 4.69365 64.914 4.37836 64.914 4.09973C64.914 3.96775 64.8825 3.84799 64.8195 3.74045Z" fill="white"/>
<path d="M68.1985 3.77711C68.1549 3.66468 68.0725 3.57669 67.9513 3.51314C67.8301 3.4496 67.6798 3.41782 67.5004 3.41782C67.321 3.41782 67.1513 3.47159 66.9913 3.57914C66.8362 3.68668 66.7586 3.83088 66.7586 4.01174C66.7586 4.19261 66.8314 4.33681 66.9768 4.44435C67.1271 4.547 67.3065 4.62521 67.5149 4.67898C67.7283 4.73275 67.9416 4.79141 68.1549 4.85496C68.3682 4.91362 68.5476 5.01383 68.693 5.15558C68.8433 5.29245 68.9185 5.47332 68.9185 5.69817C68.9185 6.02568 68.7827 6.27498 68.5112 6.44607C68.2446 6.61716 67.9222 6.7027 67.544 6.7027C67.321 6.7027 67.0277 6.6416 66.6641 6.51939C66.3053 6.39719 66.126 6.25054 66.126 6.07946C66.126 5.95236 66.2326 5.88881 66.4459 5.88881C66.509 5.88881 66.5914 5.92792 66.6932 6.00613C67.0035 6.23588 67.321 6.35075 67.6458 6.35075C67.8204 6.35075 67.9707 6.32142 68.0967 6.26276C68.3294 6.15033 68.4458 5.96947 68.4458 5.72017C68.4458 5.56864 68.3706 5.44643 68.2203 5.35356C68.0749 5.26068 67.8955 5.18736 67.6822 5.13359C67.4737 5.07982 67.2628 5.02116 67.0495 4.95761C66.8362 4.89406 66.6544 4.78897 66.5041 4.64232C66.3587 4.49079 66.2859 4.30015 66.2859 4.0704C66.2859 3.77222 66.4193 3.53025 66.6859 3.3445C66.9526 3.15875 67.2822 3.06587 67.6749 3.06587C67.9416 3.06587 68.1816 3.13675 68.3949 3.27851C68.613 3.41538 68.7221 3.6158 68.7221 3.87976C68.7221 4.05574 68.6227 4.14372 68.424 4.14372C68.3415 4.14372 68.2858 4.12906 68.2567 4.09973C68.2325 4.0704 68.2179 4.01907 68.2131 3.94575C68.2131 3.86754 68.2082 3.81133 68.1985 3.77711Z" fill="white"/>
</svg>
