<svg width="49" height="6" viewBox="0 0 49 6" fill="none" xmlns="http://www.w3.org/2000/svg">
<path d="M0.997701 2.83058C0.995225 2.3694 0.973984 1.96302 0.933979 1.61143C0.933487 1.51979 0.971174 1.43977 1.04704 1.37136C1.12291 1.30296 1.22378 1.25068 1.34967 1.21453C1.60147 1.14814 1.87837 1.11413 2.18036 1.11251C2.57031 1.11042 2.87717 1.19598 3.10094 1.3692C3.32762 1.53945 3.44192 1.80343 3.44384 2.16114C3.44576 2.51884 3.30364 2.80637 3.01746 3.02372C2.73129 3.24107 2.3815 3.35085 1.96809 3.35307C1.75698 3.3542 1.53538 3.31105 1.30328 3.22361C1.28938 3.36558 1.28308 3.55778 1.28439 3.80019L1.28995 4.01745C1.29033 4.0884 1.28926 4.16232 1.28674 4.23919C1.27219 4.25997 1.25615 4.27483 1.2386 4.2838C1.22106 4.29276 1.2079 4.29874 1.19912 4.30175C1.19328 4.30769 1.18305 4.31218 1.1684 4.31522C1.15376 4.31825 1.1435 4.31978 1.13764 4.31981C1.12008 4.32582 1.09957 4.32889 1.07612 4.32901L1.00135 4.32942C0.994297 4.10773 0.990293 3.9082 0.989341 3.73082L0.997701 2.83058ZM1.29277 2.90438C1.50758 3.04808 1.76452 3.11914 2.06358 3.11753C2.36263 3.11297 2.61428 3.01849 2.81853 2.8341C3.02277 2.64676 3.12417 2.41858 3.12272 2.14956C3.12128 1.88054 3.01465 1.68008 2.80283 1.54818C2.59101 1.41629 2.33704 1.35113 2.04091 1.35272C1.74771 1.3543 1.4886 1.42368 1.26356 1.56088C1.27926 1.75296 1.28899 2.20079 1.29277 2.90438Z" fill="white"/>
<path d="M4.25708 3.8064L4.27163 4.05909C4.27198 4.12413 4.25317 4.17005 4.2152 4.19686C4.18014 4.2207 4.14356 4.23272 4.10544 4.23293C4.07026 4.23312 4.03357 4.2274 3.9954 4.21578C3.92905 3.8732 3.87691 3.44629 3.83898 2.93505C3.80399 2.42379 3.78337 2.13418 3.77714 2.06622C3.8209 2.0246 3.86623 2.00366 3.91315 2.00341C3.96299 2.00314 4.007 2.00882 4.04518 2.02044C4.05737 2.10611 4.06718 2.29526 4.07462 2.58789C4.08205 2.88053 4.09037 3.06378 4.09956 3.13764C4.13927 2.88909 4.21133 2.65663 4.31572 2.44026C4.37371 2.31874 4.44942 2.22225 4.54287 2.1508C4.63922 2.07637 4.74164 2.03887 4.85013 2.03829C4.96154 2.03769 5.06297 2.0874 5.1544 2.18743C5.24874 2.28448 5.29613 2.37291 5.29656 2.45273C5.29672 2.4823 5.27925 2.50604 5.24417 2.52397C5.20906 2.53894 5.16952 2.54654 5.12554 2.54678C5.08449 2.547 5.05215 2.53091 5.02852 2.49852C5.00489 2.46612 4.98858 2.43074 4.97957 2.39235C4.97056 2.35101 4.9513 2.31416 4.9218 2.2818C4.89231 2.24944 4.85264 2.23339 4.8028 2.23366C4.67086 2.23437 4.55862 2.3547 4.46608 2.59466C4.32434 2.95314 4.25467 3.35705 4.25708 3.8064Z" fill="white"/>
<path d="M5.7032 2.3929C5.85149 2.16151 6.06637 2.04506 6.34784 2.04355C6.62931 2.04204 6.85423 2.15613 7.02259 2.38582C7.19388 2.61549 7.28032 2.87814 7.28191 3.17376C7.28348 3.46643 7.19246 3.71525 7.00884 3.92023C6.82522 4.1252 6.59121 4.22845 6.30681 4.22998C6.02241 4.2315 5.81527 4.15279 5.68541 3.99385C5.55553 3.83195 5.4898 3.60466 5.48823 3.312C5.48618 2.93064 5.55784 2.62428 5.7032 2.3929ZM5.89797 2.62688C5.86048 2.74238 5.83178 2.85783 5.81187 2.97324C5.7949 3.08862 5.78668 3.19657 5.78722 3.29709C5.78774 3.39464 5.79556 3.48477 5.81066 3.56746C5.82575 3.6472 5.8511 3.72689 5.88671 3.80652C5.92231 3.88319 5.97542 3.94499 6.04604 3.99191C6.11665 4.03588 6.20033 4.0576 6.29708 4.05708C6.49353 4.05603 6.65728 3.97385 6.78835 3.81055C6.92234 3.64723 6.98872 3.45028 6.98748 3.21969C6.98625 2.9891 6.92348 2.76624 6.79918 2.55109C6.67779 2.33298 6.52914 2.22439 6.35322 2.22533C6.24767 2.2259 6.15551 2.26335 6.07674 2.33768C5.99797 2.41201 5.93839 2.50841 5.89797 2.62688Z" fill="white"/>
<path d="M7.48425 2.09066C7.51033 2.03435 7.56736 2.00596 7.65532 2.00549C7.69343 2.00528 7.72573 2.01398 7.75221 2.03157C7.83553 2.25876 7.91739 2.48744 7.99779 2.7176C8.14959 3.13954 8.29066 3.47285 8.42098 3.71752C8.48062 3.35653 8.59741 2.99228 8.77136 2.62476C8.94824 2.25722 9.10998 2.07306 9.25658 2.07228C9.30056 2.07204 9.3446 2.08215 9.38869 2.10261C9.05391 2.55081 8.81519 3.14336 8.67255 3.88025C8.64415 4.05187 8.61242 4.1496 8.57736 4.17344C8.53939 4.20025 8.49988 4.21376 8.45883 4.21398C8.41778 4.21421 8.38548 4.20551 8.36193 4.1879C8.34131 4.17027 8.32509 4.15262 8.31327 4.13495C8.30438 4.11726 8.29103 4.08776 8.27321 4.04647C8.25833 4.00516 8.24645 3.97714 8.23758 3.96241C7.93548 3.39937 7.68437 2.77545 7.48425 2.09066Z" fill="white"/>
<path d="M9.97279 0.946502C9.97022 1.01451 9.96916 1.0899 9.9696 1.17268C9.97005 1.25545 9.9749 1.34116 9.98418 1.4298C9.94338 1.47732 9.8878 1.50127 9.81743 1.50165C9.72948 1.50212 9.68512 1.43141 9.68435 1.28951C9.68432 1.28359 9.6842 1.26142 9.684 1.22299C9.68379 1.18456 9.68361 1.15056 9.68345 1.121C9.68621 1.08847 9.69187 1.05148 9.70045 1.01005C9.72059 0.938987 9.76584 0.903268 9.83621 0.90289C9.90658 0.902512 9.9521 0.91705 9.97279 0.946502ZM9.70298 3.12085C9.69987 2.54143 9.7274 2.20722 9.78556 2.11821C9.80591 2.08559 9.83074 2.06919 9.86006 2.06903C9.88938 2.06888 9.93785 2.08488 10.0055 2.11703C9.99215 2.36839 9.98629 2.64188 9.98787 2.93751C9.98787 2.93751 9.99256 3.26416 10.0019 3.91746C10.0024 4.0091 9.98225 4.07425 9.94141 4.1129C9.90348 4.14858 9.86693 4.16651 9.83175 4.1667C9.79949 4.16688 9.76573 4.15819 9.73045 4.14064C9.71373 3.75641 9.70457 3.41648 9.70298 3.12085Z" fill="white"/>
<path d="M12.1931 0.646337C12.0871 1.66388 12.0353 2.38994 12.0376 2.82451C12.04 3.25612 12.0819 3.68752 12.1633 4.11871C12.105 4.17815 12.0539 4.20798 12.0099 4.20822C11.9659 4.20846 11.9292 4.20274 11.8998 4.19107C11.8371 3.97264 11.7992 3.73486 11.7861 3.47773C11.7163 3.59045 11.6639 3.67055 11.629 3.71804C11.597 3.76551 11.5402 3.83529 11.4586 3.92737C11.31 4.10555 11.1331 4.19519 10.9279 4.19629C10.7725 4.19713 10.6592 4.1253 10.5881 3.98083C10.5198 3.83338 10.4851 3.64584 10.4839 3.41821C10.4827 3.18762 10.5064 2.96872 10.5551 2.76152C10.6068 2.55134 10.6952 2.37053 10.8205 2.21908C10.9458 2.06468 11.1007 1.98699 11.2855 1.98599C11.3969 1.9854 11.4996 2.00849 11.5937 2.05529C11.6878 2.10209 11.7526 2.1653 11.7882 2.24493C11.7937 2.16508 11.7989 2.04236 11.8038 1.87678C11.8088 1.7112 11.8139 1.56484 11.8191 1.43769C11.8272 1.30756 11.8397 1.17594 11.8565 1.04281C11.8873 0.758842 11.9583 0.616556 12.0698 0.615958C12.1079 0.615754 12.149 0.62588 12.1931 0.646337ZM11.6879 2.40511C11.6524 2.34026 11.6038 2.29322 11.542 2.26399C11.4803 2.2318 11.3981 2.21598 11.2955 2.21653C11.1958 2.21707 11.1023 2.27522 11.015 2.39099C10.8432 2.61955 10.7585 2.94963 10.7608 3.38124C10.7615 3.52019 10.7843 3.65901 10.829 3.79772C10.8737 3.93347 10.9386 4.00112 11.0236 4.00066C11.1467 4 11.2665 3.91806 11.3829 3.75483C11.4993 3.59161 11.5892 3.40488 11.6526 3.19464C11.716 2.98144 11.7472 2.79059 11.7463 2.62209C11.7458 2.54227 11.7264 2.46994 11.6879 2.40511Z" fill="white"/>
<path d="M12.932 0.930612C12.9294 0.998621 12.9283 1.07401 12.9288 1.15679C12.9292 1.23956 12.9341 1.32527 12.9434 1.41391C12.9026 1.46143 12.847 1.48538 12.7766 1.48576C12.6887 1.48623 12.6443 1.41552 12.6435 1.27362C12.6435 1.2677 12.6434 1.24553 12.6432 1.2071C12.643 1.16867 12.6428 1.13467 12.6426 1.10511C12.6454 1.07258 12.651 1.03559 12.6596 0.994157C12.6798 0.923097 12.725 0.887378 12.7954 0.887C12.8658 0.886622 12.9113 0.90116 12.932 0.930612ZM12.6622 3.10496C12.659 2.52554 12.6866 2.19133 12.7447 2.10232C12.7651 2.0697 12.7899 2.0533 12.8192 2.05314C12.8486 2.05299 12.897 2.06899 12.9646 2.10114C12.9513 2.3525 12.9455 2.62599 12.9471 2.92162C12.9471 2.92162 12.9517 3.24827 12.9611 3.90157C12.9616 3.99321 12.9414 4.05836 12.9006 4.09701C12.8627 4.13269 12.8261 4.15062 12.7909 4.15081C12.7587 4.15099 12.7249 4.1423 12.6896 4.12475C12.6729 3.74052 12.6637 3.40059 12.6622 3.10496Z" fill="white"/>
<path d="M15.3246 4.05739C15.2721 4.11384 15.2122 4.14225 15.1447 4.14261C15.0186 4.14328 14.9245 4.07579 14.8622 3.94014C14.7999 3.80448 14.7623 3.63913 14.7495 3.44408C14.7397 3.24901 14.7328 3.05393 14.7288 2.85884C14.7248 2.66374 14.7078 2.49828 14.6778 2.36245C14.6506 2.2266 14.599 2.15888 14.5227 2.15929C14.4201 2.15984 14.3327 2.25344 14.2604 2.44008C14.191 2.6267 14.1423 2.8339 14.1142 3.06169C14.0355 3.69772 13.9582 4.05438 13.8824 4.13165C13.8298 4.15854 13.7844 4.17208 13.7463 4.17229C13.7082 4.17249 13.6759 4.16823 13.6495 4.15951C13.5864 3.88786 13.5443 3.41951 13.5232 2.75445C13.5155 2.42338 13.5085 2.20908 13.5021 2.11156C13.5635 2.06984 13.6161 2.04887 13.6601 2.04863C13.7041 2.04839 13.7393 2.05264 13.7657 2.06137C13.7811 2.18841 13.7898 2.44852 13.7919 2.8417C13.797 3.23486 13.8011 3.461 13.8044 3.52011C13.8187 3.45795 13.8357 3.35734 13.8555 3.21829C13.8782 3.07922 13.8981 2.96529 13.9152 2.87651C13.9323 2.78477 13.9596 2.6782 13.9971 2.55679C14.0346 2.43538 14.0766 2.33907 14.1231 2.26787C14.1696 2.19371 14.2338 2.13128 14.3156 2.08059C14.3974 2.02693 14.4896 1.99983 14.5922 1.99928C14.73 1.99854 14.8301 2.06156 14.8923 2.18835C14.9575 2.31217 14.9935 2.46718 15.0004 2.65339C15.0072 2.8396 15.0112 3.02879 15.0122 3.22094C15.0162 3.41308 15.0406 3.58885 15.0854 3.74826C15.1332 3.90764 15.2129 4.01068 15.3246 4.05739Z" fill="white"/>
<path d="M16.367 1.95871C16.6338 1.95727 16.8191 2.06566 16.9229 2.28387C16.9793 2.39887 17.0253 2.50801 17.061 2.61129C17.0968 2.71457 17.121 2.85634 17.1337 3.03661C17.1528 3.31144 17.1632 3.62476 17.1651 3.97655C17.167 4.32539 17.0849 4.60372 16.9189 4.81156C16.7559 5.02233 16.5145 5.12858 16.1949 5.13029C15.8783 5.132 15.6139 5.02994 15.4016 4.82414C15.46 4.7647 15.5228 4.7348 15.5903 4.73444C15.6607 4.73406 15.7561 4.76311 15.8766 4.82159C16.0001 4.88301 16.1307 4.91335 16.2685 4.91261C16.4063 4.91187 16.5205 4.87874 16.6111 4.81321C16.7016 4.75064 16.7686 4.66159 16.8119 4.54606C16.8841 4.34169 16.9194 4.09021 16.9178 3.79163C16.9176 3.74729 16.9123 3.58324 16.902 3.29949C16.8241 3.54232 16.7123 3.74395 16.5666 3.90438C16.4208 4.06185 16.2556 4.14108 16.0709 4.14207C15.8862 4.14306 15.7494 4.06102 15.6605 3.89594C15.5746 3.72789 15.5311 3.53744 15.5299 3.32459C15.5288 3.11174 15.557 2.90465 15.6146 2.70331C15.6721 2.49901 15.7665 2.32408 15.8976 2.17852C16.0288 2.03295 16.1853 1.95968 16.367 1.95871ZM15.9045 2.63523C15.8671 2.76551 15.8399 2.88835 15.8229 3.00374C15.8059 3.11912 15.7977 3.23594 15.7984 3.35419C15.799 3.46949 15.8231 3.59796 15.8708 3.7396C15.9214 3.88124 15.9936 3.9518 16.0875 3.9513C16.2722 3.9503 16.4356 3.81048 16.5778 3.53182C16.72 3.25021 16.7903 2.9675 16.7887 2.6837C16.7882 2.58614 16.7422 2.47701 16.6506 2.35629C16.562 2.2326 16.4503 2.17112 16.3154 2.17184C16.2216 2.17234 16.1383 2.21714 16.0654 2.30622C15.9955 2.39528 15.9419 2.50495 15.9045 2.63523Z" fill="white"/>
<path d="M20.457 4.02983C20.4045 4.08628 20.3445 4.11469 20.2771 4.11505C20.151 4.11572 20.0568 4.04823 19.9945 3.91258C19.9322 3.77692 19.8947 3.61157 19.8819 3.41652C19.8721 3.22145 19.8652 3.02637 19.8612 2.83128C19.8572 2.63618 19.8402 2.47072 19.8102 2.33489C19.783 2.19904 19.7314 2.13132 19.6551 2.13173C19.5525 2.13229 19.465 2.22588 19.3927 2.41252C19.3234 2.59914 19.2746 2.80634 19.2466 3.03413C19.1679 3.67016 19.0906 4.02682 19.0148 4.10409C18.9622 4.13098 18.9168 4.14452 18.8787 4.14473C18.8406 4.14493 18.8083 4.14067 18.7818 4.13195C18.7188 3.8603 18.6767 3.39195 18.6556 2.72689C18.6479 2.39582 18.6409 2.18153 18.6345 2.084C18.6959 2.04228 18.7485 2.02131 18.7925 2.02107C18.8365 2.02083 18.8717 2.02508 18.8981 2.03381C18.9135 2.16085 18.9222 2.42096 18.9243 2.81414C18.9294 3.2073 18.9335 3.43344 18.9367 3.49255C18.9511 3.43039 18.9681 3.32978 18.9879 3.19073C19.0106 3.05166 19.0305 2.93773 19.0476 2.84895C19.0647 2.75721 19.092 2.65064 19.1295 2.52923C19.167 2.40782 19.209 2.31151 19.2555 2.24031C19.302 2.16615 19.3662 2.10372 19.448 2.05303C19.5298 1.99937 19.622 1.97227 19.7246 1.97172C19.8624 1.97098 19.9625 2.034 20.0247 2.16079C20.0899 2.28461 20.1259 2.43962 20.1328 2.62583C20.1396 2.81204 20.1436 3.00123 20.1446 3.19338C20.1486 3.38552 20.173 3.5613 20.2178 3.7207C20.2656 3.88008 20.3453 3.98313 20.457 4.02983Z" fill="white"/>
<path d="M20.9612 3.25108C20.9556 3.31024 20.9529 3.35016 20.953 3.37086C20.954 3.54823 21.0075 3.68541 21.1135 3.7824C21.2225 3.87938 21.3503 3.92747 21.4969 3.92668C21.6435 3.9259 21.7622 3.90457 21.8529 3.86269C21.9465 3.8208 22.0136 3.77609 22.0544 3.72857C22.1593 3.59497 22.2557 3.52794 22.3436 3.52747C22.3759 3.52729 22.4141 3.53596 22.4581 3.55346C22.4296 3.69847 22.3189 3.8321 22.126 3.95435C21.9361 4.07362 21.696 4.13404 21.4057 4.13559C21.2005 4.1367 21.0227 4.07261 20.8725 3.94334C20.7252 3.8111 20.6509 3.63116 20.6497 3.40353C20.6485 3.1759 20.6913 2.95542 20.7781 2.7421C20.8678 2.52581 20.9959 2.34183 21.1622 2.19016C21.3314 2.03552 21.5025 1.95774 21.6755 1.95681C21.8514 1.95586 21.9923 1.99206 22.0983 2.0654C22.2072 2.13577 22.262 2.24042 22.2627 2.37937C22.2641 2.63656 22.1509 2.85002 21.9231 3.01976C21.6982 3.18652 21.4582 3.27059 21.2032 3.27196C21.1357 3.27232 21.0551 3.26536 20.9612 3.25108ZM21.2946 3.10295C21.4324 3.10221 21.5553 3.05721 21.6633 2.96794C21.7713 2.87867 21.8471 2.78514 21.8905 2.68735C21.9369 2.58954 21.9599 2.50072 21.9595 2.42091C21.959 2.34109 21.9279 2.27178 21.866 2.21299C21.8041 2.15124 21.7321 2.12058 21.65 2.12102C21.5034 2.12181 21.3676 2.22453 21.2426 2.42919C21.1206 2.63383 21.0337 2.84568 20.9821 3.06472C21.1113 3.09063 21.2154 3.10338 21.2946 3.10295Z" fill="white"/>
<path d="M24.0007 3.62056C23.9545 3.7568 23.8643 3.87258 23.7299 3.96791C23.5985 4.06322 23.4536 4.11129 23.2953 4.11214C23.1399 4.11298 23.0178 4.03529 22.929 3.87908C22.8431 3.7199 22.7994 3.49989 22.7979 3.21905C22.7936 2.42677 22.9073 2.03002 23.1389 2.02877C23.1682 2.02861 23.2049 2.03285 23.2489 2.04148C23.2404 2.08883 23.2204 2.17911 23.1888 2.31231C23.1257 2.57281 23.0947 2.80209 23.0958 3.00016C23.0968 3.19823 23.1258 3.40797 23.1827 3.62939C23.2396 3.84785 23.3193 3.95681 23.422 3.95626C23.4747 3.95597 23.5259 3.9217 23.5753 3.85344C23.6248 3.78518 23.664 3.71402 23.6929 3.63995C23.7219 3.56293 23.7522 3.47556 23.7839 3.37783C23.8156 3.2801 23.8358 3.22086 23.8445 3.20012C23.7996 3.0289 23.7767 2.8546 23.7757 2.67722C23.7757 2.66835 23.7755 2.64175 23.7753 2.5974C23.7751 2.5501 23.7763 2.50427 23.779 2.45992C23.7817 2.41556 23.7902 2.3623 23.8045 2.30014C23.8332 2.17582 23.912 2.11331 24.041 2.11262C24.1495 2.11204 24.2046 2.27729 24.2064 2.60839C24.2067 2.66752 24.1984 2.7533 24.1814 2.86573C24.1673 2.97814 24.1604 3.05652 24.1606 3.10087C24.1614 3.23685 24.2268 3.41241 24.357 3.62752C24.4872 3.84263 24.6079 3.94989 24.7194 3.94929C24.8337 3.94868 24.9169 3.88319 24.969 3.75283C25.0211 3.62247 25.0467 3.47748 25.0458 3.31784C25.0448 3.13455 25.028 2.9957 24.9952 2.90127C24.9654 2.80387 24.946 2.74041 24.937 2.7109C24.931 2.68137 24.9117 2.63565 24.8791 2.57374C24.8494 2.50886 24.8302 2.46757 24.8213 2.44988C24.8153 2.43218 24.7931 2.38943 24.7546 2.32164C24.7161 2.25385 24.6939 2.21554 24.688 2.2067C24.6022 2.05639 24.5519 1.97388 24.5371 1.95918C24.6101 1.89671 24.6774 1.8653 24.739 1.86497C24.9185 1.99409 25.0618 2.20617 25.169 2.50123C25.2761 2.79333 25.3303 3.06059 25.3316 3.303C25.3329 3.54246 25.2826 3.73193 25.1807 3.87143C25.0818 4.00795 24.9253 4.07679 24.7113 4.07793C24.5617 4.07874 24.4193 4.03811 24.284 3.95606C24.1516 3.87104 24.0572 3.75921 24.0007 3.62056Z" fill="white"/>
<path d="M26.8031 0.931514C26.8379 0.866288 26.9022 0.833423 26.9961 0.832919C27.0166 0.832809 27.0371 0.835655 27.0577 0.841457C27.0644 0.998107 27.0697 1.43562 27.0735 2.15398C27.0764 2.15101 27.0896 2.13764 27.1129 2.11386C27.1392 2.09007 27.1552 2.0752 27.161 2.06926C27.1669 2.06331 27.1815 2.04993 27.2048 2.02911C27.2281 2.00534 27.2456 1.99046 27.2573 1.98448C27.2719 1.97554 27.2909 1.96361 27.3143 1.9487C27.3377 1.93084 27.3581 1.9189 27.3757 1.9129C27.3932 1.90393 27.4137 1.89496 27.4371 1.88596C27.481 1.87094 27.5323 1.86328 27.5909 1.86296C27.8079 1.8618 27.9828 1.9525 28.1158 2.13508C28.2487 2.3147 28.3157 2.51685 28.3169 2.74153C28.3181 2.9662 28.2856 3.18071 28.2192 3.38505C28.1529 3.58644 28.0497 3.7629 27.9098 3.91442C27.7699 4.06594 27.6061 4.14221 27.4185 4.14322C27.2337 4.14421 27.078 4.07557 26.9512 3.93731C26.8273 3.79902 26.7648 3.6412 26.7639 3.46382C26.7629 3.28349 26.7714 2.95234 26.7893 2.47036C26.8073 1.98542 26.8157 1.63801 26.8145 1.42812C26.8134 1.21527 26.8096 1.04973 26.8031 0.931514ZM27.4481 3.92577C27.5624 3.92516 27.6648 3.86991 27.7551 3.76004C27.9386 3.54325 28.0293 3.23678 28.0272 2.84064C28.0261 2.62779 27.984 2.44029 27.901 2.27814C27.818 2.11303 27.7018 2.03088 27.5523 2.03168C27.4672 2.03214 27.3927 2.0754 27.3287 2.16148C27.2646 2.2446 27.2153 2.35573 27.1809 2.49486C27.1149 2.75833 27.0827 3.05118 27.0845 3.37341C27.0859 3.64538 27.1425 3.81211 27.2543 3.8736C27.3043 3.90289 27.3689 3.92028 27.4481 3.92577Z" fill="white"/>
<path d="M28.9754 3.20805C28.9699 3.2672 28.9672 3.30713 28.9673 3.32782C28.9682 3.5052 29.0217 3.64238 29.1278 3.73937C29.2368 3.83634 29.3646 3.88444 29.5112 3.88365C29.6578 3.88286 29.7764 3.86153 29.8671 3.81966C29.9607 3.77776 30.0279 3.73306 30.0687 3.68554C30.1735 3.55194 30.2699 3.4849 30.3579 3.48443C30.3902 3.48426 30.4283 3.49292 30.4724 3.51042C30.4438 3.65544 30.3331 3.78907 30.1403 3.91131C29.9503 4.03059 29.7102 4.091 29.42 4.09256C29.2147 4.09366 29.037 4.02958 28.8868 3.90031C28.7395 3.76806 28.6652 3.58812 28.664 3.36049C28.6627 3.13286 28.7055 2.91239 28.7924 2.69906C28.8821 2.48277 29.0101 2.29879 29.1764 2.14712C29.3457 1.99249 29.5168 1.9147 29.6898 1.91377C29.8657 1.91283 30.0066 1.94903 30.1126 2.02237C30.2214 2.09273 30.2762 2.19739 30.277 2.33633C30.2783 2.59353 30.1651 2.80699 29.9374 2.97672C29.7125 3.14349 29.4725 3.22755 29.2174 3.22892C29.15 3.22928 29.0693 3.22233 28.9754 3.20805ZM29.3089 3.05992C29.4467 3.05918 29.5696 3.01417 29.6776 2.9249C29.7856 2.83564 29.8613 2.7421 29.9048 2.64431C29.9512 2.5465 29.9741 2.45769 29.9737 2.37787C29.9733 2.29805 29.9421 2.22875 29.8802 2.16995C29.8183 2.1082 29.7463 2.07755 29.6642 2.07799C29.5176 2.07878 29.3819 2.1815 29.2569 2.38616C29.1348 2.5908 29.048 2.80264 28.9964 3.02169C29.1256 3.0476 29.2297 3.06034 29.3089 3.05992Z" fill="white"/>
<path d="M32.4692 0.53746C32.3633 1.55501 32.3115 2.28106 32.3138 2.71563C32.3161 3.14724 32.358 3.57864 32.4395 4.00983C32.3812 4.06927 32.33 4.09911 32.2861 4.09934C32.2421 4.09958 32.2054 4.09386 32.176 4.0822C32.1133 3.86376 32.0753 3.62598 32.0622 3.36885C31.9925 3.48157 31.9401 3.56167 31.9052 3.60916C31.8732 3.65663 31.8164 3.72641 31.7348 3.8185C31.5862 3.99667 31.4093 4.08631 31.2041 4.08741C31.0487 4.08825 30.9354 4.01643 30.8642 3.87195C30.796 3.7245 30.7613 3.53696 30.7601 3.30933C30.7588 3.07874 30.7826 2.85984 30.8313 2.65264C30.883 2.44246 30.9714 2.26165 31.0967 2.11021C31.2219 1.95581 31.3769 1.87811 31.5616 1.87712C31.673 1.87652 31.7758 1.89962 31.8699 1.94641C31.9639 1.99321 32.0288 2.05642 32.0644 2.13605C32.0698 2.0562 32.075 1.93349 32.08 1.7679C32.085 1.60232 32.0901 1.45596 32.0953 1.32881C32.1034 1.19869 32.1158 1.06706 32.1327 0.933937C32.1634 0.649964 32.2345 0.507679 32.3459 0.507081C32.384 0.506876 32.4251 0.517002 32.4692 0.53746ZM31.9641 2.29623C31.9286 2.23138 31.8799 2.18434 31.8182 2.15511C31.7565 2.12292 31.6743 2.10711 31.5717 2.10766C31.472 2.10819 31.3785 2.16634 31.2911 2.28211C31.1194 2.51067 31.0346 2.84075 31.037 3.27237C31.0377 3.41131 31.0604 3.55013 31.1052 3.68884C31.1499 3.82459 31.2147 3.89224 31.2998 3.89178C31.4229 3.89112 31.5427 3.80918 31.6591 3.64596C31.7755 3.48273 31.8654 3.296 31.9288 3.08576C31.9921 2.87257 32.0234 2.68172 32.0224 2.51321C32.022 2.43339 32.0026 2.36106 31.9641 2.29623Z" fill="white"/>
<path d="M34.0078 2.30743C33.981 2.23958 33.9309 2.18663 33.8574 2.1486C33.7839 2.11056 33.6929 2.09183 33.5844 2.09241C33.4759 2.093 33.3735 2.12607 33.2771 2.19162C33.1836 2.25716 33.1371 2.34463 33.1377 2.45401C33.1383 2.56339 33.1828 2.65036 33.2711 2.71493C33.3623 2.77652 33.471 2.82324 33.5973 2.85508C33.7265 2.8869 33.8557 2.92169 33.9849 2.95942C34.1141 2.99421 34.2229 3.05423 34.3113 3.13949C34.4026 3.22177 34.4487 3.33091 34.4494 3.4669C34.4505 3.66497 34.3692 3.81617 34.2055 3.92052C34.0448 4.02486 33.8501 4.07764 33.6215 4.07887C33.4866 4.07959 33.309 4.04359 33.0887 3.97087C32.8713 3.89813 32.7624 3.81002 32.7618 3.70655C32.7614 3.62969 32.8257 3.59091 32.9547 3.59022C32.9928 3.59001 33.0428 3.6134 33.1046 3.66037C33.293 3.7983 33.4854 3.86674 33.6819 3.86569C33.7874 3.86512 33.8782 3.8469 33.9543 3.81101C34.0946 3.74226 34.1644 3.6325 34.1636 3.48173C34.1631 3.39009 34.1173 3.31643 34.0261 3.26075C33.9378 3.20505 33.8291 3.16129 33.6999 3.12947C33.5737 3.09762 33.4459 3.06283 33.3167 3.0251C33.1875 2.98736 33.0772 2.92439 32.9859 2.83619C32.8974 2.74502 32.8528 2.62996 32.8521 2.49102C32.8511 2.31069 32.9309 2.16392 33.0916 2.05072C33.2522 1.93751 33.4513 1.88027 33.6888 1.879C33.8501 1.87813 33.9954 1.92022 34.1249 2.00526C34.2573 2.08732 34.3239 2.20817 34.3248 2.36781C34.3253 2.47424 34.2655 2.52777 34.1453 2.52842C34.0955 2.52868 34.0617 2.52 34.044 2.50235C34.0292 2.4847 34.0203 2.4537 34.0171 2.40937C34.0169 2.36207 34.0137 2.32809 34.0078 2.30743Z" fill="white"/>
<path d="M36.1511 4.10076C36.0983 4.10104 36.0695 3.65331 36.0647 2.75757C36.0627 2.37917 36.06 2.15007 36.0566 2.07027L35.9686 2.07074C35.9276 2.07096 35.8953 2.07114 35.8719 2.07126C35.8484 2.06843 35.8176 2.06712 35.7795 2.06732C35.7443 2.06456 35.715 2.06028 35.6915 2.05449C35.6709 2.04869 35.6489 2.04142 35.6254 2.03267C35.5813 2.01517 35.5591 1.98425 35.5589 1.93991C35.5586 1.88374 35.6494 1.85517 35.8311 1.85419C35.9103 1.85377 35.9821 1.85634 36.0467 1.8619C36.0493 1.80276 36.0504 1.72737 36.0499 1.63573C36.0523 1.54111 36.0548 1.46867 36.0575 1.41839C36.0601 1.36517 36.0627 1.30159 36.0653 1.22767C36.0707 1.15373 36.0778 1.09605 36.0863 1.05461C36.0978 1.01316 36.1122 0.96726 36.1296 0.91691C36.1469 0.863603 36.1701 0.823567 36.1993 0.796804C36.2285 0.77004 36.262 0.743253 36.3 0.716442C36.3672 0.665824 36.4785 0.640097 36.6339 0.639263C36.7922 0.638413 36.9082 0.6777 36.9819 0.757125C37.0586 0.833578 37.1267 0.964769 37.1864 1.1507C37.1427 1.20415 37.0915 1.23103 37.0329 1.23134C37.0123 1.23145 36.9918 1.22861 36.9712 1.2228C36.9177 1.08119 36.8688 0.98537 36.8246 0.93535C36.7832 0.885314 36.7259 0.860493 36.6526 0.860887C36.5793 0.86128 36.5237 0.874883 36.4857 0.901693C36.4507 0.928489 36.423 0.962635 36.4027 1.00413C36.3592 1.09306 36.3384 1.3075 36.3402 1.64747C36.3403 1.66225 36.3404 1.68886 36.3406 1.72729C36.3408 1.76572 36.341 1.80119 36.3412 1.83371L36.7148 1.79623C36.8614 1.79544 36.9349 1.82905 36.9353 1.89704C36.9355 1.94138 36.9005 1.97114 36.8302 1.9863C36.7599 2.00145 36.6705 2.0108 36.5621 2.01434C36.4565 2.01786 36.3833 2.02713 36.3423 2.04213C36.3369 2.12494 36.3346 2.23433 36.3353 2.37032C36.336 2.50335 36.3445 2.71616 36.3607 3.00875C36.3769 3.29838 36.3854 3.52006 36.3863 3.67379C36.3871 3.82751 36.3716 3.93698 36.3396 4.00219C36.3107 4.06738 36.2478 4.10024 36.1511 4.10076Z" fill="white"/>
<path d="M37.2749 2.22337C37.4232 1.99198 37.6381 1.87553 37.9196 1.87402C38.201 1.87251 38.426 1.98659 38.5943 2.21628C38.7656 2.44596 38.8521 2.70861 38.8536 3.00423C38.8552 3.2969 38.7642 3.54572 38.5806 3.75069C38.397 3.95567 38.1629 4.05892 37.8785 4.06044C37.5941 4.06197 37.387 3.98326 37.2571 3.82432C37.1273 3.66242 37.0615 3.43513 37.06 3.14246C37.0579 2.76111 37.1296 2.45474 37.2749 2.22337ZM37.4697 2.45735C37.4322 2.57285 37.4035 2.6883 37.3836 2.8037C37.3666 2.91909 37.3584 3.02704 37.359 3.12756C37.3595 3.22511 37.3673 3.31524 37.3824 3.39793C37.3975 3.47767 37.4228 3.55736 37.4584 3.63699C37.494 3.71366 37.5472 3.77546 37.6178 3.82238C37.6884 3.86635 37.7721 3.88807 37.8688 3.88755C38.0653 3.8865 38.229 3.80432 38.3601 3.64102C38.4941 3.4777 38.5605 3.28075 38.5592 3.05016C38.558 2.81957 38.4952 2.59671 38.3709 2.38156C38.2495 2.16344 38.1009 2.05486 37.9249 2.0558C37.8194 2.05637 37.7272 2.09382 37.6485 2.16815C37.5697 2.24248 37.5101 2.33888 37.4697 2.45735Z" fill="white"/>
<path d="M39.72 3.61598L39.7345 3.86866C39.7349 3.9337 39.7161 3.97962 39.6781 4.00644C39.643 4.03027 39.6065 4.0423 39.5683 4.0425C39.5332 4.04269 39.4965 4.03697 39.4583 4.02535C39.392 3.68278 39.3398 3.25587 39.3019 2.74462C39.2669 2.23337 39.2463 1.94376 39.24 1.8758C39.2838 1.83417 39.3291 1.81323 39.376 1.81298C39.4259 1.81272 39.4699 1.81839 39.5081 1.83001C39.5203 1.91568 39.5301 2.10483 39.5375 2.39747C39.545 2.69011 39.5533 2.87335 39.5625 2.94721C39.6022 2.69867 39.6742 2.46621 39.7786 2.24984C39.8366 2.12832 39.9123 2.03183 40.0058 1.96037C40.1021 1.88595 40.2045 1.84844 40.313 1.84786C40.4244 1.84726 40.5259 1.89698 40.6173 1.997C40.7116 2.09405 40.759 2.18249 40.7595 2.26231C40.7596 2.29187 40.7422 2.31561 40.7071 2.33354C40.672 2.34851 40.6324 2.35611 40.5884 2.35635C40.5474 2.35657 40.5151 2.34048 40.4914 2.30809C40.4678 2.2757 40.4515 2.24031 40.4425 2.20193C40.4335 2.16059 40.4142 2.12374 40.3847 2.09137C40.3552 2.05901 40.3155 2.04297 40.2657 2.04323C40.1338 2.04394 40.0215 2.16428 39.929 2.40424C39.7872 2.76271 39.7176 3.16663 39.72 3.61598Z" fill="white"/>
<path d="M42.3743 0.745908C42.3784 0.952829 42.3807 1.10802 42.3812 1.21149C42.3818 1.312 42.3808 1.41252 42.3784 1.51305C42.379 1.61357 42.3756 1.8087 42.3684 2.09846C42.3611 2.38526 42.3565 2.61293 42.3545 2.78145C42.4655 2.70399 42.5982 2.58502 42.7528 2.42455C42.9073 2.26112 43.0473 2.12142 43.1727 2.00545C43.3711 1.82405 43.5131 1.7686 43.5985 1.83909C43.6309 1.86552 43.6413 1.8906 43.6297 1.91431C43.6007 1.97655 43.5336 2.05229 43.4286 2.14155C43.3264 2.23079 43.2053 2.33195 43.0651 2.44504C42.925 2.55814 42.8142 2.6622 42.7326 2.75724C42.9468 2.78566 43.1189 2.90594 43.2491 3.1181C43.3053 3.21536 43.3601 3.31262 43.4134 3.40989C43.5496 3.66636 43.6972 3.83999 43.856 3.93079C43.7977 3.99023 43.7304 4.02015 43.6542 4.02056C43.5779 4.02097 43.5015 3.98443 43.4249 3.91093C43.3512 3.83742 43.2862 3.7476 43.2299 3.64147C43.1766 3.53533 43.1217 3.4292 43.0655 3.32307C42.938 3.06656 42.7907 2.93875 42.6236 2.93964C42.5444 2.94007 42.4771 2.96704 42.4217 3.02055C42.3663 3.0711 42.3387 3.12447 42.339 3.18063C42.3409 3.53538 42.3365 3.79852 42.3257 3.97005C42.2849 4.02644 42.2411 4.05476 42.1942 4.05501C42.1795 4.05509 42.1634 4.05222 42.1458 4.0464C42.0811 4.02014 42.0486 3.96562 42.0481 3.88285C42.0506 3.80006 42.058 3.54873 42.0705 3.12886C42.0969 2.05557 42.1094 1.36964 42.1078 1.07106C42.107 0.932113 42.1197 0.838921 42.1459 0.791479C42.1749 0.744022 42.2085 0.720191 42.2466 0.719986C42.2877 0.719766 42.3302 0.728406 42.3743 0.745908Z" fill="white"/>
<path d="M44.4049 0.761611C44.4023 0.82962 44.4013 0.905012 44.4017 0.987787C44.4022 1.07056 44.407 1.15627 44.4163 1.24491C44.3755 1.29243 44.3199 1.31638 44.2496 1.31676C44.1616 1.31723 44.1172 1.24652 44.1165 1.10462C44.1164 1.0987 44.1163 1.07653 44.1161 1.0381C44.1159 0.999669 44.1157 0.965672 44.1156 0.93611C44.1183 0.903575 44.124 0.866591 44.1326 0.825156C44.1527 0.754096 44.198 0.718377 44.2683 0.717999C44.3387 0.717621 44.3842 0.732159 44.4049 0.761611ZM44.1351 2.93596C44.132 2.35654 44.1595 2.02233 44.2177 1.93332C44.238 1.90069 44.2629 1.8843 44.2922 1.88414C44.3215 1.88399 44.37 1.89999 44.4376 1.93214C44.4243 2.1835 44.4184 2.45699 44.42 2.75262C44.42 2.75262 44.4247 3.07927 44.4341 3.73257C44.4345 3.82421 44.4144 3.88936 44.3735 3.92801C44.3356 3.96369 44.2991 3.98162 44.2639 3.98181C44.2316 3.98198 44.1979 3.9733 44.1626 3.95575C44.1459 3.57151 44.1367 3.23159 44.1351 2.93596Z" fill="white"/>
<path d="M46.6252 0.461446C46.5192 1.47899 46.4674 2.20505 46.4698 2.63962C46.4721 3.07123 46.514 3.50263 46.5955 3.93382C46.5371 3.99325 46.486 4.02309 46.442 4.02333C46.398 4.02357 46.3613 4.01785 46.332 4.00618C46.2692 3.78775 46.2313 3.54997 46.2182 3.29284C46.1484 3.40555 46.0961 3.48566 46.0611 3.53315C46.0291 3.58062 45.9723 3.6504 45.8907 3.74248C45.7422 3.92066 45.5652 4.0103 45.36 4.0114C45.2046 4.01224 45.0913 3.94041 45.0202 3.79594C44.952 3.64849 44.9172 3.46095 44.916 3.23331C44.9148 3.00273 44.9385 2.78383 44.9873 2.57663C45.0389 2.36645 45.1274 2.18564 45.2526 2.03419C45.3779 1.87979 45.5329 1.80209 45.7176 1.8011C45.829 1.8005 45.9317 1.8236 46.0258 1.8704C46.1199 1.9172 46.1847 1.98041 46.2204 2.06004C46.2258 1.98019 46.231 1.85747 46.236 1.69189C46.2409 1.52631 46.246 1.37994 46.2512 1.25279C46.2593 1.12267 46.2718 0.991049 46.2887 0.857924C46.3194 0.573951 46.3905 0.431665 46.5019 0.431067C46.54 0.430862 46.5811 0.440989 46.6252 0.461446ZM46.1201 2.22022C46.0845 2.15537 46.0359 2.10833 45.9742 2.0791C45.9124 2.04691 45.8302 2.03109 45.7276 2.03164C45.6279 2.03218 45.5344 2.09033 45.4471 2.20609C45.2753 2.43465 45.1906 2.76474 45.1929 3.19635C45.1937 3.33529 45.2164 3.47412 45.2611 3.61283C45.3058 3.74858 45.3707 3.81623 45.4557 3.81577C45.5789 3.81511 45.6986 3.73317 45.815 3.56994C45.9315 3.40672 46.0213 3.21999 46.0847 3.00975C46.1481 2.79655 46.1793 2.6057 46.1784 2.4372C46.178 2.35738 46.1585 2.28505 46.1201 2.22022Z" fill="white"/>
<path d="M48.1637 2.23142C48.137 2.16357 48.0868 2.11062 48.0133 2.07258C47.9398 2.03455 47.8488 2.01582 47.7404 2.0164C47.6319 2.01698 47.5294 2.05005 47.433 2.11561C47.3395 2.18115 47.2931 2.26861 47.2937 2.37799C47.2943 2.48737 47.3387 2.57435 47.427 2.63891C47.5183 2.70051 47.627 2.74722 47.7532 2.77906C47.8824 2.81089 48.0116 2.84567 48.1408 2.88341C48.27 2.91819 48.3788 2.97821 48.4673 3.06347C48.5586 3.14576 48.6046 3.2549 48.6054 3.39088C48.6064 3.58895 48.5251 3.74016 48.3615 3.84451C48.2008 3.94885 48.0061 4.00163 47.7774 4.00285C47.6425 4.00358 47.465 3.96758 47.2447 3.89485C47.0273 3.82211 46.9183 3.73401 46.9178 3.63054C46.9174 3.55368 46.9817 3.5149 47.1107 3.51421C47.1488 3.514 47.1988 3.53738 47.2606 3.58435C47.449 3.72229 47.6414 3.79073 47.8378 3.78967C47.9434 3.78911 48.0342 3.77088 48.1102 3.735C48.2506 3.66625 48.3204 3.55649 48.3196 3.40572C48.3191 3.31408 48.2732 3.24042 48.182 3.18474C48.0938 3.12904 47.9851 3.08528 47.8559 3.05345C47.7296 3.02161 47.6019 2.98682 47.4727 2.94908C47.3435 2.91134 47.2332 2.84837 47.1418 2.76017C47.0534 2.669 47.0088 2.55395 47.008 2.415C47.007 2.23467 47.0869 2.0879 47.2475 1.9747C47.4082 1.8615 47.6073 1.80426 47.8448 1.80298C48.006 1.80212 48.1514 1.8442 48.2809 1.92924C48.4132 2.01131 48.4799 2.13216 48.4807 2.2918C48.4813 2.39822 48.4215 2.45176 48.3013 2.4524C48.2514 2.45267 48.2176 2.44398 48.2 2.42634C48.1852 2.40868 48.1762 2.37769 48.1731 2.33336C48.1728 2.28606 48.1697 2.25208 48.1637 2.23142Z" fill="white"/>
</svg>
