<svg width="52" height="6" viewBox="0 0 52 6" fill="none" xmlns="http://www.w3.org/2000/svg">
<path d="M0.423987 3.45806C0.42135 2.96689 0.398727 2.53407 0.35612 2.15961C0.355596 2.062 0.395735 1.97677 0.476537 1.90392C0.557339 1.83107 0.664777 1.77539 0.798851 1.73688C1.06703 1.66617 1.36194 1.62996 1.68359 1.62823C2.09891 1.626 2.42573 1.71713 2.66405 1.90162C2.90549 2.08295 3.02722 2.3641 3.02927 2.74507C3.03131 3.12605 2.87994 3.43228 2.57515 3.66377C2.27036 3.89526 1.89781 4.01219 1.4575 4.01455C1.23267 4.01576 0.996649 3.9698 0.749446 3.87666C0.734644 4.02788 0.727936 4.23258 0.729323 4.49076L0.735249 4.72215C0.735655 4.79772 0.734516 4.87644 0.731833 4.95832C0.716338 4.98045 0.699248 4.99628 0.680562 5.00583C0.661876 5.01537 0.647858 5.02175 0.638507 5.02495C0.632295 5.03128 0.621391 5.03606 0.605794 5.03929C0.590197 5.04252 0.579276 5.04416 0.573031 5.04419C0.554328 5.05059 0.532486 5.05385 0.507504 5.05399L0.427875 5.05441C0.420362 4.81831 0.416098 4.60579 0.415083 4.41688L0.423987 3.45806ZM0.738252 3.53667C0.967039 3.68972 1.24069 3.7654 1.55921 3.76369C1.87771 3.75883 2.14573 3.65821 2.36327 3.46182C2.5808 3.26229 2.68879 3.01926 2.68726 2.73274C2.68572 2.44622 2.57215 2.23272 2.34655 2.09224C2.12096 1.95177 1.85046 1.88237 1.53506 1.88407C1.22279 1.88574 0.946819 1.95964 0.707148 2.10577C0.72386 2.31034 0.734228 2.78731 0.738252 3.53667Z" fill="white"/>
<path d="M3.89541 4.49737L3.91091 4.7665C3.91128 4.83577 3.89125 4.88468 3.85081 4.91324C3.81347 4.93863 3.7745 4.95143 3.73391 4.95165C3.69643 4.95185 3.65737 4.94576 3.6167 4.93339C3.54604 4.56852 3.49051 4.11384 3.45012 3.56934C3.41284 3.02482 3.39089 2.71637 3.38425 2.64398C3.43086 2.59965 3.47914 2.57735 3.5291 2.57708C3.58219 2.5768 3.62906 2.58285 3.66973 2.59522C3.68271 2.68646 3.69316 2.88792 3.70108 3.1996C3.709 3.51127 3.71785 3.70644 3.72764 3.7851C3.76994 3.52039 3.84668 3.27281 3.95787 3.04236C4.01963 2.91293 4.10027 2.81017 4.19979 2.73406C4.30242 2.6548 4.4115 2.61485 4.52704 2.61423C4.6457 2.6136 4.75373 2.66654 4.85111 2.77307C4.95159 2.87644 5.00206 2.97063 5.00252 3.05564C5.00269 3.08713 4.98409 3.11242 4.94671 3.13151C4.90933 3.14745 4.86721 3.15555 4.82037 3.1558C4.77665 3.15604 4.74221 3.1389 4.71704 3.1044C4.69187 3.0699 4.6745 3.03221 4.66491 2.99133C4.6553 2.9473 4.63479 2.90805 4.60338 2.87359C4.57197 2.83912 4.52972 2.82203 4.47663 2.82232C4.33611 2.82307 4.21657 2.95123 4.11801 3.2068C3.96704 3.5886 3.89284 4.01879 3.89541 4.49737Z" fill="white"/>
<path d="M5.43561 2.99192C5.59355 2.74547 5.82241 2.62145 6.12219 2.61984C6.42198 2.61823 6.66152 2.73974 6.84084 2.98437C7.02327 3.22899 7.11534 3.50872 7.11703 3.82358C7.1187 4.13529 7.02176 4.4003 6.82619 4.6186C6.63063 4.83691 6.38139 4.94688 6.07849 4.9485C5.77558 4.95013 5.55498 4.8663 5.41666 4.69702C5.27833 4.52458 5.20833 4.28251 5.20666 3.9708C5.20448 3.56464 5.28079 3.23834 5.43561 2.99192ZM5.64306 3.24112C5.60312 3.36413 5.57255 3.48709 5.55135 3.61001C5.53328 3.7329 5.52452 3.84787 5.5251 3.95493C5.52566 4.05883 5.53398 4.15482 5.55007 4.24289C5.56614 4.32782 5.59314 4.41269 5.63107 4.4975C5.66898 4.57916 5.72554 4.64498 5.80076 4.69495C5.87596 4.74178 5.96508 4.76492 6.06813 4.76436C6.27735 4.76324 6.45176 4.67572 6.59135 4.50179C6.73407 4.32785 6.80477 4.11808 6.80345 3.87249C6.80213 3.62691 6.73528 3.38954 6.60289 3.1604C6.47361 2.92809 6.31528 2.81244 6.12792 2.81345C6.0155 2.81405 5.91735 2.85394 5.83345 2.9331C5.74956 3.01227 5.6861 3.11494 5.64306 3.24112Z" fill="white"/>
<path d="M7.33253 2.67001C7.36031 2.61004 7.42104 2.5798 7.51473 2.5793C7.55532 2.57908 7.58972 2.58834 7.61793 2.60708C7.70667 2.84905 7.79385 3.0926 7.87948 3.33774C8.04116 3.78713 8.1914 4.14212 8.3302 4.40272C8.39372 4.01824 8.51811 3.63029 8.70338 3.23886C8.89177 2.84741 9.06403 2.65127 9.22016 2.65043C9.26701 2.65018 9.3139 2.66095 9.36086 2.68274C9.0043 3.1601 8.75006 3.7912 8.59813 4.57603C8.56789 4.75881 8.5341 4.8629 8.49676 4.88829C8.45632 4.91684 8.41423 4.93124 8.37052 4.93147C8.3268 4.93171 8.2924 4.92245 8.26731 4.90369C8.24535 4.88492 8.22808 4.86612 8.21549 4.84729C8.20602 4.82845 8.19179 4.79704 8.17282 4.75306C8.15697 4.70907 8.14432 4.67922 8.13487 4.66353C7.81312 4.06386 7.54567 3.39936 7.33253 2.67001Z" fill="white"/>
<path d="M9.98296 1.45142C9.98023 1.52385 9.9791 1.60415 9.97957 1.69231C9.98005 1.78047 9.98522 1.87175 9.9951 1.96616C9.95165 2.01677 9.89245 2.04228 9.81751 2.04268C9.72382 2.04318 9.67658 1.96787 9.67577 1.81674C9.67573 1.81044 9.67561 1.78683 9.67539 1.7459C9.67517 1.70496 9.67497 1.66876 9.6748 1.63727C9.67774 1.60262 9.68377 1.56323 9.69291 1.5191C9.71436 1.44342 9.76256 1.40537 9.8375 1.40497C9.91245 1.40457 9.96094 1.42005 9.98296 1.45142ZM9.69561 3.76723C9.6923 3.15011 9.72161 2.79415 9.78356 2.69936C9.80523 2.66461 9.83168 2.64715 9.86291 2.64698C9.89414 2.64681 9.94576 2.66385 10.0178 2.6981C10.0036 2.96581 9.99734 3.2571 9.99903 3.57195C9.99903 3.57195 10.004 3.91985 10.014 4.61565C10.0145 4.71326 9.99304 4.78265 9.94955 4.82381C9.90915 4.86181 9.87022 4.88091 9.83275 4.88112C9.7984 4.8813 9.76244 4.87205 9.72486 4.85336C9.70705 4.44413 9.6973 4.08208 9.69561 3.76723Z" fill="white"/>
<path d="M12.3477 1.13173C12.2348 2.21547 12.1797 2.98876 12.1821 3.4516C12.1846 3.91129 12.2292 4.37076 12.316 4.83C12.2539 4.8933 12.1994 4.92508 12.1526 4.92533C12.1057 4.92559 12.0667 4.9195 12.0354 4.90707C11.9686 4.67443 11.9282 4.42118 11.9142 4.14732C11.8399 4.26737 11.7841 4.35268 11.7469 4.40326C11.7129 4.45382 11.6524 4.52814 11.5655 4.62622C11.4072 4.81599 11.2188 4.91146 11.0002 4.91263C10.8347 4.91352 10.7141 4.83702 10.6383 4.68315C10.5656 4.5261 10.5286 4.32636 10.5273 4.08392C10.526 3.83834 10.5513 3.6052 10.6032 3.38451C10.6582 3.16066 10.7524 2.96809 10.8858 2.80679C11.0192 2.64234 11.1843 2.55959 11.381 2.55854C11.4997 2.5579 11.6091 2.5825 11.7093 2.63234C11.8095 2.68218 11.8786 2.74951 11.9165 2.83432C11.9223 2.74927 11.9279 2.61857 11.9332 2.44222C11.9384 2.26587 11.9439 2.10998 11.9494 1.97456C11.958 1.83597 11.9713 1.69578 11.9893 1.554C12.022 1.25155 12.0977 1.10001 12.2164 1.09937C12.257 1.09915 12.3007 1.10994 12.3477 1.13173ZM11.8097 3.00492C11.7719 2.93585 11.7201 2.88575 11.6543 2.85462C11.5885 2.82034 11.501 2.80349 11.3917 2.80407C11.2856 2.80465 11.186 2.86658 11.0929 2.98988C10.91 3.23331 10.8198 3.58487 10.8222 4.04456C10.823 4.19254 10.8472 4.3404 10.8949 4.48813C10.9425 4.63271 11.0116 4.70476 11.1021 4.70427C11.2333 4.70357 11.3609 4.61629 11.4848 4.44245C11.6088 4.26861 11.7046 4.06973 11.7721 3.84581C11.8395 3.61875 11.8728 3.41548 11.8718 3.23601C11.8714 3.151 11.8507 3.07397 11.8097 3.00492Z" fill="white"/>
<path d="M13.1347 1.4345C13.1319 1.50693 13.1308 1.58723 13.1313 1.67539C13.1317 1.76355 13.1369 1.85483 13.1468 1.94924C13.1033 1.99985 13.0441 2.02535 12.9692 2.02576C12.8755 2.02626 12.8283 1.95095 12.8275 1.79981C12.8274 1.79352 12.8273 1.7699 12.8271 1.72897C12.8269 1.68804 12.8267 1.65183 12.8265 1.62035C12.8294 1.5857 12.8355 1.5463 12.8446 1.50217C12.8661 1.42649 12.9143 1.38845 12.9892 1.38805C13.0641 1.38764 13.1126 1.40313 13.1347 1.4345ZM12.8473 3.7503C12.844 3.13318 12.8733 2.77723 12.9353 2.68244C12.9569 2.64768 12.9834 2.63022 13.0146 2.63006C13.0458 2.62989 13.0974 2.64693 13.1695 2.68118C13.1553 2.94889 13.149 3.24017 13.1507 3.55503C13.1507 3.55503 13.1557 3.90293 13.1657 4.59873C13.1662 4.69634 13.1447 4.76572 13.1012 4.80689C13.0608 4.84489 13.0219 4.86399 12.9844 4.86419C12.9501 4.86438 12.9141 4.85512 12.8766 4.83643C12.8587 4.4272 12.849 4.06516 12.8473 3.7503Z" fill="white"/>
<path d="M15.6829 4.76469C15.627 4.82481 15.5632 4.85507 15.4914 4.85545C15.3571 4.85617 15.2568 4.78429 15.1904 4.63981C15.1241 4.49533 15.0841 4.31922 15.0705 4.11148C15.06 3.90373 15.0526 3.69595 15.0484 3.48816C15.0442 3.28038 15.026 3.10415 14.994 2.95948C14.9651 2.8148 14.9101 2.74268 14.8289 2.74311C14.7196 2.7437 14.6265 2.84338 14.5495 3.04216C14.4756 3.24092 14.4237 3.46161 14.3938 3.70421C14.31 4.38163 14.2277 4.76148 14.1469 4.84378C14.0909 4.87242 14.0425 4.88685 14.002 4.88707C13.9614 4.88728 13.927 4.88275 13.8988 4.87345C13.8317 4.58413 13.7869 4.08531 13.7643 3.37699C13.7562 3.02438 13.7487 2.79614 13.7419 2.69227C13.8072 2.64784 13.8633 2.6255 13.9102 2.62525C13.957 2.625 13.9945 2.62952 14.0227 2.63881C14.039 2.77412 14.0483 3.05115 14.0506 3.46991C14.0559 3.88865 14.0603 4.1295 14.0638 4.19245C14.0791 4.12625 14.0972 4.0191 14.1183 3.871C14.1425 3.72288 14.1637 3.60154 14.1819 3.50699C14.2001 3.40928 14.2292 3.29577 14.2691 3.16646C14.309 3.03715 14.3537 2.93458 14.4033 2.85875C14.4528 2.77977 14.5212 2.71328 14.6083 2.65928C14.6954 2.60214 14.7937 2.57327 14.9029 2.57269C15.0497 2.5719 15.1563 2.63902 15.2226 2.77406C15.292 2.90593 15.3303 3.07103 15.3376 3.26935C15.3449 3.46768 15.3492 3.66917 15.3503 3.87383C15.3545 4.07847 15.3805 4.26568 15.4282 4.43545C15.4791 4.6052 15.564 4.71495 15.6829 4.76469Z" fill="white"/>
<path d="M16.7932 2.52948C17.0774 2.52795 17.2747 2.64339 17.3853 2.8758C17.4453 2.99827 17.4943 3.11451 17.5324 3.22451C17.5704 3.33451 17.5962 3.4855 17.6097 3.6775C17.63 3.97022 17.6412 4.30391 17.6432 4.67859C17.6452 5.05012 17.5578 5.34657 17.381 5.56792C17.2073 5.79241 16.9503 5.90557 16.6099 5.9074C16.2727 5.90921 15.991 5.80052 15.765 5.58132C15.8271 5.51802 15.8941 5.48617 15.9659 5.48579C16.0409 5.48538 16.1425 5.51632 16.2709 5.57861C16.4024 5.64402 16.5415 5.67634 16.6883 5.67555C16.8351 5.67476 16.9567 5.63947 17.0531 5.56968C17.1496 5.50304 17.2209 5.4082 17.2671 5.28516C17.344 5.06749 17.3816 4.79965 17.3798 4.48164C17.3796 4.43441 17.374 4.25969 17.363 3.95748C17.2801 4.21612 17.161 4.43086 17.0058 4.60173C16.8505 4.76944 16.6745 4.85382 16.4778 4.85488C16.2811 4.85594 16.1354 4.76856 16.0408 4.59274C15.9492 4.41376 15.9029 4.21092 15.9016 3.98422C15.9004 3.75752 15.9305 3.53696 15.9918 3.32252C16.0531 3.10493 16.1536 2.91862 16.2932 2.76359C16.4329 2.60855 16.5996 2.53051 16.7932 2.52948ZM16.3005 3.25001C16.2607 3.38877 16.2317 3.51959 16.2137 3.64249C16.1956 3.76538 16.1869 3.8898 16.1876 4.01575C16.1882 4.13854 16.2139 4.27537 16.2647 4.42623C16.3186 4.57708 16.3955 4.65223 16.4954 4.6517C16.6922 4.65064 16.8663 4.50172 17.0177 4.20493C17.1691 3.905 17.244 3.6039 17.2423 3.30163C17.2418 3.19773 17.1928 3.08149 17.0953 2.95292C17.0009 2.82119 16.8819 2.7557 16.7382 2.75647C16.6383 2.75701 16.5495 2.80472 16.472 2.89959C16.3975 2.99445 16.3404 3.11126 16.3005 3.25001Z" fill="white"/>
<path d="M21.1492 4.73533C21.0933 4.79546 21.0295 4.82572 20.9577 4.8261C20.8234 4.82682 20.7231 4.75494 20.6567 4.61046C20.5904 4.46598 20.5504 4.28987 20.5368 4.08213C20.5263 3.87437 20.5189 3.6666 20.5147 3.45881C20.5104 3.25102 20.4923 3.0748 20.4603 2.93013C20.4314 2.78545 20.3764 2.71332 20.2952 2.71376C20.1859 2.71435 20.0928 2.81403 20.0158 3.01281C19.9419 3.21157 19.89 3.43225 19.8601 3.67486C19.7763 4.35227 19.694 4.73213 19.6132 4.81443C19.5572 4.84307 19.5088 4.8575 19.4682 4.85771C19.4277 4.85793 19.3933 4.85339 19.3651 4.8441C19.298 4.55478 19.2532 4.05596 19.2306 3.34763C19.2225 2.99503 19.215 2.76679 19.2082 2.66292C19.2735 2.61849 19.3296 2.59615 19.3765 2.59589C19.4233 2.59564 19.4608 2.60016 19.489 2.60946C19.5053 2.74476 19.5146 3.0218 19.5168 3.44056C19.5222 3.8593 19.5266 4.10015 19.5301 4.1631C19.5454 4.0969 19.5635 3.98975 19.5846 3.84165C19.6088 3.69353 19.63 3.57219 19.6482 3.47763C19.6664 3.37993 19.6955 3.26642 19.7354 3.13711C19.7753 3.0078 19.82 2.90523 19.8696 2.8294C19.9191 2.75041 19.9875 2.68392 20.0746 2.62993C20.1617 2.57279 20.2599 2.54392 20.3692 2.54333C20.516 2.54255 20.6225 2.60967 20.6888 2.74471C20.7583 2.87658 20.7966 3.04168 20.8039 3.24C20.8112 3.43833 20.8154 3.63982 20.8165 3.84448C20.8208 4.04912 20.8468 4.23632 20.8945 4.40609C20.9454 4.57585 21.0303 4.6856 21.1492 4.73533Z" fill="white"/>
<path d="M21.6862 3.90593C21.6803 3.96893 21.6774 4.01146 21.6775 4.0335C21.6785 4.22241 21.7355 4.36852 21.8485 4.47182C21.9646 4.5751 22.1007 4.62632 22.2569 4.62548C22.413 4.62464 22.5393 4.60192 22.6359 4.55732C22.7356 4.51271 22.8072 4.46509 22.8506 4.41448C22.9623 4.27219 23.0649 4.2008 23.1586 4.20029C23.193 4.20011 23.2336 4.20934 23.2806 4.22798C23.2502 4.38242 23.1323 4.52475 22.9269 4.65494C22.7246 4.78198 22.4688 4.84632 22.1597 4.84798C21.9411 4.84916 21.7518 4.7809 21.5918 4.64322C21.4349 4.50237 21.3558 4.31073 21.3545 4.06829C21.3532 3.82585 21.3988 3.59103 21.4912 3.36383C21.5868 3.13347 21.7232 2.93752 21.9003 2.77598C22.0805 2.61129 22.2628 2.52844 22.447 2.52745C22.6344 2.52645 22.7845 2.565 22.8973 2.64311C23.0133 2.71806 23.0716 2.82952 23.0724 2.9775C23.0739 3.25143 22.9533 3.47878 22.7107 3.65956C22.4712 3.83717 22.2156 3.9267 21.9439 3.92816C21.8721 3.92855 21.7862 3.92113 21.6862 3.90593ZM22.0414 3.74816C22.1881 3.74737 22.319 3.69944 22.4341 3.60436C22.5491 3.50929 22.6297 3.40967 22.676 3.30552C22.7254 3.20135 22.7499 3.10675 22.7495 3.02174C22.749 2.93673 22.7158 2.86292 22.6499 2.8003C22.584 2.73453 22.5073 2.70188 22.4198 2.70235C22.2637 2.70319 22.1191 2.81259 21.986 3.03057C21.856 3.24852 21.7635 3.47415 21.7086 3.70744C21.8461 3.73504 21.957 3.74862 22.0414 3.74816Z" fill="white"/>
<path d="M24.9235 4.29945C24.8743 4.44455 24.7782 4.56786 24.6351 4.66939C24.4951 4.7709 24.3408 4.8221 24.1722 4.82301C24.0066 4.8239 23.8766 4.74116 23.782 4.57478C23.6906 4.40525 23.644 4.17092 23.6424 3.87181C23.6379 3.02799 23.759 2.60542 24.0057 2.6041C24.0369 2.60393 24.0759 2.60844 24.1228 2.61764C24.1137 2.66807 24.0924 2.76421 24.0588 2.90608C23.9916 3.18353 23.9586 3.42773 23.9597 3.63868C23.9608 3.84963 23.9917 4.07302 24.0523 4.30885C24.1129 4.54152 24.1978 4.65757 24.3071 4.65698C24.3633 4.65668 24.4178 4.62018 24.4705 4.54747C24.5232 4.47477 24.5649 4.39898 24.5957 4.3201C24.6265 4.23807 24.6588 4.14501 24.6926 4.04092C24.7264 3.93683 24.7479 3.87374 24.7571 3.85165C24.7093 3.66929 24.6849 3.48365 24.6839 3.29474C24.6838 3.28529 24.6837 3.25695 24.6834 3.20972C24.6832 3.15935 24.6845 3.11054 24.6873 3.06329C24.6902 3.01605 24.6993 2.95932 24.7145 2.89312C24.745 2.76071 24.829 2.69414 24.9664 2.6934C25.0819 2.69278 25.1407 2.86879 25.1426 3.22143C25.1429 3.2844 25.134 3.37576 25.1159 3.4955C25.1009 3.61523 25.0936 3.69871 25.0938 3.74594C25.0946 3.89078 25.1643 4.07775 25.303 4.30685C25.4416 4.53596 25.5702 4.6502 25.6889 4.64956C25.8107 4.64891 25.8993 4.57916 25.9548 4.44032C26.0102 4.30148 26.0375 4.14705 26.0366 3.97703C26.0356 3.78182 26.0176 3.63393 25.9827 3.53336C25.9509 3.42962 25.9303 3.36204 25.9207 3.3306C25.9143 3.29915 25.8937 3.25045 25.859 3.18452C25.8274 3.11542 25.8069 3.07145 25.7974 3.05261C25.7911 3.03375 25.7674 2.98822 25.7264 2.91602C25.6855 2.84382 25.6618 2.80302 25.6555 2.7936C25.5641 2.63351 25.5105 2.54564 25.4948 2.52998C25.5726 2.46344 25.6442 2.42999 25.7098 2.42964C25.901 2.56716 26.0537 2.79304 26.1678 3.10729C26.2819 3.4184 26.3396 3.70304 26.341 3.96122C26.3424 4.21626 26.2888 4.41806 26.1803 4.56663C26.0749 4.71203 25.9082 4.78535 25.6803 4.78657C25.521 4.78743 25.3693 4.74416 25.2252 4.65677C25.0842 4.56622 24.9836 4.44711 24.9235 4.29945Z" fill="white"/>
<path d="M27.9082 1.43546C27.9453 1.36599 28.0138 1.33098 28.1137 1.33045C28.1356 1.33033 28.1575 1.33336 28.1793 1.33954C28.1865 1.50638 28.1921 1.97235 28.1962 2.73745C28.1993 2.73429 28.2133 2.72004 28.2382 2.69472C28.2661 2.66938 28.2832 2.65355 28.2894 2.64722C28.2956 2.64089 28.3112 2.62663 28.336 2.60446C28.3609 2.57914 28.3795 2.56329 28.392 2.55693C28.4076 2.5474 28.4278 2.5347 28.4527 2.51882C28.4776 2.49979 28.4994 2.48708 28.5181 2.48068C28.5367 2.47114 28.5585 2.46158 28.5835 2.452C28.6302 2.436 28.6848 2.42784 28.7473 2.4275C28.9784 2.42626 29.1647 2.52287 29.3063 2.71732C29.4478 2.90863 29.5192 3.12393 29.5205 3.36322C29.5218 3.60251 29.4871 3.83098 29.4165 4.04862C29.3458 4.2631 29.236 4.45104 29.0869 4.61242C28.9379 4.7738 28.7635 4.85503 28.5636 4.8561C28.3669 4.85716 28.201 4.78406 28.0659 4.6368C27.9339 4.48952 27.8675 4.32142 27.8664 4.13251C27.8654 3.94044 27.8745 3.58775 27.8936 3.07441C27.9126 2.55793 27.9216 2.18791 27.9204 1.96437C27.9192 1.73767 27.9151 1.56137 27.9082 1.43546ZM28.5951 4.62451C28.7169 4.62385 28.8259 4.56502 28.9221 4.448C29.1176 4.2171 29.2142 3.89069 29.2119 3.46879C29.2107 3.24209 29.1659 3.04239 29.0776 2.86969C28.9892 2.69384 28.8654 2.60634 28.7061 2.6072C28.6155 2.60768 28.5362 2.65376 28.4679 2.74544C28.3997 2.83397 28.3473 2.95233 28.3106 3.10051C28.2403 3.38112 28.206 3.69302 28.2079 4.03621C28.2094 4.32588 28.2697 4.50346 28.3887 4.56894C28.442 4.60014 28.5108 4.61866 28.5951 4.62451Z" fill="white"/>
<path d="M30.2218 3.86009C30.2159 3.9231 30.213 3.96562 30.2132 3.98766C30.2142 4.17658 30.2712 4.32268 30.3841 4.42598C30.5002 4.52926 30.6364 4.58049 30.7925 4.57965C30.9486 4.57881 31.075 4.55609 31.1716 4.51149C31.2712 4.46687 31.3428 4.41926 31.3863 4.36865C31.4979 4.22636 31.6006 4.15496 31.6943 4.15446C31.7286 4.15427 31.7693 4.1635 31.8162 4.18214C31.7858 4.33659 31.6679 4.47891 31.4625 4.60911C31.2602 4.73614 31.0045 4.80049 30.6953 4.80215C30.4767 4.80332 30.2874 4.73507 30.1274 4.59739C29.9705 4.45654 29.8914 4.2649 29.8901 4.02246C29.8888 3.78002 29.9344 3.5452 30.0269 3.318C30.1225 3.08763 30.2588 2.89168 30.4359 2.73015C30.6162 2.56545 30.7984 2.48261 30.9827 2.48162C31.17 2.48061 31.3201 2.51917 31.433 2.59728C31.5489 2.67222 31.6073 2.78369 31.6081 2.93167C31.6095 3.20559 31.489 3.43294 31.2464 3.61372C31.0069 3.79133 30.7513 3.88087 30.4796 3.88233C30.4078 3.88271 30.3219 3.8753 30.2218 3.86009ZM30.577 3.70233C30.7238 3.70154 30.8547 3.65361 30.9697 3.55853C31.0847 3.46345 31.1654 3.36384 31.2117 3.25968C31.2611 3.15551 31.2856 3.06092 31.2851 2.97591C31.2846 2.8909 31.2515 2.81708 31.1855 2.75446C31.1196 2.6887 31.0429 2.65605 30.9555 2.65652C30.7994 2.65735 30.6547 2.76676 30.5216 2.98473C30.3916 3.20269 30.2992 3.42831 30.2442 3.66161C30.3818 3.68921 30.4927 3.70278 30.577 3.70233Z" fill="white"/>
<path d="M33.943 1.01577C33.8301 2.09951 33.7749 2.8728 33.7774 3.33564C33.7799 3.79533 33.8245 4.2548 33.9113 4.71404C33.8492 4.77734 33.7947 4.80912 33.7479 4.80937C33.701 4.80962 33.662 4.80354 33.6307 4.79111C33.5638 4.55847 33.5234 4.30522 33.5095 4.03136C33.4352 4.15141 33.3794 4.23672 33.3422 4.2873C33.3081 4.33786 33.2476 4.41218 33.1607 4.51025C33.0025 4.70002 32.8141 4.7955 32.5955 4.79667C32.43 4.79756 32.3093 4.72106 32.2336 4.56719C32.1609 4.41014 32.1239 4.2104 32.1226 3.96796C32.1213 3.72237 32.1466 3.48924 32.1985 3.26855C32.2535 3.0447 32.3477 2.85213 32.4811 2.69083C32.6145 2.52638 32.7796 2.44363 32.9763 2.44258C33.095 2.44194 33.2044 2.46654 33.3046 2.51638C33.4048 2.56622 33.4739 2.63355 33.5118 2.71836C33.5176 2.63331 33.5231 2.50261 33.5284 2.32626C33.5337 2.14991 33.5391 1.99402 33.5447 1.8586C33.5533 1.72001 33.5666 1.57982 33.5846 1.43804C33.6173 1.13559 33.693 0.984047 33.8116 0.98341C33.8522 0.983192 33.896 0.993977 33.943 1.01577ZM33.405 2.88896C33.3671 2.81989 33.3153 2.76979 33.2496 2.73866C33.1838 2.70437 33.0963 2.68753 32.987 2.68811C32.8808 2.68868 32.7812 2.75062 32.6882 2.87392C32.5053 3.11734 32.415 3.4689 32.4175 3.9286C32.4183 4.07658 32.4425 4.22444 32.4901 4.37217C32.5378 4.51675 32.6069 4.5888 32.6974 4.58831C32.8286 4.58761 32.9561 4.50033 33.0801 4.32649C33.2041 4.15265 33.2998 3.95377 33.3673 3.72985C33.4348 3.50279 33.4681 3.29952 33.4671 3.12005C33.4667 3.03504 33.4459 2.95801 33.405 2.88896Z" fill="white"/>
<path d="M35.5816 2.90089C35.5531 2.82862 35.4997 2.77223 35.4214 2.73172C35.3431 2.69121 35.2462 2.67126 35.1307 2.67188C35.0151 2.6725 34.906 2.70772 34.8033 2.77754C34.7038 2.84735 34.6543 2.9405 34.655 3.057C34.6556 3.17349 34.7029 3.26613 34.797 3.33489C34.8941 3.40049 35.0099 3.45025 35.1444 3.48416C35.282 3.51806 35.4196 3.5551 35.5572 3.5953C35.6948 3.63234 35.8107 3.69627 35.9049 3.78707C36.0022 3.87471 36.0512 3.99095 36.052 4.13578C36.0531 4.34674 35.9665 4.50778 35.7922 4.61892C35.6211 4.73004 35.4137 4.78626 35.1701 4.78757C35.0265 4.78834 34.8374 4.75 34.6027 4.67254C34.3712 4.59507 34.2552 4.50123 34.2546 4.39103C34.2541 4.30917 34.3226 4.26787 34.46 4.26713C34.5006 4.26691 34.5538 4.29181 34.6197 4.34184C34.8203 4.48875 35.0253 4.56164 35.2345 4.56052C35.3469 4.55991 35.4436 4.5405 35.5246 4.50228C35.6741 4.42906 35.7484 4.31216 35.7476 4.15159C35.747 4.05398 35.6982 3.97553 35.6011 3.91622C35.5071 3.8569 35.3913 3.8103 35.2537 3.7764C35.1192 3.74249 34.9832 3.70543 34.8456 3.66524C34.708 3.62505 34.5905 3.55798 34.4932 3.46404C34.399 3.36694 34.3515 3.2444 34.3507 3.09641C34.3497 2.90435 34.4347 2.74804 34.6058 2.62747C34.7769 2.5069 34.9889 2.44594 35.2419 2.44458C35.4136 2.44366 35.5684 2.48848 35.7063 2.57905C35.8473 2.66646 35.9183 2.79517 35.9192 2.96519C35.9198 3.07854 35.8561 3.13556 35.7281 3.13625C35.675 3.13653 35.639 3.12728 35.6202 3.10849C35.6045 3.08968 35.5949 3.05667 35.5915 3.00946C35.5913 2.95908 35.588 2.92289 35.5816 2.90089Z" fill="white"/>
<path d="M37.8643 4.81088C37.8081 4.81119 37.7774 4.33433 37.7723 3.38031C37.7702 2.9773 37.7673 2.73329 37.7637 2.6483L37.67 2.6488C37.6263 2.64903 37.592 2.64922 37.567 2.64935C37.542 2.64634 37.5092 2.64494 37.4686 2.64516C37.4311 2.64221 37.3998 2.63765 37.3748 2.63149C37.3529 2.62531 37.3295 2.61757 37.3044 2.60825C37.2575 2.58961 37.2339 2.55668 37.2336 2.50945C37.2333 2.44963 37.33 2.4192 37.5236 2.41816C37.6079 2.41771 37.6844 2.42044 37.7531 2.42637C37.7559 2.36338 37.7571 2.28309 37.7565 2.18548C37.7591 2.08471 37.7618 2.00755 37.7647 1.95401C37.7675 1.89732 37.7702 1.82961 37.7729 1.75088C37.7788 1.67213 37.7862 1.61069 37.7954 1.56656C37.8076 1.52241 37.823 1.47353 37.8414 1.4199C37.8599 1.36313 37.8846 1.32049 37.9157 1.29198C37.9468 1.26348 37.9825 1.23495 38.023 1.20639C38.0945 1.15248 38.213 1.12508 38.3785 1.12419C38.5472 1.12329 38.6707 1.16513 38.7492 1.24972C38.8309 1.33115 38.9035 1.47087 38.967 1.6689C38.9204 1.72582 38.8659 1.75445 38.8035 1.75479C38.7816 1.75491 38.7598 1.75188 38.7379 1.7457C38.6808 1.59487 38.6288 1.49282 38.5816 1.43954C38.5376 1.38625 38.4766 1.35981 38.3985 1.36023C38.3205 1.36065 38.2612 1.37514 38.2208 1.4037C38.1834 1.43223 38.154 1.4686 38.1323 1.5128C38.086 1.60751 38.0638 1.8359 38.0658 2.19799C38.0658 2.21373 38.066 2.24207 38.0662 2.283C38.0664 2.32393 38.0666 2.36172 38.0668 2.39635L38.4648 2.35643C38.6209 2.35559 38.6992 2.39138 38.6996 2.4638C38.6998 2.51103 38.6625 2.54271 38.5876 2.55886C38.5128 2.575 38.4176 2.58496 38.3021 2.58873C38.1897 2.59248 38.1117 2.60235 38.068 2.61832C38.0622 2.70652 38.0597 2.82303 38.0605 2.96786C38.0613 3.10955 38.0703 3.33621 38.0876 3.64783C38.1049 3.95631 38.1139 4.19241 38.1148 4.35613C38.1157 4.51986 38.0992 4.63645 38.0652 4.7059C38.0343 4.77534 37.9674 4.81033 37.8643 4.81088Z" fill="white"/>
<path d="M39.0613 2.81136C39.2192 2.56491 39.4481 2.44089 39.7479 2.43928C40.0477 2.43767 40.2872 2.55918 40.4665 2.80381C40.649 3.04843 40.741 3.32816 40.7427 3.64302C40.7444 3.95473 40.6475 4.21974 40.4519 4.43804C40.2563 4.65635 40.0071 4.76632 39.7042 4.76794C39.4013 4.76957 39.1807 4.68574 39.0424 4.51646C38.904 4.34402 38.834 4.10195 38.8323 3.79024C38.8302 3.38408 38.9065 3.05778 39.0613 2.81136ZM39.2688 3.06056C39.2288 3.18357 39.1982 3.30653 39.177 3.42945C39.159 3.55234 39.1502 3.66731 39.1508 3.77436C39.1514 3.87827 39.1597 3.97426 39.1758 4.06233C39.1918 4.14726 39.2188 4.23213 39.2568 4.31694C39.2947 4.3986 39.3512 4.46442 39.4265 4.51439C39.5017 4.56122 39.5908 4.58436 39.6938 4.5838C39.903 4.58268 40.0775 4.49515 40.2171 4.32123C40.3598 4.14729 40.4305 3.93752 40.4291 3.69193C40.4278 3.44634 40.361 3.20898 40.2286 2.97984C40.0993 2.74753 39.941 2.63188 39.7536 2.63289C39.6412 2.63349 39.543 2.67338 39.4591 2.75254C39.3753 2.83171 39.3118 2.93438 39.2688 3.06056Z" fill="white"/>
<path d="M41.6654 4.29456L41.6809 4.56369C41.6813 4.63296 41.6613 4.68187 41.6208 4.71042C41.5835 4.73581 41.5445 4.74862 41.5039 4.74883C41.4664 4.74903 41.4274 4.74295 41.3867 4.73057C41.3161 4.36571 41.2605 3.91102 41.2201 3.36652C41.1828 2.822 41.1609 2.51355 41.1543 2.44117C41.2009 2.39684 41.2491 2.37454 41.2991 2.37427C41.3522 2.37399 41.3991 2.38003 41.4397 2.39241C41.4527 2.48365 41.4632 2.68511 41.4711 2.99678C41.479 3.30846 41.4879 3.50363 41.4977 3.58229C41.54 3.31757 41.6167 3.06999 41.7279 2.83954C41.7896 2.71012 41.8703 2.60735 41.9698 2.53125C42.0724 2.45198 42.1815 2.41204 42.297 2.41142C42.4157 2.41078 42.5237 2.46373 42.6211 2.57026C42.7216 2.67363 42.7721 2.76781 42.7725 2.85283C42.7727 2.88431 42.7541 2.9096 42.7167 2.92869C42.6793 2.94464 42.6372 2.95274 42.5904 2.95299C42.5467 2.95322 42.5122 2.93609 42.4871 2.90159C42.4619 2.86709 42.4445 2.8294 42.4349 2.78852C42.4253 2.74449 42.4048 2.70524 42.3734 2.67077C42.342 2.63631 42.2997 2.61922 42.2466 2.6195C42.1061 2.62026 41.9866 2.74842 41.888 3.00399C41.7371 3.38579 41.6629 3.81598 41.6654 4.29456Z" fill="white"/>
<path d="M44.4924 1.23777C44.4968 1.45816 44.4992 1.62345 44.4998 1.73365C44.5004 1.8407 44.4994 1.94776 44.4968 2.05483C44.4974 2.16188 44.4938 2.36971 44.4861 2.67832C44.4784 2.98378 44.4735 3.22625 44.4713 3.40574C44.5895 3.32324 44.7309 3.19653 44.8955 3.02562C45.0601 2.85156 45.2092 2.70278 45.3428 2.57926C45.5541 2.38606 45.7053 2.327 45.7962 2.40207C45.8307 2.43023 45.8418 2.45693 45.8294 2.48219C45.7986 2.54847 45.7272 2.62915 45.6153 2.72421C45.5065 2.81925 45.3775 2.927 45.2282 3.04745C45.079 3.1679 44.9609 3.27874 44.874 3.37996C45.1021 3.41022 45.2855 3.53833 45.4241 3.76429C45.484 3.86788 45.5423 3.97147 45.5991 4.07507C45.7442 4.34823 45.9014 4.53315 46.0705 4.62985C46.0084 4.69316 45.9367 4.72503 45.8555 4.72547C45.7744 4.7259 45.6929 4.68698 45.6113 4.6087C45.5328 4.53041 45.4636 4.43475 45.4037 4.32172C45.3469 4.20867 45.2885 4.09563 45.2286 3.9826C45.0928 3.7094 44.9359 3.57327 44.7579 3.57423C44.6736 3.57468 44.602 3.6034 44.5429 3.6604C44.4839 3.71424 44.4545 3.77107 44.4548 3.8309C44.4569 4.20873 44.4521 4.48898 44.4406 4.67167C44.3972 4.73172 44.3505 4.76189 44.3006 4.76215C44.285 4.76224 44.2678 4.75918 44.249 4.75299C44.1802 4.72502 44.1455 4.66695 44.145 4.57879C44.1477 4.49062 44.1556 4.22294 44.1688 3.77576C44.197 2.63264 44.2103 1.90208 44.2086 1.58408C44.2078 1.43609 44.2213 1.33684 44.2491 1.28631C44.2801 1.23577 44.3159 1.21038 44.3565 1.21017C44.4002 1.20993 44.4455 1.21913 44.4924 1.23777Z" fill="white"/>
<path d="M46.6551 1.2545C46.6524 1.32693 46.6513 1.40723 46.6517 1.49539C46.6522 1.58355 46.6574 1.67483 46.6673 1.76924C46.6238 1.81985 46.5646 1.84536 46.4897 1.84576C46.396 1.84626 46.3488 1.77095 46.3479 1.61982C46.3479 1.61352 46.3478 1.58991 46.3476 1.54898C46.3473 1.50804 46.3471 1.47184 46.347 1.44035C46.3499 1.4057 46.3559 1.36631 46.3651 1.32218C46.3865 1.2465 46.4347 1.20845 46.5097 1.20805C46.5846 1.20765 46.6331 1.22313 46.6551 1.2545ZM46.3678 3.57031C46.3645 2.95319 46.3938 2.59723 46.4557 2.50244C46.4774 2.46769 46.5039 2.45023 46.5351 2.45006C46.5663 2.44989 46.6179 2.46693 46.6899 2.50118C46.6758 2.76889 46.6695 3.06018 46.6712 3.37503C46.6712 3.37503 46.6762 3.72294 46.6862 4.41874C46.6867 4.51634 46.6652 4.58573 46.6217 4.62689C46.5813 4.66489 46.5424 4.68399 46.5049 4.6842C46.4706 4.68438 46.4346 4.67513 46.397 4.65644C46.3792 4.24721 46.3695 3.88516 46.3678 3.57031Z" fill="white"/>
<path d="M49.0199 0.934807C48.907 2.01855 48.8518 2.79184 48.8543 3.25468C48.8568 3.71437 48.9014 4.17384 48.9882 4.63308C48.9261 4.69638 48.8716 4.72816 48.8248 4.72841C48.7779 4.72867 48.7389 4.72258 48.7076 4.71015C48.6407 4.47751 48.6003 4.22426 48.5864 3.9504C48.5121 4.07045 48.4563 4.15576 48.4191 4.20634C48.385 4.2569 48.3245 4.33122 48.2376 4.4293C48.0794 4.61907 47.891 4.71454 47.6724 4.71571C47.5069 4.7166 47.3862 4.64011 47.3105 4.48623C47.2378 4.32918 47.2008 4.12944 47.1995 3.887C47.1982 3.64142 47.2235 3.40828 47.2754 3.18759C47.3304 2.96374 47.4246 2.77117 47.558 2.60987C47.6914 2.44543 47.8565 2.36267 48.0532 2.36162C48.1719 2.36098 48.2813 2.38558 48.3815 2.43542C48.4817 2.48526 48.5508 2.55259 48.5887 2.6374C48.5945 2.55235 48.6 2.42165 48.6053 2.2453C48.6106 2.06895 48.616 1.91306 48.6215 1.77764C48.6302 1.63905 48.6435 1.49886 48.6614 1.35708C48.6942 1.05463 48.7699 0.903089 48.8885 0.902451C48.9291 0.902233 48.9729 0.913019 49.0199 0.934807ZM48.4819 2.808C48.444 2.73893 48.3922 2.68883 48.3265 2.6577C48.2607 2.62342 48.1732 2.60657 48.0639 2.60716C47.9577 2.60773 47.8581 2.66966 47.7651 2.79296C47.5822 3.03639 47.4919 3.38795 47.4944 3.84764C47.4952 3.99562 47.5194 4.14348 47.567 4.29121C47.6147 4.43579 47.6837 4.50784 47.7743 4.50735C47.9055 4.50665 48.033 4.41937 48.157 4.24553C48.281 4.07169 48.3767 3.87281 48.4442 3.64889C48.5117 3.42183 48.545 3.21856 48.544 3.03909C48.5436 2.95408 48.5228 2.87705 48.4819 2.808Z" fill="white"/>
<path d="M50.6585 2.81993C50.63 2.74766 50.5766 2.69127 50.4983 2.65076C50.42 2.61025 50.3231 2.5903 50.2076 2.59092C50.092 2.59154 49.9829 2.62676 49.8802 2.69658C49.7807 2.76639 49.7312 2.85954 49.7319 2.97604C49.7325 3.09254 49.7798 3.18517 49.8739 3.25393C49.971 3.31953 50.0868 3.36929 50.2213 3.4032C50.3589 3.4371 50.4965 3.47414 50.6341 3.51434C50.7717 3.55138 50.8876 3.61531 50.9818 3.70611C51.0791 3.79375 51.1281 3.90999 51.1289 4.05482C51.13 4.26578 51.0434 4.42682 50.8691 4.53796C50.698 4.64909 50.4906 4.7053 50.247 4.70661C50.1034 4.70738 49.9143 4.66904 49.6796 4.59158C49.4481 4.51411 49.3321 4.42027 49.3315 4.31007C49.331 4.22821 49.3995 4.18691 49.5369 4.18617C49.5775 4.18595 49.6307 4.21086 49.6966 4.26088C49.8972 4.40779 50.1022 4.48068 50.3114 4.47956C50.4238 4.47896 50.5205 4.45954 50.6015 4.42133C50.751 4.3481 50.8253 4.2312 50.8245 4.07063C50.8239 3.97302 50.7751 3.89457 50.678 3.83526C50.584 3.77594 50.4682 3.72934 50.3306 3.69544C50.1962 3.66153 50.0601 3.62447 49.9225 3.58428C49.7849 3.54409 49.6674 3.47702 49.5701 3.38308C49.4759 3.28598 49.4284 3.16344 49.4276 3.01546C49.4266 2.82339 49.5116 2.66708 49.6827 2.54651C49.8538 2.42594 50.0658 2.36498 50.3188 2.36362C50.4905 2.3627 50.6453 2.40752 50.7832 2.49809C50.9242 2.5855 50.9952 2.71421 50.9961 2.88424C50.9967 2.99758 50.933 3.0546 50.805 3.05529C50.7519 3.05557 50.7159 3.04632 50.6971 3.02753C50.6814 3.00872 50.6718 2.97571 50.6684 2.9285C50.6682 2.87812 50.6649 2.84193 50.6585 2.81993Z" fill="white"/>
</svg>
