<svg width="39" height="5" viewBox="0 0 39 5" fill="none" xmlns="http://www.w3.org/2000/svg">
<path d="M0.446353 2.67522C0.446353 2.30399 0.431012 1.97679 0.40033 1.6936C0.40033 1.61983 0.431012 1.55558 0.492376 1.50085C0.55374 1.44611 0.635165 1.40447 0.736652 1.37591C0.939626 1.32356 1.16266 1.29738 1.40576 1.29738C1.71966 1.29738 1.96629 1.36758 2.14567 1.50799C2.3274 1.64601 2.41826 1.85899 2.41826 2.14693C2.41826 2.43488 2.30262 2.66571 2.07132 2.83942C1.84003 3.01314 1.55799 3.1 1.2252 3.1C1.05527 3.1 0.877081 3.0643 0.690629 2.99291C0.678828 3.10714 0.672928 3.26182 0.672928 3.45695L0.676468 3.63186C0.676468 3.68897 0.675288 3.74847 0.672928 3.81034C0.661127 3.827 0.648146 3.83889 0.633985 3.84603C0.619824 3.85317 0.609204 3.85793 0.602123 3.86031C0.597403 3.86507 0.589142 3.86864 0.577341 3.87102C0.565541 3.8734 0.55728 3.87459 0.55256 3.87459C0.538399 3.87935 0.521878 3.88173 0.502996 3.88173H0.442812C0.438092 3.70325 0.435732 3.54262 0.435732 3.39984L0.446353 2.67522ZM0.683548 2.73591C0.85584 2.85251 1.06235 2.91081 1.30309 2.91081C1.54383 2.90843 1.7468 2.83347 1.91201 2.68593C2.07722 2.53601 2.15983 2.35278 2.15983 2.13622C2.15983 1.91967 2.07486 1.75785 1.90493 1.65077C1.735 1.54368 1.53084 1.49014 1.29247 1.49014C1.05645 1.49014 0.847579 1.54487 0.665847 1.65434C0.677648 1.80902 0.683548 2.16954 0.683548 2.73591Z" fill="white"/>
<path d="M3.06577 3.4748L3.07639 3.67826C3.07639 3.73062 3.06105 3.7675 3.03037 3.78892C3.00204 3.80796 2.97254 3.81748 2.94186 3.81748C2.91354 3.81748 2.88404 3.81272 2.85335 3.8032C2.80143 3.52715 2.76131 3.18329 2.73299 2.7716C2.70702 2.35992 2.69168 2.12671 2.68696 2.07197C2.72236 2.03866 2.75895 2.022 2.79671 2.022C2.83683 2.022 2.87223 2.02676 2.90292 2.03628C2.91236 2.10529 2.91944 2.25759 2.92416 2.49318C2.92888 2.72877 2.93478 2.87631 2.94186 2.9358C2.9749 2.73591 3.03391 2.5491 3.11887 2.37538C3.16607 2.27782 3.22744 2.20048 3.30296 2.14336C3.38085 2.08387 3.46345 2.05413 3.55078 2.05413C3.64047 2.05413 3.72189 2.09458 3.79506 2.17549C3.87058 2.25402 3.90834 2.32541 3.90834 2.38966C3.90834 2.41346 3.89418 2.4325 3.86586 2.44677C3.83754 2.45867 3.80568 2.46462 3.77027 2.46462C3.73723 2.46462 3.71127 2.45153 3.69239 2.42536C3.67351 2.39918 3.66053 2.37062 3.65345 2.33969C3.64637 2.30637 3.63103 2.27663 3.60742 2.25045C3.58382 2.22427 3.55196 2.21118 3.51184 2.21118C3.40563 2.21118 3.31476 2.30756 3.23924 2.50032C3.12359 2.78826 3.06577 3.11309 3.06577 3.4748Z" fill="white"/>
<path d="M4.23593 2.34326C4.35629 2.15764 4.52977 2.06483 4.75634 2.06483C4.98292 2.06483 5.16347 2.15764 5.298 2.34326C5.43489 2.52887 5.50333 2.74067 5.50333 2.97864C5.50333 3.21422 5.42899 3.41412 5.2803 3.57832C5.13161 3.74252 4.94279 3.82462 4.71386 3.82462C4.48492 3.82462 4.31853 3.76036 4.21468 3.63186C4.11084 3.50098 4.05891 3.31774 4.05891 3.08215C4.05891 2.77517 4.11792 2.52887 4.23593 2.34326ZM4.3917 2.53244C4.36101 2.62525 4.33741 2.71806 4.32089 2.81087C4.30673 2.90367 4.29965 2.99053 4.29965 3.07144C4.29965 3.14997 4.30555 3.22255 4.31735 3.28918C4.32915 3.35344 4.34921 3.41769 4.37754 3.48194C4.40586 3.54381 4.44834 3.59379 4.50498 3.63186C4.56163 3.66756 4.62889 3.6854 4.70678 3.6854C4.86491 3.6854 4.99708 3.61996 5.10328 3.48908C5.21185 3.3582 5.26613 3.19995 5.26613 3.01433C5.26613 2.82871 5.21657 2.64905 5.11745 2.47533C5.02068 2.29923 4.90149 2.21118 4.75988 2.21118C4.67492 2.21118 4.60057 2.24093 4.53685 2.30042C4.47312 2.35992 4.42474 2.43726 4.3917 2.53244Z" fill="white"/>
<path d="M5.67088 2.10767C5.69212 2.06245 5.73815 2.03985 5.80895 2.03985C5.83963 2.03985 5.8656 2.04699 5.88684 2.06126C5.95292 2.2445 6.01783 2.42893 6.08155 2.61454C6.20192 2.95484 6.31403 3.22374 6.41787 3.42126C6.46744 3.13094 6.56302 2.83823 6.70463 2.54315C6.8486 2.24807 6.97959 2.10053 7.0976 2.10053C7.133 2.10053 7.1684 2.10886 7.2038 2.12552C6.93239 2.48485 6.73767 2.96079 6.61967 3.55333C6.59606 3.69135 6.5701 3.76988 6.54178 3.78892C6.5111 3.81034 6.47924 3.82105 6.44619 3.82105C6.41315 3.82105 6.38719 3.81391 6.36831 3.79963C6.35179 3.78535 6.33881 3.77107 6.32937 3.75679C6.32229 3.74252 6.31167 3.71872 6.2975 3.6854C6.2857 3.65209 6.27626 3.62948 6.26918 3.61758C6.02845 3.16306 5.82901 2.65976 5.67088 2.10767Z" fill="white"/>
<path d="M7.67897 1.19744C7.67661 1.25217 7.67543 1.31285 7.67543 1.37948C7.67543 1.44611 7.67897 1.51513 7.68605 1.58652C7.65301 1.62459 7.60817 1.64363 7.55152 1.64363C7.48072 1.64363 7.44532 1.58652 7.44532 1.47229C7.44532 1.46753 7.44532 1.44968 7.44532 1.41875C7.44532 1.38781 7.44532 1.36045 7.44532 1.33665C7.44768 1.31047 7.4524 1.28073 7.45948 1.24741C7.476 1.1903 7.51258 1.16174 7.56922 1.16174C7.62587 1.16174 7.66245 1.17364 7.67897 1.19744ZM7.4524 2.94651C7.4524 2.48009 7.476 2.21118 7.5232 2.13979C7.53972 2.11362 7.55978 2.10053 7.58338 2.10053C7.60699 2.10053 7.64593 2.11362 7.70021 2.13979C7.68841 2.34207 7.68251 2.56219 7.68251 2.80016C7.68251 2.80016 7.68487 3.06311 7.68959 3.58903C7.68959 3.6628 7.67307 3.71515 7.64003 3.74609C7.60935 3.77464 7.57984 3.78892 7.55152 3.78892C7.52556 3.78892 7.49842 3.78178 7.4701 3.7675C7.4583 3.45814 7.4524 3.18448 7.4524 2.94651Z" fill="white"/>
<path d="M9.46748 0.965416C9.3778 1.78403 9.33295 2.36824 9.33295 2.71806C9.33295 3.06549 9.36481 3.41293 9.42854 3.76036C9.38134 3.80796 9.34003 3.83175 9.30463 3.83175C9.26923 3.83175 9.23973 3.827 9.21613 3.81748C9.16656 3.64138 9.13706 3.44981 9.12762 3.24278C9.07098 3.33321 9.02849 3.39746 9.00017 3.43554C8.97421 3.47361 8.92819 3.52953 8.8621 3.6033C8.74173 3.74609 8.59894 3.81748 8.43373 3.81748C8.30864 3.81748 8.21778 3.75917 8.16113 3.64257C8.10685 3.52358 8.07971 3.37247 8.07971 3.18924C8.07971 3.00362 8.09977 2.82752 8.13989 2.66095C8.18238 2.49199 8.25436 2.34683 8.35585 2.22546C8.45733 2.10172 8.58242 2.03985 8.73111 2.03985C8.8208 2.03985 8.9034 2.05888 8.97893 2.09696C9.05445 2.13503 9.10638 2.1862 9.1347 2.25045C9.13942 2.1862 9.14414 2.08744 9.14886 1.95418C9.15358 1.82092 9.1583 1.70312 9.16302 1.60079C9.1701 1.49609 9.18072 1.39019 9.19488 1.28311C9.22084 1.05465 9.27867 0.94043 9.36836 0.94043C9.39904 0.94043 9.43208 0.948759 9.46748 0.965416ZM9.05327 2.37895C9.02495 2.3266 8.98601 2.28852 8.93645 2.26473C8.88688 2.23855 8.8208 2.22546 8.73819 2.22546C8.65795 2.22546 8.58242 2.27187 8.51162 2.36467C8.37237 2.54791 8.30274 2.81325 8.30274 3.16068C8.30274 3.27253 8.32045 3.38437 8.35585 3.49622C8.39125 3.60568 8.44317 3.66042 8.51162 3.66042C8.61074 3.66042 8.70751 3.59498 8.80192 3.46409C8.89632 3.33321 8.96949 3.18329 9.02141 3.01433C9.07334 2.84299 9.0993 2.6895 9.0993 2.55386C9.0993 2.48961 9.08396 2.43131 9.05327 2.37895Z" fill="white"/>
<path d="M10.061 1.19744C10.0587 1.25217 10.0575 1.31285 10.0575 1.37948C10.0575 1.44611 10.061 1.51513 10.0681 1.58652C10.0351 1.62459 9.99022 1.64363 9.93358 1.64363C9.86277 1.64363 9.82737 1.58652 9.82737 1.47229C9.82737 1.46753 9.82737 1.44968 9.82737 1.41875C9.82737 1.38781 9.82737 1.36045 9.82737 1.33665C9.82973 1.31047 9.83445 1.28073 9.84153 1.24741C9.85805 1.1903 9.89463 1.16174 9.95128 1.16174C10.0079 1.16174 10.0445 1.17364 10.061 1.19744ZM9.83445 2.94651C9.83445 2.48009 9.85805 2.21118 9.90525 2.13979C9.92177 2.11362 9.94184 2.10053 9.96544 2.10053C9.98904 2.10053 10.028 2.11362 10.0823 2.13979C10.0705 2.34207 10.0646 2.56219 10.0646 2.80016C10.0646 2.80016 10.0669 3.06311 10.0716 3.58903C10.0716 3.6628 10.0551 3.71515 10.0221 3.74609C9.9914 3.77464 9.9619 3.78892 9.93358 3.78892C9.90761 3.78892 9.88047 3.78178 9.85215 3.7675C9.84035 3.45814 9.83445 3.18448 9.83445 2.94651Z" fill="white"/>
<path d="M11.9734 3.72467C11.931 3.76988 11.8826 3.79249 11.8283 3.79249C11.7268 3.79249 11.6513 3.73776 11.6017 3.62829C11.5522 3.51883 11.5227 3.38556 11.5132 3.2285C11.5061 3.07144 11.5014 2.91438 11.4991 2.75732C11.4967 2.60026 11.4837 2.467 11.4601 2.35754C11.4389 2.24807 11.3976 2.19334 11.3362 2.19334C11.2536 2.19334 11.1828 2.2683 11.1238 2.41822C11.0671 2.56814 11.027 2.73472 11.0034 2.91795C10.9373 3.42959 10.8736 3.71634 10.8122 3.77821C10.7698 3.79963 10.7332 3.81034 10.7025 3.81034C10.6718 3.81034 10.6459 3.80677 10.6246 3.79963C10.575 3.5807 10.5432 3.20352 10.529 2.66809C10.5243 2.40156 10.5196 2.22903 10.5149 2.1505C10.5644 2.11719 10.6069 2.10053 10.6423 2.10053C10.6777 2.10053 10.706 2.1041 10.7273 2.11124C10.7391 2.21356 10.745 2.42298 10.745 2.73948C10.7473 3.05598 10.7497 3.23802 10.7521 3.28562C10.7639 3.23564 10.778 3.15473 10.7945 3.04289C10.8134 2.93104 10.8299 2.83942 10.8441 2.76803C10.8583 2.69426 10.8807 2.60859 10.9114 2.51103C10.9421 2.41346 10.9763 2.33612 11.014 2.27901C11.0518 2.21951 11.1037 2.16954 11.1698 2.12909C11.2359 2.08625 11.3102 2.06483 11.3928 2.06483C11.5038 2.06483 11.584 2.116 11.6336 2.21832C11.6855 2.31827 11.7138 2.4432 11.7185 2.59312C11.7233 2.74305 11.7256 2.89535 11.7256 3.05003C11.728 3.20471 11.7469 3.3463 11.7823 3.4748C11.82 3.6033 11.8838 3.68659 11.9734 3.72467Z" fill="white"/>
<path d="M12.8216 2.03985C13.0364 2.03985 13.1851 2.1279 13.2677 2.30399C13.3125 2.3968 13.3491 2.48485 13.3775 2.56814C13.4058 2.65143 13.4247 2.76565 13.4341 2.91081C13.4483 3.13213 13.4553 3.38437 13.4553 3.66756C13.4553 3.94836 13.3881 4.17205 13.2535 4.33863C13.1214 4.50759 12.9267 4.59207 12.6694 4.59207C12.4145 4.59207 12.2021 4.50878 12.0322 4.3422C12.0794 4.2946 12.1301 4.27081 12.1844 4.27081C12.241 4.27081 12.3177 4.2946 12.4145 4.3422C12.5136 4.39217 12.6187 4.41716 12.7296 4.41716C12.8405 4.41716 12.9326 4.39098 13.0057 4.33863C13.0789 4.28866 13.1332 4.21726 13.1686 4.12446C13.2276 3.96026 13.2571 3.75798 13.2571 3.51764C13.2571 3.48194 13.2535 3.34987 13.2465 3.12142C13.1827 3.31655 13.0919 3.47837 12.9739 3.60687C12.8559 3.733 12.7225 3.79606 12.5738 3.79606C12.4251 3.79606 12.3154 3.72943 12.2446 3.59617C12.1761 3.46052 12.1419 3.30703 12.1419 3.13569C12.1419 2.96436 12.1655 2.79778 12.2127 2.63596C12.2599 2.47176 12.3366 2.33136 12.4428 2.21475C12.549 2.09815 12.6753 2.03985 12.8216 2.03985ZM12.4464 2.58242C12.4157 2.68712 12.3933 2.78588 12.3791 2.87869C12.3649 2.9715 12.3579 3.06549 12.3579 3.16068C12.3579 3.25349 12.3767 3.35701 12.4145 3.47123C12.4546 3.58546 12.5125 3.64257 12.588 3.64257C12.7367 3.64257 12.8688 3.53072 12.9845 3.30703C13.1001 3.08096 13.158 2.8537 13.158 2.62525C13.158 2.54672 13.1214 2.45867 13.0482 2.36111C12.9774 2.26116 12.8877 2.21118 12.7792 2.21118C12.7036 2.21118 12.6364 2.24688 12.5774 2.31827C12.5207 2.38966 12.4771 2.47771 12.4464 2.58242Z" fill="white"/>
<path d="M16.1049 3.72467C16.0624 3.76988 16.014 3.79249 15.9597 3.79249C15.8582 3.79249 15.7827 3.73776 15.7331 3.62829C15.6836 3.51883 15.6541 3.38556 15.6446 3.2285C15.6376 3.07144 15.6328 2.91438 15.6305 2.75732C15.6281 2.60026 15.6151 2.467 15.5915 2.35754C15.5703 2.24807 15.529 2.19334 15.4676 2.19334C15.385 2.19334 15.3142 2.2683 15.2552 2.41822C15.1986 2.56814 15.1584 2.73472 15.1348 2.91795C15.0688 3.42959 15.005 3.71634 14.9437 3.77821C14.9012 3.79963 14.8646 3.81034 14.8339 3.81034C14.8032 3.81034 14.7773 3.80677 14.756 3.79963C14.7065 3.5807 14.6746 3.20352 14.6605 2.66809C14.6557 2.40156 14.651 2.22903 14.6463 2.1505C14.6959 2.11719 14.7383 2.10053 14.7737 2.10053C14.8091 2.10053 14.8375 2.1041 14.8587 2.11124C14.8705 2.21356 14.8764 2.42298 14.8764 2.73948C14.8788 3.05598 14.8811 3.23802 14.8835 3.28562C14.8953 3.23564 14.9095 3.15473 14.926 3.04289C14.9449 2.93104 14.9614 2.83942 14.9755 2.76803C14.9897 2.69426 15.0121 2.60859 15.0428 2.51103C15.0735 2.41346 15.1077 2.33612 15.1455 2.27901C15.1832 2.21951 15.2352 2.16954 15.3012 2.12909C15.3673 2.08625 15.4417 2.06483 15.5243 2.06483C15.6352 2.06483 15.7154 2.116 15.765 2.21832C15.8169 2.31827 15.8453 2.4432 15.85 2.59312C15.8547 2.74305 15.8571 2.89535 15.8571 3.05003C15.8594 3.20471 15.8783 3.3463 15.9137 3.4748C15.9515 3.6033 16.0152 3.68659 16.1049 3.72467Z" fill="white"/>
<path d="M16.5141 3.1C16.5094 3.14759 16.507 3.17972 16.507 3.19638C16.507 3.33916 16.5495 3.44981 16.6344 3.52834C16.7218 3.60687 16.8244 3.64614 16.9424 3.64614C17.0604 3.64614 17.156 3.62948 17.2292 3.59617C17.3047 3.56285 17.359 3.52715 17.3921 3.48908C17.477 3.38199 17.5549 3.32845 17.6257 3.32845C17.6517 3.32845 17.6824 3.33559 17.7178 3.34987C17.6942 3.46647 17.6045 3.57356 17.4487 3.67113C17.2953 3.76631 17.1018 3.81391 16.8681 3.81391C16.7029 3.81391 16.5601 3.76155 16.4397 3.65685C16.3217 3.54976 16.2627 3.4046 16.2627 3.22136C16.2627 3.03813 16.2981 2.86084 16.3689 2.6895C16.4421 2.51579 16.5459 2.36824 16.6805 2.24688C16.8174 2.12314 16.9554 2.06126 17.0947 2.06126C17.2363 2.06126 17.3496 2.09101 17.4345 2.1505C17.5219 2.20762 17.5655 2.29209 17.5655 2.40394C17.5655 2.61097 17.4735 2.78231 17.2894 2.91795C17.1077 3.05122 16.9141 3.11785 16.7088 3.11785C16.6545 3.11785 16.5896 3.1119 16.5141 3.1ZM16.7831 2.9822C16.8941 2.9822 16.9932 2.94651 17.0805 2.87512C17.1678 2.80373 17.2292 2.72877 17.2646 2.65024C17.3024 2.57171 17.3212 2.50032 17.3212 2.43607C17.3212 2.37181 17.2965 2.31589 17.2469 2.2683C17.1973 2.21832 17.1395 2.19334 17.0734 2.19334C16.9554 2.19334 16.8457 2.27544 16.7442 2.43964C16.6451 2.60383 16.5743 2.77398 16.5318 2.95008C16.6356 2.9715 16.7194 2.9822 16.7831 2.9822Z" fill="white"/>
<path d="M18.9592 3.41055C18.9214 3.52001 18.8482 3.61282 18.7397 3.68897C18.6335 3.76512 18.5166 3.8032 18.3892 3.8032C18.2641 3.8032 18.1661 3.74014 18.0953 3.61401C18.0269 3.48551 17.9927 3.30822 17.9927 3.08215C17.9927 2.44439 18.0859 2.12552 18.2724 2.12552C18.296 2.12552 18.3255 2.12909 18.3609 2.13622C18.3538 2.1743 18.3373 2.24688 18.3113 2.35397C18.2594 2.56338 18.2334 2.74781 18.2334 2.90724C18.2334 3.06668 18.2558 3.23564 18.3007 3.41412C18.3455 3.59022 18.4092 3.67826 18.4918 3.67826C18.5343 3.67826 18.5756 3.6509 18.6158 3.59617C18.6559 3.54143 18.6877 3.48432 18.7113 3.42483C18.7349 3.36296 18.7597 3.29275 18.7857 3.21422C18.8116 3.13569 18.8282 3.0881 18.8352 3.07144C18.7998 2.93342 18.7821 2.79302 18.7821 2.65024C18.7821 2.6431 18.7821 2.62168 18.7821 2.58599C18.7821 2.54791 18.7833 2.51103 18.7857 2.47533C18.788 2.43964 18.7951 2.3968 18.8069 2.34683C18.8305 2.24688 18.8943 2.19691 18.9981 2.19691C19.0854 2.19691 19.1291 2.33017 19.1291 2.59669C19.1291 2.64429 19.122 2.7133 19.1078 2.80373C19.096 2.89416 19.0901 2.95722 19.0901 2.99291C19.0901 3.10238 19.1421 3.24397 19.2459 3.41769C19.3498 3.59141 19.4465 3.67826 19.5362 3.67826C19.6283 3.67826 19.6955 3.62591 19.738 3.5212C19.7805 3.4165 19.8017 3.29989 19.8017 3.17139C19.8017 3.02385 19.7888 2.912 19.7628 2.83585C19.7392 2.75732 19.7238 2.70616 19.7168 2.68236C19.712 2.65857 19.6967 2.62168 19.6707 2.57171C19.6471 2.51935 19.6318 2.48604 19.6247 2.47176C19.62 2.45748 19.6023 2.42298 19.5716 2.36824C19.5409 2.31351 19.5232 2.28258 19.5185 2.27544C19.4501 2.15407 19.4099 2.08744 19.3981 2.07554C19.4572 2.02557 19.5114 2.00058 19.561 2.00058C19.705 2.10529 19.8194 2.27663 19.9044 2.5146C19.9894 2.75018 20.0319 2.96555 20.0319 3.16068C20.0319 3.35344 19.9905 3.50574 19.9079 3.61758C19.8277 3.72705 19.7014 3.78178 19.5291 3.78178C19.4088 3.78178 19.2943 3.74847 19.1857 3.68183C19.0795 3.61282 19.004 3.52239 18.9592 3.41055Z" fill="white"/>
<path d="M21.2265 1.25812C21.2549 1.20577 21.3068 1.17959 21.3823 1.17959C21.3988 1.17959 21.4154 1.18197 21.4319 1.18673C21.4366 1.31285 21.439 1.66505 21.439 2.24331C21.4413 2.24093 21.4519 2.23022 21.4708 2.21118C21.4921 2.19215 21.505 2.18025 21.5098 2.17549C21.5145 2.17073 21.5263 2.16002 21.5452 2.14336C21.564 2.12433 21.5782 2.11243 21.5876 2.10767C21.5994 2.10053 21.6148 2.09101 21.6337 2.07911C21.6525 2.06483 21.6691 2.05531 21.6832 2.05056C21.6974 2.04342 21.7139 2.03628 21.7328 2.02914C21.7682 2.01724 21.8095 2.01129 21.8567 2.01129C22.0314 2.01129 22.1718 2.08506 22.278 2.2326C22.3842 2.37776 22.4373 2.54077 22.4373 2.72163C22.4373 2.90249 22.4102 3.07501 22.3559 3.23921C22.3016 3.40103 22.2178 3.54262 22.1045 3.66399C21.9912 3.78535 21.8591 3.84603 21.708 3.84603C21.5593 3.84603 21.4342 3.79011 21.3327 3.67826C21.2336 3.56642 21.1841 3.43911 21.1841 3.29632C21.1841 3.15116 21.1923 2.88464 21.2088 2.49675C21.2254 2.10648 21.2336 1.82686 21.2336 1.65791C21.2336 1.48657 21.2313 1.35331 21.2265 1.25812ZM21.7328 3.67113C21.8248 3.67113 21.9074 3.6271 21.9806 3.53905C22.1293 3.36533 22.2036 3.11904 22.2036 2.80016C22.2036 2.62882 22.1706 2.47771 22.1045 2.34683C22.0384 2.21356 21.9452 2.14693 21.8248 2.14693C21.7564 2.14693 21.6962 2.18144 21.6443 2.25045C21.5924 2.31708 21.5522 2.40632 21.5239 2.51816C21.4696 2.72996 21.4425 2.96555 21.4425 3.22493C21.4425 3.44386 21.4873 3.57832 21.577 3.62829C21.6171 3.65209 21.6691 3.66637 21.7328 3.67113Z" fill="white"/>
<path d="M22.9653 3.1C22.9606 3.14759 22.9582 3.17972 22.9582 3.19638C22.9582 3.33916 23.0007 3.44981 23.0857 3.52834C23.173 3.60687 23.2757 3.64614 23.3937 3.64614C23.5117 3.64614 23.6073 3.62948 23.6804 3.59617C23.756 3.56285 23.8103 3.52715 23.8433 3.48908C23.9283 3.38199 24.0062 3.32845 24.077 3.32845C24.1029 3.32845 24.1336 3.33559 24.169 3.34987C24.1454 3.46647 24.0557 3.57356 23.8999 3.67113C23.7465 3.76631 23.553 3.81391 23.3193 3.81391C23.1541 3.81391 23.0113 3.76155 22.891 3.65685C22.773 3.54976 22.714 3.4046 22.714 3.22136C22.714 3.03813 22.7494 2.86084 22.8202 2.6895C22.8933 2.51579 22.9972 2.36824 23.1317 2.24688C23.2686 2.12314 23.4067 2.06126 23.5459 2.06126C23.6875 2.06126 23.8008 2.09101 23.8858 2.1505C23.9731 2.20762 24.0168 2.29209 24.0168 2.40394C24.0168 2.61097 23.9247 2.78231 23.7406 2.91795C23.5589 3.05122 23.3654 3.11785 23.16 3.11785C23.1058 3.11785 23.0408 3.1119 22.9653 3.1ZM23.2344 2.9822C23.3453 2.9822 23.4444 2.94651 23.5318 2.87512C23.6191 2.80373 23.6804 2.72877 23.7159 2.65024C23.7536 2.57171 23.7725 2.50032 23.7725 2.43607C23.7725 2.37181 23.7477 2.31589 23.6982 2.2683C23.6486 2.21832 23.5908 2.19334 23.5247 2.19334C23.4067 2.19334 23.2969 2.27544 23.1954 2.43964C23.0963 2.60383 23.0255 2.77398 22.983 2.95008C23.0869 2.9715 23.1707 2.9822 23.2344 2.9822Z" fill="white"/>
<path d="M25.7892 0.965416C25.6995 1.78403 25.6547 2.36824 25.6547 2.71806C25.6547 3.06549 25.6865 3.41293 25.7503 3.76036C25.7031 3.80796 25.6618 3.83175 25.6264 3.83175C25.591 3.83175 25.5615 3.827 25.5379 3.81748C25.4883 3.64138 25.4588 3.44981 25.4493 3.24278C25.3927 3.33321 25.3502 3.39746 25.3219 3.43554C25.2959 3.47361 25.2499 3.52953 25.1838 3.6033C25.0635 3.74609 24.9207 3.81748 24.7555 3.81748C24.6304 3.81748 24.5395 3.75917 24.4829 3.64257C24.4286 3.52358 24.4014 3.37247 24.4014 3.18924C24.4014 3.00362 24.4215 2.82752 24.4616 2.66095C24.5041 2.49199 24.5761 2.34683 24.6776 2.22546C24.7791 2.10172 24.9042 2.03985 25.0528 2.03985C25.1425 2.03985 25.2251 2.05888 25.3007 2.09696C25.3762 2.13503 25.4281 2.1862 25.4564 2.25045C25.4612 2.1862 25.4659 2.08744 25.4706 1.95418C25.4753 1.82092 25.48 1.70312 25.4848 1.60079C25.4918 1.49609 25.5025 1.39019 25.5166 1.28311C25.5426 1.05465 25.6004 0.94043 25.6901 0.94043C25.7208 0.94043 25.7538 0.948759 25.7892 0.965416ZM25.375 2.37895C25.3467 2.3266 25.3077 2.28852 25.2582 2.26473C25.2086 2.23855 25.1425 2.22546 25.0599 2.22546C24.9797 2.22546 24.9042 2.27187 24.8333 2.36467C24.6941 2.54791 24.6245 2.81325 24.6245 3.16068C24.6245 3.27253 24.6422 3.38437 24.6776 3.49622C24.713 3.60568 24.7649 3.66042 24.8333 3.66042C24.9325 3.66042 25.0292 3.59498 25.1236 3.46409C25.2181 3.33321 25.2912 3.18329 25.3431 3.01433C25.3951 2.84299 25.421 2.6895 25.421 2.55386C25.421 2.48961 25.4057 2.43131 25.375 2.37895Z" fill="white"/>
<path d="M27.02 2.3968C26.9988 2.34207 26.9586 2.29923 26.8996 2.2683C26.8406 2.23736 26.7675 2.22189 26.6801 2.22189C26.5928 2.22189 26.5102 2.24807 26.4323 2.30042C26.3568 2.35278 26.319 2.42298 26.319 2.51103C26.319 2.59907 26.3544 2.66928 26.4252 2.72163C26.4984 2.7716 26.5857 2.80968 26.6872 2.83585C26.7911 2.86203 26.8949 2.89059 26.9988 2.92152C27.1026 2.95008 27.1899 2.99886 27.2607 3.06787C27.3339 3.1345 27.3705 3.22255 27.3705 3.33202C27.3705 3.49146 27.3044 3.61282 27.1722 3.69611C27.0424 3.7794 26.8855 3.82105 26.7014 3.82105C26.5928 3.82105 26.45 3.7913 26.273 3.73181C26.0984 3.67232 26.011 3.60092 26.011 3.51764C26.011 3.45576 26.063 3.42483 26.1668 3.42483C26.1975 3.42483 26.2376 3.44386 26.2872 3.48194C26.4382 3.59379 26.5928 3.64971 26.7509 3.64971C26.8359 3.64971 26.9091 3.63543 26.9704 3.60687C27.0837 3.55214 27.1404 3.46409 27.1404 3.34273C27.1404 3.26896 27.1038 3.20947 27.0306 3.16425C26.9598 3.11904 26.8725 3.08334 26.7686 3.05716C26.6672 3.03099 26.5645 3.00243 26.4606 2.9715C26.3568 2.94056 26.2683 2.8894 26.1951 2.81801C26.1243 2.74424 26.0889 2.65143 26.0889 2.53958C26.0889 2.39442 26.1538 2.27663 26.2836 2.1862C26.4134 2.09577 26.5739 2.05056 26.7651 2.05056C26.8949 2.05056 27.0117 2.08506 27.1156 2.15407C27.2218 2.2207 27.2749 2.31827 27.2749 2.44677C27.2749 2.53244 27.2265 2.57528 27.1297 2.57528C27.0896 2.57528 27.0625 2.56814 27.0483 2.55386C27.0365 2.53958 27.0294 2.5146 27.0271 2.4789C27.0271 2.44083 27.0247 2.41346 27.02 2.3968Z" fill="white"/>
<path d="M28.7375 3.8496C28.695 3.8496 28.6738 3.48908 28.6738 2.76803C28.6738 2.46343 28.6726 2.27901 28.6702 2.21475H28.5994C28.5664 2.21475 28.5404 2.21475 28.5215 2.21475C28.5027 2.21237 28.4779 2.21118 28.4472 2.21118C28.4189 2.20881 28.3953 2.20524 28.3764 2.20048C28.3599 2.19572 28.3422 2.18977 28.3233 2.18263C28.2879 2.16835 28.2702 2.14336 28.2702 2.10767C28.2702 2.06245 28.3433 2.03985 28.4897 2.03985C28.5534 2.03985 28.6112 2.04223 28.6631 2.04699C28.6655 1.99939 28.6667 1.93871 28.6667 1.86494C28.669 1.78879 28.6714 1.73049 28.6738 1.69003C28.6761 1.6472 28.6785 1.59603 28.6808 1.53654C28.6856 1.47705 28.6915 1.43065 28.6985 1.39733C28.708 1.36401 28.7198 1.32713 28.7339 1.28667C28.7481 1.24384 28.767 1.21171 28.7906 1.1903C28.8142 1.16888 28.8413 1.14746 28.872 1.12605C28.9263 1.08559 29.016 1.06536 29.1411 1.06536C29.2685 1.06536 29.3617 1.09749 29.4208 1.16174C29.4821 1.22361 29.5364 1.32951 29.5836 1.47943C29.5482 1.52226 29.5069 1.54368 29.4597 1.54368C29.4432 1.54368 29.4266 1.5413 29.4101 1.53654C29.3676 1.42232 29.3287 1.34498 29.2933 1.30452C29.2603 1.26407 29.2142 1.24384 29.1552 1.24384C29.0962 1.24384 29.0514 1.25455 29.0207 1.27597C28.9924 1.29738 28.97 1.32475 28.9534 1.35807C28.918 1.42946 28.9003 1.60198 28.9003 1.87565C28.9003 1.88755 28.9003 1.90896 28.9003 1.9399C28.9003 1.97084 28.9003 1.99939 28.9003 2.02557L29.2013 1.99701C29.3193 1.99701 29.3783 2.02438 29.3783 2.07911C29.3783 2.11481 29.3499 2.1386 29.2933 2.1505C29.2367 2.1624 29.1647 2.16954 29.0773 2.17192C28.9924 2.1743 28.9334 2.18144 28.9003 2.19334C28.8956 2.25997 28.8933 2.34802 28.8933 2.45748C28.8933 2.56457 28.8992 2.73591 28.911 2.9715C28.9228 3.20471 28.9287 3.38318 28.9287 3.50693C28.9287 3.63067 28.9157 3.71872 28.8897 3.77107C28.8661 3.82343 28.8154 3.8496 28.7375 3.8496Z" fill="white"/>
<path d="M29.6503 2.34326C29.7706 2.15764 29.9441 2.06483 30.1707 2.06483C30.3972 2.06483 30.5778 2.15764 30.7123 2.34326C30.8492 2.52887 30.9177 2.74067 30.9177 2.97864C30.9177 3.21422 30.8433 3.41412 30.6946 3.57832C30.5459 3.74252 30.3571 3.82462 30.1282 3.82462C29.8993 3.82462 29.7329 3.76036 29.629 3.63186C29.5252 3.50098 29.4732 3.31774 29.4732 3.08215C29.4732 2.77517 29.5322 2.52887 29.6503 2.34326ZM29.806 2.53244C29.7753 2.62525 29.7517 2.71806 29.7352 2.81087C29.7211 2.90367 29.714 2.99053 29.714 3.07144C29.714 3.14997 29.7199 3.22255 29.7317 3.28918C29.7435 3.35344 29.7635 3.41769 29.7919 3.48194C29.8202 3.54381 29.8627 3.59379 29.9193 3.63186C29.976 3.66756 30.0432 3.6854 30.1211 3.6854C30.2792 3.6854 30.4114 3.61996 30.5176 3.48908C30.6262 3.3582 30.6805 3.19995 30.6805 3.01433C30.6805 2.82871 30.6309 2.64905 30.5318 2.47533C30.435 2.29923 30.3158 2.21118 30.1742 2.21118C30.0892 2.21118 30.0149 2.24093 29.9512 2.30042C29.8875 2.35992 29.8391 2.43726 29.806 2.53244Z" fill="white"/>
<path d="M31.6124 3.4748L31.623 3.67826C31.623 3.73062 31.6077 3.7675 31.577 3.78892C31.5487 3.80796 31.5192 3.81748 31.4885 3.81748C31.4601 3.81748 31.4306 3.81272 31.4 3.8032C31.348 3.52715 31.3079 3.18329 31.2796 2.7716C31.2536 2.35992 31.2383 2.12671 31.2336 2.07197C31.269 2.03866 31.3056 2.022 31.3433 2.022C31.3834 2.022 31.4188 2.02676 31.4495 2.03628C31.459 2.10529 31.466 2.25759 31.4708 2.49318C31.4755 2.72877 31.4814 2.87631 31.4885 2.9358C31.5215 2.73591 31.5805 2.5491 31.6655 2.37538C31.7127 2.27782 31.774 2.20048 31.8496 2.14336C31.9275 2.08387 32.0101 2.05413 32.0974 2.05413C32.1871 2.05413 32.2685 2.09458 32.3417 2.17549C32.4172 2.25402 32.455 2.32541 32.455 2.38966C32.455 2.41346 32.4408 2.4325 32.4125 2.44677C32.3841 2.45867 32.3523 2.46462 32.3169 2.46462C32.2838 2.46462 32.2579 2.45153 32.239 2.42536C32.2201 2.39918 32.2071 2.37062 32.2001 2.33969C32.193 2.30637 32.1776 2.27663 32.154 2.25045C32.1304 2.22427 32.0986 2.21118 32.0584 2.21118C31.9522 2.21118 31.8614 2.30756 31.7858 2.50032C31.6702 2.78826 31.6124 3.11309 31.6124 3.4748Z" fill="white"/>
<path d="M33.7614 1.17602C33.7637 1.3426 33.7649 1.46753 33.7649 1.55082C33.7649 1.63173 33.7637 1.71264 33.7614 1.79355C33.7614 1.87446 33.7578 2.03152 33.7508 2.26473C33.7437 2.49556 33.739 2.67879 33.7366 2.81444C33.8263 2.75256 33.9337 2.65738 34.0588 2.52887C34.1839 2.39799 34.2971 2.28615 34.3986 2.19334C34.5591 2.04818 34.6736 2.00415 34.742 2.06126C34.768 2.08268 34.7763 2.10291 34.7668 2.12195C34.7432 2.17192 34.6889 2.2326 34.604 2.30399C34.5214 2.37538 34.4234 2.45629 34.3101 2.54672C34.1968 2.63715 34.1071 2.72044 34.0411 2.79659C34.2134 2.82039 34.3514 2.91795 34.4553 3.08929C34.5001 3.16782 34.5438 3.24635 34.5863 3.32488C34.6948 3.53191 34.8128 3.67232 34.9403 3.74609C34.8931 3.79368 34.8388 3.81748 34.7774 3.81748C34.7161 3.81748 34.6547 3.78773 34.5933 3.72824C34.5343 3.66875 34.4824 3.59617 34.4376 3.5105C34.3951 3.42483 34.3514 3.33916 34.3066 3.25349C34.2051 3.04646 34.0871 2.94294 33.9526 2.94294C33.8888 2.94294 33.8346 2.96436 33.7897 3.00719C33.7449 3.04765 33.7224 3.09048 33.7224 3.13569C33.7224 3.42126 33.7177 3.63305 33.7083 3.77107C33.6752 3.81629 33.6398 3.83889 33.6021 3.83889C33.5903 3.83889 33.5773 3.83651 33.5631 3.83175C33.5112 3.81034 33.4852 3.76631 33.4852 3.69968C33.4876 3.63305 33.4947 3.43078 33.5065 3.09286C33.5324 2.22903 33.5454 1.67694 33.5454 1.4366C33.5454 1.32475 33.5561 1.24979 33.5773 1.21171C33.6009 1.17364 33.628 1.1546 33.6587 1.1546C33.6918 1.1546 33.726 1.16174 33.7614 1.17602Z" fill="white"/>
<path d="M35.3958 1.19744C35.3935 1.25217 35.3923 1.31285 35.3923 1.37948C35.3923 1.44611 35.3958 1.51513 35.4029 1.58652C35.3699 1.62459 35.325 1.64363 35.2684 1.64363C35.1976 1.64363 35.1622 1.58652 35.1622 1.47229C35.1622 1.46753 35.1622 1.44968 35.1622 1.41875C35.1622 1.38781 35.1622 1.36045 35.1622 1.33665C35.1645 1.31047 35.1693 1.28073 35.1763 1.24741C35.1929 1.1903 35.2294 1.16174 35.2861 1.16174C35.3427 1.16174 35.3793 1.17364 35.3958 1.19744ZM35.1693 2.94651C35.1693 2.48009 35.1929 2.21118 35.2401 2.13979C35.2566 2.11362 35.2766 2.10053 35.3003 2.10053C35.3239 2.10053 35.3628 2.11362 35.4171 2.13979C35.4053 2.34207 35.3994 2.56219 35.3994 2.80016C35.3994 2.80016 35.4017 3.06311 35.4065 3.58903C35.4065 3.6628 35.3899 3.71515 35.3569 3.74609C35.3262 3.77464 35.2967 3.78892 35.2684 3.78892C35.2424 3.78892 35.2153 3.78178 35.187 3.7675C35.1752 3.45814 35.1693 3.18448 35.1693 2.94651Z" fill="white"/>
<path d="M37.1843 0.965416C37.0947 1.78403 37.0498 2.36824 37.0498 2.71806C37.0498 3.06549 37.0817 3.41293 37.1454 3.76036C37.0982 3.80796 37.0569 3.83175 37.0215 3.83175C36.9861 3.83175 36.9566 3.827 36.933 3.81748C36.8834 3.64138 36.8539 3.44981 36.8445 3.24278C36.7878 3.33321 36.7454 3.39746 36.717 3.43554C36.6911 3.47361 36.6451 3.52953 36.579 3.6033C36.4586 3.74609 36.3158 3.81748 36.1506 3.81748C36.0255 3.81748 35.9346 3.75917 35.878 3.64257C35.8237 3.52358 35.7966 3.37247 35.7966 3.18924C35.7966 3.00362 35.8166 2.82752 35.8568 2.66095C35.8992 2.49199 35.9712 2.34683 36.0727 2.22546C36.1742 2.10172 36.2993 2.03985 36.448 2.03985C36.5377 2.03985 36.6203 2.05888 36.6958 2.09696C36.7713 2.13503 36.8232 2.1862 36.8516 2.25045C36.8563 2.1862 36.861 2.08744 36.8657 1.95418C36.8704 1.82092 36.8752 1.70312 36.8799 1.60079C36.887 1.49609 36.8976 1.39019 36.9117 1.28311C36.9377 1.05465 36.9955 0.94043 37.0852 0.94043C37.1159 0.94043 37.1489 0.948759 37.1843 0.965416ZM36.7701 2.37895C36.7418 2.3266 36.7029 2.28852 36.6533 2.26473C36.6038 2.23855 36.5377 2.22546 36.4551 2.22546C36.3748 2.22546 36.2993 2.27187 36.2285 2.36467C36.0892 2.54791 36.0196 2.81325 36.0196 3.16068C36.0196 3.27253 36.0373 3.38437 36.0727 3.49622C36.1081 3.60568 36.16 3.66042 36.2285 3.66042C36.3276 3.66042 36.4244 3.59498 36.5188 3.46409C36.6132 3.33321 36.6864 3.18329 36.7383 3.01433C36.7902 2.84299 36.8162 2.6895 36.8162 2.55386C36.8162 2.48961 36.8008 2.43131 36.7701 2.37895Z" fill="white"/>
<path d="M38.4151 2.3968C38.3939 2.34207 38.3538 2.29923 38.2948 2.2683C38.2358 2.23736 38.1626 2.22189 38.0753 2.22189C37.9879 2.22189 37.9053 2.24807 37.8275 2.30042C37.7519 2.35278 37.7142 2.42298 37.7142 2.51103C37.7142 2.59907 37.7496 2.66928 37.8204 2.72163C37.8935 2.7716 37.9809 2.80968 38.0824 2.83585C38.1862 2.86203 38.29 2.89059 38.3939 2.92152C38.4977 2.95008 38.5851 2.99886 38.6559 3.06787C38.729 3.1345 38.7656 3.22255 38.7656 3.33202C38.7656 3.49146 38.6995 3.61282 38.5674 3.69611C38.4376 3.7794 38.2806 3.82105 38.0965 3.82105C37.9879 3.82105 37.8452 3.7913 37.6681 3.73181C37.4935 3.67232 37.4062 3.60092 37.4062 3.51764C37.4062 3.45576 37.4581 3.42483 37.5619 3.42483C37.5926 3.42483 37.6327 3.44386 37.6823 3.48194C37.8334 3.59379 37.9879 3.64971 38.1461 3.64971C38.231 3.64971 38.3042 3.63543 38.3656 3.60687C38.4789 3.55214 38.5355 3.46409 38.5355 3.34273C38.5355 3.26896 38.4989 3.20947 38.4258 3.16425C38.3549 3.11904 38.2676 3.08334 38.1638 3.05716C38.0623 3.03099 37.9596 3.00243 37.8558 2.9715C37.7519 2.94056 37.6634 2.8894 37.5903 2.81801C37.5195 2.74424 37.4841 2.65143 37.4841 2.53958C37.4841 2.39442 37.549 2.27663 37.6788 2.1862C37.8086 2.09577 37.9691 2.05056 38.1602 2.05056C38.29 2.05056 38.4069 2.08506 38.5107 2.15407C38.6169 2.2207 38.67 2.31827 38.67 2.44677C38.67 2.53244 38.6216 2.57528 38.5249 2.57528C38.4848 2.57528 38.4576 2.56814 38.4435 2.55386C38.4317 2.53958 38.4246 2.5146 38.4222 2.4789C38.4222 2.44083 38.4199 2.41346 38.4151 2.3968Z" fill="white"/>
</svg>
