<svg width="48" height="6" viewBox="0 0 48 6" fill="none" xmlns="http://www.w3.org/2000/svg">
<path d="M0.600332 2.73996C0.600332 2.28132 0.581379 1.87706 0.543472 1.5272C0.543472 1.43606 0.581379 1.35668 0.657192 1.28906C0.733006 1.22144 0.833604 1.16999 0.958988 1.13471C1.20976 1.07002 1.48531 1.03768 1.78564 1.03768C2.17346 1.03768 2.47817 1.12442 2.69978 1.29788C2.9243 1.4684 3.03656 1.73153 3.03656 2.08728C3.03656 2.44302 2.89369 2.7282 2.60793 2.94282C2.32217 3.15745 1.97372 3.26476 1.56258 3.26476C1.35263 3.26476 1.13248 3.22066 0.902128 3.13246C0.887548 3.27358 0.880259 3.46468 0.880259 3.70576L0.884632 3.92186C0.884632 3.99242 0.883174 4.06592 0.880259 4.14236C0.865679 4.16294 0.849642 4.17764 0.832146 4.18646C0.814651 4.19528 0.801529 4.20116 0.792782 4.2041C0.78695 4.20998 0.776744 4.21439 0.762165 4.21733C0.747585 4.22027 0.737379 4.22174 0.731548 4.22174C0.714052 4.22762 0.693641 4.23056 0.670314 4.23056H0.595958C0.590127 4.01006 0.587211 3.8116 0.587211 3.6352L0.600332 2.73996ZM0.89338 2.81493C1.10624 2.959 1.36138 3.03103 1.6588 3.03103C1.95622 3.02809 2.20699 2.93547 2.41111 2.75319C2.61522 2.56797 2.71727 2.34159 2.71727 2.07405C2.71727 1.8065 2.6123 1.60658 2.40236 1.47428C2.19241 1.34198 1.94019 1.27583 1.64568 1.27583C1.35409 1.27583 1.09604 1.34345 0.871511 1.47869C0.88609 1.66979 0.89338 2.11521 0.89338 2.81493Z" fill="white"/>
<path d="M3.83653 3.72781L3.84966 3.97919C3.84966 4.04387 3.8307 4.08944 3.7928 4.1159C3.75781 4.13942 3.72136 4.15118 3.68345 4.15118C3.64846 4.15118 3.61201 4.1453 3.5741 4.13354C3.50995 3.79249 3.46038 3.36766 3.42539 2.85903C3.39332 2.35041 3.37436 2.06229 3.36853 1.99466C3.41227 1.9535 3.45747 1.93292 3.50412 1.93292C3.55369 1.93292 3.59743 1.9388 3.63534 1.95056C3.647 2.03582 3.65575 2.22399 3.66158 2.51505C3.66741 2.80611 3.6747 2.9884 3.68345 3.0619C3.72427 2.81493 3.79717 2.58414 3.90214 2.36952C3.96046 2.24898 4.03627 2.15343 4.12958 2.08287C4.22581 2.00936 4.32786 1.97261 4.43575 1.97261C4.54656 1.97261 4.64715 2.02259 4.73755 2.12256C4.83086 2.21958 4.87751 2.30778 4.87751 2.38716C4.87751 2.41656 4.86001 2.44008 4.82502 2.45772C4.79003 2.47242 4.75067 2.47977 4.70693 2.47977C4.66611 2.47977 4.63403 2.4636 4.61071 2.43126C4.58738 2.39892 4.57134 2.36364 4.56259 2.32542C4.55385 2.28426 4.53489 2.24751 4.50573 2.21517C4.47657 2.18283 4.43721 2.16666 4.38764 2.16666C4.25642 2.16666 4.14416 2.28573 4.05085 2.52387C3.90797 2.87961 3.83653 3.28093 3.83653 3.72781Z" fill="white"/>
<path d="M5.28223 2.32983C5.43094 2.10051 5.64526 1.98584 5.92518 1.98584C6.20511 1.98584 6.42818 2.10051 6.59438 2.32983C6.7635 2.55915 6.84806 2.82081 6.84806 3.11482C6.84806 3.40588 6.75621 3.65284 6.57251 3.8557C6.38881 4.05857 6.15554 4.16 5.8727 4.16C5.58986 4.16 5.38428 4.08062 5.25598 3.92186C5.12769 3.76015 5.06354 3.53377 5.06354 3.24271C5.06354 2.86344 5.13643 2.55915 5.28223 2.32983ZM5.47468 2.56356C5.43677 2.67822 5.40761 2.79288 5.3872 2.90754C5.3697 3.02221 5.36096 3.12952 5.36096 3.22948C5.36096 3.3265 5.36825 3.41617 5.38283 3.49849C5.39741 3.57787 5.42219 3.65725 5.45718 3.73663C5.49217 3.81307 5.54466 3.87481 5.61464 3.92186C5.68462 3.96596 5.76773 3.98801 5.86395 3.98801C6.05931 3.98801 6.2226 3.90716 6.35382 3.74545C6.48795 3.58375 6.55502 3.38824 6.55502 3.15892C6.55502 2.92959 6.49378 2.70762 6.37132 2.493C6.25176 2.27544 6.10451 2.16666 5.92956 2.16666C5.82458 2.16666 5.73273 2.20341 5.654 2.27691C5.57528 2.35041 5.5155 2.44596 5.47468 2.56356Z" fill="white"/>
<path d="M7.05507 2.03877C7.08131 1.9829 7.13817 1.95497 7.22565 1.95497C7.26356 1.95497 7.29563 1.96379 7.32188 1.98143C7.40352 2.20782 7.48371 2.43567 7.56244 2.66499C7.71115 3.08542 7.84965 3.41764 7.97795 3.66166C8.03919 3.30298 8.15728 2.94135 8.33223 2.57679C8.5101 2.21223 8.67194 2.02995 8.81773 2.02995C8.86147 2.02995 8.90521 2.04024 8.94895 2.06082C8.61362 2.50476 8.37306 3.09277 8.22726 3.82483C8.1981 3.99536 8.16603 4.09238 8.13104 4.1159C8.09313 4.14236 8.05377 4.15559 8.01294 4.15559C7.97212 4.15559 7.94005 4.14677 7.91672 4.12913C7.89631 4.11149 7.88027 4.09385 7.86861 4.07621C7.85986 4.05857 7.84674 4.02917 7.82924 3.98801C7.81466 3.94685 7.803 3.91892 7.79425 3.90422C7.49683 3.34267 7.25044 2.72085 7.05507 2.03877Z" fill="white"/>
<path d="M9.536 0.914203C9.53308 0.981824 9.53163 1.05679 9.53163 1.13912C9.53163 1.22144 9.536 1.3067 9.54475 1.3949C9.50392 1.44194 9.44852 1.46546 9.37854 1.46546C9.29106 1.46546 9.24733 1.3949 9.24733 1.25378C9.24733 1.2479 9.24733 1.22585 9.24733 1.18763C9.24733 1.14941 9.24733 1.1156 9.24733 1.08619C9.25024 1.05385 9.25607 1.0171 9.26482 0.975944C9.28523 0.905383 9.33043 0.870102 9.40041 0.870102C9.47039 0.870102 9.51559 0.884803 9.536 0.914203ZM9.25607 3.07513C9.25607 2.49888 9.28523 2.16666 9.34355 2.07846C9.36396 2.04612 9.38875 2.02995 9.4179 2.02995C9.44706 2.02995 9.49518 2.04612 9.56224 2.07846C9.54766 2.32836 9.54037 2.60031 9.54037 2.89431C9.54037 2.89431 9.54329 3.21919 9.54912 3.86893C9.54912 3.96008 9.52871 4.02476 9.48789 4.06298C9.44998 4.09826 9.41353 4.1159 9.37854 4.1159C9.34647 4.1159 9.31293 4.10708 9.27794 4.08944C9.26336 3.70723 9.25607 3.36913 9.25607 3.07513Z" fill="white"/>
<path d="M11.7456 0.62755C11.6348 1.63892 11.5794 2.3607 11.5794 2.79288C11.5794 3.22213 11.6188 3.65137 11.6975 4.08062C11.6392 4.13942 11.5882 4.16882 11.5444 4.16882C11.5007 4.16882 11.4643 4.16294 11.4351 4.15118C11.3739 3.93362 11.3374 3.69694 11.3258 3.44116C11.2558 3.55288 11.2033 3.63226 11.1683 3.6793C11.1362 3.72634 11.0794 3.79543 10.9977 3.88658C10.849 4.06298 10.6726 4.15118 10.4685 4.15118C10.3139 4.15118 10.2017 4.07915 10.1317 3.93509C10.0646 3.78808 10.0311 3.60139 10.0311 3.37501C10.0311 3.14569 10.0559 2.92812 10.1055 2.72232C10.1579 2.51358 10.2469 2.33424 10.3723 2.1843C10.4976 2.03142 10.6522 1.95497 10.8359 1.95497C10.9467 1.95497 11.0487 1.97849 11.1421 2.02553C11.2354 2.07258 11.2995 2.13579 11.3345 2.21517C11.3403 2.13579 11.3462 2.01377 11.352 1.84913C11.3578 1.68449 11.3637 1.53896 11.3695 1.41254C11.3782 1.28318 11.3914 1.15235 11.4089 1.02004C11.4409 0.737801 11.5124 0.59668 11.6232 0.59668C11.6611 0.59668 11.7019 0.60697 11.7456 0.62755ZM11.2339 2.37393C11.1989 2.30925 11.1508 2.26221 11.0896 2.23281C11.0283 2.20047 10.9467 2.1843 10.8446 2.1843C10.7455 2.1843 10.6522 2.24163 10.5647 2.35629C10.3927 2.58267 10.3066 2.91048 10.3066 3.33973C10.3066 3.47791 10.3285 3.61609 10.3723 3.75427C10.416 3.88952 10.4801 3.95714 10.5647 3.95714C10.6872 3.95714 10.8067 3.87628 10.9234 3.71458C11.04 3.55288 11.1304 3.36766 11.1945 3.15892C11.2587 2.94724 11.2908 2.7576 11.2908 2.59002C11.2908 2.51064 11.2718 2.43861 11.2339 2.37393Z" fill="white"/>
<path d="M12.4789 0.914203C12.476 0.981824 12.4746 1.05679 12.4746 1.13912C12.4746 1.22144 12.4789 1.3067 12.4877 1.3949C12.4469 1.44194 12.3915 1.46546 12.3215 1.46546C12.234 1.46546 12.1903 1.3949 12.1903 1.25378C12.1903 1.2479 12.1903 1.22585 12.1903 1.18763C12.1903 1.14941 12.1903 1.1156 12.1903 1.08619C12.1932 1.05385 12.199 1.0171 12.2078 0.975944C12.2282 0.905383 12.2734 0.870102 12.3434 0.870102C12.4133 0.870102 12.4585 0.884803 12.4789 0.914203ZM12.199 3.07513C12.199 2.49888 12.2282 2.16666 12.2865 2.07846C12.3069 2.04612 12.3317 2.02995 12.3609 2.02995C12.39 2.02995 12.4381 2.04612 12.5052 2.07846C12.4906 2.32836 12.4833 2.60031 12.4833 2.89431C12.4833 2.89431 12.4862 3.21919 12.4921 3.86893C12.4921 3.96008 12.4717 4.02476 12.4308 4.06298C12.3929 4.09826 12.3565 4.1159 12.3215 4.1159C12.2894 4.1159 12.2559 4.10708 12.2209 4.08944C12.2063 3.70723 12.199 3.36913 12.199 3.07513Z" fill="white"/>
<path d="M14.8417 4.03652C14.7892 4.09238 14.7294 4.12031 14.6624 4.12031C14.537 4.12031 14.4437 4.05269 14.3824 3.91745C14.3212 3.7822 14.2847 3.61756 14.2731 3.42352C14.2643 3.22948 14.2585 3.03544 14.2556 2.84139C14.2527 2.64735 14.2366 2.48271 14.2075 2.34747C14.1812 2.21223 14.1302 2.14461 14.0544 2.14461C13.9523 2.14461 13.8649 2.23722 13.792 2.42244C13.722 2.60766 13.6724 2.81346 13.6432 3.03985C13.5616 3.67195 13.4829 4.02623 13.4071 4.10267C13.3546 4.12913 13.3094 4.14236 13.2715 4.14236C13.2336 4.14236 13.2015 4.13795 13.1752 4.12913C13.114 3.85864 13.0746 3.39265 13.0572 2.73114C13.0513 2.40186 13.0455 2.18871 13.0397 2.09169C13.1009 2.05053 13.1534 2.02995 13.1971 2.02995C13.2409 2.02995 13.2758 2.03436 13.3021 2.04318C13.3167 2.1696 13.324 2.42832 13.324 2.81934C13.3269 3.21037 13.3298 3.43528 13.3327 3.49408C13.3473 3.43234 13.3648 3.33238 13.3852 3.1942C13.4085 3.05602 13.4289 2.94282 13.4464 2.85462C13.4639 2.76348 13.4916 2.65764 13.5295 2.5371C13.5674 2.41656 13.6097 2.32101 13.6564 2.25045C13.703 2.17695 13.7672 2.11521 13.8488 2.06523C13.9305 2.0123 14.0223 1.98584 14.1244 1.98584C14.2614 1.98584 14.3606 2.04906 14.4218 2.17548C14.4859 2.29896 14.5209 2.45331 14.5268 2.63853C14.5326 2.82375 14.5355 3.01192 14.5355 3.20302C14.5384 3.39412 14.5618 3.56905 14.6055 3.72781C14.6521 3.88658 14.7309 3.98948 14.8417 4.03652Z" fill="white"/>
<path d="M15.8896 1.95497C16.1549 1.95497 16.3386 2.06376 16.4407 2.28132C16.4961 2.39598 16.5413 2.50476 16.5763 2.60766C16.6113 2.71056 16.6346 2.85168 16.6463 3.03103C16.6638 3.30445 16.6725 3.61609 16.6725 3.96596C16.6725 4.31288 16.5894 4.58924 16.4232 4.79504C16.2599 5.00379 16.0194 5.10816 15.7015 5.10816C15.3866 5.10816 15.1242 5.00526 14.9142 4.79945C14.9725 4.74065 15.0352 4.71125 15.1023 4.71125C15.1723 4.71125 15.267 4.74065 15.3866 4.79945C15.5091 4.8612 15.6388 4.89207 15.7759 4.89207C15.9129 4.89207 16.0266 4.85973 16.117 4.79504C16.2074 4.7333 16.2745 4.6451 16.3182 4.53044C16.3911 4.32758 16.4276 4.07768 16.4276 3.78073C16.4276 3.73663 16.4232 3.57346 16.4145 3.29122C16.3357 3.5323 16.2235 3.73222 16.0777 3.89099C15.9319 4.04681 15.7671 4.12472 15.5834 4.12472C15.3997 4.12472 15.2641 4.0424 15.1767 3.87776C15.0921 3.71017 15.0498 3.52054 15.0498 3.30886C15.0498 3.09718 15.079 2.89137 15.1373 2.69145C15.1956 2.48859 15.2904 2.31513 15.4216 2.17107C15.5528 2.02701 15.7088 1.95497 15.8896 1.95497ZM15.426 2.6253C15.3881 2.75466 15.3604 2.87667 15.3429 2.99134C15.3254 3.106 15.3166 3.22213 15.3166 3.33973C15.3166 3.45439 15.3399 3.58228 15.3866 3.7234C15.4362 3.86452 15.5076 3.93509 15.6009 3.93509C15.7846 3.93509 15.9479 3.7969 16.0908 3.52054C16.2337 3.24124 16.3051 2.96047 16.3051 2.67822C16.3051 2.5812 16.2599 2.47242 16.1695 2.35188C16.082 2.2284 15.9712 2.16666 15.8371 2.16666C15.7438 2.16666 15.6607 2.21076 15.5878 2.29896C15.5178 2.38716 15.4639 2.49594 15.426 2.6253Z" fill="white"/>
<path d="M19.9459 4.03652C19.8934 4.09238 19.8337 4.12031 19.7666 4.12031C19.6412 4.12031 19.5479 4.05269 19.4867 3.91745C19.4254 3.7822 19.389 3.61756 19.3773 3.42352C19.3686 3.22948 19.3627 3.03544 19.3598 2.84139C19.3569 2.64735 19.3409 2.48271 19.3117 2.34747C19.2855 2.21223 19.2344 2.14461 19.1586 2.14461C19.0566 2.14461 18.9691 2.23722 18.8962 2.42244C18.8262 2.60766 18.7767 2.81346 18.7475 3.03985C18.6658 3.67195 18.5871 4.02623 18.5113 4.10267C18.4588 4.12913 18.4136 4.14236 18.3757 4.14236C18.3378 4.14236 18.3057 4.13795 18.2795 4.12913C18.2183 3.85864 18.1789 3.39265 18.1614 2.73114C18.1556 2.40186 18.1497 2.18871 18.1439 2.09169C18.2051 2.05053 18.2576 2.02995 18.3014 2.02995C18.3451 2.02995 18.3801 2.03436 18.4063 2.04318C18.4209 2.1696 18.4282 2.42832 18.4282 2.81934C18.4311 3.21037 18.434 3.43528 18.4369 3.49408C18.4515 3.43234 18.469 3.33238 18.4894 3.1942C18.5128 3.05602 18.5332 2.94282 18.5507 2.85462C18.5682 2.76348 18.5959 2.65764 18.6338 2.5371C18.6717 2.41656 18.714 2.32101 18.7606 2.25045C18.8073 2.17695 18.8714 2.11521 18.9531 2.06523C19.0347 2.0123 19.1266 1.98584 19.2286 1.98584C19.3657 1.98584 19.4648 2.04906 19.526 2.17548C19.5902 2.29896 19.6252 2.45331 19.631 2.63853C19.6368 2.82375 19.6398 3.01192 19.6398 3.20302C19.6427 3.39412 19.666 3.56905 19.7097 3.72781C19.7564 3.88658 19.8351 3.98948 19.9459 4.03652Z" fill="white"/>
<path d="M20.4515 3.26476C20.4456 3.32356 20.4427 3.36325 20.4427 3.38383C20.4427 3.56023 20.4952 3.69694 20.6002 3.79396C20.7081 3.89099 20.8349 3.9395 20.9807 3.9395C21.1265 3.9395 21.2446 3.91892 21.335 3.87776C21.4283 3.83659 21.4954 3.79249 21.5362 3.74545C21.6412 3.61315 21.7374 3.547 21.8249 3.547C21.8569 3.547 21.8949 3.55582 21.9386 3.57346C21.9094 3.71752 21.7986 3.84982 21.6062 3.97037C21.4166 4.08797 21.1775 4.14677 20.8889 4.14677C20.6848 4.14677 20.5083 4.08209 20.3596 3.95273C20.2138 3.82042 20.1409 3.64108 20.1409 3.4147C20.1409 3.18832 20.1847 2.96929 20.2722 2.7576C20.3625 2.54298 20.4908 2.3607 20.6571 2.21076C20.8262 2.05788 20.9968 1.98143 21.1688 1.98143C21.3437 1.98143 21.4837 2.01818 21.5887 2.09169C21.6966 2.16225 21.7505 2.26662 21.7505 2.4048C21.7505 2.66058 21.6368 2.87226 21.4094 3.03985C21.1848 3.20449 20.9457 3.28681 20.692 3.28681C20.625 3.28681 20.5448 3.27946 20.4515 3.26476ZM20.7839 3.11923C20.9209 3.11923 21.0434 3.07513 21.1513 2.98693C21.2592 2.89872 21.335 2.80611 21.3787 2.70909C21.4254 2.61207 21.4487 2.52387 21.4487 2.44449C21.4487 2.36511 21.4181 2.29602 21.3569 2.23722C21.2956 2.17548 21.2242 2.14461 21.1425 2.14461C20.9968 2.14461 20.8612 2.24604 20.7358 2.4489C20.6133 2.65176 20.5258 2.86197 20.4733 3.07954C20.6016 3.106 20.7052 3.11923 20.7839 3.11923Z" fill="white"/>
<path d="M23.4723 3.64843C23.4257 3.78367 23.3353 3.89834 23.2011 3.99242C23.0699 4.0865 22.9256 4.13354 22.7681 4.13354C22.6136 4.13354 22.4926 4.05563 22.4051 3.89981C22.3205 3.74104 22.2782 3.52201 22.2782 3.24271C22.2782 2.45478 22.3934 2.06082 22.6238 2.06082C22.6529 2.06082 22.6894 2.06523 22.7331 2.07405C22.7244 2.12109 22.704 2.21076 22.6719 2.34306C22.6077 2.60178 22.5757 2.82963 22.5757 3.02662C22.5757 3.2236 22.6034 3.43234 22.6588 3.65284C22.7142 3.8704 22.7929 3.97919 22.895 3.97919C22.9474 3.97919 22.9985 3.94538 23.048 3.87776C23.0976 3.81013 23.137 3.73957 23.1661 3.66607C23.1953 3.58963 23.2259 3.5029 23.258 3.40588C23.2901 3.30886 23.3105 3.25006 23.3192 3.22948C23.2755 3.05896 23.2536 2.88549 23.2536 2.70909C23.2536 2.70027 23.2536 2.67381 23.2536 2.62971C23.2536 2.58267 23.2551 2.5371 23.258 2.493C23.2609 2.4489 23.2697 2.39598 23.2842 2.33424C23.3134 2.21076 23.3921 2.14902 23.5204 2.14902C23.6283 2.14902 23.6823 2.31366 23.6823 2.64294C23.6823 2.70174 23.6735 2.787 23.656 2.89872C23.6414 3.01045 23.6341 3.08836 23.6341 3.13246C23.6341 3.2677 23.6983 3.44263 23.8266 3.65725C23.9549 3.87187 24.0744 3.97919 24.1852 3.97919C24.299 3.97919 24.3821 3.91451 24.4346 3.78514C24.487 3.65578 24.5133 3.51172 24.5133 3.35296C24.5133 3.17068 24.4972 3.0325 24.4652 2.93841C24.436 2.84139 24.4171 2.77818 24.4083 2.74878C24.4025 2.71938 24.3835 2.67381 24.3514 2.61207C24.3223 2.54739 24.3033 2.50623 24.2946 2.48859C24.2888 2.47095 24.2669 2.42832 24.229 2.3607C24.1911 2.29308 24.1692 2.25486 24.1634 2.24604C24.0788 2.0961 24.0292 2.01377 24.0147 1.99907C24.0876 1.93733 24.1546 1.90646 24.2159 1.90646C24.3937 2.03583 24.5351 2.24751 24.6401 2.54151C24.7451 2.83257 24.7976 3.09865 24.7976 3.33973C24.7976 3.57787 24.7466 3.76603 24.6445 3.90422C24.5454 4.03946 24.3894 4.10708 24.1765 4.10708C24.0278 4.10708 23.8864 4.06592 23.7522 3.9836C23.621 3.89834 23.5277 3.78661 23.4723 3.64843Z" fill="white"/>
<path d="M26.2736 0.989174C26.3086 0.924493 26.3727 0.892153 26.466 0.892153C26.4864 0.892153 26.5069 0.895093 26.5273 0.900973C26.5331 1.05679 26.536 1.49192 26.536 2.20635C26.5389 2.20341 26.5521 2.19018 26.5754 2.16666C26.6016 2.14314 26.6177 2.12844 26.6235 2.12256C26.6293 2.11668 26.6439 2.10345 26.6672 2.08287C26.6906 2.05935 26.7081 2.04465 26.7197 2.03877C26.7343 2.02994 26.7532 2.01818 26.7766 2.00348C26.7999 1.98584 26.8203 1.97408 26.8378 1.9682C26.8553 1.95938 26.8757 1.95056 26.899 1.94174C26.9428 1.92704 26.9938 1.91969 27.0521 1.91969C27.2679 1.91969 27.4414 2.01083 27.5726 2.19312C27.7038 2.37246 27.7694 2.57385 27.7694 2.79729C27.7694 3.02074 27.7359 3.23389 27.6688 3.43675C27.6018 3.63667 27.4983 3.8116 27.3583 3.96155C27.2183 4.11149 27.055 4.18646 26.8684 4.18646C26.6847 4.18646 26.5302 4.11737 26.4048 3.97919C26.2823 3.841 26.2211 3.68371 26.2211 3.50731C26.2211 3.32797 26.2313 2.99869 26.2517 2.51946C26.2721 2.0373 26.2823 1.69184 26.2823 1.4831C26.2823 1.27142 26.2794 1.10678 26.2736 0.989174ZM26.899 3.97037C27.0128 3.97037 27.1148 3.91598 27.2052 3.80719C27.3889 3.59257 27.4808 3.28828 27.4808 2.89431C27.4808 2.68263 27.4399 2.49594 27.3583 2.33424C27.2767 2.1696 27.1615 2.08728 27.0128 2.08728C26.9282 2.08728 26.8538 2.12991 26.7897 2.21517C26.7255 2.29749 26.676 2.40774 26.641 2.54592C26.5739 2.80758 26.5404 3.09865 26.5404 3.41911C26.5404 3.68959 26.5958 3.8557 26.7066 3.91745C26.7562 3.94685 26.8203 3.96449 26.899 3.97037Z" fill="white"/>
<path d="M28.4218 3.26476C28.416 3.32356 28.413 3.36325 28.413 3.38383C28.413 3.56023 28.4655 3.69694 28.5705 3.79396C28.6784 3.89099 28.8052 3.9395 28.951 3.9395C29.0968 3.9395 29.2149 3.91892 29.3053 3.87776C29.3986 3.83659 29.4657 3.79249 29.5065 3.74545C29.6115 3.61315 29.7077 3.547 29.7952 3.547C29.8273 3.547 29.8652 3.55582 29.9089 3.57346C29.8797 3.71752 29.7689 3.84982 29.5765 3.97037C29.387 4.08797 29.1479 4.14677 28.8592 4.14677C28.6551 4.14677 28.4787 4.08209 28.3299 3.95273C28.1841 3.82042 28.1112 3.64108 28.1112 3.4147C28.1112 3.18832 28.155 2.96929 28.2425 2.7576C28.3329 2.54298 28.4612 2.3607 28.6274 2.21076C28.7965 2.05788 28.9671 1.98143 29.1391 1.98143C29.3141 1.98143 29.454 2.01818 29.559 2.09169C29.6669 2.16225 29.7208 2.26662 29.7208 2.4048C29.7208 2.66058 29.6071 2.87226 29.3797 3.03985C29.1551 3.20449 28.916 3.28681 28.6624 3.28681C28.5953 3.28681 28.5151 3.27946 28.4218 3.26476ZM28.7542 3.11923C28.8913 3.11923 29.0137 3.07513 29.1216 2.98693C29.2295 2.89872 29.3053 2.80611 29.349 2.70909C29.3957 2.61207 29.419 2.52387 29.419 2.44449C29.419 2.36511 29.3884 2.29602 29.3272 2.23722C29.2659 2.17548 29.1945 2.14461 29.1129 2.14461C28.9671 2.14461 28.8315 2.24604 28.7061 2.4489C28.5836 2.65176 28.4961 2.86197 28.4437 3.07954C28.572 3.106 28.6755 3.11923 28.7542 3.11923Z" fill="white"/>
<path d="M31.9106 0.62755C31.7998 1.63892 31.7444 2.3607 31.7444 2.79288C31.7444 3.22213 31.7838 3.65137 31.8625 4.08062C31.8042 4.13942 31.7532 4.16882 31.7094 4.16882C31.6657 4.16882 31.6292 4.16294 31.6001 4.15118C31.5388 3.93362 31.5024 3.69694 31.4907 3.44116C31.4207 3.55288 31.3683 3.63226 31.3333 3.6793C31.3012 3.72634 31.2443 3.79543 31.1627 3.88658C31.014 4.06298 30.8376 4.15118 30.6335 4.15118C30.4789 4.15118 30.3666 4.07915 30.2967 3.93509C30.2296 3.78808 30.1961 3.60139 30.1961 3.37501C30.1961 3.14569 30.2209 2.92812 30.2704 2.72232C30.3229 2.51358 30.4118 2.33424 30.5372 2.1843C30.6626 2.03142 30.8172 1.95497 31.0009 1.95497C31.1117 1.95497 31.2137 1.97849 31.307 2.02553C31.4003 2.07258 31.4645 2.13579 31.4995 2.21517C31.5053 2.13579 31.5111 2.01377 31.517 1.84913C31.5228 1.68449 31.5286 1.53896 31.5345 1.41254C31.5432 1.28318 31.5563 1.15235 31.5738 1.02004C31.6059 0.737801 31.6773 0.59668 31.7881 0.59668C31.8261 0.59668 31.8669 0.60697 31.9106 0.62755ZM31.3989 2.37393C31.3639 2.30925 31.3158 2.26221 31.2545 2.23281C31.1933 2.20047 31.1117 2.1843 31.0096 2.1843C30.9105 2.1843 30.8172 2.24163 30.7297 2.35629C30.5576 2.58267 30.4716 2.91048 30.4716 3.33973C30.4716 3.47791 30.4935 3.61609 30.5372 3.75427C30.581 3.88952 30.6451 3.95714 30.7297 3.95714C30.8521 3.95714 30.9717 3.87628 31.0883 3.71458C31.205 3.55288 31.2954 3.36766 31.3595 3.15892C31.4237 2.94724 31.4557 2.7576 31.4557 2.59002C31.4557 2.51064 31.4368 2.43861 31.3989 2.37393Z" fill="white"/>
<path d="M33.4312 2.39598C33.405 2.32836 33.3554 2.27544 33.2825 2.23722C33.2096 2.199 33.1192 2.17989 33.0113 2.17989C32.9034 2.17989 32.8014 2.21223 32.7052 2.27691C32.6118 2.34159 32.5652 2.42832 32.5652 2.5371C32.5652 2.64588 32.6089 2.73261 32.6964 2.79729C32.7868 2.85903 32.8947 2.90607 33.0201 2.93841C33.1484 2.97076 33.2767 3.00604 33.405 3.04426C33.5333 3.07954 33.6412 3.13981 33.7286 3.22507C33.819 3.30739 33.8642 3.41617 33.8642 3.55141C33.8642 3.74839 33.7826 3.89834 33.6193 4.00124C33.4589 4.10414 33.265 4.15559 33.0376 4.15559C32.9034 4.15559 32.727 4.11884 32.5083 4.04534C32.2926 3.97184 32.1847 3.88363 32.1847 3.78073C32.1847 3.70429 32.2488 3.66607 32.3771 3.66607C32.415 3.66607 32.4646 3.68959 32.5258 3.73663C32.7124 3.87481 32.9034 3.94391 33.0988 3.94391C33.2038 3.94391 33.2942 3.92627 33.37 3.89099C33.5099 3.82336 33.5799 3.71458 33.5799 3.56464C33.5799 3.4735 33.5347 3.4 33.4443 3.34414C33.3569 3.28828 33.249 3.24418 33.1207 3.21184C32.9953 3.1795 32.8684 3.14422 32.7401 3.106C32.6118 3.06778 32.5025 3.00457 32.4121 2.91636C32.3246 2.82522 32.2809 2.71056 32.2809 2.57238C32.2809 2.39304 32.3611 2.24751 32.5215 2.13579C32.6818 2.02407 32.8801 1.9682 33.1163 1.9682C33.2767 1.9682 33.421 2.01083 33.5493 2.0961C33.6805 2.17842 33.7461 2.29896 33.7461 2.45772C33.7461 2.56356 33.6864 2.61648 33.5668 2.61648C33.5172 2.61648 33.4837 2.60766 33.4662 2.59002C33.4516 2.57238 33.4429 2.54151 33.44 2.49741C33.44 2.45037 33.437 2.41656 33.4312 2.39598Z" fill="white"/>
<path d="M35.5531 4.19087C35.5006 4.19087 35.4744 3.74545 35.4744 2.85462C35.4744 2.4783 35.4729 2.25045 35.47 2.17107H35.3825C35.3417 2.17107 35.3096 2.17107 35.2863 2.17107C35.263 2.16813 35.2324 2.16666 35.1945 2.16666C35.1595 2.16372 35.1303 2.15931 35.107 2.15343C35.0866 2.14755 35.0647 2.1402 35.0414 2.13138C34.9976 2.11374 34.9758 2.08287 34.9758 2.03877C34.9758 1.9829 35.0662 1.95497 35.2469 1.95497C35.3257 1.95497 35.3971 1.95791 35.4613 1.96379C35.4642 1.90499 35.4656 1.83002 35.4656 1.73888C35.4686 1.6448 35.4715 1.57277 35.4744 1.52279C35.4773 1.46987 35.4802 1.40666 35.4831 1.33316C35.489 1.25966 35.4963 1.20233 35.505 1.16117C35.5167 1.12001 35.5312 1.07443 35.5487 1.02445C35.5662 0.971534 35.5896 0.931843 35.6187 0.905383C35.6479 0.878923 35.6814 0.852462 35.7193 0.826002C35.7864 0.776021 35.8972 0.751031 36.0517 0.751031C36.2092 0.751031 36.3244 0.790722 36.3973 0.870102C36.4731 0.946543 36.5401 1.07737 36.5985 1.2626C36.5547 1.31552 36.5037 1.34198 36.4454 1.34198C36.425 1.34198 36.4046 1.33904 36.3841 1.33316C36.3317 1.19204 36.2835 1.09649 36.2398 1.0465C36.199 0.996524 36.1421 0.971534 36.0692 0.971534C35.9963 0.971534 35.9409 0.984764 35.903 1.01122C35.868 1.03768 35.8403 1.07149 35.8199 1.11266C35.7762 1.20086 35.7543 1.41401 35.7543 1.75211C35.7543 1.76681 35.7543 1.79327 35.7543 1.83149C35.7543 1.86971 35.7543 1.90499 35.7543 1.93733L36.1261 1.90205C36.2719 1.90205 36.3448 1.93586 36.3448 2.00348C36.3448 2.04759 36.3098 2.07699 36.2398 2.09169C36.1698 2.10639 36.0809 2.11521 35.973 2.11815C35.868 2.12109 35.7951 2.12991 35.7543 2.14461C35.7485 2.22693 35.7456 2.33571 35.7456 2.47095C35.7456 2.60325 35.7529 2.81493 35.7674 3.106C35.782 3.39412 35.7893 3.61462 35.7893 3.7675C35.7893 3.92039 35.7733 4.02917 35.7412 4.09385C35.712 4.15853 35.6493 4.19087 35.5531 4.19087Z" fill="white"/>
<path d="M36.6808 2.32983C36.8295 2.10051 37.0438 1.98584 37.3238 1.98584C37.6037 1.98584 37.8268 2.10051 37.993 2.32983C38.1621 2.55915 38.2467 2.82081 38.2467 3.11482C38.2467 3.40588 38.1548 3.65284 37.9711 3.8557C37.7874 4.05857 37.5541 4.16 37.2713 4.16C36.9884 4.16 36.7829 4.08062 36.6546 3.92186C36.5263 3.76015 36.4621 3.53377 36.4621 3.24271C36.4621 2.86344 36.535 2.55915 36.6808 2.32983ZM36.8733 2.56356C36.8354 2.67822 36.8062 2.79288 36.7858 2.90754C36.7683 3.02221 36.7595 3.12952 36.7595 3.22948C36.7595 3.3265 36.7668 3.41617 36.7814 3.49849C36.796 3.57787 36.8208 3.65725 36.8558 3.73663C36.8908 3.81307 36.9432 3.87481 37.0132 3.92186C37.0832 3.96596 37.1663 3.98801 37.2625 3.98801C37.4579 3.98801 37.6212 3.90716 37.7524 3.74545C37.8865 3.58375 37.9536 3.38824 37.9536 3.15892C37.9536 2.92959 37.8924 2.70762 37.7699 2.493C37.6503 2.27544 37.5031 2.16666 37.3281 2.16666C37.2232 2.16666 37.1313 2.20341 37.0526 2.27691C36.9739 2.35041 36.9141 2.44596 36.8733 2.56356Z" fill="white"/>
<path d="M39.105 3.72781L39.1181 3.97919C39.1181 4.04387 39.0991 4.08944 39.0612 4.1159C39.0262 4.13942 38.9898 4.15118 38.9519 4.15118C38.9169 4.15118 38.8804 4.1453 38.8425 4.13354C38.7784 3.79249 38.7288 3.36766 38.6938 2.85903C38.6617 2.35041 38.6428 2.06229 38.6369 1.99466C38.6807 1.9535 38.7259 1.93292 38.7725 1.93292C38.8221 1.93292 38.8658 1.9388 38.9038 1.95056C38.9154 2.03582 38.9242 2.22399 38.93 2.51505C38.9358 2.80611 38.9431 2.9884 38.9519 3.0619C38.9927 2.81493 39.0656 2.58414 39.1706 2.36952C39.2289 2.24898 39.3047 2.15343 39.398 2.08287C39.4942 2.00936 39.5963 1.97261 39.7042 1.97261C39.815 1.97261 39.9156 2.02259 40.006 2.12256C40.0993 2.21958 40.1459 2.30778 40.1459 2.38716C40.1459 2.41656 40.1284 2.44008 40.0934 2.45772C40.0584 2.47242 40.0191 2.47977 39.9753 2.47977C39.9345 2.47977 39.9024 2.4636 39.8791 2.43126C39.8558 2.39892 39.8398 2.36364 39.831 2.32542C39.8223 2.28426 39.8033 2.24751 39.7741 2.21517C39.745 2.18283 39.7056 2.16666 39.6561 2.16666C39.5248 2.16666 39.4126 2.28573 39.3193 2.52387C39.1764 2.87961 39.105 3.28093 39.105 3.72781Z" fill="white"/>
<path d="M41.76 0.887743C41.7629 1.09354 41.7643 1.2479 41.7643 1.3508C41.7643 1.45076 41.7629 1.55072 41.76 1.65068C41.76 1.75064 41.7556 1.94468 41.7469 2.23281C41.7381 2.51799 41.7323 2.74437 41.7294 2.91195C41.8402 2.83551 41.9728 2.71791 42.1274 2.55915C42.2819 2.39745 42.4219 2.25927 42.5473 2.14461C42.7456 1.96526 42.887 1.91087 42.9715 1.98143C43.0036 2.00789 43.0138 2.03289 43.0021 2.05641C42.973 2.11815 42.9059 2.19312 42.801 2.28132C42.6989 2.36952 42.5779 2.46948 42.4379 2.5812C42.298 2.69292 42.1872 2.79582 42.1055 2.8899C42.3184 2.9193 42.489 3.03985 42.6173 3.25153C42.6727 3.34855 42.7266 3.44557 42.7791 3.54259C42.9132 3.79837 43.059 3.97184 43.2165 4.06298C43.1582 4.12178 43.0911 4.15118 43.0153 4.15118C42.9395 4.15118 42.8636 4.11443 42.7878 4.04093C42.7149 3.96743 42.6508 3.87775 42.5954 3.77191C42.5429 3.66607 42.489 3.56023 42.4336 3.45439C42.3082 3.19861 42.1624 3.07072 41.9962 3.07072C41.9174 3.07072 41.8504 3.09718 41.795 3.1501C41.7396 3.20008 41.7119 3.253 41.7119 3.30886C41.7119 3.66166 41.706 3.92333 41.6944 4.09385C41.6535 4.14971 41.6098 4.17764 41.5632 4.17764C41.5486 4.17764 41.5325 4.1747 41.515 4.16882C41.4509 4.14236 41.4188 4.08797 41.4188 4.00565C41.4217 3.92333 41.4305 3.67342 41.4451 3.25594C41.4771 2.18871 41.4932 1.50662 41.4932 1.20968C41.4932 1.07149 41.5063 0.978884 41.5325 0.931843C41.5617 0.884803 41.5952 0.861282 41.6331 0.861282C41.674 0.861282 41.7162 0.870103 41.76 0.887743Z" fill="white"/>
<path d="M43.7793 0.914203C43.7764 0.981824 43.7749 1.05679 43.7749 1.13912C43.7749 1.22144 43.7793 1.3067 43.788 1.3949C43.7472 1.44194 43.6918 1.46546 43.6218 1.46546C43.5344 1.46546 43.4906 1.3949 43.4906 1.25378C43.4906 1.2479 43.4906 1.22585 43.4906 1.18763C43.4906 1.14941 43.4906 1.1156 43.4906 1.08619C43.4935 1.05385 43.4994 1.0171 43.5081 0.975944C43.5285 0.905383 43.5737 0.870102 43.6437 0.870102C43.7137 0.870102 43.7589 0.884803 43.7793 0.914203ZM43.4994 3.07513C43.4994 2.49888 43.5285 2.16666 43.5868 2.07846C43.6073 2.04612 43.632 2.02995 43.6612 2.02995C43.6904 2.02995 43.7385 2.04612 43.8055 2.07846C43.791 2.32836 43.7837 2.60031 43.7837 2.89431C43.7837 2.89431 43.7866 3.21919 43.7924 3.86893C43.7924 3.96008 43.772 4.02476 43.7312 4.06298C43.6933 4.09826 43.6568 4.1159 43.6218 4.1159C43.5898 4.1159 43.5562 4.10708 43.5212 4.08944C43.5067 3.70723 43.4994 3.36913 43.4994 3.07513Z" fill="white"/>
<path d="M45.9889 0.62755C45.8781 1.63892 45.8227 2.3607 45.8227 2.79288C45.8227 3.22213 45.8621 3.65137 45.9408 4.08062C45.8825 4.13942 45.8315 4.16882 45.7877 4.16882C45.744 4.16882 45.7076 4.16294 45.6784 4.15118C45.6172 3.93362 45.5807 3.69694 45.5691 3.44116C45.4991 3.55288 45.4466 3.63226 45.4116 3.6793C45.3795 3.72634 45.3227 3.79543 45.241 3.88658C45.0923 4.06298 44.9159 4.15118 44.7118 4.15118C44.5572 4.15118 44.445 4.07915 44.375 3.93509C44.3079 3.78808 44.2744 3.60139 44.2744 3.37501C44.2744 3.14569 44.2992 2.92812 44.3487 2.72232C44.4012 2.51358 44.4902 2.33424 44.6156 2.1843C44.7409 2.03142 44.8955 1.95497 45.0792 1.95497C45.19 1.95497 45.292 1.97849 45.3853 2.02553C45.4787 2.07258 45.5428 2.13579 45.5778 2.21517C45.5836 2.13579 45.5895 2.01377 45.5953 1.84913C45.6011 1.68449 45.607 1.53896 45.6128 1.41254C45.6215 1.28318 45.6347 1.15235 45.6522 1.02004C45.6842 0.737801 45.7557 0.59668 45.8665 0.59668C45.9044 0.59668 45.9452 0.60697 45.9889 0.62755ZM45.4772 2.37393C45.4422 2.30925 45.3941 2.26221 45.3329 2.23281C45.2716 2.20047 45.19 2.1843 45.0879 2.1843C44.9888 2.1843 44.8955 2.24163 44.808 2.35629C44.636 2.58267 44.5499 2.91048 44.5499 3.33973C44.5499 3.47791 44.5718 3.61609 44.6156 3.75427C44.6593 3.88952 44.7234 3.95714 44.808 3.95714C44.9305 3.95714 45.05 3.87628 45.1667 3.71458C45.2833 3.55288 45.3737 3.36766 45.4378 3.15892C45.502 2.94724 45.5341 2.7576 45.5341 2.59002C45.5341 2.51064 45.5151 2.43861 45.4772 2.37393Z" fill="white"/>
<path d="M47.5095 2.39598C47.4833 2.32836 47.4337 2.27544 47.3608 2.23722C47.2879 2.199 47.1975 2.17989 47.0896 2.17989C46.9818 2.17989 46.8797 2.21223 46.7835 2.27691C46.6902 2.34159 46.6435 2.42832 46.6435 2.5371C46.6435 2.64588 46.6873 2.73261 46.7747 2.79729C46.8651 2.85903 46.973 2.90607 47.0984 2.93841C47.2267 2.97076 47.355 3.00604 47.4833 3.04426C47.6116 3.07954 47.7195 3.13981 47.807 3.22507C47.8974 3.30739 47.9425 3.41617 47.9425 3.55141C47.9425 3.74839 47.8609 3.89834 47.6976 4.00124C47.5372 4.10414 47.3433 4.15559 47.1159 4.15559C46.9818 4.15559 46.8053 4.11884 46.5867 4.04534C46.3709 3.97184 46.263 3.88363 46.263 3.78073C46.263 3.70429 46.3271 3.66607 46.4554 3.66607C46.4933 3.66607 46.5429 3.68959 46.6041 3.73663C46.7908 3.87481 46.9818 3.94391 47.1771 3.94391C47.2821 3.94391 47.3725 3.92627 47.4483 3.89099C47.5883 3.82336 47.6582 3.71458 47.6582 3.56464C47.6582 3.4735 47.613 3.4 47.5227 3.34414C47.4352 3.28828 47.3273 3.24418 47.199 3.21184C47.0736 3.1795 46.9468 3.14422 46.8185 3.106C46.6902 3.06778 46.5808 3.00457 46.4904 2.91636C46.4029 2.82522 46.3592 2.71056 46.3592 2.57238C46.3592 2.39304 46.4394 2.24751 46.5998 2.13579C46.7601 2.02407 46.9584 1.9682 47.1946 1.9682C47.355 1.9682 47.4993 2.01083 47.6276 2.0961C47.7588 2.17842 47.8245 2.29896 47.8245 2.45772C47.8245 2.56356 47.7647 2.61648 47.6451 2.61648C47.5956 2.61648 47.562 2.60766 47.5445 2.59002C47.5299 2.57238 47.5212 2.54151 47.5183 2.49741C47.5183 2.45037 47.5154 2.41656 47.5095 2.39598Z" fill="white"/>
</svg>
