<svg width="28" height="4" viewBox="0 0 28 4" fill="none" xmlns="http://www.w3.org/2000/svg">
<path d="M0.967393 1.99961C0.967393 1.74015 0.956671 1.51145 0.935226 1.31353C0.935226 1.26196 0.956671 1.21706 0.99956 1.1788C1.04245 1.14055 1.09936 1.11144 1.17029 1.09148C1.31216 1.05489 1.46804 1.0366 1.63795 1.0366C1.85735 1.0366 2.02973 1.08566 2.1551 1.18379C2.28212 1.28026 2.34562 1.42912 2.34562 1.63037C2.34562 1.83163 2.2648 1.99296 2.10314 2.11438C1.94148 2.23579 1.74435 2.2965 1.51176 2.2965C1.39299 2.2965 1.26844 2.27155 1.13813 2.22166C1.12988 2.30149 1.12575 2.4096 1.12575 2.54599L1.12823 2.66824C1.12823 2.70815 1.1274 2.74973 1.12575 2.79298C1.11751 2.80462 1.10843 2.81294 1.09854 2.81793C1.08864 2.82292 1.08122 2.82624 1.07627 2.82791C1.07297 2.83123 1.06719 2.83373 1.05895 2.83539C1.0507 2.83705 1.04492 2.83789 1.04162 2.83789C1.03173 2.84121 1.02018 2.84288 1.00698 2.84288H0.964919C0.96162 2.71813 0.95997 2.60586 0.95997 2.50607L0.967393 1.99961ZM1.13318 2.04203C1.2536 2.12352 1.39794 2.16427 1.56619 2.16427C1.73445 2.16261 1.87632 2.11022 1.99179 2.0071C2.10726 1.90231 2.165 1.77424 2.165 1.62289C2.165 1.47153 2.10561 1.35843 1.98684 1.28359C1.86807 1.20874 1.72538 1.17132 1.55877 1.17132C1.39381 1.17132 1.24782 1.20957 1.12081 1.28608C1.12905 1.39419 1.13318 1.64617 1.13318 2.04203Z" fill="white"/>
<path d="M2.79819 2.55846L2.80561 2.70067C2.80561 2.73726 2.79489 2.76304 2.77344 2.77801C2.75365 2.79132 2.73303 2.79797 2.71158 2.79797C2.69179 2.79797 2.67117 2.79464 2.64972 2.78799C2.61343 2.59505 2.58539 2.35471 2.56559 2.06697C2.54745 1.77923 2.53673 1.61624 2.53343 1.57798C2.55817 1.5547 2.58374 1.54305 2.61013 1.54305C2.63818 1.54305 2.66292 1.54638 2.68436 1.55303C2.69096 1.60127 2.69591 1.70771 2.69921 1.87237C2.70251 2.03704 2.70663 2.14016 2.71158 2.18174C2.73468 2.04203 2.77592 1.91146 2.8353 1.79004C2.86829 1.72185 2.91118 1.6678 2.96397 1.62788C3.01841 1.5863 3.07614 1.56551 3.13718 1.56551C3.19986 1.56551 3.25677 1.59378 3.30791 1.65033C3.3607 1.70522 3.38709 1.75512 3.38709 1.80002C3.38709 1.81666 3.37719 1.82996 3.3574 1.83994C3.3376 1.84826 3.31533 1.85242 3.29059 1.85242C3.26749 1.85242 3.24935 1.84327 3.23615 1.82497C3.22295 1.80668 3.21388 1.78672 3.20893 1.7651C3.20398 1.74181 3.19326 1.72102 3.17677 1.70272C3.16027 1.68443 3.138 1.67528 3.10996 1.67528C3.03573 1.67528 2.97222 1.74264 2.91943 1.87736C2.8386 2.07862 2.79819 2.30565 2.79819 2.55846Z" fill="white"/>
<path d="M3.61605 1.76759C3.70018 1.63786 3.82142 1.57299 3.97978 1.57299C4.13814 1.57299 4.26434 1.63786 4.35836 1.76759C4.45404 1.89732 4.50188 2.04535 4.50188 2.21168C4.50188 2.37634 4.44991 2.51605 4.34599 2.63081C4.24207 2.74558 4.1101 2.80296 3.95009 2.80296C3.79008 2.80296 3.67378 2.75805 3.6012 2.66824C3.52862 2.57676 3.49233 2.44869 3.49233 2.28403C3.49233 2.06947 3.53357 1.89732 3.61605 1.76759ZM3.72492 1.89982C3.70347 1.96468 3.68698 2.02955 3.67543 2.09442C3.66553 2.15928 3.66059 2.21999 3.66059 2.27654C3.66059 2.33143 3.66471 2.38216 3.67296 2.42873C3.68121 2.47364 3.69523 2.51854 3.71502 2.56345C3.73482 2.6067 3.76451 2.64162 3.8041 2.66824C3.84369 2.69318 3.8907 2.70566 3.94514 2.70566C4.05566 2.70566 4.14804 2.65992 4.22227 2.56844C4.29815 2.47696 4.33609 2.36636 4.33609 2.23662C4.33609 2.10689 4.30145 1.98132 4.23217 1.8599C4.16454 1.73682 4.08123 1.67528 3.98226 1.67528C3.92287 1.67528 3.87091 1.69607 3.82637 1.73765C3.78183 1.77923 3.74801 1.83329 3.72492 1.89982Z" fill="white"/>
<path d="M4.61898 1.60293C4.63383 1.57133 4.666 1.55553 4.71548 1.55553C4.73693 1.55553 4.75507 1.56052 4.76992 1.5705C4.81611 1.69857 4.86147 1.82747 4.90601 1.9572C4.99014 2.19504 5.0685 2.38299 5.14108 2.52104C5.17572 2.31812 5.24253 2.11354 5.3415 1.9073C5.44213 1.70106 5.53368 1.59794 5.61616 1.59794C5.6409 1.59794 5.66565 1.60376 5.69039 1.6154C5.50069 1.86655 5.3646 2.1992 5.28212 2.61335C5.26562 2.70982 5.24748 2.7647 5.22768 2.77801C5.20624 2.79298 5.18397 2.80046 5.16087 2.80046C5.13778 2.80046 5.11963 2.79547 5.10644 2.78549C5.09489 2.77551 5.08582 2.76554 5.07922 2.75556C5.07427 2.74558 5.06685 2.72894 5.05695 2.70566C5.0487 2.68237 5.0421 2.66657 5.03715 2.65826C4.8689 2.34058 4.72951 1.9888 4.61898 1.60293Z" fill="white"/>
<path d="M6.0225 0.966739C6.02085 1.00499 6.02003 1.04741 6.02003 1.09398C6.02003 1.14055 6.0225 1.18878 6.02745 1.23868C6.00435 1.26529 5.97301 1.2786 5.93342 1.2786C5.88393 1.2786 5.85919 1.23868 5.85919 1.15884C5.85919 1.15552 5.85919 1.14304 5.85919 1.12142C5.85919 1.0998 5.85919 1.08067 5.85919 1.06404C5.86084 1.04574 5.86414 1.02495 5.86909 1.00167C5.88064 0.96175 5.9062 0.941791 5.94579 0.941791C5.98538 0.941791 6.01095 0.950107 6.0225 0.966739ZM5.86414 2.18922C5.86414 1.86323 5.88064 1.67528 5.91363 1.62538C5.92517 1.60709 5.9392 1.59794 5.95569 1.59794C5.97219 1.59794 5.99941 1.60709 6.03735 1.62538C6.0291 1.76676 6.02497 1.92061 6.02497 2.08693C6.02497 2.08693 6.02662 2.27072 6.02992 2.6383C6.02992 2.68986 6.01838 2.72645 5.99528 2.74807C5.97384 2.76803 5.95322 2.77801 5.93342 2.77801C5.91528 2.77801 5.89631 2.77302 5.87651 2.76304C5.86826 2.54682 5.86414 2.35555 5.86414 2.18922Z" fill="white"/>
<path d="M7.27255 0.804573C7.20986 1.37673 7.17852 1.78505 7.17852 2.02955C7.17852 2.27238 7.20079 2.51522 7.24533 2.75805C7.21234 2.79132 7.18347 2.80795 7.15873 2.80795C7.13398 2.80795 7.11336 2.80462 7.09687 2.79797C7.06222 2.67489 7.0416 2.541 7.03501 2.3963C6.99542 2.4595 6.96572 2.50441 6.94593 2.53102C6.92778 2.55763 6.89562 2.59672 6.84943 2.64828C6.7653 2.74807 6.6655 2.79797 6.55003 2.79797C6.4626 2.79797 6.39909 2.75722 6.3595 2.67572C6.32156 2.59256 6.30259 2.48694 6.30259 2.35887C6.30259 2.22914 6.31661 2.10606 6.34465 1.98963C6.37435 1.87154 6.42466 1.77009 6.49559 1.68526C6.56652 1.59877 6.65395 1.55553 6.75788 1.55553C6.82056 1.55553 6.8783 1.56883 6.93108 1.59544C6.98387 1.62206 7.02016 1.65782 7.03996 1.70272C7.04325 1.65782 7.04655 1.58879 7.04985 1.49565C7.05315 1.40251 7.05645 1.32018 7.05975 1.24866C7.0647 1.17548 7.07212 1.10146 7.08202 1.02662C7.10016 0.866945 7.14058 0.787109 7.20327 0.787109C7.22471 0.787109 7.2478 0.792931 7.27255 0.804573ZM6.98304 1.79254C6.96325 1.75595 6.93603 1.72934 6.90139 1.7127C6.86675 1.69441 6.82056 1.68526 6.76282 1.68526C6.70674 1.68526 6.65395 1.71769 6.60446 1.78256C6.50714 1.91063 6.45847 2.09608 6.45847 2.33891C6.45847 2.41709 6.47085 2.49526 6.49559 2.57343C6.52033 2.64994 6.55663 2.68819 6.60446 2.68819C6.67375 2.68819 6.74138 2.64246 6.80736 2.55098C6.87335 2.4595 6.92448 2.35471 6.96077 2.23662C6.99707 2.11687 7.01521 2.00959 7.01521 1.91479C7.01521 1.86988 7.00449 1.82913 6.98304 1.79254Z" fill="white"/>
<path d="M7.68739 0.966739C7.68574 1.00499 7.68492 1.04741 7.68492 1.09398C7.68492 1.14055 7.68739 1.18878 7.69234 1.23868C7.66925 1.26529 7.63791 1.2786 7.59832 1.2786C7.54883 1.2786 7.52408 1.23868 7.52408 1.15884C7.52408 1.15552 7.52408 1.14304 7.52408 1.12142C7.52408 1.0998 7.52408 1.08067 7.52408 1.06404C7.52573 1.04574 7.52903 1.02495 7.53398 1.00167C7.54553 0.96175 7.5711 0.941791 7.61069 0.941791C7.65028 0.941791 7.67585 0.950107 7.68739 0.966739ZM7.52903 2.18922C7.52903 1.86323 7.54553 1.67528 7.57852 1.62538C7.59007 1.60709 7.60409 1.59794 7.62058 1.59794C7.63708 1.59794 7.6643 1.60709 7.70224 1.62538C7.69399 1.76676 7.68987 1.92061 7.68987 2.08693C7.68987 2.08693 7.69152 2.27072 7.69482 2.6383C7.69482 2.68986 7.68327 2.72645 7.66017 2.74807C7.63873 2.76803 7.61811 2.77801 7.59832 2.77801C7.58017 2.77801 7.5612 2.77302 7.5414 2.76304C7.53316 2.54682 7.52903 2.35555 7.52903 2.18922Z" fill="white"/>
<path d="M9.02404 2.7331C8.99435 2.7647 8.96053 2.7805 8.92259 2.7805C8.85166 2.7805 8.79887 2.74225 8.76423 2.66574C8.72959 2.58923 8.70897 2.49609 8.70237 2.38632C8.69742 2.27654 8.69413 2.16677 8.69248 2.05699C8.69083 1.94722 8.68175 1.85408 8.66526 1.77757C8.65041 1.70106 8.62154 1.66281 8.57865 1.66281C8.52092 1.66281 8.47143 1.7152 8.43019 1.81998C8.3906 1.92477 8.36256 2.04119 8.34606 2.16926C8.29987 2.52686 8.25534 2.72728 8.21245 2.77053C8.18275 2.78549 8.15718 2.79298 8.13574 2.79298C8.1143 2.79298 8.09615 2.79048 8.0813 2.78549C8.04666 2.63248 8.02439 2.36885 8.01449 1.99462C8.0112 1.80834 8.0079 1.68775 8.0046 1.63287C8.03924 1.60958 8.06893 1.59794 8.09368 1.59794C8.11842 1.59794 8.13821 1.60043 8.15306 1.60542C8.16131 1.67694 8.16543 1.82331 8.16543 2.04452C8.16708 2.26573 8.16873 2.39297 8.17038 2.42623C8.17863 2.39131 8.18853 2.33476 8.20007 2.25658C8.21327 2.17841 8.22482 2.11438 8.23471 2.06448C8.24461 2.01292 8.26028 1.95304 8.28173 1.88485C8.30317 1.81666 8.32709 1.7626 8.35349 1.72268C8.37988 1.6811 8.41617 1.64617 8.46236 1.6179C8.50855 1.58796 8.56051 1.57299 8.61824 1.57299C8.69578 1.57299 8.75186 1.60875 8.7865 1.68027C8.82279 1.75013 8.84259 1.83745 8.84589 1.94223C8.84919 2.04701 8.85084 2.15346 8.85084 2.26157C8.85249 2.36968 8.86568 2.46865 8.89043 2.55846C8.91682 2.64828 8.96136 2.70649 9.02404 2.7331Z" fill="white"/>
<path d="M9.61687 1.55553C9.76698 1.55553 9.87091 1.61707 9.92864 1.74015C9.95999 1.80501 9.98555 1.86655 10.0053 1.92477C10.0251 1.98298 10.0383 2.06282 10.0449 2.16427C10.0548 2.31896 10.0598 2.49526 10.0598 2.69318C10.0598 2.88945 10.0128 3.04579 9.91875 3.16222C9.82637 3.28031 9.69028 3.33935 9.51047 3.33935C9.33232 3.33935 9.18385 3.28114 9.06508 3.16471C9.09807 3.13145 9.13354 3.11482 9.17148 3.11482C9.21107 3.11482 9.26468 3.13145 9.33232 3.16471C9.4016 3.19964 9.47501 3.21711 9.55254 3.21711C9.63007 3.21711 9.6944 3.19881 9.74554 3.16222C9.79668 3.12729 9.83462 3.07739 9.85936 3.01253C9.9006 2.89776 9.92122 2.75639 9.92122 2.5884C9.92122 2.56345 9.91875 2.47114 9.9138 2.31147C9.86926 2.44786 9.80575 2.56096 9.72327 2.65077C9.64079 2.73892 9.54759 2.783 9.44366 2.783C9.33974 2.783 9.26303 2.73643 9.21355 2.64329C9.16571 2.54848 9.14179 2.4412 9.14179 2.32145C9.14179 2.2017 9.15829 2.08527 9.19128 1.97217C9.22427 1.85741 9.27788 1.75927 9.35211 1.67778C9.42634 1.59628 9.5146 1.55553 9.61687 1.55553ZM9.35459 1.93475C9.33314 2.00793 9.31747 2.07695 9.30757 2.14182C9.29768 2.20669 9.29273 2.27238 9.29273 2.33891C9.29273 2.40378 9.30592 2.47613 9.33232 2.55597C9.36036 2.6358 9.40077 2.67572 9.45356 2.67572C9.55749 2.67572 9.64986 2.59755 9.73069 2.4412C9.81152 2.2832 9.85194 2.12436 9.85194 1.96468C9.85194 1.9098 9.82637 1.84826 9.77523 1.78006C9.72574 1.71021 9.66306 1.67528 9.58718 1.67528C9.53439 1.67528 9.48738 1.70023 9.44614 1.75013C9.40655 1.80002 9.37603 1.86156 9.35459 1.93475Z" fill="white"/>
<path d="M11.9116 2.7331C11.8819 2.7647 11.8481 2.7805 11.8102 2.7805C11.7392 2.7805 11.6865 2.74225 11.6518 2.66574C11.6172 2.58923 11.5966 2.49609 11.59 2.38632C11.585 2.27654 11.5817 2.16677 11.5801 2.05699C11.5784 1.94722 11.5693 1.85408 11.5528 1.77757C11.538 1.70106 11.5091 1.66281 11.4662 1.66281C11.4085 1.66281 11.359 1.7152 11.3178 1.81998C11.2782 1.92477 11.2501 2.04119 11.2336 2.16926C11.1875 2.52686 11.1429 2.72728 11.1 2.77053C11.0703 2.78549 11.0448 2.79298 11.0233 2.79298C11.0019 2.79298 10.9837 2.79048 10.9689 2.78549C10.9342 2.63248 10.912 2.36885 10.9021 1.99462C10.8988 1.80834 10.8955 1.68775 10.8922 1.63287C10.9268 1.60958 10.9565 1.59794 10.9813 1.59794C11.006 1.59794 11.0258 1.60043 11.0406 1.60542C11.0489 1.67694 11.053 1.82331 11.053 2.04452C11.0547 2.26573 11.0563 2.39297 11.058 2.42623C11.0662 2.39131 11.0761 2.33476 11.0877 2.25658C11.1009 2.17841 11.1124 2.11438 11.1223 2.06448C11.1322 2.01292 11.1479 1.95304 11.1693 1.88485C11.1908 1.81666 11.2147 1.7626 11.2411 1.72268C11.2675 1.6811 11.3038 1.64617 11.3499 1.6179C11.3961 1.58796 11.4481 1.57299 11.5058 1.57299C11.5834 1.57299 11.6394 1.60875 11.6741 1.68027C11.7104 1.75013 11.7302 1.83745 11.7335 1.94223C11.7368 2.04701 11.7384 2.15346 11.7384 2.26157C11.7401 2.36968 11.7533 2.46865 11.778 2.55846C11.8044 2.64828 11.8489 2.70649 11.9116 2.7331Z" fill="white"/>
<path d="M12.1976 2.2965C12.1943 2.32977 12.1927 2.35222 12.1927 2.36386C12.1927 2.46366 12.2224 2.541 12.2818 2.59588C12.3428 2.65077 12.4146 2.67822 12.497 2.67822C12.5795 2.67822 12.6463 2.66657 12.6975 2.64329C12.7502 2.62 12.7882 2.59505 12.8113 2.56844C12.8707 2.4936 12.9251 2.45617 12.9746 2.45617C12.9927 2.45617 13.0142 2.46116 13.0389 2.47114C13.0224 2.55264 12.9597 2.62749 12.8509 2.69568C12.7436 2.76221 12.6084 2.79547 12.4451 2.79547C12.3296 2.79547 12.2298 2.75888 12.1457 2.6857C12.0632 2.61085 12.022 2.5094 12.022 2.38133C12.022 2.25326 12.0467 2.12935 12.0962 2.00959C12.1473 1.88818 12.2199 1.78505 12.3139 1.70023C12.4096 1.61374 12.5061 1.5705 12.6034 1.5705C12.7024 1.5705 12.7816 1.59129 12.841 1.63287C12.902 1.67279 12.9325 1.73183 12.9325 1.81C12.9325 1.95471 12.8682 2.07446 12.7395 2.16926C12.6125 2.2624 12.4772 2.30898 12.3337 2.30898C12.2958 2.30898 12.2504 2.30482 12.1976 2.2965ZM12.3857 2.21417C12.4632 2.21417 12.5325 2.18922 12.5935 2.13932C12.6546 2.08943 12.6975 2.03704 12.7222 1.98215C12.7486 1.92726 12.7618 1.87736 12.7618 1.83246C12.7618 1.78755 12.7445 1.74846 12.7098 1.7152C12.6752 1.68027 12.6348 1.66281 12.5886 1.66281C12.5061 1.66281 12.4294 1.72019 12.3585 1.83495C12.2892 1.94972 12.2397 2.06864 12.21 2.19172C12.2826 2.20669 12.3411 2.21417 12.3857 2.21417Z" fill="white"/>
<path d="M13.9066 2.51355C13.8802 2.59006 13.8291 2.65493 13.7532 2.70815C13.6789 2.76138 13.5973 2.78799 13.5082 2.78799C13.4208 2.78799 13.3523 2.74391 13.3028 2.65576C13.255 2.56595 13.2311 2.44203 13.2311 2.28403C13.2311 1.83828 13.2962 1.6154 13.4266 1.6154C13.443 1.6154 13.4637 1.6179 13.4884 1.62289C13.4835 1.6495 13.4719 1.70023 13.4538 1.77507C13.4175 1.92144 13.3993 2.05034 13.3993 2.16178C13.3993 2.27322 13.415 2.39131 13.4463 2.51605C13.4777 2.63913 13.5222 2.70067 13.58 2.70067C13.6097 2.70067 13.6385 2.68154 13.6666 2.64329C13.6946 2.60503 13.7169 2.56511 13.7334 2.52353C13.7499 2.48029 13.7672 2.43122 13.7853 2.37634C13.8035 2.32145 13.815 2.28819 13.82 2.27654C13.7952 2.18007 13.7829 2.08194 13.7829 1.98215C13.7829 1.97716 13.7829 1.96219 13.7829 1.93724C13.7829 1.91063 13.7837 1.88485 13.7853 1.8599C13.787 1.83495 13.7919 1.80501 13.8002 1.77009C13.8167 1.70023 13.8612 1.6653 13.9338 1.6653C13.9948 1.6653 14.0254 1.75844 14.0254 1.94473C14.0254 1.97799 14.0204 2.02622 14.0105 2.08943C14.0023 2.15263 13.9981 2.19671 13.9981 2.22166C13.9981 2.29816 14.0344 2.39713 14.107 2.51854C14.1796 2.63996 14.2472 2.70067 14.3099 2.70067C14.3742 2.70067 14.4213 2.66408 14.4509 2.59089C14.4806 2.51771 14.4955 2.43621 14.4955 2.3464C14.4955 2.24328 14.4864 2.16511 14.4683 2.11188C14.4518 2.05699 14.441 2.02123 14.4361 2.0046C14.4328 1.98797 14.4221 1.96219 14.4039 1.92726C14.3874 1.89067 14.3767 1.86738 14.3718 1.85741C14.3685 1.84743 14.3561 1.82331 14.3346 1.78505C14.3132 1.7468 14.3008 1.72518 14.2975 1.72019C14.2497 1.63536 14.2217 1.58879 14.2134 1.58048C14.2546 1.54555 14.2926 1.52808 14.3272 1.52808C14.4279 1.60127 14.5079 1.72102 14.5672 1.88734C14.6266 2.052 14.6563 2.20253 14.6563 2.33891C14.6563 2.47364 14.6275 2.58008 14.5697 2.65826C14.5136 2.73477 14.4254 2.77302 14.305 2.77302C14.2208 2.77302 14.1408 2.74973 14.0649 2.70316C13.9907 2.65493 13.9379 2.59173 13.9066 2.51355Z" fill="white"/>
<path d="M15.4913 1.00915C15.5111 0.972561 15.5474 0.954265 15.6002 0.954265C15.6117 0.954265 15.6233 0.955928 15.6348 0.959255C15.6381 1.04741 15.6398 1.29357 15.6398 1.69773C15.6414 1.69607 15.6489 1.68859 15.6621 1.67528C15.6769 1.66197 15.686 1.65366 15.6893 1.65033C15.6926 1.64701 15.7008 1.63952 15.714 1.62788C15.7272 1.61457 15.7371 1.60626 15.7437 1.60293C15.752 1.59794 15.7627 1.59129 15.7759 1.58297C15.7891 1.57299 15.8006 1.56634 15.8105 1.56301C15.8204 1.55802 15.832 1.55303 15.8452 1.54804C15.8699 1.53973 15.8988 1.53557 15.9318 1.53557C16.0538 1.53557 16.152 1.58713 16.2262 1.69025C16.3005 1.79171 16.3376 1.90564 16.3376 2.03205C16.3376 2.15845 16.3186 2.27904 16.2807 2.3938C16.2427 2.5069 16.1842 2.60586 16.105 2.69069C16.0258 2.77551 15.9334 2.81793 15.8278 2.81793C15.7239 2.81793 15.6365 2.77884 15.5656 2.70067C15.4963 2.6225 15.4616 2.53351 15.4616 2.43372C15.4616 2.33226 15.4674 2.14598 15.479 1.87487C15.4905 1.6021 15.4963 1.40667 15.4963 1.28858C15.4963 1.16882 15.4946 1.07568 15.4913 1.00915ZM15.8452 2.69568C15.9095 2.69568 15.9672 2.66491 16.0184 2.60337C16.1223 2.48195 16.1743 2.30981 16.1743 2.08693C16.1743 1.96718 16.1512 1.86156 16.105 1.77009C16.0588 1.67694 15.9936 1.63037 15.9095 1.63037C15.8617 1.63037 15.8196 1.65449 15.7833 1.70272C15.747 1.74929 15.719 1.81167 15.6992 1.88984C15.6612 2.03787 15.6423 2.20253 15.6423 2.38382C15.6423 2.53684 15.6736 2.63081 15.7363 2.66574C15.7643 2.68237 15.8006 2.69235 15.8452 2.69568Z" fill="white"/>
<path d="M16.7066 2.2965C16.7033 2.32977 16.7017 2.35222 16.7017 2.36386C16.7017 2.46366 16.7314 2.541 16.7907 2.59588C16.8518 2.65077 16.9235 2.67822 17.006 2.67822C17.0885 2.67822 17.1553 2.66657 17.2064 2.64329C17.2592 2.62 17.2972 2.59505 17.3203 2.56844C17.3797 2.4936 17.4341 2.45617 17.4836 2.45617C17.5017 2.45617 17.5232 2.46116 17.5479 2.47114C17.5314 2.55264 17.4687 2.62749 17.3599 2.69568C17.2526 2.76221 17.1174 2.79547 16.9541 2.79547C16.8386 2.79547 16.7388 2.75888 16.6547 2.6857C16.5722 2.61085 16.5309 2.5094 16.5309 2.38133C16.5309 2.25326 16.5557 2.12935 16.6052 2.00959C16.6563 1.88818 16.7289 1.78505 16.8229 1.70023C16.9186 1.61374 17.0151 1.5705 17.1124 1.5705C17.2114 1.5705 17.2906 1.59129 17.35 1.63287C17.411 1.67279 17.4415 1.73183 17.4415 1.81C17.4415 1.95471 17.3772 2.07446 17.2485 2.16926C17.1215 2.2624 16.9862 2.30898 16.8427 2.30898C16.8048 2.30898 16.7594 2.30482 16.7066 2.2965ZM16.8947 2.21417C16.9722 2.21417 17.0415 2.18922 17.1025 2.13932C17.1636 2.08943 17.2064 2.03704 17.2312 1.98215C17.2576 1.92726 17.2708 1.87736 17.2708 1.83246C17.2708 1.78755 17.2535 1.74846 17.2188 1.7152C17.1842 1.68027 17.1438 1.66281 17.0976 1.66281C17.0151 1.66281 16.9384 1.72019 16.8675 1.83495C16.7982 1.94972 16.7487 2.06864 16.719 2.19172C16.7916 2.20669 16.8501 2.21417 16.8947 2.21417Z" fill="white"/>
<path d="M18.6803 0.804573C18.6176 1.37673 18.5863 1.78505 18.5863 2.02955C18.5863 2.27238 18.6086 2.51522 18.6531 2.75805C18.6201 2.79132 18.5912 2.80795 18.5665 2.80795C18.5418 2.80795 18.5211 2.80462 18.5046 2.79797C18.47 2.67489 18.4494 2.541 18.4428 2.3963C18.4032 2.4595 18.3735 2.50441 18.3537 2.53102C18.3356 2.55763 18.3034 2.59672 18.2572 2.64828C18.1731 2.74807 18.0733 2.79797 17.9578 2.79797C17.8704 2.79797 17.8069 2.75722 17.7673 2.67572C17.7293 2.59256 17.7104 2.48694 17.7104 2.35887C17.7104 2.22914 17.7244 2.10606 17.7524 1.98963C17.7821 1.87154 17.8324 1.77009 17.9034 1.68526C17.9743 1.59877 18.0617 1.55553 18.1657 1.55553C18.2283 1.55553 18.2861 1.56883 18.3389 1.59544C18.3916 1.62206 18.4279 1.65782 18.4477 1.70272C18.451 1.65782 18.4543 1.58879 18.4576 1.49565C18.4609 1.40251 18.4642 1.32018 18.4675 1.24866C18.4725 1.17548 18.4799 1.10146 18.4898 1.02662C18.5079 0.866945 18.5484 0.787109 18.611 0.787109C18.6325 0.787109 18.6556 0.792931 18.6803 0.804573ZM18.3908 1.79254C18.371 1.75595 18.3438 1.72934 18.3092 1.7127C18.2745 1.69441 18.2283 1.68526 18.1706 1.68526C18.1145 1.68526 18.0617 1.71769 18.0122 1.78256C17.9149 1.91063 17.8663 2.09608 17.8663 2.33891C17.8663 2.41709 17.8786 2.49526 17.9034 2.57343C17.9281 2.64994 17.9644 2.68819 18.0122 2.68819C18.0815 2.68819 18.1492 2.64246 18.2151 2.55098C18.2811 2.4595 18.3323 2.35471 18.3686 2.23662C18.4048 2.11687 18.423 2.00959 18.423 1.91479C18.423 1.86988 18.4123 1.82913 18.3908 1.79254Z" fill="white"/>
<path d="M19.5406 1.80501C19.5257 1.76676 19.4977 1.73682 19.4564 1.7152C19.4152 1.69358 19.3641 1.68276 19.303 1.68276C19.242 1.68276 19.1842 1.70106 19.1298 1.73765C19.077 1.77424 19.0506 1.82331 19.0506 1.88485C19.0506 1.94639 19.0754 1.99545 19.1249 2.03205C19.176 2.06697 19.237 2.09359 19.308 2.11188C19.3805 2.13018 19.4531 2.15014 19.5257 2.17176C19.5983 2.19172 19.6593 2.22581 19.7088 2.27405C19.76 2.32062 19.7855 2.38216 19.7855 2.45867C19.7855 2.5701 19.7393 2.65493 19.647 2.71314C19.5562 2.77136 19.4465 2.80046 19.3179 2.80046C19.242 2.80046 19.1422 2.77967 19.0185 2.73809C18.8964 2.69651 18.8354 2.64661 18.8354 2.5884C18.8354 2.54516 18.8717 2.52353 18.9442 2.52353C18.9657 2.52353 18.9937 2.53684 19.0284 2.56345C19.1339 2.64162 19.242 2.68071 19.3525 2.68071C19.4119 2.68071 19.463 2.67073 19.5059 2.65077C19.5851 2.61252 19.6247 2.55098 19.6247 2.46615C19.6247 2.41459 19.5991 2.37301 19.548 2.34141C19.4985 2.30981 19.4375 2.28486 19.3649 2.26656C19.2939 2.24827 19.2222 2.22831 19.1496 2.20669C19.077 2.18506 19.0152 2.1493 18.964 2.09941C18.9145 2.04785 18.8898 1.98298 18.8898 1.90481C18.8898 1.80335 18.9352 1.72102 19.0259 1.65782C19.1166 1.59461 19.2288 1.56301 19.3624 1.56301C19.4531 1.56301 19.5348 1.58713 19.6074 1.63536C19.6816 1.68193 19.7187 1.75013 19.7187 1.83994C19.7187 1.89982 19.6849 1.92976 19.6173 1.92976C19.5892 1.92976 19.5703 1.92477 19.5604 1.91479C19.5521 1.90481 19.5472 1.88734 19.5455 1.8624C19.5455 1.83578 19.5439 1.81666 19.5406 1.80501Z" fill="white"/>
<path d="M20.741 2.82042C20.7113 2.82042 20.6964 2.56844 20.6964 2.06448C20.6964 1.85158 20.6956 1.72268 20.694 1.67778H20.6445C20.6214 1.67778 20.6032 1.67778 20.59 1.67778C20.5768 1.67611 20.5595 1.67528 20.5381 1.67528C20.5183 1.67362 20.5018 1.67112 20.4886 1.6678C20.477 1.66447 20.4647 1.66031 20.4515 1.65532C20.4267 1.64534 20.4143 1.62788 20.4143 1.60293C20.4143 1.57133 20.4655 1.55553 20.5678 1.55553C20.6123 1.55553 20.6527 1.55719 20.689 1.56052C20.6907 1.52725 20.6915 1.48484 20.6915 1.43328C20.6931 1.38006 20.6948 1.33931 20.6964 1.31103C20.6981 1.28109 20.6997 1.24533 20.7014 1.20375C20.7047 1.16217 20.7088 1.12974 20.7137 1.10645C20.7203 1.08317 20.7286 1.05739 20.7385 1.02911C20.7484 0.999173 20.7616 0.976719 20.7781 0.96175C20.7946 0.946781 20.8135 0.931811 20.835 0.916842C20.8729 0.888567 20.9356 0.874429 21.023 0.874429C21.1121 0.874429 21.1773 0.896883 21.2185 0.941791C21.2614 0.985035 21.2994 1.05905 21.3323 1.16383C21.3076 1.19377 21.2787 1.20874 21.2457 1.20874C21.2342 1.20874 21.2226 1.20708 21.2111 1.20375C21.1814 1.12392 21.1542 1.06986 21.1294 1.04159C21.1063 1.01331 21.0742 0.999173 21.0329 0.999173C20.9917 0.999173 20.9604 1.00666 20.9389 1.02163C20.9191 1.0366 20.9035 1.05572 20.8919 1.07901C20.8672 1.12891 20.8548 1.24949 20.8548 1.44076C20.8548 1.44908 20.8548 1.46405 20.8548 1.48567C20.8548 1.50729 20.8548 1.52725 20.8548 1.54555L21.0651 1.52559C21.1476 1.52559 21.1888 1.54472 21.1888 1.58297C21.1888 1.60792 21.169 1.62455 21.1294 1.63287C21.0899 1.64118 21.0395 1.64617 20.9785 1.64784C20.9191 1.6495 20.8779 1.65449 20.8548 1.66281C20.8515 1.70938 20.8498 1.77092 20.8498 1.84743C20.8498 1.92227 20.854 2.04203 20.8622 2.20669C20.8705 2.36968 20.8746 2.49443 20.8746 2.58092C20.8746 2.6674 20.8655 2.72894 20.8474 2.76554C20.8309 2.80213 20.7954 2.82042 20.741 2.82042Z" fill="white"/>
<path d="M21.3789 1.76759C21.4631 1.63786 21.5843 1.57299 21.7427 1.57299C21.901 1.57299 22.0272 1.63786 22.1212 1.76759C22.2169 1.89732 22.2648 2.04535 22.2648 2.21168C22.2648 2.37634 22.2128 2.51605 22.1089 2.63081C22.005 2.74558 21.873 2.80296 21.713 2.80296C21.553 2.80296 21.4367 2.75805 21.3641 2.66824C21.2915 2.57676 21.2552 2.44869 21.2552 2.28403C21.2552 2.06947 21.2964 1.89732 21.3789 1.76759ZM21.4878 1.89982C21.4664 1.96468 21.4499 2.02955 21.4383 2.09442C21.4284 2.15928 21.4235 2.21999 21.4235 2.27654C21.4235 2.33143 21.4276 2.38216 21.4358 2.42873C21.4441 2.47364 21.4581 2.51854 21.4779 2.56345C21.4977 2.6067 21.5274 2.64162 21.567 2.66824C21.6066 2.69318 21.6536 2.70566 21.708 2.70566C21.8185 2.70566 21.9109 2.65992 21.9852 2.56844C22.061 2.47696 22.099 2.36636 22.099 2.23662C22.099 2.10689 22.0643 1.98132 21.9951 1.8599C21.9274 1.73682 21.8441 1.67528 21.7451 1.67528C21.6858 1.67528 21.6338 1.69607 21.5893 1.73765C21.5447 1.77923 21.5109 1.83329 21.4878 1.89982Z" fill="white"/>
<path d="M22.7503 2.55846L22.7577 2.70067C22.7577 2.73726 22.747 2.76304 22.7256 2.77801C22.7058 2.79132 22.6852 2.79797 22.6637 2.79797C22.6439 2.79797 22.6233 2.79464 22.6019 2.78799C22.5656 2.59505 22.5375 2.35471 22.5177 2.06697C22.4996 1.77923 22.4889 1.61624 22.4856 1.57798C22.5103 1.5547 22.5359 1.54305 22.5623 1.54305C22.5903 1.54305 22.6151 1.54638 22.6365 1.55303C22.6431 1.60127 22.648 1.70771 22.6513 1.87237C22.6546 2.03704 22.6588 2.14016 22.6637 2.18174C22.6868 2.04203 22.7281 1.91146 22.7874 1.79004C22.8204 1.72185 22.8633 1.6678 22.9161 1.62788C22.9705 1.5863 23.0283 1.56551 23.0893 1.56551C23.152 1.56551 23.2089 1.59378 23.26 1.65033C23.3128 1.70522 23.3392 1.75512 23.3392 1.80002C23.3392 1.81666 23.3293 1.82996 23.3095 1.83994C23.2897 1.84826 23.2675 1.85242 23.2427 1.85242C23.2196 1.85242 23.2015 1.84327 23.1883 1.82497C23.1751 1.80668 23.166 1.78672 23.1611 1.7651C23.1561 1.74181 23.1454 1.72102 23.1289 1.70272C23.1124 1.68443 23.0901 1.67528 23.0621 1.67528C22.9879 1.67528 22.9244 1.74264 22.8716 1.87736C22.7907 2.07862 22.7503 2.30565 22.7503 2.55846Z" fill="white"/>
<path d="M24.2523 0.95177C24.254 1.0682 24.2548 1.15552 24.2548 1.21373C24.2548 1.27028 24.254 1.32683 24.2523 1.38338C24.2523 1.43993 24.2499 1.54971 24.2449 1.7127C24.24 1.87404 24.2367 2.00211 24.235 2.09691C24.2977 2.05367 24.3727 1.98714 24.4602 1.89732C24.5476 1.80584 24.6268 1.72767 24.6977 1.66281C24.8099 1.56135 24.8899 1.53058 24.9377 1.5705C24.9559 1.58547 24.9617 1.5996 24.9551 1.61291C24.9386 1.64784 24.9006 1.69025 24.8412 1.74015C24.7835 1.79004 24.715 1.84659 24.6359 1.9098C24.5567 1.973 24.494 2.03121 24.4478 2.08444C24.5682 2.10107 24.6647 2.16926 24.7373 2.28902C24.7687 2.3439 24.7992 2.39879 24.8289 2.45368C24.9047 2.59838 24.9872 2.69651 25.0763 2.74807C25.0433 2.78134 25.0054 2.79797 24.9625 2.79797C24.9196 2.79797 24.8767 2.77718 24.8338 2.7356C24.7926 2.69402 24.7563 2.64329 24.7249 2.58341C24.6952 2.52353 24.6647 2.46366 24.6334 2.40378C24.5625 2.25908 24.48 2.18673 24.3859 2.18673C24.3414 2.18673 24.3035 2.2017 24.2721 2.23163C24.2408 2.25991 24.2251 2.28985 24.2251 2.32145C24.2251 2.52104 24.2218 2.66907 24.2152 2.76554C24.1921 2.79714 24.1674 2.81294 24.141 2.81294C24.1327 2.81294 24.1237 2.81127 24.1138 2.80795C24.0775 2.79298 24.0593 2.76221 24.0593 2.71564C24.061 2.66907 24.0659 2.52769 24.0742 2.29151C24.0923 1.68775 24.1014 1.30188 24.1014 1.1339C24.1014 1.05572 24.1088 1.00333 24.1237 0.976719C24.1402 0.950107 24.1591 0.936801 24.1806 0.936801C24.2037 0.936801 24.2276 0.941791 24.2523 0.95177Z" fill="white"/>
<path d="M25.3947 0.966739C25.3931 1.00499 25.3922 1.04741 25.3922 1.09398C25.3922 1.14055 25.3947 1.18878 25.3996 1.23868C25.3766 1.26529 25.3452 1.2786 25.3056 1.2786C25.2561 1.2786 25.2314 1.23868 25.2314 1.15884C25.2314 1.15552 25.2314 1.14304 25.2314 1.12142C25.2314 1.0998 25.2314 1.08067 25.2314 1.06404C25.233 1.04574 25.2363 1.02495 25.2413 1.00167C25.2528 0.96175 25.2784 0.941791 25.318 0.941791C25.3576 0.941791 25.3832 0.950107 25.3947 0.966739ZM25.2363 2.18922C25.2363 1.86323 25.2528 1.67528 25.2858 1.62538C25.2974 1.60709 25.3114 1.59794 25.3279 1.59794C25.3444 1.59794 25.3716 1.60709 25.4095 1.62538C25.4013 1.76676 25.3972 1.92061 25.3972 2.08693C25.3972 2.08693 25.3988 2.27072 25.4021 2.6383C25.4021 2.68986 25.3906 2.72645 25.3675 2.74807C25.346 2.76803 25.3254 2.77801 25.3056 2.77801C25.2875 2.77801 25.2685 2.77302 25.2487 2.76304C25.2405 2.54682 25.2363 2.35555 25.2363 2.18922Z" fill="white"/>
<path d="M26.6447 0.804573C26.5821 1.37673 26.5507 1.78505 26.5507 2.02955C26.5507 2.27238 26.573 2.51522 26.6175 2.75805C26.5845 2.79132 26.5557 2.80795 26.5309 2.80795C26.5062 2.80795 26.4856 2.80462 26.4691 2.79797C26.4344 2.67489 26.4138 2.541 26.4072 2.3963C26.3676 2.4595 26.3379 2.50441 26.3181 2.53102C26.3 2.55763 26.2678 2.59672 26.2216 2.64828C26.1375 2.74807 26.0377 2.79797 25.9222 2.79797C25.8348 2.79797 25.7713 2.75722 25.7317 2.67572C25.6938 2.59256 25.6748 2.48694 25.6748 2.35887C25.6748 2.22914 25.6888 2.10606 25.7169 1.98963C25.7465 1.87154 25.7969 1.77009 25.8678 1.68526C25.9387 1.59877 26.0261 1.55553 26.1301 1.55553C26.1928 1.55553 26.2505 1.56883 26.3033 1.59544C26.3561 1.62206 26.3924 1.65782 26.4122 1.70272C26.4155 1.65782 26.4188 1.58879 26.4221 1.49565C26.4254 1.40251 26.4286 1.32018 26.4319 1.24866C26.4369 1.17548 26.4443 1.10146 26.4542 1.02662C26.4724 0.866945 26.5128 0.787109 26.5755 0.787109C26.5969 0.787109 26.62 0.792931 26.6447 0.804573ZM26.3552 1.79254C26.3354 1.75595 26.3082 1.72934 26.2736 1.7127C26.2389 1.69441 26.1928 1.68526 26.135 1.68526C26.0789 1.68526 26.0261 1.71769 25.9767 1.78256C25.8793 1.91063 25.8307 2.09608 25.8307 2.33891C25.8307 2.41709 25.843 2.49526 25.8678 2.57343C25.8925 2.64994 25.9288 2.68819 25.9767 2.68819C26.0459 2.68819 26.1136 2.64246 26.1796 2.55098C26.2455 2.4595 26.2967 2.35471 26.333 2.23662C26.3693 2.11687 26.3874 2.00959 26.3874 1.91479C26.3874 1.86988 26.3767 1.82913 26.3552 1.79254Z" fill="white"/>
<path d="M27.505 1.80501C27.4901 1.76676 27.4621 1.73682 27.4209 1.7152C27.3796 1.69358 27.3285 1.68276 27.2674 1.68276C27.2064 1.68276 27.1487 1.70106 27.0942 1.73765C27.0414 1.77424 27.0151 1.82331 27.0151 1.88485C27.0151 1.94639 27.0398 1.99545 27.0893 2.03205C27.1404 2.06697 27.2015 2.09359 27.2724 2.11188C27.345 2.13018 27.4176 2.15014 27.4901 2.17176C27.5627 2.19172 27.6238 2.22581 27.6732 2.27405C27.7244 2.32062 27.7499 2.38216 27.7499 2.45867C27.7499 2.5701 27.7038 2.65493 27.6114 2.71314C27.5207 2.77136 27.411 2.80046 27.2823 2.80046C27.2064 2.80046 27.1066 2.77967 26.9829 2.73809C26.8608 2.69651 26.7998 2.64661 26.7998 2.5884C26.7998 2.54516 26.8361 2.52353 26.9087 2.52353C26.9301 2.52353 26.9581 2.53684 26.9928 2.56345C27.0984 2.64162 27.2064 2.68071 27.3169 2.68071C27.3763 2.68071 27.4275 2.67073 27.4703 2.65077C27.5495 2.61252 27.5891 2.55098 27.5891 2.46615C27.5891 2.41459 27.5635 2.37301 27.5124 2.34141C27.4629 2.30981 27.4019 2.28486 27.3293 2.26656C27.2584 2.24827 27.1866 2.22831 27.114 2.20669C27.0414 2.18506 26.9796 2.1493 26.9284 2.09941C26.879 2.04785 26.8542 1.98298 26.8542 1.90481C26.8542 1.80335 26.8996 1.72102 26.9903 1.65782C27.081 1.59461 27.1932 1.56301 27.3268 1.56301C27.4176 1.56301 27.4992 1.58713 27.5718 1.63536C27.646 1.68193 27.6831 1.75013 27.6831 1.83994C27.6831 1.89982 27.6493 1.92976 27.5817 1.92976C27.5536 1.92976 27.5347 1.92477 27.5248 1.91479C27.5165 1.90481 27.5116 1.88734 27.5099 1.8624C27.5099 1.83578 27.5083 1.81666 27.505 1.80501Z" fill="white"/>
</svg>
