<svg width="39" height="5" viewBox="0 0 39 5" fill="none" xmlns="http://www.w3.org/2000/svg">
<path d="M0.645011 2.63324C0.645011 2.26566 0.629821 1.94168 0.599442 1.66128C0.599442 1.58824 0.629821 1.52462 0.690581 1.47043C0.751341 1.41623 0.831965 1.375 0.932452 1.34672C1.13343 1.29489 1.35427 1.26897 1.59497 1.26897C1.90578 1.26897 2.14999 1.33848 2.32759 1.4775C2.50753 1.61416 2.59751 1.82504 2.59751 2.11015C2.59751 2.39526 2.483 2.62382 2.25398 2.79582C2.02496 2.96783 1.7457 3.05383 1.41619 3.05383C1.24794 3.05383 1.0715 3.01849 0.886882 2.9478C0.875198 3.0609 0.869355 3.21406 0.869355 3.40727L0.872861 3.58046C0.872861 3.63701 0.871692 3.69591 0.869355 3.75718C0.857671 3.77367 0.844818 3.78545 0.830796 3.79252C0.816775 3.79959 0.806259 3.8043 0.799248 3.80666C0.794574 3.81137 0.786395 3.8149 0.77471 3.81726C0.763026 3.81962 0.754847 3.82079 0.750173 3.82079C0.736151 3.82551 0.719793 3.82786 0.701097 3.82786H0.641506C0.636832 3.65114 0.634495 3.4921 0.634495 3.35072L0.645011 2.63324ZM0.879872 2.69332C1.05047 2.80878 1.25495 2.86651 1.49331 2.86651C1.73168 2.86415 1.93265 2.78993 2.09624 2.64384C2.25982 2.4954 2.34161 2.31397 2.34161 2.09955C2.34161 1.88513 2.25748 1.7249 2.08923 1.61887C1.92097 1.51284 1.71883 1.45982 1.4828 1.45982C1.2491 1.45982 1.04229 1.51402 0.862345 1.62241C0.874029 1.77556 0.879872 2.13254 0.879872 2.69332Z" fill="white"/>
<path d="M3.23863 3.42494L3.24915 3.6264C3.24915 3.67824 3.23396 3.71476 3.20358 3.73597C3.17554 3.75482 3.14633 3.76424 3.11595 3.76424C3.0879 3.76424 3.05869 3.75953 3.02831 3.75011C2.9769 3.47678 2.93717 3.1363 2.90913 2.72867C2.88342 2.32104 2.86823 2.09012 2.86356 2.03593C2.89861 2.00294 2.93483 1.98645 2.97223 1.98645C3.01195 1.98645 3.04701 1.99116 3.07739 2.00058C3.08673 2.06892 3.09374 2.21972 3.09842 2.45299C3.10309 2.68626 3.10893 2.83234 3.11595 2.89125C3.14866 2.69332 3.20709 2.50836 3.29121 2.33635C3.33795 2.23975 3.39871 2.16317 3.47349 2.10662C3.55061 2.04771 3.6324 2.01826 3.71887 2.01826C3.80767 2.01826 3.8883 2.05831 3.96074 2.13843C4.03552 2.21618 4.07291 2.28687 4.07291 2.35049C4.07291 2.37405 4.05889 2.3929 4.03085 2.40704C4.00281 2.41882 3.97126 2.42471 3.9362 2.42471C3.90349 2.42471 3.87778 2.41175 3.85909 2.38583C3.84039 2.35991 3.82754 2.33164 3.82053 2.30101C3.81352 2.26802 3.79833 2.23857 3.77496 2.21265C3.75159 2.18673 3.72004 2.17377 3.68031 2.17377C3.57515 2.17377 3.48518 2.2692 3.4104 2.46006C3.29589 2.74516 3.23863 3.06679 3.23863 3.42494Z" fill="white"/>
<path d="M4.39727 2.30454C4.51645 2.12075 4.68822 2.02886 4.91256 2.02886C5.1369 2.02886 5.31568 2.12075 5.44888 2.30454C5.58442 2.48833 5.65219 2.69804 5.65219 2.93366C5.65219 3.16693 5.57858 3.36486 5.43136 3.52744C5.28413 3.69002 5.09718 3.77131 4.8705 3.77131C4.64382 3.77131 4.47906 3.70769 4.37624 3.58046C4.27341 3.45086 4.222 3.26943 4.222 3.03616C4.222 2.7322 4.28042 2.48833 4.39727 2.30454ZM4.55151 2.49186C4.52113 2.58376 4.49776 2.67565 4.4814 2.76755C4.46738 2.85944 4.46037 2.94544 4.46037 3.02556C4.46037 3.10331 4.46621 3.17518 4.47789 3.24116C4.48958 3.30477 4.50944 3.36839 4.53749 3.43201C4.56553 3.49327 4.60759 3.54276 4.66368 3.58046C4.71976 3.6158 4.78637 3.63347 4.86349 3.63347C5.02006 3.63347 5.15093 3.56868 5.25609 3.43908C5.36359 3.30949 5.41733 3.1528 5.41733 2.96901C5.41733 2.78522 5.36826 2.60732 5.27011 2.43531C5.1743 2.26095 5.05628 2.17377 4.91607 2.17377C4.83194 2.17377 4.75832 2.20322 4.69523 2.26213C4.63213 2.32104 4.58422 2.39761 4.55151 2.49186Z" fill="white"/>
<path d="M5.8181 2.07127C5.83913 2.0265 5.8847 2.00412 5.95481 2.00412C5.98519 2.00412 6.01089 2.01119 6.03193 2.02533C6.09736 2.20676 6.16162 2.38937 6.22472 2.57316C6.3439 2.9101 6.45491 3.17636 6.55773 3.37193C6.60681 3.08446 6.70145 2.79464 6.84167 2.50247C6.98422 2.21029 7.11392 2.0642 7.23076 2.0642C7.26582 2.0642 7.30087 2.07245 7.33593 2.08894C7.06718 2.44474 6.87438 2.91599 6.75754 3.5027C6.73417 3.63936 6.70846 3.71712 6.68042 3.73597C6.65004 3.75718 6.61849 3.76778 6.58577 3.76778C6.55306 3.76778 6.52735 3.76071 6.50866 3.74657C6.4923 3.73244 6.47945 3.7183 6.4701 3.70416C6.46309 3.69002 6.45257 3.66646 6.43855 3.63347C6.42686 3.60048 6.41752 3.5781 6.41051 3.56632C6.17214 3.11627 5.97467 2.61792 5.8181 2.07127Z" fill="white"/>
<path d="M7.80641 1.17C7.80408 1.2242 7.80291 1.28428 7.80291 1.35026C7.80291 1.41623 7.80641 1.48456 7.81342 1.55525C7.78071 1.59295 7.73631 1.6118 7.68022 1.6118C7.61011 1.6118 7.57506 1.55525 7.57506 1.44215C7.57506 1.43744 7.57506 1.41977 7.57506 1.38914C7.57506 1.3585 7.57506 1.33141 7.57506 1.30784C7.5774 1.28193 7.58207 1.25247 7.58908 1.21948C7.60544 1.16293 7.64166 1.13466 7.69775 1.13466C7.75383 1.13466 7.79005 1.14644 7.80641 1.17ZM7.58207 2.90185C7.58207 2.44003 7.60544 2.17377 7.65218 2.10308C7.66853 2.07716 7.6884 2.0642 7.71177 2.0642C7.73514 2.0642 7.7737 2.07716 7.82745 2.10308C7.81576 2.30336 7.80992 2.52132 7.80992 2.75694C7.80992 2.75694 7.81226 3.01731 7.81693 3.53804C7.81693 3.61109 7.80057 3.66293 7.76785 3.69356C7.73747 3.72183 7.70826 3.73597 7.68022 3.73597C7.65451 3.73597 7.62764 3.7289 7.5996 3.71476C7.58791 3.40845 7.58207 3.13748 7.58207 2.90185Z" fill="white"/>
<path d="M9.57731 0.940268C9.48851 1.75082 9.44411 2.32928 9.44411 2.67565C9.44411 3.01967 9.47566 3.36368 9.53875 3.70769C9.49201 3.75482 9.45112 3.77838 9.41607 3.77838C9.38101 3.77838 9.3518 3.77367 9.32843 3.76424C9.27936 3.58988 9.25014 3.4002 9.2408 3.19521C9.18471 3.28475 9.14265 3.34836 9.1146 3.38607C9.0889 3.42377 9.04333 3.47914 8.97789 3.55218C8.85871 3.69356 8.71733 3.76424 8.55374 3.76424C8.42989 3.76424 8.33991 3.70652 8.28383 3.59106C8.23008 3.47325 8.20321 3.32362 8.20321 3.14219C8.20321 2.9584 8.22307 2.78404 8.2628 2.6191C8.30486 2.45181 8.37614 2.30808 8.47662 2.18791C8.57711 2.06538 8.70097 2.00412 8.84819 2.00412C8.937 2.00412 9.01879 2.02297 9.09357 2.06067C9.16835 2.09837 9.21976 2.14903 9.24781 2.21265C9.25248 2.14903 9.25716 2.05124 9.26183 1.91929C9.2665 1.78734 9.27118 1.67071 9.27585 1.56939C9.28286 1.46571 9.29338 1.36086 9.3074 1.25483C9.3331 1.02863 9.39036 0.915527 9.47916 0.915527C9.50954 0.915527 9.54226 0.923774 9.57731 0.940268ZM9.16718 2.33989C9.13914 2.28805 9.10058 2.25035 9.05151 2.22679C9.00243 2.20087 8.937 2.18791 8.8552 2.18791C8.77575 2.18791 8.70097 2.23385 8.63086 2.32575C8.49298 2.50718 8.42404 2.7699 8.42404 3.11392C8.42404 3.22466 8.44157 3.33541 8.47662 3.44615C8.51168 3.55454 8.56309 3.60873 8.63086 3.60873C8.72901 3.60873 8.82483 3.54393 8.9183 3.41434C9.01178 3.28475 9.08422 3.1363 9.13564 2.96901C9.18705 2.79936 9.21275 2.64738 9.21275 2.51307C9.21275 2.44945 9.19756 2.39172 9.16718 2.33989Z" fill="white"/>
<path d="M10.165 1.17C10.1627 1.2242 10.1615 1.28428 10.1615 1.35026C10.1615 1.41623 10.165 1.48456 10.172 1.55525C10.1393 1.59295 10.0949 1.6118 10.0388 1.6118C9.96871 1.6118 9.93366 1.55525 9.93366 1.44215C9.93366 1.43744 9.93366 1.41977 9.93366 1.38914C9.93366 1.3585 9.93366 1.33141 9.93366 1.30784C9.93599 1.28193 9.94067 1.25247 9.94768 1.21948C9.96404 1.16293 10.0003 1.13466 10.0563 1.13466C10.1124 1.13466 10.1487 1.14644 10.165 1.17ZM9.94067 2.90185C9.94067 2.44003 9.96404 2.17377 10.0108 2.10308C10.0271 2.07716 10.047 2.0642 10.0704 2.0642C10.0937 2.0642 10.1323 2.07716 10.186 2.10308C10.1744 2.30336 10.1685 2.52132 10.1685 2.75694C10.1685 2.75694 10.1709 3.01731 10.1755 3.53804C10.1755 3.61109 10.1592 3.66293 10.1265 3.69356C10.0961 3.72183 10.0669 3.73597 10.0388 3.73597C10.0131 3.73597 9.98624 3.7289 9.95819 3.71476C9.94651 3.40845 9.94067 3.13748 9.94067 2.90185Z" fill="white"/>
<path d="M12.0586 3.67235C12.0165 3.71712 11.9686 3.7395 11.9149 3.7395C11.8144 3.7395 11.7396 3.68531 11.6905 3.57692C11.6415 3.46853 11.6122 3.33658 11.6029 3.18107C11.5959 3.02556 11.5912 2.87004 11.5889 2.71453C11.5865 2.55902 11.5737 2.42707 11.5503 2.31868C11.5293 2.21029 11.4884 2.1561 11.4276 2.1561C11.3458 2.1561 11.2757 2.23032 11.2173 2.37876C11.1612 2.52721 11.1215 2.69215 11.0981 2.87358C11.0327 3.38017 10.9696 3.6641 10.9088 3.72537C10.8668 3.74657 10.8305 3.75718 10.8002 3.75718C10.7698 3.75718 10.7441 3.75364 10.723 3.74657C10.674 3.5298 10.6424 3.15633 10.6284 2.62617C10.6237 2.36227 10.6191 2.19144 10.6144 2.11369C10.6635 2.0807 10.7055 2.0642 10.7406 2.0642C10.7756 2.0642 10.8037 2.06774 10.8247 2.07481C10.8364 2.17613 10.8422 2.38348 10.8422 2.69686C10.8446 3.01024 10.8469 3.1905 10.8492 3.23762C10.8609 3.18814 10.8749 3.10803 10.8913 2.99728C10.91 2.88654 10.9264 2.79582 10.9404 2.72513C10.9544 2.65209 10.9766 2.56726 11.007 2.47066C11.0374 2.37405 11.0712 2.29747 11.1086 2.24092C11.146 2.18202 11.1974 2.13254 11.2629 2.09248C11.3283 2.05007 11.4019 2.02886 11.4837 2.02886C11.5936 2.02886 11.673 2.07952 11.7221 2.18084C11.7735 2.2798 11.8015 2.4035 11.8062 2.55195C11.8109 2.70039 11.8132 2.85119 11.8132 3.00435C11.8156 3.15751 11.8343 3.29771 11.8693 3.42494C11.9067 3.55218 11.9698 3.63465 12.0586 3.67235Z" fill="white"/>
<path d="M12.8984 2.00412C13.1111 2.00412 13.2583 2.0913 13.3401 2.26566C13.3845 2.35756 13.4207 2.44474 13.4488 2.52721C13.4768 2.60968 13.4955 2.72278 13.5049 2.86651C13.5189 3.08564 13.5259 3.33541 13.5259 3.6158C13.5259 3.89384 13.4593 4.11533 13.3261 4.28027C13.1952 4.44756 13.0024 4.53121 12.7477 4.53121C12.4953 4.53121 12.285 4.44874 12.1167 4.2838C12.1635 4.23667 12.2137 4.21311 12.2675 4.21311C12.3236 4.21311 12.3995 4.23667 12.4953 4.2838C12.5935 4.33328 12.6975 4.35802 12.8073 4.35802C12.9171 4.35802 13.0083 4.3321 13.0807 4.28027C13.1532 4.23078 13.2069 4.1601 13.242 4.0682C13.3004 3.90562 13.3296 3.70534 13.3296 3.46736C13.3296 3.43201 13.3261 3.30124 13.3191 3.07504C13.256 3.26825 13.166 3.42848 13.0492 3.55572C12.9323 3.6806 12.8003 3.74304 12.6531 3.74304C12.5058 3.74304 12.3972 3.67706 12.3271 3.54511C12.2593 3.41081 12.2254 3.25883 12.2254 3.08918C12.2254 2.91953 12.2488 2.75459 12.2955 2.59436C12.3423 2.43178 12.4182 2.29276 12.5234 2.1773C12.6285 2.06185 12.7535 2.00412 12.8984 2.00412ZM12.5269 2.54135C12.4965 2.64502 12.4743 2.74281 12.4603 2.8347C12.4462 2.92659 12.4392 3.01967 12.4392 3.11392C12.4392 3.20581 12.4579 3.30831 12.4953 3.42141C12.535 3.53451 12.5923 3.59106 12.6671 3.59106C12.8143 3.59106 12.9452 3.48032 13.0597 3.25883C13.1742 3.03498 13.2314 2.80996 13.2314 2.58376C13.2314 2.506 13.1952 2.41882 13.1228 2.32221C13.0527 2.22325 12.9639 2.17377 12.8564 2.17377C12.7816 2.17377 12.715 2.20911 12.6566 2.2798C12.6005 2.35049 12.5572 2.43767 12.5269 2.54135Z" fill="white"/>
<path d="M16.1493 3.67235C16.1073 3.71712 16.0594 3.7395 16.0056 3.7395C15.9051 3.7395 15.8304 3.68531 15.7813 3.57692C15.7322 3.46853 15.703 3.33658 15.6936 3.18107C15.6866 3.02556 15.682 2.87004 15.6796 2.71453C15.6773 2.55902 15.6644 2.42707 15.6411 2.31868C15.62 2.21029 15.5791 2.1561 15.5184 2.1561C15.4366 2.1561 15.3665 2.23032 15.3081 2.37876C15.252 2.52721 15.2122 2.69215 15.1889 2.87358C15.1234 3.38017 15.0603 3.6641 14.9996 3.72537C14.9575 3.74657 14.9213 3.75718 14.8909 3.75718C14.8605 3.75718 14.8348 3.75364 14.8138 3.74657C14.7647 3.5298 14.7332 3.15633 14.7192 2.62617C14.7145 2.36227 14.7098 2.19144 14.7051 2.11369C14.7542 2.0807 14.7963 2.0642 14.8313 2.0642C14.8664 2.0642 14.8944 2.06774 14.9155 2.07481C14.9271 2.17613 14.933 2.38348 14.933 2.69686C14.9353 3.01024 14.9377 3.1905 14.94 3.23762C14.9517 3.18814 14.9657 3.10803 14.9821 2.99728C15.0008 2.88654 15.0171 2.79582 15.0311 2.72513C15.0452 2.65209 15.0674 2.56726 15.0977 2.47066C15.1281 2.37405 15.162 2.29747 15.1994 2.24092C15.2368 2.18202 15.2882 2.13254 15.3536 2.09248C15.4191 2.05007 15.4927 2.02886 15.5745 2.02886C15.6843 2.02886 15.7638 2.07952 15.8128 2.18084C15.8642 2.2798 15.8923 2.4035 15.897 2.55195C15.9016 2.70039 15.904 2.85119 15.904 3.00435C15.9063 3.15751 15.925 3.29771 15.9601 3.42494C15.9974 3.55218 16.0605 3.63465 16.1493 3.67235Z" fill="white"/>
<path d="M16.5545 3.05383C16.5498 3.10096 16.5475 3.13277 16.5475 3.14926C16.5475 3.29064 16.5896 3.4002 16.6737 3.47796C16.7602 3.55572 16.8618 3.59459 16.9787 3.59459C17.0955 3.59459 17.1902 3.5781 17.2626 3.54511C17.3374 3.51213 17.3911 3.47678 17.4239 3.43908C17.508 3.33305 17.5851 3.28003 17.6552 3.28003C17.6809 3.28003 17.7113 3.2871 17.7463 3.30124C17.723 3.4167 17.6342 3.52273 17.4799 3.61933C17.328 3.71359 17.1364 3.76071 16.9051 3.76071C16.7415 3.76071 16.6001 3.70887 16.4809 3.6052C16.3641 3.49917 16.3056 3.35543 16.3056 3.174C16.3056 2.99257 16.3407 2.81703 16.4108 2.64738C16.4832 2.47537 16.5861 2.32928 16.7193 2.20911C16.8548 2.08659 16.9915 2.02533 17.1294 2.02533C17.2696 2.02533 17.3818 2.05478 17.4659 2.11369C17.5524 2.17024 17.5956 2.25388 17.5956 2.36463C17.5956 2.56962 17.5045 2.73927 17.3222 2.87358C17.1423 3.00553 16.9506 3.0715 16.7473 3.0715C16.6936 3.0715 16.6293 3.06561 16.5545 3.05383ZM16.8209 2.9372C16.9308 2.9372 17.0289 2.90185 17.1154 2.83117C17.2018 2.76048 17.2626 2.68626 17.2977 2.6085C17.335 2.53074 17.3537 2.46006 17.3537 2.39644C17.3537 2.33282 17.3292 2.27745 17.2801 2.23032C17.2311 2.18084 17.1738 2.1561 17.1084 2.1561C16.9915 2.1561 16.8829 2.23739 16.7824 2.39997C16.6842 2.56255 16.6141 2.73102 16.572 2.90539C16.6749 2.92659 16.7578 2.9372 16.8209 2.9372Z" fill="white"/>
<path d="M18.9755 3.36132C18.9381 3.46971 18.8657 3.56161 18.7582 3.63701C18.653 3.71241 18.5374 3.75011 18.4112 3.75011C18.2873 3.75011 18.1903 3.68767 18.1202 3.56278C18.0524 3.43555 18.0186 3.26 18.0186 3.03616C18.0186 2.40468 18.1109 2.08894 18.2955 2.08894C18.3189 2.08894 18.3481 2.09248 18.3831 2.09955C18.3761 2.13725 18.3597 2.20911 18.334 2.31515C18.2826 2.5225 18.2569 2.70511 18.2569 2.86298C18.2569 3.02084 18.2791 3.18814 18.3235 3.36486C18.3679 3.53922 18.431 3.6264 18.5128 3.6264C18.5549 3.6264 18.5958 3.59931 18.6355 3.54511C18.6752 3.49092 18.7068 3.43437 18.7302 3.37546C18.7535 3.3142 18.7781 3.24469 18.8038 3.16693C18.8295 3.08918 18.8458 3.04205 18.8528 3.02556C18.8178 2.88889 18.8003 2.74988 18.8003 2.6085C18.8003 2.60143 18.8003 2.58022 18.8003 2.54488C18.8003 2.50718 18.8014 2.47066 18.8038 2.43531C18.8061 2.39997 18.8131 2.35756 18.8248 2.30808C18.8482 2.20911 18.9113 2.15963 19.0141 2.15963C19.1006 2.15963 19.1438 2.29158 19.1438 2.55548C19.1438 2.60261 19.1368 2.67094 19.1228 2.76048C19.1111 2.85002 19.1052 2.91246 19.1052 2.9478C19.1052 3.05619 19.1566 3.19639 19.2595 3.36839C19.3623 3.5404 19.4581 3.6264 19.5469 3.6264C19.638 3.6264 19.7046 3.57457 19.7467 3.47089C19.7888 3.36721 19.8098 3.25176 19.8098 3.12452C19.8098 2.97843 19.797 2.86769 19.7712 2.79229C19.7479 2.71453 19.7327 2.66387 19.7257 2.64031C19.721 2.61675 19.7058 2.58022 19.6801 2.53074C19.6567 2.47891 19.6415 2.44592 19.6345 2.43178C19.6299 2.41764 19.6123 2.38348 19.582 2.32928C19.5516 2.27509 19.534 2.24446 19.5294 2.23739C19.4616 2.11722 19.4219 2.05124 19.4102 2.03946C19.4686 1.98998 19.5224 1.96524 19.5714 1.96524C19.714 2.06892 19.8273 2.23857 19.9115 2.47419C19.9956 2.70746 20.0377 2.9207 20.0377 3.11392C20.0377 3.30477 19.9968 3.45557 19.915 3.56632C19.8355 3.67471 19.7105 3.7289 19.5399 3.7289C19.4207 3.7289 19.3074 3.69591 19.1999 3.62994C19.0947 3.56161 19.0199 3.47207 18.9755 3.36132Z" fill="white"/>
<path d="M21.2206 1.23009C21.2486 1.17825 21.3 1.15233 21.3748 1.15233C21.3912 1.15233 21.4075 1.15469 21.4239 1.1594C21.4286 1.28428 21.4309 1.63301 21.4309 2.20558C21.4332 2.20322 21.4438 2.19262 21.4625 2.17377C21.4835 2.15492 21.4963 2.14314 21.501 2.13843C21.5057 2.13371 21.5174 2.12311 21.5361 2.10662C21.5548 2.08777 21.5688 2.07598 21.5781 2.07127C21.5898 2.0642 21.605 2.05478 21.6237 2.043C21.6424 2.02886 21.6588 2.01943 21.6728 2.01472C21.6868 2.00765 21.7032 2.00058 21.7219 1.99352C21.7569 1.98173 21.7978 1.97584 21.8445 1.97584C22.0175 1.97584 22.1565 2.04889 22.2617 2.19498C22.3668 2.33871 22.4194 2.50011 22.4194 2.67919C22.4194 2.85826 22.3925 3.02909 22.3388 3.19167C22.285 3.3519 22.2021 3.4921 22.0899 3.61227C21.9777 3.73244 21.8469 3.79252 21.6973 3.79252C21.5501 3.79252 21.4262 3.73715 21.3257 3.6264C21.2276 3.51566 21.1785 3.3896 21.1785 3.24822C21.1785 3.10449 21.1867 2.84059 21.2031 2.45652C21.2194 2.07009 21.2276 1.79323 21.2276 1.62594C21.2276 1.45629 21.2253 1.32434 21.2206 1.23009ZM21.7219 3.61933C21.813 3.61933 21.8948 3.57574 21.9672 3.48856C22.1145 3.31656 22.1881 3.07268 22.1881 2.75694C22.1881 2.58729 22.1553 2.43767 22.0899 2.30808C22.0245 2.17613 21.9322 2.11015 21.813 2.11015C21.7452 2.11015 21.6856 2.14432 21.6342 2.21265C21.5828 2.27862 21.5431 2.36698 21.515 2.47773C21.4613 2.68743 21.4344 2.9207 21.4344 3.17754C21.4344 3.39431 21.4788 3.52744 21.5676 3.57692C21.6073 3.60048 21.6588 3.61462 21.7219 3.61933Z" fill="white"/>
<path d="M22.9422 3.05383C22.9376 3.10096 22.9352 3.13277 22.9352 3.14926C22.9352 3.29064 22.9773 3.4002 23.0614 3.47796C23.1479 3.55572 23.2495 3.59459 23.3664 3.59459C23.4832 3.59459 23.5779 3.5781 23.6503 3.54511C23.7251 3.51213 23.7789 3.47678 23.8116 3.43908C23.8957 3.33305 23.9728 3.28003 24.0429 3.28003C24.0686 3.28003 24.099 3.2871 24.1341 3.30124C24.1107 3.4167 24.0219 3.52273 23.8677 3.61933C23.7158 3.71359 23.5241 3.76071 23.2928 3.76071C23.1292 3.76071 22.9878 3.70887 22.8686 3.6052C22.7518 3.49917 22.6934 3.35543 22.6934 3.174C22.6934 2.99257 22.7284 2.81703 22.7985 2.64738C22.871 2.47537 22.9738 2.32928 23.107 2.20911C23.2425 2.08659 23.3792 2.02533 23.5171 2.02533C23.6573 2.02533 23.7695 2.05478 23.8536 2.11369C23.9401 2.17024 23.9833 2.25388 23.9833 2.36463C23.9833 2.56962 23.8922 2.73927 23.7099 2.87358C23.53 3.00553 23.3384 3.0715 23.135 3.0715C23.0813 3.0715 23.017 3.06561 22.9422 3.05383ZM23.2087 2.9372C23.3185 2.9372 23.4166 2.90185 23.5031 2.83117C23.5896 2.76048 23.6503 2.68626 23.6854 2.6085C23.7228 2.53074 23.7415 2.46006 23.7415 2.39644C23.7415 2.33282 23.7169 2.27745 23.6679 2.23032C23.6188 2.18084 23.5615 2.1561 23.4961 2.1561C23.3792 2.1561 23.2706 2.23739 23.1701 2.39997C23.0719 2.56255 23.0018 2.73102 22.9598 2.90539C23.0626 2.92659 23.1456 2.9372 23.2087 2.9372Z" fill="white"/>
<path d="M25.7383 0.940268C25.6495 1.75082 25.6051 2.32928 25.6051 2.67565C25.6051 3.01967 25.6367 3.36368 25.6998 3.70769C25.653 3.75482 25.6121 3.77838 25.5771 3.77838C25.542 3.77838 25.5128 3.77367 25.4894 3.76424C25.4404 3.58988 25.4112 3.4002 25.4018 3.19521C25.3457 3.28475 25.3037 3.34836 25.2756 3.38607C25.2499 3.42377 25.2043 3.47914 25.1389 3.55218C25.0197 3.69356 24.8783 3.76424 24.7148 3.76424C24.5909 3.76424 24.5009 3.70652 24.4448 3.59106C24.3911 3.47325 24.3642 3.32362 24.3642 3.14219C24.3642 2.9584 24.3841 2.78404 24.4238 2.6191C24.4659 2.45181 24.5372 2.30808 24.6376 2.18791C24.7381 2.06538 24.862 2.00412 25.0092 2.00412C25.098 2.00412 25.1798 2.02297 25.2546 2.06067C25.3294 2.09837 25.3808 2.14903 25.4088 2.21265C25.4135 2.14903 25.4182 2.05124 25.4228 1.91929C25.4275 1.78734 25.4322 1.67071 25.4369 1.56939C25.4439 1.46571 25.4544 1.36086 25.4684 1.25483C25.4941 1.02863 25.5514 0.915527 25.6402 0.915527C25.6706 0.915527 25.7033 0.923774 25.7383 0.940268ZM25.3282 2.33989C25.3002 2.28805 25.2616 2.25035 25.2125 2.22679C25.1634 2.20087 25.098 2.18791 25.0162 2.18791C24.9368 2.18791 24.862 2.23385 24.7919 2.32575C24.654 2.50718 24.5851 2.7699 24.5851 3.11392C24.5851 3.22466 24.6026 3.33541 24.6376 3.44615C24.6727 3.55454 24.7241 3.60873 24.7919 3.60873C24.89 3.60873 24.9858 3.54393 25.0793 3.41434C25.1728 3.28475 25.2452 3.1363 25.2967 2.96901C25.3481 2.79936 25.3738 2.64738 25.3738 2.51307C25.3738 2.44945 25.3586 2.39172 25.3282 2.33989Z" fill="white"/>
<path d="M26.957 2.35756C26.936 2.30336 26.8962 2.26095 26.8378 2.23032C26.7794 2.19969 26.7069 2.18437 26.6205 2.18437C26.534 2.18437 26.4522 2.21029 26.3751 2.26213C26.3003 2.31397 26.2629 2.38348 26.2629 2.47066C26.2629 2.55784 26.298 2.62735 26.3681 2.67919C26.4405 2.72867 26.527 2.76637 26.6275 2.79229C26.7303 2.81821 26.8331 2.84648 26.936 2.87711C27.0388 2.90539 27.1253 2.95369 27.1954 3.02202C27.2678 3.088 27.304 3.17518 27.304 3.28357C27.304 3.44144 27.2386 3.56161 27.1077 3.64408C26.9792 3.72654 26.8238 3.76778 26.6415 3.76778C26.534 3.76778 26.3926 3.73833 26.2174 3.67942C26.0444 3.62051 25.958 3.54982 25.958 3.46736C25.958 3.40609 26.0094 3.37546 26.1122 3.37546C26.1426 3.37546 26.1823 3.39431 26.2314 3.43201C26.3809 3.54276 26.534 3.59813 26.6906 3.59813C26.7747 3.59813 26.8472 3.58399 26.9079 3.55572C27.0201 3.50152 27.0762 3.41434 27.0762 3.29417C27.0762 3.22113 27.04 3.16222 26.9675 3.11745C26.8974 3.07268 26.8109 3.03734 26.7081 3.01142C26.6076 2.9855 26.506 2.95723 26.4031 2.92659C26.3003 2.89596 26.2127 2.8453 26.1402 2.77462C26.0701 2.70157 26.0351 2.60968 26.0351 2.49893C26.0351 2.3552 26.0993 2.23857 26.2279 2.14903C26.3564 2.05949 26.5153 2.01472 26.7046 2.01472C26.8331 2.01472 26.9488 2.04889 27.0516 2.11722C27.1568 2.18319 27.2094 2.2798 27.2094 2.40704C27.2094 2.49186 27.1615 2.53428 27.0657 2.53428C27.0259 2.53428 26.9991 2.52721 26.985 2.51307C26.9734 2.49893 26.9663 2.47419 26.964 2.43885C26.964 2.40115 26.9617 2.37405 26.957 2.35756Z" fill="white"/>
<path d="M28.6576 3.79605C28.6155 3.79605 28.5945 3.43908 28.5945 2.72513C28.5945 2.42353 28.5933 2.24092 28.591 2.1773H28.5209C28.4881 2.1773 28.4624 2.1773 28.4437 2.1773C28.425 2.17495 28.4005 2.17377 28.3701 2.17377C28.3421 2.17141 28.3187 2.16788 28.3 2.16317C28.2837 2.15845 28.2661 2.15256 28.2474 2.14549C28.2124 2.13136 28.1949 2.10662 28.1949 2.07127C28.1949 2.0265 28.2673 2.00412 28.4122 2.00412C28.4753 2.00412 28.5325 2.00648 28.584 2.01119C28.5863 1.96406 28.5875 1.90398 28.5875 1.83093C28.5898 1.75553 28.5921 1.69781 28.5945 1.65775C28.5968 1.61534 28.5991 1.56468 28.6015 1.50577C28.6062 1.44686 28.612 1.40092 28.619 1.36793C28.6284 1.33494 28.64 1.29842 28.6541 1.25836C28.6681 1.21595 28.6868 1.18414 28.7102 1.16293C28.7335 1.14173 28.7604 1.12052 28.7908 1.09932C28.8445 1.05926 28.9333 1.03923 29.0572 1.03923C29.1834 1.03923 29.2757 1.07104 29.3341 1.13466C29.3949 1.19592 29.4486 1.30078 29.4954 1.44922C29.4603 1.49163 29.4194 1.51284 29.3727 1.51284C29.3563 1.51284 29.3399 1.51048 29.3236 1.50577C29.2815 1.39267 29.243 1.31609 29.2079 1.27604C29.1752 1.23598 29.1296 1.21595 29.0712 1.21595C29.0128 1.21595 28.9684 1.22655 28.938 1.24776C28.91 1.26897 28.8878 1.29606 28.8714 1.32905C28.8363 1.39974 28.8188 1.57057 28.8188 1.84154C28.8188 1.85332 28.8188 1.87452 28.8188 1.90516C28.8188 1.93579 28.8188 1.96406 28.8188 1.98998L29.1168 1.96171C29.2336 1.96171 29.292 1.9888 29.292 2.043C29.292 2.07834 29.264 2.1019 29.2079 2.11369C29.1518 2.12547 29.0806 2.13254 28.9941 2.13489C28.91 2.13725 28.8515 2.14432 28.8188 2.1561C28.8141 2.22207 28.8118 2.30925 28.8118 2.41764C28.8118 2.52367 28.8176 2.69332 28.8293 2.92659C28.841 3.15751 28.8469 3.33423 28.8469 3.45675C28.8469 3.57928 28.834 3.66646 28.8083 3.7183C28.7849 3.77014 28.7347 3.79605 28.6576 3.79605Z" fill="white"/>
<path d="M29.5614 2.30454C29.6805 2.12075 29.8523 2.02886 30.0766 2.02886C30.301 2.02886 30.4798 2.12075 30.613 2.30454C30.7485 2.48833 30.8163 2.69804 30.8163 2.93366C30.8163 3.16693 30.7427 3.36486 30.5954 3.52744C30.4482 3.69002 30.2613 3.77131 30.0346 3.77131C29.8079 3.77131 29.6431 3.70769 29.5403 3.58046C29.4375 3.45086 29.3861 3.26943 29.3861 3.03616C29.3861 2.7322 29.4445 2.48833 29.5614 2.30454ZM29.7156 2.49186C29.6852 2.58376 29.6618 2.67565 29.6455 2.76755C29.6315 2.85944 29.6245 2.94544 29.6245 3.02556C29.6245 3.10331 29.6303 3.17518 29.642 3.24116C29.6537 3.30477 29.6735 3.36839 29.7016 3.43201C29.7296 3.49327 29.7717 3.54276 29.8278 3.58046C29.8839 3.6158 29.9505 3.63347 30.0276 3.63347C30.1841 3.63347 30.315 3.56868 30.4202 3.43908C30.5277 3.30949 30.5814 3.1528 30.5814 2.96901C30.5814 2.78522 30.5323 2.60732 30.4342 2.43531C30.3384 2.26095 30.2204 2.17377 30.0802 2.17377C29.996 2.17377 29.9224 2.20322 29.8593 2.26213C29.7962 2.32104 29.7483 2.39761 29.7156 2.49186Z" fill="white"/>
<path d="M31.5042 3.42494L31.5147 3.6264C31.5147 3.67824 31.4995 3.71476 31.4691 3.73597C31.4411 3.75482 31.4118 3.76424 31.3815 3.76424C31.3534 3.76424 31.3242 3.75953 31.2938 3.75011C31.2424 3.47678 31.2027 3.1363 31.1746 2.72867C31.1489 2.32104 31.1338 2.09012 31.1291 2.03593C31.1641 2.00294 31.2004 1.98645 31.2377 1.98645C31.2775 1.98645 31.3125 1.99116 31.3429 2.00058C31.3523 2.06892 31.3593 2.21972 31.3639 2.45299C31.3686 2.68626 31.3745 2.83234 31.3815 2.89125C31.4142 2.69332 31.4726 2.50836 31.5567 2.33635C31.6035 2.23975 31.6642 2.16317 31.739 2.10662C31.8161 2.04771 31.8979 2.01826 31.9844 2.01826C32.0732 2.01826 32.1538 2.05831 32.2263 2.13843C32.301 2.21618 32.3384 2.28687 32.3384 2.35049C32.3384 2.37405 32.3244 2.3929 32.2964 2.40704C32.2683 2.41882 32.2368 2.42471 32.2017 2.42471C32.169 2.42471 32.1433 2.41175 32.1246 2.38583C32.1059 2.35991 32.0931 2.33164 32.086 2.30101C32.079 2.26802 32.0638 2.23857 32.0405 2.21265C32.0171 2.18673 31.9856 2.17377 31.9458 2.17377C31.8407 2.17377 31.7507 2.2692 31.6759 2.46006C31.5614 2.74516 31.5042 3.06679 31.5042 3.42494Z" fill="white"/>
<path d="M33.632 1.1488C33.6343 1.31374 33.6355 1.43744 33.6355 1.51991C33.6355 1.60002 33.6343 1.68013 33.632 1.76025C33.632 1.84036 33.6285 1.99587 33.6215 2.22679C33.6145 2.45534 33.6098 2.63677 33.6075 2.77108C33.6963 2.70982 33.8026 2.61557 33.9265 2.48833C34.0503 2.35874 34.1625 2.24799 34.263 2.1561C34.4219 2.01237 34.5352 1.96878 34.603 2.02533C34.6287 2.04653 34.6369 2.06656 34.6275 2.08541C34.6042 2.13489 34.5504 2.19498 34.4663 2.26566C34.3845 2.33635 34.2875 2.41646 34.1753 2.506C34.0632 2.59554 33.9744 2.67801 33.9089 2.75341C34.0795 2.77697 34.2162 2.87358 34.3191 3.04323C34.3635 3.12099 34.4067 3.19874 34.4488 3.2765C34.5563 3.48149 34.6731 3.62051 34.7993 3.69356C34.7526 3.74068 34.6988 3.76424 34.638 3.76424C34.5773 3.76424 34.5165 3.73479 34.4558 3.67588C34.3973 3.61698 34.3459 3.54511 34.3015 3.46029C34.2595 3.37546 34.2162 3.29064 34.1718 3.20581C34.0713 3.00082 33.9545 2.89832 33.8213 2.89832C33.7582 2.89832 33.7044 2.91953 33.66 2.96194C33.6156 3.00199 33.5934 3.04441 33.5934 3.08918C33.5934 3.37193 33.5888 3.58163 33.5794 3.7183C33.5467 3.76307 33.5116 3.78545 33.4743 3.78545C33.4626 3.78545 33.4497 3.78309 33.4357 3.77838C33.3843 3.75718 33.3586 3.71359 33.3586 3.64761C33.3609 3.58163 33.3679 3.38135 33.3796 3.04676C33.4053 2.19144 33.4182 1.64479 33.4182 1.40681C33.4182 1.29606 33.4287 1.22184 33.4497 1.18414C33.4731 1.14644 33.5 1.12759 33.5303 1.12759C33.5631 1.12759 33.597 1.13466 33.632 1.1488Z" fill="white"/>
<path d="M35.2504 1.17C35.248 1.2242 35.2469 1.28428 35.2469 1.35026C35.2469 1.41623 35.2504 1.48456 35.2574 1.55525C35.2247 1.59295 35.1803 1.6118 35.1242 1.6118C35.0541 1.6118 35.019 1.55525 35.019 1.44215C35.019 1.43744 35.019 1.41977 35.019 1.38914C35.019 1.3585 35.019 1.33141 35.019 1.30784C35.0213 1.28193 35.026 1.25247 35.033 1.21948C35.0494 1.16293 35.0856 1.13466 35.1417 1.13466C35.1978 1.13466 35.234 1.14644 35.2504 1.17ZM35.026 2.90185C35.026 2.44003 35.0494 2.17377 35.0961 2.10308C35.1125 2.07716 35.1323 2.0642 35.1557 2.0642C35.1791 2.0642 35.2176 2.07716 35.2714 2.10308C35.2597 2.30336 35.2539 2.52132 35.2539 2.75694C35.2539 2.75694 35.2562 3.01731 35.2609 3.53804C35.2609 3.61109 35.2445 3.66293 35.2118 3.69356C35.1814 3.72183 35.1522 3.73597 35.1242 3.73597C35.0985 3.73597 35.0716 3.7289 35.0435 3.71476C35.0319 3.40845 35.026 3.13748 35.026 2.90185Z" fill="white"/>
<path d="M37.0213 0.940268C36.9325 1.75082 36.8881 2.32928 36.8881 2.67565C36.8881 3.01967 36.9196 3.36368 36.9827 3.70769C36.936 3.75482 36.8951 3.77838 36.86 3.77838C36.825 3.77838 36.7957 3.77367 36.7724 3.76424C36.7233 3.58988 36.6941 3.4002 36.6847 3.19521C36.6287 3.28475 36.5866 3.34836 36.5586 3.38607C36.5328 3.42377 36.4873 3.47914 36.4218 3.55218C36.3027 3.69356 36.1613 3.76424 35.9977 3.76424C35.8738 3.76424 35.7839 3.70652 35.7278 3.59106C35.674 3.47325 35.6471 3.32362 35.6471 3.14219C35.6471 2.9584 35.667 2.78404 35.7067 2.6191C35.7488 2.45181 35.8201 2.30808 35.9206 2.18791C36.0211 2.06538 36.1449 2.00412 36.2921 2.00412C36.3809 2.00412 36.4627 2.02297 36.5375 2.06067C36.6123 2.09837 36.6637 2.14903 36.6918 2.21265C36.6964 2.14903 36.7011 2.05124 36.7058 1.91929C36.7104 1.78734 36.7151 1.67071 36.7198 1.56939C36.7268 1.46571 36.7373 1.36086 36.7513 1.25483C36.7771 1.02863 36.8343 0.915527 36.9231 0.915527C36.9535 0.915527 36.9862 0.923774 37.0213 0.940268ZM36.6111 2.33989C36.5831 2.28805 36.5445 2.25035 36.4955 2.22679C36.4464 2.20087 36.3809 2.18791 36.2992 2.18791C36.2197 2.18791 36.1449 2.23385 36.0748 2.32575C35.9369 2.50718 35.868 2.7699 35.868 3.11392C35.868 3.22466 35.8855 3.33541 35.9206 3.44615C35.9556 3.55454 36.007 3.60873 36.0748 3.60873C36.173 3.60873 36.2688 3.54393 36.3622 3.41434C36.4557 3.28475 36.5282 3.1363 36.5796 2.96901C36.631 2.79936 36.6567 2.64738 36.6567 2.51307C36.6567 2.44945 36.6415 2.39172 36.6111 2.33989Z" fill="white"/>
<path d="M38.2399 2.35756C38.2189 2.30336 38.1792 2.26095 38.1207 2.23032C38.0623 2.19969 37.9899 2.18437 37.9034 2.18437C37.8169 2.18437 37.7351 2.21029 37.658 2.26213C37.5833 2.31397 37.5459 2.38348 37.5459 2.47066C37.5459 2.55784 37.5809 2.62735 37.651 2.67919C37.7235 2.72867 37.8099 2.76637 37.9104 2.79229C38.0132 2.81821 38.1161 2.84648 38.2189 2.87711C38.3217 2.90539 38.4082 2.95369 38.4783 3.02202C38.5507 3.088 38.587 3.17518 38.587 3.28357C38.587 3.44144 38.5215 3.56161 38.3907 3.64408C38.2621 3.72654 38.1067 3.76778 37.9244 3.76778C37.8169 3.76778 37.6756 3.73833 37.5003 3.67942C37.3274 3.62051 37.2409 3.54982 37.2409 3.46736C37.2409 3.40609 37.2923 3.37546 37.3951 3.37546C37.4255 3.37546 37.4652 3.39431 37.5143 3.43201C37.6639 3.54276 37.8169 3.59813 37.9735 3.59813C38.0576 3.59813 38.1301 3.58399 38.1909 3.55572C38.303 3.50152 38.3591 3.41434 38.3591 3.29417C38.3591 3.22113 38.3229 3.16222 38.2504 3.11745C38.1803 3.07268 38.0939 3.03734 37.991 3.01142C37.8906 2.9855 37.7889 2.95723 37.6861 2.92659C37.5833 2.89596 37.4956 2.8453 37.4232 2.77462C37.3531 2.70157 37.318 2.60968 37.318 2.49893C37.318 2.3552 37.3823 2.23857 37.5108 2.14903C37.6393 2.05949 37.7983 2.01472 37.9875 2.01472C38.1161 2.01472 38.2317 2.04889 38.3346 2.11722C38.4397 2.18319 38.4923 2.2798 38.4923 2.40704C38.4923 2.49186 38.4444 2.53428 38.3486 2.53428C38.3089 2.53428 38.282 2.52721 38.268 2.51307C38.2563 2.49893 38.2493 2.47419 38.2469 2.43885C38.2469 2.40115 38.2446 2.37405 38.2399 2.35756Z" fill="white"/>
</svg>
