<svg width="52" height="6" viewBox="0 0 52 6" fill="none" xmlns="http://www.w3.org/2000/svg">
<path d="M1.01418 2.6519C1.01155 2.16125 0.988947 1.72889 0.946385 1.35483C0.945862 1.25733 0.985958 1.17219 1.06667 1.09942C1.14739 1.02664 1.25471 0.971022 1.38864 0.932559C1.65654 0.861925 1.95113 0.825745 2.27243 0.824019C2.68731 0.821792 3.01378 0.912825 3.25185 1.09712C3.49302 1.27825 3.61463 1.5591 3.61667 1.93967C3.61872 2.32024 3.46751 2.62614 3.16304 2.85738C2.85857 3.08863 2.48642 3.20543 2.04659 3.20779C1.822 3.209 1.58623 3.16308 1.33929 3.07005C1.3245 3.2211 1.3178 3.42558 1.31919 3.68349L1.32511 3.91464C1.32551 3.99012 1.32438 4.06876 1.3217 4.15055C1.30622 4.17265 1.28915 4.18847 1.27048 4.19801C1.25181 4.20754 1.23781 4.21391 1.22847 4.2171C1.22226 4.22343 1.21137 4.2282 1.19579 4.23143C1.18021 4.23466 1.1693 4.23629 1.16306 4.23633C1.14438 4.24272 1.12256 4.24598 1.09761 4.24611L1.01806 4.24654C1.01056 4.01068 1.0063 3.7984 1.00529 3.60969L1.01418 2.6519ZM1.32811 2.73042C1.55665 2.88331 1.83001 2.9589 2.14819 2.95719C2.46635 2.95234 2.73408 2.85183 2.95139 2.65565C3.16868 2.45633 3.27656 2.21356 3.27503 1.92735C3.27349 1.64114 3.16004 1.42787 2.93469 1.28754C2.70933 1.14721 2.43913 1.07789 2.12407 1.07958C1.81213 1.08126 1.53645 1.15508 1.29704 1.30105C1.31373 1.5054 1.32409 1.98186 1.32811 2.73042Z" fill="white"/>
<path d="M4.48189 3.6901L4.49737 3.95894C4.49775 4.02813 4.47773 4.07699 4.43733 4.10551C4.40003 4.13088 4.36111 4.14367 4.32056 4.14388C4.28312 4.14408 4.2441 4.138 4.20348 4.12564C4.13289 3.76117 4.07742 3.30697 4.03707 2.76305C3.99983 2.21912 3.9779 1.911 3.97128 1.83869C4.01783 1.7944 4.06606 1.77213 4.11597 1.77186C4.169 1.77158 4.21583 1.77762 4.25645 1.78998C4.26941 1.88112 4.27985 2.08236 4.28776 2.39371C4.29567 2.70505 4.30452 2.90001 4.3143 2.97859C4.35655 2.71416 4.43321 2.46684 4.54428 2.23664C4.60597 2.10735 4.68653 2.00469 4.78594 1.92867C4.88846 1.84949 4.99743 1.80959 5.11284 1.80897C5.23138 1.80833 5.33929 1.86122 5.43656 1.96764C5.53694 2.0709 5.58736 2.16498 5.58781 2.2499C5.58798 2.28136 5.5694 2.30662 5.53207 2.32569C5.49472 2.34162 5.45265 2.34971 5.40586 2.34996C5.36219 2.35019 5.32778 2.33308 5.30264 2.29862C5.2775 2.26415 5.26014 2.2265 5.25056 2.18566C5.24097 2.14168 5.22048 2.10248 5.1891 2.06805C5.15772 2.03362 5.11552 2.01654 5.06249 2.01683C4.92212 2.01758 4.8027 2.14561 4.70425 2.40091C4.55345 2.7823 4.47933 3.21203 4.48189 3.6901Z" fill="white"/>
<path d="M6.02044 2.18625C6.17821 1.94007 6.40683 1.81617 6.70629 1.81457C7.00575 1.81296 7.24504 1.93434 7.42416 2.17871C7.60641 2.42306 7.69837 2.7025 7.70006 3.01702C7.70173 3.3284 7.60489 3.59312 7.40953 3.8112C7.21418 4.02927 6.96521 4.13912 6.66263 4.14074C6.36005 4.14237 6.13968 4.05863 6.00151 3.88952C5.86333 3.71728 5.7934 3.47546 5.79173 3.16409C5.78955 2.75836 5.86579 2.43241 6.02044 2.18625ZM6.22766 2.43519C6.18777 2.55807 6.15724 2.6809 6.13606 2.80368C6.118 2.92644 6.10926 3.04129 6.10983 3.14823C6.11039 3.25202 6.1187 3.34791 6.13477 3.43589C6.15083 3.52072 6.1778 3.6055 6.21569 3.69022C6.25356 3.7718 6.31006 3.83754 6.3852 3.88746C6.46032 3.93424 6.54935 3.95735 6.65228 3.9568C6.86128 3.95568 7.0355 3.86825 7.17495 3.69451C7.31751 3.52075 7.38813 3.31121 7.38681 3.06588C7.3855 2.82056 7.31872 2.58345 7.18647 2.35455C7.05732 2.12249 6.89917 2.00697 6.71201 2.00797C6.59971 2.00857 6.50166 2.04842 6.41786 2.1275C6.33406 2.20658 6.27066 2.30914 6.22766 2.43519Z" fill="white"/>
<path d="M7.91533 1.86469C7.94308 1.80478 8.00375 1.77457 8.09733 1.77407C8.13788 1.77385 8.17225 1.78311 8.20042 1.80183C8.28907 2.04354 8.37616 2.28683 8.4617 2.5317C8.6232 2.98061 8.77328 3.33522 8.91194 3.59554C8.97538 3.21147 9.09964 2.82393 9.28471 2.43292C9.4729 2.0419 9.64498 1.84597 9.80095 1.84513C9.84774 1.84488 9.89459 1.85563 9.94149 1.8774C9.58532 2.35425 9.33135 2.98467 9.17958 3.76867C9.14937 3.95125 9.11561 4.05523 9.07831 4.08059C9.03791 4.10912 8.99588 4.1235 8.95221 4.12373C8.90854 4.12397 8.87417 4.11471 8.84911 4.09598C8.82718 4.07722 8.80992 4.05844 8.79734 4.03964C8.78788 4.02082 8.77368 3.98944 8.75472 3.94551C8.73889 3.90156 8.72625 3.87175 8.71681 3.85607C8.39541 3.25705 8.12825 2.59325 7.91533 1.86469Z" fill="white"/>
<path d="M10.5629 0.647399C10.5602 0.719756 10.5591 0.799967 10.5595 0.888032C10.56 0.976098 10.5652 1.06728 10.575 1.16159C10.5316 1.21215 10.4725 1.23763 10.3976 1.23803C10.3041 1.23853 10.2569 1.1633 10.2561 1.01233C10.256 1.00604 10.2559 0.982449 10.2557 0.941561C10.2555 0.900674 10.2553 0.864504 10.2551 0.833052C10.258 0.798438 10.2641 0.759089 10.2732 0.715006C10.2946 0.639404 10.3428 0.601402 10.4176 0.601C10.4925 0.600598 10.5409 0.616065 10.5629 0.647399ZM10.2759 2.96073C10.2726 2.34427 10.3019 1.9887 10.3637 1.894C10.3854 1.85929 10.4118 1.84185 10.443 1.84168C10.4742 1.84151 10.5258 1.85854 10.5977 1.89275C10.5835 2.16017 10.5773 2.45115 10.579 2.76567C10.579 2.76567 10.584 3.11319 10.5939 3.80825C10.5945 3.90575 10.573 3.97506 10.5295 4.01618C10.4892 4.05414 10.4503 4.07323 10.4129 4.07343C10.3786 4.07361 10.3426 4.06437 10.3051 4.0457C10.2873 3.63691 10.2776 3.27525 10.2759 2.96073Z" fill="white"/>
<path d="M12.9251 0.328049C12.8124 1.41063 12.7573 2.1831 12.7598 2.64544C12.7622 3.10464 12.8068 3.56362 12.8935 4.02236C12.8314 4.0856 12.777 4.11735 12.7302 4.1176C12.6834 4.11785 12.6444 4.11177 12.6132 4.09935C12.5464 3.86696 12.506 3.61398 12.4921 3.34042C12.4179 3.46034 12.3622 3.54556 12.325 3.59608C12.291 3.64659 12.2305 3.72083 12.1437 3.8188C11.9857 4.00837 11.7974 4.10374 11.5791 4.10491C11.4138 4.1058 11.2932 4.02938 11.2175 3.87567C11.145 3.7188 11.108 3.51927 11.1067 3.27709C11.1054 3.03176 11.1307 2.79887 11.1825 2.57843C11.2375 2.35482 11.3316 2.16245 11.4648 2.00132C11.5981 1.83705 11.763 1.75439 11.9595 1.75333C12.078 1.7527 12.1874 1.77727 12.2874 1.82706C12.3875 1.87685 12.4565 1.9441 12.4944 2.02882C12.5002 1.94386 12.5057 1.81331 12.511 1.63714C12.5163 1.46098 12.5217 1.30526 12.5272 1.16998C12.5359 1.03154 12.5491 0.891503 12.5671 0.749868C12.5998 0.447745 12.6754 0.296365 12.7939 0.295728C12.8345 0.29551 12.8782 0.306284 12.9251 0.328049ZM12.3877 2.19924C12.3499 2.13024 12.2982 2.0802 12.2325 2.0491C12.1668 2.01485 12.0794 1.99802 11.9702 1.99861C11.8641 1.99918 11.7646 2.06105 11.6717 2.18421C11.489 2.42738 11.3988 2.77856 11.4013 3.23776C11.4021 3.38559 11.4263 3.53329 11.4739 3.68086C11.5214 3.82529 11.5904 3.89726 11.6809 3.89677C11.8119 3.89607 11.9393 3.80889 12.0632 3.63523C12.187 3.46158 12.2827 3.26291 12.3501 3.03923C12.4175 2.81241 12.4507 2.60936 12.4498 2.43008C12.4493 2.34516 12.4286 2.26821 12.3877 2.19924Z" fill="white"/>
<path d="M13.7112 0.630494C13.7085 0.70285 13.7074 0.783061 13.7079 0.871127C13.7083 0.959192 13.7135 1.05038 13.7234 1.14468C13.68 1.19524 13.6208 1.22072 13.546 1.22112C13.4524 1.22163 13.4052 1.14639 13.4044 0.995423C13.4043 0.989132 13.4042 0.965543 13.404 0.924656C13.4038 0.883768 13.4036 0.847598 13.4034 0.816146C13.4064 0.781532 13.4124 0.742184 13.4215 0.698101C13.4429 0.622499 13.4911 0.584497 13.5659 0.584095C13.6408 0.583693 13.6892 0.599159 13.7112 0.630494ZM13.4242 2.94382C13.4209 2.32736 13.4502 1.97179 13.5121 1.8771C13.5337 1.84238 13.5601 1.82494 13.5913 1.82478C13.6225 1.82461 13.6741 1.84163 13.746 1.87584C13.7319 2.14327 13.7256 2.43424 13.7273 2.74876C13.7273 2.74876 13.7323 3.09629 13.7423 3.79134C13.7428 3.88885 13.7213 3.95816 13.6779 3.99928C13.6375 4.03724 13.5986 4.05632 13.5612 4.05652C13.5269 4.05671 13.491 4.04746 13.4534 4.02879C13.4356 3.62 13.4259 3.25834 13.4242 2.94382Z" fill="white"/>
<path d="M16.2568 3.95712C16.201 4.01718 16.1372 4.04741 16.0654 4.04779C15.9313 4.04851 15.8311 3.97671 15.7648 3.83238C15.6985 3.68805 15.6586 3.51213 15.645 3.30462C15.6345 3.09708 15.6272 2.88953 15.6229 2.68197C15.6187 2.4744 15.6006 2.29836 15.5686 2.15385C15.5398 2.00932 15.4848 1.93727 15.4037 1.93771C15.2945 1.9383 15.2015 2.03787 15.1245 2.23644C15.0507 2.43499 14.9989 2.65544 14.969 2.89779C14.8853 3.57447 14.8031 3.95392 14.7224 4.03613C14.6664 4.06474 14.6182 4.07915 14.5776 4.07937C14.5371 4.07959 14.5027 4.07505 14.4746 4.06577C14.4075 3.77676 14.3628 3.27848 14.3402 2.57091C14.3321 2.21868 14.3246 1.99068 14.3178 1.88693C14.3831 1.84254 14.4391 1.82022 14.4859 1.81997C14.5327 1.81972 14.5702 1.82424 14.5983 1.83352C14.6146 1.96868 14.6239 2.24542 14.6262 2.66373C14.6315 3.08202 14.6359 3.32261 14.6394 3.3855C14.6546 3.31937 14.6728 3.21233 14.6938 3.06439C14.718 2.91643 14.7392 2.79522 14.7574 2.70077C14.7756 2.60317 14.8046 2.48978 14.8445 2.36061C14.8843 2.23144 14.929 2.12898 14.9785 2.05322C15.028 1.97433 15.0963 1.90791 15.1833 1.85397C15.2704 1.79689 15.3685 1.76805 15.4777 1.76747C15.6243 1.76668 15.7307 1.83373 15.7969 1.96862C15.8663 2.10035 15.9046 2.26528 15.9119 2.46339C15.9192 2.6615 15.9234 2.86278 15.9245 3.06722C15.9287 3.27164 15.9547 3.45864 16.0024 3.62823C16.0532 3.79781 16.138 3.90744 16.2568 3.95712Z" fill="white"/>
<path d="M17.3659 1.7243C17.6497 1.72278 17.8469 1.8381 17.9573 2.07025C18.0172 2.1926 18.0662 2.30871 18.1042 2.41859C18.1423 2.52847 18.168 2.67931 18.1815 2.8711C18.2018 3.1635 18.213 3.49684 18.215 3.87112C18.217 4.24225 18.1297 4.53838 17.953 4.7595C17.7796 4.98375 17.5228 5.09678 17.1828 5.09861C16.8459 5.10042 16.5646 4.99184 16.3388 4.77289C16.4008 4.70965 16.4677 4.67783 16.5395 4.67745C16.6143 4.67705 16.7159 4.70796 16.8441 4.77017C16.9755 4.83552 17.1145 4.8678 17.2611 4.86701C17.4077 4.86622 17.5292 4.83097 17.6255 4.76126C17.7219 4.69469 17.7931 4.59995 17.8392 4.47703C17.916 4.2596 17.9536 3.99205 17.9519 3.67438C17.9516 3.6272 17.946 3.45267 17.935 3.15078C17.8522 3.40914 17.7333 3.62366 17.5782 3.79434C17.4231 3.96187 17.2473 4.04616 17.0508 4.04722C16.8543 4.04827 16.7088 3.96099 16.6142 3.78536C16.5228 3.60657 16.4765 3.40395 16.4753 3.17749C16.4741 2.95104 16.5041 2.7307 16.5653 2.5165C16.6265 2.29914 16.7269 2.11303 16.8665 1.95816C17.006 1.80329 17.1725 1.72534 17.3659 1.7243ZM16.8737 2.44407C16.8339 2.58268 16.805 2.71336 16.7869 2.83613C16.7689 2.95889 16.7602 3.08317 16.7609 3.20898C16.7615 3.33165 16.7872 3.46833 16.8379 3.61903C16.8918 3.76971 16.9686 3.84479 17.0684 3.84425C17.265 3.8432 17.4388 3.69443 17.5901 3.39797C17.7414 3.09835 17.8162 2.79757 17.8145 2.49563C17.814 2.39184 17.765 2.27573 17.6676 2.1473C17.5733 2.0157 17.4544 1.95029 17.3109 1.95106C17.2111 1.95159 17.1225 1.99925 17.045 2.09402C16.9706 2.18878 16.9136 2.30546 16.8737 2.44407Z" fill="white"/>
<path d="M21.7172 3.9278C21.6614 3.98786 21.5976 4.01809 21.5259 4.01847C21.3917 4.01919 21.2915 3.94739 21.2253 3.80306C21.159 3.65873 21.119 3.48281 21.1054 3.27529C21.095 3.06776 21.0876 2.86021 21.0834 2.65265C21.0791 2.44508 21.061 2.26904 21.0291 2.12453C21.0002 1.98 20.9452 1.90795 20.8641 1.90839C20.755 1.90898 20.6619 2.00855 20.585 2.20712C20.5112 2.40567 20.4593 2.62612 20.4294 2.86846C20.3457 3.54515 20.2635 3.9246 20.1829 4.00681C20.1269 4.03542 20.0786 4.04983 20.0381 4.05005C19.9975 4.05027 19.9632 4.04573 19.935 4.03645C19.868 3.74744 19.8232 3.24915 19.8007 2.54158C19.7925 2.18936 19.7851 1.96136 19.7783 1.8576C19.8436 1.81322 19.8996 1.7909 19.9464 1.79065C19.9932 1.7904 20.0306 1.79492 20.0588 1.8042C20.0751 1.93936 20.0844 2.2161 20.0866 2.63441C20.092 3.0527 20.0964 3.29329 20.0998 3.35618C20.1151 3.29005 20.1332 3.18301 20.1543 3.03507C20.1784 2.88711 20.1996 2.7659 20.2178 2.67145C20.236 2.57385 20.265 2.46046 20.3049 2.33129C20.3448 2.20212 20.3894 2.09966 20.439 2.0239C20.4884 1.945 20.5567 1.87859 20.6438 1.82465C20.7308 1.76757 20.8289 1.73873 20.9381 1.73815C21.0847 1.73736 21.1911 1.80441 21.2574 1.9393C21.3267 2.07103 21.365 2.23595 21.3723 2.43407C21.3796 2.63218 21.3838 2.83346 21.3849 3.0379C21.3891 3.24232 21.4151 3.42932 21.4628 3.59891C21.5136 3.76849 21.5984 3.87812 21.7172 3.9278Z" fill="white"/>
<path d="M22.2536 3.09928C22.2477 3.16222 22.2448 3.2047 22.245 3.22671C22.246 3.41543 22.3029 3.56138 22.4158 3.66456C22.5317 3.76774 22.6677 3.8189 22.8237 3.81807C22.9797 3.81723 23.1059 3.79453 23.2023 3.74998C23.3019 3.70541 23.3734 3.65785 23.4168 3.60729C23.5284 3.46516 23.6309 3.39384 23.7245 3.39333C23.7588 3.39315 23.7994 3.40237 23.8463 3.42099C23.8159 3.57527 23.6982 3.71744 23.493 3.8475C23.2909 3.97439 23.0354 4.03867 22.7266 4.04033C22.5083 4.0415 22.3192 3.97332 22.1593 3.83579C22.0026 3.69509 21.9236 3.50365 21.9223 3.26147C21.921 3.01929 21.9665 2.78472 22.0589 2.55777C22.1544 2.32765 22.2906 2.13191 22.4675 1.97055C22.6475 1.80603 22.8296 1.72327 23.0136 1.72228C23.2008 1.72128 23.3507 1.75979 23.4635 1.83782C23.5793 1.91268 23.6376 2.02403 23.6384 2.17185C23.6399 2.44548 23.5194 2.67259 23.2771 2.85317C23.0378 3.03059 22.7825 3.12003 22.5111 3.12149C22.4394 3.12188 22.3535 3.11447 22.2536 3.09928ZM22.6084 2.94169C22.755 2.9409 22.8858 2.89302 23.0007 2.79804C23.1156 2.70307 23.1962 2.60356 23.2424 2.49951C23.2918 2.39545 23.3162 2.30096 23.3158 2.21604C23.3153 2.13112 23.2822 2.05739 23.2163 1.99483C23.1504 1.92914 23.0738 1.89652 22.9865 1.89699C22.8305 1.89783 22.6861 2.00712 22.5531 2.22486C22.4232 2.44258 22.3309 2.66796 22.276 2.90101C22.4134 2.92858 22.5242 2.94214 22.6084 2.94169Z" fill="white"/>
<path d="M25.4875 3.49238C25.4383 3.63733 25.3423 3.76051 25.1993 3.86193C25.0595 3.96333 24.9054 4.01448 24.7369 4.01538C24.5716 4.01627 24.4417 3.93362 24.3472 3.76742C24.2559 3.59807 24.2094 3.36399 24.2078 3.0652C24.2032 2.22229 24.3242 1.80017 24.5706 1.79885C24.6018 1.79868 24.6408 1.80319 24.6877 1.81237C24.6786 1.86274 24.6573 1.95879 24.6237 2.10051C24.5566 2.37765 24.5236 2.62159 24.5247 2.83232C24.5258 3.04305 24.5567 3.2662 24.6172 3.50177C24.6777 3.7342 24.7626 3.85012 24.8717 3.84953C24.9279 3.84923 24.9823 3.81277 25.0349 3.74014C25.0876 3.66752 25.1293 3.59181 25.16 3.51301C25.1908 3.43107 25.2231 3.33811 25.2568 3.23413C25.2906 3.13016 25.3121 3.06713 25.3213 3.04507C25.2735 2.8629 25.2491 2.67746 25.2481 2.48874C25.2481 2.47931 25.2479 2.451 25.2477 2.40382C25.2474 2.3535 25.2487 2.30474 25.2516 2.25755C25.2544 2.21035 25.2635 2.15369 25.2787 2.08755C25.3092 1.95529 25.3931 1.88879 25.5303 1.88805C25.6457 1.88743 25.7044 2.06325 25.7063 2.41551C25.7066 2.47842 25.6978 2.56968 25.6797 2.6893C25.6647 2.8089 25.6574 2.89229 25.6576 2.93947C25.6584 3.08415 25.728 3.27092 25.8665 3.49978C26.005 3.72864 26.1335 3.84276 26.2521 3.84212C26.3737 3.84147 26.4623 3.77179 26.5177 3.6331C26.5731 3.49441 26.6003 3.34015 26.5994 3.17031C26.5984 2.9753 26.5804 2.82757 26.5455 2.72711C26.5138 2.62349 26.4932 2.55597 26.4836 2.52457C26.4772 2.49315 26.4567 2.44451 26.422 2.37865C26.3905 2.30962 26.3699 2.26569 26.3605 2.24687C26.3541 2.22804 26.3305 2.18256 26.2896 2.11043C26.2486 2.03831 26.225 1.99755 26.2187 1.98815C26.1274 1.82823 26.0739 1.74045 26.0582 1.72481C26.1358 1.65834 26.2074 1.62493 26.2729 1.62458C26.4639 1.76194 26.6164 1.98759 26.7304 2.3015C26.8444 2.61227 26.9021 2.89661 26.9035 3.15452C26.9048 3.40928 26.8513 3.61087 26.7429 3.75928C26.6377 3.90453 26.4712 3.97776 26.2434 3.97898C26.0844 3.97984 25.9328 3.93662 25.7889 3.84932C25.648 3.75887 25.5475 3.63988 25.4875 3.49238Z" fill="white"/>
<path d="M28.469 0.631454C28.506 0.562058 28.5745 0.527093 28.6743 0.526557C28.6961 0.526439 28.718 0.529467 28.7398 0.535641C28.747 0.702303 28.7526 1.16778 28.7567 1.93206C28.7598 1.9289 28.7738 1.91467 28.7986 1.88937C28.8265 1.86406 28.8436 1.84824 28.8498 1.84192C28.856 1.83559 28.8715 1.82136 28.8964 1.79921C28.9212 1.77391 28.9398 1.75808 28.9523 1.75173C28.9678 1.74221 28.988 1.72952 29.0129 1.71366C29.0377 1.69465 29.0595 1.68196 29.0782 1.67556C29.0969 1.66603 29.1186 1.65648 29.1435 1.64691C29.1902 1.63093 29.2448 1.62277 29.3072 1.62244C29.538 1.6212 29.7241 1.7177 29.8656 1.91195C30.007 2.10305 30.0783 2.31812 30.0796 2.55716C30.0809 2.79619 30.0462 3.02441 29.9756 3.24182C29.905 3.45608 29.7953 3.64381 29.6464 3.80502C29.4976 3.96623 29.3233 4.04737 29.1237 4.04844C28.9272 4.0495 28.7614 3.97647 28.6265 3.82937C28.4947 3.68225 28.4283 3.51433 28.4273 3.32562C28.4262 3.13376 28.4353 2.78144 28.4544 2.26866C28.4734 1.75273 28.4824 1.38311 28.4812 1.1598C28.4799 0.933343 28.4759 0.757228 28.469 0.631454ZM29.1552 3.81709C29.2769 3.81644 29.3857 3.75767 29.4818 3.64078C29.6771 3.41012 29.7736 3.08407 29.7713 2.66261C29.7701 2.43615 29.7254 2.23667 29.6371 2.06415C29.5488 1.88849 29.4251 1.80109 29.266 1.80194C29.1756 1.80243 29.0963 1.84846 29.0281 1.94004C28.96 2.02847 28.9076 2.1467 28.8709 2.29473C28.8007 2.57503 28.7665 2.8866 28.7683 3.22943C28.7699 3.51879 28.8301 3.69617 28.949 3.76159C29.0022 3.79275 29.0709 3.81126 29.1552 3.81709Z" fill="white"/>
<path d="M30.7802 3.0535C30.7743 3.11644 30.7714 3.15891 30.7715 3.18093C30.7725 3.36964 30.8294 3.51559 30.9423 3.61878C31.0583 3.72195 31.1942 3.77312 31.3502 3.77228C31.5062 3.77144 31.6324 3.74875 31.7288 3.7042C31.8284 3.65963 31.8999 3.61206 31.9433 3.56151C32.0549 3.41937 32.1574 3.34805 32.251 3.34755C32.2853 3.34736 32.3259 3.35658 32.3728 3.3752C32.3424 3.52948 32.2247 3.67165 32.0195 3.80171C31.8174 3.92861 31.5619 3.99289 31.2531 3.99455C31.0348 3.99572 30.8457 3.92754 30.6858 3.79C30.5291 3.64931 30.4501 3.45787 30.4488 3.21569C30.4475 2.97351 30.493 2.73894 30.5854 2.51198C30.6809 2.28186 30.8171 2.08612 30.994 1.92476C31.1741 1.76024 31.3561 1.67749 31.5402 1.6765C31.7273 1.67549 31.8773 1.714 31.99 1.79203C32.1058 1.8669 32.1641 1.97824 32.1649 2.12607C32.1664 2.3997 32.0459 2.62681 31.8036 2.80739C31.5643 2.98481 31.309 3.07425 31.0376 3.07571C30.9659 3.07609 30.8801 3.06869 30.7802 3.0535ZM31.1349 2.8959C31.2815 2.89511 31.4123 2.84723 31.5272 2.75226C31.6421 2.65728 31.7227 2.55777 31.7689 2.45373C31.8183 2.34967 31.8427 2.25518 31.8423 2.17026C31.8418 2.08534 31.8087 2.0116 31.7428 1.94905C31.677 1.88335 31.6004 1.85074 31.513 1.85121C31.357 1.85204 31.2126 1.96133 31.0796 2.17907C30.9498 2.39679 30.8574 2.62218 30.8025 2.85522C30.9399 2.88279 31.0507 2.89635 31.1349 2.8959Z" fill="white"/>
<path d="M34.4973 0.212212C34.3846 1.2948 34.3294 2.06726 34.3319 2.52961C34.3344 2.98881 34.379 3.44778 34.4657 3.90653C34.4036 3.96977 34.3492 4.00151 34.3024 4.00176C34.2556 4.00201 34.2166 3.99593 34.1853 3.98352C34.1186 3.75113 34.0782 3.49815 34.0643 3.22458C33.99 3.3445 33.9344 3.42972 33.8972 3.48025C33.8631 3.53075 33.8027 3.60499 33.7159 3.70296C33.5578 3.89253 33.3696 3.9879 33.1512 3.98907C32.9859 3.98996 32.8654 3.91355 32.7897 3.75983C32.7171 3.60296 32.6802 3.40343 32.6789 3.16125C32.6776 2.91593 32.7028 2.68304 32.7547 2.46259C32.8096 2.23898 32.9037 2.04661 33.037 1.88549C33.1703 1.72121 33.3352 1.63855 33.5317 1.6375C33.6502 1.63686 33.7595 1.66144 33.8596 1.71122C33.9597 1.76101 34.0287 1.82826 34.0666 1.91298C34.0724 1.82803 34.0779 1.69747 34.0832 1.5213C34.0885 1.34514 34.0939 1.18942 34.0994 1.05414C34.108 0.915703 34.1213 0.775666 34.1393 0.634032C34.172 0.331908 34.2476 0.180528 34.3661 0.179892C34.4067 0.179674 34.4504 0.190447 34.4973 0.212212ZM33.9599 2.0834C33.9221 2.01441 33.8703 1.96436 33.8047 1.93326C33.739 1.89902 33.6515 1.88219 33.5424 1.88277C33.4363 1.88334 33.3368 1.94521 33.2439 2.06837C33.0611 2.31154 32.971 2.66273 32.9735 3.12193C32.9743 3.26975 32.9984 3.41745 33.046 3.56502C33.0936 3.70945 33.1626 3.78142 33.2531 3.78094C33.3841 3.78023 33.5115 3.69305 33.6354 3.5194C33.7592 3.34574 33.8548 3.14707 33.9223 2.9234C33.9897 2.69657 34.0229 2.49352 34.0219 2.31425C34.0215 2.22933 34.0008 2.15238 33.9599 2.0834Z" fill="white"/>
<path d="M36.1342 2.09532C36.1057 2.02313 36.0524 1.9668 35.9742 1.92633C35.896 1.88586 35.7991 1.86594 35.6837 1.86655C35.5683 1.86717 35.4593 1.90236 35.3568 1.97211C35.2573 2.04184 35.2079 2.13489 35.2085 2.25126C35.2091 2.36763 35.2564 2.46016 35.3504 2.52886C35.4474 2.59439 35.5631 2.64409 35.6974 2.67797C35.8349 2.71183 35.9723 2.74883 36.1098 2.78898C36.2473 2.82599 36.363 2.88984 36.4571 2.98055C36.5543 3.0681 36.6033 3.18421 36.604 3.32889C36.6052 3.53962 36.5187 3.70049 36.3446 3.81151C36.1736 3.92252 35.9665 3.97867 35.7232 3.97998C35.5797 3.98075 35.3907 3.94245 35.1564 3.86507C34.9251 3.78768 34.8092 3.69395 34.8086 3.58386C34.8081 3.50209 34.8766 3.46083 35.0138 3.4601C35.0544 3.45988 35.1075 3.48476 35.1733 3.53473C35.3737 3.68148 35.5785 3.75429 35.7874 3.75317C35.8997 3.75257 35.9963 3.73318 36.0772 3.695C36.2266 3.62186 36.3008 3.50508 36.3 3.34468C36.2994 3.24718 36.2507 3.16881 36.1536 3.10957C36.0597 3.05031 35.9441 3.00375 35.8066 2.96989C35.6723 2.93601 35.5364 2.899 35.399 2.85885C35.2615 2.8187 35.1441 2.75171 35.0469 2.65787C34.9528 2.56087 34.9054 2.43846 34.9046 2.29064C34.9035 2.09878 34.9885 1.94263 35.1594 1.82219C35.3304 1.70175 35.5421 1.64085 35.7948 1.6395C35.9664 1.63858 36.121 1.68335 36.2588 1.77383C36.3996 1.86114 36.4705 1.98971 36.4714 2.15956C36.472 2.27278 36.4084 2.32974 36.2805 2.33043C36.2275 2.33071 36.1915 2.32147 36.1727 2.3027C36.157 2.28391 36.1475 2.25094 36.1441 2.20377C36.1438 2.15345 36.1405 2.1173 36.1342 2.09532Z" fill="white"/>
<path d="M38.4145 4.00327C38.3583 4.00357 38.3277 3.52722 38.3226 2.57423C38.3204 2.17164 38.3175 1.9279 38.3139 1.843L38.2204 1.8435C38.1767 1.84373 38.1424 1.84392 38.1174 1.84405C38.0925 1.84104 38.0597 1.83964 38.0191 1.83986C37.9817 1.83692 37.9505 1.83237 37.9255 1.82621C37.9036 1.82004 37.8802 1.8123 37.8552 1.803C37.8083 1.78438 37.7847 1.75148 37.7845 1.7043C37.7841 1.64454 37.8807 1.61414 38.0741 1.6131C38.1583 1.61265 38.2347 1.61539 38.3034 1.62131C38.3062 1.55839 38.3073 1.47818 38.3068 1.38068C38.3094 1.28001 38.3121 1.20294 38.3149 1.14945C38.3177 1.09282 38.3205 1.02519 38.3232 0.946538C38.329 0.867875 38.3365 0.806502 38.3456 0.762419C38.3578 0.718319 38.3732 0.669485 38.3916 0.615916C38.41 0.559201 38.4347 0.516607 38.4658 0.488133C38.4968 0.459659 38.5325 0.431159 38.5729 0.402635C38.6444 0.348781 38.7628 0.32141 38.9281 0.320522C39.0966 0.319618 39.22 0.361417 39.2984 0.445918C39.38 0.527258 39.4525 0.666834 39.5159 0.864647C39.4694 0.921512 39.415 0.950111 39.3526 0.950446C39.3308 0.950564 39.3089 0.947536 39.2871 0.941363C39.2301 0.790695 39.1781 0.688752 39.131 0.635535C39.087 0.582301 39.0261 0.555893 38.9481 0.556312C38.8701 0.556731 38.8109 0.571202 38.7705 0.599727C38.7332 0.628235 38.7038 0.664564 38.6822 0.708714C38.6359 0.803321 38.6137 1.03147 38.6157 1.39317C38.6158 1.4089 38.6159 1.4372 38.6161 1.47809C38.6164 1.51898 38.6166 1.55672 38.6167 1.59132L39.0143 1.55144C39.1702 1.5506 39.2484 1.58635 39.2488 1.65869C39.2491 1.70587 39.2118 1.73753 39.137 1.75365C39.0622 1.76978 38.9671 1.77973 38.8517 1.78349C38.7395 1.78724 38.6615 1.7971 38.6179 1.81306C38.6122 1.90115 38.6097 2.01754 38.6104 2.16222C38.6112 2.30376 38.6202 2.53017 38.6375 2.84146C38.6547 3.14961 38.6638 3.38545 38.6647 3.549C38.6656 3.71256 38.649 3.82902 38.6151 3.8984C38.5843 3.96776 38.5174 4.00272 38.4145 4.00327Z" fill="white"/>
<path d="M39.6102 2.00588C39.7679 1.7597 39.9965 1.63581 40.296 1.6342C40.5955 1.63259 40.8348 1.75397 41.0139 1.99834C41.1961 2.2427 41.2881 2.52213 41.2898 2.83665C41.2914 3.14803 41.1946 3.41275 40.9992 3.63083C40.8039 3.8489 40.5549 3.95875 40.2523 3.96038C39.9498 3.962 39.7294 3.87826 39.5912 3.70916C39.453 3.53691 39.3831 3.2951 39.3814 2.98372C39.3793 2.57799 39.4555 2.25204 39.6102 2.00588ZM39.8174 2.25482C39.7775 2.3777 39.747 2.50053 39.7258 2.62331C39.7077 2.74607 39.699 2.86092 39.6995 2.96786C39.7001 3.07165 39.7084 3.16754 39.7245 3.25552C39.7405 3.34036 39.7675 3.42513 39.8054 3.50985C39.8433 3.59143 39.8998 3.65718 39.9749 3.7071C40.05 3.75387 40.1391 3.77698 40.242 3.77643C40.451 3.77531 40.6252 3.68788 40.7647 3.51414C40.9072 3.34038 40.9778 3.13084 40.9765 2.88552C40.9752 2.64019 40.9084 2.40308 40.7762 2.17418C40.647 1.94213 40.4889 1.8266 40.3017 1.8276C40.1894 1.82821 40.0914 1.86805 40.0076 1.94713C39.9238 2.02621 39.8604 2.12878 39.8174 2.25482Z" fill="white"/>
<path d="M42.2115 3.4875L42.227 3.75634C42.2273 3.82553 42.2073 3.87439 42.1669 3.90292C42.1296 3.92828 42.0907 3.94107 42.0502 3.94129C42.0127 3.94149 41.9737 3.93541 41.9331 3.92304C41.8625 3.55857 41.807 3.10437 41.7667 2.56045C41.7294 2.01652 41.7075 1.7084 41.7009 1.63609C41.7474 1.59181 41.7957 1.56953 41.8456 1.56926C41.8986 1.56898 41.9454 1.57502 41.986 1.58738C41.999 1.67852 42.0094 1.87977 42.0174 2.19111C42.0253 2.50245 42.0341 2.69741 42.0439 2.77599C42.0862 2.51156 42.1628 2.26424 42.2739 2.03404C42.3356 1.90475 42.4161 1.8021 42.5155 1.72608C42.6181 1.64689 42.727 1.60699 42.8424 1.60637C42.961 1.60574 43.0689 1.65863 43.1662 1.76504C43.2665 1.8683 43.3169 1.96239 43.3174 2.04731C43.3176 2.07876 43.299 2.10402 43.2617 2.12309C43.2243 2.13902 43.1822 2.14711 43.1355 2.14736C43.0918 2.1476 43.0574 2.13048 43.0322 2.09602C43.0071 2.06155 42.9897 2.0239 42.9802 1.98307C42.9706 1.93908 42.9501 1.89988 42.9187 1.86545C42.8873 1.83102 42.8451 1.81395 42.7921 1.81423C42.6517 1.81499 42.5323 1.94301 42.4338 2.19831C42.283 2.5797 42.2089 3.00943 42.2115 3.4875Z" fill="white"/>
<path d="M45.0355 0.433984C45.0398 0.654131 45.0422 0.819245 45.0428 0.929327C45.0434 1.03626 45.0424 1.14321 45.0399 1.25016C45.0404 1.3571 45.0369 1.56471 45.0292 1.87299C45.0215 2.17812 45.0165 2.42034 45.0144 2.59963C45.1325 2.51722 45.2737 2.39065 45.4381 2.21992C45.6025 2.04605 45.7515 1.89742 45.8849 1.77403C46.096 1.58104 46.247 1.52204 46.3379 1.59704C46.3723 1.62516 46.3834 1.65184 46.3711 1.67706C46.3402 1.74328 46.2689 1.82387 46.1571 1.91883C46.0484 2.01377 45.9196 2.1214 45.7705 2.24172C45.6214 2.36205 45.5034 2.47276 45.4166 2.57388C45.6445 2.60411 45.8277 2.73208 45.9662 2.9578C46.026 3.06127 46.0843 3.16475 46.141 3.26825C46.2859 3.54111 46.4429 3.72584 46.6119 3.82243C46.5498 3.88567 46.4782 3.91751 46.3971 3.91794C46.316 3.91838 46.2347 3.8795 46.1532 3.80131C46.0748 3.72309 46.0056 3.62753 45.9458 3.51463C45.889 3.4017 45.8307 3.28878 45.7708 3.17587C45.6352 2.90296 45.4785 2.76698 45.3007 2.76794C45.2165 2.76839 45.1449 2.79708 45.0859 2.85401C45.0269 2.9078 44.9976 2.96457 44.9979 3.02433C44.9999 3.40176 44.9952 3.68171 44.9837 3.8642C44.9404 3.92419 44.8937 3.95432 44.8438 3.95459C44.8282 3.95468 44.8111 3.95162 44.7923 3.94543C44.7235 3.9175 44.6889 3.85949 44.6884 3.77143C44.6911 3.68335 44.699 3.41595 44.7122 2.96925C44.7404 1.82736 44.7536 1.09758 44.7519 0.779916C44.7511 0.632091 44.7646 0.532942 44.7924 0.482468C44.8233 0.431977 44.8591 0.406623 44.8996 0.406406C44.9433 0.406171 44.9886 0.415364 45.0355 0.433984Z" fill="white"/>
<path d="M47.1959 0.450691C47.1931 0.523047 47.192 0.603258 47.1925 0.691323C47.193 0.779389 47.1981 0.870575 47.208 0.964881C47.1646 1.01544 47.1054 1.04092 47.0306 1.04132C46.937 1.04182 46.8898 0.966589 46.889 0.815619C46.889 0.809329 46.8888 0.78574 46.8886 0.744852C46.8884 0.703965 46.8882 0.667795 46.888 0.636343C46.891 0.601729 46.897 0.562381 46.9061 0.518297C46.9275 0.442695 46.9757 0.404693 47.0506 0.404291C47.1254 0.403889 47.1739 0.419356 47.1959 0.450691ZM46.9088 2.76402C46.9055 2.14756 46.9348 1.79199 46.9967 1.6973C47.0183 1.66258 47.0447 1.64514 47.0759 1.64497C47.1071 1.64481 47.1587 1.66183 47.2306 1.69604C47.2165 1.96346 47.2102 2.25444 47.2119 2.56896C47.2119 2.56896 47.2169 2.91649 47.2269 3.61154C47.2274 3.70904 47.2059 3.77835 47.1625 3.81948C47.1221 3.85744 47.0832 3.87652 47.0458 3.87672C47.0115 3.8769 46.9756 3.86766 46.938 3.84899C46.9202 3.4402 46.9105 3.07854 46.9088 2.76402Z" fill="white"/>
<path d="M49.5581 0.13134C49.4453 1.21393 49.3902 1.98639 49.3927 2.44873C49.3952 2.90793 49.4397 3.36691 49.5264 3.82565C49.4644 3.88889 49.41 3.92064 49.3632 3.92089C49.3164 3.92114 49.2774 3.91506 49.2461 3.90265C49.1793 3.67025 49.139 3.41727 49.125 3.14371C49.0508 3.26363 48.9951 3.34885 48.958 3.39937C48.9239 3.44988 48.8635 3.52412 48.7767 3.62209C48.6186 3.81166 48.4304 3.90703 48.212 3.9082C48.0467 3.90909 47.9262 3.83267 47.8505 3.67896C47.7779 3.52209 47.7409 3.32256 47.7396 3.08038C47.7383 2.83505 47.7636 2.60217 47.8154 2.38172C47.8704 2.15811 47.9645 1.96574 48.0978 1.80461C48.231 1.64034 48.3959 1.55768 48.5924 1.55662C48.711 1.55599 48.8203 1.58056 48.9204 1.63035C49.0205 1.68014 49.0895 1.74739 49.1274 1.83211C49.1331 1.74716 49.1387 1.6166 49.144 1.44043C49.1493 1.26427 49.1547 1.10855 49.1602 0.97327C49.1688 0.83483 49.1821 0.694794 49.2 0.553159C49.2327 0.251036 49.3083 0.0996559 49.4269 0.0990194C49.4674 0.0988017 49.5112 0.109575 49.5581 0.13134ZM49.0206 2.00253C48.9828 1.93354 48.9311 1.88349 48.8654 1.85239C48.7997 1.81814 48.7123 1.80131 48.6031 1.8019C48.4971 1.80247 48.3976 1.86434 48.3046 1.9875C48.1219 2.23067 48.0318 2.58185 48.0342 3.04105C48.035 3.18888 48.0592 3.33658 48.1068 3.48415C48.1544 3.62858 48.2234 3.70055 48.3138 3.70006C48.4449 3.69936 48.5723 3.61218 48.6961 3.43852C48.82 3.26487 48.9156 3.0662 48.983 2.84252C49.0505 2.6157 49.0837 2.41265 49.0827 2.23337C49.0823 2.14845 49.0616 2.07151 49.0206 2.00253Z" fill="white"/>
<path d="M51.1949 2.01444C51.1665 1.94225 51.1131 1.88593 51.0349 1.84546C50.9567 1.80499 50.8599 1.78506 50.7445 1.78568C50.6291 1.7863 50.5201 1.82149 50.4175 1.89123C50.3181 1.96096 50.2687 2.05401 50.2693 2.17039C50.2699 2.28676 50.3172 2.37929 50.4112 2.44798C50.5082 2.51351 50.6239 2.56322 50.7582 2.59709C50.8957 2.63095 51.0331 2.66796 51.1706 2.70811C51.308 2.74512 51.4238 2.80897 51.5179 2.89968C51.615 2.98723 51.664 3.10334 51.6648 3.24802C51.6659 3.45875 51.5795 3.61962 51.4054 3.73064C51.2344 3.84165 51.0272 3.8978 50.7839 3.89911C50.6404 3.89988 50.4515 3.86158 50.2171 3.7842C49.9859 3.70681 49.8699 3.61307 49.8693 3.50299C49.8689 3.42122 49.9373 3.37996 50.0746 3.37922C50.1151 3.37901 50.1683 3.40388 50.2341 3.45386C50.4345 3.60061 50.6392 3.67342 50.8482 3.6723C50.9605 3.6717 51.0571 3.65231 51.138 3.61413C51.2874 3.54099 51.3616 3.42421 51.3607 3.26381C51.3602 3.1663 51.3114 3.08793 51.2144 3.02869C51.1205 2.96944 51.0048 2.92288 50.8674 2.88902C50.7331 2.85514 50.5972 2.81813 50.4597 2.77798C50.3222 2.73783 50.2049 2.67083 50.1077 2.577C50.0136 2.48 49.9661 2.35759 49.9654 2.20976C49.9643 2.01791 50.0493 1.86176 50.2202 1.74132C50.3911 1.62088 50.6029 1.55998 50.8556 1.55863C51.0271 1.5577 51.1818 1.60248 51.3195 1.69295C51.4604 1.78027 51.5313 1.90884 51.5322 2.07868C51.5328 2.19191 51.4691 2.24887 51.3413 2.24955C51.2882 2.24984 51.2523 2.2406 51.2335 2.22183C51.2178 2.20304 51.2082 2.17006 51.2049 2.1229C51.2046 2.07258 51.2013 2.03643 51.1949 2.01444Z" fill="white"/>
</svg>
