<svg width="52" height="6" viewBox="0 0 52 6" fill="none" xmlns="http://www.w3.org/2000/svg">
<path d="M0.340482 3.05577C0.33783 2.56179 0.315078 2.1265 0.272227 1.7499C0.2717 1.65173 0.312068 1.56602 0.393332 1.49275C0.474595 1.41948 0.582647 1.36348 0.717487 1.32476C0.987202 1.25364 1.2838 1.21722 1.60728 1.21548C2.02497 1.21324 2.35366 1.30489 2.59335 1.49043C2.83616 1.67279 2.95859 1.95555 2.96065 2.33871C2.9627 2.72186 2.81047 3.02984 2.50393 3.26265C2.1974 3.49546 1.82272 3.61306 1.3799 3.61544C1.15378 3.61665 0.916415 3.57042 0.6678 3.47676C0.652914 3.62884 0.646168 3.83471 0.647562 4.09437L0.653522 4.32708C0.653931 4.40308 0.652785 4.48225 0.650087 4.5646C0.634503 4.58685 0.617315 4.60277 0.598523 4.61237C0.57973 4.62198 0.565632 4.62838 0.556227 4.6316C0.54998 4.63797 0.539014 4.64278 0.523328 4.64603C0.507642 4.64928 0.496658 4.65092 0.490377 4.65096C0.471568 4.65739 0.449601 4.66067 0.424477 4.66081L0.344392 4.66124C0.336836 4.42378 0.332547 4.21006 0.331527 4.02006L0.340482 3.05577ZM0.656542 3.13482C0.886637 3.28875 1.16185 3.36486 1.48219 3.36314C1.80251 3.35825 2.07206 3.25705 2.29085 3.05955C2.50962 2.85887 2.61823 2.61446 2.61668 2.3263C2.61513 2.03815 2.50092 1.82343 2.27403 1.68215C2.04714 1.54087 1.7751 1.47108 1.45791 1.47278C1.14385 1.47447 0.866301 1.54879 0.62526 1.69575C0.642068 1.90149 0.652495 2.38118 0.656542 3.13482Z" fill="white"/>
<path d="M3.83174 4.10102L3.84733 4.37168C3.8477 4.44135 3.82755 4.49054 3.78688 4.51926C3.74933 4.54479 3.71014 4.55767 3.66931 4.55789C3.63162 4.55809 3.59233 4.55197 3.55144 4.53952C3.48037 4.17257 3.42453 3.71529 3.3839 3.16768C3.34641 2.62005 3.32433 2.30984 3.31766 2.23704C3.36453 2.19245 3.41309 2.17003 3.46334 2.16976C3.51673 2.16947 3.56387 2.17555 3.60476 2.188C3.61782 2.27976 3.62833 2.48237 3.63629 2.79582C3.64426 3.10928 3.65316 3.30556 3.66301 3.38468C3.70555 3.11845 3.78273 2.86945 3.89455 2.63769C3.95666 2.50752 4.03776 2.40417 4.13785 2.32763C4.24107 2.24791 4.35077 2.20774 4.46698 2.20712C4.58632 2.20648 4.69496 2.25973 4.79289 2.36687C4.89395 2.47082 4.94471 2.56555 4.94517 2.65105C4.94534 2.68271 4.92663 2.70815 4.88905 2.72735C4.85144 2.74338 4.80909 2.75153 4.76198 2.75178C4.71801 2.75202 4.68337 2.73479 4.65806 2.70009C4.63275 2.66539 4.61527 2.62749 4.60563 2.58637C4.59597 2.54209 4.57534 2.50262 4.54375 2.46795C4.51216 2.43329 4.46967 2.4161 4.41628 2.41639C4.27495 2.41715 4.15473 2.54604 4.05561 2.80307C3.90378 3.18705 3.82916 3.6197 3.83174 4.10102Z" fill="white"/>
<path d="M5.38074 2.58696C5.53958 2.33911 5.76975 2.21437 6.07124 2.21275C6.37274 2.21113 6.61365 2.33334 6.79399 2.57937C6.97747 2.82538 7.07006 3.10672 7.07176 3.42337C7.07344 3.73686 6.97594 4.00338 6.77926 4.22294C6.58258 4.44249 6.33192 4.55309 6.02729 4.55472C5.72265 4.55636 5.50078 4.47205 5.36168 4.3018C5.22256 4.12838 5.15216 3.88493 5.15047 3.57144C5.14828 3.16295 5.22503 2.83479 5.38074 2.58696ZM5.58937 2.83759C5.5492 2.9613 5.51846 3.08497 5.49714 3.20858C5.47896 3.33218 5.47016 3.44781 5.47073 3.55547C5.4713 3.65997 5.47967 3.7565 5.49585 3.84508C5.51201 3.9305 5.53916 4.01585 5.57731 4.10114C5.61544 4.18327 5.67232 4.24947 5.74797 4.29973C5.8236 4.34682 5.91323 4.37009 6.01687 4.36953C6.22729 4.3684 6.40269 4.28038 6.54308 4.10546C6.68661 3.93052 6.75771 3.71956 6.75639 3.47257C6.75506 3.22557 6.68783 2.98685 6.55468 2.7564C6.42466 2.52277 6.26543 2.40646 6.077 2.40747C5.96394 2.40808 5.86522 2.44819 5.78085 2.52781C5.69648 2.60743 5.63265 2.71069 5.58937 2.83759Z" fill="white"/>
<path d="M7.28849 2.26322C7.31643 2.2029 7.37751 2.17249 7.47173 2.17198C7.51256 2.17176 7.54715 2.18108 7.57552 2.19993C7.66477 2.44328 7.75245 2.68822 7.83857 2.93476C8.00117 3.38672 8.15227 3.74374 8.29186 4.00582C8.35574 3.61914 8.48084 3.22897 8.66717 2.83531C8.85663 2.44163 9.02988 2.24437 9.18691 2.24352C9.23402 2.24327 9.28119 2.2541 9.32841 2.27601C8.96982 2.7561 8.71412 3.3908 8.56133 4.18012C8.53091 4.36395 8.49692 4.46863 8.45937 4.49417C8.4187 4.52288 8.37638 4.53736 8.33241 4.5376C8.28844 4.53783 8.25384 4.52852 8.22862 4.50965C8.20653 4.49077 8.18915 4.47187 8.17649 4.45293C8.16697 4.43399 8.15266 4.4024 8.13358 4.35817C8.11764 4.31392 8.10492 4.2839 8.09541 4.26812C7.77183 3.66503 7.50285 2.99673 7.28849 2.26322Z" fill="white"/>
<path d="M9.95407 1.03766C9.95132 1.11051 9.95018 1.19126 9.95066 1.27993C9.95113 1.36859 9.95634 1.4604 9.96627 1.55534C9.92257 1.60624 9.86304 1.6319 9.78766 1.6323C9.69345 1.63281 9.64593 1.55706 9.64511 1.40507C9.64508 1.39873 9.64495 1.37499 9.64473 1.33382C9.64451 1.29265 9.64432 1.25624 9.64415 1.22457C9.6471 1.18972 9.65317 1.15011 9.66235 1.10573C9.68393 1.02961 9.7324 0.991351 9.80777 0.990946C9.88315 0.990542 9.93191 1.00611 9.95407 1.03766ZM9.66507 3.3667C9.66174 2.74605 9.69122 2.38806 9.75352 2.29273C9.77532 2.25778 9.80192 2.24022 9.83332 2.24005C9.86473 2.23988 9.91664 2.25702 9.98906 2.29146C9.97481 2.56071 9.96853 2.85365 9.97023 3.17031C9.97023 3.17031 9.97525 3.5202 9.98529 4.21997C9.98581 4.31814 9.9642 4.38792 9.92046 4.42932C9.87983 4.46754 9.84068 4.48675 9.80299 4.48695C9.76845 4.48714 9.73228 4.47783 9.69449 4.45903C9.67658 4.04746 9.66677 3.68335 9.66507 3.3667Z" fill="white"/>
<path d="M12.3323 0.716142C12.2188 1.80608 12.1633 2.58379 12.1658 3.04927C12.1683 3.51159 12.2132 3.97368 12.3005 4.43554C12.238 4.49921 12.1832 4.53117 12.1361 4.53142C12.089 4.53167 12.0497 4.52555 12.0182 4.51305C11.951 4.27908 11.9104 4.02439 11.8963 3.74896C11.8216 3.8697 11.7655 3.9555 11.7281 4.00637C11.6938 4.05722 11.633 4.13196 11.5456 4.23059C11.3864 4.42145 11.197 4.51746 10.9771 4.51865C10.8107 4.51954 10.6893 4.44261 10.6131 4.28785C10.54 4.12991 10.5029 3.92903 10.5015 3.6852C10.5002 3.43821 10.5257 3.20374 10.5779 2.9818C10.6332 2.75667 10.7279 2.563 10.8621 2.40078C10.9963 2.23539 11.1623 2.15217 11.3601 2.1511C11.4795 2.15046 11.5895 2.1752 11.6903 2.22533C11.7911 2.27546 11.8605 2.34317 11.8987 2.42846C11.9045 2.34293 11.9101 2.21148 11.9154 2.03412C11.9207 1.85676 11.9262 1.69998 11.9317 1.56379C11.9404 1.42441 11.9538 1.28342 11.9718 1.14083C12.0048 0.83665 12.0809 0.684243 12.2002 0.683602C12.241 0.683382 12.2851 0.694229 12.3323 0.716142ZM11.7912 2.60004C11.7532 2.53057 11.7011 2.48019 11.635 2.44888C11.5688 2.4144 11.4808 2.39745 11.3709 2.39804C11.2641 2.39862 11.1639 2.46091 11.0704 2.58491C10.8864 2.82973 10.7956 3.18329 10.7981 3.64561C10.7989 3.79444 10.8233 3.94314 10.8712 4.09172C10.9191 4.23713 10.9886 4.30959 11.0796 4.3091C11.2115 4.30839 11.3398 4.22062 11.4645 4.04578C11.5892 3.87095 11.6855 3.67093 11.7534 3.44573C11.8212 3.21737 11.8547 3.01294 11.8537 2.83245C11.8533 2.74695 11.8324 2.66948 11.7912 2.60004Z" fill="white"/>
<path d="M13.1238 1.02064C13.121 1.09349 13.1199 1.17424 13.1204 1.26291C13.1208 1.35157 13.126 1.44338 13.136 1.53832C13.0923 1.58922 13.0327 1.61488 12.9574 1.61528C12.8631 1.61579 12.8156 1.54004 12.8148 1.38805C12.8148 1.38171 12.8147 1.35796 12.8144 1.3168C12.8142 1.27563 12.814 1.23922 12.8138 1.20755C12.8168 1.1727 12.8229 1.13309 12.832 1.08871C12.8536 1.01259 12.9021 0.974331 12.9775 0.973926C13.0528 0.973521 13.1016 0.989093 13.1238 1.02064ZM12.8348 3.34968C12.8314 2.72903 12.8609 2.37104 12.9232 2.27571C12.945 2.24076 12.9716 2.2232 13.003 2.22303C13.0344 2.22286 13.0863 2.24 13.1588 2.27444C13.1445 2.54369 13.1382 2.83663 13.1399 3.15329C13.1399 3.15329 13.1449 3.50318 13.155 4.20295C13.1555 4.30112 13.1339 4.3709 13.0902 4.4123C13.0495 4.45052 13.0104 4.46973 12.9727 4.46993C12.9381 4.47012 12.902 4.46081 12.8642 4.44201C12.8463 4.03044 12.8365 3.66633 12.8348 3.34968Z" fill="white"/>
<path d="M15.6866 4.36986C15.6304 4.43033 15.5662 4.46075 15.4939 4.46114C15.3589 4.46187 15.258 4.38958 15.1913 4.24427C15.1245 4.09896 15.0843 3.92184 15.0706 3.71292C15.0601 3.50398 15.0527 3.29502 15.0484 3.08604C15.0442 2.87707 15.0259 2.69983 14.9938 2.55434C14.9647 2.40883 14.9094 2.33629 14.8277 2.33673C14.7178 2.33732 14.6241 2.43757 14.5467 2.63749C14.4724 2.83739 14.4202 3.05933 14.3901 3.30333C14.3058 3.98461 14.223 4.36663 14.1418 4.4494C14.0854 4.4782 14.0368 4.49272 13.996 4.49293C13.9552 4.49315 13.9206 4.48859 13.8923 4.47924C13.8248 4.18827 13.7797 3.6866 13.757 2.97423C13.7488 2.61961 13.7413 2.39007 13.7345 2.2856C13.8002 2.24092 13.8566 2.21845 13.9037 2.21819C13.9508 2.21794 13.9885 2.22249 14.0169 2.23184C14.0333 2.36791 14.0426 2.64653 14.0449 3.06768C14.0503 3.48882 14.0547 3.73104 14.0582 3.79435C14.0736 3.72777 14.0918 3.62001 14.113 3.47106C14.1373 3.3221 14.1587 3.20007 14.177 3.10497C14.1953 3.00671 14.2245 2.89255 14.2647 2.7625C14.3048 2.63245 14.3498 2.5293 14.3996 2.45303C14.4495 2.3736 14.5182 2.30673 14.6058 2.25242C14.6935 2.19495 14.7922 2.16592 14.9022 2.16533C15.0498 2.16454 15.1569 2.23205 15.2236 2.36786C15.2934 2.50048 15.332 2.66652 15.3393 2.86598C15.3467 3.06544 15.3509 3.26808 15.352 3.47391C15.3563 3.67972 15.3824 3.86799 15.4304 4.03874C15.4816 4.20946 15.567 4.31983 15.6866 4.36986Z" fill="white"/>
<path d="M16.8032 2.12188C17.089 2.12034 17.2875 2.23644 17.3987 2.47018C17.459 2.59335 17.5083 2.71025 17.5466 2.82088C17.5849 2.93151 17.6108 3.08337 17.6244 3.27646C17.6448 3.57085 17.6561 3.90645 17.6581 4.28327C17.6601 4.65692 17.5722 4.95506 17.3944 5.17768C17.2197 5.40345 16.9612 5.51726 16.6189 5.51909C16.2797 5.52092 15.9965 5.4116 15.7691 5.19116C15.8316 5.12749 15.899 5.09546 15.9712 5.09507C16.0466 5.09467 16.1488 5.12579 16.2779 5.18843C16.4102 5.25422 16.5501 5.28671 16.6977 5.28592C16.8453 5.28513 16.9676 5.24964 17.0646 5.17945C17.1616 5.11243 17.2333 5.01705 17.2798 4.8933C17.3571 4.67438 17.3949 4.40502 17.3932 4.08519C17.3929 4.0377 17.3873 3.86198 17.3762 3.55804C17.2928 3.81815 17.1731 4.03413 17.017 4.20596C16.8608 4.37464 16.6839 4.4595 16.486 4.46056C16.2881 4.46163 16.1416 4.37375 16.0465 4.19693C15.9544 4.01692 15.9078 3.81292 15.9066 3.58493C15.9053 3.35694 15.9355 3.13511 15.9972 2.91945C16.0588 2.70062 16.1599 2.51324 16.3004 2.35732C16.4409 2.2014 16.6085 2.12292 16.8032 2.12188ZM16.3077 2.84653C16.2677 2.98608 16.2385 3.11765 16.2203 3.24125C16.2022 3.36485 16.1934 3.48997 16.1941 3.61664C16.1948 3.74013 16.2206 3.87774 16.2717 4.02947C16.3259 4.18118 16.4032 4.25676 16.5037 4.25622C16.7016 4.25516 16.8767 4.10539 17.029 3.8069C17.1812 3.50525 17.2566 3.20243 17.2549 2.89845C17.2544 2.79395 17.2051 2.67705 17.107 2.54774C17.0121 2.41525 16.8924 2.3494 16.7479 2.35017C16.6474 2.35071 16.5582 2.39869 16.4802 2.49411C16.4053 2.58951 16.3478 2.70698 16.3077 2.84653Z" fill="white"/>
<path d="M21.1841 4.34034C21.1279 4.40081 21.0637 4.43123 20.9915 4.43162C20.8564 4.43235 20.7555 4.36006 20.6888 4.21475C20.6221 4.06944 20.5818 3.89232 20.5682 3.6834C20.5576 3.47446 20.5502 3.2655 20.5459 3.05652C20.5417 2.84755 20.5235 2.67031 20.4913 2.52482C20.4622 2.37931 20.4069 2.30677 20.3252 2.30721C20.2153 2.3078 20.1216 2.40805 20.0442 2.60797C19.9699 2.80787 19.9177 3.02981 19.8876 3.27381C19.8033 3.95509 19.7206 4.33711 19.6393 4.41988C19.583 4.44868 19.5344 4.4632 19.4935 4.46341C19.4527 4.46363 19.4181 4.45907 19.3898 4.44972C19.3223 4.15875 19.2772 3.65708 19.2545 2.94471C19.2464 2.59009 19.2388 2.36055 19.232 2.25608C19.2977 2.2114 19.3541 2.18893 19.4012 2.18867C19.4483 2.18842 19.4861 2.19297 19.5144 2.20232C19.5308 2.33839 19.5402 2.61701 19.5424 3.03816C19.5478 3.4593 19.5523 3.70152 19.5557 3.76483C19.5711 3.69825 19.5893 3.59049 19.6105 3.44154C19.6349 3.29258 19.6562 3.17055 19.6745 3.07545C19.6928 2.97719 19.7221 2.86303 19.7622 2.73298C19.8023 2.60293 19.8473 2.49978 19.8971 2.42351C19.947 2.34408 20.0157 2.27721 20.1034 2.2229C20.191 2.16543 20.2898 2.1364 20.3997 2.13581C20.5473 2.13502 20.6544 2.20253 20.7211 2.33834C20.7909 2.47096 20.8295 2.637 20.8368 2.83646C20.8442 3.03592 20.8484 3.23856 20.8495 3.44439C20.8538 3.6502 20.8799 3.83847 20.9279 4.00921C20.9791 4.17994 21.0645 4.29031 21.1841 4.34034Z" fill="white"/>
<path d="M21.7242 3.50619C21.7182 3.56956 21.7153 3.61232 21.7154 3.63449C21.7164 3.82448 21.7738 3.97142 21.8874 4.07531C22.0041 4.17918 22.141 4.2307 22.2981 4.22986C22.4551 4.22901 22.5822 4.20616 22.6793 4.16131C22.7796 4.11644 22.8515 4.06855 22.8952 4.01765C23.0075 3.87455 23.1108 3.80274 23.205 3.80224C23.2395 3.80205 23.2804 3.81133 23.3276 3.83008C23.2971 3.98541 23.1785 4.12855 22.9719 4.25949C22.7684 4.38725 22.5113 4.45196 22.2003 4.45363C21.9805 4.45481 21.7901 4.38617 21.6292 4.2477C21.4714 4.10605 21.3919 3.91331 21.3906 3.66948C21.3892 3.42566 21.4351 3.1895 21.5281 2.961C21.6242 2.72932 21.7613 2.53225 21.9395 2.36979C22.1207 2.20415 22.304 2.12084 22.4893 2.11984C22.6777 2.11883 22.8287 2.1576 22.9422 2.23616C23.0588 2.31153 23.1175 2.42363 23.1183 2.57246C23.1198 2.84795 22.9985 3.0766 22.7545 3.25841C22.5137 3.43704 22.2566 3.52708 21.9834 3.52855C21.9111 3.52894 21.8247 3.52149 21.7242 3.50619ZM22.0813 3.34753C22.2289 3.34673 22.3606 3.29853 22.4763 3.20291C22.592 3.10729 22.6731 3.0071 22.7196 2.90235C22.7693 2.79758 22.7939 2.70245 22.7935 2.61696C22.793 2.53146 22.7597 2.45722 22.6934 2.39425C22.6271 2.3281 22.5499 2.29527 22.462 2.29574C22.305 2.29658 22.1595 2.40661 22.0256 2.62583C21.8949 2.84503 21.8019 3.07194 21.7466 3.30657C21.885 3.33433 21.9965 3.34798 22.0813 3.34753Z" fill="white"/>
<path d="M24.9799 3.90196C24.9305 4.04789 24.8338 4.17191 24.6899 4.27401C24.5491 4.3761 24.3939 4.4276 24.2243 4.42851C24.0579 4.42941 23.9271 4.34619 23.832 4.17887C23.74 4.00836 23.6932 3.7727 23.6915 3.47188C23.687 2.62324 23.8088 2.19826 24.0569 2.19692C24.0883 2.19676 24.1276 2.2013 24.1747 2.21054C24.1656 2.26126 24.1441 2.35796 24.1103 2.50064C24.0427 2.77966 24.0095 3.02526 24.0106 3.23742C24.0118 3.44958 24.0428 3.67424 24.1038 3.91141C24.1647 4.14542 24.2501 4.26212 24.36 4.26153C24.4166 4.26123 24.4713 4.22452 24.5243 4.1514C24.5773 4.07828 24.6193 4.00206 24.6503 3.92273C24.6813 3.84023 24.7137 3.74664 24.7477 3.64196C24.7817 3.53727 24.8033 3.47382 24.8126 3.45161C24.7646 3.2682 24.74 3.0815 24.739 2.89151C24.7389 2.88201 24.7388 2.85351 24.7385 2.80601C24.7382 2.75535 24.7396 2.70626 24.7424 2.65874C24.7453 2.61123 24.7544 2.55418 24.7698 2.48759C24.8005 2.35443 24.8849 2.28748 25.0231 2.28674C25.1393 2.28611 25.1984 2.46313 25.2003 2.81778C25.2006 2.88111 25.1917 2.97299 25.1735 3.09342C25.1584 3.21384 25.151 3.29779 25.1513 3.34529C25.152 3.49095 25.2222 3.67899 25.3616 3.90941C25.501 4.13982 25.6304 4.25471 25.7497 4.25407C25.8722 4.25341 25.9613 4.18327 26.0171 4.04364C26.0729 3.904 26.1003 3.74869 26.0994 3.5777C26.0984 3.38137 26.0803 3.23264 26.0452 3.13149C26.0132 3.02716 25.9925 2.95919 25.9829 2.92758C25.9764 2.89595 25.9557 2.84697 25.9208 2.78066C25.8891 2.71117 25.8684 2.66694 25.8589 2.648C25.8525 2.62903 25.8287 2.58324 25.7875 2.51063C25.7463 2.43802 25.7225 2.39698 25.7162 2.38751C25.6242 2.22651 25.5703 2.13813 25.5546 2.12238C25.6327 2.05546 25.7048 2.02183 25.7707 2.02147C25.963 2.15977 26.1166 2.38695 26.2313 2.703C26.3461 3.01588 26.4042 3.30215 26.4056 3.5618C26.4069 3.8183 26.3531 4.02125 26.2439 4.17067C26.1379 4.3169 25.9703 4.39064 25.741 4.39187C25.5809 4.39273 25.4283 4.34921 25.2834 4.26133C25.1416 4.17025 25.0404 4.05046 24.9799 3.90196Z" fill="white"/>
<path d="M27.9817 1.02161C28.019 0.95174 28.0879 0.916537 28.1884 0.915997C28.2104 0.915879 28.2324 0.918928 28.2544 0.925143C28.2616 1.09294 28.2672 1.56157 28.2714 2.33104C28.2745 2.32786 28.2886 2.31353 28.3135 2.28807C28.3417 2.26258 28.3589 2.24666 28.3651 2.24029C28.3714 2.23392 28.387 2.21959 28.412 2.19729C28.437 2.17182 28.4557 2.15589 28.4683 2.14949C28.4839 2.1399 28.5043 2.12713 28.5293 2.11116C28.5543 2.09203 28.5762 2.07924 28.595 2.07281C28.6138 2.06321 28.6358 2.05359 28.6608 2.04395C28.7079 2.02787 28.7628 2.01966 28.8256 2.01932C29.058 2.01807 29.2454 2.11523 29.3878 2.3108C29.5301 2.5032 29.602 2.71973 29.6032 2.96039C29.6045 3.20105 29.5697 3.43081 29.4986 3.64969C29.4275 3.86541 29.317 4.05442 29.1672 4.21672C29.0173 4.37902 28.8418 4.46072 28.6408 4.4618C28.443 4.46286 28.2761 4.38934 28.1403 4.24124C28.0076 4.09312 27.9407 3.92406 27.9397 3.73407C27.9387 3.54091 27.9478 3.18619 27.967 2.66993C27.9862 2.15049 27.9952 1.77836 27.994 1.55354C27.9927 1.32555 27.9886 1.14824 27.9817 1.02161ZM28.6726 4.22888C28.7951 4.22822 28.9047 4.16905 29.0014 4.05136C29.198 3.81914 29.2952 3.49087 29.2929 3.06655C29.2917 2.83856 29.2466 2.63772 29.1577 2.46403C29.0689 2.28718 28.9443 2.19918 28.7842 2.20004C28.6931 2.20053 28.6133 2.24687 28.5447 2.33908C28.476 2.42811 28.4233 2.54714 28.3864 2.69617C28.3157 2.97838 28.2812 3.29207 28.2831 3.63722C28.2847 3.92854 28.3453 4.10713 28.465 4.17299C28.5185 4.20437 28.5877 4.223 28.6726 4.22888Z" fill="white"/>
<path d="M30.3086 3.4601C30.3026 3.52346 30.2997 3.56623 30.2998 3.58839C30.3009 3.77839 30.3582 3.92533 30.4718 4.02922C30.5886 4.13309 30.7255 4.1846 30.8825 4.18376C31.0395 4.18292 31.1666 4.16007 31.2637 4.11521C31.364 4.07034 31.4359 4.02246 31.4796 3.97156C31.5919 3.82845 31.6952 3.75665 31.7894 3.75614C31.8239 3.75596 31.8648 3.76524 31.912 3.78398C31.8815 3.93931 31.7629 4.08245 31.5563 4.21339C31.3529 4.34115 31.0957 4.40586 30.7847 4.40753C30.5649 4.40871 30.3745 4.34007 30.2136 4.2016C30.0558 4.05995 29.9763 3.86721 29.975 3.62339C29.9737 3.37956 30.0195 3.1434 30.1125 2.9149C30.2086 2.68322 30.3457 2.48615 30.5239 2.3237C30.7051 2.15806 30.8884 2.07474 31.0737 2.07375C31.2622 2.07273 31.4131 2.11151 31.5266 2.19006C31.6432 2.26544 31.7019 2.37754 31.7027 2.52637C31.7042 2.80186 31.5829 3.03051 31.3389 3.21232C31.0981 3.39094 30.841 3.48099 30.5678 3.48245C30.4956 3.48284 30.4091 3.47539 30.3086 3.4601ZM30.6657 3.30143C30.8134 3.30064 30.945 3.25243 31.0607 3.15681C31.1764 3.06119 31.2575 2.961 31.304 2.85625C31.3537 2.75149 31.3784 2.65636 31.3779 2.57086C31.3774 2.48536 31.3441 2.41113 31.2778 2.34815C31.2115 2.28201 31.1343 2.24917 31.0464 2.24964C30.8894 2.25049 30.7439 2.36052 30.6101 2.57973C30.4793 2.79893 30.3863 3.02585 30.331 3.26048C30.4694 3.28823 30.581 3.30188 30.6657 3.30143Z" fill="white"/>
<path d="M34.0509 0.599519C33.9375 1.68945 33.882 2.46716 33.8845 2.93265C33.8869 3.39497 33.9318 3.85705 34.0191 4.31892C33.9566 4.38258 33.9018 4.41455 33.8547 4.4148C33.8076 4.41505 33.7683 4.40893 33.7369 4.39643C33.6696 4.16246 33.629 3.90776 33.615 3.63234C33.5402 3.75307 33.4842 3.83888 33.4468 3.88974C33.4125 3.94059 33.3516 4.01534 33.2642 4.11397C33.1051 4.30482 32.9156 4.40084 32.6958 4.40202C32.5293 4.40292 32.408 4.32598 32.3318 4.17123C32.2587 4.01329 32.2215 3.81241 32.2202 3.56858C32.2189 3.32159 32.2443 3.08712 32.2965 2.86518C32.3518 2.64005 32.4466 2.44637 32.5807 2.28415C32.7149 2.11877 32.8809 2.03554 33.0788 2.03448C33.1981 2.03384 33.3082 2.05858 33.4089 2.10871C33.5097 2.15883 33.5792 2.22654 33.6173 2.31184C33.6231 2.22631 33.6287 2.09486 33.634 1.9175C33.6394 1.74014 33.6448 1.58336 33.6504 1.44716C33.659 1.30779 33.6724 1.1668 33.6905 1.0242C33.7234 0.720027 33.7995 0.567619 33.9189 0.566979C33.9597 0.566759 34.0037 0.577606 34.0509 0.599519ZM33.5099 2.48341C33.4718 2.41395 33.4197 2.36356 33.3536 2.33225C33.2875 2.29777 33.1994 2.28083 33.0895 2.28142C32.9827 2.28199 32.8826 2.34428 32.789 2.46828C32.605 2.7131 32.5143 3.06667 32.5168 3.52899C32.5176 3.67782 32.5419 3.82652 32.5898 3.97509C32.6377 4.1205 32.7072 4.19296 32.7983 4.19247C32.9302 4.19176 33.0585 4.10399 33.1832 3.92916C33.3078 3.75432 33.4041 3.55431 33.472 3.32911C33.5399 3.10075 33.5733 2.89632 33.5724 2.71583C33.5719 2.63033 33.5511 2.55286 33.5099 2.48341Z" fill="white"/>
<path d="M35.6989 2.49541C35.6703 2.42273 35.6166 2.36602 35.5378 2.32527C35.4591 2.28453 35.3616 2.26447 35.2454 2.26509C35.1292 2.26572 35.0195 2.30114 34.9162 2.37136C34.8161 2.44157 34.7664 2.53525 34.767 2.65241C34.7676 2.76957 34.8152 2.86273 34.9098 2.93189C35.0075 2.99787 35.124 3.04791 35.2592 3.08202C35.3976 3.11611 35.536 3.15336 35.6744 3.19378C35.8128 3.23104 35.9294 3.29533 36.0241 3.38666C36.1219 3.4748 36.1712 3.5917 36.172 3.73736C36.1731 3.94952 36.0861 4.11149 35.9108 4.22326C35.7386 4.33502 35.5301 4.39155 35.2851 4.39287C35.1407 4.39364 34.9504 4.35508 34.7145 4.27718C34.4817 4.19927 34.3649 4.10489 34.3643 3.99406C34.3639 3.91173 34.4328 3.8702 34.571 3.86946C34.6118 3.86924 34.6653 3.89428 34.7315 3.94459C34.9333 4.09234 35.1394 4.16565 35.3499 4.16452C35.4629 4.16391 35.5602 4.14439 35.6416 4.10596C35.792 4.03232 35.8667 3.91475 35.8659 3.75325C35.8653 3.65509 35.8162 3.57619 35.7185 3.51655C35.624 3.45689 35.5075 3.41001 35.3692 3.37592C35.2339 3.34182 35.0971 3.30455 34.9587 3.26413C34.8203 3.2237 34.7022 3.15626 34.6043 3.06178C34.5096 2.96412 34.4618 2.84088 34.461 2.69205C34.46 2.49889 34.5455 2.34169 34.7176 2.22043C34.8897 2.09917 35.1029 2.03786 35.3573 2.0365C35.53 2.03557 35.6857 2.08065 35.8244 2.17174C35.9662 2.25964 36.0375 2.38909 36.0385 2.56008C36.0391 2.67408 35.975 2.73142 35.8462 2.73212C35.7929 2.7324 35.7567 2.7231 35.7377 2.7042C35.7219 2.68528 35.7123 2.65208 35.7089 2.6046C35.7087 2.55394 35.7053 2.51754 35.6989 2.49541Z" fill="white"/>
<path d="M37.9947 4.41632C37.9382 4.41662 37.9073 3.93704 37.9022 2.97757C37.9 2.57225 37.8971 2.32686 37.8935 2.24137L37.7993 2.24188C37.7553 2.24212 37.7208 2.2423 37.6957 2.24244C37.6705 2.23941 37.6375 2.238 37.5967 2.23822C37.559 2.23525 37.5276 2.23067 37.5024 2.22448C37.4804 2.21826 37.4568 2.21047 37.4316 2.20111C37.3844 2.18236 37.3607 2.14924 37.3604 2.10174C37.3601 2.04157 37.4573 2.01097 37.652 2.00992C37.7368 2.00947 37.8138 2.01222 37.8829 2.01818C37.8857 1.95484 37.8868 1.87408 37.8863 1.77592C37.8889 1.67457 37.8916 1.59697 37.8945 1.54312C37.8973 1.48611 37.9001 1.41801 37.9028 1.33883C37.9087 1.25963 37.9162 1.19784 37.9254 1.15346C37.9377 1.10906 37.9531 1.0599 37.9717 1.00596C37.9902 0.948864 38.0151 0.905981 38.0464 0.877313C38.0776 0.848645 38.1136 0.819952 38.1543 0.791234C38.2262 0.737015 38.3454 0.709458 38.5118 0.708564C38.6814 0.707654 38.8057 0.749736 38.8847 0.834811C38.9668 0.916704 39.0398 1.05723 39.1037 1.25638C39.0569 1.31363 39.002 1.34243 38.9392 1.34277C38.9173 1.34288 38.8952 1.33983 38.8732 1.33362C38.8159 1.18193 38.7635 1.07929 38.7161 1.02572C38.6719 0.97212 38.6105 0.945533 38.532 0.945955C38.4534 0.946376 38.3938 0.960946 38.3532 0.989665C38.3156 1.01837 38.286 1.05494 38.2643 1.09939C38.2177 1.19464 38.1953 1.42434 38.1973 1.7885C38.1974 1.80433 38.1975 1.83283 38.1977 1.87399C38.198 1.91516 38.1982 1.95316 38.1984 1.98799L38.5986 1.94784C38.7556 1.947 38.8343 1.98299 38.8347 2.05582C38.835 2.10332 38.7974 2.13519 38.7222 2.15143C38.6469 2.16766 38.5511 2.17768 38.435 2.18147C38.3219 2.18524 38.2434 2.19516 38.1996 2.21123C38.1938 2.29993 38.1912 2.41711 38.192 2.56277C38.1928 2.70526 38.2019 2.93321 38.2193 3.24662C38.2366 3.55686 38.2458 3.79431 38.2466 3.95897C38.2475 4.12363 38.2309 4.24088 38.1967 4.31073C38.1657 4.38057 38.0983 4.41576 37.9947 4.41632Z" fill="white"/>
<path d="M39.1985 2.40537C39.3574 2.15751 39.5875 2.03278 39.889 2.03116C40.1905 2.02954 40.4314 2.15175 40.6118 2.39778C40.7953 2.64379 40.8878 2.92513 40.8895 3.24178C40.8912 3.55527 40.7937 3.82179 40.597 4.04135C40.4004 4.2609 40.1497 4.3715 39.8451 4.37313C39.5404 4.37477 39.3186 4.29046 39.1795 4.12021C39.0403 3.94679 38.9699 3.70334 38.9683 3.38985C38.9661 2.98136 39.0428 2.6532 39.1985 2.40537ZM39.4072 2.65599C39.367 2.77971 39.3362 2.90337 39.3149 3.02699C39.2967 3.15058 39.2879 3.26621 39.2885 3.37388C39.2891 3.47837 39.2975 3.57491 39.3136 3.66349C39.3298 3.7489 39.3569 3.83426 39.3951 3.91955C39.4332 4.00168 39.4901 4.06787 39.5658 4.11813C39.6414 4.16523 39.731 4.1885 39.8347 4.18794C40.0451 4.18681 40.2205 4.09878 40.3609 3.92387C40.5044 3.74893 40.5755 3.53797 40.5742 3.29097C40.5728 3.04398 40.5056 2.80526 40.3725 2.57481C40.2424 2.34118 40.0832 2.22487 39.8948 2.22588C39.7817 2.22649 39.683 2.2666 39.5986 2.34622C39.5143 2.42584 39.4504 2.5291 39.4072 2.65599Z" fill="white"/>
<path d="M41.8175 3.89704L41.8331 4.16771C41.8335 4.23737 41.8133 4.28656 41.7727 4.31528C41.7351 4.34082 41.6959 4.35369 41.6551 4.35391C41.6174 4.35412 41.5781 4.34799 41.5372 4.33555C41.4661 3.9686 41.4103 3.51132 41.3697 2.9637C41.3322 2.41608 41.3101 2.10586 41.3034 2.03307C41.3503 1.98848 41.3989 1.96605 41.4491 1.96578C41.5025 1.9655 41.5496 1.97158 41.5905 1.98402C41.6036 2.07579 41.6141 2.2784 41.6221 2.59185C41.63 2.90531 41.6389 3.10159 41.6488 3.1807C41.6913 2.91448 41.7685 2.66548 41.8803 2.43372C41.9424 2.30355 42.0235 2.2002 42.1236 2.12366C42.2268 2.04394 42.3365 2.00377 42.4527 2.00314C42.5721 2.0025 42.6807 2.05575 42.7787 2.16289C42.8797 2.26685 42.9305 2.36158 42.9309 2.44707C42.9311 2.47874 42.9124 2.50417 42.8748 2.52337C42.8372 2.53941 42.7949 2.54755 42.7478 2.54781C42.7038 2.54804 42.6692 2.53081 42.6438 2.49612C42.6185 2.46142 42.601 2.42351 42.5914 2.3824C42.5817 2.33812 42.5611 2.29864 42.5295 2.26398C42.4979 2.22932 42.4554 2.21213 42.4021 2.21242C42.2607 2.21317 42.1405 2.34207 42.0414 2.5991C41.8896 2.98308 41.8149 3.41573 41.8175 3.89704Z" fill="white"/>
<path d="M44.6607 0.822796C44.665 1.04444 44.6675 1.21067 44.6681 1.3215C44.6687 1.42917 44.6677 1.53684 44.6651 1.64452C44.6657 1.75218 44.6621 1.9612 44.6543 2.27157C44.6466 2.57878 44.6416 2.82264 44.6394 3.00315C44.7583 2.92018 44.9005 2.79275 45.0661 2.62086C45.2316 2.4458 45.3815 2.29617 45.5159 2.17195C45.7284 1.97764 45.8804 1.91824 45.9719 1.99375C46.0066 2.02206 46.0177 2.04892 46.0053 2.07432C45.9743 2.14098 45.9025 2.22212 45.7899 2.31772C45.6805 2.41331 45.5508 2.52167 45.4007 2.64281C45.2506 2.76395 45.1318 2.87542 45.0444 2.97722C45.2739 3.00766 45.4583 3.1365 45.5977 3.36375C45.6579 3.46792 45.7166 3.57211 45.7737 3.6763C45.9196 3.95102 46.0776 4.137 46.2478 4.23425C46.1853 4.29792 46.1132 4.32997 46.0316 4.33041C45.9499 4.33085 45.868 4.29171 45.786 4.21298C45.707 4.13424 45.6374 4.03803 45.5771 3.92436C45.52 3.81066 45.4613 3.69698 45.401 3.5833C45.2645 3.30854 45.1067 3.17164 44.9277 3.1726C44.8429 3.17305 44.7708 3.20194 44.7115 3.25926C44.6521 3.31341 44.6225 3.37057 44.6229 3.43073C44.6249 3.81072 44.6201 4.09258 44.6086 4.2763C44.5649 4.3367 44.518 4.36704 44.4677 4.36731C44.452 4.36739 44.4347 4.36432 44.4159 4.35809C44.3466 4.32996 44.3117 4.27156 44.3113 4.1829C44.3139 4.09422 44.3219 3.82501 44.3352 3.37528C44.3636 2.22563 44.3769 1.4909 44.3752 1.17108C44.3744 1.02225 44.388 0.922426 44.416 0.87161C44.4471 0.820776 44.4831 0.79525 44.5239 0.795031C44.5679 0.794794 44.6135 0.80405 44.6607 0.822796Z" fill="white"/>
<path d="M46.8357 0.839616C46.833 0.912464 46.8319 0.993219 46.8323 1.08188C46.8328 1.17055 46.838 1.26235 46.8479 1.3573C46.8042 1.4082 46.7447 1.43385 46.6693 1.43426C46.5751 1.43476 46.5276 1.35902 46.5268 1.20702C46.5268 1.20069 46.5266 1.17694 46.5264 1.13578C46.5262 1.09461 46.526 1.05819 46.5258 1.02653C46.5288 0.99168 46.5348 0.952065 46.544 0.907682C46.5656 0.831567 46.6141 0.793307 46.6894 0.792902C46.7648 0.792497 46.8136 0.808069 46.8357 0.839616ZM46.5467 3.16865C46.5434 2.54801 46.5729 2.19002 46.6352 2.09469C46.657 2.05974 46.6836 2.04218 46.715 2.04201C46.7464 2.04184 46.7983 2.05898 46.8707 2.09342C46.8565 2.36266 46.8502 2.65561 46.8519 2.97227C46.8519 2.97227 46.8569 3.32215 46.867 4.02193C46.8675 4.12009 46.8459 4.18987 46.8021 4.23128C46.7615 4.26949 46.7224 4.2887 46.6847 4.28891C46.6501 4.28909 46.614 4.27979 46.5762 4.26099C46.5583 3.84942 46.5484 3.48531 46.5467 3.16865Z" fill="white"/>
<path d="M49.214 0.518098C49.1005 1.60803 49.045 2.38574 49.0475 2.85123C49.05 3.31354 49.0948 3.77563 49.1821 4.2375C49.1197 4.30116 49.0649 4.33312 49.0178 4.33338C48.9706 4.33363 48.9314 4.32751 48.8999 4.31501C48.8327 4.08104 48.792 3.82634 48.778 3.55092C48.7033 3.67165 48.6472 3.75745 48.6098 3.80832C48.5755 3.85917 48.5147 3.93391 48.4273 4.03255C48.2681 4.2234 48.0786 4.31942 47.8588 4.3206C47.6923 4.32149 47.571 4.24456 47.4948 4.08981C47.4217 3.93187 47.3845 3.73098 47.3832 3.48716C47.3819 3.24017 47.4073 3.0057 47.4595 2.78375C47.5148 2.55863 47.6096 2.36495 47.7438 2.20273C47.8779 2.03735 48.0439 1.95412 48.2418 1.95306C48.3611 1.95242 48.4712 1.97716 48.572 2.02729C48.6727 2.07741 48.7422 2.14512 48.7803 2.23042C48.7862 2.14488 48.7917 2.01344 48.7971 1.83608C48.8024 1.65872 48.8078 1.50194 48.8134 1.36574C48.8221 1.22636 48.8354 1.08538 48.8535 0.942781C48.8864 0.638606 48.9626 0.486198 49.0819 0.485557C49.1227 0.485338 49.1667 0.496185 49.214 0.518098ZM48.6729 2.40199C48.6348 2.33253 48.5828 2.28214 48.5166 2.25083C48.4505 2.21635 48.3625 2.19941 48.2525 2.2C48.1458 2.20057 48.0456 2.26286 47.952 2.38686C47.7681 2.63168 47.6773 2.98525 47.6798 3.44757C47.6806 3.5964 47.7049 3.7451 47.7529 3.89367C47.8007 4.03908 47.8702 4.11154 47.9613 4.11105C48.0932 4.11034 48.2215 4.02257 48.3462 3.84774C48.4709 3.6729 48.5672 3.47289 48.635 3.24769C48.7029 3.01933 48.7364 2.8149 48.7354 2.6344C48.7349 2.54891 48.7141 2.47144 48.6729 2.40199Z" fill="white"/>
<path d="M50.862 2.41399C50.8333 2.34131 50.7796 2.2846 50.7009 2.24385C50.6221 2.20311 50.5247 2.18305 50.4085 2.18367C50.2923 2.1843 50.1825 2.21972 50.0793 2.28994C49.9791 2.36014 49.9294 2.45383 49.93 2.57099C49.9307 2.68815 49.9783 2.78131 50.0729 2.85047C50.1706 2.91645 50.287 2.96649 50.4223 3.00059C50.5606 3.03468 50.699 3.07194 50.8374 3.11236C50.9758 3.14962 51.0924 3.21391 51.1871 3.30523C51.2849 3.39338 51.3342 3.51028 51.335 3.65594C51.3362 3.8681 51.2491 4.03006 51.0738 4.14184C50.9017 4.25359 50.6931 4.31013 50.4482 4.31145C50.3037 4.31222 50.1135 4.27366 49.8775 4.19576C49.6447 4.11785 49.528 4.02347 49.5274 3.91264C49.5269 3.83031 49.5958 3.78878 49.734 3.78803C49.7748 3.78782 49.8283 3.81286 49.8946 3.86317C50.0964 4.01092 50.3025 4.08423 50.5129 4.0831C50.6259 4.08249 50.7232 4.06297 50.8047 4.02453C50.955 3.95089 51.0298 3.83333 51.0289 3.67183C51.0284 3.57367 50.9793 3.49477 50.8816 3.43512C50.787 3.37547 50.6706 3.32859 50.5322 3.2945C50.397 3.26039 50.2602 3.22313 50.1218 3.18271C49.9833 3.14228 49.8652 3.07483 49.7673 2.98036C49.6726 2.8827 49.6248 2.75946 49.624 2.61063C49.623 2.41747 49.7085 2.26026 49.8806 2.13901C50.0527 2.01775 50.2659 1.95644 50.5203 1.95507C50.693 1.95415 50.8487 1.99923 50.9874 2.09031C51.1292 2.17822 51.2006 2.30767 51.2015 2.47866C51.2021 2.59266 51.138 2.65 51.0093 2.65069C50.9559 2.65098 50.9197 2.64167 50.9008 2.62278C50.885 2.60386 50.8754 2.57066 50.872 2.52318C50.8717 2.47252 50.8684 2.43612 50.862 2.41399Z" fill="white"/>
</svg>
