<svg width="21" height="3" viewBox="0 0 21 3" fill="none" xmlns="http://www.w3.org/2000/svg">
<path d="M0.609079 1.04686C0.609079 0.854292 0.601121 0.68456 0.585205 0.537665C0.585205 0.499398 0.601121 0.466069 0.632952 0.437677C0.664783 0.409286 0.707021 0.387683 0.759665 0.37287C0.864954 0.345713 0.980648 0.332135 1.10675 0.332135C1.26958 0.332135 1.39752 0.36855 1.49056 0.441381C1.58483 0.512977 1.63197 0.623457 1.63197 0.772821C1.63197 0.922185 1.57198 1.04192 1.452 1.13204C1.33202 1.22215 1.18572 1.2672 1.01309 1.2672C0.924943 1.2672 0.83251 1.24869 0.735792 1.21166C0.72967 1.27091 0.72661 1.35114 0.72661 1.45237L0.728446 1.5431C0.728446 1.57272 0.727834 1.60358 0.72661 1.63568C0.720488 1.64432 0.713755 1.65049 0.706409 1.65419C0.699063 1.6579 0.693554 1.66037 0.689881 1.6616C0.687433 1.66407 0.683148 1.66592 0.677026 1.66715C0.670905 1.66839 0.66662 1.66901 0.664171 1.66901C0.656826 1.67147 0.648256 1.67271 0.638461 1.67271H0.607242C0.604794 1.58013 0.603569 1.49681 0.603569 1.42274L0.609079 1.04686ZM0.732119 1.07834C0.821492 1.13882 0.928616 1.16907 1.05349 1.16907C1.17837 1.16783 1.28366 1.12895 1.36936 1.05242C1.45506 0.974648 1.49791 0.879598 1.49791 0.767266C1.49791 0.654934 1.45383 0.570994 1.36568 0.515445C1.27754 0.459897 1.17164 0.432122 1.04798 0.432122C0.925556 0.432122 0.817207 0.460514 0.722937 0.517297C0.729058 0.597534 0.732119 0.784548 0.732119 1.07834Z" fill="black"/>
<path d="M1.96785 1.46162L1.97335 1.56717C1.97335 1.59432 1.9654 1.61346 1.94948 1.62457C1.93479 1.63444 1.91949 1.63938 1.90357 1.63938C1.88888 1.63938 1.87358 1.63691 1.85766 1.63197C1.83073 1.48878 1.80991 1.31041 1.79522 1.09685C1.78175 0.883301 1.7738 0.762328 1.77135 0.733937C1.78971 0.716655 1.80869 0.708014 1.82828 0.708014C1.84909 0.708014 1.86745 0.710483 1.88337 0.715421C1.88827 0.751219 1.89194 0.830221 1.89439 0.952428C1.89684 1.07464 1.8999 1.15117 1.90357 1.18203C1.92071 1.07834 1.95132 0.981437 1.99539 0.891325C2.01988 0.840714 2.05171 0.800595 2.09089 0.770969C2.13129 0.740109 2.17414 0.724679 2.21944 0.724679C2.26596 0.724679 2.3082 0.745664 2.34615 0.787634C2.38533 0.82837 2.40491 0.865402 2.40491 0.898731C2.40491 0.911075 2.39757 0.920951 2.38288 0.928357C2.36819 0.934529 2.35166 0.937615 2.33329 0.937615C2.31615 0.937615 2.30269 0.930826 2.29289 0.917247C2.2831 0.903669 2.27636 0.888856 2.27269 0.872809C2.26902 0.855527 2.26106 0.840097 2.24882 0.826518C2.23658 0.812939 2.22005 0.80615 2.19923 0.80615C2.14414 0.80615 2.09701 0.856144 2.05783 0.956132C1.99784 1.1055 1.96785 1.27399 1.96785 1.46162Z" fill="black"/>
<path d="M2.57484 0.87466C2.63728 0.778376 2.72726 0.730234 2.84479 0.730234C2.96233 0.730234 3.05598 0.778376 3.12577 0.87466C3.19678 0.970944 3.23228 1.08081 3.23228 1.20425C3.23228 1.32646 3.19371 1.43015 3.11658 1.51532C3.03946 1.6005 2.94151 1.64308 2.82276 1.64308C2.704 1.64308 2.61769 1.60975 2.56382 1.5431C2.50995 1.4752 2.48302 1.38015 2.48302 1.25795C2.48302 1.09871 2.51363 0.970944 2.57484 0.87466ZM2.65564 0.972796C2.63973 1.02094 2.62748 1.06908 2.61891 1.11722C2.61157 1.16536 2.6079 1.21042 2.6079 1.25239C2.6079 1.29313 2.61096 1.33078 2.61708 1.36534C2.6232 1.39867 2.63361 1.432 2.6483 1.46533C2.66299 1.49742 2.68503 1.52335 2.71441 1.5431C2.74379 1.56161 2.77868 1.57087 2.81908 1.57087C2.90111 1.57087 2.96967 1.53692 3.02476 1.46903C3.08108 1.40114 3.10924 1.31905 3.10924 1.22277C3.10924 1.12648 3.08353 1.03328 3.03211 0.94317C2.98191 0.851824 2.92009 0.80615 2.84663 0.80615C2.80256 0.80615 2.76399 0.82158 2.73094 0.852441C2.69788 0.883301 2.67278 0.92342 2.65564 0.972796Z" fill="black"/>
<path d="M3.31919 0.752453C3.33021 0.728999 3.35409 0.717272 3.39081 0.717272C3.40673 0.717272 3.4202 0.720976 3.43122 0.728382C3.4655 0.823432 3.49916 0.919099 3.53222 1.01538C3.59466 1.1919 3.65281 1.33139 3.70668 1.43385C3.73239 1.28325 3.78197 1.13142 3.85543 0.978351C3.93011 0.825284 3.99806 0.74875 4.05927 0.74875C4.07764 0.74875 4.096 0.75307 4.11437 0.761711C3.97357 0.948108 3.87257 1.19499 3.81136 1.50236C3.79911 1.57396 3.78565 1.61469 3.77095 1.62457C3.75504 1.63568 3.73851 1.64123 3.72137 1.64123C3.70423 1.64123 3.69076 1.63753 3.68097 1.63012C3.6724 1.62272 3.66567 1.61531 3.66077 1.6079C3.6571 1.6005 3.65159 1.58815 3.64424 1.57087C3.63812 1.55359 3.63322 1.54186 3.62955 1.53569C3.50467 1.29992 3.40122 1.03884 3.31919 0.752453Z" fill="black"/>
<path d="M4.36085 0.280289C4.35962 0.308681 4.35901 0.340158 4.35901 0.374722C4.35901 0.409286 4.36085 0.445084 4.36452 0.482116C4.34738 0.501867 4.32412 0.511742 4.29474 0.511742C4.25801 0.511742 4.23964 0.482116 4.23964 0.422864C4.23964 0.420396 4.23964 0.411137 4.23964 0.39509C4.23964 0.379043 4.23964 0.364847 4.23964 0.352503C4.24087 0.338924 4.24332 0.323494 4.24699 0.306212C4.25556 0.276586 4.27454 0.261773 4.30392 0.261773C4.3333 0.261773 4.35228 0.267945 4.36085 0.280289ZM4.24332 1.18758C4.24332 0.945639 4.25556 0.80615 4.28005 0.769118C4.28862 0.755539 4.29902 0.74875 4.31126 0.74875C4.32351 0.74875 4.34371 0.755539 4.37187 0.769118C4.36575 0.874043 4.36268 0.988226 4.36268 1.11167C4.36268 1.11167 4.36391 1.24807 4.36636 1.52088C4.36636 1.55914 4.35779 1.5863 4.34065 1.60235C4.32473 1.61716 4.30943 1.62457 4.29474 1.62457C4.28127 1.62457 4.26719 1.62086 4.2525 1.61346C4.24638 1.45298 4.24332 1.31103 4.24332 1.18758Z" fill="black"/>
<path d="M5.2886 0.159934C5.24208 0.584573 5.21882 0.887622 5.21882 1.06908C5.21882 1.24931 5.23534 1.42953 5.2684 1.60975C5.24391 1.63444 5.22249 1.64679 5.20412 1.64679C5.18576 1.64679 5.17046 1.64432 5.15821 1.63938C5.1325 1.54803 5.1172 1.44866 5.1123 1.34127C5.08292 1.38818 5.06088 1.42151 5.04619 1.44126C5.03273 1.46101 5.00885 1.49002 4.97457 1.52828C4.91213 1.60235 4.83806 1.63938 4.75236 1.63938C4.68748 1.63938 4.64034 1.60914 4.61096 1.54865C4.5828 1.48693 4.56872 1.40854 4.56872 1.31349C4.56872 1.21721 4.57913 1.12586 4.59994 1.03945C4.62198 0.951811 4.65932 0.876512 4.71196 0.813557C4.76461 0.749367 4.82949 0.717272 4.90662 0.717272C4.95315 0.717272 4.996 0.727148 5.03517 0.746898C5.07435 0.766649 5.10129 0.793189 5.11598 0.826518C5.11843 0.793189 5.12087 0.741961 5.12332 0.672833C5.12577 0.603706 5.12822 0.542603 5.13067 0.489523C5.13434 0.435208 5.13985 0.380277 5.1472 0.324728C5.16066 0.206225 5.19066 0.146973 5.23718 0.146973C5.2531 0.146973 5.27024 0.151293 5.2886 0.159934ZM5.07374 0.893176C5.05905 0.866019 5.03885 0.846269 5.01314 0.833924C4.98743 0.820346 4.95315 0.813557 4.9103 0.813557C4.86867 0.813557 4.82949 0.837628 4.79277 0.88577C4.72053 0.98082 4.68442 1.11846 4.68442 1.29868C4.68442 1.3567 4.6936 1.41472 4.71196 1.47273C4.73033 1.52952 4.75726 1.55791 4.79277 1.55791C4.84419 1.55791 4.89438 1.52396 4.94335 1.45607C4.99232 1.38818 5.03028 1.31041 5.05721 1.22277C5.08415 1.13389 5.09761 1.05427 5.09761 0.983906C5.09761 0.950577 5.08965 0.920334 5.07374 0.893176Z" fill="black"/>
<path d="M5.59649 0.280289C5.59526 0.308681 5.59465 0.340158 5.59465 0.374722C5.59465 0.409286 5.59649 0.445084 5.60016 0.482116C5.58302 0.501867 5.55976 0.511742 5.53038 0.511742C5.49365 0.511742 5.47528 0.482116 5.47528 0.422864C5.47528 0.420396 5.47528 0.411137 5.47528 0.39509C5.47528 0.379043 5.47528 0.364847 5.47528 0.352503C5.47651 0.338924 5.47896 0.323494 5.48263 0.306212C5.4912 0.276586 5.51018 0.261773 5.53956 0.261773C5.56894 0.261773 5.58792 0.267945 5.59649 0.280289ZM5.47896 1.18758C5.47896 0.945639 5.4912 0.80615 5.51569 0.769118C5.52426 0.755539 5.53466 0.74875 5.5469 0.74875C5.55915 0.74875 5.57935 0.755539 5.60751 0.769118C5.60138 0.874043 5.59832 0.988226 5.59832 1.11167C5.59832 1.11167 5.59955 1.24807 5.602 1.52088C5.602 1.55914 5.59343 1.5863 5.57629 1.60235C5.56037 1.61716 5.54507 1.62457 5.53038 1.62457C5.51691 1.62457 5.50283 1.62086 5.48814 1.61346C5.48202 1.45298 5.47896 1.31103 5.47896 1.18758Z" fill="black"/>
<path d="M6.58851 1.59124C6.56648 1.61469 6.54138 1.62642 6.51322 1.62642C6.46058 1.62642 6.4214 1.59803 6.39569 1.54124C6.36998 1.48446 6.35468 1.41533 6.34978 1.33386C6.34611 1.25239 6.34366 1.17092 6.34243 1.08945C6.34121 1.00798 6.33448 0.93885 6.32223 0.882067C6.31121 0.825284 6.28979 0.796892 6.25796 0.796892C6.21511 0.796892 6.17838 0.835776 6.14777 0.913544C6.11839 0.991312 6.09758 1.07772 6.08534 1.17277C6.05106 1.43817 6.018 1.58692 5.98617 1.61901C5.96413 1.63012 5.94515 1.63568 5.92924 1.63568C5.91332 1.63568 5.89986 1.63383 5.88884 1.63012C5.86313 1.51656 5.8466 1.3209 5.83925 1.04316C5.83681 0.904903 5.83436 0.815408 5.83191 0.774673C5.85762 0.757391 5.87966 0.74875 5.89802 0.74875C5.91638 0.74875 5.93108 0.750602 5.94209 0.754305C5.94822 0.807385 5.95128 0.916013 5.95128 1.08019C5.9525 1.24437 5.95372 1.3388 5.95495 1.36349C5.96107 1.33757 5.96842 1.2956 5.97699 1.23758C5.98678 1.17956 5.99535 1.13204 6.0027 1.095C6.01004 1.05674 6.02167 1.0123 6.03759 0.961686C6.0535 0.911075 6.07126 0.870957 6.09084 0.841331C6.11043 0.810471 6.13737 0.784548 6.17165 0.763563C6.20593 0.741343 6.24449 0.730234 6.28734 0.730234C6.34488 0.730234 6.38651 0.756774 6.41222 0.809853C6.43915 0.861699 6.45384 0.926506 6.45629 1.00427C6.45874 1.08204 6.45997 1.16104 6.45997 1.24128C6.46119 1.32152 6.47098 1.39497 6.48935 1.46162C6.50894 1.52828 6.54199 1.57149 6.58851 1.59124Z" fill="black"/>
<path d="M7.0285 0.717272C7.13991 0.717272 7.21704 0.762946 7.25989 0.854292C7.28315 0.902434 7.30212 0.948108 7.31681 0.991312C7.33151 1.03452 7.3413 1.09377 7.3462 1.16907C7.35354 1.28387 7.35722 1.41472 7.35722 1.56161C7.35722 1.70727 7.32232 1.82331 7.25254 1.90972C7.18398 1.99736 7.08298 2.04118 6.94953 2.04118C6.81731 2.04118 6.70712 1.99798 6.61897 1.91157C6.64346 1.88688 6.66978 1.87454 6.69794 1.87454C6.72732 1.87454 6.76711 1.88688 6.81731 1.91157C6.86873 1.93749 6.92321 1.95045 6.98075 1.95045C7.03829 1.95045 7.08604 1.93687 7.12399 1.90972C7.16194 1.88379 7.1901 1.84676 7.20847 1.79862C7.23907 1.71345 7.25438 1.60852 7.25438 1.48384C7.25438 1.46533 7.25254 1.39682 7.24887 1.27831C7.21581 1.37954 7.16868 1.46348 7.10746 1.53013C7.04625 1.59556 6.97708 1.62827 6.89995 1.62827C6.82282 1.62827 6.76589 1.59371 6.72916 1.52458C6.69366 1.45422 6.6759 1.3746 6.6759 1.28572C6.6759 1.19684 6.68815 1.11043 6.71263 1.02649C6.73712 0.941319 6.77691 0.868488 6.832 0.808002C6.88709 0.747515 6.95259 0.717272 7.0285 0.717272ZM6.83383 0.998719C6.81792 1.05303 6.80629 1.10426 6.79894 1.1524C6.7916 1.20055 6.78792 1.24931 6.78792 1.29868C6.78792 1.34682 6.79772 1.40052 6.81731 1.45977C6.83812 1.51902 6.86811 1.54865 6.90729 1.54865C6.98442 1.54865 7.05298 1.49063 7.11297 1.3746C7.17296 1.25733 7.20296 1.13944 7.20296 1.02094C7.20296 0.980203 7.18398 0.934529 7.14603 0.883918C7.1093 0.832073 7.06278 0.80615 7.00646 0.80615C6.96728 0.80615 6.93239 0.824666 6.90178 0.861699C6.8724 0.898731 6.84975 0.944405 6.83383 0.998719Z" fill="black"/>
<path d="M8.73161 1.59124C8.70957 1.61469 8.68447 1.62642 8.65631 1.62642C8.60367 1.62642 8.56449 1.59803 8.53878 1.54124C8.51307 1.48446 8.49777 1.41533 8.49287 1.33386C8.4892 1.25239 8.48675 1.17092 8.48553 1.08945C8.4843 1.00798 8.47757 0.93885 8.46533 0.882067C8.45431 0.825284 8.43288 0.796892 8.40105 0.796892C8.3582 0.796892 8.32147 0.835776 8.29086 0.913544C8.26148 0.991312 8.24067 1.07772 8.22843 1.17277C8.19415 1.43817 8.16109 1.58692 8.12926 1.61901C8.10722 1.63012 8.08825 1.63568 8.07233 1.63568C8.05642 1.63568 8.04295 1.63383 8.03193 1.63012C8.00622 1.51656 7.98969 1.3209 7.98235 1.04316C7.9799 0.904903 7.97745 0.815408 7.975 0.774673C8.00071 0.757391 8.02275 0.74875 8.04111 0.74875C8.05948 0.74875 8.07417 0.750602 8.08519 0.754305C8.09131 0.807385 8.09437 0.916013 8.09437 1.08019C8.09559 1.24437 8.09682 1.3388 8.09804 1.36349C8.10416 1.33757 8.11151 1.2956 8.12008 1.23758C8.12987 1.17956 8.13844 1.13204 8.14579 1.095C8.15313 1.05674 8.16476 1.0123 8.18068 0.961686C8.1966 0.911075 8.21435 0.870957 8.23394 0.841331C8.25352 0.810471 8.28046 0.784548 8.31474 0.763563C8.34902 0.741343 8.38758 0.730234 8.43043 0.730234C8.48797 0.730234 8.5296 0.756774 8.55531 0.809853C8.58224 0.861699 8.59694 0.926506 8.59938 1.00427C8.60183 1.08204 8.60306 1.16104 8.60306 1.24128C8.60428 1.32152 8.61408 1.39497 8.63244 1.46162C8.65203 1.52828 8.68508 1.57149 8.73161 1.59124Z" fill="black"/>
<path d="M8.94387 1.2672C8.94142 1.29189 8.9402 1.30856 8.9402 1.3172C8.9402 1.39126 8.96224 1.44866 9.00631 1.4894C9.05161 1.53013 9.10486 1.5505 9.16608 1.5505C9.22729 1.5505 9.27688 1.54186 9.31483 1.52458C9.35401 1.5073 9.38216 1.48878 9.3993 1.46903C9.44338 1.41348 9.48378 1.38571 9.52051 1.38571C9.53398 1.38571 9.54989 1.38941 9.56826 1.39682C9.55601 1.4573 9.50949 1.51285 9.42869 1.56346C9.34911 1.61284 9.24872 1.63753 9.12751 1.63753C9.04181 1.63753 8.96774 1.61037 8.90531 1.55606C8.84409 1.50051 8.81348 1.42521 8.81348 1.33016C8.81348 1.23511 8.83185 1.14315 8.86858 1.05427C8.90653 0.964155 8.9604 0.887621 9.03018 0.824666C9.10119 0.760477 9.17281 0.728382 9.24504 0.728382C9.3185 0.728382 9.37727 0.743812 9.42134 0.774673C9.46664 0.804299 9.48929 0.84812 9.48929 0.906138C9.48929 1.01353 9.44154 1.10241 9.34605 1.17277C9.25178 1.2419 9.15139 1.27646 9.04487 1.27646C9.01672 1.27646 8.98305 1.27338 8.94387 1.2672ZM9.08344 1.2061C9.14098 1.2061 9.1924 1.18758 9.2377 1.15055C9.283 1.11352 9.31483 1.07464 9.33319 1.0339C9.35278 0.993164 9.36258 0.956132 9.36258 0.922802C9.36258 0.889473 9.34972 0.860464 9.32401 0.835776C9.2983 0.809853 9.26831 0.796892 9.23403 0.796892C9.17281 0.796892 9.11588 0.839479 9.06324 0.924654C9.01182 1.00983 8.97509 1.09809 8.95305 1.18944C9.00692 1.20055 9.05038 1.2061 9.08344 1.2061Z" fill="black"/>
<path d="M10.2122 1.4283C10.1926 1.48508 10.1547 1.53322 10.0983 1.57272C10.0433 1.61222 9.98266 1.63197 9.91654 1.63197C9.85166 1.63197 9.80085 1.59926 9.76412 1.53384C9.72862 1.46718 9.71086 1.37522 9.71086 1.25795C9.71086 0.927123 9.75922 0.761711 9.85594 0.761711C9.86819 0.761711 9.88349 0.763563 9.90185 0.767266C9.89818 0.787017 9.88961 0.824666 9.87614 0.880215C9.84921 0.988844 9.83574 1.08451 9.83574 1.16722C9.83574 1.24992 9.84737 1.33757 9.87063 1.43015C9.8939 1.52149 9.92695 1.56717 9.9698 1.56717C9.99184 1.56717 10.0133 1.55297 10.0341 1.52458C10.0549 1.49619 10.0714 1.46656 10.0837 1.4357C10.0959 1.40361 10.1088 1.36719 10.1222 1.32646C10.1357 1.28572 10.1443 1.26103 10.1479 1.25239C10.1296 1.1808 10.1204 1.10796 10.1204 1.0339C10.1204 1.0302 10.1204 1.01909 10.1204 1.00057C10.1204 0.98082 10.121 0.961686 10.1222 0.94317C10.1234 0.924654 10.1271 0.902434 10.1332 0.876512C10.1455 0.824666 10.1785 0.798744 10.2324 0.798744C10.2777 0.798744 10.3004 0.867871 10.3004 1.00613C10.3004 1.03081 10.2967 1.06661 10.2893 1.11352C10.2832 1.16043 10.2802 1.19314 10.2802 1.21166C10.2802 1.26844 10.3071 1.34189 10.361 1.432C10.4148 1.52211 10.465 1.56717 10.5115 1.56717C10.5593 1.56717 10.5942 1.54001 10.6162 1.4857C10.6383 1.43138 10.6493 1.37089 10.6493 1.30424C10.6493 1.2277 10.6425 1.16969 10.6291 1.13018C10.6168 1.08945 10.6089 1.06291 10.6052 1.05056C10.6028 1.03822 10.5948 1.01909 10.5813 0.993164C10.5691 0.966007 10.5611 0.948725 10.5575 0.941319C10.555 0.933912 10.5458 0.916013 10.5299 0.887622C10.514 0.85923 10.5048 0.843183 10.5024 0.839479C10.4669 0.776524 10.446 0.741961 10.4399 0.735789C10.4705 0.709866 10.4987 0.696904 10.5244 0.696904C10.5991 0.751219 10.6585 0.840097 10.7025 0.963538C10.7466 1.08575 10.7686 1.19746 10.7686 1.29868C10.7686 1.39867 10.7472 1.47767 10.7044 1.53569C10.6627 1.59247 10.5972 1.62086 10.5079 1.62086C10.4454 1.62086 10.3861 1.60358 10.3297 1.56902C10.2746 1.53322 10.2355 1.48631 10.2122 1.4283Z" fill="black"/>
<path d="M11.3884 0.311767C11.4031 0.28461 11.43 0.271031 11.4692 0.271031C11.4777 0.271031 11.4863 0.272266 11.4949 0.274735C11.4973 0.340159 11.4985 0.522852 11.4985 0.822815C11.4998 0.82158 11.5053 0.816025 11.5151 0.80615C11.5261 0.796275 11.5328 0.790103 11.5353 0.787634C11.5377 0.785165 11.5438 0.77961 11.5536 0.770969C11.5634 0.761094 11.5708 0.754922 11.5757 0.752453C11.5818 0.74875 11.5898 0.743812 11.5996 0.73764C11.6093 0.730234 11.6179 0.725296 11.6253 0.722827C11.6326 0.719124 11.6412 0.715421 11.651 0.711717C11.6693 0.705545 11.6908 0.702459 11.7152 0.702459C11.8058 0.702459 11.8787 0.740726 11.9338 0.81726C11.9889 0.892559 12.0164 0.977117 12.0164 1.07093C12.0164 1.16475 12.0023 1.25424 11.9742 1.33942C11.946 1.42336 11.9026 1.49681 11.8438 1.55976C11.785 1.62272 11.7165 1.65419 11.6381 1.65419C11.561 1.65419 11.4961 1.62518 11.4435 1.56717C11.392 1.50915 11.3663 1.44311 11.3663 1.36904C11.3663 1.29374 11.3706 1.15549 11.3792 0.95428C11.3878 0.751836 11.392 0.606792 11.392 0.519149C11.392 0.430271 11.3908 0.361144 11.3884 0.311767ZM11.651 1.56346C11.6987 1.56346 11.7416 1.54063 11.7795 1.49495C11.8567 1.40484 11.8952 1.27708 11.8952 1.11167C11.8952 1.02279 11.8781 0.944405 11.8438 0.876512C11.8095 0.807385 11.7612 0.772821 11.6987 0.772821C11.6632 0.772821 11.632 0.79072 11.6051 0.826518C11.5781 0.861082 11.5573 0.907372 11.5426 0.96539C11.5145 1.07525 11.5004 1.19746 11.5004 1.33201C11.5004 1.44558 11.5236 1.51532 11.5702 1.54124C11.591 1.55359 11.6179 1.56099 11.651 1.56346Z" fill="black"/>
<path d="M12.2903 1.2672C12.2879 1.29189 12.2866 1.30856 12.2866 1.3172C12.2866 1.39126 12.3087 1.44866 12.3528 1.4894C12.3981 1.53013 12.4513 1.5505 12.5125 1.5505C12.5737 1.5505 12.6233 1.54186 12.6613 1.52458C12.7005 1.5073 12.7286 1.48878 12.7458 1.46903C12.7898 1.41348 12.8302 1.38571 12.867 1.38571C12.8804 1.38571 12.8963 1.38941 12.9147 1.39682C12.9025 1.4573 12.8559 1.51285 12.7751 1.56346C12.6956 1.61284 12.5952 1.63753 12.474 1.63753C12.3883 1.63753 12.3142 1.61037 12.2518 1.55606C12.1905 1.50051 12.1599 1.42521 12.1599 1.33016C12.1599 1.23511 12.1783 1.14315 12.215 1.05427C12.253 0.964155 12.3068 0.887621 12.3766 0.824666C12.4476 0.760477 12.5193 0.728382 12.5915 0.728382C12.665 0.728382 12.7237 0.743812 12.7678 0.774673C12.8131 0.804299 12.8357 0.84812 12.8357 0.906138C12.8357 1.01353 12.788 1.10241 12.6925 1.17277C12.5982 1.2419 12.4978 1.27646 12.3913 1.27646C12.3632 1.27646 12.3295 1.27338 12.2903 1.2672ZM12.4299 1.2061C12.4874 1.2061 12.5389 1.18758 12.5841 1.15055C12.6294 1.11352 12.6613 1.07464 12.6796 1.0339C12.6992 0.993164 12.709 0.956132 12.709 0.922802C12.709 0.889473 12.6962 0.860464 12.6705 0.835776C12.6448 0.809853 12.6148 0.796892 12.5805 0.796892C12.5193 0.796892 12.4623 0.839479 12.4097 0.924654C12.3583 1.00983 12.3215 1.09809 12.2995 1.18944C12.3534 1.20055 12.3968 1.2061 12.4299 1.2061Z" fill="black"/>
<path d="M13.7552 0.159934C13.7086 0.584573 13.6854 0.887622 13.6854 1.06908C13.6854 1.24931 13.7019 1.42953 13.735 1.60975C13.7105 1.63444 13.689 1.64679 13.6707 1.64679C13.6523 1.64679 13.637 1.64432 13.6248 1.63938C13.5991 1.54803 13.5838 1.44866 13.5789 1.34127C13.5495 1.38818 13.5274 1.42151 13.5127 1.44126C13.4993 1.46101 13.4754 1.49002 13.4411 1.52828C13.3787 1.60235 13.3046 1.63938 13.2189 1.63938C13.154 1.63938 13.1069 1.60914 13.0775 1.54865C13.0494 1.48693 13.0353 1.40854 13.0353 1.31349C13.0353 1.21721 13.0457 1.12586 13.0665 1.03945C13.0885 0.951811 13.1259 0.876512 13.1785 0.813557C13.2312 0.749367 13.2961 0.717272 13.3732 0.717272C13.4197 0.717272 13.4626 0.727148 13.5017 0.746898C13.5409 0.766649 13.5678 0.793189 13.5825 0.826518C13.585 0.793189 13.5874 0.741961 13.5899 0.672833C13.5923 0.603706 13.5948 0.542603 13.5972 0.489523C13.6009 0.435208 13.6064 0.380277 13.6138 0.324728C13.6272 0.206225 13.6572 0.146973 13.7037 0.146973C13.7197 0.146973 13.7368 0.151293 13.7552 0.159934ZM13.5403 0.893176C13.5256 0.866019 13.5054 0.846269 13.4797 0.833924C13.454 0.820346 13.4197 0.813557 13.3769 0.813557C13.3352 0.813557 13.296 0.837628 13.2593 0.88577C13.1871 0.98082 13.151 1.11846 13.151 1.29868C13.151 1.3567 13.1602 1.41472 13.1785 1.47273C13.1969 1.52952 13.2238 1.55791 13.2593 1.55791C13.3107 1.55791 13.3609 1.52396 13.4099 1.45607C13.4589 1.38818 13.4968 1.31041 13.5238 1.22277C13.5507 1.13389 13.5642 1.05427 13.5642 0.983906C13.5642 0.950577 13.5562 0.920334 13.5403 0.893176Z" fill="black"/>
<path d="M14.3936 0.902435C14.3826 0.874043 14.3618 0.851824 14.3312 0.835776C14.3006 0.819729 14.2626 0.811705 14.2173 0.811705C14.172 0.811705 14.1292 0.825284 14.0888 0.852441C14.0496 0.879598 14.03 0.916013 14.03 0.961686C14.03 1.00736 14.0484 1.04377 14.0851 1.07093C14.123 1.09685 14.1683 1.11661 14.221 1.13018C14.2748 1.14376 14.3287 1.15858 14.3826 1.17462C14.4364 1.18944 14.4817 1.21474 14.5185 1.25054C14.5564 1.2851 14.5754 1.33078 14.5754 1.38756C14.5754 1.47027 14.5411 1.53322 14.4726 1.57643C14.4052 1.61963 14.3238 1.64123 14.2283 1.64123C14.172 1.64123 14.0979 1.6258 14.0061 1.59494C13.9155 1.56408 13.8702 1.52705 13.8702 1.48384C13.8702 1.45175 13.8972 1.4357 13.951 1.4357C13.9669 1.4357 13.9878 1.44558 14.0135 1.46533C14.0918 1.52335 14.172 1.55235 14.254 1.55235C14.2981 1.55235 14.3361 1.54495 14.3679 1.53013C14.4267 1.50174 14.456 1.45607 14.456 1.39311C14.456 1.35485 14.4371 1.32399 14.3991 1.30053C14.3624 1.27708 14.3171 1.25856 14.2632 1.24498C14.2106 1.23141 14.1573 1.21659 14.1034 1.20055C14.0496 1.1845 14.0037 1.15796 13.9657 1.12093C13.929 1.08266 13.9106 1.03452 13.9106 0.976499C13.9106 0.9012 13.9443 0.840097 14.0116 0.793189C14.079 0.746281 14.1622 0.722827 14.2614 0.722827C14.3287 0.722827 14.3893 0.740726 14.4432 0.776524C14.4983 0.811088 14.5258 0.861699 14.5258 0.928357C14.5258 0.972796 14.5007 0.995016 14.4505 0.995016C14.4297 0.995016 14.4156 0.991312 14.4083 0.983906C14.4022 0.976499 14.3985 0.963538 14.3973 0.945022C14.3973 0.925271 14.396 0.911075 14.3936 0.902435Z" fill="black"/>
<path d="M15.2845 1.65604C15.2625 1.65604 15.2515 1.46903 15.2515 1.095C15.2515 0.936998 15.2508 0.841331 15.2496 0.808002H15.2129C15.1958 0.808002 15.1823 0.808002 15.1725 0.808002C15.1627 0.806767 15.1498 0.80615 15.1339 0.80615C15.1192 0.804916 15.107 0.803064 15.0972 0.800595C15.0886 0.798126 15.0794 0.79504 15.0696 0.791337C15.0513 0.783931 15.0421 0.770969 15.0421 0.752453C15.0421 0.728999 15.0801 0.717272 15.156 0.717272C15.189 0.717272 15.219 0.718507 15.2459 0.720976C15.2472 0.696287 15.2478 0.66481 15.2478 0.626543C15.249 0.587042 15.2502 0.556798 15.2515 0.535813C15.2527 0.513594 15.2539 0.487054 15.2551 0.456194C15.2576 0.425333 15.2606 0.401262 15.2643 0.38398C15.2692 0.366699 15.2753 0.347565 15.2827 0.32658C15.29 0.304361 15.2998 0.287696 15.3121 0.276586C15.3243 0.265476 15.3384 0.254367 15.3543 0.243257C15.3825 0.222272 15.429 0.211779 15.4939 0.211779C15.56 0.211779 15.6083 0.228444 15.6389 0.261773C15.6708 0.293868 15.6989 0.3488 15.7234 0.426568C15.7051 0.448787 15.6836 0.459897 15.6591 0.459897C15.6506 0.459897 15.642 0.458662 15.6334 0.456194C15.6114 0.396942 15.5912 0.356823 15.5728 0.335838C15.5557 0.314853 15.5318 0.30436 15.5012 0.30436C15.4706 0.30436 15.4473 0.309915 15.4314 0.321025C15.4167 0.332135 15.4051 0.346331 15.3965 0.363612C15.3782 0.400645 15.369 0.49014 15.369 0.632098C15.369 0.63827 15.369 0.649379 15.369 0.665427C15.369 0.681474 15.369 0.696287 15.369 0.709866L15.5251 0.695053C15.5863 0.695053 15.6169 0.709249 15.6169 0.73764C15.6169 0.756156 15.6022 0.7685 15.5728 0.774673C15.5434 0.780845 15.5061 0.784548 15.4608 0.785782C15.4167 0.787017 15.3861 0.79072 15.369 0.796892C15.3665 0.831456 15.3653 0.877129 15.3653 0.933912C15.3653 0.989461 15.3684 1.07834 15.3745 1.20055C15.3806 1.32152 15.3837 1.4141 15.3837 1.47829C15.3837 1.54248 15.3769 1.58815 15.3635 1.61531C15.3512 1.64247 15.3249 1.65604 15.2845 1.65604Z" fill="black"/>
<path d="M15.758 0.87466C15.8204 0.778376 15.9104 0.730234 16.0279 0.730234C16.1455 0.730234 16.2391 0.778376 16.3089 0.87466C16.3799 0.970944 16.4154 1.08081 16.4154 1.20425C16.4154 1.32646 16.3769 1.43015 16.2997 1.51532C16.2226 1.6005 16.1247 1.64308 16.0059 1.64308C15.8872 1.64308 15.8008 1.60975 15.747 1.5431C15.6931 1.4752 15.6662 1.38015 15.6662 1.25795C15.6662 1.09871 15.6968 0.970944 15.758 0.87466ZM15.8388 0.972796C15.8229 1.02094 15.8106 1.06908 15.8021 1.11722C15.7947 1.16536 15.791 1.21042 15.791 1.25239C15.791 1.29313 15.7941 1.33078 15.8002 1.36534C15.8064 1.39867 15.8168 1.432 15.8314 1.46533C15.8461 1.49742 15.8682 1.52335 15.8976 1.5431C15.9269 1.56161 15.9618 1.57087 16.0022 1.57087C16.0843 1.57087 16.1528 1.53692 16.2079 1.46903C16.2642 1.40114 16.2924 1.31905 16.2924 1.22277C16.2924 1.12648 16.2667 1.03328 16.2153 0.94317C16.1651 0.851824 16.1032 0.80615 16.0298 0.80615C15.9857 0.80615 15.9471 0.82158 15.9141 0.852441C15.881 0.883301 15.8559 0.92342 15.8388 0.972796Z" fill="black"/>
<path d="M16.7758 1.46162L16.7813 1.56717C16.7813 1.59432 16.7734 1.61346 16.7574 1.62457C16.7427 1.63444 16.7274 1.63938 16.7115 1.63938C16.6968 1.63938 16.6815 1.63691 16.6656 1.63197C16.6387 1.48878 16.6179 1.31041 16.6032 1.09685C16.5897 0.883301 16.5818 0.762328 16.5793 0.733937C16.5977 0.716655 16.6166 0.708014 16.6362 0.708014C16.657 0.708014 16.6754 0.710483 16.6913 0.715421C16.6962 0.751219 16.6999 0.830221 16.7023 0.952428C16.7048 1.07464 16.7079 1.15117 16.7115 1.18203C16.7287 1.07834 16.7593 0.981437 16.8033 0.891325C16.8278 0.840714 16.8597 0.800595 16.8988 0.770969C16.9392 0.740109 16.9821 0.724679 17.0274 0.724679C17.0739 0.724679 17.1162 0.745664 17.1541 0.787634C17.1933 0.82837 17.2129 0.865402 17.2129 0.898731C17.2129 0.911075 17.2055 0.920951 17.1908 0.928357C17.1761 0.934529 17.1596 0.937615 17.1412 0.937615C17.1241 0.937615 17.1106 0.930826 17.1008 0.917247C17.0911 0.903669 17.0843 0.888856 17.0806 0.872809C17.077 0.855527 17.069 0.840097 17.0568 0.826518C17.0445 0.812939 17.028 0.80615 17.0072 0.80615C16.9521 0.80615 16.905 0.856144 16.8658 0.956132C16.8058 1.1055 16.7758 1.27399 16.7758 1.46162Z" fill="black"/>
<path d="M17.8906 0.26918C17.8918 0.355589 17.8924 0.420395 17.8924 0.4636C17.8924 0.50557 17.8918 0.54754 17.8906 0.58951C17.8906 0.63148 17.8887 0.712952 17.885 0.833924C17.8814 0.953663 17.8789 1.04871 17.8777 1.11907C17.9242 1.08698 17.9799 1.0376 18.0448 0.970945C18.1097 0.903052 18.1685 0.845034 18.2211 0.796892C18.3044 0.721593 18.3637 0.698756 18.3992 0.728382C18.4127 0.739492 18.417 0.749984 18.4121 0.75986C18.3999 0.785782 18.3717 0.81726 18.3276 0.854292C18.2848 0.891325 18.234 0.933295 18.1752 0.980203C18.1164 1.02711 18.0699 1.07031 18.0356 1.10982C18.125 1.12216 18.1966 1.17277 18.2505 1.26165C18.2738 1.30238 18.2964 1.34312 18.3184 1.38386C18.3748 1.49125 18.436 1.56408 18.5021 1.60235C18.4776 1.62704 18.4494 1.63938 18.4176 1.63938C18.3858 1.63938 18.3539 1.62395 18.3221 1.59309C18.2915 1.56223 18.2646 1.52458 18.2413 1.48014C18.2193 1.4357 18.1966 1.39126 18.1734 1.34682C18.1207 1.23943 18.0595 1.18573 17.9897 1.18573C17.9567 1.18573 17.9285 1.19684 17.9052 1.21906C17.882 1.24005 17.8704 1.26227 17.8704 1.28572C17.8704 1.43385 17.8679 1.54371 17.863 1.61531C17.8459 1.63876 17.8275 1.65049 17.8079 1.65049C17.8018 1.65049 17.7951 1.64926 17.7877 1.64679C17.7608 1.63568 17.7473 1.61284 17.7473 1.57828C17.7485 1.54371 17.7522 1.43879 17.7583 1.2635C17.7718 0.815408 17.7785 0.529024 17.7785 0.404348C17.7785 0.346331 17.784 0.307447 17.7951 0.287696C17.8073 0.267945 17.8214 0.25807 17.8373 0.25807C17.8544 0.25807 17.8722 0.261773 17.8906 0.26918Z" fill="black"/>
<path d="M18.7384 0.280289C18.7372 0.308681 18.7366 0.340158 18.7366 0.374722C18.7366 0.409286 18.7384 0.445084 18.7421 0.482116C18.7249 0.501867 18.7017 0.511742 18.6723 0.511742C18.6356 0.511742 18.6172 0.482116 18.6172 0.422864C18.6172 0.420396 18.6172 0.411137 18.6172 0.39509C18.6172 0.379043 18.6172 0.364847 18.6172 0.352503C18.6184 0.338924 18.6209 0.323494 18.6245 0.306212C18.6331 0.276586 18.6521 0.261773 18.6815 0.261773C18.7108 0.261773 18.7298 0.267945 18.7384 0.280289ZM18.6209 1.18758C18.6209 0.945639 18.6331 0.80615 18.6576 0.769118C18.6662 0.755539 18.6766 0.74875 18.6888 0.74875C18.7011 0.74875 18.7213 0.755539 18.7494 0.769118C18.7433 0.874043 18.7402 0.988226 18.7402 1.11167C18.7402 1.11167 18.7415 1.24807 18.7439 1.52088C18.7439 1.55914 18.7353 1.5863 18.7182 1.60235C18.7023 1.61716 18.687 1.62457 18.6723 1.62457C18.6588 1.62457 18.6447 1.62086 18.63 1.61346C18.6239 1.45298 18.6209 1.31103 18.6209 1.18758Z" fill="black"/>
<path d="M19.6661 0.159934C19.6196 0.584573 19.5964 0.887622 19.5964 1.06908C19.5964 1.24931 19.6129 1.42953 19.6459 1.60975C19.6215 1.63444 19.6 1.64679 19.5817 1.64679C19.5633 1.64679 19.548 1.64432 19.5358 1.63938C19.51 1.54803 19.4947 1.44866 19.4898 1.34127C19.4605 1.38818 19.4384 1.42151 19.4237 1.44126C19.4103 1.46101 19.3864 1.49002 19.3521 1.52828C19.2897 1.60235 19.2156 1.63938 19.1299 1.63938C19.065 1.63938 19.0179 1.60914 18.9885 1.54865C18.9603 1.48693 18.9463 1.40854 18.9463 1.31349C18.9463 1.21721 18.9567 1.12586 18.9775 1.03945C18.9995 0.951811 19.0369 0.876512 19.0895 0.813557C19.1422 0.749367 19.207 0.717272 19.2842 0.717272C19.3307 0.717272 19.3735 0.727148 19.4127 0.746898C19.4519 0.766649 19.4788 0.793189 19.4935 0.826518C19.496 0.793189 19.4984 0.741961 19.5009 0.672833C19.5033 0.603706 19.5058 0.542603 19.5082 0.489523C19.5119 0.435208 19.5174 0.380277 19.5247 0.324728C19.5382 0.206225 19.5682 0.146973 19.6147 0.146973C19.6306 0.146973 19.6478 0.151293 19.6661 0.159934ZM19.4513 0.893176C19.4366 0.866019 19.4164 0.846269 19.3907 0.833924C19.365 0.820346 19.3307 0.813557 19.2878 0.813557C19.2462 0.813557 19.207 0.837628 19.1703 0.88577C19.0981 0.98082 19.062 1.11846 19.062 1.29868C19.062 1.3567 19.0711 1.41472 19.0895 1.47273C19.1079 1.52952 19.1348 1.55791 19.1703 1.55791C19.2217 1.55791 19.2719 1.52396 19.3209 1.45607C19.3699 1.38818 19.4078 1.31041 19.4348 1.22277C19.4617 1.13389 19.4752 1.05427 19.4752 0.983906C19.4752 0.950577 19.4672 0.920334 19.4513 0.893176Z" fill="black"/>
<path d="M20.3046 0.902435C20.2936 0.874043 20.2728 0.851824 20.2421 0.835776C20.2115 0.819729 20.1736 0.811705 20.1283 0.811705C20.083 0.811705 20.0401 0.825284 19.9997 0.852441C19.9606 0.879598 19.941 0.916013 19.941 0.961686C19.941 1.00736 19.9593 1.04377 19.9961 1.07093C20.034 1.09685 20.0793 1.11661 20.132 1.13018C20.1858 1.14376 20.2397 1.15858 20.2936 1.17462C20.3474 1.18944 20.3927 1.21474 20.4295 1.25054C20.4674 1.2851 20.4864 1.33078 20.4864 1.38756C20.4864 1.47027 20.4521 1.53322 20.3836 1.57643C20.3162 1.61963 20.2348 1.64123 20.1393 1.64123C20.083 1.64123 20.0089 1.6258 19.9171 1.59494C19.8265 1.56408 19.7812 1.52705 19.7812 1.48384C19.7812 1.45175 19.8081 1.4357 19.862 1.4357C19.8779 1.4357 19.8987 1.44558 19.9244 1.46533C20.0028 1.52335 20.083 1.55235 20.165 1.55235C20.2091 1.55235 20.247 1.54495 20.2789 1.53013C20.3376 1.50174 20.367 1.45607 20.367 1.39311C20.367 1.35485 20.348 1.32399 20.3101 1.30053C20.2734 1.27708 20.2281 1.25856 20.1742 1.24498C20.1216 1.23141 20.0683 1.21659 20.0144 1.20055C19.9606 1.1845 19.9147 1.15796 19.8767 1.12093C19.84 1.08266 19.8216 1.03452 19.8216 0.976499C19.8216 0.9012 19.8553 0.840097 19.9226 0.793189C19.9899 0.746281 20.0732 0.722827 20.1724 0.722827C20.2397 0.722827 20.3003 0.740726 20.3542 0.776524C20.4093 0.811088 20.4368 0.861699 20.4368 0.928357C20.4368 0.972796 20.4117 0.995016 20.3615 0.995016C20.3407 0.995016 20.3266 0.991312 20.3193 0.983906C20.3132 0.976499 20.3095 0.963538 20.3083 0.945022C20.3083 0.925271 20.307 0.911075 20.3046 0.902435Z" fill="black"/>
</svg>
