<svg width="49" height="5" viewBox="0 0 49 5" fill="none" xmlns="http://www.w3.org/2000/svg">
<path d="M0.766168 2.41944C0.763684 1.9568 0.742376 1.54914 0.702245 1.19643C0.701751 1.1045 0.739558 1.02422 0.815665 0.9556C0.891772 0.88698 0.992967 0.834537 1.11925 0.79827C1.37185 0.731668 1.64963 0.697554 1.95258 0.695927C2.34377 0.693827 2.6516 0.779662 2.87608 0.953433C3.10348 1.12422 3.21814 1.38904 3.22007 1.74788C3.222 2.10672 3.07942 2.39516 2.79234 2.6132C2.50525 2.83123 2.15435 2.94137 1.73963 2.94359C1.52786 2.94473 1.30556 2.90144 1.07272 2.81372C1.05877 2.95615 1.05246 3.14895 1.05376 3.39213L1.05934 3.61008C1.05973 3.68126 1.05865 3.7554 1.05613 3.83253C1.04153 3.85337 1.02543 3.86828 1.00783 3.87727C0.990235 3.88626 0.977031 3.89227 0.968223 3.89528C0.962373 3.90124 0.952102 3.90575 0.937411 3.90879C0.922721 3.91183 0.912434 3.91337 0.906552 3.9134C0.888936 3.91943 0.868363 3.92251 0.844833 3.92263L0.76983 3.92304C0.762753 3.70065 0.758737 3.50048 0.757782 3.32254L0.766168 2.41944ZM1.06217 2.49348C1.27767 2.63764 1.53542 2.70892 1.83543 2.70731C2.13542 2.70273 2.38787 2.60795 2.59277 2.42298C2.79766 2.23504 2.89938 2.00613 2.89793 1.73626C2.89648 1.46639 2.78951 1.2653 2.57702 1.13298C2.36453 1.00067 2.10975 0.935306 1.81269 0.936901C1.51856 0.93848 1.25862 1.00809 1.03288 1.14572C1.04862 1.33841 1.05838 1.78766 1.06217 2.49348Z" fill="white"/>
<path d="M4.03589 3.39836L4.05049 3.65185C4.05084 3.7171 4.03196 3.76316 3.99387 3.79006C3.9587 3.81398 3.922 3.82603 3.88376 3.82624C3.84847 3.82643 3.81167 3.8207 3.77337 3.80904C3.70682 3.46537 3.65451 3.03711 3.61646 2.52425C3.58135 2.01137 3.56067 1.72084 3.55443 1.65266C3.59832 1.61091 3.6438 1.5899 3.69086 1.58965C3.74086 1.58938 3.78501 1.59508 3.82331 1.60673C3.83554 1.69267 3.84538 1.88243 3.85284 2.17599C3.8603 2.46956 3.86864 2.65338 3.87786 2.72748C3.9177 2.47814 3.98999 2.24495 4.09471 2.02789C4.15288 1.90598 4.22884 1.80919 4.32258 1.73751C4.41924 1.66285 4.52199 1.62522 4.63081 1.62464C4.74258 1.62404 4.84433 1.67391 4.93605 1.77425C5.03069 1.87161 5.07823 1.96033 5.07866 2.0404C5.07882 2.07006 5.0613 2.09388 5.0261 2.11186C4.99089 2.12688 4.95122 2.1345 4.9071 2.13474C4.86592 2.13496 4.83348 2.11883 4.80978 2.08633C4.78607 2.05383 4.7697 2.01833 4.76067 1.97983C4.75162 1.93836 4.73231 1.90139 4.70272 1.86893C4.67313 1.83646 4.63334 1.82036 4.58333 1.82063C4.45098 1.82134 4.33838 1.94206 4.24555 2.18278C4.10336 2.54239 4.03347 2.94759 4.03589 3.39836Z" fill="white"/>
<path d="M5.48659 1.98038C5.63536 1.74825 5.85092 1.63143 6.13328 1.62992C6.41564 1.6284 6.64127 1.74285 6.81017 1.97327C6.982 2.20367 7.06872 2.46716 7.07031 2.76372C7.07189 3.05731 6.98057 3.30692 6.79637 3.51255C6.61217 3.71817 6.37742 3.82175 6.09211 3.82328C5.80681 3.82481 5.59902 3.74585 5.46874 3.5864C5.33845 3.42399 5.27252 3.19598 5.27094 2.90239C5.26889 2.51982 5.34077 2.21249 5.48659 1.98038ZM5.68198 2.2151C5.64437 2.33097 5.61558 2.44678 5.59561 2.56255C5.57858 2.67831 5.57034 2.7866 5.57088 2.88743C5.5714 2.9853 5.57924 3.07571 5.5944 3.15867C5.60953 3.23866 5.63496 3.3186 5.67069 3.39848C5.7064 3.4754 5.75968 3.53739 5.83052 3.58446C5.90135 3.62857 5.9853 3.65036 6.08236 3.64984C6.27942 3.64878 6.4437 3.56634 6.57518 3.40252C6.7096 3.23869 6.77619 3.04111 6.77495 2.80979C6.77371 2.57847 6.71074 2.3549 6.58604 2.13907C6.46427 1.92026 6.31515 1.81133 6.13867 1.81228C6.03279 1.81285 5.94033 1.85042 5.86132 1.92498C5.7823 1.99955 5.72252 2.09626 5.68198 2.2151Z" fill="white"/>
<path d="M7.27329 1.67718C7.29946 1.62069 7.35666 1.59221 7.4449 1.59174C7.48314 1.59153 7.51554 1.60025 7.54211 1.6179C7.62569 1.84582 7.70781 2.07522 7.78846 2.30611C7.94075 2.72939 8.08226 3.06375 8.21299 3.3092C8.27282 2.94707 8.38998 2.58165 8.56448 2.21297C8.74193 1.84427 8.90418 1.65953 9.05124 1.65874C9.09536 1.6585 9.13954 1.66864 9.18377 1.68916C8.84792 2.13879 8.60845 2.73322 8.46536 3.47244C8.43687 3.64461 8.40504 3.74265 8.36987 3.76656C8.33178 3.79346 8.29214 3.80702 8.25096 3.80724C8.20979 3.80746 8.17738 3.79874 8.15376 3.78107C8.13307 3.76339 8.1168 3.74568 8.10494 3.72795C8.09602 3.7102 8.08263 3.68062 8.06476 3.63919C8.04983 3.59775 8.03791 3.56964 8.02901 3.55486C7.72595 2.99004 7.47405 2.36415 7.27329 1.67718Z" fill="white"/>
<path d="M9.76972 0.529392C9.76714 0.597617 9.76608 0.673248 9.76653 0.756285C9.76697 0.839323 9.77185 0.925302 9.78115 1.01422C9.74022 1.06189 9.68447 1.08592 9.61388 1.0863C9.52564 1.08677 9.48114 1.01583 9.48037 0.873484C9.48034 0.867553 9.48022 0.845311 9.48001 0.806758C9.47981 0.768205 9.47962 0.7341 9.47947 0.704444C9.48223 0.671807 9.48791 0.634705 9.49652 0.593139C9.51672 0.521853 9.56212 0.486021 9.63271 0.485642C9.7033 0.485263 9.74897 0.499846 9.76972 0.529392ZM9.49906 2.71064C9.49594 2.12938 9.52355 1.7941 9.5819 1.70482C9.60232 1.67209 9.62723 1.65564 9.65664 1.65548C9.68605 1.65533 9.73467 1.67138 9.8025 1.70364C9.78914 1.95579 9.78326 2.23015 9.78486 2.52671C9.78486 2.52671 9.78956 2.8544 9.79896 3.50977C9.79945 3.6017 9.77921 3.66706 9.73824 3.70583C9.7002 3.74162 9.66353 3.75962 9.62823 3.75981C9.59588 3.75998 9.56201 3.75126 9.52661 3.73366C9.50984 3.34821 9.50065 3.0072 9.49906 2.71064Z" fill="white"/>
<path d="M11.997 0.228275C11.8908 1.24905 11.8388 1.97741 11.8411 2.41336C11.8434 2.84634 11.8855 3.2791 11.9672 3.71166C11.9087 3.77129 11.8574 3.80122 11.8133 3.80146C11.7692 3.80169 11.7324 3.79596 11.7029 3.78425C11.6399 3.56513 11.6019 3.32659 11.5887 3.06865C11.5188 3.18172 11.4662 3.26208 11.4312 3.30972C11.3991 3.35734 11.3421 3.42734 11.2603 3.51972C11.1112 3.69846 10.9337 3.78838 10.7279 3.78949C10.572 3.79033 10.4583 3.71828 10.387 3.57334C10.3185 3.42542 10.2837 3.23729 10.2825 3.00893C10.2812 2.77762 10.305 2.55803 10.3539 2.35016C10.4057 2.13932 10.4945 1.95794 10.6201 1.80601C10.7458 1.65112 10.9013 1.57318 11.0866 1.57218C11.1983 1.57158 11.3014 1.59475 11.3958 1.6417C11.4901 1.68864 11.5552 1.75206 11.5909 1.83194C11.5964 1.75183 11.6016 1.62873 11.6066 1.46262C11.6116 1.29652 11.6167 1.14969 11.6219 1.02213C11.63 0.891599 11.6425 0.759558 11.6595 0.62601C11.6903 0.341137 11.7616 0.1984 11.8733 0.1978C11.9116 0.197594 11.9528 0.207753 11.997 0.228275ZM11.4903 1.99263C11.4547 1.92757 11.4059 1.88038 11.344 1.85106C11.282 1.81877 11.1996 1.8029 11.0966 1.80345C10.9966 1.80399 10.9028 1.86232 10.8152 1.97846C10.6429 2.20774 10.5579 2.53887 10.5602 2.97185C10.561 3.11124 10.5838 3.2505 10.6286 3.38965C10.6735 3.52583 10.7386 3.5937 10.8239 3.59324C10.9474 3.59257 11.0676 3.51037 11.1843 3.34663C11.3011 3.18289 11.3913 2.99557 11.4549 2.78466C11.5184 2.57079 11.5497 2.37933 11.5488 2.21029C11.5484 2.13022 11.5289 2.05766 11.4903 1.99263Z" fill="white"/>
<path d="M12.7383 0.513451C12.7357 0.581676 12.7346 0.657308 12.7351 0.740345C12.7355 0.823382 12.7404 0.909362 12.7497 0.998283C12.7088 1.04595 12.653 1.06998 12.5824 1.07036C12.4942 1.07083 12.4497 0.999894 12.4489 0.857544C12.4489 0.851613 12.4488 0.829371 12.4486 0.790818C12.4484 0.752265 12.4482 0.71816 12.448 0.688504C12.4508 0.655866 12.4565 0.618764 12.4651 0.577198C12.4853 0.505913 12.5307 0.470081 12.6013 0.469701C12.6719 0.469322 12.7175 0.483906 12.7383 0.513451ZM12.4676 2.6947C12.4645 2.11344 12.4921 1.77816 12.5505 1.68888C12.5709 1.65615 12.5958 1.6397 12.6252 1.63954C12.6546 1.63939 12.7032 1.65544 12.7711 1.6877C12.7577 1.93985 12.7518 2.21421 12.7534 2.51077C12.7534 2.51077 12.7581 2.83846 12.7675 3.49383C12.768 3.58576 12.7478 3.65112 12.7068 3.68989C12.6688 3.72568 12.6321 3.74368 12.5968 3.74387C12.5644 3.74404 12.5306 3.73532 12.4952 3.71772C12.4784 3.33227 12.4692 2.99126 12.4676 2.6947Z" fill="white"/>
<path d="M15.1385 3.65014C15.0859 3.70677 15.0257 3.73527 14.9581 3.73563C14.8316 3.73631 14.7371 3.66861 14.6746 3.53252C14.6121 3.39644 14.5744 3.23056 14.5616 3.03489C14.5517 2.83921 14.5448 2.64351 14.5408 2.44779C14.5368 2.25208 14.5198 2.08609 14.4896 1.94983C14.4624 1.81355 14.4106 1.74562 14.3341 1.74603C14.2312 1.74658 14.1434 1.84047 14.0709 2.0277C14.0013 2.21492 13.9524 2.42278 13.9242 2.65129C13.8453 3.28934 13.7678 3.64712 13.6917 3.72464C13.6389 3.75161 13.5934 3.76521 13.5552 3.76541C13.5169 3.76562 13.4846 3.76134 13.4581 3.75259C13.3948 3.48008 13.3526 3.01024 13.3314 2.34307C13.3237 2.01096 13.3167 1.79598 13.3102 1.69815C13.3718 1.6563 13.4246 1.63525 13.4687 1.63501C13.5129 1.63478 13.5482 1.63904 13.5747 1.64779C13.5901 1.77523 13.5988 2.03617 13.601 2.4306C13.606 2.82501 13.6102 3.05186 13.6134 3.11116C13.6278 3.0488 13.6449 2.94788 13.6648 2.80838C13.6875 2.66887 13.7075 2.55458 13.7247 2.46552C13.7418 2.37349 13.7692 2.26658 13.8068 2.14478C13.8444 2.02299 13.8865 1.92638 13.9332 1.85495C13.9798 1.78056 14.0442 1.71793 14.1263 1.66707C14.2084 1.61325 14.3009 1.58606 14.4038 1.58551C14.5421 1.58477 14.6424 1.64799 14.7049 1.77518C14.7702 1.89939 14.8064 2.05489 14.8133 2.2417C14.8201 2.4285 14.8241 2.61828 14.8251 2.81105C14.8291 3.0038 14.8536 3.18013 14.8986 3.34003C14.9465 3.49992 15.0265 3.60329 15.1385 3.65014Z" fill="white"/>
<path d="M16.1842 1.54481C16.4519 1.54337 16.6378 1.6521 16.7419 1.87101C16.7984 1.98637 16.8446 2.09585 16.8805 2.19946C16.9163 2.30306 16.9406 2.44529 16.9533 2.62613C16.9725 2.90183 16.983 3.21614 16.9849 3.56905C16.9868 3.91899 16.9044 4.19821 16.7379 4.40671C16.5743 4.61815 16.3322 4.72473 16.0116 4.72645C15.694 4.72816 15.4287 4.62578 15.2158 4.41933C15.2743 4.3597 15.3374 4.3297 15.405 4.32934C15.4756 4.32896 15.5714 4.35811 15.6923 4.41677C15.8162 4.47838 15.9472 4.50882 16.0854 4.50808C16.2237 4.50734 16.3382 4.4741 16.4291 4.40837C16.5199 4.3456 16.5871 4.25627 16.6306 4.14037C16.703 3.93535 16.7384 3.68307 16.7368 3.38354C16.7366 3.33906 16.7313 3.17449 16.7209 2.88984C16.6428 3.13345 16.5307 3.33572 16.3844 3.49665C16.2382 3.65462 16.0725 3.7341 15.8872 3.73509C15.7019 3.73609 15.5647 3.65379 15.4755 3.48819C15.3893 3.3196 15.3456 3.12855 15.3445 2.91502C15.3433 2.7015 15.3716 2.49375 15.4294 2.29177C15.4871 2.08683 15.5818 1.91134 15.7133 1.76532C15.8449 1.61929 16.0019 1.54579 16.1842 1.54481ZM15.7202 2.22348C15.6827 2.35417 15.6554 2.4774 15.6384 2.59315C15.6213 2.7089 15.6132 2.82609 15.6138 2.94472C15.6144 3.06038 15.6386 3.18926 15.6865 3.33135C15.7372 3.47343 15.8097 3.54422 15.9038 3.54372C16.0891 3.54272 16.2531 3.40245 16.3957 3.12291C16.5383 2.8404 16.6088 2.5568 16.6073 2.2721C16.6068 2.17423 16.5606 2.06475 16.4688 1.94365C16.3799 1.81957 16.2678 1.75789 16.1325 1.75862C16.0383 1.75912 15.9547 1.80406 15.8817 1.89342C15.8116 1.98277 15.7578 2.09279 15.7202 2.22348Z" fill="white"/>
<path d="M20.2872 3.6225C20.2345 3.67913 20.1744 3.70762 20.1067 3.70799C19.9803 3.70867 19.8858 3.64096 19.8233 3.50488C19.7608 3.36879 19.7231 3.20291 19.7103 3.00724C19.7004 2.81156 19.6935 2.61586 19.6895 2.42015C19.6855 2.22443 19.6684 2.05844 19.6383 1.92218C19.6111 1.78591 19.5592 1.71797 19.4828 1.71838C19.3798 1.71894 19.2921 1.81283 19.2196 2.00006C19.15 2.18727 19.1011 2.39513 19.0729 2.62364C18.994 3.26169 18.9165 3.61948 18.8404 3.69699C18.7876 3.72397 18.7421 3.73756 18.7039 3.73776C18.6656 3.73797 18.6332 3.73369 18.6067 3.72494C18.5435 3.45243 18.5013 2.9826 18.48 2.31543C18.4724 1.98331 18.4653 1.76833 18.4589 1.6705C18.5205 1.62865 18.5733 1.6076 18.6174 1.60737C18.6615 1.60713 18.6969 1.61139 18.7234 1.62014C18.7388 1.74759 18.7475 2.00852 18.7496 2.40295C18.7547 2.79736 18.7589 3.02422 18.7621 3.08351C18.7765 3.02116 18.7936 2.92023 18.8134 2.78073C18.8362 2.64122 18.8562 2.52694 18.8734 2.43787C18.8905 2.34584 18.9179 2.23893 18.9555 2.11714C18.993 1.99534 19.0352 1.89873 19.0819 1.8273C19.1285 1.75291 19.1929 1.69028 19.275 1.63943C19.3571 1.5856 19.4496 1.55841 19.5525 1.55786C19.6907 1.55712 19.7911 1.62034 19.8535 1.74753C19.9189 1.87174 19.955 2.02725 19.9619 2.21405C19.9688 2.40085 19.9728 2.59064 19.9738 2.7834C19.9778 2.97615 20.0023 3.15248 20.0472 3.31239C20.0952 3.47228 20.1751 3.57565 20.2872 3.6225Z" fill="white"/>
<path d="M20.7929 2.84128C20.7874 2.90063 20.7846 2.94068 20.7848 2.96144C20.7857 3.13937 20.8394 3.27699 20.9458 3.37429C21.0552 3.47157 21.1834 3.51982 21.3304 3.51903C21.4775 3.51824 21.5965 3.49684 21.6875 3.45483C21.7814 3.4128 21.8488 3.36796 21.8897 3.32029C21.9949 3.18626 22.0916 3.11902 22.1798 3.11854C22.2122 3.11837 22.2504 3.12706 22.2947 3.14462C22.266 3.29009 22.155 3.42414 21.9615 3.54678C21.771 3.66643 21.5301 3.72704 21.2389 3.7286C21.033 3.72971 20.8547 3.66542 20.704 3.53573C20.5562 3.40307 20.4817 3.22256 20.4805 2.99421C20.4793 2.76586 20.5222 2.54468 20.6093 2.33068C20.6993 2.1137 20.8277 1.92914 20.9946 1.77699C21.1644 1.62187 21.336 1.54384 21.5095 1.5429C21.686 1.54196 21.8274 1.57827 21.9337 1.65184C22.0429 1.72243 22.0979 1.82742 22.0986 1.9668C22.1 2.22481 21.9864 2.43895 21.7579 2.60922C21.5323 2.77652 21.2916 2.86085 21.0357 2.86222C20.9681 2.86258 20.8871 2.8556 20.7929 2.84128ZM21.1275 2.69268C21.2657 2.69194 21.389 2.64679 21.4973 2.55724C21.6057 2.46769 21.6817 2.37386 21.7253 2.27576C21.7718 2.17764 21.7948 2.08854 21.7944 2.00847C21.794 1.9284 21.7627 1.85887 21.7006 1.79989C21.6385 1.73795 21.5663 1.7072 21.484 1.70764C21.3369 1.70843 21.2007 1.81148 21.0753 2.01678C20.9529 2.22207 20.8658 2.43459 20.814 2.65433C20.9436 2.68033 21.048 2.69311 21.1275 2.69268Z" fill="white"/>
<path d="M23.8421 3.21193C23.7958 3.3486 23.7052 3.46475 23.5705 3.56038C23.4386 3.65599 23.2933 3.70422 23.1344 3.70508C22.9786 3.70591 22.8561 3.62798 22.767 3.47127C22.6808 3.31159 22.637 3.09088 22.6355 2.80915C22.6312 2.01436 22.7453 1.61634 22.9776 1.61509C23.007 1.61494 23.0438 1.61919 23.088 1.62785C23.0794 1.67534 23.0593 1.76591 23.0277 1.89953C22.9644 2.16086 22.9333 2.39086 22.9343 2.58956C22.9354 2.78826 22.9645 2.99867 23.0215 3.22079C23.0786 3.43994 23.1586 3.54925 23.2616 3.54869C23.3145 3.54841 23.3658 3.51403 23.4154 3.44555C23.4651 3.37707 23.5044 3.30568 23.5334 3.23139C23.5624 3.15412 23.5928 3.06647 23.6246 2.96843C23.6565 2.87039 23.6767 2.81097 23.6854 2.79016C23.6404 2.61839 23.6174 2.44354 23.6164 2.2656C23.6164 2.25671 23.6163 2.23001 23.616 2.18553C23.6158 2.13808 23.617 2.09211 23.6197 2.04761C23.6224 2.00311 23.6309 1.94968 23.6453 1.88732C23.674 1.76261 23.7531 1.6999 23.8825 1.69921C23.9914 1.69862 24.0467 1.8644 24.0485 2.19655C24.0488 2.25587 24.0404 2.34192 24.0234 2.45471C24.0093 2.56748 24.0023 2.64611 24.0026 2.69059C24.0033 2.82701 24.069 3.00312 24.1995 3.21891C24.3301 3.43471 24.4513 3.5423 24.5631 3.5417C24.6778 3.54109 24.7613 3.47539 24.8135 3.34462C24.8657 3.21385 24.8914 3.06839 24.8906 2.90825C24.8896 2.72438 24.8727 2.58508 24.8398 2.49036C24.8099 2.39265 24.7904 2.32899 24.7814 2.29938C24.7754 2.26976 24.756 2.22389 24.7233 2.16179C24.6936 2.0967 24.6742 2.05529 24.6653 2.03754C24.6593 2.01978 24.637 1.9769 24.5984 1.90889C24.5598 1.84089 24.5375 1.80245 24.5316 1.79359C24.4455 1.6428 24.3951 1.56003 24.3803 1.54528C24.4535 1.48261 24.521 1.45111 24.5827 1.45078C24.7628 1.5803 24.9066 1.79306 25.0141 2.08905C25.1216 2.38208 25.176 2.65018 25.1773 2.89337C25.1786 3.13358 25.1281 3.32366 25.0259 3.46359C24.9266 3.60055 24.7696 3.6696 24.5549 3.67076C24.4049 3.67156 24.2621 3.63081 24.1263 3.5485C23.9935 3.46321 23.8988 3.35102 23.8421 3.21193Z" fill="white"/>
<path d="M26.6534 0.514357C26.6883 0.448923 26.7529 0.415954 26.847 0.415449C26.8676 0.415338 26.8882 0.418193 26.9088 0.424014C26.9155 0.58116 26.9208 1.02006 26.9247 1.7407C26.9276 1.73772 26.9408 1.7243 26.9642 1.70045C26.9905 1.67659 27.0066 1.66167 27.0125 1.65571C27.0183 1.64975 27.033 1.63632 27.0564 1.61544C27.0798 1.59158 27.0974 1.57666 27.1091 1.57067C27.1237 1.56169 27.1428 1.54973 27.1663 1.53477C27.1897 1.51685 27.2102 1.50488 27.2278 1.49885C27.2454 1.48986 27.266 1.48085 27.2895 1.47183C27.3335 1.45677 27.3849 1.44907 27.4437 1.44876C27.6614 1.44759 27.8369 1.53858 27.9702 1.72174C28.1036 1.90193 28.1708 2.10472 28.1721 2.33011C28.1733 2.5555 28.1406 2.77069 28.074 2.97568C28.0075 3.1777 27.904 3.35472 27.7636 3.50672C27.6233 3.65873 27.459 3.73524 27.2707 3.73625C27.0854 3.73724 26.9292 3.66839 26.8019 3.52968C26.6777 3.39096 26.615 3.23263 26.6141 3.0547C26.6131 2.87379 26.6216 2.54159 26.6396 2.05808C26.6576 1.57161 26.666 1.22309 26.6649 1.01253C26.6637 0.799009 26.6599 0.63295 26.6534 0.514357ZM27.3004 3.51811C27.4151 3.51749 27.5178 3.46208 27.6084 3.35186C27.7925 3.13437 27.8835 2.82693 27.8814 2.42954C27.8802 2.21602 27.8381 2.02792 27.7548 1.86525C27.6716 1.69962 27.555 1.61721 27.4049 1.61801C27.3197 1.61847 27.2449 1.66187 27.1806 1.74823C27.1164 1.83161 27.067 1.94309 27.0324 2.08266C26.9662 2.34697 26.9339 2.64074 26.9357 2.964C26.9371 3.23683 26.9939 3.40409 27.106 3.46577C27.1562 3.49516 27.221 3.5126 27.3004 3.51811Z" fill="white"/>
<path d="M28.8326 2.79811C28.8271 2.85746 28.8243 2.89751 28.8244 2.91827C28.8254 3.0962 28.8791 3.23382 28.9855 3.33112C29.0948 3.4284 29.2231 3.47664 29.3701 3.47585C29.5172 3.47506 29.6362 3.45367 29.7271 3.41166C29.821 3.36963 29.8885 3.32479 29.9294 3.27712C30.0345 3.14309 30.1313 3.07585 30.2195 3.07537C30.2518 3.0752 30.2901 3.08389 30.3343 3.10145C30.3057 3.24692 30.1947 3.38097 30.0012 3.50361C29.8106 3.62326 29.5698 3.68387 29.2786 3.68543C29.0727 3.68653 28.8944 3.62225 28.7437 3.49256C28.5959 3.3599 28.5214 3.17939 28.5202 2.95104C28.519 2.72269 28.5619 2.50151 28.649 2.28751C28.739 2.07053 28.8674 1.88597 29.0343 1.73382C29.204 1.57869 29.3757 1.50066 29.5492 1.49973C29.7257 1.49879 29.8671 1.5351 29.9734 1.60867C30.0826 1.67926 30.1376 1.78425 30.1383 1.92363C30.1397 2.18164 30.0261 2.39578 29.7976 2.56605C29.572 2.73334 29.3313 2.81768 29.0754 2.81905C29.0077 2.81941 28.9268 2.81243 28.8326 2.79811ZM29.1671 2.64951C29.3054 2.64877 29.4287 2.60362 29.537 2.51407C29.6454 2.42452 29.7213 2.33069 29.7649 2.23259C29.8115 2.13447 29.8345 2.04537 29.8341 1.9653C29.8337 1.88523 29.8024 1.8157 29.7403 1.75672C29.6782 1.69478 29.606 1.66402 29.5236 1.66447C29.3766 1.66526 29.2404 1.7683 29.115 1.97361C28.9925 2.1789 28.9054 2.39142 28.8537 2.61116C28.9832 2.63715 29.0877 2.64994 29.1671 2.64951Z" fill="white"/>
<path d="M32.3375 0.119052C32.2312 1.13983 32.1793 1.86819 32.1816 2.30413C32.1839 2.73711 32.226 3.16988 32.3077 3.60243C32.2492 3.66206 32.1979 3.692 32.1538 3.69223C32.1096 3.69247 32.0728 3.68674 32.0434 3.67503C31.9804 3.45591 31.9424 3.21737 31.9292 2.95943C31.8592 3.0725 31.8067 3.15285 31.7717 3.20049C31.7396 3.24812 31.6826 3.31812 31.6007 3.41049C31.4517 3.58924 31.2742 3.67916 31.0683 3.68027C30.9124 3.6811 30.7988 3.60905 30.7274 3.46412C30.659 3.3162 30.6242 3.12806 30.6229 2.89971C30.6217 2.66839 30.6455 2.4488 30.6944 2.24094C30.7462 2.0301 30.835 1.84871 30.9606 1.69679C31.0863 1.5419 31.2417 1.46395 31.427 1.46296C31.5388 1.46236 31.6419 1.48553 31.7363 1.53247C31.8306 1.57942 31.8957 1.64283 31.9314 1.72271C31.9369 1.64261 31.9421 1.51951 31.9471 1.3534C31.9521 1.18729 31.9572 1.04046 31.9624 0.912911C31.9705 0.782376 31.983 0.650335 31.9999 0.516787C32.0308 0.231914 32.1021 0.0891771 32.2138 0.0885769C32.2521 0.0883716 32.2933 0.0985301 32.3375 0.119052ZM31.8308 1.8834C31.7951 1.81835 31.7464 1.77116 31.6844 1.74184C31.6225 1.70954 31.54 1.69368 31.4371 1.69423C31.3371 1.69477 31.2433 1.7531 31.1557 1.86923C30.9834 2.09852 30.8984 2.42965 30.9007 2.86263C30.9014 3.00202 30.9243 3.14128 30.9691 3.28043C31.014 3.41661 31.079 3.48447 31.1643 3.48401C31.2879 3.48335 31.408 3.40115 31.5248 3.23741C31.6416 3.07367 31.7318 2.88634 31.7953 2.67544C31.8589 2.46157 31.8902 2.27011 31.8893 2.10107C31.8889 2.021 31.8694 1.94844 31.8308 1.8834Z" fill="white"/>
<path d="M33.8809 1.89464C33.8541 1.82657 33.8038 1.77346 33.7301 1.7353C33.6563 1.69714 33.565 1.67835 33.4562 1.67894C33.3474 1.67952 33.2446 1.7127 33.1479 1.77846C33.0541 1.84421 33.0076 1.93195 33.0081 2.04168C33.0087 2.15141 33.0533 2.23865 33.1419 2.30342C33.2334 2.36521 33.3425 2.41208 33.4692 2.44402C33.5987 2.47595 33.7284 2.51084 33.858 2.5487C33.9876 2.58359 34.0967 2.6438 34.1854 2.72933C34.2771 2.81188 34.3232 2.92136 34.324 3.05778C34.325 3.25648 34.2435 3.40817 34.0793 3.51285C33.9181 3.61751 33.7228 3.67046 33.4934 3.67169C33.3581 3.67242 33.1799 3.63631 32.959 3.56335C32.7409 3.49038 32.6316 3.40199 32.631 3.2982C32.6306 3.22109 32.6951 3.18219 32.8245 3.18149C32.8628 3.18129 32.9129 3.20475 32.9749 3.25186C33.1639 3.39024 33.3569 3.4589 33.554 3.45784C33.6599 3.45727 33.751 3.43899 33.8273 3.40299C33.9681 3.33402 34.0381 3.22391 34.0373 3.07267C34.0368 2.98073 33.9908 2.90684 33.8993 2.85098C33.8108 2.79511 33.7017 2.75121 33.5721 2.71928C33.4455 2.68734 33.3173 2.65244 33.1877 2.61458C33.0581 2.57672 32.9474 2.51355 32.8558 2.42507C32.767 2.33361 32.7223 2.21819 32.7216 2.0788C32.7206 1.8979 32.8007 1.75067 32.9618 1.63711C33.123 1.52355 33.3227 1.46612 33.561 1.46485C33.7227 1.46398 33.8686 1.5062 33.9984 1.5915C34.1312 1.67383 34.1981 1.79507 34.1989 1.95521C34.1995 2.06197 34.1395 2.11568 34.0189 2.11632C33.9689 2.11659 33.935 2.10788 33.9173 2.09018C33.9025 2.07246 33.8935 2.04137 33.8903 1.9969C33.8901 1.94945 33.8869 1.91536 33.8809 1.89464Z" fill="white"/>
<path d="M36.031 3.69366C35.9781 3.69394 35.9492 3.24479 35.9444 2.34621C35.9423 1.96661 35.9396 1.73678 35.9363 1.65672L35.848 1.6572C35.8068 1.65742 35.7745 1.65759 35.751 1.65772C35.7274 1.65488 35.6965 1.65356 35.6583 1.65377C35.623 1.65099 35.5935 1.6467 35.57 1.6409C35.5494 1.63508 35.5273 1.62778 35.5037 1.61901C35.4595 1.60145 35.4372 1.57043 35.437 1.52595C35.4367 1.4696 35.5277 1.44094 35.7101 1.43996C35.7895 1.43953 35.8616 1.44211 35.9263 1.4477C35.9289 1.38837 35.93 1.31274 35.9295 1.2208C35.9319 1.12589 35.9345 1.05321 35.9372 1.00278C35.9398 0.949384 35.9424 0.885607 35.945 0.811451C35.9504 0.737279 35.9575 0.67941 35.9661 0.637844C35.9776 0.596262 35.9921 0.550216 36.0095 0.499706C36.0268 0.44623 36.0501 0.406067 36.0794 0.379219C36.1087 0.35237 36.1424 0.325498 36.1805 0.298602C36.2478 0.247823 36.3595 0.222015 36.5154 0.221178C36.6742 0.220325 36.7906 0.259737 36.8645 0.339414C36.9414 0.41611 37.0098 0.547717 37.0696 0.734235C37.0258 0.787853 36.9745 0.81482 36.9156 0.815136C36.895 0.815246 36.8744 0.812391 36.8538 0.806571C36.8001 0.664505 36.7511 0.568383 36.7067 0.518205C36.6652 0.46801 36.6077 0.44311 36.5342 0.443505C36.4607 0.4439 36.4048 0.457545 36.3668 0.484441C36.3316 0.511321 36.3038 0.545576 36.2835 0.587205C36.2398 0.676411 36.2189 0.891537 36.2208 1.23258C36.2208 1.24741 36.221 1.2741 36.2212 1.31266C36.2214 1.35121 36.2216 1.3868 36.2218 1.41942L36.5966 1.38182C36.7437 1.38103 36.8174 1.41474 36.8177 1.48295C36.818 1.52743 36.7828 1.55728 36.7123 1.57248C36.6418 1.58769 36.5522 1.59707 36.4433 1.60062C36.3375 1.60415 36.264 1.61344 36.2229 1.62849C36.2175 1.71156 36.2151 1.82131 36.2158 1.95772C36.2165 2.09118 36.2251 2.30466 36.2413 2.59818C36.2576 2.88873 36.2662 3.11111 36.267 3.26533C36.2678 3.41954 36.2522 3.52935 36.2202 3.59477C36.1911 3.66017 36.1281 3.69313 36.031 3.69366Z" fill="white"/>
<path d="M37.1585 1.81031C37.3072 1.57819 37.5228 1.46137 37.8051 1.45985C38.0875 1.45833 38.3131 1.57278 38.482 1.8032C38.6539 2.0336 38.7406 2.29709 38.7422 2.59365C38.7438 2.88725 38.6524 3.13685 38.4682 3.34248C38.284 3.5481 38.0493 3.65168 37.764 3.65321C37.4787 3.65474 37.2709 3.57578 37.1406 3.41634C37.0103 3.25392 36.9444 3.02592 36.9428 2.73232C36.9408 2.34975 37.0126 2.04242 37.1585 1.81031ZM37.3539 2.04503C37.3162 2.1609 37.2874 2.27672 37.2675 2.39249C37.2504 2.50824 37.2422 2.61653 37.2427 2.71736C37.2433 2.81523 37.2511 2.90564 37.2663 2.9886C37.2814 3.06859 37.3068 3.14853 37.3426 3.22841C37.3783 3.30533 37.4315 3.36732 37.5024 3.41439C37.5732 3.4585 37.6572 3.48029 37.7542 3.47977C37.9513 3.47871 38.1156 3.39627 38.2471 3.23245C38.3815 3.06862 38.4481 2.87104 38.4468 2.63972C38.4456 2.4084 38.3826 2.18483 38.2579 1.969C38.1361 1.75019 37.987 1.64126 37.8105 1.64221C37.7047 1.64278 37.6122 1.68035 37.5332 1.75491C37.4542 1.82948 37.3944 1.92619 37.3539 2.04503Z" fill="white"/>
<path d="M39.6113 3.20733L39.6259 3.46082C39.6262 3.52607 39.6073 3.57213 39.5693 3.59903C39.5341 3.62295 39.4974 3.635 39.4591 3.63521C39.4238 3.6354 39.387 3.62967 39.3487 3.61801C39.2822 3.27434 39.2299 2.84608 39.1918 2.33322C39.1567 1.82034 39.1361 1.52981 39.1298 1.46163C39.1737 1.41988 39.2192 1.39887 39.2662 1.39862C39.3162 1.39835 39.3604 1.40405 39.3987 1.4157C39.4109 1.50164 39.4208 1.6914 39.4282 1.98496C39.4357 2.27853 39.444 2.46235 39.4532 2.53645C39.4931 2.28711 39.5654 2.05392 39.6701 1.83686C39.7283 1.71495 39.8042 1.61816 39.898 1.54648C39.9946 1.47182 40.0974 1.43419 40.2062 1.43361C40.318 1.43301 40.4197 1.48288 40.5114 1.58322C40.6061 1.68058 40.6536 1.7693 40.654 1.84937C40.6542 1.87903 40.6367 1.90285 40.6015 1.92083C40.5663 1.93585 40.5266 1.94347 40.4825 1.94371C40.4413 1.94393 40.4089 1.9278 40.3852 1.8953C40.3614 1.8628 40.3451 1.8273 40.336 1.7888C40.327 1.74733 40.3077 1.71036 40.2781 1.6779C40.2485 1.64543 40.2087 1.62933 40.1587 1.6296C40.0264 1.63031 39.9138 1.75103 39.8209 1.99175C39.6787 2.35136 39.6088 2.75656 39.6113 3.20733Z" fill="white"/>
<path d="M42.274 0.328161C42.2781 0.535739 42.2804 0.691426 42.2809 0.795223C42.2815 0.896054 42.2806 0.996893 42.2782 1.09774C42.2787 1.19857 42.2753 1.39433 42.2681 1.685C42.2608 1.97272 42.2561 2.2011 42.2541 2.37016C42.3655 2.29245 42.4986 2.17311 42.6537 2.01213C42.8087 1.84818 42.9491 1.70804 43.075 1.5917C43.274 1.40972 43.4164 1.35409 43.502 1.42481C43.5345 1.45133 43.545 1.47648 43.5333 1.50027C43.5043 1.5627 43.437 1.63869 43.3316 1.72823C43.2291 1.81775 43.1076 1.91923 42.967 2.03269C42.8265 2.14614 42.7153 2.25054 42.6334 2.34588C42.8483 2.37438 43.021 2.49505 43.1516 2.70788C43.208 2.80544 43.2629 2.90302 43.3164 3.0006C43.4531 3.25788 43.6011 3.43206 43.7604 3.52314C43.7019 3.58277 43.6344 3.61279 43.5579 3.6132C43.4814 3.61361 43.4048 3.57695 43.3279 3.50322C43.254 3.42948 43.1888 3.33937 43.1323 3.23291C43.0788 3.12643 43.0238 3.01996 42.9674 2.9135C42.8395 2.65617 42.6917 2.52796 42.5241 2.52886C42.4447 2.52928 42.3772 2.55634 42.3216 2.61002C42.266 2.66073 42.2383 2.71426 42.2386 2.77061C42.2405 3.12649 42.236 3.39046 42.2252 3.56253C42.1843 3.61909 42.1404 3.6475 42.0933 3.64776C42.0786 3.64784 42.0624 3.64496 42.0447 3.63912C41.9799 3.61278 41.9472 3.55809 41.9468 3.47505C41.9493 3.392 41.9567 3.13987 41.9692 2.71867C41.9958 1.64198 42.0082 0.95387 42.0066 0.654342C42.0059 0.514958 42.0186 0.42147 42.0448 0.373877C42.074 0.32627 42.1077 0.302363 42.1459 0.302158C42.1871 0.301937 42.2298 0.310604 42.274 0.328161Z" fill="white"/>
<path d="M44.3111 0.343914C44.3085 0.412139 44.3074 0.48777 44.3079 0.570808C44.3083 0.653845 44.3132 0.739825 44.3225 0.828746C44.2816 0.876417 44.2258 0.900442 44.1552 0.900821C44.067 0.901295 44.0225 0.830357 44.0217 0.688007C44.0217 0.682076 44.0216 0.659834 44.0213 0.621281C44.0211 0.582728 44.021 0.548623 44.0208 0.518967C44.0236 0.486329 44.0292 0.449227 44.0378 0.407661C44.0581 0.336376 44.1035 0.300543 44.174 0.300164C44.2446 0.299785 44.2903 0.314369 44.3111 0.343914ZM44.0404 2.52516C44.0373 1.9439 44.0649 1.60863 44.1232 1.51934C44.1437 1.48661 44.1686 1.47017 44.198 1.47001C44.2274 1.46985 44.276 1.4859 44.3438 1.51816C44.3305 1.77031 44.3246 2.04467 44.3262 2.34124C44.3262 2.34124 44.3309 2.66892 44.3403 3.32429C44.3408 3.41623 44.3206 3.48158 44.2796 3.52035C44.2415 3.55615 44.2049 3.57414 44.1696 3.57433C44.1372 3.5745 44.1033 3.56579 44.068 3.54818C44.0512 3.16273 44.042 2.82172 44.0404 2.52516Z" fill="white"/>
<path d="M46.5384 0.0427977C46.4321 1.06357 46.3801 1.79193 46.3825 2.22788C46.3848 2.66086 46.4268 3.09363 46.5086 3.52618C46.45 3.58581 46.3987 3.61574 46.3546 3.61598C46.3105 3.61621 46.2737 3.61048 46.2442 3.59878C46.1813 3.37965 46.1432 3.14112 46.1301 2.88317C46.0601 2.99624 46.0076 3.0766 45.9725 3.12424C45.9404 3.17186 45.8835 3.24186 45.8016 3.33424C45.6525 3.51298 45.4751 3.60291 45.2692 3.60401C45.1133 3.60485 44.9997 3.5328 44.9283 3.38786C44.8599 3.23995 44.825 3.05181 44.8238 2.82346C44.8225 2.59214 44.8464 2.37255 44.8953 2.16469C44.9471 1.95384 45.0358 1.77246 45.1615 1.62053C45.2871 1.46564 45.4426 1.3877 45.6279 1.3867C45.7397 1.3861 45.8427 1.40928 45.9371 1.45622C46.0315 1.50316 46.0965 1.56658 46.1323 1.64646C46.1377 1.56636 46.1429 1.44325 46.1479 1.27715C46.1529 1.11104 46.158 0.964209 46.1632 0.836656C46.1713 0.706121 46.1839 0.57408 46.2008 0.440533C46.2316 0.155659 46.3029 0.0129224 46.4147 0.0123222C46.4529 0.0121169 46.4941 0.0222754 46.5384 0.0427977ZM46.0316 1.80715C45.996 1.74209 45.9472 1.6949 45.8853 1.66558C45.8233 1.63329 45.7409 1.61742 45.638 1.61797C45.538 1.61851 45.4441 1.67685 45.3565 1.79298C45.1842 2.02226 45.0992 2.3534 45.1016 2.78638C45.1023 2.92576 45.1251 3.06503 45.17 3.20417C45.2148 3.34036 45.2799 3.40822 45.3652 3.40776C45.4887 3.4071 45.6089 3.32489 45.7257 3.16115C45.8424 2.99741 45.9326 2.81009 45.9962 2.59918C46.0598 2.38531 46.0911 2.19385 46.0902 2.02481C46.0897 1.94474 46.0702 1.87219 46.0316 1.80715Z" fill="white"/>
<path d="M48.0818 1.81838C48.055 1.75032 48.0047 1.6972 47.9309 1.65904C47.8572 1.62089 47.7659 1.6021 47.6571 1.60268C47.5482 1.60327 47.4455 1.63644 47.3488 1.70221C47.255 1.76796 47.2084 1.85569 47.209 1.96542C47.2096 2.07515 47.2542 2.1624 47.3428 2.22717C47.4343 2.28896 47.5434 2.33582 47.67 2.36777C47.7996 2.39969 47.9292 2.43459 48.0588 2.47244C48.1884 2.50734 48.2976 2.56755 48.3863 2.65308C48.4779 2.73562 48.5241 2.84511 48.5248 2.98153C48.5259 3.18022 48.4444 3.33191 48.2802 3.43659C48.119 3.54126 47.9237 3.59421 47.6943 3.59544C47.559 3.59617 47.3808 3.56005 47.1598 3.48709C46.9418 3.41412 46.8325 3.32574 46.8319 3.22194C46.8315 3.14484 46.896 3.10593 47.0254 3.10524C47.0636 3.10503 47.1138 3.12849 47.1758 3.17561C47.3648 3.31398 47.5578 3.38264 47.7549 3.38158C47.8608 3.38101 47.9518 3.36273 48.0281 3.32673C48.1689 3.25776 48.2389 3.14766 48.2381 2.99641C48.2376 2.90448 48.1916 2.83058 48.1002 2.77472C48.0116 2.71885 47.9026 2.67495 47.773 2.64302C47.6463 2.61108 47.5182 2.57618 47.3886 2.53832C47.2589 2.50046 47.1483 2.4373 47.0566 2.34882C46.9679 2.25736 46.9232 2.14193 46.9224 2.00255C46.9214 1.82165 47.0015 1.67441 47.1627 1.56085C47.3239 1.44729 47.5236 1.38987 47.7618 1.38859C47.9236 1.38772 48.0694 1.42994 48.1993 1.51525C48.3321 1.59758 48.3989 1.71881 48.3998 1.87895C48.4004 1.98572 48.3403 2.03942 48.2198 2.04007C48.1698 2.04034 48.1359 2.03162 48.1181 2.01392C48.1033 1.99621 48.0943 1.96512 48.0912 1.92065C48.0909 1.8732 48.0878 1.83911 48.0818 1.81838Z" fill="white"/>
</svg>
