<svg width="48" height="5" viewBox="0 0 48 5" fill="none" xmlns="http://www.w3.org/2000/svg">
<path d="M0.208673 2.53441C0.206202 2.07423 0.185007 1.66873 0.145089 1.3179C0.144598 1.22646 0.182203 1.14661 0.257905 1.07835C0.333607 1.0101 0.434264 0.957933 0.559876 0.92186C0.811132 0.855612 1.08743 0.821679 1.38877 0.820061C1.77788 0.817972 2.08407 0.903351 2.30736 1.0762C2.53355 1.24608 2.6476 1.50948 2.64952 1.86642C2.65143 2.22335 2.50962 2.51025 2.22406 2.72713C1.9385 2.94401 1.58947 3.05355 1.17696 3.05577C0.966312 3.0569 0.74519 3.01384 0.51359 2.92658C0.499722 3.06825 0.493437 3.26003 0.494736 3.50192L0.500289 3.71871C0.500669 3.78951 0.499602 3.86326 0.497089 3.93997C0.482571 3.9607 0.466559 3.97553 0.449053 3.98448C0.431547 3.99342 0.418413 3.99939 0.409652 4.00239C0.403833 4.00832 0.393617 4.0128 0.379004 4.01583C0.364392 4.01886 0.35416 4.02039 0.348309 4.02042C0.330787 4.02641 0.310324 4.02947 0.286919 4.0296L0.212315 4.03C0.205276 3.80879 0.201281 3.60969 0.200331 3.4327L0.208673 2.53441ZM0.503102 2.60805C0.717449 2.75144 0.97383 2.82234 1.27224 2.82074C1.57064 2.81619 1.82175 2.72191 2.02556 2.53792C2.22935 2.35098 2.33053 2.1233 2.32909 1.85486C2.32765 1.58643 2.22125 1.3864 2.00989 1.25479C1.79853 1.12318 1.54511 1.05817 1.24962 1.05975C0.957059 1.06132 0.698505 1.13056 0.473961 1.26746C0.489618 1.45912 0.499332 1.90599 0.503102 2.60805Z" fill="white"/>
<path d="M3.461 3.50812L3.47552 3.76026C3.47586 3.82515 3.45709 3.87098 3.4192 3.89773C3.38422 3.92152 3.34771 3.93351 3.30968 3.93372C3.27457 3.93391 3.23797 3.9282 3.19988 3.91661C3.13367 3.57477 3.08165 3.14879 3.0438 2.63865C3.00888 2.1285 2.98831 1.83952 2.98209 1.77171C3.02576 1.73017 3.07099 1.70928 3.1178 1.70903C3.16754 1.70876 3.21146 1.71443 3.24955 1.72602C3.26171 1.8115 3.2715 2.00025 3.27892 2.29225C3.28634 2.58425 3.29464 2.7671 3.30381 2.8408C3.34344 2.5928 3.41534 2.36084 3.5195 2.14494C3.57737 2.02368 3.65292 1.9274 3.74616 1.8561C3.84231 1.78184 3.94451 1.74441 4.05276 1.74383C4.16393 1.74324 4.26513 1.79284 4.35637 1.89265C4.45051 1.98949 4.49779 2.07773 4.49822 2.15738C4.49838 2.18688 4.48095 2.21057 4.44594 2.22846C4.41091 2.2434 4.37146 2.25098 4.32757 2.25122C4.28661 2.25144 4.25434 2.23539 4.23076 2.20307C4.20719 2.17074 4.1909 2.13543 4.18192 2.09713C4.17292 2.05588 4.15371 2.01911 4.12428 1.98682C4.09485 1.95453 4.05526 1.93851 4.00553 1.93878C3.87387 1.93949 3.76188 2.05956 3.66954 2.299C3.5281 2.6567 3.45859 3.05974 3.461 3.50812Z" fill="white"/>
<path d="M4.90398 2.09768C5.05195 1.86679 5.26637 1.75059 5.54723 1.74908C5.82809 1.74757 6.05252 1.86142 6.22051 2.09061C6.39144 2.31979 6.47769 2.58187 6.47927 2.87685C6.48084 3.16888 6.39001 3.41717 6.20679 3.62169C6.02357 3.82622 5.79007 3.92925 5.50628 3.93077C5.22249 3.9323 5.01581 3.85376 4.88623 3.69516C4.75663 3.53361 4.69104 3.30682 4.68948 3.01478C4.68743 2.63425 4.75893 2.32855 4.90398 2.09768ZM5.09833 2.33115C5.06092 2.4464 5.03228 2.5616 5.01242 2.67676C4.99548 2.79189 4.98728 2.89961 4.98782 2.99991C4.98834 3.09725 4.99614 3.18718 5.01121 3.2697C5.02627 3.34927 5.05156 3.42878 5.0871 3.50824C5.12262 3.58474 5.17561 3.64641 5.24608 3.69323C5.31653 3.7371 5.40003 3.75877 5.49658 3.75826C5.69259 3.7572 5.85599 3.6752 5.98678 3.51225C6.12048 3.34929 6.18672 3.15276 6.18548 2.92268C6.18425 2.69259 6.12162 2.47021 5.99758 2.25553C5.87646 2.03788 5.72813 1.92953 5.55259 1.93047C5.44727 1.93104 5.35531 1.96841 5.27671 2.04258C5.19812 2.11675 5.13866 2.21294 5.09833 2.33115Z" fill="white"/>
<path d="M6.68117 1.79609C6.7072 1.7399 6.7641 1.71157 6.85187 1.7111C6.8899 1.7109 6.92213 1.71958 6.94856 1.73713C7.03169 1.96383 7.11338 2.19201 7.1936 2.42168C7.34508 2.8427 7.48583 3.17529 7.61588 3.41943C7.67538 3.05922 7.79192 2.69576 7.96549 2.32903C8.14199 1.96229 8.30338 1.77853 8.44967 1.77775C8.49355 1.77751 8.53749 1.7876 8.58148 1.80801C8.24743 2.25525 8.00923 2.84651 7.8669 3.58181C7.83856 3.75305 7.8069 3.85057 7.77192 3.87436C7.73403 3.90111 7.6946 3.9146 7.65364 3.91482C7.61269 3.91504 7.58046 3.90636 7.55696 3.88879C7.53638 3.8712 7.5202 3.85359 7.5084 3.83595C7.49953 3.8183 7.4862 3.78887 7.46843 3.74767C7.45358 3.70645 7.44172 3.67849 7.43287 3.66378C7.13143 3.10197 6.88086 2.4794 6.68117 1.79609Z" fill="white"/>
<path d="M9.16432 0.654412C9.16176 0.722274 9.1607 0.797502 9.16114 0.880098C9.16159 0.962694 9.16643 1.04822 9.17569 1.13666C9.13498 1.18408 9.07952 1.20798 9.0093 1.20836C8.92154 1.20883 8.87727 1.13827 8.87651 0.996674C8.87648 0.990774 8.87636 0.96865 8.87616 0.930302C8.87595 0.891954 8.87577 0.858031 8.87561 0.828533C8.87836 0.796069 8.88401 0.759164 8.89257 0.717819C8.91267 0.646913 8.95783 0.611272 9.02804 0.610894C9.09825 0.610517 9.14368 0.625023 9.16432 0.654412ZM8.8951 2.82405C8.892 2.24588 8.91946 1.9124 8.9775 1.82359C8.99781 1.79103 9.02259 1.77467 9.05184 1.77451C9.0811 1.77436 9.12946 1.79032 9.19692 1.82241C9.18364 2.07322 9.17779 2.34612 9.17938 2.64111C9.17938 2.64111 9.18405 2.96705 9.1934 3.61893C9.19389 3.71038 9.17376 3.77538 9.13301 3.81395C9.09517 3.84955 9.05869 3.86745 9.02358 3.86764C8.9914 3.86781 8.95771 3.85914 8.92251 3.84163C8.90582 3.45823 8.89668 3.11904 8.8951 2.82405Z" fill="white"/>
<path d="M11.3798 0.354897C11.2741 1.37024 11.2224 2.09472 11.2247 2.52835C11.227 2.95903 11.2688 3.38949 11.3501 3.81975C11.2919 3.87906 11.2409 3.90883 11.197 3.90907C11.1531 3.9093 11.1165 3.9036 11.0872 3.89196C11.0246 3.674 10.9867 3.43673 10.9737 3.18016C10.904 3.29263 10.8518 3.37256 10.817 3.41994C10.785 3.46731 10.7284 3.53694 10.6469 3.62883C10.4987 3.80662 10.3221 3.89606 10.1174 3.89716C9.96229 3.898 9.84927 3.82633 9.77828 3.68216C9.7102 3.53503 9.67555 3.3479 9.67433 3.12076C9.67309 2.89067 9.69679 2.67225 9.74541 2.4655C9.79695 2.25577 9.88522 2.07536 10.0102 1.92424C10.1352 1.77017 10.2898 1.69264 10.4741 1.69165C10.5853 1.69106 10.6878 1.7141 10.7817 1.7608C10.8756 1.80749 10.9403 1.87057 10.9758 1.95003C10.9813 1.87035 10.9865 1.7479 10.9914 1.58268C10.9964 1.41745 11.0014 1.27141 11.0066 1.14453C11.0147 1.01469 11.0272 0.883353 11.044 0.750516C11.0747 0.467158 11.1456 0.325181 11.2568 0.324584C11.2948 0.32438 11.3358 0.334484 11.3798 0.354897ZM10.8758 2.10986C10.8403 2.04515 10.7918 1.99821 10.7302 1.96905C10.6686 1.93693 10.5866 1.92114 10.4842 1.92169C10.3847 1.92223 10.2914 1.98025 10.2042 2.09577C10.0328 2.32383 9.9483 2.6532 9.95061 3.08388C9.95135 3.22252 9.97404 3.36105 10.0187 3.49945C10.0633 3.63491 10.128 3.70241 10.2129 3.70196C10.3357 3.7013 10.4552 3.61953 10.5714 3.45666C10.6876 3.29379 10.7772 3.10746 10.8405 2.89768C10.9037 2.68495 10.9349 2.49451 10.934 2.32637C10.9335 2.24672 10.9141 2.17455 10.8758 2.10986Z" fill="white"/>
<path d="M12.1171 0.638556C12.1145 0.706418 12.1135 0.781647 12.1139 0.864242C12.1144 0.946838 12.1192 1.03236 12.1285 1.12081C12.0877 1.16823 12.0323 1.19212 11.9621 1.1925C11.8743 1.19297 11.83 1.12241 11.8293 0.980818C11.8292 0.974918 11.8291 0.952795 11.8289 0.914447C11.8287 0.876099 11.8285 0.842175 11.8284 0.812677C11.8311 0.780213 11.8368 0.743309 11.8453 0.701964C11.8654 0.631058 11.9106 0.595416 11.9808 0.595039C12.051 0.594662 12.0965 0.609168 12.1171 0.638556ZM11.8479 2.8082C11.8448 2.23003 11.8722 1.89654 11.9303 1.80773C11.9506 1.77517 11.9754 1.75881 12.0046 1.75866C12.0339 1.7585 12.0822 1.77447 12.1497 1.80655C12.1364 2.05737 12.1306 2.33027 12.1321 2.62525C12.1321 2.62525 12.1368 2.95119 12.1462 3.60308C12.1467 3.69452 12.1265 3.75953 12.0858 3.7981C12.0479 3.8337 12.0115 3.85159 11.9764 3.85178C11.9442 3.85196 11.9105 3.84329 11.8753 3.82578C11.8586 3.44237 11.8495 3.10318 11.8479 2.8082Z" fill="white"/>
<path d="M14.5045 3.75856C14.4522 3.81489 14.3923 3.84323 14.3251 3.8436C14.1992 3.84427 14.1053 3.77693 14.0431 3.64156C13.9809 3.5062 13.9435 3.34121 13.9307 3.14658C13.9209 2.95194 13.914 2.75728 13.91 2.56261C13.9061 2.36793 13.8891 2.20283 13.8591 2.06729C13.832 1.93174 13.7805 1.86417 13.7044 1.86458C13.602 1.86513 13.5147 1.95852 13.4426 2.14475C13.3734 2.33097 13.3248 2.53772 13.2967 2.76502C13.2182 3.39967 13.1411 3.75555 13.0655 3.83266C13.013 3.85949 12.9677 3.87301 12.9296 3.87321C12.8916 3.87342 12.8594 3.86917 12.833 3.86046C12.7701 3.5894 12.7281 3.12206 12.707 2.45844C12.6994 2.12809 12.6924 1.91426 12.686 1.81695C12.7472 1.77532 12.7998 1.75439 12.8437 1.75415C12.8875 1.75392 12.9227 1.75815 12.9491 1.76686C12.9644 1.89363 12.9731 2.15317 12.9752 2.5455C12.9802 2.93781 12.9843 3.16346 12.9876 3.22244C13.0019 3.16042 13.0189 3.06003 13.0386 2.92128C13.0613 2.78251 13.0812 2.66883 13.0982 2.58024C13.1153 2.4887 13.1425 2.38236 13.1799 2.26121C13.2173 2.14006 13.2592 2.04396 13.3056 1.97292C13.352 1.89892 13.4161 1.83663 13.4977 1.78604C13.5794 1.7325 13.6714 1.70546 13.7738 1.70491C13.9113 1.70417 14.0111 1.76706 14.0732 1.89357C14.1382 2.01712 14.1742 2.1718 14.181 2.35761C14.1879 2.54341 14.1918 2.73219 14.1928 2.92393C14.1968 3.11565 14.2211 3.29104 14.2659 3.4501C14.3136 3.60914 14.3931 3.71196 14.5045 3.75856Z" fill="white"/>
<path d="M15.5447 1.66442C15.811 1.663 15.9959 1.77115 16.0994 1.98889C16.1556 2.10363 16.2016 2.21253 16.2372 2.31559C16.2729 2.41865 16.297 2.56011 16.3097 2.73999C16.3287 3.01423 16.3392 3.32687 16.3411 3.6779C16.343 4.02598 16.2611 4.30371 16.0954 4.5111C15.9327 4.72142 15.6919 4.82743 15.373 4.82914C15.057 4.83084 14.7932 4.72901 14.5814 4.52365C14.6396 4.46434 14.7024 4.4345 14.7697 4.43414C14.8399 4.43377 14.9351 4.46275 15.0554 4.52111C15.1786 4.58239 15.3089 4.61267 15.4464 4.61193C15.5839 4.61119 15.6979 4.57813 15.7882 4.51275C15.8786 4.45031 15.9454 4.36146 15.9887 4.24618C16.0607 4.04224 16.0959 3.79131 16.0943 3.49338C16.0941 3.44913 16.0888 3.28544 16.0785 3.0023C16.0008 3.24461 15.8893 3.44581 15.7439 3.60588C15.5984 3.76301 15.4335 3.84207 15.2492 3.84306C15.0649 3.84405 14.9284 3.76218 14.8398 3.59746C14.754 3.42978 14.7106 3.23974 14.7094 3.02735C14.7083 2.81496 14.7364 2.60832 14.7939 2.40741C14.8513 2.20356 14.9454 2.02901 15.0763 1.88376C15.2072 1.73851 15.3633 1.6654 15.5447 1.66442ZM15.0832 2.33949C15.0458 2.46948 15.0187 2.59205 15.0017 2.70719C14.9848 2.82233 14.9767 2.93889 14.9773 3.05689C14.9779 3.17193 15.002 3.30012 15.0496 3.44146C15.1001 3.58279 15.1721 3.6532 15.2658 3.6527C15.4501 3.65171 15.6132 3.51219 15.755 3.23413C15.8969 2.95313 15.967 2.67103 15.9655 2.38785C15.965 2.2905 15.9191 2.1816 15.8277 2.06115C15.7393 1.93772 15.6278 1.87637 15.4932 1.8771C15.3996 1.8776 15.3164 1.92229 15.2438 2.01118C15.174 2.10005 15.1205 2.20949 15.0832 2.33949Z" fill="white"/>
<path d="M19.6258 3.73106C19.5734 3.78739 19.5136 3.81573 19.4463 3.8161C19.3205 3.81677 19.2265 3.74943 19.1644 3.61406C19.1022 3.4787 19.0648 3.31371 19.052 3.11908C19.0422 2.92444 19.0353 2.72978 19.0313 2.53511C19.0273 2.34043 19.0104 2.17533 18.9804 2.03979C18.9533 1.90424 18.9018 1.83667 18.8257 1.83708C18.7233 1.83763 18.636 1.93102 18.5639 2.11725C18.4947 2.30347 18.446 2.51022 18.418 2.73752C18.3395 3.37218 18.2624 3.72806 18.1868 3.80516C18.1342 3.83199 18.089 3.84551 18.0509 3.84571C18.0129 3.84592 17.9807 3.84167 17.9543 3.83296C17.8914 3.5619 17.8494 3.09456 17.8283 2.43094C17.8207 2.10059 17.8137 1.88676 17.8073 1.78945C17.8685 1.74782 17.9211 1.72689 17.9649 1.72665C18.0088 1.72642 18.044 1.73065 18.0703 1.73936C18.0856 1.86613 18.0943 2.12567 18.0965 2.518C18.1015 2.91031 18.1056 3.13596 18.1089 3.19494C18.1232 3.13292 18.1402 3.03253 18.1599 2.89378C18.1826 2.75501 18.2024 2.64133 18.2195 2.55274C18.2366 2.4612 18.2638 2.35486 18.3012 2.23371C18.3386 2.11256 18.3805 2.01646 18.4269 1.94542C18.4733 1.87142 18.5374 1.80913 18.619 1.75854C18.7006 1.705 18.7927 1.67796 18.8951 1.67741C19.0326 1.67667 19.1324 1.73956 19.1945 1.86607C19.2595 1.98962 19.2955 2.1443 19.3023 2.33011C19.3092 2.51591 19.3131 2.70469 19.3141 2.89643C19.3181 3.08815 19.3424 3.26354 19.3872 3.4226C19.4348 3.58164 19.5144 3.68446 19.6258 3.73106Z" fill="white"/>
<path d="M20.1289 2.954C20.1234 3.01303 20.1206 3.05287 20.1208 3.07352C20.1217 3.25051 20.1751 3.38739 20.2809 3.48417C20.3897 3.58094 20.5172 3.62892 20.6635 3.62814C20.8098 3.62735 20.9282 3.60607 21.0187 3.56428C21.1121 3.52248 21.1791 3.47787 21.2198 3.43046C21.3244 3.29715 21.4206 3.23026 21.5084 3.22979C21.5406 3.22961 21.5786 3.23826 21.6226 3.25572C21.5941 3.40042 21.4837 3.53376 21.2912 3.65574C21.1017 3.77476 20.8621 3.83504 20.5725 3.8366C20.3677 3.8377 20.1903 3.77375 20.0404 3.64476C19.8934 3.5128 19.8193 3.33325 19.8181 3.10612C19.8169 2.87898 19.8596 2.65898 19.9462 2.44612C20.0358 2.23029 20.1635 2.04671 20.3295 1.89538C20.4983 1.74107 20.6691 1.66346 20.8417 1.66253C21.0172 1.66159 21.1578 1.69771 21.2636 1.77089C21.3722 1.8411 21.4269 1.94553 21.4276 2.08417C21.429 2.34081 21.316 2.55381 21.0887 2.72318C20.8644 2.88958 20.6249 2.97346 20.3704 2.97483C20.3031 2.97519 20.2226 2.96825 20.1289 2.954ZM20.4616 2.80619C20.5991 2.80545 20.7218 2.76055 20.8295 2.67147C20.9373 2.58239 21.0129 2.48907 21.0562 2.39149C21.1025 2.29389 21.1255 2.20527 21.125 2.12562C21.1246 2.04598 21.0935 1.97682 21.0318 1.91815C20.97 1.85654 20.8981 1.82595 20.8162 1.82639C20.6699 1.82717 20.5344 1.92967 20.4097 2.13389C20.288 2.33809 20.2013 2.54947 20.1498 2.76804C20.2787 2.7939 20.3826 2.80662 20.4616 2.80619Z" fill="white"/>
<path d="M23.1619 3.32268C23.1158 3.45862 23.0257 3.57416 22.8916 3.66927C22.7605 3.76438 22.6159 3.81235 22.4579 3.8132C22.3029 3.81403 22.181 3.73651 22.0924 3.58064C22.0067 3.42181 21.9631 3.20227 21.9616 2.92204C21.9574 2.13148 22.0708 1.73558 22.3019 1.73434C22.3312 1.73418 22.3678 1.73841 22.4117 1.74702C22.4032 1.79427 22.3832 1.88435 22.3517 2.01726C22.2888 2.27719 22.2578 2.50598 22.2589 2.70362C22.2599 2.90126 22.2889 3.11055 22.3456 3.33149C22.4024 3.54948 22.482 3.6582 22.5844 3.65765C22.637 3.65737 22.688 3.62317 22.7374 3.55505C22.7868 3.48694 22.8259 3.41593 22.8548 3.34203C22.8836 3.26518 22.9139 3.17799 22.9455 3.08047C22.9772 2.98296 22.9973 2.92385 23.006 2.90315C22.9612 2.7323 22.9383 2.55837 22.9374 2.38138C22.9373 2.37253 22.9372 2.34599 22.9369 2.30174C22.9367 2.25454 22.9379 2.20881 22.9406 2.16455C22.9433 2.12028 22.9518 2.06714 22.9661 2.00511C22.9947 1.88106 23.0733 1.81869 23.2021 1.818C23.3103 1.81742 23.3653 1.98232 23.3671 2.3127C23.3674 2.3717 23.3591 2.45729 23.3421 2.56948C23.3281 2.68165 23.3212 2.75986 23.3215 2.80411C23.3222 2.9398 23.3875 3.11497 23.5174 3.32962C23.6473 3.54427 23.7678 3.65129 23.879 3.6507C23.9931 3.65008 24.0761 3.58474 24.1281 3.45466C24.18 3.32459 24.2056 3.1799 24.2047 3.02061C24.2037 2.83772 24.1869 2.69917 24.1542 2.60494C24.1244 2.50776 24.1051 2.44444 24.0961 2.41499C24.0901 2.38552 24.0709 2.3399 24.0384 2.27813C24.0087 2.21339 23.9895 2.17219 23.9806 2.15454C23.9747 2.13687 23.9525 2.09422 23.9141 2.02657C23.8757 1.95893 23.8536 1.9207 23.8477 1.91188C23.762 1.7619 23.7118 1.67957 23.6971 1.6649C23.7699 1.60256 23.8371 1.57122 23.8985 1.57089C24.0777 1.69973 24.2207 1.91135 24.3276 2.20577C24.4345 2.49724 24.4886 2.76392 24.4899 3.00581C24.4912 3.24474 24.441 3.43381 24.3393 3.573C24.2406 3.70923 24.0844 3.77792 23.8709 3.77906C23.7217 3.77986 23.5795 3.73933 23.4445 3.65745C23.3124 3.57262 23.2182 3.46102 23.1619 3.32268Z" fill="white"/>
<path d="M25.9582 0.639457C25.9929 0.574371 26.0571 0.541577 26.1507 0.541075C26.1712 0.540965 26.1917 0.543805 26.2122 0.549595C26.2189 0.705905 26.2242 1.14247 26.228 1.85928C26.2309 1.85631 26.244 1.84297 26.2673 1.81924C26.2935 1.7955 26.3095 1.78067 26.3153 1.77474C26.3212 1.7688 26.3357 1.75545 26.359 1.73468C26.3823 1.71095 26.3998 1.69611 26.4114 1.69015C26.426 1.68122 26.445 1.66932 26.4683 1.65444C26.4916 1.63662 26.512 1.62471 26.5295 1.61871C26.547 1.60977 26.5675 1.60081 26.5908 1.59184C26.6346 1.57685 26.6858 1.5692 26.7443 1.56889C26.9608 1.56772 27.1354 1.65823 27.268 1.84042C27.4006 2.01965 27.4675 2.22136 27.4687 2.44555C27.4699 2.66974 27.4375 2.88378 27.3713 3.08768C27.305 3.28863 27.2021 3.46471 27.0625 3.6159C26.9229 3.7671 26.7595 3.8432 26.5722 3.8442C26.3879 3.84519 26.2325 3.77671 26.1059 3.63874C25.9823 3.50076 25.92 3.34327 25.9191 3.16628C25.9181 2.98634 25.9266 2.6559 25.9445 2.17497C25.9623 1.69108 25.9707 1.34442 25.9696 1.13498C25.9685 0.922594 25.9646 0.757419 25.9582 0.639457ZM26.6018 3.62723C26.7159 3.62661 26.818 3.57149 26.9081 3.46186C27.0912 3.24553 27.1818 2.93973 27.1796 2.54445C27.1785 2.33206 27.1365 2.14497 27.0537 1.98317C26.9709 1.81841 26.8549 1.73644 26.7057 1.73724C26.6209 1.7377 26.5465 1.78087 26.4826 1.86676C26.4187 1.9497 26.3695 2.06059 26.3352 2.19942C26.2693 2.46232 26.2372 2.75453 26.2389 3.07606C26.2404 3.34745 26.2969 3.51382 26.4084 3.57517C26.4583 3.6044 26.5227 3.62175 26.6018 3.62723Z" fill="white"/>
<path d="M28.1258 2.91106C28.1203 2.97009 28.1175 3.00993 28.1177 3.03058C28.1186 3.20757 28.172 3.34445 28.2779 3.44123C28.3866 3.53799 28.5141 3.58598 28.6604 3.5852C28.8067 3.58441 28.9251 3.56313 29.0156 3.52134C29.109 3.47954 29.176 3.43493 29.2167 3.38752C29.3213 3.25421 29.4175 3.18732 29.5053 3.18685C29.5375 3.18667 29.5755 3.19532 29.6195 3.21278C29.591 3.35748 29.4806 3.49082 29.2881 3.6128C29.0986 3.73182 28.859 3.7921 28.5694 3.79366C28.3646 3.79476 28.1872 3.73081 28.0373 3.60182C27.8903 3.46986 27.8162 3.29031 27.815 3.06318C27.8138 2.83604 27.8565 2.61604 27.9431 2.40318C28.0327 2.18735 28.1604 2.00377 28.3264 1.85243C28.4952 1.69813 28.666 1.62052 28.8386 1.61959C29.0141 1.61865 29.1547 1.65477 29.2605 1.72795C29.3691 1.79816 29.4238 1.90259 29.4245 2.04123C29.4259 2.29787 29.3129 2.51087 29.0856 2.68024C28.8613 2.84664 28.6218 2.93052 28.3673 2.93189C28.3 2.93225 28.2195 2.92531 28.1258 2.91106ZM28.4585 2.76325C28.596 2.76251 28.7187 2.71761 28.8264 2.62853C28.9342 2.53945 29.0098 2.44612 29.0531 2.34854C29.0994 2.25095 29.1224 2.16233 29.1219 2.08268C29.1215 2.00304 29.0904 1.93388 29.0287 1.87521C28.9669 1.8136 28.8951 1.78301 28.8131 1.78345C28.6669 1.78423 28.5314 1.88673 28.4066 2.09095C28.2849 2.29515 28.1982 2.50653 28.1467 2.7251C28.2756 2.75096 28.3795 2.76368 28.4585 2.76325Z" fill="white"/>
<path d="M31.6121 0.246256C31.5063 1.2616 31.4546 1.98608 31.457 2.41971C31.4593 2.85039 31.5011 3.28085 31.5824 3.7111C31.5242 3.77042 31.4731 3.80019 31.4293 3.80042C31.3854 3.80066 31.3488 3.79496 31.3195 3.78331C31.2568 3.56536 31.219 3.32809 31.2059 3.07152C31.1363 3.18399 31.0841 3.26392 31.0492 3.3113C31.0173 3.35867 30.9606 3.4283 30.8792 3.52018C30.7309 3.69798 30.5544 3.78742 30.3496 3.78852C30.1946 3.78935 30.0815 3.71769 30.0105 3.57352C29.9425 3.42639 29.9078 3.23926 29.9066 3.01212C29.9053 2.78203 29.929 2.56361 29.9777 2.35685C30.0292 2.14713 30.1175 1.96671 30.2425 1.8156C30.3674 1.66153 30.5221 1.584 30.7064 1.58301C30.8176 1.58241 30.9201 1.60546 31.014 1.65216C31.1079 1.69885 31.1726 1.76193 31.2081 1.84139C31.2135 1.76171 31.2187 1.63926 31.2237 1.47404C31.2286 1.30881 31.2337 1.16276 31.2389 1.03589C31.247 0.90605 31.2594 0.774711 31.2763 0.641874C31.3069 0.358516 31.3778 0.216539 31.489 0.215942C31.527 0.215738 31.5681 0.225842 31.6121 0.246256ZM31.108 2.00122C31.0726 1.93651 31.024 1.88957 30.9624 1.8604C30.9008 1.82829 30.8188 1.8125 30.7164 1.81305C30.6169 1.81359 30.5236 1.87161 30.4365 1.98713C30.2651 2.21519 30.1806 2.54456 30.1829 2.97524C30.1836 3.11388 30.2063 3.2524 30.2509 3.39081C30.2955 3.52627 30.3603 3.59377 30.4451 3.59331C30.568 3.59265 30.6875 3.51089 30.8037 3.34802C30.9198 3.18515 31.0095 2.99882 31.0727 2.78904C31.136 2.5763 31.1671 2.38587 31.1662 2.21773C31.1658 2.13808 31.1464 2.06591 31.108 2.00122Z" fill="white"/>
<path d="M33.1472 2.01239C33.1206 1.94469 33.0705 1.89186 32.9972 1.8539C32.9238 1.81595 32.833 1.79726 32.7248 1.79784C32.6165 1.79842 32.5143 1.83142 32.4181 1.89684C32.3249 1.96224 32.2785 2.04951 32.2791 2.15865C32.2797 2.2678 32.324 2.35458 32.4122 2.41901C32.5032 2.48046 32.6117 2.52708 32.7377 2.55885C32.8666 2.59061 32.9955 2.62532 33.1244 2.66297C33.2533 2.69768 33.3619 2.75757 33.4501 2.84265C33.5413 2.92475 33.5872 3.03366 33.5879 3.16935C33.589 3.36699 33.5079 3.51787 33.3446 3.62199C33.1842 3.7261 32.99 3.77877 32.7618 3.77999C32.6272 3.78072 32.45 3.74479 32.2302 3.67223C32.0133 3.59964 31.9046 3.51173 31.904 3.40848C31.9036 3.33179 31.9678 3.29309 32.0965 3.2924C32.1345 3.2922 32.1844 3.31553 32.2461 3.3624C32.4341 3.50004 32.6261 3.56833 32.8221 3.56728C32.9274 3.56671 33.018 3.54852 33.0939 3.51272C33.2339 3.44412 33.3036 3.3346 33.3028 3.18415C33.3023 3.09271 33.2565 3.01921 33.1655 2.96365C33.0775 2.90807 32.969 2.8644 32.8401 2.83265C32.7141 2.80087 32.5866 2.76616 32.4577 2.7285C32.3288 2.69085 32.2187 2.62801 32.1275 2.54001C32.0393 2.44903 31.9948 2.33422 31.994 2.19558C31.9931 2.01564 32.0727 1.86919 32.2331 1.75623C32.3934 1.64328 32.592 1.58616 32.829 1.58489C32.9899 1.58402 33.1349 1.62602 33.2641 1.71087C33.3962 1.79276 33.4627 1.91335 33.4635 2.07264C33.4641 2.17884 33.4044 2.23226 33.2845 2.2329C33.2347 2.23317 33.2011 2.2245 33.1834 2.20689C33.1687 2.18927 33.1597 2.15835 33.1566 2.11412C33.1563 2.06692 33.1532 2.03301 33.1472 2.01239Z" fill="white"/>
<path d="M35.2859 3.80184C35.2332 3.80212 35.2045 3.35536 35.1997 2.46156C35.1977 2.08398 35.195 1.85538 35.1916 1.77575L35.1039 1.77622C35.0629 1.77644 35.0307 1.77661 35.0073 1.77674C34.9839 1.77391 34.9532 1.7726 34.9151 1.77281C34.88 1.77004 34.8507 1.76578 34.8273 1.76C34.8068 1.75421 34.7848 1.74696 34.7614 1.73823C34.7174 1.72077 34.6953 1.68991 34.695 1.64567C34.6947 1.58962 34.7853 1.56111 34.9667 1.56013C35.0457 1.55971 35.1173 1.56228 35.1817 1.56783C35.1844 1.50882 35.1854 1.43359 35.1849 1.34214C35.1873 1.24773 35.1899 1.17545 35.1925 1.12528C35.1952 1.07217 35.1978 1.00873 35.2003 0.93497C35.2057 0.861193 35.2127 0.803632 35.2213 0.762287C35.2328 0.720926 35.2472 0.675125 35.2645 0.624883C35.2817 0.571692 35.3049 0.531743 35.334 0.505038C35.3631 0.478332 35.3966 0.451603 35.4345 0.42485C35.5016 0.374341 35.6126 0.348671 35.7676 0.347838C35.9256 0.34699 36.0414 0.386192 36.115 0.465445C36.1915 0.541733 36.2595 0.672639 36.319 0.858165C36.2754 0.911498 36.2243 0.938321 36.1658 0.938635C36.1453 0.938745 36.1248 0.935906 36.1043 0.930116C36.0509 0.788806 36.0021 0.693196 35.9579 0.643284C35.9167 0.593357 35.8595 0.568589 35.7864 0.568982C35.7133 0.569375 35.6577 0.582948 35.6198 0.6097C35.5849 0.636437 35.5573 0.67051 35.537 0.711918C35.4936 0.800649 35.4728 1.01463 35.4746 1.35386C35.4747 1.36861 35.4749 1.39516 35.4751 1.43351C35.4753 1.47186 35.4755 1.50725 35.4756 1.5397L35.8485 1.5023C35.9947 1.50151 36.0681 1.53505 36.0684 1.60289C36.0687 1.64714 36.0337 1.67683 35.9636 1.69195C35.8934 1.70708 35.8043 1.71641 35.696 1.71994C35.5907 1.72345 35.5176 1.7327 35.4767 1.74767C35.4713 1.83029 35.469 1.93945 35.4697 2.07514C35.4704 2.20789 35.4789 2.42024 35.4951 2.71219C35.5113 3.0012 35.5198 3.2224 35.5206 3.37579C35.5214 3.52918 35.5059 3.63841 35.4741 3.70348C35.4452 3.76854 35.3824 3.80132 35.2859 3.80184Z" fill="white"/>
<path d="M36.4073 1.92851C36.5553 1.69762 36.7697 1.58143 37.0506 1.57992C37.3314 1.57841 37.5559 1.69225 37.7239 1.92144C37.8948 2.15062 37.981 2.4127 37.9826 2.70769C37.9842 2.99972 37.8934 3.248 37.7102 3.45253C37.5269 3.65706 37.2934 3.76009 37.0096 3.76161C36.7259 3.76313 36.5192 3.68459 36.3896 3.52599C36.26 3.36444 36.1944 3.13765 36.1928 2.84562C36.1908 2.46509 36.2623 2.15939 36.4073 1.92851ZM36.6017 2.16199C36.5643 2.27724 36.5356 2.39244 36.5158 2.50759C36.4988 2.62273 36.4906 2.73045 36.4912 2.83074C36.4917 2.92809 36.4995 3.01802 36.5146 3.10053C36.5296 3.1801 36.5549 3.25961 36.5905 3.33907C36.626 3.41558 36.679 3.47724 36.7494 3.52406C36.8199 3.56793 36.9034 3.58961 36.9999 3.58909C37.1959 3.58804 37.3594 3.50604 37.4901 3.34309C37.6238 3.18013 37.6901 2.9836 37.6888 2.75351C37.6876 2.52342 37.625 2.30104 37.5009 2.08636C37.3798 1.86872 37.2315 1.76037 37.0559 1.76131C36.9506 1.76188 36.8587 1.79924 36.7801 1.87341C36.7015 1.94758 36.642 2.04378 36.6017 2.16199Z" fill="white"/>
<path d="M38.8471 3.3181L38.8616 3.57024C38.862 3.63514 38.8432 3.68097 38.8053 3.70772C38.7703 3.73151 38.7338 3.7435 38.6958 3.74371C38.6607 3.74389 38.6241 3.73819 38.586 3.7266C38.5198 3.38476 38.4677 2.95877 38.4299 2.44864C38.395 1.93849 38.3744 1.64951 38.3682 1.58169C38.4119 1.54016 38.4571 1.51927 38.5039 1.51902C38.5536 1.51875 38.5975 1.52441 38.6356 1.53601C38.6478 1.62149 38.6576 1.81023 38.665 2.10224C38.6724 2.39424 38.6807 2.57709 38.6899 2.65079C38.7295 2.40278 38.8014 2.17083 38.9056 1.95492C38.9635 1.83367 39.039 1.73739 39.1323 1.66609C39.2284 1.59182 39.3306 1.5544 39.4388 1.55382C39.55 1.55322 39.6512 1.60283 39.7425 1.70264C39.8366 1.79948 39.8839 1.88772 39.8843 1.96737C39.8845 1.99687 39.867 2.02056 39.832 2.03845C39.797 2.05338 39.7576 2.06097 39.7137 2.06121C39.6727 2.06143 39.6404 2.04537 39.6169 2.01305C39.5933 1.98073 39.577 1.94542 39.568 1.90712C39.559 1.86587 39.5398 1.8291 39.5104 1.7968C39.4809 1.76451 39.4414 1.7485 39.3916 1.74877C39.26 1.74948 39.148 1.86955 39.0556 2.10899C38.9142 2.46669 38.8447 2.86973 38.8471 3.3181Z" fill="white"/>
<path d="M41.4957 0.454252C41.4997 0.660725 41.502 0.815584 41.5026 0.918828C41.5031 1.01912 41.5022 1.11943 41.4998 1.21974C41.5003 1.32003 41.497 1.51474 41.4898 1.80388C41.4825 2.09006 41.4779 2.31723 41.4759 2.48538C41.5866 2.40809 41.7191 2.28938 41.8733 2.12926C42.0275 1.96618 42.1672 1.82679 42.2924 1.71107C42.4903 1.53006 42.6319 1.47472 42.7172 1.54507C42.7495 1.57144 42.7599 1.59646 42.7483 1.62012C42.7194 1.68223 42.6525 1.75781 42.5476 1.84687C42.4457 1.93591 42.3248 2.03686 42.185 2.14971C42.0452 2.26256 41.9346 2.3664 41.8532 2.46123C42.0669 2.48958 42.2387 2.60961 42.3685 2.82131C42.4247 2.91835 42.4793 3.01541 42.5325 3.11247C42.6684 3.36838 42.8157 3.54164 42.9741 3.63223C42.9159 3.69154 42.8488 3.7214 42.7727 3.72181C42.6967 3.72222 42.6204 3.68576 42.5439 3.61242C42.4704 3.53907 42.4056 3.44944 42.3494 3.34355C42.2962 3.23763 42.2415 3.13173 42.1853 3.02583C42.0581 2.76987 41.9112 2.64234 41.7444 2.64324C41.6654 2.64366 41.5983 2.67057 41.543 2.72397C41.4877 2.77441 41.4601 2.82766 41.4604 2.88371C41.4623 3.23769 41.4579 3.50025 41.4471 3.67141C41.4065 3.72767 41.3627 3.75593 41.3159 3.75619C41.3013 3.75626 41.2852 3.7534 41.2676 3.74759C41.2031 3.72139 41.1706 3.66699 41.1702 3.5844C41.1727 3.50179 41.1801 3.251 41.1925 2.83205C41.2189 1.76108 41.2313 1.07663 41.2297 0.778697C41.229 0.640054 41.2416 0.547064 41.2677 0.499725C41.2967 0.45237 41.3302 0.428591 41.3683 0.428387C41.4092 0.428167 41.4517 0.436788 41.4957 0.454252Z" fill="white"/>
<path d="M43.5219 0.469921C43.5193 0.537783 43.5183 0.613012 43.5187 0.695607C43.5191 0.778203 43.524 0.863725 43.5332 0.952173C43.4925 0.999591 43.4371 1.02349 43.3669 1.02386C43.2791 1.02434 43.2348 0.953775 43.2341 0.812183C43.234 0.806283 43.2339 0.78416 43.2337 0.745812C43.2335 0.707464 43.2333 0.67354 43.2332 0.644042C43.2359 0.611578 43.2416 0.574674 43.2501 0.533329C43.2702 0.462422 43.3154 0.426781 43.3856 0.426404C43.4558 0.426027 43.5012 0.440533 43.5219 0.469921ZM43.2527 2.63956C43.2495 2.06139 43.277 1.7279 43.3351 1.6391C43.3554 1.60654 43.3801 1.59018 43.4094 1.59002C43.4387 1.58987 43.487 1.60583 43.5545 1.63792C43.5412 1.88873 43.5353 2.16163 43.5369 2.45662C43.5369 2.45662 43.5416 2.78256 43.551 3.43444C43.5514 3.52589 43.5313 3.59089 43.4906 3.62946C43.4527 3.66506 43.4162 3.68296 43.3811 3.68315C43.349 3.68332 43.3153 3.67465 43.2801 3.65714C43.2634 3.27374 43.2542 2.93455 43.2527 2.63956Z" fill="white"/>
<path d="M45.7373 0.170407C45.6316 1.18575 45.5799 1.91023 45.5823 2.34386C45.5846 2.77454 45.6264 3.205 45.7077 3.63526C45.6495 3.69457 45.5984 3.72434 45.5546 3.72458C45.5107 3.72481 45.4741 3.71911 45.4448 3.70747C45.3821 3.48951 45.3443 3.25224 45.3312 2.99567C45.2616 3.10814 45.2094 3.18807 45.1745 3.23545C45.1426 3.28282 45.0859 3.35245 45.0045 3.44434C44.8562 3.62213 44.6797 3.71157 44.4749 3.71267C44.3198 3.71351 44.2068 3.64184 44.1358 3.49767C44.0678 3.35054 44.0331 3.16341 44.0319 2.93627C44.0306 2.70618 44.0543 2.48776 44.103 2.28101C44.1545 2.07128 44.2428 1.89086 44.3678 1.73975C44.4927 1.58568 44.6474 1.50815 44.8317 1.50716C44.9429 1.50656 45.0454 1.52961 45.1393 1.57631C45.2332 1.623 45.2979 1.68608 45.3334 1.76554C45.3388 1.68586 45.344 1.56341 45.349 1.39819C45.3539 1.23296 45.359 1.08692 45.3642 0.960041C45.3723 0.830201 45.3847 0.698862 45.4015 0.566025C45.4322 0.282668 45.5031 0.14069 45.6143 0.140093C45.6523 0.139889 45.6934 0.149993 45.7373 0.170407ZM45.2333 1.92537C45.1979 1.86066 45.1493 1.81372 45.0877 1.78456C45.0261 1.75244 44.9441 1.73665 44.8417 1.7372C44.7422 1.73774 44.6489 1.79576 44.5618 1.91128C44.3904 2.13934 44.3059 2.46871 44.3082 2.89939C44.3089 3.03803 44.3316 3.17656 44.3762 3.31496C44.4208 3.45042 44.4856 3.51792 44.5704 3.51746C44.6933 3.51681 44.8128 3.43504 44.929 3.27217C45.0451 3.1093 45.1348 2.92297 45.198 2.71319C45.2613 2.50046 45.2924 2.31002 45.2915 2.14188C45.2911 2.06223 45.2717 1.99006 45.2333 1.92537Z" fill="white"/>
<path d="M47.2725 1.93654C47.2459 1.86884 47.1958 1.81601 47.1225 1.77805C47.0491 1.7401 46.9583 1.72141 46.8501 1.72199C46.7418 1.72257 46.6396 1.75557 46.5434 1.82099C46.4502 1.88639 46.4038 1.97366 46.4044 2.0828C46.405 2.19195 46.4493 2.27873 46.5375 2.34316C46.6285 2.40462 46.737 2.45123 46.863 2.48301C46.9919 2.51476 47.1208 2.54947 47.2497 2.58713C47.3786 2.62183 47.4872 2.68172 47.5754 2.7668C47.6666 2.84891 47.7125 2.95781 47.7132 3.0935C47.7143 3.29114 47.6332 3.44202 47.4699 3.54614C47.3095 3.65025 47.1153 3.70292 46.8871 3.70415C46.7525 3.70487 46.5753 3.66895 46.3555 3.59638C46.1386 3.52379 46.0299 3.43588 46.0293 3.33264C46.0289 3.25594 46.093 3.21725 46.2218 3.21655C46.2598 3.21635 46.3097 3.23968 46.3714 3.28655C46.5593 3.42419 46.7513 3.49248 46.9474 3.49143C47.0527 3.49086 47.1433 3.47268 47.2192 3.43687C47.3592 3.36827 47.4289 3.25875 47.4281 3.1083C47.4276 3.01686 47.3818 2.94336 47.2908 2.8878C47.2027 2.83222 47.0943 2.78856 46.9654 2.7568C46.8394 2.72503 46.7119 2.69031 46.583 2.65265C46.4541 2.615 46.344 2.55217 46.2528 2.46416C46.1646 2.37318 46.1201 2.25837 46.1193 2.11973C46.1184 1.93979 46.198 1.79334 46.3583 1.68038C46.5187 1.56743 46.7173 1.51031 46.9543 1.50904C47.1152 1.50817 47.2602 1.55017 47.3894 1.63502C47.5215 1.71691 47.588 1.8375 47.5888 1.99679C47.5894 2.10299 47.5297 2.15641 47.4098 2.15705C47.36 2.15732 47.3264 2.14865 47.3087 2.13105C47.294 2.11342 47.285 2.0825 47.2819 2.03827C47.2816 1.99107 47.2785 1.95716 47.2725 1.93654Z" fill="white"/>
</svg>
