<svg width="32" height="4" viewBox="0 0 32 4" fill="none" xmlns="http://www.w3.org/2000/svg">
<path d="M0.807673 2.41438C0.806063 2.1147 0.792261 1.85063 0.766265 1.62216C0.765946 1.56261 0.790435 1.51061 0.839734 1.46616C0.889033 1.42171 0.954584 1.38774 1.03639 1.36425C1.20001 1.32111 1.37994 1.29901 1.57618 1.29795C1.82958 1.29659 2.02898 1.35219 2.17439 1.46476C2.32169 1.57539 2.39596 1.74692 2.39721 1.97937C2.39846 2.21181 2.3061 2.39865 2.12014 2.53988C1.93418 2.68112 1.70688 2.75246 1.43824 2.7539C1.30107 2.75464 1.15707 2.7266 1.00624 2.66977C0.997211 2.76203 0.993119 2.88693 0.993964 3.04445L0.99758 3.18563C0.997828 3.23173 0.997133 3.27976 0.995496 3.32972C0.986042 3.34322 0.975615 3.35288 0.964214 3.3587C0.952814 3.36453 0.944261 3.36841 0.938556 3.37037C0.934766 3.37423 0.928113 3.37715 0.918597 3.37912C0.909081 3.38109 0.902418 3.38209 0.898607 3.38211C0.887197 3.38601 0.87387 3.388 0.858628 3.38809L0.810045 3.38835C0.80546 3.24429 0.802859 3.11463 0.80224 2.99937L0.807673 2.41438ZM0.999413 2.46234C1.139 2.55572 1.30596 2.60189 1.5003 2.60084C1.69462 2.59788 1.85815 2.53649 1.99087 2.41667C2.12359 2.29493 2.18948 2.14665 2.18854 1.97184C2.1876 1.79703 2.11831 1.66677 1.98067 1.58106C1.84303 1.49535 1.67799 1.45301 1.48557 1.45405C1.29504 1.45507 1.12666 1.50016 0.980435 1.58931C0.990632 1.71413 0.996957 2.00513 0.999413 2.46234Z" fill="white"/>
<path d="M2.92567 3.04848L2.93512 3.21268C2.93535 3.25495 2.92313 3.28479 2.89845 3.30221C2.87567 3.3177 2.8519 3.32551 2.82713 3.32565C2.80426 3.32577 2.78043 3.32205 2.75562 3.3145C2.71251 3.09189 2.67863 2.81448 2.65398 2.48227C2.63124 2.15004 2.61784 1.96185 2.6138 1.91769C2.64223 1.89064 2.67169 1.87704 2.70217 1.87687C2.73456 1.8767 2.76316 1.88039 2.78797 1.88794C2.79589 1.94361 2.80227 2.06652 2.8071 2.25668C2.81193 2.44684 2.81733 2.56592 2.82331 2.61391C2.84911 2.4524 2.89593 2.30135 2.96377 2.16075C3.00145 2.08178 3.05065 2.01908 3.11137 1.97265C3.17399 1.92429 3.24054 1.89992 3.31104 1.89954C3.38344 1.89915 3.44934 1.93145 3.50876 1.99645C3.57006 2.05952 3.60086 2.11698 3.60114 2.16885C3.60124 2.18806 3.58989 2.20349 3.56709 2.21514C3.54428 2.22487 3.51858 2.22981 3.49 2.22996C3.46333 2.2301 3.44232 2.21965 3.42696 2.1986C3.41161 2.17755 3.401 2.15456 3.39515 2.12961C3.38929 2.10275 3.37678 2.0788 3.35761 2.05778C3.33845 2.03675 3.31267 2.02632 3.28028 2.02649C3.19455 2.02695 3.12161 2.10515 3.06148 2.26108C2.96937 2.49402 2.9241 2.75649 2.92567 3.04848Z" fill="white"/>
<path d="M3.86538 2.12997C3.96174 1.97961 4.10137 1.90394 4.28428 1.90296C4.46718 1.90197 4.61333 1.97611 4.72274 2.12537C4.83404 2.27461 4.89021 2.44529 4.89125 2.63739C4.89227 2.82757 4.83312 2.98925 4.7138 3.12245C4.59448 3.25564 4.44242 3.32274 4.25761 3.32373C4.0728 3.32472 3.9382 3.27357 3.85381 3.17029C3.76942 3.06508 3.72671 2.91739 3.72569 2.72721C3.72435 2.4794 3.77092 2.28032 3.86538 2.12997ZM3.99194 2.28202C3.96758 2.35707 3.94893 2.43209 3.93599 2.50708C3.92496 2.58206 3.91962 2.65221 3.91997 2.71752C3.92031 2.78092 3.92539 2.83948 3.93521 2.89322C3.94501 2.94504 3.96149 2.99682 3.98463 3.04856C4.00776 3.09838 4.04227 3.13854 4.08816 3.16903C4.13404 3.1976 4.18842 3.21172 4.25129 3.21138C4.37894 3.21069 4.48535 3.15729 4.57052 3.05118C4.65759 2.94505 4.70073 2.81707 4.69992 2.66723C4.69912 2.51739 4.65833 2.37257 4.57756 2.23277C4.49868 2.09103 4.40208 2.02047 4.28777 2.02108C4.21918 2.02145 4.15929 2.04579 4.10811 2.09409C4.05693 2.14239 4.0182 2.20503 3.99194 2.28202Z" fill="white"/>
<path d="M5.02273 1.93357C5.03968 1.89698 5.07673 1.87853 5.13389 1.87822C5.15866 1.87809 5.17965 1.88374 5.19686 1.89517C5.251 2.04281 5.30419 2.1914 5.35644 2.34097C5.45508 2.61515 5.54674 2.83174 5.63143 2.99073C5.67018 2.75615 5.74608 2.51945 5.85911 2.28063C5.97405 2.0418 6.07915 1.92213 6.17442 1.92162C6.20299 1.92147 6.23161 1.92804 6.26026 1.94133C6.04271 2.23258 5.88759 2.61763 5.7949 3.09647C5.77645 3.20799 5.75583 3.2715 5.73305 3.28699C5.70837 3.30441 5.6827 3.31319 5.65603 3.31334C5.62935 3.31348 5.60836 3.30783 5.59306 3.29639C5.57966 3.28493 5.56912 3.27346 5.56144 3.26198C5.55566 3.25048 5.54698 3.23132 5.53541 3.20448C5.52574 3.17764 5.51802 3.15943 5.51225 3.14986C5.31595 2.78399 5.15277 2.37856 5.02273 1.93357Z" fill="white"/>
<path d="M6.63982 1.19008C6.63815 1.23427 6.63746 1.28326 6.63775 1.33705C6.63804 1.39084 6.64119 1.44653 6.64722 1.50413C6.62071 1.53501 6.58459 1.55058 6.53887 1.55082C6.48171 1.55113 6.45288 1.50518 6.45239 1.41297C6.45237 1.40913 6.45229 1.39472 6.45216 1.36975C6.45202 1.34477 6.4519 1.32268 6.4518 1.30347C6.45359 1.28233 6.45727 1.2583 6.46285 1.23137C6.47593 1.1852 6.50534 1.16198 6.55107 1.16174C6.59679 1.16149 6.62638 1.17094 6.63982 1.19008ZM6.46449 2.603C6.46247 2.22649 6.48036 2.00931 6.51816 1.95147C6.53138 1.93027 6.54752 1.91962 6.56657 1.91952C6.58562 1.91941 6.61711 1.92981 6.66105 1.95071C6.6524 2.11404 6.64859 2.29176 6.64962 2.48386C6.64962 2.48386 6.65267 2.69613 6.65876 3.12065C6.65908 3.1802 6.64597 3.22253 6.61943 3.24765C6.59478 3.27084 6.57103 3.28249 6.54817 3.28261C6.52721 3.28273 6.50527 3.27708 6.48234 3.26568C6.47148 3.016 6.46553 2.79511 6.46449 2.603Z" fill="white"/>
<path d="M8.08259 0.995027C8.01374 1.65624 7.98007 2.12805 7.98159 2.41044C7.98309 2.6909 8.01032 2.97123 8.06327 3.25142C8.02537 3.29005 7.99213 3.30944 7.96355 3.30959C7.93497 3.30974 7.91114 3.30603 7.89204 3.29845C7.85127 3.15651 7.82663 3.002 7.81811 2.83491C7.77277 2.90815 7.73876 2.9602 7.71606 2.99106C7.69527 3.02191 7.65836 3.06725 7.60533 3.12709C7.50878 3.24288 7.39382 3.30112 7.26046 3.30184C7.15948 3.30238 7.08587 3.25571 7.03964 3.16183C6.99531 3.06601 6.97274 2.94415 6.97195 2.79623C6.97114 2.64639 6.98657 2.50415 7.01824 2.3695C7.0518 2.23293 7.10928 2.11543 7.19068 2.01702C7.27207 1.91669 7.37278 1.8662 7.49281 1.86556C7.56521 1.86517 7.63198 1.88018 7.69311 1.91059C7.75424 1.94099 7.79638 1.98207 7.81952 2.03382C7.82305 1.98193 7.82644 1.90219 7.82967 1.79459C7.8329 1.68699 7.8362 1.59188 7.83957 1.50926C7.84483 1.4247 7.85294 1.33917 7.86391 1.25266C7.88388 1.06813 7.93006 0.975675 8.00246 0.975286C8.02723 0.975153 8.05394 0.981733 8.08259 0.995027ZM7.75435 2.1379C7.73126 2.09576 7.69966 2.0652 7.65954 2.0462C7.61942 2.02529 7.56602 2.01501 7.49933 2.01536C7.43455 2.01571 7.37379 2.0535 7.31703 2.12873C7.20542 2.27725 7.15036 2.49174 7.15187 2.77221C7.15235 2.8625 7.16713 2.95271 7.19619 3.04284C7.22524 3.13105 7.2674 3.17501 7.32265 3.17472C7.40267 3.17429 7.4805 3.12104 7.55614 3.01497C7.63179 2.90891 7.6902 2.78757 7.73138 2.65095C7.77255 2.51241 7.79285 2.3884 7.79226 2.2789C7.79198 2.22703 7.77934 2.18003 7.75435 2.1379Z" fill="white"/>
<path d="M8.56273 1.17975C8.56107 1.22395 8.56038 1.27294 8.56067 1.32673C8.56096 1.38051 8.56411 1.43621 8.57014 1.49381C8.54363 1.52469 8.50751 1.54025 8.46179 1.5405C8.40463 1.5408 8.3758 1.49485 8.37531 1.40264C8.37529 1.3988 8.37521 1.38439 8.37508 1.35942C8.37494 1.33445 8.37482 1.31235 8.37472 1.29314C8.37651 1.272 8.38019 1.24797 8.38576 1.22105C8.39885 1.17487 8.42826 1.15166 8.47399 1.15141C8.51971 1.15117 8.54929 1.16061 8.56273 1.17975ZM8.38741 2.59268C8.38539 2.21616 8.40328 1.99898 8.44107 1.94115C8.4543 1.91995 8.47043 1.90929 8.48949 1.90919C8.50854 1.90909 8.54003 1.91949 8.58397 1.94038C8.57532 2.10372 8.57151 2.28144 8.57254 2.47354C8.57254 2.47354 8.57559 2.6858 8.58168 3.11032C8.58199 3.16987 8.56888 3.21221 8.54235 3.23733C8.5177 3.26051 8.49395 3.27216 8.47108 3.27229C8.45013 3.2724 8.42819 3.26675 8.40526 3.25535C8.39439 3.00567 8.38844 2.78478 8.38741 2.59268Z" fill="white"/>
<path d="M10.1175 3.21158C10.0834 3.24826 10.0444 3.26672 10.0006 3.26696C9.91869 3.2674 9.85749 3.22354 9.817 3.13539C9.77652 3.04724 9.75212 2.93979 9.74382 2.81304C9.73742 2.68629 9.73293 2.55952 9.73035 2.43274C9.72776 2.30597 9.7167 2.19845 9.69718 2.11018C9.67956 2.02191 9.64598 1.9779 9.59644 1.97817C9.52976 1.97853 9.47292 2.03935 9.42594 2.16063C9.38087 2.28189 9.3492 2.41654 9.33094 2.56456C9.27981 2.97786 9.22961 3.20962 9.18035 3.25983C9.14615 3.27731 9.11666 3.28611 9.09189 3.28624C9.06712 3.28638 9.04615 3.28361 9.02897 3.27794C8.98801 3.10142 8.96066 2.79708 8.94691 2.36491C8.94194 2.14978 8.93738 2.01052 8.93323 1.94715C8.9731 1.92004 9.00732 1.90641 9.0359 1.90626C9.06448 1.9061 9.08735 1.90886 9.10453 1.91453C9.1145 1.99709 9.12017 2.16611 9.12154 2.4216C9.12482 2.67709 9.12752 2.82404 9.12963 2.86245C9.13894 2.82205 9.15002 2.75668 9.16287 2.66632C9.17763 2.57595 9.19057 2.50192 9.20169 2.44423C9.2128 2.38461 9.23053 2.31536 9.25487 2.23647C9.27922 2.15757 9.30651 2.09499 9.33675 2.04872C9.36697 2.00053 9.40867 1.95997 9.46184 1.92702C9.515 1.89216 9.57493 1.87455 9.64161 1.87419C9.73116 1.87371 9.79616 1.91466 9.83661 1.99705C9.87896 2.07751 9.90236 2.17824 9.90682 2.29924C9.91128 2.42024 9.91385 2.54318 9.91452 2.66804C9.91709 2.7929 9.93295 2.90712 9.96209 3.0107C9.99313 3.11427 10.0449 3.18123 10.1175 3.21158Z" fill="white"/>
<path d="M10.7949 1.84782C10.9683 1.84689 11.0887 1.91733 11.1561 2.05912C11.1927 2.13385 11.2226 2.20477 11.2459 2.27188C11.2691 2.33899 11.2848 2.43112 11.2931 2.54826C11.3055 2.72685 11.3123 2.93045 11.3135 3.15905C11.3147 3.38573 11.2614 3.5666 11.1535 3.70165C11.0476 3.83861 10.8907 3.90765 10.6831 3.90877C10.4773 3.90987 10.3055 3.84356 10.1676 3.70983C10.2055 3.6712 10.2463 3.65177 10.2902 3.65154C10.3359 3.65129 10.3979 3.67017 10.4762 3.70817C10.5565 3.74808 10.6413 3.7678 10.7309 3.76731C10.8204 3.76683 10.8946 3.7453 10.9535 3.70272C11.0123 3.66207 11.0558 3.6042 11.084 3.52913C11.1309 3.39632 11.1539 3.23291 11.1528 3.03889C11.1527 3.01007 11.1492 2.90347 11.1425 2.71908C11.0919 2.87688 11.0193 3.0079 10.9246 3.11215C10.8299 3.21448 10.7225 3.26596 10.6025 3.26661C10.4824 3.26725 10.3935 3.21394 10.3358 3.10667C10.28 2.99747 10.2517 2.87371 10.2509 2.7354C10.2502 2.59708 10.2685 2.46251 10.3059 2.33168C10.3433 2.19892 10.4046 2.08525 10.4899 1.99066C10.5751 1.89607 10.6768 1.84846 10.7949 1.84782ZM10.4943 2.28744C10.47 2.3721 10.4523 2.45192 10.4413 2.5269C10.4303 2.60188 10.425 2.67779 10.4254 2.75463C10.4258 2.82955 10.4415 2.91303 10.4724 3.00508C10.5053 3.09711 10.5523 3.14297 10.6132 3.14264C10.7333 3.14199 10.8395 3.05113 10.9318 2.87006C11.0242 2.68706 11.0699 2.50335 11.0689 2.31894C11.0686 2.25554 11.0387 2.18462 10.9792 2.10618C10.9216 2.0258 10.849 1.98585 10.7613 1.98632C10.7004 1.98665 10.6462 2.01576 10.5989 2.07364C10.5535 2.13152 10.5186 2.20278 10.4943 2.28744Z" fill="white"/>
<path d="M13.4526 3.19367C13.4185 3.23035 13.3795 3.24881 13.3357 3.24905C13.2538 3.24949 13.1926 3.20563 13.1521 3.11748C13.1116 3.02933 13.0872 2.92188 13.0789 2.79513C13.0725 2.66838 13.068 2.54161 13.0655 2.41483C13.0629 2.28806 13.0518 2.18054 13.0323 2.09227C13.0147 2.004 12.9811 1.95999 12.9315 1.96026C12.8649 1.96062 12.808 2.02144 12.761 2.14272C12.716 2.26399 12.6843 2.39863 12.666 2.54665C12.6149 2.95995 12.5647 3.19171 12.5155 3.24192C12.4813 3.2594 12.4518 3.2682 12.427 3.26833C12.4022 3.26847 12.3813 3.2657 12.3641 3.26003C12.3231 3.08351 12.2958 2.77917 12.282 2.347C12.277 2.13187 12.2725 1.99262 12.2683 1.92924C12.3082 1.90213 12.3424 1.8885 12.371 1.88835C12.3996 1.8882 12.4225 1.89095 12.4396 1.89662C12.4496 1.97918 12.4553 2.1482 12.4567 2.4037C12.4599 2.65918 12.4626 2.80613 12.4647 2.84454C12.474 2.80414 12.4851 2.73877 12.498 2.64841C12.5127 2.55804 12.5257 2.48401 12.5368 2.42632C12.5479 2.3667 12.5656 2.29745 12.59 2.21856C12.6143 2.13966 12.6416 2.07708 12.6719 2.03081C12.7021 1.98262 12.7438 1.94206 12.7969 1.90911C12.8501 1.87425 12.91 1.85664 12.9767 1.85628C13.0663 1.8558 13.1313 1.89675 13.1717 1.97914C13.2141 2.0596 13.2375 2.16033 13.2419 2.28133C13.2464 2.40234 13.249 2.52527 13.2496 2.65014C13.2522 2.77499 13.2681 2.88921 13.2972 2.99279C13.3282 3.09636 13.38 3.16332 13.4526 3.19367Z" fill="white"/>
<path d="M13.7802 2.68763C13.7766 2.72607 13.7748 2.75201 13.7749 2.76546C13.7755 2.88072 13.8103 2.96986 13.8792 3.03289C13.9501 3.0959 14.0331 3.12716 14.1284 3.12664C14.2237 3.12613 14.3007 3.11227 14.3597 3.08506C14.4205 3.05784 14.4641 3.02879 14.4907 2.99791C14.5588 2.9111 14.6214 2.86753 14.6786 2.86723C14.6995 2.86712 14.7243 2.87275 14.753 2.88412C14.7344 2.97835 14.6625 3.06518 14.5372 3.14462C14.4137 3.22213 14.2577 3.26139 14.0691 3.2624C13.9357 3.26311 13.8202 3.22147 13.7226 3.13747C13.6269 3.05153 13.5786 2.93461 13.5778 2.78669C13.577 2.63877 13.6049 2.4955 13.6613 2.35688C13.7196 2.21633 13.8028 2.09678 13.9108 1.99823C14.0208 1.89774 14.132 1.84719 14.2444 1.84659C14.3587 1.84598 14.4503 1.8695 14.5191 1.91716C14.5899 1.96288 14.6255 2.03089 14.626 2.12118C14.6269 2.2883 14.5533 2.42702 14.4053 2.53731C14.2592 2.64568 14.1032 2.7003 13.9375 2.70119C13.8937 2.70143 13.8412 2.69691 13.7802 2.68763ZM13.9969 2.59137C14.0865 2.59089 14.1663 2.56165 14.2365 2.50364C14.3067 2.44563 14.3559 2.38485 14.3841 2.3213C14.4143 2.25775 14.4292 2.20004 14.4289 2.14817C14.4287 2.0963 14.4084 2.05126 14.3682 2.01306C14.328 1.97293 14.2812 1.95301 14.2278 1.9533C14.1326 1.95381 14.0443 2.02056 13.9631 2.15355C13.8838 2.28653 13.8274 2.42419 13.7939 2.56653C13.8778 2.58337 13.9455 2.59165 13.9969 2.59137Z" fill="white"/>
<path d="M15.7554 2.92772C15.7254 3.01625 15.6667 3.09149 15.5794 3.15343C15.494 3.21537 15.3998 3.24661 15.297 3.24716C15.196 3.2477 15.1166 3.19722 15.0589 3.09571C15.0031 2.99228 14.9747 2.84931 14.9737 2.66681C14.971 2.15198 15.0449 1.89416 15.1954 1.89335C15.2144 1.89325 15.2383 1.896 15.2669 1.90161C15.2613 1.93238 15.2483 1.99104 15.2278 2.0776C15.1868 2.24688 15.1666 2.39587 15.1673 2.52457C15.168 2.65328 15.1868 2.78958 15.2238 2.93346C15.2608 3.07542 15.3126 3.14622 15.3793 3.14586C15.4136 3.14568 15.4468 3.12341 15.479 3.07905C15.5111 3.03469 15.5366 2.98845 15.5554 2.94032C15.5742 2.89027 15.5939 2.8335 15.6145 2.76999C15.6351 2.70649 15.6482 2.66799 15.6539 2.65452C15.6247 2.54325 15.6098 2.42999 15.6092 2.31473C15.6091 2.30896 15.6091 2.29167 15.6089 2.26286C15.6087 2.23212 15.6095 2.20234 15.6113 2.17352C15.613 2.14469 15.6186 2.11008 15.6279 2.06969C15.6465 1.98891 15.6977 1.94829 15.7815 1.94784C15.852 1.94746 15.8879 2.05485 15.889 2.27C15.8892 2.30842 15.8838 2.36416 15.8728 2.43722C15.8636 2.51027 15.8591 2.5612 15.8593 2.59002C15.8598 2.67838 15.9023 2.79246 15.9869 2.93224C16.0715 3.07203 16.15 3.14172 16.2224 3.14134C16.2967 3.14094 16.3507 3.09838 16.3846 3.01367C16.4184 2.92896 16.4351 2.83474 16.4345 2.73101C16.4339 2.61191 16.4229 2.52167 16.4016 2.46032C16.3822 2.39702 16.3696 2.35579 16.3638 2.33661C16.3599 2.31742 16.3473 2.28771 16.3262 2.24748C16.3069 2.20532 16.2944 2.17849 16.2886 2.167C16.2847 2.15549 16.2703 2.12772 16.2453 2.08366C16.2203 2.03961 16.2058 2.01472 16.202 2.00898C16.1462 1.9113 16.1135 1.85769 16.104 1.84813C16.1514 1.80754 16.1951 1.78713 16.2351 1.78691C16.3518 1.87082 16.4449 2.00863 16.5145 2.20036C16.5841 2.39018 16.6194 2.56384 16.6202 2.72137C16.6211 2.87697 16.5884 3.00009 16.5222 3.09074C16.4579 3.17945 16.3562 3.22418 16.2171 3.22493C16.1199 3.22545 16.0274 3.19905 15.9394 3.14574C15.8534 3.09049 15.7921 3.01782 15.7554 2.92772Z" fill="white"/>
<path d="M17.5764 1.18034C17.599 1.13795 17.6408 1.1166 17.7018 1.11627C17.7151 1.1162 17.7285 1.11805 17.7418 1.12182C17.7462 1.22361 17.7496 1.50791 17.7521 1.97472C17.754 1.97279 17.7626 1.9641 17.7777 1.94865C17.7948 1.93319 17.8052 1.92352 17.809 1.91966C17.8128 1.9158 17.8223 1.9071 17.8374 1.89357C17.8526 1.87812 17.864 1.86846 17.8716 1.86458C17.8811 1.85876 17.8934 1.85101 17.9086 1.84132C17.9238 1.82972 17.9371 1.82196 17.9485 1.81806C17.9599 1.81223 17.9732 1.8064 17.9884 1.80055C18.0169 1.79079 18.0502 1.78581 18.0884 1.78561C18.2293 1.78485 18.343 1.84379 18.4294 1.96244C18.5158 2.07916 18.5593 2.21052 18.5601 2.35651C18.5609 2.50251 18.5397 2.6419 18.4966 2.77469C18.4535 2.90555 18.3865 3.02021 18.2956 3.11868C18.2046 3.21714 18.0982 3.2667 17.9763 3.26735C17.8562 3.268 17.755 3.2234 17.6726 3.13355C17.5921 3.04369 17.5515 2.94113 17.5509 2.82587C17.5503 2.70869 17.5558 2.4935 17.5675 2.1803C17.5791 1.86519 17.5846 1.63943 17.5838 1.50304C17.5831 1.36473 17.5806 1.25716 17.5764 1.18034ZM17.9955 3.12605C18.0698 3.12565 18.1363 3.08975 18.195 3.01836C18.3143 2.87748 18.3732 2.67833 18.3718 2.42092C18.3711 2.28261 18.3438 2.16077 18.2899 2.0554C18.2359 1.94811 18.1604 1.89472 18.0632 1.89524C18.008 1.89554 17.9595 1.92366 17.9179 1.97959C17.8763 2.0336 17.8443 2.10582 17.8219 2.19623C17.779 2.36743 17.7581 2.55773 17.7592 2.76712C17.7602 2.94385 17.797 3.0522 17.8696 3.09215C17.9021 3.11118 17.9441 3.12248 17.9955 3.12605Z" fill="white"/>
<path d="M18.988 2.65966C18.9844 2.69811 18.9826 2.72405 18.9827 2.7375C18.9833 2.85276 19.0181 2.9419 19.087 3.00493C19.1579 3.06794 19.2409 3.09919 19.3362 3.09868C19.4314 3.09817 19.5085 3.08431 19.5674 3.0571C19.6283 3.02987 19.6719 3.00082 19.6984 2.96994C19.7666 2.88313 19.8292 2.83957 19.8864 2.83926C19.9073 2.83915 19.9321 2.84478 19.9608 2.85615C19.9422 2.95039 19.8703 3.03722 19.745 3.11666C19.6215 3.19416 19.4655 3.23342 19.2769 3.23443C19.1435 3.23515 19.028 3.19351 18.9304 3.1095C18.8347 3.02357 18.7864 2.90664 18.7856 2.75873C18.7848 2.61081 18.8126 2.46754 18.8691 2.32892C18.9274 2.18837 19.0106 2.06882 19.1186 1.97026C19.2286 1.86978 19.3398 1.81923 19.4522 1.81863C19.5665 1.81801 19.6581 1.84153 19.7269 1.88919C19.7977 1.93492 19.8333 2.00292 19.8338 2.09321C19.8347 2.26034 19.7611 2.39905 19.6131 2.50935C19.467 2.61771 19.311 2.67234 19.1453 2.67323C19.1014 2.67346 19.049 2.66894 18.988 2.65966ZM19.2047 2.56341C19.2942 2.56293 19.3741 2.53368 19.4443 2.47567C19.5145 2.41767 19.5637 2.35689 19.5919 2.29334C19.6221 2.22978 19.637 2.17207 19.6367 2.1202C19.6364 2.06834 19.6162 2.0233 19.576 1.9851C19.5358 1.94497 19.489 1.92505 19.4356 1.92534C19.3404 1.92585 19.2521 1.9926 19.1709 2.12559C19.0916 2.25857 19.0352 2.39623 19.0016 2.53856C19.0856 2.5554 19.1533 2.56368 19.2047 2.56341Z" fill="white"/>
<path d="M21.2583 0.924277C21.1895 1.58549 21.1558 2.0573 21.1573 2.33969C21.1589 2.62015 21.1861 2.90048 21.239 3.18067C21.2011 3.2193 21.1679 3.23869 21.1393 3.23884C21.1107 3.23899 21.0869 3.23528 21.0678 3.2277C21.027 3.08576 21.0024 2.93125 20.9939 2.76416C20.9485 2.8374 20.9145 2.88945 20.8918 2.92031C20.871 2.95116 20.8341 2.9965 20.7811 3.05634C20.6845 3.17212 20.5696 3.23037 20.4362 3.23109C20.3352 3.23163 20.2616 3.18496 20.2154 3.09108C20.1711 2.99526 20.1485 2.8734 20.1477 2.72548C20.1469 2.57564 20.1623 2.4334 20.194 2.29875C20.2276 2.16218 20.285 2.04468 20.3664 1.94627C20.4478 1.84594 20.5485 1.79545 20.6686 1.79481C20.741 1.79442 20.8077 1.80943 20.8689 1.83984C20.93 1.87024 20.9721 1.91132 20.9953 1.96307C20.9988 1.91118 21.0022 1.83144 21.0054 1.72384C21.0087 1.61624 21.012 1.52113 21.0153 1.43851C21.0206 1.35395 21.0287 1.26842 21.0397 1.18191C21.0596 0.997384 21.1058 0.904925 21.1782 0.904536C21.203 0.904403 21.2297 0.910983 21.2583 0.924277ZM20.9301 2.06715C20.907 2.02501 20.8754 1.99445 20.8353 1.97545C20.7952 1.95453 20.7418 1.94426 20.6751 1.94461C20.6103 1.94496 20.5495 1.98275 20.4928 2.05798C20.3812 2.2065 20.3261 2.42099 20.3276 2.70146C20.3281 2.79175 20.3429 2.88196 20.3719 2.97209C20.401 3.0603 20.4432 3.10426 20.4984 3.10397C20.5784 3.10354 20.6563 3.05029 20.7319 2.94422C20.8075 2.83816 20.866 2.71682 20.9071 2.5802C20.9483 2.44166 20.9686 2.31765 20.968 2.20815C20.9677 2.15628 20.9551 2.10928 20.9301 2.06715Z" fill="white"/>
<path d="M22.2581 2.07443C22.2407 2.03034 22.2081 1.99593 22.1604 1.97122C22.1126 1.9465 22.0535 1.93433 21.983 1.93471C21.9125 1.93509 21.8459 1.95658 21.7833 1.99918C21.7225 2.04177 21.6924 2.0986 21.6927 2.16968C21.6931 2.24075 21.722 2.29727 21.7794 2.33923C21.8387 2.37925 21.9093 2.40961 21.9914 2.4303C22.0753 2.45098 22.1593 2.47358 22.2432 2.49811C22.3272 2.52071 22.3979 2.55971 22.4554 2.61511C22.5147 2.66858 22.5446 2.7395 22.5451 2.82787C22.5458 2.95658 22.493 3.05483 22.3866 3.12264C22.2822 3.19044 22.1557 3.22474 22.0071 3.22554C21.9194 3.22601 21.804 3.20261 21.6609 3.15536C21.5196 3.10809 21.4488 3.05084 21.4485 2.9836C21.4482 2.93365 21.49 2.90846 21.5738 2.90801C21.5986 2.90787 21.6311 2.92307 21.6712 2.95359C21.7937 3.04322 21.9187 3.08769 22.0463 3.08701C22.1149 3.08664 22.1739 3.0748 22.2233 3.05148C22.3146 3.00681 22.3599 2.93548 22.3594 2.83751C22.3591 2.77796 22.3293 2.73009 22.27 2.69391C22.2127 2.65772 22.142 2.62928 22.0581 2.6086C21.976 2.58791 21.893 2.5653 21.8091 2.54078C21.7251 2.51626 21.6534 2.47534 21.5941 2.41802C21.5366 2.35878 21.5076 2.28401 21.5071 2.19373C21.5065 2.07655 21.5584 1.98117 21.6628 1.90761C21.7672 1.83405 21.8965 1.79686 22.0508 1.79603C22.1556 1.79547 22.2501 1.82281 22.3342 1.87807C22.4202 1.9314 22.4635 2.00993 22.4641 2.11367C22.4645 2.18282 22.4256 2.21761 22.3475 2.21803C22.3151 2.2182 22.2931 2.21256 22.2817 2.20109C22.2721 2.18962 22.2662 2.16948 22.2642 2.14067C22.264 2.10994 22.262 2.08786 22.2581 2.07443Z" fill="white"/>
<path d="M23.6509 3.23976C23.6166 3.23995 23.5978 2.94901 23.5947 2.36694C23.5934 2.12105 23.5916 1.97218 23.5895 1.92032L23.5323 1.92063C23.5056 1.92077 23.4847 1.92088 23.4694 1.92096C23.4542 1.91912 23.4342 1.91827 23.4094 1.9184C23.3865 1.91661 23.3675 1.91383 23.3522 1.91007C23.3388 1.9063 23.3245 1.90157 23.3093 1.89589C23.2806 1.88452 23.2662 1.86442 23.2661 1.83561C23.2659 1.79911 23.3248 1.78054 23.443 1.77991C23.4944 1.77963 23.5411 1.7813 23.583 1.78492C23.5847 1.74649 23.5854 1.6975 23.5851 1.63795C23.5867 1.57646 23.5883 1.52939 23.59 1.49672C23.5918 1.46213 23.5935 1.42082 23.5951 1.37279C23.5987 1.32474 23.6032 1.28725 23.6088 1.26033C23.6163 1.23339 23.6256 1.20357 23.6369 1.17085C23.6481 1.13621 23.6632 1.11019 23.6822 1.0928C23.7012 1.07541 23.723 1.058 23.7476 1.04058C23.7913 1.00769 23.8636 0.990972 23.9646 0.99043C24.0675 0.989878 24.1429 1.01541 24.1908 1.06702C24.2406 1.1167 24.2849 1.20195 24.3236 1.32277C24.2952 1.3575 24.262 1.37497 24.2239 1.37517C24.2105 1.37524 24.1972 1.37339 24.1838 1.36962C24.149 1.2776 24.1173 1.21534 24.0885 1.18283C24.0617 1.15032 24.0244 1.13419 23.9768 1.13444C23.9292 1.1347 23.893 1.14354 23.8683 1.16096C23.8456 1.17837 23.8276 1.20056 23.8144 1.22753C23.7861 1.28531 23.7726 1.42466 23.7738 1.64558C23.7738 1.65518 23.7739 1.67247 23.774 1.69745C23.7742 1.72242 23.7743 1.74547 23.7744 1.7666L24.0172 1.74225C24.1125 1.74173 24.1602 1.76357 24.1604 1.80775C24.1606 1.83657 24.1378 1.8559 24.0922 1.86575C24.0465 1.8756 23.9884 1.88168 23.9179 1.88398C23.8494 1.88627 23.8018 1.89228 23.7751 1.90203C23.7716 1.95584 23.7701 2.02693 23.7706 2.1153C23.771 2.20174 23.7765 2.34003 23.7871 2.53016C23.7976 2.71837 23.8032 2.86242 23.8037 2.96231C23.8042 3.0622 23.7941 3.13334 23.7734 3.17571C23.7546 3.21807 23.7137 3.23943 23.6509 3.23976Z" fill="white"/>
<path d="M24.3812 2.01981C24.4775 1.86945 24.6172 1.79377 24.8001 1.79279C24.983 1.79181 25.1291 1.86595 25.2385 2.0152C25.3498 2.16445 25.406 2.33512 25.407 2.52722C25.4081 2.7174 25.3489 2.87909 25.2296 3.01228C25.1103 3.14548 24.9582 3.21257 24.7734 3.21356C24.5886 3.21456 24.454 3.16341 24.3696 3.06013C24.2852 2.95492 24.2425 2.80723 24.2415 2.61705C24.2401 2.36924 24.2867 2.17016 24.3812 2.01981ZM24.5077 2.17185C24.4834 2.2469 24.4647 2.32193 24.4518 2.39692C24.4407 2.4719 24.4354 2.54204 24.4358 2.60736C24.4361 2.67075 24.4412 2.72932 24.451 2.78306C24.4608 2.83487 24.4773 2.88665 24.5004 2.9384C24.5235 2.98822 24.5581 3.02838 24.6039 3.05887C24.6498 3.08744 24.7042 3.10155 24.7671 3.10122C24.8947 3.10053 25.0011 3.04713 25.0863 2.94101C25.1734 2.83489 25.2165 2.7069 25.2157 2.55707C25.2149 2.40723 25.1741 2.26241 25.0933 2.1226C25.0145 1.98087 24.9179 1.9103 24.8035 1.91092C24.735 1.91129 24.6751 1.93562 24.6239 1.98392C24.5727 2.03222 24.534 2.09487 24.5077 2.17185Z" fill="white"/>
<path d="M25.97 2.92474L25.9794 3.08894C25.9797 3.1312 25.9674 3.16105 25.9428 3.17847C25.92 3.19396 25.8962 3.20177 25.8715 3.2019C25.8486 3.20203 25.8247 3.19831 25.7999 3.19076C25.7568 2.96815 25.7229 2.69074 25.6983 2.35853C25.6756 2.0263 25.6622 1.83811 25.6581 1.79395C25.6866 1.7669 25.716 1.75329 25.7465 1.75313C25.7789 1.75296 25.8075 1.75665 25.8323 1.7642C25.8402 1.81986 25.8466 1.94278 25.8514 2.13294C25.8563 2.3231 25.8617 2.44218 25.8676 2.49017C25.8934 2.32866 25.9403 2.17761 26.0081 2.037C26.0458 1.95804 26.095 1.89534 26.1557 1.84891C26.2183 1.80054 26.2849 1.77617 26.3554 1.7758C26.4278 1.77541 26.4937 1.80771 26.5531 1.87271C26.6144 1.93577 26.6452 1.99324 26.6455 2.04511C26.6456 2.06432 26.6342 2.07975 26.6114 2.0914C26.5886 2.10112 26.5629 2.10607 26.5343 2.10622C26.5077 2.10636 26.4866 2.09591 26.4713 2.07486C26.4559 2.05381 26.4453 2.03081 26.4395 2.00587C26.4336 1.97901 26.4211 1.95506 26.4019 1.93403C26.3828 1.913 26.357 1.90258 26.3246 1.90275C26.2389 1.90321 26.1659 1.98141 26.1058 2.13734C26.0137 2.37028 25.9684 2.63275 25.97 2.92474Z" fill="white"/>
<path d="M27.6948 1.05973C27.6974 1.19419 27.6989 1.29504 27.6993 1.36227C27.6996 1.42759 27.699 1.49291 27.6975 1.55823C27.6978 1.62355 27.6957 1.75035 27.691 1.93864C27.6862 2.12501 27.6832 2.27295 27.6819 2.38245C27.754 2.33212 27.8403 2.25481 27.9407 2.15054C28.0412 2.04434 28.1321 1.95356 28.2136 1.8782C28.3426 1.76032 28.4348 1.72429 28.4903 1.77009C28.5113 1.78727 28.5181 1.80356 28.5106 1.81897C28.4917 1.85942 28.4482 1.90864 28.3799 1.96664C28.3135 2.02462 28.2348 2.09036 28.1437 2.16385C28.0527 2.23734 27.9806 2.30497 27.9276 2.36673C28.0668 2.38519 28.1787 2.46335 28.2633 2.60121C28.2998 2.66441 28.3354 2.72762 28.37 2.79083C28.4586 2.95748 28.5544 3.07031 28.6576 3.12931C28.6197 3.16794 28.576 3.18738 28.5265 3.18765C28.4769 3.18791 28.4273 3.16417 28.3775 3.11641C28.3296 3.06864 28.2874 3.01027 28.2508 2.94131C28.2161 2.87234 28.1805 2.80337 28.1439 2.73441C28.0611 2.56772 27.9654 2.48467 27.8568 2.48525C27.8054 2.48553 27.7616 2.50305 27.7256 2.53782C27.6896 2.57068 27.6717 2.60535 27.6719 2.64185C27.6731 2.87237 27.6702 3.04336 27.6632 3.15482C27.6367 3.19147 27.6082 3.20987 27.5778 3.21003C27.5682 3.21008 27.5577 3.20822 27.5463 3.20444C27.5043 3.18737 27.4831 3.15195 27.4828 3.09816C27.4845 3.04436 27.4893 2.88104 27.4974 2.60821C27.5146 1.91077 27.5227 1.46504 27.5216 1.27102C27.5211 1.18073 27.5294 1.12017 27.5464 1.08934C27.5653 1.0585 27.5871 1.04302 27.6118 1.04289C27.6385 1.04274 27.6662 1.04836 27.6948 1.05973Z" fill="white"/>
<path d="M29.0143 1.06993C29.0127 1.11413 29.012 1.16312 29.0123 1.21691C29.0125 1.27069 29.0157 1.32639 29.0217 1.38399C28.9952 1.41487 28.9591 1.43043 28.9134 1.43068C28.8562 1.43098 28.8274 1.38503 28.8269 1.29282C28.8269 1.28898 28.8268 1.27457 28.8267 1.2496C28.8265 1.22463 28.8264 1.20254 28.8263 1.18333C28.8281 1.16218 28.8318 1.13815 28.8374 1.11123C28.8504 1.06505 28.8799 1.04184 28.9256 1.04159C28.9713 1.04135 29.0009 1.05079 29.0143 1.06993ZM28.839 2.48286C28.837 2.10634 28.8549 1.88916 28.8927 1.83133C28.9059 1.81013 28.922 1.79947 28.9411 1.79937C28.9601 1.79927 28.9916 1.80967 29.0356 1.83056C29.0269 1.9939 29.0231 2.17162 29.0241 2.36372C29.0241 2.36372 29.0272 2.57598 29.0333 3.0005C29.0336 3.06006 29.0205 3.10239 28.9939 3.12751C28.9693 3.15069 28.9455 3.16234 28.9227 3.16247C28.9017 3.16258 28.8798 3.15693 28.8569 3.14553C28.846 2.89585 28.84 2.67496 28.839 2.48286Z" fill="white"/>
<path d="M30.4571 0.874882C30.3882 1.5361 30.3546 2.0079 30.3561 2.29029C30.3576 2.57076 30.3848 2.85109 30.4378 3.13128C30.3999 3.1699 30.3666 3.18929 30.3381 3.18945C30.3095 3.1896 30.2856 3.18589 30.2666 3.1783C30.2258 3.03636 30.2011 2.88185 30.1926 2.71476C30.1473 2.78801 30.1133 2.84006 30.0906 2.87092C30.0698 2.90177 30.0329 2.94711 29.9798 3.00695C29.8833 3.12273 29.7683 3.18098 29.635 3.1817C29.534 3.18224 29.4604 3.13557 29.4142 3.04168C29.3698 2.94587 29.3472 2.824 29.3465 2.67608C29.3456 2.52624 29.3611 2.384 29.3927 2.24936C29.4263 2.11278 29.4838 1.99529 29.5652 1.89688C29.6466 1.79654 29.7473 1.74606 29.8673 1.74541C29.9397 1.74502 30.0065 1.76003 30.0676 1.79044C30.1288 1.82085 30.1709 1.86193 30.194 1.91367C30.1976 1.86178 30.2009 1.78204 30.2042 1.67444C30.2074 1.56685 30.2107 1.47174 30.2141 1.38911C30.2193 1.30456 30.2275 1.21903 30.2384 1.13252C30.2584 0.947989 30.3046 0.85553 30.377 0.855141C30.4017 0.855008 30.4284 0.861589 30.4571 0.874882ZM30.1289 2.01776C30.1058 1.97562 30.0742 1.94505 30.0341 1.92606C29.9939 1.90514 29.9405 1.89486 29.8738 1.89522C29.8091 1.89557 29.7483 1.93335 29.6915 2.00858C29.5799 2.1571 29.5249 2.3716 29.5264 2.65206C29.5269 2.74235 29.5416 2.83256 29.5707 2.9227C29.5998 3.01091 29.6419 3.05487 29.6972 3.05457C29.7772 3.05414 29.855 3.00089 29.9307 2.89483C30.0063 2.78876 30.0647 2.66742 30.1059 2.53081C30.1471 2.39227 30.1674 2.26825 30.1668 2.15875C30.1665 2.10689 30.1539 2.05989 30.1289 2.01776Z" fill="white"/>
<path d="M31.4569 2.02504C31.4395 1.98094 31.4069 1.94654 31.3591 1.92182C31.3114 1.89711 31.2522 1.88494 31.1817 1.88531C31.1113 1.88569 31.0447 1.90718 30.982 1.94978C30.9213 1.99237 30.8911 2.04921 30.8915 2.12028C30.8919 2.19136 30.9208 2.24788 30.9781 2.28983C31.0374 2.32986 31.1081 2.36021 31.1901 2.3809C31.2741 2.40159 31.358 2.42419 31.442 2.44871C31.5259 2.47131 31.5966 2.51031 31.6541 2.56572C31.7135 2.61919 31.7434 2.69011 31.7438 2.77847C31.7445 2.90718 31.6917 3.00544 31.5854 3.07325C31.481 3.14105 31.3544 3.17534 31.2058 3.17614C31.1182 3.17661 31.0028 3.15322 30.8596 3.10596C30.7184 3.05869 30.6476 3.00144 30.6472 2.93421C30.647 2.88426 30.6887 2.85906 30.7726 2.85861C30.7973 2.85848 30.8298 2.87367 30.87 2.90419C30.9924 2.99383 31.1174 3.0383 31.2451 3.03761C31.3137 3.03725 31.3727 3.0254 31.4221 3.00208C31.5133 2.95741 31.5587 2.88609 31.5581 2.78812C31.5578 2.72856 31.528 2.6807 31.4688 2.64452C31.4114 2.60832 31.3408 2.57989 31.2568 2.55921C31.1748 2.53851 31.0918 2.51591 31.0078 2.49138C30.9238 2.46686 30.8522 2.42594 30.7928 2.36863C30.7353 2.30939 30.7063 2.23462 30.7059 2.14433C30.7052 2.02715 30.7571 1.93178 30.8615 1.85822C30.9659 1.78466 31.0953 1.74746 31.2496 1.74663C31.3544 1.74607 31.4488 1.77342 31.533 1.82868C31.619 1.88201 31.6623 1.96054 31.6628 2.06427C31.6632 2.13343 31.6243 2.16822 31.5462 2.16864C31.5138 2.16881 31.4919 2.16316 31.4804 2.1517C31.4708 2.14022 31.465 2.12008 31.4629 2.09128C31.4628 2.06054 31.4607 2.03846 31.4569 2.02504Z" fill="white"/>
</svg>
