<svg width="40" height="2" viewBox="0 0 40 2" fill="none" xmlns="http://www.w3.org/2000/svg">
<path d="M0.652171 2.94284C0.650139 2.56444 0.632711 2.231 0.599887 1.94252C0.599483 1.86732 0.630406 1.80166 0.692655 1.74554C0.754904 1.68941 0.837674 1.64652 0.940964 1.61686C1.14757 1.56238 1.37477 1.53448 1.62256 1.53315C1.94252 1.53143 2.1943 1.60164 2.3779 1.74377C2.5639 1.88346 2.65769 2.10006 2.65926 2.39356C2.66084 2.68706 2.54422 2.92298 2.30941 3.10132C2.0746 3.27965 1.78759 3.36973 1.44839 3.37155C1.27517 3.37248 1.09335 3.33708 0.902902 3.26533C0.891499 3.38182 0.886331 3.53952 0.887399 3.73842L0.891965 3.91669C0.892278 3.9749 0.891401 4.03555 0.889334 4.09863C0.877396 4.11567 0.86423 4.12787 0.849834 4.13523C0.835439 4.14258 0.82464 4.14749 0.817435 4.14996C0.81265 4.15483 0.804249 4.15852 0.792234 4.16101C0.780218 4.1635 0.771805 4.16476 0.766993 4.16478C0.752585 4.16971 0.735758 4.17223 0.716512 4.17233L0.655166 4.17266C0.649378 3.99076 0.646093 3.82704 0.645311 3.68151L0.652171 2.94284ZM0.894279 3.0034C1.07053 3.12131 1.28135 3.17961 1.52674 3.17829C1.77211 3.17455 1.97859 3.09703 2.14619 2.94573C2.31377 2.79202 2.39696 2.60479 2.39578 2.38406C2.39459 2.16332 2.3071 1.99885 2.1333 1.89062C1.9595 1.7824 1.75112 1.72894 1.50814 1.73024C1.26756 1.73154 1.05496 1.78847 0.870316 1.90104C0.883191 2.05864 0.891179 2.4261 0.894279 3.0034Z" fill="white"/>
<path d="M3.32654 3.74352L3.33848 3.95085C3.33876 4.00422 3.32333 4.0419 3.29217 4.0639C3.2634 4.08346 3.23339 4.09332 3.20211 4.09349C3.17324 4.09364 3.14314 4.08895 3.11182 4.07942C3.05738 3.79833 3.0146 3.44804 2.98348 3.02856C2.95476 2.60907 2.93785 2.37144 2.93274 2.31568C2.96864 2.28153 3.00584 2.26435 3.04433 2.26414C3.08523 2.26392 3.12134 2.26858 3.15267 2.27811C3.16267 2.3484 3.17072 2.50361 3.17682 2.74372C3.18292 2.98383 3.18974 3.13419 3.19729 3.19479C3.22987 2.99086 3.28899 2.80012 3.37465 2.62258C3.42223 2.52287 3.48435 2.44371 3.56102 2.38508C3.64009 2.32401 3.72412 2.29324 3.81314 2.29276C3.90455 2.29227 3.98777 2.33306 4.06279 2.41513C4.14021 2.49476 4.17909 2.56732 4.17944 2.63282C4.17957 2.65707 4.16524 2.67656 4.13645 2.69126C4.10765 2.70355 4.0752 2.70979 4.03912 2.70998C4.00544 2.71016 3.9789 2.69696 3.95951 2.67038C3.94012 2.6438 3.92673 2.61477 3.91935 2.58327C3.91195 2.54935 3.89615 2.51912 3.87195 2.49256C3.84775 2.46601 3.8152 2.45284 3.7743 2.45306C3.66604 2.45365 3.57395 2.55238 3.49802 2.74927C3.38172 3.04341 3.32456 3.37482 3.32654 3.74352Z" fill="white"/>
<path d="M4.51309 2.58372C4.63477 2.39386 4.81108 2.29832 5.04203 2.29708C5.27298 2.29584 5.45753 2.38945 5.59567 2.57791C5.73622 2.76636 5.80714 2.98187 5.80845 3.22443C5.80974 3.46457 5.73505 3.66873 5.58439 3.83691C5.43372 4.0051 5.24172 4.08981 5.00836 4.09107C4.77501 4.09232 4.60505 4.02774 4.49849 3.89732C4.39193 3.76448 4.338 3.57799 4.33671 3.33785C4.33503 3.02495 4.39382 2.77357 4.51309 2.58372ZM4.67291 2.77571C4.64214 2.87048 4.61859 2.96521 4.60226 3.0599C4.58833 3.15457 4.58159 3.24315 4.58203 3.32562C4.58246 3.40567 4.58888 3.47961 4.60127 3.54747C4.61365 3.6129 4.63445 3.67828 4.66367 3.74362C4.69288 3.80653 4.73645 3.85723 4.7944 3.89573C4.85233 3.93181 4.92099 3.94963 5.00038 3.94921C5.16157 3.94834 5.29593 3.88091 5.40347 3.74692C5.51342 3.61292 5.56788 3.45131 5.56687 3.26211C5.56585 3.07291 5.51435 2.89005 5.41236 2.71352C5.31276 2.53455 5.19079 2.44546 5.04644 2.44623C4.95984 2.4467 4.88422 2.47743 4.81959 2.53842C4.75496 2.5994 4.70607 2.6785 4.67291 2.77571Z" fill="white"/>
<path d="M5.97447 2.33573C5.99587 2.28953 6.04266 2.26623 6.11483 2.26585C6.1461 2.26568 6.17261 2.27281 6.19434 2.28725C6.2627 2.47366 6.32987 2.66129 6.39584 2.85014C6.52039 3.19635 6.63613 3.46983 6.74307 3.67059C6.792 3.3744 6.88783 3.07552 7.03056 2.77396C7.17569 2.4724 7.3084 2.32129 7.42869 2.32065C7.46477 2.32045 7.50091 2.32875 7.53708 2.34553C7.26239 2.71329 7.06652 3.19948 6.94948 3.80411C6.92618 3.94493 6.90015 4.02512 6.87138 4.04468C6.84022 4.06668 6.8078 4.07777 6.77413 4.07795C6.74044 4.07813 6.71394 4.07099 6.69462 4.05654C6.6777 4.04208 6.66439 4.0276 6.65469 4.01309C6.64739 3.99858 6.63644 3.97438 6.62182 3.9405C6.60961 3.9066 6.59986 3.88361 6.59258 3.87152C6.34471 3.40954 6.13867 2.89761 5.97447 2.33573Z" fill="white"/>
<path d="M8.01634 1.39693C8.01424 1.45274 8.01337 1.5146 8.01373 1.58251C8.0141 1.65043 8.01808 1.72076 8.02569 1.79349C7.99222 1.83248 7.94661 1.85213 7.88888 1.85244C7.8167 1.85283 7.78031 1.7948 7.77968 1.67837C7.77966 1.67352 7.77956 1.65533 7.77939 1.6238C7.77922 1.59226 7.77907 1.56437 7.77894 1.54011C7.7812 1.51342 7.78585 1.48307 7.79288 1.44907C7.80941 1.39077 7.84654 1.36146 7.90428 1.36115C7.96202 1.36084 7.99937 1.37277 8.01634 1.39693ZM7.79497 3.18102C7.79241 2.70559 7.815 2.43137 7.86272 2.35834C7.87942 2.33157 7.8998 2.31812 7.92385 2.31799C7.94791 2.31786 7.98768 2.33099 8.04315 2.35737C8.03223 2.56361 8.02742 2.78802 8.02872 3.03058C8.02872 3.03058 8.03257 3.2986 8.04026 3.83464C8.04066 3.90984 8.02411 3.96329 7.9906 3.995C7.95948 4.02428 7.92949 4.039 7.90062 4.03915C7.87416 4.03929 7.84645 4.03216 7.8175 4.01776C7.80378 3.7025 7.79627 3.42358 7.79497 3.18102Z" fill="white"/>
<path d="M9.83811 1.15065C9.75118 1.98556 9.70867 2.58129 9.71058 2.93786C9.71248 3.29201 9.74686 3.64597 9.81372 3.99977C9.76586 4.04854 9.72389 4.07302 9.68781 4.07322C9.65172 4.07341 9.62163 4.06872 9.59752 4.05915C9.54603 3.87992 9.51491 3.68482 9.50416 3.47384C9.44691 3.56632 9.40396 3.63205 9.3753 3.67101C9.34905 3.70997 9.30244 3.76722 9.23548 3.84278C9.11357 3.98897 8.96842 4.06252 8.80002 4.06343C8.67251 4.06411 8.57957 4.00518 8.5212 3.88664C8.46522 3.76565 8.43672 3.61177 8.43572 3.425C8.4347 3.2358 8.45419 3.05619 8.49417 2.88618C8.53655 2.71373 8.60913 2.56537 8.71192 2.4411C8.81468 2.31442 8.94185 2.25066 9.09341 2.24985C9.18483 2.24936 9.26913 2.26831 9.34632 2.30671C9.42352 2.34511 9.47672 2.39697 9.50594 2.46231C9.5104 2.39679 9.51467 2.2961 9.51875 2.16024C9.52284 2.02438 9.527 1.90429 9.53125 1.79996C9.5379 1.69319 9.54814 1.58519 9.56199 1.47596C9.5872 1.24296 9.64552 1.12621 9.73694 1.12572C9.76821 1.12555 9.80194 1.13386 9.83811 1.15065ZM9.42365 2.59374C9.39449 2.54053 9.35459 2.50193 9.30394 2.47795C9.25327 2.45154 9.18584 2.43856 9.10164 2.43901C9.01985 2.43945 8.94312 2.48716 8.87145 2.58215C8.73052 2.76969 8.661 3.04053 8.6629 3.39467C8.66352 3.50868 8.68217 3.62258 8.71887 3.73639C8.75556 3.84778 8.80878 3.90329 8.87855 3.90291C8.97959 3.90237 9.07786 3.83513 9.17338 3.70121C9.26889 3.56728 9.34265 3.41406 9.39465 3.24156C9.44664 3.06663 9.47226 2.91003 9.47152 2.77177C9.47116 2.70628 9.45521 2.64694 9.42365 2.59374Z" fill="white"/>
<path d="M10.4444 1.3839C10.4423 1.4397 10.4414 1.50156 10.4418 1.56948C10.4421 1.63739 10.4461 1.70772 10.4537 1.78045C10.4203 1.81944 10.3747 1.83909 10.3169 1.8394C10.2447 1.83979 10.2083 1.78177 10.2077 1.66534C10.2077 1.66049 10.2076 1.64229 10.2074 1.61076C10.2073 1.57923 10.2071 1.55133 10.207 1.52708C10.2092 1.50038 10.2139 1.47003 10.2209 1.43604C10.2375 1.37773 10.2746 1.34842 10.3323 1.34811C10.3901 1.3478 10.4274 1.35973 10.4444 1.3839ZM10.223 3.16798C10.2205 2.69255 10.243 2.41833 10.2908 2.3453C10.3075 2.31853 10.3278 2.30508 10.3519 2.30495C10.376 2.30482 10.4157 2.31795 10.4712 2.34433C10.4603 2.55058 10.4555 2.77498 10.4568 3.01754C10.4568 3.01754 10.4606 3.28556 10.4683 3.8216C10.4687 3.8968 10.4522 3.95025 10.4186 3.98197C10.3875 4.01124 10.3575 4.02596 10.3287 4.02611C10.3022 4.02625 10.2745 4.01913 10.2455 4.00473C10.2318 3.68946 10.2243 3.41054 10.223 3.16798Z" fill="white"/>
<path d="M12.4076 3.94945C12.3645 3.99577 12.3153 4.01908 12.26 4.01938C12.1565 4.01994 12.0793 3.96456 12.0281 3.85325C11.977 3.74194 11.9462 3.60627 11.9357 3.44623C11.9277 3.28618 11.922 3.12611 11.9187 2.96603C11.9155 2.80595 11.9015 2.67019 11.8768 2.55874C11.8546 2.44727 11.8122 2.39171 11.7496 2.39205C11.6654 2.3925 11.5937 2.46929 11.5343 2.62243C11.4774 2.77556 11.4374 2.94557 11.4144 3.13247C11.3498 3.65435 11.2864 3.94698 11.2242 4.01039C11.1811 4.03245 11.1438 4.04357 11.1125 4.04373C11.0813 4.0439 11.0548 4.04041 11.0331 4.03325C10.9814 3.81036 10.9468 3.42607 10.9295 2.88038C10.9232 2.60873 10.9174 2.4329 10.9122 2.35288C10.9625 2.31865 11.0058 2.30144 11.0418 2.30124C11.0779 2.30105 11.1068 2.30453 11.1285 2.31169C11.1411 2.41593 11.1483 2.62936 11.15 2.95197C11.1541 3.27456 11.1575 3.46011 11.1602 3.50861C11.172 3.45761 11.1859 3.37506 11.2022 3.26096C11.2208 3.14685 11.2371 3.05338 11.2512 2.98053C11.2652 2.90526 11.2876 2.81781 11.3183 2.71819C11.3491 2.61857 11.3835 2.53955 11.4217 2.48113C11.4599 2.42028 11.5125 2.36906 11.5797 2.32746C11.6468 2.28344 11.7225 2.2612 11.8067 2.26075C11.9197 2.26014 12.0018 2.31186 12.0529 2.41589C12.1064 2.51748 12.1359 2.64467 12.1415 2.79746C12.1472 2.95025 12.1504 3.10548 12.1513 3.26314C12.1545 3.4208 12.1745 3.56502 12.2113 3.69581C12.2505 3.82659 12.3159 3.91114 12.4076 3.94945Z" fill="white"/>
<path d="M13.2629 2.22746C13.4818 2.22629 13.6339 2.31522 13.719 2.49427C13.7653 2.58862 13.803 2.67817 13.8323 2.76291C13.8617 2.84765 13.8815 2.96398 13.892 3.11189C13.9076 3.3374 13.9162 3.59448 13.9178 3.88313C13.9193 4.16935 13.852 4.39773 13.7157 4.56826C13.5819 4.74121 13.3839 4.82838 13.1217 4.82979C12.8619 4.83119 12.6449 4.74745 12.4708 4.57859C12.5186 4.52982 12.5702 4.50528 12.6256 4.50498C12.6833 4.50467 12.7616 4.52851 12.8605 4.57649C12.9618 4.62689 13.069 4.65178 13.1821 4.65118C13.2952 4.65057 13.3888 4.62338 13.4631 4.56962C13.5374 4.51828 13.5924 4.44521 13.628 4.35042C13.6872 4.18273 13.7162 3.97639 13.7149 3.7314C13.7147 3.69501 13.7103 3.56041 13.7019 3.32759C13.638 3.52684 13.5462 3.69228 13.4267 3.82391C13.3071 3.95311 13.1715 4.01812 13.0199 4.01894C12.8684 4.01975 12.7561 3.95243 12.6832 3.81699C12.6127 3.6791 12.577 3.52283 12.5761 3.34819C12.5751 3.17354 12.5983 3.00362 12.6455 2.83842C12.6927 2.67079 12.7701 2.52726 12.8777 2.40782C12.9854 2.28838 13.1138 2.22826 13.2629 2.22746ZM12.8834 2.78256C12.8527 2.88946 12.8304 2.99024 12.8164 3.08492C12.8025 3.1796 12.7958 3.27545 12.7963 3.37248C12.7968 3.46707 12.8166 3.57249 12.8558 3.68871C12.8973 3.80492 12.9565 3.86282 13.0335 3.86241C13.1851 3.86159 13.3192 3.74686 13.4358 3.51822C13.5525 3.28715 13.6102 3.05519 13.6089 2.82233C13.6085 2.74228 13.5707 2.65273 13.4956 2.55368C13.4229 2.45219 13.3312 2.40175 13.2205 2.40234C13.1436 2.40275 13.0752 2.43951 13.0154 2.5126C12.9581 2.58568 12.9141 2.67567 12.8834 2.78256Z" fill="white"/>
<path d="M16.6188 3.92684C16.5757 3.97316 16.5265 3.99647 16.4712 3.99677C16.3677 3.99732 16.2904 3.94195 16.2393 3.83064C16.1882 3.71933 16.1574 3.58366 16.1469 3.42362C16.1388 3.26356 16.1332 3.1035 16.1299 2.94342C16.1266 2.78334 16.1127 2.64757 16.088 2.53612C16.0658 2.42466 16.0234 2.3691 15.9608 2.36943C15.8766 2.36988 15.8049 2.44668 15.7455 2.59982C15.6886 2.75294 15.6486 2.92296 15.6256 3.10986C15.561 3.63173 15.4976 3.92437 15.4354 3.98777C15.3922 4.00984 15.355 4.02095 15.3237 4.02112C15.2925 4.02129 15.266 4.01779 15.2443 4.01063C15.1926 3.78774 15.158 3.40346 15.1407 2.85777C15.1344 2.58612 15.1286 2.41029 15.1234 2.33027C15.1737 2.29604 15.217 2.27882 15.253 2.27863C15.2891 2.27844 15.318 2.28192 15.3397 2.28908C15.3523 2.39332 15.3595 2.60674 15.3612 2.92935C15.3653 3.25195 15.3687 3.4375 15.3714 3.486C15.3831 3.43499 15.3971 3.35244 15.4134 3.23835C15.432 3.12424 15.4483 3.03076 15.4624 2.95792C15.4764 2.88264 15.4988 2.7952 15.5295 2.69558C15.5603 2.59596 15.5947 2.51694 15.6329 2.45852C15.6711 2.39767 15.7237 2.34645 15.7909 2.30485C15.858 2.26083 15.9337 2.23859 16.0179 2.23814C16.1309 2.23753 16.213 2.28924 16.2641 2.39327C16.3176 2.49487 16.3471 2.62206 16.3527 2.77485C16.3584 2.92764 16.3616 3.08286 16.3625 3.24053C16.3657 3.39818 16.3857 3.54241 16.4225 3.6732C16.4617 3.80397 16.5271 3.88852 16.6188 3.92684Z" fill="white"/>
<path d="M17.0324 3.28787C17.0279 3.33641 17.0257 3.36917 17.0257 3.38615C17.0265 3.53169 17.0704 3.64425 17.1575 3.72383C17.2469 3.8034 17.3518 3.84286 17.4721 3.84221C17.5924 3.84157 17.6897 3.82406 17.7641 3.7897C17.8409 3.75533 17.896 3.71865 17.9295 3.67966C18.0155 3.57004 18.0946 3.51504 18.1668 3.51465C18.1933 3.51451 18.2246 3.52162 18.2607 3.53598C18.2373 3.65496 18.1465 3.76461 17.9882 3.86491C17.8324 3.96278 17.6354 4.01235 17.3972 4.01363C17.2288 4.01453 17.083 3.96195 16.9597 3.85588C16.8388 3.74737 16.7779 3.59973 16.7769 3.41296C16.7759 3.22618 16.811 3.04528 16.8822 2.87024C16.9559 2.69277 17.0609 2.54181 17.1974 2.41737C17.3362 2.29049 17.4766 2.22667 17.6186 2.2259C17.7629 2.22513 17.8785 2.25483 17.9655 2.31501C18.0548 2.37274 18.0998 2.45861 18.1004 2.57262C18.1015 2.78365 18.0086 2.9588 17.8217 3.09807C17.6372 3.2349 17.4403 3.30388 17.231 3.305C17.1757 3.3053 17.1095 3.29959 17.0324 3.28787ZM17.306 3.16633C17.4191 3.16572 17.52 3.1288 17.6086 3.05555C17.6972 2.9823 17.7593 2.90556 17.795 2.82532C17.8331 2.74507 17.8519 2.67219 17.8516 2.6067C17.8512 2.54121 17.8256 2.48434 17.7749 2.4361C17.7241 2.38543 17.665 2.36028 17.5976 2.36064C17.4773 2.36129 17.3659 2.44557 17.2634 2.6135C17.1632 2.78141 17.092 2.95523 17.0497 3.13496C17.1556 3.15622 17.2411 3.16668 17.306 3.16633Z" fill="white"/>
<path d="M19.5264 3.59104C19.4885 3.70282 19.4145 3.79782 19.3042 3.87604C19.1964 3.95424 19.0775 3.99369 18.9476 3.99438C18.8201 3.99507 18.7199 3.93133 18.6471 3.80316C18.5766 3.67255 18.5407 3.49202 18.5395 3.26159C18.536 2.61152 18.6293 2.28597 18.8193 2.28495C18.8434 2.28482 18.8735 2.2883 18.9096 2.29538C18.9026 2.33423 18.8862 2.4083 18.8603 2.5176C18.8085 2.73134 18.783 2.91947 18.7839 3.08199C18.7848 3.2445 18.8086 3.4166 18.8553 3.59828C18.9019 3.77753 18.9674 3.86693 19.0516 3.86648C19.0949 3.86624 19.1368 3.83812 19.1774 3.78211C19.218 3.72611 19.2502 3.66772 19.2739 3.60695C19.2976 3.54375 19.3225 3.47206 19.3485 3.39187C19.3746 3.31168 19.3911 3.26308 19.3983 3.24606C19.3614 3.10557 19.3426 2.96255 19.3418 2.81701C19.3418 2.80974 19.3417 2.78791 19.3415 2.75152C19.3413 2.71271 19.3423 2.67511 19.3445 2.63871C19.3467 2.60231 19.3537 2.55861 19.3654 2.50761C19.389 2.4056 19.4536 2.35432 19.5595 2.35375C19.6485 2.35327 19.6937 2.48887 19.6952 2.76054C19.6955 2.80905 19.6886 2.87943 19.6747 2.97168C19.6631 3.06392 19.6575 3.12823 19.6577 3.16462C19.6583 3.2762 19.712 3.42024 19.8188 3.59674C19.9256 3.77325 20.0247 3.86125 20.1161 3.86076C20.2099 3.86026 20.2782 3.80652 20.3209 3.69956C20.3637 3.5926 20.3847 3.47363 20.384 3.34265C20.3832 3.19226 20.3693 3.07832 20.3424 3.00085C20.3179 2.92093 20.302 2.86886 20.2947 2.84464C20.2897 2.82041 20.2739 2.7829 20.2472 2.7321C20.2228 2.67887 20.207 2.64499 20.1997 2.63048C20.1948 2.61595 20.1766 2.58088 20.145 2.52525C20.1134 2.46963 20.0952 2.4382 20.0904 2.43095C20.0199 2.30761 19.9787 2.23991 19.9666 2.22785C20.0265 2.17659 20.0817 2.15082 20.1322 2.15055C20.2795 2.25649 20.3971 2.43051 20.485 2.67261C20.5729 2.91228 20.6174 3.13157 20.6185 3.33047C20.6195 3.52695 20.5783 3.68242 20.4947 3.79687C20.4135 3.90889 20.2851 3.96537 20.1094 3.96631C19.9868 3.96697 19.8699 3.93364 19.7589 3.86632C19.6502 3.79656 19.5728 3.70479 19.5264 3.59104Z" fill="white"/>
<path d="M21.8258 1.38464C21.8544 1.33112 21.9072 1.30415 21.9842 1.30374C22.001 1.30365 22.0179 1.30598 22.0347 1.31074C22.0402 1.43928 22.0446 1.79826 22.0477 2.38769C22.0501 2.38525 22.0609 2.37428 22.08 2.35477C22.1016 2.33525 22.1147 2.32305 22.1195 2.31817C22.1243 2.31329 22.1363 2.30231 22.1554 2.28523C22.1746 2.26572 22.1889 2.25352 22.1985 2.24861C22.2105 2.24127 22.2261 2.23148 22.2453 2.21925C22.2645 2.2046 22.2812 2.1948 22.2957 2.18987C22.3101 2.18252 22.3269 2.17515 22.3461 2.16777C22.3821 2.15545 22.4241 2.14916 22.4723 2.1489C22.6503 2.14795 22.7938 2.22237 22.9029 2.37218C23.0119 2.51956 23.067 2.68543 23.068 2.86978C23.0689 3.05412 23.0422 3.23013 22.9878 3.3978C22.9333 3.56304 22.8487 3.70782 22.7339 3.83215C22.6191 3.95648 22.4847 4.01905 22.3307 4.01988C22.1792 4.02069 22.0514 3.96438 21.9473 3.85093C21.8457 3.73747 21.7944 3.60797 21.7937 3.46243C21.7929 3.31446 21.7998 3.04275 21.8145 2.64728C21.8293 2.24938 21.8361 1.96433 21.8352 1.7921C21.8343 1.61746 21.8311 1.48164 21.8258 1.38464ZM22.355 3.84146C22.4489 3.84096 22.5328 3.79563 22.6069 3.70548C22.7575 3.5276 22.832 3.27614 22.8302 2.9511C22.8293 2.77646 22.7948 2.62261 22.7267 2.48956C22.6586 2.35409 22.5632 2.28668 22.4405 2.28734C22.3708 2.28771 22.3096 2.32321 22.2571 2.39384C22.2045 2.46204 22.1641 2.55322 22.1358 2.66738C22.0817 2.88356 22.0553 3.12385 22.0567 3.38824C22.0579 3.6114 22.1043 3.7482 22.196 3.79865C22.2371 3.82269 22.2901 3.83696 22.355 3.84146Z" fill="white"/>
<path d="M23.6082 3.25256C23.6037 3.3011 23.6015 3.33386 23.6016 3.35084C23.6023 3.49638 23.6462 3.60894 23.7333 3.68852C23.8227 3.76809 23.9276 3.80755 24.0479 3.8069C24.1682 3.80626 24.2655 3.78875 24.3399 3.75439C24.4167 3.72002 24.4718 3.68334 24.5053 3.64435C24.5913 3.53473 24.6704 3.47973 24.7426 3.47934C24.7691 3.4792 24.8004 3.48631 24.8365 3.50067C24.8131 3.61965 24.7223 3.7293 24.564 3.8296C24.4082 3.92746 24.2112 3.97704 23.973 3.97832C23.8046 3.97922 23.6588 3.92664 23.5355 3.82057C23.4146 3.71206 23.3537 3.56442 23.3527 3.37765C23.3517 3.19087 23.3868 3.00997 23.458 2.83493C23.5317 2.65746 23.6367 2.5065 23.7732 2.38206C23.912 2.25518 24.0524 2.19136 24.1944 2.19059C24.3387 2.18982 24.4543 2.21952 24.5413 2.2797C24.6306 2.33743 24.6756 2.4233 24.6762 2.53731C24.6773 2.74834 24.5844 2.92349 24.3975 3.06276C24.213 3.19959 24.0161 3.26856 23.8068 3.26969C23.7515 3.26999 23.6853 3.26428 23.6082 3.25256ZM23.8819 3.13102C23.9949 3.13041 24.0958 3.09349 24.1844 3.02024C24.273 2.94699 24.3351 2.87025 24.3708 2.79001C24.4089 2.70976 24.4277 2.63688 24.4274 2.57139C24.427 2.5059 24.4015 2.44903 24.3507 2.40079C24.2999 2.35012 24.2408 2.32497 24.1734 2.32533C24.0532 2.32598 23.9417 2.41026 23.8392 2.57819C23.739 2.7461 23.6678 2.91992 23.6255 3.09965C23.7314 3.12091 23.8169 3.13137 23.8819 3.13102Z" fill="white"/>
<path d="M26.475 1.06131C26.388 1.89622 26.3455 2.49196 26.3474 2.84853C26.3493 3.20267 26.3837 3.55664 26.4506 3.91043C26.4027 3.9592 26.3608 3.98369 26.3247 3.98388C26.2886 3.98407 26.2585 3.97938 26.2344 3.96981C26.1829 3.79059 26.1518 3.59548 26.141 3.3845C26.0838 3.47699 26.0408 3.54271 26.0122 3.58168C25.9859 3.62063 25.9393 3.67789 25.8723 3.75344C25.7504 3.89964 25.6053 3.97319 25.4369 3.97409C25.3094 3.97478 25.2164 3.91585 25.1581 3.7973C25.1021 3.67632 25.0736 3.52244 25.0726 3.33566C25.0716 3.14646 25.091 2.96686 25.131 2.79684C25.1734 2.62439 25.246 2.47603 25.3488 2.35177C25.4515 2.22508 25.5787 2.16133 25.7303 2.16052C25.8217 2.16002 25.906 2.17898 25.9832 2.21737C26.0604 2.25577 26.1136 2.30764 26.1428 2.37298C26.1473 2.30746 26.1515 2.20677 26.1556 2.07091C26.1597 1.93504 26.1639 1.81495 26.1681 1.71062C26.1748 1.60385 26.185 1.49586 26.1989 1.38662C26.2241 1.15362 26.2824 1.03687 26.3738 1.03638C26.4051 1.03622 26.4388 1.04452 26.475 1.06131ZM26.0605 2.50441C26.0314 2.4512 25.9915 2.4126 25.9408 2.38861C25.8901 2.3622 25.8227 2.34922 25.7385 2.34968C25.6567 2.35012 25.58 2.39783 25.5083 2.49282C25.3674 2.68035 25.2979 2.95119 25.2998 3.30534C25.3004 3.41934 25.319 3.53325 25.3557 3.64706C25.3924 3.75844 25.4456 3.81395 25.5154 3.81358C25.6164 3.81303 25.7147 3.7458 25.8102 3.61187C25.9057 3.47794 25.9795 3.32473 26.0315 3.15222C26.0835 2.97729 26.1091 2.8207 26.1084 2.68244C26.108 2.61695 26.0921 2.5576 26.0605 2.50441Z" fill="white"/>
<path d="M27.7374 2.51359C27.7154 2.45792 27.6743 2.41448 27.614 2.38327C27.5536 2.35206 27.479 2.33669 27.39 2.33717C27.301 2.33765 27.2169 2.36478 27.1378 2.41857C27.0611 2.47235 27.023 2.54411 27.0235 2.63386C27.024 2.72361 27.0604 2.79497 27.1329 2.84795C27.2077 2.89849 27.297 2.93682 27.4006 2.96295C27.5065 2.98906 27.6126 3.0176 27.7186 3.04856C27.8246 3.0771 27.9139 3.12635 27.9864 3.19631C28.0614 3.26382 28.0991 3.35337 28.0997 3.46495C28.1006 3.62747 28.0339 3.75154 27.8996 3.83716C27.7678 3.92277 27.608 3.96607 27.4204 3.96708C27.3097 3.96768 27.164 3.93814 26.9833 3.87846C26.8049 3.81878 26.7155 3.74649 26.715 3.66159C26.7147 3.59852 26.7675 3.56671 26.8733 3.56614C26.9046 3.56597 26.9456 3.58516 26.9963 3.6237C27.1509 3.73687 27.3088 3.79303 27.47 3.79216C27.5566 3.7917 27.6311 3.77674 27.6935 3.7473C27.8086 3.69089 27.8659 3.60083 27.8652 3.47713C27.8648 3.40193 27.8272 3.34149 27.7524 3.2958C27.68 3.2501 27.5908 3.2142 27.4848 3.18808C27.3812 3.16196 27.2764 3.13341 27.1703 3.10245C27.0643 3.07148 26.9738 3.01982 26.8989 2.94745C26.8263 2.87264 26.7897 2.77823 26.7891 2.66423C26.7883 2.51626 26.8538 2.39584 26.9856 2.30296C27.1174 2.21007 27.2808 2.16311 27.4756 2.16206C27.608 2.16135 27.7272 2.19588 27.8335 2.26566C27.9421 2.33299 27.9967 2.43215 27.9974 2.56314C27.9979 2.65046 27.9488 2.69439 27.8502 2.69492C27.8093 2.69514 27.7816 2.68801 27.7671 2.67353C27.755 2.65904 27.7476 2.63361 27.745 2.59724C27.7448 2.55843 27.7423 2.53055 27.7374 2.51359Z" fill="white"/>
<path d="M29.496 3.98504C29.4527 3.98528 29.429 3.61791 29.4251 2.88294C29.4234 2.57246 29.4212 2.38448 29.4184 2.319L29.3463 2.31939C29.3126 2.31957 29.2861 2.31971 29.2669 2.31981C29.2476 2.31749 29.2224 2.31641 29.1911 2.31658C29.1622 2.31431 29.1381 2.3108 29.1189 2.30606C29.102 2.30129 29.0839 2.29533 29.0646 2.28815C29.0285 2.27379 29.0103 2.24842 29.0101 2.21204C29.0098 2.16595 29.0843 2.14251 29.2335 2.1417C29.2984 2.14136 29.3574 2.14346 29.4103 2.14803C29.4125 2.09951 29.4133 2.03765 29.4129 1.96245C29.4149 1.88482 29.417 1.82538 29.4192 1.78413C29.4214 1.74045 29.4235 1.68829 29.4256 1.62764C29.43 1.56697 29.4358 1.51964 29.4428 1.48564C29.4523 1.45163 29.4641 1.41397 29.4783 1.37265C29.4925 1.32891 29.5116 1.29607 29.5355 1.27411C29.5595 1.25215 29.587 1.23017 29.6182 1.20817C29.6733 1.16663 29.7646 1.14553 29.8921 1.14484C30.022 1.14414 30.1172 1.17638 30.1777 1.24155C30.2406 1.30428 30.2965 1.41192 30.3454 1.56448C30.3096 1.60833 30.2676 1.63039 30.2195 1.63065C30.2026 1.63074 30.1858 1.62841 30.1689 1.62364C30.125 1.50745 30.0849 1.42883 30.0486 1.38778C30.0147 1.34673 29.9677 1.32636 29.9075 1.32669C29.8474 1.32701 29.8017 1.33817 29.7706 1.36017C29.7418 1.38215 29.7191 1.41017 29.7024 1.44422C29.6667 1.51718 29.6496 1.69314 29.6511 1.97209C29.6512 1.98422 29.6513 2.00605 29.6515 2.03758C29.6517 2.06911 29.6518 2.09822 29.652 2.1249L29.9585 2.09415C30.0788 2.0935 30.1391 2.12107 30.1394 2.17686C30.1396 2.21325 30.1109 2.23766 30.0532 2.2501C29.9955 2.26254 29.9222 2.27021 29.8332 2.27311C29.7466 2.276 29.6865 2.2836 29.6529 2.29591C29.6484 2.36385 29.6465 2.45362 29.6471 2.56519C29.6477 2.67435 29.6547 2.84896 29.668 3.08904C29.6813 3.32668 29.6883 3.50857 29.6889 3.63471C29.6896 3.76084 29.6769 3.85066 29.6507 3.90417C29.6269 3.95766 29.5753 3.98462 29.496 3.98504Z" fill="white"/>
<path d="M30.4181 2.44462C30.5398 2.25476 30.7161 2.15921 30.947 2.15797C31.178 2.15673 31.3625 2.25034 31.5007 2.43881C31.6412 2.62726 31.7122 2.84276 31.7135 3.08533C31.7147 3.32547 31.6401 3.52963 31.4894 3.69781C31.3387 3.86599 31.1467 3.95071 30.9134 3.95196C30.68 3.95322 30.5101 3.88863 30.4035 3.75822C30.2969 3.62538 30.243 3.43889 30.2417 3.19875C30.24 2.88584 30.2988 2.63447 30.4181 2.44462ZM30.5779 2.63661C30.5472 2.73137 30.5236 2.8261 30.5073 2.92079C30.4933 3.01547 30.4866 3.10404 30.487 3.18652C30.4875 3.26656 30.4939 3.34051 30.5063 3.40837C30.5187 3.47379 30.5395 3.53918 30.5687 3.60451C30.5979 3.66742 30.6415 3.71813 30.6994 3.75663C30.7573 3.7927 30.826 3.81053 30.9054 3.8101C31.0666 3.80924 31.2009 3.74181 31.3085 3.60782C31.4184 3.47381 31.4729 3.31221 31.4719 3.12301C31.4709 2.93381 31.4194 2.75095 31.3174 2.57442C31.2178 2.39545 31.0958 2.30635 30.9515 2.30713C30.8648 2.3076 30.7892 2.33832 30.7246 2.39931C30.66 2.4603 30.6111 2.5394 30.5779 2.63661Z" fill="white"/>
<path d="M32.4243 3.58727L32.4362 3.79461C32.4365 3.84797 32.4211 3.88565 32.3899 3.90765C32.3612 3.92721 32.3312 3.93707 32.2999 3.93724C32.271 3.9374 32.2409 3.93271 32.2096 3.92317C32.1551 3.64208 32.1124 3.2918 32.0812 2.87232C32.0525 2.45282 32.0356 2.2152 32.0305 2.15943C32.0664 2.12528 32.1036 2.1081 32.1421 2.10789C32.183 2.10767 32.2191 2.11233 32.2504 2.12187C32.2604 2.19216 32.2685 2.34736 32.2746 2.58747C32.2807 2.82758 32.2875 2.97794 32.2951 3.03854C32.3276 2.83461 32.3868 2.64387 32.4724 2.46634C32.52 2.36663 32.5821 2.28746 32.6588 2.22883C32.7379 2.16776 32.8219 2.13699 32.9109 2.13651C33.0023 2.13602 33.0855 2.17681 33.1606 2.25888C33.238 2.33851 33.2769 2.41108 33.2772 2.47657C33.2773 2.50083 33.263 2.52031 33.2342 2.53502C33.2054 2.5473 33.173 2.55354 33.1369 2.55373C33.1032 2.55391 33.0767 2.54071 33.0573 2.51414C33.0379 2.48756 33.0245 2.45852 33.0171 2.42703C33.0097 2.39311 32.9939 2.36287 32.9697 2.33632C32.9455 2.30976 32.913 2.2966 32.8721 2.29682C32.7638 2.2974 32.6717 2.39613 32.5958 2.59302C32.4795 2.88716 32.4223 3.21857 32.4243 3.58727Z" fill="white"/>
<path d="M34.6022 1.23234C34.6055 1.40213 34.6074 1.52947 34.6079 1.61436C34.6083 1.69683 34.6076 1.77931 34.6056 1.8618C34.606 1.94427 34.6033 2.10438 34.5974 2.34213C34.5914 2.57746 34.5876 2.76426 34.5859 2.90253C34.677 2.83897 34.7859 2.74136 34.9127 2.60969C35.0395 2.4756 35.1544 2.36097 35.2573 2.26582C35.4201 2.11697 35.5366 2.07147 35.6066 2.12931C35.6332 2.151 35.6418 2.17157 35.6322 2.19103C35.6085 2.2421 35.5535 2.30425 35.4672 2.37748C35.3834 2.45071 35.284 2.53371 35.1691 2.62651C35.0541 2.7193 34.9631 2.80469 34.8962 2.88267C35.0719 2.90599 35.2132 3.00468 35.32 3.17876C35.3661 3.25856 35.411 3.33837 35.4548 3.41818C35.5666 3.62862 35.6876 3.77108 35.8179 3.84558C35.7701 3.89435 35.7149 3.9189 35.6523 3.91924C35.5898 3.91958 35.5271 3.88959 35.4642 3.82929C35.4037 3.76897 35.3504 3.69527 35.3042 3.60819C35.2605 3.5211 35.2155 3.43402 35.1693 3.34694C35.0647 3.13647 34.9439 3.0316 34.8068 3.03233C34.7418 3.03268 34.6866 3.05481 34.6411 3.09872C34.5956 3.1402 34.573 3.18398 34.5732 3.23007C34.5748 3.52115 34.5712 3.73705 34.5623 3.87779C34.5289 3.92406 34.4929 3.9473 34.4544 3.9475C34.4424 3.94757 34.4291 3.94521 34.4147 3.94044C34.3616 3.91889 34.3349 3.87416 34.3346 3.80624C34.3366 3.73831 34.3427 3.53209 34.3529 3.18759C34.3746 2.30694 34.3848 1.74412 34.3835 1.49913C34.3829 1.38513 34.3933 1.30866 34.4148 1.26974C34.4386 1.2308 34.4662 1.21124 34.4975 1.21108C34.5311 1.21089 34.5661 1.21798 34.6022 1.23234Z" fill="white"/>
<path d="M36.2683 1.24523C36.2662 1.30103 36.2654 1.36289 36.2657 1.43081C36.2661 1.49873 36.2701 1.56905 36.2777 1.64178C36.2442 1.68077 36.1986 1.70042 36.1409 1.70073C36.0687 1.70112 36.0323 1.6431 36.0317 1.52667C36.0317 1.52182 36.0316 1.50363 36.0314 1.47209C36.0312 1.44056 36.0311 1.41266 36.0309 1.38841C36.0332 1.36171 36.0379 1.33137 36.0449 1.29737C36.0614 1.23906 36.0985 1.20976 36.1563 1.20945C36.214 1.20914 36.2514 1.22106 36.2683 1.24523ZM36.047 3.02931C36.0444 2.55389 36.067 2.27966 36.1147 2.20663C36.1314 2.17986 36.1518 2.16641 36.1759 2.16628C36.1999 2.16615 36.2397 2.17928 36.2952 2.20566C36.2842 2.41191 36.2794 2.63631 36.2807 2.87888C36.2807 2.87888 36.2846 3.1469 36.2923 3.68294C36.2927 3.75813 36.2761 3.81158 36.2426 3.8433C36.2115 3.87257 36.1815 3.88729 36.1526 3.88744C36.1262 3.88759 36.0985 3.88046 36.0695 3.86606C36.0558 3.55079 36.0483 3.27188 36.047 3.02931Z" fill="white"/>
<path d="M38.0901 0.99894C38.0032 1.83385 37.9607 2.42959 37.9626 2.78616C37.9645 3.1403 37.9989 3.49427 38.0657 3.84806C38.0179 3.89683 37.9759 3.92132 37.9398 3.92151C37.9037 3.9217 37.8736 3.91701 37.8495 3.90744C37.798 3.72822 37.7669 3.53311 37.7562 3.32213C37.6989 3.41462 37.656 3.48034 37.6273 3.51931C37.6011 3.55826 37.5544 3.61552 37.4875 3.69107C37.3656 3.83727 37.2204 3.91082 37.052 3.91172C36.9245 3.91241 36.8316 3.85348 36.7732 3.73493C36.7172 3.61395 36.6887 3.46007 36.6877 3.27329C36.6867 3.08409 36.7062 2.90449 36.7462 2.73447C36.7886 2.56202 36.8611 2.41366 36.9639 2.2894C37.0667 2.16271 37.1939 2.09896 37.3454 2.09815C37.4368 2.09765 37.5211 2.11661 37.5983 2.155C37.6755 2.1934 37.7287 2.24527 37.7579 2.31061C37.7624 2.24509 37.7667 2.1444 37.7708 2.00854C37.7748 1.87267 37.779 1.75258 37.7833 1.64825C37.7899 1.54148 37.8001 1.43349 37.814 1.32425C37.8392 1.09125 37.8975 0.974505 37.9889 0.974014C38.0202 0.973846 38.0539 0.982154 38.0901 0.99894ZM37.6757 2.44204C37.6465 2.38883 37.6066 2.35023 37.5559 2.32624C37.5053 2.29983 37.4378 2.28685 37.3536 2.28731C37.2719 2.28775 37.1951 2.33546 37.1235 2.43045C36.9825 2.61798 36.913 2.88882 36.9149 3.24296C36.9155 3.35697 36.9342 3.47088 36.9709 3.58469C37.0076 3.69607 37.0608 3.75158 37.1305 3.75121C37.2316 3.75066 37.3299 3.68343 37.4254 3.5495C37.5209 3.41557 37.5946 3.26236 37.6467 3.08985C37.6986 2.91492 37.7243 2.75833 37.7235 2.62007C37.7232 2.55458 37.7072 2.49523 37.6757 2.44204Z" fill="white"/>
<path d="M39.3525 2.45122C39.3305 2.39555 39.2894 2.35211 39.2291 2.3209C39.1688 2.28969 39.0941 2.27432 39.0051 2.2748C38.9161 2.27528 38.832 2.30241 38.7529 2.3562C38.6762 2.40998 38.6381 2.48174 38.6386 2.57149C38.6391 2.66124 38.6756 2.7326 38.748 2.78558C38.8229 2.83612 38.9121 2.87445 39.0157 2.90058C39.1217 2.92669 39.2277 2.95523 39.3337 2.98619C39.4397 3.01473 39.529 3.06398 39.6016 3.13394C39.6765 3.20145 39.7143 3.291 39.7149 3.40258C39.7157 3.5651 39.649 3.68917 39.5148 3.77479C39.3829 3.8604 39.2232 3.9037 39.0355 3.90471C38.9249 3.90531 38.7792 3.87577 38.5984 3.81609C38.42 3.75641 38.3306 3.68412 38.3302 3.59922C38.3298 3.53615 38.3826 3.50434 38.4885 3.50377C38.5197 3.5036 38.5607 3.52279 38.6115 3.56133C38.766 3.6745 38.9239 3.73066 39.0851 3.72979C39.1717 3.72933 39.2462 3.71437 39.3086 3.68493C39.4238 3.62852 39.481 3.53846 39.4804 3.41476C39.48 3.33956 39.4424 3.27912 39.3675 3.23343C39.2951 3.18773 39.2059 3.15183 39.0999 3.12571C38.9963 3.09959 38.8915 3.07104 38.7855 3.04008C38.6795 3.00911 38.589 2.95745 38.514 2.88508C38.4414 2.81027 38.4048 2.71586 38.4042 2.60186C38.4034 2.45389 38.4689 2.33347 38.6008 2.24059C38.7326 2.1477 38.8959 2.10074 39.0908 2.09969C39.2231 2.09898 39.3424 2.13351 39.4486 2.20329C39.5572 2.27062 39.6119 2.36978 39.6126 2.50077C39.6131 2.58809 39.564 2.63202 39.4653 2.63255C39.4244 2.63277 39.3967 2.62564 39.3822 2.61116C39.3701 2.59667 39.3628 2.57124 39.3602 2.53487C39.36 2.49606 39.3574 2.46818 39.3525 2.45122Z" fill="white"/>
</svg>
