<svg width="50" height="6" viewBox="0 0 50 6" fill="none" xmlns="http://www.w3.org/2000/svg">
<path d="M0.976546 3.43365C0.97403 2.96505 0.952447 2.55212 0.911798 2.19487C0.911298 2.10175 0.949592 2.02043 1.02668 1.95093C1.10377 1.88142 1.20627 1.8283 1.33418 1.79157C1.59004 1.72411 1.8714 1.68955 2.17826 1.68791C2.57449 1.68578 2.88629 1.77272 3.11367 1.94873C3.344 2.12173 3.46014 2.38996 3.4621 2.75342C3.46405 3.11689 3.31963 3.40905 3.02885 3.6299C2.73806 3.85075 2.38263 3.96231 1.96257 3.96456C1.74806 3.96571 1.52289 3.92186 1.28705 3.83301C1.27293 3.97728 1.26653 4.17257 1.26785 4.41889L1.2735 4.63965C1.27389 4.71174 1.2728 4.78684 1.27024 4.86496C1.25546 4.88607 1.23916 4.90117 1.22133 4.91028C1.2035 4.91939 1.19013 4.92547 1.18121 4.92852C1.17528 4.93456 1.16488 4.93912 1.15 4.94221C1.13512 4.94529 1.1247 4.94685 1.11874 4.94688C1.1009 4.95298 1.08006 4.9561 1.05622 4.95623L0.980255 4.95664C0.973087 4.73138 0.969019 4.52863 0.968051 4.3484L0.976546 3.43365ZM1.27637 3.50864C1.49464 3.65466 1.75572 3.72686 2.0596 3.72523C2.36346 3.72059 2.61916 3.62459 2.82671 3.43723C3.03424 3.24687 3.13727 3.01501 3.1358 2.74166C3.13433 2.46831 3.02598 2.26462 2.81076 2.1306C2.59553 1.99657 2.33746 1.93037 2.03656 1.93199C1.73864 1.93359 1.47535 2.00409 1.24669 2.1435C1.26264 2.33867 1.27253 2.79372 1.27637 3.50864Z" fill="white"/>
<path d="M4.28844 4.4252L4.30322 4.68195C4.30358 4.74804 4.28446 4.7947 4.24588 4.82195C4.21026 4.84617 4.17308 4.85838 4.13435 4.85859C4.0986 4.85878 4.06133 4.85298 4.02253 4.84117C3.95512 4.49307 3.90214 4.05928 3.8636 3.53981C3.82804 3.02031 3.80709 2.72604 3.80076 2.65698C3.84523 2.61469 3.89129 2.59341 3.93896 2.59316C3.98961 2.59288 4.03433 2.59865 4.07312 2.61046C4.08551 2.69751 4.09548 2.88971 4.10303 3.18706C4.11059 3.48441 4.11903 3.67061 4.12837 3.74566C4.16873 3.49311 4.24194 3.25691 4.34802 3.03705C4.40694 2.91357 4.48388 2.81553 4.57882 2.74292C4.67673 2.6673 4.7808 2.62919 4.89104 2.6286C5.00425 2.62799 5.1073 2.6785 5.20021 2.78014C5.29607 2.87875 5.34423 2.96861 5.34466 3.04972C5.34482 3.07976 5.32708 3.10389 5.29142 3.1221C5.25575 3.13731 5.21557 3.14504 5.17088 3.14528C5.12918 3.1455 5.09632 3.12916 5.07231 3.09624C5.04829 3.06333 5.03171 3.02737 5.02257 2.98837C5.0134 2.94636 4.99384 2.90892 4.96387 2.87603C4.9339 2.84315 4.89359 2.82684 4.84294 2.82712C4.70888 2.82784 4.59483 2.95011 4.5008 3.19393C4.35677 3.55819 4.28599 3.96861 4.28844 4.4252Z" fill="white"/>
<path d="M5.75785 2.98892C5.90853 2.75381 6.12688 2.63548 6.41288 2.63394C6.69889 2.63241 6.92742 2.74833 7.0985 2.98172C7.27255 3.2151 7.36038 3.48198 7.36199 3.78237C7.36359 4.07975 7.2711 4.33258 7.08452 4.54085C6.89795 4.74913 6.66017 4.85404 6.37118 4.85559C6.0822 4.85714 5.87173 4.77717 5.73977 4.61566C5.6078 4.45115 5.54102 4.22021 5.53942 3.92282C5.53734 3.53533 5.61015 3.22403 5.75785 2.98892ZM5.95576 3.22668C5.91766 3.34403 5.8885 3.46135 5.86827 3.57861C5.85103 3.69585 5.84268 3.80554 5.84323 3.90768C5.84376 4.0068 5.8517 4.09838 5.86705 4.18241C5.88238 4.26343 5.90814 4.3444 5.94432 4.42532C5.98049 4.50322 6.03446 4.56602 6.10622 4.6137C6.17796 4.65837 6.26299 4.68044 6.3613 4.67991C6.56091 4.67884 6.7273 4.59534 6.86048 4.42941C6.99663 4.26346 7.06408 4.06333 7.06283 3.82903C7.06157 3.59473 6.99779 3.36827 6.87148 3.14966C6.74814 2.92803 6.59709 2.8177 6.41834 2.81866C6.31109 2.81923 6.21745 2.85729 6.13741 2.93281C6.05738 3.00834 5.99683 3.1063 5.95576 3.22668Z" fill="white"/>
<path d="M7.56759 2.68181C7.5941 2.6246 7.65204 2.59575 7.74142 2.59527C7.78015 2.59506 7.81297 2.6039 7.83988 2.62177C7.92454 2.85262 8.00771 3.08498 8.08941 3.31885C8.24366 3.74759 8.38699 4.08627 8.51942 4.33489C8.58001 3.96808 8.69869 3.59795 8.87544 3.22452C9.05517 2.85106 9.21952 2.66393 9.36848 2.66313C9.41317 2.66289 9.45791 2.67317 9.50271 2.69395C9.16254 3.14938 8.91998 3.75147 8.77503 4.50023C8.74618 4.67462 8.71394 4.77392 8.67832 4.79815C8.63973 4.82539 8.59959 4.83912 8.55788 4.83935C8.51617 4.83957 8.48335 4.83073 8.45942 4.81284C8.43847 4.79493 8.42198 4.77699 8.40997 4.75903C8.40094 4.74106 8.38737 4.71109 8.36927 4.66913C8.35415 4.62716 8.34207 4.59869 8.33306 4.58371C8.0261 4.01161 7.77094 3.37764 7.56759 2.68181Z" fill="white"/>
<path d="M10.0962 1.51922C10.0936 1.58833 10.0925 1.66493 10.093 1.74904C10.0934 1.83315 10.0984 1.92024 10.1078 2.01031C10.0663 2.05859 10.0099 2.08293 9.93837 2.08331C9.84899 2.08379 9.80392 2.01194 9.80314 1.86775C9.80311 1.86175 9.80299 1.83922 9.80278 1.80017C9.80257 1.76112 9.80238 1.72657 9.80222 1.69653C9.80502 1.66347 9.81078 1.62589 9.81949 1.58379C9.83996 1.51159 9.88594 1.47529 9.95744 1.47491C10.0289 1.47452 10.0752 1.4893 10.0962 1.51922ZM9.82207 3.7286C9.81891 3.13984 9.84688 2.80025 9.90598 2.70981C9.92666 2.67666 9.95189 2.66 9.98168 2.65984C10.0115 2.65968 10.0607 2.67594 10.1294 2.70861C10.1159 2.96402 10.1099 3.24192 10.1116 3.54231C10.1116 3.54231 10.1163 3.87422 10.1258 4.53804C10.1263 4.63116 10.1058 4.69736 10.0643 4.73663C10.0258 4.77289 9.98866 4.79111 9.95291 4.7913C9.92014 4.79148 9.88583 4.78265 9.84998 4.76482C9.83299 4.37439 9.82368 4.02899 9.82207 3.7286Z" fill="white"/>
<path d="M12.3523 1.21422C12.2446 2.24816 12.192 2.98592 12.1943 3.42748C12.1967 3.86605 12.2393 4.3044 12.3221 4.74253C12.2628 4.80293 12.2108 4.83325 12.1661 4.83349C12.1214 4.83373 12.0842 4.82792 12.0543 4.81606C11.9906 4.59411 11.952 4.3525 11.9387 4.09123C11.8678 4.20576 11.8146 4.28715 11.7791 4.33541C11.7466 4.38364 11.6889 4.45455 11.606 4.54812C11.455 4.72916 11.2753 4.82025 11.0667 4.82137C10.9088 4.82222 10.7937 4.74924 10.7214 4.60243C10.6521 4.45261 10.6168 4.26204 10.6156 4.03075C10.6143 3.79644 10.6384 3.57402 10.688 3.36348C10.7404 3.14992 10.8303 2.96619 10.9576 2.81231C11.0849 2.65542 11.2424 2.57647 11.43 2.57546C11.5433 2.57485 11.6477 2.59832 11.7432 2.64587C11.8388 2.69342 11.9047 2.75766 11.9409 2.83857C11.9464 2.75743 11.9517 2.63274 11.9568 2.46449C11.9618 2.29624 11.967 2.14752 11.9723 2.01832C11.9805 1.8861 11.9932 1.75236 12.0103 1.61709C12.0416 1.32854 12.1138 1.18396 12.227 1.18335C12.2657 1.18315 12.3075 1.19344 12.3523 1.21422ZM11.839 3.00133C11.8029 2.93544 11.7535 2.88764 11.6908 2.85793C11.628 2.82523 11.5445 2.80915 11.4402 2.80971C11.3389 2.81026 11.2439 2.86935 11.1552 2.98698C10.9806 3.21922 10.8946 3.55462 10.8969 3.99319C10.8977 4.13437 10.9208 4.27543 10.9662 4.41637C11.0116 4.55431 11.0776 4.62305 11.164 4.62258C11.2891 4.62191 11.4108 4.53865 11.5291 4.3728C11.6474 4.20694 11.7387 4.0172 11.8031 3.80358C11.8675 3.58695 11.8992 3.39302 11.8983 3.2218C11.8978 3.1407 11.8781 3.06721 11.839 3.00133Z" fill="white"/>
<path d="M13.1031 1.50308C13.1005 1.57218 13.0994 1.64879 13.0998 1.7329C13.1003 1.81701 13.1052 1.90409 13.1146 1.99416C13.0732 2.04245 13.0167 2.06678 12.9452 2.06717C12.8558 2.06765 12.8108 1.99579 12.81 1.85161C12.81 1.8456 12.8098 1.82307 12.8096 1.78402C12.8094 1.74497 12.8092 1.71043 12.8091 1.68039C12.8119 1.64733 12.8176 1.60975 12.8263 1.56765C12.8468 1.49544 12.8928 1.45915 12.9643 1.45876C13.0358 1.45838 13.0821 1.47315 13.1031 1.50308ZM12.8289 3.71246C12.8258 3.1237 12.8537 2.7841 12.9128 2.69367C12.9335 2.66051 12.9587 2.64385 12.9885 2.64369C13.0183 2.64353 13.0676 2.65979 13.1363 2.69247C13.1227 2.94787 13.1168 3.22577 13.1184 3.52616C13.1184 3.52616 13.1232 3.85807 13.1327 4.52189C13.1332 4.61501 13.1127 4.68121 13.0712 4.72049C13.0327 4.75674 12.9955 4.77496 12.9598 4.77516C12.927 4.77533 12.8927 4.7665 12.8568 4.74867C12.8398 4.35825 12.8305 4.01284 12.8289 3.71246Z" fill="white"/>
<path d="M15.5342 4.68022C15.4809 4.73759 15.42 4.76645 15.3515 4.76682C15.2234 4.76751 15.1277 4.69893 15.0644 4.56109C15.0011 4.42324 14.9629 4.25523 14.9499 4.05704C14.9399 3.85883 14.9329 3.66061 14.9289 3.46237C14.9248 3.26413 14.9075 3.096 14.877 2.95798C14.8494 2.81995 14.7969 2.75114 14.7195 2.75155C14.6152 2.75211 14.5263 2.84721 14.4529 3.03686C14.3824 3.22649 14.3329 3.43703 14.3043 3.66849C14.2244 4.31477 14.1459 4.67717 14.0688 4.75568C14.0153 4.783 13.9692 4.79677 13.9305 4.79698C13.8918 4.79719 13.859 4.79286 13.8321 4.78399C13.7681 4.50797 13.7253 4.03207 13.7038 3.3563C13.696 3.01989 13.6889 2.80215 13.6824 2.70305C13.7448 2.66066 13.7983 2.63935 13.843 2.63911C13.8876 2.63887 13.9234 2.64318 13.9503 2.65205C13.9659 2.78113 13.9747 3.04543 13.9769 3.44495C13.982 3.84445 13.9862 4.07423 13.9895 4.13429C14.0041 4.07113 14.0214 3.9689 14.0415 3.82761C14.0646 3.6863 14.0848 3.57053 14.1022 3.48032C14.1196 3.38711 14.1473 3.27882 14.1854 3.15545C14.2234 3.03208 14.2661 2.93422 14.3134 2.86188C14.3607 2.78652 14.4259 2.72309 14.509 2.67158C14.5921 2.61706 14.6858 2.58952 14.7901 2.58896C14.9301 2.58821 15.0318 2.65225 15.095 2.78108C15.1612 2.90689 15.1978 3.0644 15.2048 3.25361C15.2118 3.44282 15.2158 3.63505 15.2168 3.83031C15.2209 4.02554 15.2457 4.20414 15.2912 4.36611C15.3398 4.52807 15.4208 4.63277 15.5342 4.68022Z" fill="white"/>
<path d="M16.5935 2.54773C16.8646 2.54628 17.0529 2.65641 17.1583 2.87814C17.2156 2.99499 17.2624 3.10588 17.2987 3.21083C17.335 3.31577 17.3596 3.45983 17.3725 3.643C17.3919 3.92226 17.4025 4.24063 17.4044 4.59809C17.4063 4.95254 17.3229 5.23536 17.1543 5.44655C16.9886 5.66072 16.7434 5.76867 16.4186 5.77042C16.0969 5.77214 15.8282 5.66845 15.6125 5.45933C15.6718 5.39893 15.7357 5.36855 15.8042 5.36818C15.8757 5.3678 15.9727 5.39732 16.0952 5.45674C16.2206 5.51915 16.3534 5.54998 16.4934 5.54922C16.6334 5.54847 16.7494 5.51481 16.8414 5.44823C16.9335 5.38465 17.0015 5.29416 17.0456 5.17677C17.1189 4.96911 17.1548 4.71358 17.1532 4.41019C17.1529 4.36513 17.1476 4.19844 17.1371 3.91011C17.058 4.15686 16.9444 4.36174 16.7963 4.52475C16.6482 4.68476 16.4803 4.76526 16.2926 4.76627C16.1049 4.76728 15.9659 4.68391 15.8756 4.51618C15.7883 4.34542 15.7441 4.1519 15.7429 3.93562C15.7417 3.71935 15.7704 3.50891 15.8289 3.30433C15.8874 3.09674 15.9832 2.919 16.1165 2.77109C16.2498 2.62318 16.4088 2.54873 16.5935 2.54773ZM16.1235 3.23516C16.0854 3.36754 16.0578 3.49235 16.0406 3.6096C16.0233 3.72685 16.015 3.84555 16.0157 3.9657C16.0163 4.08285 16.0408 4.21339 16.0893 4.35732C16.1407 4.50124 16.2141 4.57294 16.3094 4.57242C16.4971 4.57142 16.6632 4.42934 16.8076 4.14619C16.9521 3.86004 17.0235 3.57278 17.022 3.28441C17.0215 3.18528 16.9747 3.07438 16.8817 2.95172C16.7916 2.82604 16.6781 2.76357 16.541 2.7643C16.4457 2.76481 16.361 2.81033 16.287 2.90084C16.216 2.99134 16.1615 3.10278 16.1235 3.23516Z" fill="white"/>
<path d="M20.7493 4.65222C20.696 4.70958 20.6351 4.73845 20.5665 4.73881C20.4384 4.7395 20.3427 4.67093 20.2794 4.53308C20.2161 4.39524 20.178 4.22722 20.165 4.02903C20.155 3.83083 20.148 3.6326 20.1439 3.43436C20.1399 3.23612 20.1226 3.06799 20.0921 2.92998C20.0645 2.79194 20.012 2.72313 19.9345 2.72355C19.8303 2.72411 19.7414 2.81921 19.6679 3.00885C19.5975 3.19848 19.5479 3.40903 19.5194 3.64048C19.4394 4.28676 19.3609 4.64916 19.2839 4.72768C19.2304 4.755 19.1843 4.76877 19.1456 4.76897C19.1069 4.76918 19.0741 4.76485 19.0472 4.75598C18.9832 4.47996 18.9404 4.00407 18.9189 3.32829C18.9111 2.99189 18.904 2.77414 18.8975 2.67505C18.9598 2.63266 19.0133 2.61134 19.058 2.6111C19.1027 2.61086 19.1385 2.61518 19.1654 2.62404C19.1809 2.75313 19.1898 3.01743 19.192 3.41694C19.1971 3.81644 19.2013 4.04622 19.2046 4.10628C19.2192 4.04312 19.2365 3.9409 19.2566 3.7996C19.2797 3.65829 19.2999 3.54253 19.3173 3.45232C19.3347 3.3591 19.3624 3.25081 19.4004 3.12745C19.4385 3.00408 19.4812 2.90622 19.5285 2.83387C19.5757 2.75852 19.6409 2.69509 19.7241 2.64357C19.8072 2.58906 19.9009 2.56152 20.0052 2.56096C20.1452 2.5602 20.2468 2.62424 20.3101 2.75307C20.3763 2.87888 20.4129 3.0364 20.4199 3.22561C20.4269 3.41482 20.4309 3.60705 20.4319 3.8023C20.436 3.99754 20.4607 4.17614 20.5063 4.33811C20.5548 4.50006 20.6358 4.60477 20.7493 4.65222Z" fill="white"/>
<path d="M21.2616 3.86093C21.256 3.92104 21.2532 3.96161 21.2533 3.98264C21.2543 4.16287 21.3087 4.30226 21.4165 4.40081C21.5272 4.49935 21.6571 4.54822 21.806 4.54742C21.955 4.54662 22.0755 4.52494 22.1677 4.48239C22.2628 4.43982 22.3311 4.3944 22.3725 4.34611C22.479 4.21036 22.577 4.14225 22.6664 4.14177C22.6991 4.14159 22.7379 4.1504 22.7827 4.16818C22.7537 4.31553 22.6412 4.45131 22.4453 4.57552C22.2522 4.69672 22.0083 4.75811 21.7133 4.75969C21.5048 4.76081 21.3242 4.69569 21.1715 4.56434C21.0219 4.42997 20.9464 4.24713 20.9451 4.01583C20.9439 3.78453 20.9874 3.56051 21.0756 3.34375C21.1668 3.12397 21.2969 2.93702 21.4659 2.78292C21.6378 2.62579 21.8117 2.54675 21.9875 2.54581C22.1662 2.54485 22.3094 2.58163 22.4171 2.65615C22.5277 2.72765 22.5834 2.83399 22.5841 2.97517C22.5855 3.23651 22.4705 3.45341 22.239 3.62588C22.0106 3.79533 21.7667 3.88075 21.5075 3.88214C21.439 3.88251 21.357 3.87544 21.2616 3.86093ZM21.6004 3.71042C21.7405 3.70966 21.8653 3.66393 21.9751 3.57323C22.0848 3.48252 22.1618 3.38748 22.206 3.28811C22.2531 3.18873 22.2764 3.09848 22.276 3.01738C22.2756 2.93628 22.2439 2.86585 22.181 2.80611C22.1181 2.74337 22.045 2.71222 21.9615 2.71266C21.8126 2.71346 21.6746 2.81784 21.5476 3.0258C21.4236 3.23374 21.3354 3.44899 21.2829 3.67157C21.4142 3.6979 21.52 3.71085 21.6004 3.71042Z" fill="white"/>
<path d="M24.3501 4.23636C24.3032 4.3748 24.2115 4.49244 24.075 4.5893C23.9414 4.68615 23.7942 4.735 23.6333 4.73586C23.4754 4.73671 23.3514 4.65777 23.2611 4.49905C23.1739 4.3373 23.1295 4.11375 23.1279 3.82838C23.1236 3.02334 23.2391 2.62019 23.4745 2.61893C23.5043 2.61877 23.5415 2.62307 23.5863 2.63185C23.5776 2.67996 23.5572 2.77169 23.5252 2.90704C23.4611 3.17173 23.4295 3.4047 23.4306 3.60596C23.4317 3.80722 23.4611 4.02035 23.519 4.24533C23.5768 4.46731 23.6578 4.57803 23.7621 4.57747C23.8157 4.57718 23.8676 4.54235 23.9179 4.47299C23.9682 4.40363 24.008 4.33132 24.0374 4.25607C24.0668 4.1778 24.0976 4.08902 24.1298 3.98972C24.1621 3.89042 24.1826 3.83023 24.1914 3.80915C24.1458 3.63517 24.1225 3.45806 24.1215 3.27783C24.1215 3.26881 24.1213 3.24178 24.1211 3.19672C24.1208 3.14866 24.1221 3.10209 24.1248 3.05702C24.1276 3.01194 24.1362 2.95783 24.1508 2.89466C24.1799 2.76834 24.26 2.70483 24.3911 2.70412C24.5013 2.70353 24.5573 2.87145 24.5591 3.20789C24.5594 3.26796 24.551 3.35512 24.5337 3.46937C24.5194 3.5836 24.5124 3.66324 24.5126 3.7083C24.5134 3.84647 24.5799 4.02485 24.7122 4.24343C24.8444 4.46201 24.9672 4.57099 25.0804 4.57039C25.1966 4.56976 25.2811 4.50322 25.334 4.37076C25.3869 4.2383 25.413 4.09097 25.4121 3.92876C25.4111 3.74252 25.3939 3.60143 25.3607 3.50548C25.3303 3.40651 25.3106 3.34203 25.3015 3.31204C25.2954 3.28204 25.2758 3.23558 25.2427 3.17268C25.2125 3.10675 25.1929 3.0648 25.1839 3.04682C25.1779 3.02883 25.1553 2.9854 25.1162 2.91652C25.0771 2.84764 25.0545 2.8087 25.0485 2.79973C24.9613 2.64699 24.9102 2.56316 24.8952 2.54822C24.9694 2.48473 25.0377 2.45283 25.1003 2.45249C25.2827 2.58368 25.4284 2.79919 25.5372 3.099C25.6461 3.39581 25.7012 3.66737 25.7025 3.91369C25.7038 4.157 25.6527 4.34953 25.5492 4.49127C25.4486 4.62999 25.2896 4.69994 25.0721 4.7011C24.9202 4.70192 24.7755 4.66064 24.638 4.57727C24.5034 4.49088 24.4075 4.37724 24.3501 4.23636Z" fill="white"/>
<path d="M27.1976 1.50399C27.233 1.43772 27.2984 1.40432 27.3937 1.40381C27.4146 1.4037 27.4355 1.40659 27.4564 1.41249C27.4632 1.57166 27.4685 2.01622 27.4725 2.74616C27.4754 2.74314 27.4887 2.72955 27.5125 2.70539C27.5391 2.68121 27.5554 2.66611 27.5614 2.66007C27.5673 2.65403 27.5821 2.64043 27.6058 2.61927C27.6295 2.59511 27.6473 2.58 27.6592 2.57393C27.6741 2.56484 27.6934 2.55272 27.7171 2.53757C27.7409 2.51942 27.7617 2.50729 27.7795 2.50119C27.7973 2.49208 27.8181 2.48296 27.8419 2.47382C27.8865 2.45856 27.9386 2.45077 27.9982 2.45045C28.2187 2.44926 28.3964 2.54143 28.5315 2.72695C28.6665 2.90947 28.7347 3.11487 28.7359 3.34317C28.7371 3.57146 28.704 3.78943 28.6366 3.99706C28.5692 4.20169 28.4644 4.38099 28.3222 4.53496C28.18 4.68892 28.0136 4.76641 27.8229 4.76744C27.6353 4.76845 27.477 4.6987 27.3481 4.55821C27.2222 4.4177 27.1588 4.25733 27.1578 4.0771C27.1569 3.89386 27.1655 3.55737 27.1837 3.06763C27.2019 2.57488 27.2104 2.22187 27.2093 2.0086C27.2081 1.79232 27.2042 1.62412 27.1976 1.50399ZM27.853 4.54649C27.9692 4.54586 28.0732 4.48973 28.165 4.37809C28.3515 4.1578 28.4437 3.8464 28.4415 3.44388C28.4403 3.2276 28.3976 3.03708 28.3133 2.87231C28.229 2.70454 28.1108 2.62107 27.9589 2.62188C27.8725 2.62235 27.7968 2.66631 27.7317 2.75378C27.6666 2.83824 27.6166 2.95115 27.5816 3.09253C27.5145 3.36024 27.4818 3.65781 27.4836 3.98523C27.4851 4.26158 27.5426 4.431 27.6561 4.49347C27.7069 4.52324 27.7726 4.54091 27.853 4.54649Z" fill="white"/>
<path d="M29.405 3.8172C29.3993 3.87731 29.3966 3.91788 29.3967 3.93891C29.3977 4.11914 29.452 4.25853 29.5598 4.35708C29.6706 4.45562 29.8005 4.50449 29.9494 4.50369C30.0984 4.50289 30.2189 4.48121 30.311 4.43866C30.4062 4.3961 30.4744 4.35067 30.5159 4.30238C30.6224 4.16663 30.7204 4.09852 30.8097 4.09804C30.8425 4.09786 30.8813 4.10667 30.9261 4.12445C30.8971 4.2718 30.7846 4.40758 30.5886 4.5318C30.3956 4.65299 30.1516 4.71438 29.8567 4.71596C29.6482 4.71708 29.4676 4.65197 29.3149 4.52061C29.1652 4.38624 29.0898 4.2034 29.0885 3.9721C29.0873 3.74081 29.1308 3.51678 29.219 3.30002C29.3102 3.08024 29.4402 2.8933 29.6092 2.73919C29.7812 2.58206 29.9551 2.50302 30.1308 2.50208C30.3096 2.50112 30.4528 2.5379 30.5604 2.61242C30.6711 2.68392 30.7267 2.79026 30.7275 2.93144C30.7289 3.19278 30.6139 3.40968 30.3824 3.58215C30.1539 3.7516 29.9101 3.83702 29.6509 3.83841C29.5824 3.83878 29.5004 3.83171 29.405 3.8172ZM29.7438 3.66669C29.8838 3.66594 30.0087 3.62021 30.1185 3.5295C30.2282 3.43879 30.3052 3.34375 30.3493 3.24438C30.3965 3.145 30.4198 3.05476 30.4194 2.97365C30.4189 2.89255 30.3873 2.82212 30.3244 2.76238C30.2615 2.69964 30.1883 2.66849 30.1049 2.66894C29.956 2.66974 29.818 2.77411 29.691 2.98207C29.567 3.19001 29.4787 3.40526 29.4263 3.62784C29.5575 3.65417 29.6634 3.66712 29.7438 3.66669Z" fill="white"/>
<path d="M32.9551 1.10359C32.8474 2.13753 32.7948 2.87528 32.7972 3.31685C32.7995 3.75542 32.8421 4.19377 32.9249 4.6319C32.8656 4.6923 32.8136 4.72262 32.769 4.72286C32.7243 4.7231 32.687 4.71729 32.6571 4.70543C32.5934 4.48348 32.5548 4.24187 32.5415 3.9806C32.4706 4.09513 32.4174 4.17652 32.382 4.22478C32.3494 4.27301 32.2917 4.34392 32.2088 4.43748C32.0578 4.61853 31.8781 4.70962 31.6695 4.71074C31.5116 4.71158 31.3965 4.6386 31.3242 4.4918C31.2549 4.34197 31.2196 4.15141 31.2184 3.92011C31.2171 3.68581 31.2413 3.46339 31.2908 3.25285C31.3433 3.03928 31.4331 2.85556 31.5604 2.70167C31.6877 2.54479 31.8452 2.46584 32.0329 2.46483C32.1461 2.46422 32.2505 2.48769 32.3461 2.53524C32.4417 2.58279 32.5076 2.64702 32.5437 2.72794C32.5493 2.6468 32.5545 2.52211 32.5596 2.35386C32.5647 2.18561 32.5698 2.03689 32.5751 1.90769C32.5833 1.77547 32.596 1.64173 32.6132 1.50646C32.6444 1.21791 32.7166 1.07333 32.8298 1.07272C32.8685 1.07251 32.9103 1.0828 32.9551 1.10359ZM32.4418 2.8907C32.4057 2.8248 32.3563 2.77701 32.2936 2.7473C32.2308 2.7146 32.1473 2.69852 32.0431 2.69908C31.9418 2.69963 31.8467 2.75871 31.758 2.87635C31.5835 3.10859 31.4974 3.44399 31.4997 3.88256C31.5005 4.02374 31.5236 4.1648 31.569 4.30574C31.6145 4.44368 31.6804 4.51242 31.7668 4.51195C31.8919 4.51128 32.0136 4.42802 32.1319 4.26217C32.2502 4.09631 32.3415 3.90657 32.4059 3.69295C32.4703 3.47632 32.502 3.28239 32.5011 3.11117C32.5007 3.03007 32.4809 2.95657 32.4418 2.8907Z" fill="white"/>
<path d="M34.5184 2.90208C34.4912 2.83313 34.4403 2.77933 34.3656 2.74068C34.2909 2.70203 34.1985 2.683 34.0882 2.6836C33.978 2.68419 33.8739 2.71779 33.7759 2.7844C33.681 2.851 33.6338 2.93987 33.6344 3.05101C33.635 3.16216 33.6801 3.25053 33.7698 3.31614C33.8625 3.37872 33.973 3.42619 34.1013 3.45855C34.2326 3.49088 34.3639 3.52623 34.4952 3.56457C34.6264 3.59992 34.737 3.6609 34.8268 3.74754C34.9196 3.83115 34.9664 3.94204 34.9672 4.08022C34.9682 4.28148 34.8856 4.43513 34.7194 4.54116C34.5561 4.64717 34.3582 4.7008 34.1259 4.70205C33.9888 4.70279 33.8084 4.66621 33.5845 4.59231C33.3637 4.5184 33.253 4.42887 33.2524 4.32374C33.252 4.24564 33.3173 4.20623 33.4484 4.20553C33.4871 4.20532 33.5379 4.22908 33.6007 4.27681C33.7922 4.41697 33.9877 4.48651 34.1873 4.48544C34.2945 4.48486 34.3868 4.46634 34.464 4.42988C34.6067 4.36002 34.6776 4.2485 34.6768 4.0953C34.6763 4.00218 34.6297 3.92733 34.537 3.87075C34.4473 3.81416 34.3369 3.76969 34.2056 3.73735C34.0773 3.705 33.9475 3.66965 33.8162 3.6313C33.6849 3.59296 33.5729 3.52897 33.48 3.43935C33.3902 3.34671 33.3448 3.2298 33.3441 3.08862C33.3431 2.90538 33.4242 2.75625 33.5875 2.64123C33.7507 2.5262 33.953 2.46804 34.1943 2.46674C34.3582 2.46586 34.5059 2.50863 34.6374 2.59503C34.7719 2.67842 34.8396 2.80122 34.8405 2.96343C34.8411 3.07157 34.7803 3.12597 34.6582 3.12662C34.6075 3.12689 34.5732 3.11807 34.5552 3.10014C34.5402 3.0822 34.5311 3.0507 34.5279 3.00566C34.5276 2.9576 34.5245 2.92307 34.5184 2.90208Z" fill="white"/>
<path d="M36.6962 4.7243C36.6426 4.72459 36.6134 4.26964 36.6085 3.35947C36.6064 2.97497 36.6037 2.74218 36.6002 2.66109L36.5109 2.66157C36.4692 2.6618 36.4364 2.66197 36.4126 2.6621C36.3887 2.65923 36.3574 2.65789 36.3187 2.6581C36.2829 2.65529 36.2531 2.65094 36.2292 2.64506C36.2083 2.63917 36.186 2.63178 36.1621 2.62289C36.1173 2.60511 36.0948 2.57369 36.0945 2.52863C36.0942 2.47156 36.1864 2.44253 36.3711 2.44153C36.4516 2.4411 36.5246 2.44371 36.5902 2.44937C36.5928 2.38928 36.5939 2.31267 36.5934 2.21955C36.5959 2.12341 36.5985 2.0498 36.6012 1.99872C36.6038 1.94463 36.6065 1.88003 36.6091 1.80492C36.6146 1.72979 36.6217 1.67118 36.6305 1.62907C36.6421 1.58696 36.6568 1.54032 36.6744 1.48915C36.692 1.43499 36.7156 1.39431 36.7452 1.36711C36.7749 1.33992 36.809 1.3127 36.8476 1.28546C36.9158 1.23402 37.0289 1.20788 37.1868 1.20703C37.3477 1.20617 37.4656 1.24609 37.5405 1.3268C37.6184 1.40448 37.6876 1.53778 37.7482 1.72671C37.7038 1.78102 37.6518 1.80833 37.5922 1.80865C37.5714 1.80876 37.5505 1.80587 37.5296 1.79998C37.4752 1.65608 37.4255 1.55872 37.3806 1.50789C37.3386 1.45705 37.2804 1.43183 37.2059 1.43223C37.1314 1.43263 37.0749 1.44645 37.0363 1.47369C37.0007 1.50092 36.9726 1.53562 36.9519 1.57778C36.9077 1.66814 36.8866 1.88604 36.8884 2.23148C36.8885 2.2465 36.8886 2.27354 36.8889 2.31259C36.8891 2.35164 36.8893 2.38768 36.8894 2.42073L37.2691 2.38264C37.4181 2.38184 37.4927 2.41599 37.4931 2.48507C37.4933 2.53013 37.4577 2.56036 37.3863 2.57577C37.3149 2.59117 37.2241 2.60067 37.1139 2.60427C37.0066 2.60785 36.9322 2.61726 36.8906 2.6325C36.8851 2.71664 36.8827 2.8278 36.8834 2.96598C36.8841 3.10115 36.8928 3.31739 36.9093 3.61469C36.9257 3.90899 36.9344 4.13424 36.9352 4.29044C36.9361 4.44665 36.9203 4.55788 36.8879 4.62414C36.8584 4.69038 36.7945 4.72377 36.6962 4.7243Z" fill="white"/>
<path d="M37.8382 2.81666C37.9889 2.58154 38.2072 2.46322 38.4932 2.46168C38.7792 2.46014 39.0078 2.57607 39.1789 2.80946C39.3529 3.04284 39.4407 3.30972 39.4424 3.6101C39.4439 3.90749 39.3515 4.16032 39.1649 4.36859C38.9783 4.57687 38.7405 4.68178 38.4515 4.68333C38.1626 4.68488 37.9521 4.60491 37.8201 4.4434C37.6882 4.27889 37.6214 4.04795 37.6198 3.75056C37.6177 3.36306 37.6905 3.05176 37.8382 2.81666ZM38.0361 3.05441C37.998 3.17177 37.9689 3.28908 37.9486 3.40635C37.9314 3.52359 37.923 3.63328 37.9236 3.73541C37.9241 3.83454 37.9321 3.92612 37.9474 4.01015C37.9627 4.09117 37.9885 4.17214 38.0247 4.25305C38.0609 4.33096 38.1148 4.39375 38.1866 4.44143C38.2583 4.48611 38.3433 4.50818 38.4417 4.50765C38.6413 4.50658 38.8077 4.42308 38.9408 4.25715C39.077 4.0912 39.1444 3.89107 39.1432 3.65677C39.1419 3.42247 39.0781 3.19601 38.9518 2.9774C38.8285 2.75577 38.6775 2.64543 38.4987 2.64639C38.3914 2.64697 38.2978 2.68502 38.2178 2.76055C38.1377 2.83608 38.0772 2.93403 38.0361 3.05441Z" fill="white"/>
<path d="M40.3227 4.2317L40.3374 4.48846C40.3378 4.55455 40.3187 4.60121 40.2801 4.62845C40.2445 4.65268 40.2073 4.66489 40.1686 4.6651C40.1328 4.66529 40.0955 4.65948 40.0567 4.64768C39.9893 4.29958 39.9364 3.86579 39.8978 3.34631C39.8623 2.82682 39.8413 2.53254 39.835 2.46349C39.8794 2.42119 39.9255 2.39992 39.9732 2.39966C40.0238 2.39939 40.0685 2.40516 40.1073 2.41697C40.1197 2.50401 40.1297 2.69621 40.1372 2.99356C40.1448 3.29092 40.1532 3.47712 40.1626 3.55216C40.2029 3.29962 40.2762 3.06341 40.3822 2.84355C40.4412 2.72007 40.5181 2.62203 40.613 2.54943C40.7109 2.4738 40.815 2.4357 40.9252 2.4351C41.0385 2.4345 41.1415 2.48501 41.2344 2.58665C41.3303 2.68526 41.3784 2.77512 41.3789 2.85623C41.379 2.88626 41.3613 2.91039 41.3256 2.92861C41.29 2.94382 41.2498 2.95154 41.2051 2.95178C41.1634 2.95201 41.1305 2.93566 41.1065 2.90275C41.0825 2.86983 41.0659 2.83387 41.0568 2.79487C41.0476 2.75287 41.028 2.71542 40.9981 2.68254C40.9681 2.64966 40.9278 2.63335 40.8772 2.63362C40.7431 2.63434 40.629 2.75662 40.535 3.00044C40.391 3.36469 40.3202 3.77511 40.3227 4.2317Z" fill="white"/>
<path d="M43.0198 1.3154C43.0239 1.52565 43.0262 1.68335 43.0268 1.78848C43.0273 1.89061 43.0264 1.99275 43.0239 2.0949C43.0245 2.19703 43.0211 2.39531 43.0137 2.68974C43.0063 2.98116 43.0016 3.21249 42.9996 3.38373C43.1124 3.30502 43.2473 3.18414 43.4043 3.02108C43.5613 2.85502 43.7036 2.71307 43.831 2.59523C44.0326 2.41091 44.1768 2.35456 44.2636 2.42619C44.2965 2.45305 44.3071 2.47853 44.2953 2.50262C44.2658 2.56586 44.1977 2.64283 44.091 2.73352C43.9872 2.8242 43.8641 2.92699 43.7217 3.04191C43.5793 3.15682 43.4667 3.26256 43.3838 3.35914C43.6014 3.38801 43.7764 3.51023 43.9086 3.7258C43.9657 3.82463 44.0214 3.92346 44.0755 4.0223C44.214 4.2829 44.3639 4.45933 44.5253 4.55159C44.466 4.61198 44.3977 4.64239 44.3202 4.64281C44.2427 4.64322 44.1651 4.60609 44.0872 4.53141C44.0123 4.45671 43.9463 4.36545 43.8891 4.25761C43.8349 4.14976 43.7792 4.04192 43.722 3.93408C43.5925 3.67343 43.4429 3.54356 43.273 3.54447C43.1926 3.54491 43.1242 3.57231 43.0679 3.62668C43.0116 3.67805 42.9836 3.73227 42.9839 3.78935C42.9858 4.14981 42.9813 4.41719 42.9703 4.59148C42.9289 4.64877 42.8844 4.67755 42.8367 4.67781C42.8218 4.67789 42.8054 4.67497 42.7875 4.66906C42.7218 4.64238 42.6887 4.58698 42.6883 4.50287C42.6908 4.41875 42.6984 4.16337 42.711 3.73674C42.7379 2.64616 42.7505 1.94918 42.7489 1.64578C42.7482 1.5046 42.7611 1.40991 42.7876 1.3617C42.8171 1.31348 42.8513 1.28927 42.89 1.28906C42.9317 1.28883 42.975 1.29761 43.0198 1.3154Z" fill="white"/>
<path d="M45.0831 1.33135C45.0804 1.40046 45.0794 1.47706 45.0798 1.56117C45.0803 1.64528 45.0852 1.73237 45.0946 1.82244C45.0532 1.87072 44.9967 1.89506 44.9252 1.89544C44.8358 1.89592 44.7907 1.82407 44.79 1.67988C44.7899 1.67388 44.7898 1.65135 44.7896 1.6123C44.7894 1.57325 44.7892 1.5387 44.7891 1.50866C44.7919 1.4756 44.7976 1.43802 44.8063 1.39592C44.8268 1.32372 44.8728 1.28742 44.9443 1.28704C45.0158 1.28665 45.062 1.30143 45.0831 1.33135ZM44.8089 3.54073C44.8057 2.95197 44.8337 2.61238 44.8928 2.52194C44.9135 2.48879 44.9387 2.47213 44.9685 2.47197C44.9983 2.47181 45.0476 2.48807 45.1163 2.52074C45.1027 2.77615 45.0968 3.05405 45.0984 3.35444C45.0984 3.35444 45.1031 3.68635 45.1127 4.35017C45.1132 4.44329 45.0927 4.50949 45.0512 4.54876C45.0126 4.58502 44.9755 4.60324 44.9397 4.60343C44.907 4.60361 44.8727 4.59478 44.8368 4.57695C44.8198 4.18652 44.8105 3.84112 44.8089 3.54073Z" fill="white"/>
<path d="M47.3391 1.02635C47.2314 2.06029 47.1788 2.79805 47.1812 3.23961C47.1835 3.67818 47.2261 4.11653 47.3089 4.55466C47.2496 4.61506 47.1977 4.64538 47.153 4.64562C47.1083 4.64586 47.071 4.64005 47.0412 4.62819C46.9774 4.40624 46.9389 4.16463 46.9255 3.90336C46.8546 4.01789 46.8015 4.09928 46.766 4.14754C46.7335 4.19577 46.6757 4.26668 46.5928 4.36025C46.4418 4.54129 46.2621 4.63238 46.0535 4.6335C45.8956 4.63435 45.7805 4.56137 45.7083 4.41456C45.6389 4.26474 45.6036 4.07417 45.6024 3.84288C45.6011 3.60857 45.6253 3.38615 45.6748 3.17561C45.7273 2.96205 45.8172 2.77832 45.9444 2.62444C46.0717 2.46755 46.2292 2.3886 46.4169 2.38759C46.5301 2.38698 46.6345 2.41045 46.7301 2.458C46.8257 2.50555 46.8916 2.56979 46.9277 2.6507C46.9333 2.56956 46.9386 2.44487 46.9436 2.27662C46.9487 2.10837 46.9538 1.95965 46.9591 1.83045C46.9673 1.69823 46.98 1.56449 46.9972 1.42922C47.0284 1.14067 47.1006 0.996092 47.2138 0.995484C47.2525 0.995276 47.2943 1.00557 47.3391 1.02635ZM46.8258 2.81346C46.7897 2.74757 46.7403 2.69977 46.6776 2.67007C46.6149 2.63736 46.5313 2.62129 46.4271 2.62185C46.3258 2.62239 46.2308 2.68148 46.142 2.79911C45.9675 3.03135 45.8814 3.36675 45.8837 3.80532C45.8845 3.9465 45.9076 4.08756 45.9531 4.2285C45.9985 4.36644 46.0644 4.43518 46.1508 4.43471C46.2759 4.43404 46.3976 4.35078 46.5159 4.18493C46.6342 4.01907 46.7255 3.82934 46.7899 3.61571C46.8543 3.39908 46.886 3.20515 46.8851 3.03393C46.8847 2.95283 46.8649 2.87934 46.8258 2.81346Z" fill="white"/>
<path d="M48.9024 2.82484C48.8752 2.75589 48.8243 2.7021 48.7496 2.66345C48.6749 2.62479 48.5825 2.60577 48.4722 2.60636C48.362 2.60695 48.2579 2.64055 48.1599 2.70716C48.065 2.77376 48.0178 2.86263 48.0184 2.97377C48.019 3.08492 48.0641 3.17329 48.1539 3.2389C48.2466 3.30148 48.357 3.34895 48.4853 3.38131C48.6166 3.41365 48.7479 3.44899 48.8792 3.48734C49.0104 3.52268 49.121 3.58367 49.2109 3.6703C49.3037 3.75391 49.3504 3.86481 49.3512 4.00298C49.3523 4.20424 49.2697 4.35789 49.1034 4.46392C48.9401 4.56993 48.7423 4.62357 48.5099 4.62481C48.3728 4.62555 48.1924 4.58897 47.9686 4.51507C47.7477 4.44116 47.637 4.35164 47.6364 4.2465C47.636 4.1684 47.7013 4.129 47.8324 4.12829C47.8711 4.12808 47.9219 4.15184 47.9847 4.19957C48.1762 4.33973 48.3717 4.40927 48.5713 4.4082C48.6785 4.40762 48.7708 4.3891 48.8481 4.35264C48.9907 4.28278 49.0616 4.17126 49.0608 4.01806C49.0603 3.92494 49.0137 3.85009 48.921 3.79351C48.8313 3.73692 48.7209 3.69245 48.5896 3.66012C48.4613 3.62776 48.3315 3.59241 48.2002 3.55406C48.069 3.51572 47.9569 3.45173 47.864 3.36211C47.7742 3.26947 47.7288 3.15256 47.7281 3.01138C47.7271 2.82815 47.8082 2.67901 47.9715 2.56399C48.1347 2.44896 48.337 2.3908 48.5783 2.3895C48.7422 2.38862 48.8899 2.43139 49.0214 2.5178C49.156 2.60118 49.2236 2.72398 49.2245 2.88619C49.2251 2.99433 49.1643 3.04873 49.0422 3.04938C48.9915 3.04966 48.9572 3.04083 48.9392 3.0229C48.9242 3.00496 48.9151 2.97347 48.9119 2.92842C48.9117 2.88036 48.9085 2.84583 48.9024 2.82484Z" fill="white"/>
</svg>
