<svg width="11" height="2" viewBox="0 0 11 2" fill="none" xmlns="http://www.w3.org/2000/svg">
<path d="M2.41164 1.8681H1.92034L1.54018 1.3792H1.27117V1.8681H0.826599V0.455078H1.56797C1.72626 0.455078 1.8614 0.47329 1.97339 0.509715C2.08537 0.54614 2.17083 0.598893 2.22977 0.667974C2.28955 0.737055 2.31944 0.820267 2.31944 0.917608C2.31944 1.01244 2.2904 1.09377 2.2323 1.16159C2.17504 1.22942 2.09295 1.28154 1.98602 1.31797L2.41164 1.8681ZM1.27117 1.12014H1.53387C1.64164 1.12014 1.72374 1.10413 1.78015 1.0721C1.83656 1.04007 1.86477 0.993598 1.86477 0.932681C1.86477 0.871136 1.83656 0.824349 1.78015 0.79232C1.72374 0.760292 1.64164 0.744277 1.53387 0.744277H1.27117V1.12014Z" fill="#D9D9D9"/>
<path d="M2.59225 1.8681V0.455078H3.83502V0.744277H3.03682V1.01464H3.7845V1.30384H3.03682V1.5789H3.84765V1.8681H2.59225Z" fill="#D9D9D9"/>
<path d="M5.19147 1.8681H4.72416L3.97648 0.455078H4.44252L4.95782 1.48564L5.47185 0.455078H5.93789L5.19147 1.8681Z" fill="#D9D9D9"/>
<path d="M6.55044 0.455078H6.10587V1.8681H6.55044V0.455078Z" fill="#D9D9D9"/>
<path d="M6.83082 1.8681V0.455078H8.07359V0.744277H7.27539V1.01464H8.02307V1.30384H7.27539V1.5789H8.08622V1.8681H6.83082Z" fill="#D9D9D9"/>
<path d="M10.3646 1.8681H9.95165L9.59675 0.998622L9.24185 1.8681H8.82886L8.21252 0.455078H8.67982L9.03472 1.33115L9.38962 0.455078H9.80388L10.1575 1.32833L10.5111 0.455078H10.9785L10.3646 1.8681Z" fill="#D9D9D9"/>
</svg>
