<svg width="177" height="125" viewBox="0 0 177 125" fill="none" xmlns="http://www.w3.org/2000/svg">
<path fill-rule="evenodd" clip-rule="evenodd" d="M72.7533 55.0128L72.7537 55.0121C75.186 50.3734 80.7388 39.7837 87.0101 29.3688C90.8827 22.9375 94.9593 16.6949 98.6501 12.0871C100.501 9.77681 102.189 7.9603 103.648 6.74475C104.595 5.95661 105.29 5.55284 105.755 5.35676C105.765 5.39824 105.774 5.44253 105.784 5.48977C106.021 6.62702 106.057 8.52318 105.816 11.1992C105.34 16.4727 103.877 23.8961 101.854 32.2871C97.8185 49.0246 91.6711 69.1507 87.2348 82.5826C86.7854 83.9433 87.5242 85.4106 88.8848 85.86C90.2454 86.3094 91.7128 85.5706 92.1621 84.21C96.6215 70.7081 102.817 50.4332 106.899 33.5033C108.934 25.0607 110.473 17.3337 110.984 11.6653C111.236 8.87036 111.263 6.34767 110.865 4.43381C110.667 3.48264 110.317 2.43723 109.631 1.58198C108.861 0.622461 107.733 0 106.378 0C104.162 0 102.063 1.31166 100.327 2.75751C98.4857 4.29143 96.5487 6.41018 94.6 8.84307C90.6924 13.7216 86.4757 20.197 82.5647 26.692C80.3559 30.3602 78.2222 34.0738 76.2787 37.5478L84.0077 14.1575C84.4573 12.7969 83.7188 11.3295 82.3582 10.8799C80.9976 10.4303 79.5302 11.1688 79.0806 12.5294L64.8649 55.5506V55.9682C64.8649 56.3639 64.8957 56.8712 65.0078 57.3754C65.0638 57.6277 65.1565 57.9543 65.3201 58.2919C65.4738 58.6091 65.7759 59.115 66.3422 59.5115C66.9951 59.9685 67.805 60.1401 68.6024 59.9745C69.2955 59.8305 69.798 59.4716 70.1022 59.2065C70.6957 58.6893 71.1735 57.9613 71.5808 57.2282C71.7739 56.8805 72.1748 56.116 72.7515 55.0163L72.7531 55.0131L72.7533 55.0128ZM11.5304 117.236L5.67058 111.566L0 117.425L5.8598 123.096L11.5304 117.236ZM170.983 111.566L176.843 117.236L171.172 123.096L165.312 117.425L170.983 111.566ZM96.9446 122.212H95.3315V119.057C95.3315 118.614 95.4185 118.211 95.5925 117.847C95.7822 117.468 96.0353 117.143 96.3516 116.875C96.652 116.606 96.9999 116.4 97.3953 116.258C97.8065 116.1 98.2414 116.021 98.7 116.021C99.3326 116.052 99.7991 116.242 100.1 116.59C100.416 116.922 100.59 117.325 100.621 117.8V122.212H98.7712V123.635H103.705V122.212H102.116V117.207C102.084 116.416 101.808 115.775 101.286 115.285C100.764 114.795 100.044 114.55 99.127 114.55C98.2256 114.581 97.4348 114.811 96.7548 115.238C96.0906 115.665 95.5925 116.266 95.2604 117.041L95.3315 115.973V105.844H92.0579V107.267H93.8371V122.212H92.0105V123.635H96.9446V122.212ZM45.3026 108.453H43.2626V124.394L30.6427 110.399L30.192 109.829L30.2631 110.541V122.212H32.0422V123.635H26.776V122.212H28.7687V108.453H26.776V107.03H29.4329L41.3886 120.457L41.8393 121.073L41.7681 120.314V108.453H40.0127V107.03H45.3026V108.453ZM56.3945 122.212H58.1736V123.635H55.0661V122.924V122.544V122.164C55.0029 122.323 54.8763 122.497 54.6866 122.686C54.5126 122.876 54.2833 123.05 53.9986 123.208C53.6982 123.398 53.3503 123.548 52.9549 123.659C52.5753 123.77 52.1484 123.825 51.6739 123.825C51.0097 123.825 50.385 123.706 49.7999 123.469C49.2306 123.216 48.7403 122.876 48.3292 122.449C47.9022 122.038 47.5622 121.556 47.3091 121.002C47.0719 120.433 46.9533 119.832 46.9533 119.199C46.9533 118.567 47.0719 117.966 47.3091 117.396C47.5622 116.827 47.9022 116.337 48.3292 115.926C48.7403 115.499 49.2306 115.159 49.7999 114.906C50.385 114.653 51.0097 114.526 51.6739 114.526C52.5753 114.526 53.3186 114.716 53.9038 115.095C54.4889 115.475 54.8763 115.886 55.0661 116.329C55.0661 116.076 55.074 115.815 55.0898 115.546C55.1215 115.277 55.1452 115.008 55.161 114.74H56.3945V122.212ZM52.9074 116.234C52.5279 116.076 52.1167 115.997 51.6739 115.997C51.1995 115.997 50.7567 116.084 50.3455 116.258C49.9343 116.416 49.5943 116.653 49.3255 116.969C49.0408 117.254 48.8273 117.586 48.685 117.966C48.5427 118.329 48.4715 118.733 48.4715 119.176C48.4715 119.666 48.5664 120.124 48.7562 120.551C48.9459 120.963 49.2148 121.31 49.5627 121.595C49.8315 121.832 50.1399 122.022 50.4878 122.164C50.8516 122.307 51.2469 122.378 51.6739 122.378C52.1167 122.378 52.5279 122.299 52.9074 122.141C53.3028 121.983 53.6428 121.769 53.9275 121.5C54.228 121.216 54.4652 120.876 54.6391 120.48C54.8131 120.069 54.9001 119.634 54.9001 119.176C54.9001 118.717 54.8131 118.29 54.6391 117.895C54.4652 117.483 54.228 117.143 53.9275 116.875C53.6428 116.59 53.3028 116.376 52.9074 116.234ZM64.7675 122.212H63.1544V119.057C63.1544 118.614 63.2414 118.211 63.4154 117.847C63.6052 117.468 63.8582 117.143 64.1745 116.875C64.475 116.606 64.8229 116.4 65.2182 116.258C65.6294 116.1 66.0643 116.021 66.5229 116.021C67.1555 116.052 67.622 116.242 67.9225 116.59C68.2388 116.922 68.4127 117.325 68.4444 117.8V122.212H66.6178V123.635H71.5519V122.212H69.9388V119.009C69.9388 118.583 70.0337 118.187 70.2235 117.823C70.4133 117.46 70.6663 117.143 70.9826 116.875C71.2831 116.606 71.631 116.4 72.0263 116.258C72.4375 116.1 72.8645 116.021 73.3073 116.021C73.9241 116.052 74.3827 116.242 74.6832 116.59C74.9994 116.922 75.1734 117.325 75.205 117.8V122.212H73.4022V123.635H78.3363V122.212H76.6995V117.207C76.6679 116.416 76.3911 115.775 75.8692 115.285C75.3474 114.795 74.6357 114.55 73.7343 114.55C72.8645 114.566 72.0896 114.787 71.4096 115.214C70.7454 115.625 70.2472 116.195 69.9151 116.922C69.8202 116.21 69.5118 115.641 68.99 115.214C68.4681 114.771 67.7881 114.55 66.9499 114.55C66.0485 114.566 65.2578 114.795 64.5777 115.238C63.9135 115.681 63.4154 116.282 63.0833 117.041C63.0517 116.708 63.0279 116.416 63.0121 116.163C62.9963 115.894 62.9805 115.594 62.9647 115.261L62.941 114.74H60.0232V116.163H61.66V122.212H59.8334V123.635H64.7675V122.212ZM82.7392 122.212H85.2537V123.635H79.9875V122.212H81.2448V108.453H79.9875V107.03H84.9691C85.4909 107.03 86.0603 107.117 86.677 107.291C87.3096 107.449 87.8947 107.702 88.4324 108.05C88.9859 108.414 89.4445 108.872 89.8083 109.426C90.172 109.979 90.3539 110.659 90.3539 111.466C90.3539 112.858 89.919 113.973 89.0492 114.811C88.1952 115.633 86.9538 116.044 85.3249 116.044H82.7392V122.212ZM85.0165 108.453H82.7392V114.597H84.9928C85.7361 114.597 86.3528 114.494 86.8431 114.289C87.3491 114.083 87.7524 113.83 88.0529 113.53C88.3375 113.229 88.5431 112.897 88.6696 112.533C88.7962 112.154 88.8594 111.798 88.8594 111.466C88.8594 111.055 88.7566 110.675 88.551 110.327C88.3613 109.964 88.0924 109.639 87.7445 109.355C87.3966 109.086 86.9854 108.872 86.511 108.714C86.0524 108.54 85.5542 108.453 85.0165 108.453ZM114.818 122.212H116.597V123.635H113.49V122.924V122.544V122.164C113.427 122.323 113.3 122.497 113.11 122.686C112.936 122.876 112.707 123.05 112.422 123.208C112.122 123.398 111.774 123.548 111.379 123.659C110.999 123.77 110.572 123.825 110.098 123.825C109.433 123.825 108.809 123.706 108.224 123.469C107.654 123.216 107.164 122.876 106.753 122.449C106.326 122.038 105.986 121.556 105.733 121.002C105.496 120.433 105.377 119.832 105.377 119.199C105.377 118.567 105.496 117.966 105.733 117.396C105.986 116.827 106.326 116.337 106.753 115.926C107.164 115.499 107.654 115.159 108.224 114.906C108.809 114.653 109.433 114.526 110.098 114.526C110.999 114.526 111.742 114.716 112.328 115.095C112.913 115.475 113.3 115.886 113.49 116.329C113.49 116.076 113.498 115.815 113.514 115.546C113.545 115.277 113.569 115.008 113.585 114.74H114.818V122.212ZM111.331 116.234C110.952 116.076 110.54 115.997 110.098 115.997C109.623 115.997 109.18 116.084 108.769 116.258C108.358 116.416 108.018 116.653 107.749 116.969C107.465 117.254 107.251 117.586 107.109 117.966C106.966 118.329 106.895 118.733 106.895 119.176C106.895 119.666 106.99 120.124 107.18 120.551C107.37 120.963 107.639 121.31 107.986 121.595C108.255 121.832 108.564 122.022 108.912 122.164C109.275 122.307 109.671 122.378 110.098 122.378C110.54 122.378 110.952 122.299 111.331 122.141C111.727 121.983 112.067 121.769 112.351 121.5C112.652 121.216 112.889 120.876 113.063 120.48C113.237 120.069 113.324 119.634 113.324 119.176C113.324 118.717 113.237 118.29 113.063 117.895C112.889 117.483 112.652 117.143 112.351 116.875C112.067 116.59 111.727 116.376 111.331 116.234ZM123.191 122.212H121.578V119.057C121.578 118.614 121.665 118.211 121.839 117.847C122.029 117.468 122.282 117.143 122.598 116.875C122.899 116.606 123.247 116.4 123.642 116.258C124.053 116.1 124.488 116.021 124.947 116.021C125.579 116.052 126.046 116.242 126.346 116.59C126.663 116.922 126.836 117.325 126.868 117.8V122.212H125.018V123.635H129.952V122.212H128.363V117.207C128.331 116.416 128.054 115.775 127.532 115.285C127.01 114.795 126.291 114.55 125.374 114.55C124.52 114.55 123.737 114.779 123.025 115.238C122.329 115.681 121.823 116.282 121.507 117.041C121.475 116.708 121.452 116.416 121.436 116.163C121.42 115.894 121.404 115.594 121.388 115.261L121.365 114.74H118.447V116.163H120.084V122.212H118.257V123.635H123.191V122.212ZM137.673 121.927C137.578 122.244 137.42 122.544 137.198 122.829C136.977 123.113 136.669 123.351 136.273 123.54C135.894 123.73 135.411 123.825 134.826 123.825C134.288 123.825 133.759 123.762 133.237 123.635C132.731 123.493 132.304 123.248 131.956 122.9V120.978H133.308V122.046C133.545 122.188 133.782 122.275 134.02 122.307C134.273 122.338 134.557 122.354 134.874 122.354C135.048 122.354 135.222 122.331 135.395 122.283C135.569 122.236 135.736 122.157 135.894 122.046C136.004 121.951 136.099 121.832 136.178 121.69C136.257 121.532 136.297 121.342 136.297 121.121C136.297 120.773 136.202 120.512 136.012 120.338C135.838 120.148 135.601 119.998 135.301 119.887C135 119.761 134.668 119.65 134.304 119.555C133.956 119.444 133.624 119.302 133.308 119.128C133.008 118.954 132.754 118.717 132.549 118.416C132.343 118.1 132.241 117.673 132.241 117.135C132.241 116.677 132.327 116.289 132.501 115.973C132.675 115.641 132.897 115.372 133.166 115.167C133.435 114.961 133.735 114.811 134.067 114.716C134.399 114.605 134.708 114.55 134.992 114.55C135.166 114.55 135.356 114.566 135.562 114.597C135.783 114.629 136.012 114.684 136.249 114.763C136.471 114.842 136.684 114.937 136.89 115.048C137.111 115.159 137.301 115.301 137.459 115.475V117.396H136.107V116.258C135.949 116.179 135.783 116.123 135.609 116.092C135.435 116.044 135.245 116.021 135.04 116.021C134.866 116.021 134.692 116.044 134.518 116.092C134.36 116.139 134.217 116.202 134.091 116.282C133.98 116.392 133.893 116.519 133.83 116.661C133.767 116.803 133.743 116.969 133.759 117.159C133.775 117.428 133.885 117.642 134.091 117.8C134.312 117.958 134.573 118.092 134.874 118.203C135.174 118.329 135.498 118.464 135.846 118.606C136.194 118.733 136.51 118.891 136.795 119.081C137.096 119.286 137.341 119.547 137.53 119.863C137.72 120.18 137.815 120.591 137.815 121.097C137.815 121.334 137.768 121.611 137.673 121.927ZM144.318 122.212H142.705V119.057C142.705 118.567 142.808 118.124 143.014 117.729C143.235 117.317 143.528 116.977 143.891 116.708C144.176 116.487 144.508 116.321 144.888 116.21C145.267 116.084 145.67 116.021 146.097 116.021L146.192 114.55C145.892 114.55 145.576 114.605 145.243 114.716C144.927 114.827 144.603 114.993 144.271 115.214C143.939 115.42 143.63 115.681 143.346 115.997C143.061 116.297 142.824 116.645 142.634 117.041C142.602 116.708 142.587 116.535 142.587 116.519C142.602 116.487 142.595 116.305 142.563 115.973L142.492 114.74H139.574V116.163H141.211V122.212H139.384V123.635H144.318V122.212ZM151.089 122.212H152.797V123.635H147.863V122.212H149.595V116.163H147.863V114.74H151.089V122.212ZM151.065 110.707C151.271 110.897 151.374 111.142 151.374 111.442C151.374 111.727 151.271 111.972 151.065 112.178C150.86 112.367 150.63 112.462 150.377 112.462C150.124 112.462 149.887 112.367 149.666 112.178C149.46 111.972 149.357 111.727 149.357 111.442C149.357 111.142 149.46 110.897 149.666 110.707C149.887 110.501 150.124 110.399 150.377 110.399C150.63 110.399 150.86 110.501 151.065 110.707Z" fill="white"/>
</svg>
