<svg width="33" height="30" viewBox="0 0 33 30" fill="none" xmlns="http://www.w3.org/2000/svg">
<path fill-rule="evenodd" clip-rule="evenodd" d="M30.8599 -0.000152588C30.6894 -0.000152588 30.4412 0.0399704 30.1564 0.0984273C29.8605 0.159173 29.4905 0.247366 29.0593 0.358286C28.1962 0.580275 27.0728 0.897207 25.7775 1.27829C23.1861 2.0407 19.8935 3.06379 16.592 4.1075C13.2031 5.17883 9.80892 6.27051 7.14811 7.12631L7.14804 7.12634C4.6165 7.94056 2.74879 8.54128 2.18098 8.70784C1.54624 8.89403 1.0648 9.18317 0.779359 9.57847C0.482541 9.98954 0.434593 10.4648 0.577288 10.9193C0.848247 11.7822 1.79021 12.5644 3.00827 13.0408C4.86597 13.7674 10.4915 16.3076 13.0819 17.4916L13.3358 17.6077L32.1617 -0.000152588H30.8599ZM33.0001 1.7888V0.841961L14.0848 18.1716L14.2455 18.4593C14.8185 19.4858 15.7089 21.1173 16.517 22.6737C17.332 24.2433 18.0432 25.6991 18.277 26.3941C18.5952 27.34 19.0462 28.2453 19.5779 28.909C20.0931 29.5521 20.7717 30.072 21.5463 29.9921C21.8375 29.962 22.1294 29.9126 22.4089 29.7583C22.6925 29.6018 22.9228 29.3606 23.1454 29.0187C23.5747 28.3591 24.0532 27.1949 24.8465 25.1543C25.6473 23.0943 27.6798 17.8023 29.5125 12.7667C30.4287 10.2493 31.2962 7.79264 31.9351 5.8348C32.2543 4.85631 32.518 3.99813 32.7022 3.31727C32.8811 2.65611 33.0001 2.11089 33.0001 1.7888ZM8.64713 16.5876L8.32941 16.5332L5.98093 21.7445L5.97816 21.7509C5.83749 22.0775 5.68649 22.6064 5.67953 23.1656C5.67258 23.724 5.81055 24.3747 6.3235 24.8512C6.82648 25.3184 7.48344 25.4435 8.04602 25.4371C8.61147 25.4307 9.14227 25.2921 9.46964 25.1617L15.1111 22.8462L15.0103 22.4887C13.8689 18.4404 10.3047 16.8712 8.64713 16.5876Z" fill="white"/>
</svg>
