<svg width="33" height="32" viewBox="0 0 33 32" fill="none" xmlns="http://www.w3.org/2000/svg">
<path fill-rule="evenodd" clip-rule="evenodd" d="M30.8599 0.146545C30.6894 0.146545 30.4412 0.187869 30.1564 0.248075C29.8605 0.310639 29.4905 0.401471 29.0593 0.51571C28.1962 0.744341 27.0728 1.07076 25.7775 1.46324C23.1861 2.24846 19.8935 3.30217 16.592 4.37711C13.2032 5.48047 9.8091 6.60478 7.14832 7.48618L7.14811 7.48625L7.14756 7.48643C4.61627 8.32494 2.74876 8.94357 2.18098 9.11511C1.54624 9.30687 1.0648 9.60465 0.779359 10.0118C0.482541 10.4352 0.434593 10.9246 0.577288 11.3927C0.848247 12.2815 1.79021 13.087 3.00827 13.5777C4.86597 14.326 10.4915 16.9423 13.0819 18.1617L13.3358 18.2813L32.1617 0.146545H30.8599ZM33.0001 1.98903V1.01386L14.0848 18.8621L14.2455 19.1584C14.8185 20.2156 15.7089 21.8959 16.517 23.4989C17.332 25.1154 18.0432 26.6148 18.277 27.3306C18.5952 28.3048 19.0462 29.2372 19.5779 29.9207C20.0931 30.5831 20.7717 31.1186 21.5463 31.0362C21.8375 31.0053 22.1294 30.9544 22.4089 30.7955C22.6925 30.6342 22.9228 30.3859 23.1454 30.0337C23.5747 29.3544 24.0532 28.1553 24.8465 26.0537C25.6473 23.9321 27.6798 18.4817 29.5125 13.2954C30.4287 10.7027 31.2962 8.17252 31.9351 6.15609C32.2543 5.14832 32.518 4.26447 32.7022 3.56323C32.8811 2.88229 33.0001 2.32076 33.0001 1.98903ZM8.64713 17.2307L8.32941 17.1747L5.98093 22.5418L5.97816 22.5484C5.83749 22.8849 5.68649 23.4296 5.67953 24.0054C5.67258 24.5806 5.81055 25.2507 6.3235 25.7415C6.82648 26.2227 7.48344 26.3515 8.04602 26.345C8.61147 26.3384 9.14227 26.1956 9.46964 26.0614L15.1111 23.6766L15.0103 23.3084C13.8689 19.1389 10.3047 17.5228 8.64713 17.2307Z" fill="white"/>
</svg>
