<svg width="9" height="8" viewBox="0 0 9 8" fill="none" xmlns="http://www.w3.org/2000/svg">
<path d="M6.12165 1.85992C7.16887 2.20087 6.95299 3.64756 6.36675 4.3036C5.85013 4.88172 4.80143 5.07303 4.12427 4.65478C3.27454 4.12995 4.08882 3.10958 4.69129 2.84397C5.17716 2.62977 5.97839 2.56674 5.82899 3.3671C5.81011 3.46824 5.65589 3.20588 5.66803 3.1037C5.75234 2.39407 6.23149 1.51726 6.78378 1.06243C6.83606 1.01937 6.96727 0.914289 6.97035 0.981948C6.9749 1.08208 6.86482 1.15547 6.7911 1.22339C6.5534 1.44237 6.29983 1.64419 6.04117 1.83797C5.31754 2.38006 4.08975 3.2283 3.30483 3.67438C3.00199 3.84649 2.3504 4.24602 1.88545 4.16458C1.60468 4.11541 1.30045 3.58965 1.57084 3.37075C2.04304 2.9885 3.26153 2.78068 3.77308 3.19882C4.3842 3.69834 4.30185 5.11998 4.05842 5.77419C3.80244 6.46214 2.84907 6.59469 2.41955 5.96442C1.88678 5.18264 2.2027 3.78222 2.87682 3.20248C3.48648 2.67817 4.82965 2.08778 5.66071 2.37938C6.44361 2.65408 6.44532 3.81806 6.34846 4.47187C6.20983 5.4076 5.50315 6.46189 4.41693 6.26439C3.56469 6.10944 3.54795 4.90303 3.75479 4.27067C4.10558 3.19825 5.49149 2.73455 6.52405 2.75983C8.75721 2.81452 8.43805 7.14691 6.13628 6.71069C5.05306 6.5054 4.61223 5.24952 5.21076 4.33652C5.56903 3.79 6.44449 3.41199 7.09473 3.44026C7.76935 3.46959 7.48681 4.88159 7.39104 5.21449C7.06348 6.35316 5.70336 7.136 4.53399 6.72532C3.89618 6.50133 3.61506 5.69038 3.79503 5.07548C4.05431 4.18959 5.10373 3.62973 5.93874 3.43294C6.64769 3.26586 6.73654 3.77181 6.76915 4.39139C6.82953 5.5387 6.55524 6.42538 5.32416 6.71069C4.5068 6.90012 3.22828 6.70895 3.08534 5.70834C2.92687 4.59909 4.20364 3.8935 5.06809 3.55732C5.81429 3.26713 6.36489 3.29854 6.45089 4.20482C6.57691 5.53294 5.70913 7.15331 4.1389 6.59363C3.38218 6.32391 3.50094 5.07784 3.57188 4.45358C3.6645 3.63855 4.36455 3.29734 5.1193 3.31954C5.87183 3.34167 6.0029 3.98953 5.98995 4.64015C5.9686 5.71301 5.30963 6.29447 4.25231 6.31195C3.42552 6.32561 2.61978 5.84589 2.46345 4.9767C2.39126 4.57537 2.33105 3.87754 2.45247 3.47684C2.59948 2.99173 3.43696 2.79876 3.83893 2.65009C4.17625 2.52533 4.48777 2.32267 4.83396 2.22574C5.70882 1.98078 6.25334 2.7005 6.25334 3.52074C6.25334 3.95363 5.42571 3.49088 5.26563 3.40368C4.86306 3.18439 4.5689 3.04198 4.54496 2.55132C4.5222 2.0847 4.64702 1.85992 4.10598 1.85992C3.33775 1.85992 2.79276 2.21891 2.27688 2.77447C1.70185 3.39373 1.70986 4.20766 1.70986 5.0206C1.70986 6.72615 3.60723 6.46925 4.83396 6.46925C5.88537 6.46925 6.42307 5.69739 7.04351 4.92183C7.47602 4.3812 7.807 3.81492 7.99099 3.14029C8.13178 2.62406 8.07628 1.87623 8.02757 1.34045C8.0076 1.12072 7.60559 1.02154 7.4386 0.938049" stroke="white" stroke-linecap="round"/>
</svg>
