<svg width="15" height="14" viewBox="0 0 15 14" fill="none" xmlns="http://www.w3.org/2000/svg">
<path d="M5.90637 7.94533L13.8557 0.429887L13.7454 0.430479C12.8639 0.435213 2.02851 4.07622 0.983271 4.38894C-0.0619712 4.70165 0.328398 5.56967 1.37749 5.9735C2.21676 6.29657 4.74644 7.42266 5.90637 7.94533Z" fill="#25A8E0"/>
<path d="M6.51518 8.45389L14.5201 1.04052C14.5251 1.96179 11.6458 9.60356 10.9394 11.4499C10.233 13.2963 10.1236 13.4505 9.62797 13.5043C9.13235 13.5582 8.6326 12.8443 8.35271 12.0269C8.12879 11.3729 7.03439 9.3724 6.51518 8.45389Z" fill="#25A8E0"/>
<path d="M6.52563 10.3988C6.03152 8.68169 4.51085 8.02107 3.81228 7.90539L2.83231 10.1115C2.72349 10.368 2.59443 10.9625 2.94883 11.2881C3.30323 11.6138 3.90499 11.4877 4.16157 11.384L6.52563 10.3988Z" fill="#25A8E0"/>
<path d="M5.90637 7.94533L13.8557 0.429887L13.7454 0.430479C12.8639 0.435213 2.02851 4.07622 0.983271 4.38894C-0.0619712 4.70165 0.328398 5.56967 1.37749 5.9735C2.21676 6.29657 4.74644 7.42266 5.90637 7.94533Z" stroke="#25A8E0" stroke-width="0.372975"/>
<path d="M6.51518 8.45389L14.5201 1.04052C14.5251 1.96179 11.6458 9.60356 10.9394 11.4499C10.233 13.2963 10.1236 13.4505 9.62797 13.5043C9.13235 13.5582 8.6326 12.8443 8.35271 12.0269C8.12879 11.3729 7.03439 9.3724 6.51518 8.45389Z" stroke="#25A8E0" stroke-width="0.372975"/>
<path d="M6.52563 10.3988C6.03152 8.68169 4.51085 8.02107 3.81228 7.90539L2.83231 10.1115C2.72349 10.368 2.59443 10.9625 2.94883 11.2881C3.30323 11.6138 3.90499 11.4877 4.16157 11.384L6.52563 10.3988Z" stroke="#25A8E0" stroke-width="0.372975"/>
</svg>
