<svg width="8" height="9" viewBox="0 0 8 9" fill="none" xmlns="http://www.w3.org/2000/svg">
<path d="M5.59378 1.35639C4.60891 1.35639 2.47138 0.943477 2.10692 2.28622C1.98196 2.74661 1.63717 4.33475 2.05849 4.75607C2.70917 5.40675 4.45358 5.33597 5.24509 5.09507C5.61956 4.98111 5.41944 3.60975 5.41944 3.27416C5.41944 2.303 5.10625 1.53073 4.01501 1.53073C2.48509 1.53073 2.87401 4.93902 4.41212 5.15319C5.27624 5.27351 6.75371 5.44542 6.81418 4.28147C6.85325 3.52943 7.01525 2.37202 6.36864 1.81162C5.67917 1.21408 4.05319 1.53073 3.22078 1.53073C2.39048 1.53073 2.45561 2.3167 2.45561 2.96422C2.45561 4.20874 2.56149 5.50229 4.02469 5.81182C4.47589 5.90726 5.3952 6.04347 5.78749 5.69559C6.3452 5.20102 5.97721 3.96487 5.55504 3.5163C4.88765 2.80721 2.77647 2.90424 1.94227 3.29353C0.989412 3.7382 1.13112 5.22958 1.23521 6.12176C1.32733 6.91137 3.937 6.74617 4.43149 6.39296C5.13943 5.88729 5.17701 3.38824 4.60584 2.78988C2.78387 0.881147 1.23988 5.30256 3.50167 5.36627C4.91208 5.406 5.2298 5.08408 5.24509 3.66159C5.25434 2.80198 5.28171 1.87942 4.19904 1.87942C3.00604 1.87942 3.32732 2.68039 3.32732 3.76813C3.32732 4.16539 3.17889 5.015 3.64695 5.24036C4.19653 5.50497 5.09707 5.39171 5.69064 5.36627C6.59755 5.32741 6.36839 3.94725 6.25241 3.29353C6.09905 2.42917 3.99957 2.23824 3.59852 2.94485C3.11256 3.80107 3.02205 5.25365 3.16267 6.23799C3.31908 7.33288 4.52281 5.32282 4.54772 4.84325C4.58984 4.03247 4.85573 2.92548 3.85035 2.92548C2.89907 2.92548 2.80429 3.23302 2.80429 4.20399C2.80429 5.31368 4.0718 4.71104 4.29589 3.97153C4.67489 2.72084 4.02118 2.69478 2.99801 3.20636C2.52264 3.44404 1.22786 4.72159 2.63964 4.36865C3.05676 4.26436 3.23335 4.07931 3.48229 3.76813C3.67917 3.52203 3.72435 4.36856 3.94721 4.59142C4.29045 4.93466 5.58399 5.35224 5.72938 4.64953C5.81405 4.24028 5.97747 3.23108 5.49692 3.01265C4.64624 2.62597 3.87257 1.35639 2.97864 1.35639C2.43634 1.35639 1.64335 1.15998 1.37081 1.70508C1.14169 2.16332 1.03718 2.87761 0.896209 3.37102C0.632419 4.29428 0.219751 6.69526 1.48704 6.92567C2.63657 7.13468 3.99283 6.93536 5.16761 6.93536C6.66052 6.93536 6.98852 6.18124 6.98852 4.69796C6.98852 3.8421 6.36958 2.45954 5.34195 2.40245C4.80327 2.37252 4.25439 2.40245 3.71475 2.40245C2.66379 2.40245 2.45499 3.12236 2.20378 4.0587C1.79422 5.58525 1.4645 7.28405 3.50167 7.28405C4.59301 7.28405 4.37338 6.28742 4.37338 5.44376C4.37338 4.42411 3.66929 4.56791 2.73649 4.68827C1.67678 4.82501 1.86513 6.06949 1.58389 6.82882C1.21967 7.81223 2.05975 8.02333 2.93989 7.98142C4.15031 7.92378 4.63047 5.06339 3.32732 5.71496" stroke="white" stroke-linecap="round"/>
</svg>
