<svg width="35" height="25" viewBox="0 0 35 25" fill="none" xmlns="http://www.w3.org/2000/svg">
<path d="M15.1444 15.5059C11.6961 14.5207 20.8416 20.0101 24.152 21.3894C24.274 21.4403 24.6378 21.5979 24.5164 21.5456C23.6531 21.1735 22.1741 20.5096 21.3924 20.1919C19.3356 19.3559 16.4975 19.1386 14.5977 18.0832C12.9358 17.1599 18.3995 17.8478 20.299 17.927C21.7443 17.9872 33.0077 17.8481 33.576 19.4109C33.6558 19.6302 21.3105 18.6355 20.2209 18.4477C14.7952 17.5122 20.871 21.127 22.4338 22.1184C22.5466 22.1899 25.8945 24.3596 26.2867 23.8366C26.721 23.2575 23.6711 20.6685 23.4751 20.5043C21.6889 19.0078 19.5267 17.6661 17.3312 16.8596C17.1364 16.7881 13.7668 16.463 13.9729 16.7034C14.615 17.4525 21.6772 18.5028 16.8366 16.8336C14.2226 15.9322 11.7077 14.8057 9.18279 13.6836C8.89944 13.5576 5.08062 11.7757 5.56416 11.7571C6.61031 11.7169 15.8958 12.2434 15.9775 11.5488C16.0755 10.7157 5.56525 8.9017 7.88112 9.02359C8.49168 9.05572 14.465 10.1196 13.7386 10.8459C13.3592 11.2254 13.9932 11.6848 13.7386 11.9393C12.7974 12.8805 9.05064 12.2257 7.80302 12.2257C6.41581 12.2257 10.0258 12.2279 10.8229 11.2885C12.7847 8.9763 9.71058 5.754 7.54269 5.11858C5.80635 4.60966 -2.87278 4.72808 3.50752 4.72808C7.01241 4.72808 9.67315 3.37078 6.24102 0.510681" stroke="#1D0A01" stroke-linecap="round"/>
</svg>
