<svg width="158" height="228" viewBox="0 0 158 228" fill="none" xmlns="http://www.w3.org/2000/svg">
<path d="M97.5319 120C105.132 120 132.032 98.6667 144.532 88L157.032 103.5L108.032 134L82.5319 120H97.5319Z" fill="#FFCB82"/>
<path d="M120.032 69C107.632 69 89.8652 56 82.5319 49.5C107.732 49.5 128.365 58.1667 135.532 62.5C135.532 64.6667 132.432 69 120.032 69Z" fill="#FFCB82"/>
<path d="M25.5319 189.5C19.5319 185.9 14.6985 188 13.0319 189.5C18.6319 191.9 38.6985 210.833 48.0319 220L61.0319 227.5L57.0319 215.5C49.0319 208.333 31.5319 193.1 25.5319 189.5Z" fill="#FFCB82"/>
<path d="M61.0319 88C53.8319 81.6 47.0319 53 44.5319 39.5C42.032 52 46.0317 67.5 47.0317 72.5C47.8317 76.5 45.6985 84.5 44.5319 88C21.5319 123.5 -4.99994 144.5 2.00006 148C9.00006 151.5 15.5319 142 19.5319 138C23.5319 134 32.0319 142 44.5319 142C57.0319 142 65.5319 130 67.5319 120C69.5319 110 70.0319 96 61.0319 88Z" fill="#FFCB82"/>
<path d="M55.5317 16.5L52.5317 0C46.9317 1.2 44.8652 24.8333 44.5319 36.5H49.0317C56.8651 30.6667 72.4317 18.1 72.0317 14.5C71.6317 10.9 60.8651 14.3333 55.5317 16.5Z" fill="#FFCB82"/>
<path d="M42.0317 198.5L25.5319 187L36.5317 173C42.5317 175.833 54.5317 182 54.5317 184C54.5317 186 46.1984 194.5 42.0317 198.5Z" fill="#FFCB82"/>
<path d="M23.0317 154C21.0316 154.4 19.8651 151.833 19.5319 150.5C27.532 138.5 43.5317 144.5 39.0317 144.5C34.5317 144.5 25.5319 153.5 23.0317 154Z" fill="#FFCB82"/>
</svg>
