<svg width="197" height="605" viewBox="0 0 197 605" fill="none" xmlns="http://www.w3.org/2000/svg">
<path d="M193.324 27.0759C193.324 33.0129 174.296 48.1976 164.782 55.0478C118.656 66.0083 91.5216 113.275 83.7199 135.539C69.0679 156.66 38.6222 210.549 34.0554 257.131C29.4885 303.713 58.4119 374.347 73.4445 403.841C83.9102 423.06 108.038 470.974 120.826 508.879C133.613 546.784 120.826 588.608 112.834 604.783C127.676 541.988 52.3228 476.34 18.0714 377.582C-16.18 278.824 2.08741 124.122 52.3228 55.0478C92.5111 -0.211138 160.024 -2.60866 188.758 3.09995C201.887 24.7925 193.324 19.6547 193.324 27.0759Z" fill="#1D0A01"/>
</svg>
