<svg width="196" height="264" viewBox="0 0 196 264" fill="none" xmlns="http://www.w3.org/2000/svg">
<path d="M20.2578 17.4798C19.9856 10.8902 20.1202 4.90544 20.5 0C20.2509 6.08053 20.1732 11.9041 20.2578 17.4798C21.4191 45.5927 29.984 84.7142 58.5 98C95.3399 115.164 133.932 130.576 173.103 117.822C181.32 114.496 189.044 110.799 196 107C188.352 111.801 180.717 115.343 173.103 117.822C111.525 142.747 22.2201 146.857 20.2578 17.4798Z" fill="#3C2215"/>
<path d="M9.99999 107C0.833318 144 -9.90002 227.1 20.5 263.5C13.5 247 1.59999 192.6 9.99999 107Z" fill="#3C2215"/>
</svg>
