<svg width="37" height="20" viewBox="0 0 37 20" fill="none" xmlns="http://www.w3.org/2000/svg">
<path d="M24.2746 13.1048C21.9717 12.8087 21.9708 12.9643 21.7234 10.944C21.6425 10.2833 19.7162 8.01946 19.7969 7.84604C20.5612 6.2042 23.7908 6.51082 24.6131 4.51377C25.7543 1.74216 17.6867 2.32697 16.8031 2.32697C15.3349 2.32697 12.9356 1.16688 12.4034 2.53524C12.0481 3.44889 19.668 3.68399 19.7448 3.68071C20.7989 3.63566 25.2551 3.56238 25.7585 1.8844C26.4621 -0.460888 14.4104 1.24565 14.3039 1.2596C11.7312 1.59634 6.58845 1.78832 4.28102 3.57657C2.1235 5.24865 9.06135 5.9625 9.27943 5.97164C12.5158 6.1073 14.8609 2.65861 10.7373 2.37904C9.48564 2.29418 7.447 2.04565 6.25956 2.63937C4.79987 3.36921 8.77952 4.94162 10.3728 5.29477C11.7055 5.59016 21.4779 6.05827 15.3712 5.16461C12.4261 4.73361 9.43784 4.69813 6.46783 4.66997C4.85234 4.65466 0.244662 4.0398 1.62562 4.87824C3.27096 5.87719 7.4501 5.68972 8.99306 5.73734C11.5084 5.81497 17.2833 6.59351 19.5366 4.69601C20.3851 3.98143 18.3914 3.8464 18.287 3.83691C15.2844 3.56394 11.6955 3.39416 8.75876 4.14931C7.13868 4.5659 6.68674 5.69373 8.44636 6.44024C12.5494 8.18092 18.231 7.53019 22.5304 7.16918C23.8237 7.06058 27.1552 6.35864 26.097 5.60717C23.3356 3.64619 18.1496 4.25738 15.1109 4.51377C12.7367 4.7141 7.41136 4.78498 5.66079 7.01298C3.9248 9.22242 12.214 10.157 12.6638 10.2151C15.4629 10.5763 18.4264 10.8687 21.2548 10.6576C23.08 10.5214 23.3774 9.43801 21.5672 8.73118C20.3645 8.26157 11.5447 8.01583 11.8828 8.52291C13.9454 11.6169 21.5685 10.7618 24.6912 10.7618C27.0449 10.7618 24.8816 10.7618 24.7432 10.7618C22.0041 10.7618 19.2547 10.6891 16.5167 10.7618C12.8834 10.8582 18.6619 12.2209 19.9271 12.1155C23.5537 11.8133 21.9408 9.69439 19.1721 9.46011C18.5047 9.40363 12.081 9.80756 15.0328 9.06961C16.0112 8.82502 20.2644 7.44141 16.9853 7.11711C16.3755 7.05679 10.8175 6.94051 11.6224 7.53364C12.2812 8.01903 16.5234 8.77903 16.4646 8.67911C15.9339 7.77688 12.6853 7.45248 13.7051 7.50761C15.7359 7.61738 17.7655 7.74695 19.7969 7.84604C22.2848 7.9674 23.0727 7.92945 20.1093 7.95018C19.3199 7.9557 10.2521 7.7487 13.8092 9.85061C18.7532 12.7721 26.4798 11.8331 31.9805 11.699C38.0782 11.5503 31.1539 9.74145 28.7524 9.85061C25.0628 10.0183 29.3587 14.0598 30.7309 14.6668C34.4304 16.3031 32.1417 14.8933 29.6115 15.5259C28.5232 15.798 29.7373 16.7282 30.1061 16.9577C31.9777 18.1222 33.9204 18.2924 35.9896 18.728" stroke="#1D0A01" stroke-linecap="round"/>
</svg>
