<svg width="252" height="165" viewBox="0 0 252 165" fill="none" xmlns="http://www.w3.org/2000/svg">
<path d="M122.153 19.3046C112.324 30.3664 90.9495 54.8673 84.0869 64.3771C76.0314 75.5399 53.3195 108.104 46.1414 127.618C45.7258 128.858 45.3279 130.068 44.9483 131.243C45.2751 130.096 45.6755 128.884 46.1414 127.618C59.6218 87.3923 91.7788 14.692 122.153 19.3046Z" fill="#8A512A"/>
<path d="M15.4604 164.923C27.0411 59.5232 78.5467 19.6349 102.852 12.8657C79.2616 22.7718 56.2074 76.7597 48.1652 91.1234C41.7315 102.614 23.6813 145.111 15.4604 164.923Z" fill="#8A512A"/>
<path d="M42.2676 64.3771C45.8159 51.6973 75.9147 16.8281 90.5206 0.9785C62.105 8.90333 48.1652 34.1637 26.7194 61.4053C9.56281 83.1986 2.41422 135.866 0.984497 159.475C13.2671 133.059 38.7193 77.0568 42.2676 64.3771Z" fill="#8A512A"/>
<path d="M213.834 61.4053C209.116 61.4053 189.35 41.5932 180.057 31.6872L186.49 27.2295L192.388 19.3046C197.035 19.3046 205.792 18.6112 203.647 15.8376C200.966 12.3705 197.75 6.42682 213.834 8.40803C229.918 10.3892 248.147 43.5744 244.93 44.0697C242.357 44.466 235.994 41.5932 233.135 40.1073C237.853 46.8434 247.611 69.9905 251.9 80.7221C245.037 66.0611 227.952 54.8013 220.268 51.004C220.089 54.4711 218.552 61.4053 213.834 61.4053Z" fill="#8A512A"/>
</svg>
