<svg width="25" height="51" viewBox="0 0 25 51" fill="none" xmlns="http://www.w3.org/2000/svg">
<path d="M14.1314 27.9668C14.3428 28.6801 16.6869 37.4095 17.8859 39.2303C18.4768 40.1276 18.9031 37.2639 18.9586 36.1909C19.1741 32.0258 18.4821 32.9909 19.6738 35.6546C24.4432 46.3156 21.2194 26.4702 20.6571 29.844C19.9502 34.0854 23.6233 41.0857 23.7858 32.794C24.016 21.0569 21.5036 27.0491 22.9813 35.0288C24.6548 44.0654 18.6196 33.4706 15.7405 29.9334C10.9474 24.0447 12.5223 27.1022 12.5223 33.241C12.5223 33.291 12.6969 23.8547 9.66174 23.8547C7.72412 23.8547 10.7345 37.5184 10.7345 29.3971C10.7345 27.9996 8.99875 22.7224 10.5557 27.2516C12.5884 33.1652 15.4531 38.8947 18.6904 44.2363C24.0086 53.0112 23.1461 44.8986 19.6738 40.1242C18.8304 38.9645 22.5751 56.2496 21.9086 46.9181C21.576 42.2615 15.7405 27.152 15.7405 27.788C15.7405 32.1496 20.9885 58.7903 17.9753 45.3984C15.74 35.4638 12.0064 18.6146 5.72844 10.6245C0.861464 4.43018 4.47694 26.3466 4.47694 34.2243C4.47694 45.4795 4.22022 11.4711 1.25879 0.612488" stroke="#1D0A01" stroke-linecap="round"/>
</svg>
