<svg width="149" height="226" viewBox="0 0 149 226" fill="none" xmlns="http://www.w3.org/2000/svg">
<path d="M0.800049 44.8903C2.24724 41.2176 8.11868 31.3015 20.027 21.0181C34.9123 8.16383 27.4696 8.16382 26.8494 6.93961L23.7483 0.81853C43.3887 -1.42587 89.4919 9.1432 116.782 69.3746C136.9 113.777 144.097 162.904 145.828 196.449C149.571 204.513 147.965 217.573 145.932 225.462C146.367 218.384 146.445 208.407 145.828 196.449C143.859 192.208 140.411 189.348 134.768 189.348C118.394 189.348 112.233 198.733 111.2 203.426L103.757 159.355C88.665 129.157 46.9446 63.9881 0.800049 44.8903Z" fill="#1D0A01"/>
</svg>
