<svg width="11" height="11" viewBox="0 0 11 11" fill="none" xmlns="http://www.w3.org/2000/svg">
<path d="M4.8527 6.14393L10.2475 1.09814H10.1731C9.5778 1.09814 2.24831 3.51736 1.5414 3.72472C0.834497 3.93208 1.09494 4.5196 1.80184 4.79608C2.36737 5.01727 4.07139 5.78681 4.8527 6.14393Z" fill="#25A8E0"/>
<path d="M5.26195 6.48953L10.694 1.51287C10.694 2.13495 8.72207 7.28442 8.2384 8.52858C7.75472 9.77275 7.68031 9.87643 7.34546 9.91099C7.01061 9.94555 6.67576 9.46171 6.48973 8.90874C6.34091 8.46637 5.6092 7.11162 5.26195 6.48953Z" fill="#25A8E0"/>
<path d="M5.26195 7.80282C4.93454 6.6416 3.91014 6.19001 3.43887 6.10937L2.76917 7.59546C2.69476 7.76826 2.60547 8.16916 2.84358 8.39034C3.0817 8.61153 3.48848 8.52858 3.66211 8.45946L5.26195 7.80282Z" fill="#25A8E0"/>
<path d="M4.8527 6.14393L10.2475 1.09814H10.1731C9.5778 1.09814 2.24831 3.51736 1.5414 3.72472C0.834497 3.93208 1.09494 4.5196 1.80184 4.79608C2.36737 5.01727 4.07139 5.78681 4.8527 6.14393Z" stroke="#25A8E0" stroke-width="0.251845"/>
<path d="M5.26195 6.48953L10.694 1.51287C10.694 2.13495 8.72207 7.28442 8.2384 8.52858C7.75472 9.77275 7.68031 9.87643 7.34546 9.91099C7.01061 9.94555 6.67576 9.46171 6.48973 8.90874C6.34091 8.46637 5.6092 7.11162 5.26195 6.48953Z" stroke="#25A8E0" stroke-width="0.251845"/>
<path d="M5.26195 7.80282C4.93454 6.6416 3.91014 6.19001 3.43887 6.10937L2.76917 7.59546C2.69476 7.76826 2.60547 8.16916 2.84358 8.39034C3.0817 8.61153 3.48848 8.52858 3.66211 8.45946L5.26195 7.80282Z" stroke="#25A8E0" stroke-width="0.251845"/>
</svg>
