<svg width="9" height="7" viewBox="0 0 9 7" fill="none" xmlns="http://www.w3.org/2000/svg">
<path d="M1.55971 5.23723C1.38195 4.72486 1.19202 4.40622 1.19202 3.87268C1.19202 3.46558 1.28628 3.07267 1.57605 2.76143C1.98665 2.32042 2.31917 1.90434 2.80987 1.58889C3.1964 1.34041 3.52159 0.986201 4.01917 0.971984C4.86989 0.947678 5.7255 0.971984 6.57669 0.971984C6.99145 0.971984 7.37157 0.896145 7.7002 1.15175C7.86336 1.27865 8.01128 1.18158 8.121 1.41322C8.21732 1.61656 8.31756 2.01459 8.32528 2.23849C8.33469 2.51153 8.47235 2.73463 8.47235 2.9943C8.47235 3.28982 8.47235 3.58533 8.47235 3.88085C8.47235 4.55536 8.16319 4.93667 7.66343 5.36797C7.16805 5.79548 6.80351 5.89908 6.17631 5.89908C5.68128 5.89908 5.48352 5.81219 5.20805 5.3884C5.03591 5.12356 5.08957 4.74649 5.08957 4.44873C5.08957 3.77732 5.15705 3.13773 5.48995 2.54081C5.69201 2.17849 6.0082 1.62593 6.41327 1.4459C7.01285 1.17942 7.28284 1.67734 7.29573 2.2058C7.29821 2.30744 7.27559 3.38891 7.12006 2.81862C7.05804 2.59121 6.8865 1.53005 7.25896 1.49084C7.53081 1.46223 7.53851 1.88555 7.54086 2.06689C7.54987 2.76018 7.17671 3.52485 6.46229 3.71743C5.973 3.84933 5.69366 3.48563 5.63703 3.03924C5.61237 2.84488 5.57278 2.46814 5.74733 2.31611C6.05566 2.04757 6.24979 2.78419 6.26619 2.88399C6.33753 3.31812 6.30182 3.9481 6.15997 4.36294C5.99721 4.83894 5.53836 5.31189 5.14268 4.71838C4.5282 3.79665 4.75568 2.06293 5.61251 1.35193C6.69173 0.456419 6.45363 4.04853 6.36016 4.46916C6.19883 5.19515 5.57012 6.08228 4.75456 6.12787C3.95739 6.17243 3.76079 5.25609 3.74136 4.64075C3.71623 3.84506 4.10718 3.32522 4.86895 3.32522" stroke="white" stroke-linecap="round"/>
</svg>
