<svg width="59" height="36" viewBox="0 0 59 36" fill="none" xmlns="http://www.w3.org/2000/svg">
<path d="M32.1697 9.58523C32.6415 11.5905 32.8754 13.5596 33.4162 15.574C34.3203 18.9416 34.9221 20.7004 36.4241 23.7849C36.9961 24.9594 38.0313 25.9319 38.3481 27.1993C38.3783 27.3198 34.3873 24.9512 34.2292 24.8417C31.5061 22.9565 28.835 21.0346 25.8015 19.6659C23.4922 18.6239 20.4472 17.1421 17.8887 16.9289C13.6578 16.5763 25.9858 19.4877 30.056 20.6956C32.5072 21.4231 39.5 24.4173 37.3726 22.999C34.9915 21.4116 32.5958 19.836 30.1915 18.2839C29.0459 17.5443 26.6416 14.888 26.6416 16.2515C26.6416 17.4316 33.5132 19.6885 34.3375 20.0453C36.8342 21.1257 36.9521 21.5268 34.3917 21.075C31.3607 20.5401 28.723 19.0402 26.0454 17.6064C25.7999 17.4749 21.3211 15.1628 21.9806 15.0591C25.1387 14.5629 28.618 15.2379 31.7903 15.3301C39.0319 15.5406 32.9821 12.0594 29.8934 10.5608C26.1462 8.74263 13.684 6.86203 17.6178 8.23031C19.8664 9.01243 22.0159 10.0301 24.2027 10.9673C25.2686 11.4241 28.5057 12.4577 27.3461 12.4577C26.0655 12.4577 24.6079 11.9062 23.4168 11.5092C23.1795 11.4301 19.5343 9.89516 21.4928 11.3195C26.5015 14.9622 43.4053 22.7972 38.2126 19.422C33.9754 16.6678 29.6814 14.8388 24.6363 14.192C23.5808 14.0567 20.3591 13.8978 23.6607 13.9752C27.053 14.0547 30.351 14.5276 33.6872 15.1133C38.6062 15.977 29.8254 12.0283 29.0262 11.5905C28.4685 11.285 22.0911 8.14241 22.4142 7.36316C22.9305 6.11785 29.1417 6.02388 30.2728 5.89984C31.432 5.7727 32.9754 5.93427 34.1208 5.62885C35.5623 5.24443 31.273 4.62669 29.785 4.51781C24.4872 4.13017 19.1747 4.45183 13.8782 4.16553C13.5264 4.14652 11.4695 3.91406 12.6587 3.08159C13.2971 2.63475 12.7808 3.37846 12.6316 3.51517C11.6867 4.38132 12.4682 5.14717 13.4717 5.62885C14.643 6.19108 25.4907 7.32678 25.2595 6.17082C25.0441 5.09338 19.6394 6.10002 23.0104 4.32812C24.7569 3.41006 26.0192 2.84617 22.4684 3.51517C18.7102 4.22324 14.7873 4.98969 11.1412 6.17082C9.85845 6.58637 10.8145 6.87507 11.6832 6.71279C13.3936 6.39326 15.6727 5.87934 17.1029 4.8159C18.5868 3.71246 12.8321 3.24418 12.2794 3.24418C10.3429 3.24418 12.8547 3.24486 13.4446 3.18998C16.588 2.89758 17.2569 0.968498 14.6098 2.919C12.9684 4.12848 10.3985 8.14608 14.2304 7.98642C15.0503 7.95226 20.4886 5.63441 18.3494 4.03004C17.2743 3.22372 11.9601 3.24724 10.6805 3.75905C9.9337 4.05779 12.2647 4.05295 13.0381 4.27393C14.0474 4.5623 14.1221 5.213 14.1221 6.14372C14.1221 10.7044 25.1638 6.06249 15.5041 6.68569C15.0973 6.71194 14.287 6.76024 14.2304 7.36316C14.0971 8.78593 17.2498 8.61524 17.9158 8.60969C23.6858 8.5616 19.3509 5.73688 18.7288 7.20056C18.2365 8.35903 19.1872 9.02016 20.1921 9.09746C20.9486 9.15565 23.2272 9.09746 22.4684 9.09746C21.86 9.09746 15.5206 9.19085 18.2952 10.9944C19.8007 11.9729 25.1573 11.6943 25.7473 9.53104C26.0531 8.40966 25.9222 5.56694 23.9588 6.79409C22.9733 7.41006 23.6718 9.16828 24.3653 9.69363C26.1665 11.0582 29.438 10.5608 31.5193 10.5608C32.0298 10.5608 35.0418 10.9542 35.5028 10.2627C36.0954 9.3738 33.5357 9.20409 32.4677 9.23295C29.7421 9.30662 24.859 10.5039 26.5332 14.3546C27.0169 15.4671 31.3656 16.935 31.4651 15.2759C31.6073 12.9059 30.7472 11.7932 28.4843 12.0241C25.5288 12.3257 29.1341 15.8528 30.9231 15.9263C33.5242 16.0332 36.2924 16.0901 36.4783 12.8371C36.6604 9.65068 31.7424 11.2966 31.1128 13.379C29.5946 18.4007 35.063 19.5843 38.8088 19.7472C40.7056 19.8296 42.7174 16.8176 40.4618 16.4954C39.9957 16.4288 39.696 16.7569 39.9198 17.227C40.6047 18.6653 42.4395 19.33 43.8762 19.6117C44.7451 19.7821 47.1671 20.2771 47.941 19.5033C48.8527 18.5916 46.9687 17.4082 46.3693 17.227C44.5044 16.6632 38.3383 17.3236 41.058 20.5872C42.0284 21.7517 48.151 21.97 47.941 19.8285C47.5607 15.9491 40.8215 16.8322 38.5649 17.0373C36.875 17.191 32.3211 17.4076 32.82 20.2349C33.1477 22.0916 35.5021 22.2813 36.9661 22.457C39.3539 22.7436 42.458 23.1138 43.8762 20.6685C44.3243 19.896 45.1581 17.2239 44.0117 16.5496C42.2929 15.5385 38.3332 16.9026 38.592 19.2323C38.7453 20.6121 40.0901 18.2811 39.974 17.498C39.7859 16.2282 30.7938 20.9023 34.8795 24.7062C36.7146 26.4148 45.0438 26.9218 43.1717 22.5925C42.6418 21.3673 38.5106 18.6711 38.3481 21.4002C38.1229 25.184 44.6321 30.2992 47.8326 26.8741C49.8779 24.6852 49.2665 19.7118 45.5021 20.9666C41.5594 22.2809 40.3597 27.5636 45.0686 28.771C48.5435 29.662 52.5527 28.9634 52.1684 24.5436C51.9397 21.9137 44.0034 26.2195 43.2801 27.4973C40.0766 33.1567 49.7027 35.6445 52.8458 31.4537C56.0425 27.1916 49.9798 26.3968 50.3799 31.6976C50.6947 35.869 56.3293 35.5119 57.7778 32.2125C58.4458 30.6908 58.3792 26.5384 55.9622 26.6573C53.313 26.7876 52.0349 30.0256 52.1684 32.2938C52.2002 32.8351 52.6835 33.222 52.9271 32.4564C53.3207 31.2193 52.8 29.5161 52.1684 28.4458C51.1463 26.7139 47.664 26.4226 48.5914 29.2046C48.7701 29.7409 51.3835 33.1288 51.789 30.966C52.325 28.1073 44.6893 27.8096 44.7163 27.9851C45.023 29.9786 50.8641 31.3358 52.06 29.4755C54.2827 26.018 49.8748 23.1326 46.9655 22.8093C45.084 22.6003 43.8526 24.1287 45.5563 25.7359C47.5878 27.6524 52.9267 26.5612 53.0355 23.3513C53.1047 21.3117 45.9872 21.0692 44.6892 21.9964C43.3076 22.9832 46.2316 24.3791 46.5861 24.4894C49.025 25.2485 53.6763 26.0018 55.7996 24.0016C59.7534 20.277 46.9124 20.3162 46.2067 20.3162C44.7346 20.3162 41.0469 19.7034 39.8927 21.1292C38.8113 22.4651 40.521 23.0673 41.5457 23.1345C44.4426 23.3244 47.8223 22.9367 50.3799 21.4815C51.6573 20.7546 53.1401 19.0802 51.3283 17.9587C48.1239 15.975 42.4367 16.885 38.9443 16.9289C38.749 16.9314 30.7004 16.5614 30.2999 17.3625C29.6027 18.7569 33.3873 16.8653 34.8795 16.4141C39.2889 15.0806 43.7288 13.4984 47.9952 11.7531C50.2292 10.8392 49.0709 9.88921 47.0738 9.53104C43.307 8.85546 39.353 9.69664 35.6383 8.98907C35.2668 8.91831 37.9043 7.43155 37.9145 7.09217C37.932 6.51495 30.99 6.43344 30.2728 6.22502C28.0452 5.5777 34.63 3.35507 28.8636 3.24418C25.5205 3.17989 22.2784 3.6644 18.9998 4.30102C15.5737 4.96627 12.2157 5.82609 8.86494 6.79409C8.65402 6.85502 6.73505 7.28794 8.32297 7.33606C10.2818 7.39542 19.5529 5.53873 12.74 5.98113C12.697 5.98393 6.46481 6.82551 9.40691 6.30631C11.413 5.95229 13.7392 5.58235 15.5312 4.54491C17.0645 3.65719 12.0192 5.06013 10.3012 5.49336C7.47243 6.20669 4.18635 6.66636 1.49415 7.85093C-3.48123 10.0401 12.2327 5.98088 17.4281 4.38232C17.5407 4.34768 12.4015 5.28373 15.2873 5.11398C15.6466 5.09284 19.2773 4.31411 19.2708 4.30102C19.0221 3.80368 13.4832 5.32641 13.0381 5.43916C9.70202 6.28431 5.97081 7.41196 12.0084 5.62885C13.4116 5.21442 16.3423 4.29517 17.7533 3.78615C18.3392 3.57476 19.9469 3.1212 19.3792 2.8648C18.7107 2.5629 16.7794 2.56214 16.0731 2.8648C15.4847 3.11701 17.2775 3.45673 17.9158 3.40677C18.5489 3.35723 22.9726 2.04651 22.8478 1.99765C20.7604 1.18085 13.4635 1.05836 11.4122 2.37703C10.8338 2.74884 12.7574 2.70714 13.4446 2.72931C15.8226 2.80602 18.2255 2.614 20.5986 2.78351C21.8525 2.87307 16.8006 4.10923 18.0513 4.7346C20.2295 5.82367 14.2987 9.58523 18.9185 9.58523C21.4779 9.58523 13.7856 9.6188 11.2496 9.96461C9.55736 10.1954 11.3758 10.4109 12.0084 10.4524C15.1015 10.6552 18.2321 10.5912 21.3303 10.5608C21.5679 10.5584 22.2693 10.4907 22.0348 10.4524C21.2774 10.3287 19.5541 10.2132 18.9456 10.1814C16.8962 10.0742 14.8203 10.016 12.7671 10.073C11.5297 10.1074 13.1058 10.6413 13.1465 11.0486C13.3873 13.4561 13.4371 15.7045 15.7209 17.227C16.498 17.7451 22.7351 18.7145 22.0348 17.8232C21.1996 16.7602 16.9298 16.6867 16.7777 15.9263C16.7479 15.777 26.3625 15.0537 24.826 14.0294C23.619 13.2248 21.2054 13.5005 19.9211 13.4874C16.3644 13.4511 12.8012 13.4573 9.24432 13.4874C4.22123 13.53 14.4214 15.4266 15.5312 15.4385C17.0754 15.4551 21.2923 16.0563 22.5768 14.734C23.5118 13.7714 21.6603 12.5531 21.0051 12.3493C18.6204 11.6074 15.72 11.7695 13.2549 11.6447C12.753 11.6193 7.60668 12.0339 10.8702 10.9944C13.4519 10.172 16.0464 9.40347 18.5933 8.47419C22.3852 7.09067 18.8626 7.2094 16.9403 7.17347C14.4747 7.12738 7.08311 7.30144 9.54241 7.11927C11.2452 6.99313 12.9783 6.95177 14.664 6.65859C16.9188 6.26646 10.8115 5.79638 9.97598 5.92693C9.71208 5.96817 8.1644 6.17082 9.5695 6.17082C12.851 6.17082 16.8472 5.49034 20.0295 6.30631C25.33 7.66542 8.8069 7.71017 4.204 10.6692C2.81487 11.5622 7.4304 11.5209 9.08173 11.5363C13.1818 11.5746 17.2841 11.5363 21.3845 11.5363C21.7638 11.5363 22.9019 11.5306 22.5226 11.5363C19.4104 11.5835 21.6536 11.547 17.1571 11.6447C12.3767 11.7486 7.40184 12.192 2.63229 11.6447C-3.77551 10.9094 15.5343 11.6412 21.9806 11.4279C23.376 11.3818 27.4907 10.7865 26.0996 10.6692C22.7251 10.3846 19.1321 10.9467 15.8022 11.4279C12.293 11.935 13.4254 12.3118 16.3441 12.1867C20.0426 12.0282 24.0601 11.7991 27.6171 10.6692C30.3238 9.80939 26.2191 10.1767 25.8286 10.2356C21.8623 10.8333 17.7809 11.5281 13.9595 12.7829C12.4544 13.277 14.2959 13.3507 14.9892 13.379C19.1616 13.5493 23.1641 12.9146 27.2919 12.5119" stroke="#1D0A01" stroke-linecap="round"/>
</svg>
