<svg width="289" height="68" viewBox="0 0 289 68" fill="none" xmlns="http://www.w3.org/2000/svg">
<path d="M2 35.1331H59.5C65.3333 31.2997 78.8 24.1331 86 26.1331C95 28.6331 88.5 38.6331 86 38.1331C83.5 37.6331 80.5 28.633 94.5 26.1331C105.7 24.1331 128.167 25.2997 138 26.1331C141.333 26.4665 148.9 25.6333 152.5 19.6333C157 12.1333 163.5 0.633272 167 2.13327C169.8 3.33327 168.833 43.9663 168 64.1328C169.333 65.4661 172.5 67.3328 174.5 64.1328C176.5 60.9328 172.667 25.1328 170.5 7.63281C169.833 6.29948 169.1 3.63281 171.5 3.63281C173.9 3.63281 195.5 5.29948 206 6.13281C207.333 6.29948 209.9 6.83281 209.5 7.63281C209 8.63281 201.5 9.13281 201 11.6328C200.5 14.1328 214 16.6324 214.5 18.1328C215 19.6333 196 27.6328 196 31.6328C196 35.6328 206.5 34.6334 208 38.1331C209.5 41.6328 199.5 44.6328 201 47.1328C202.5 49.6328 217 51.1328 216.5 53.6328C216 56.1328 192.5 60.6328 196 61.6328C198.8 62.4328 216.167 63.6328 224.5 64.1328C222.833 59.6328 219.5 48.4328 219.5 39.6328C219.5 28.6328 221.5 10.1324 223 6.13281C224.5 2.13327 224 2.13327 221 2.13327C218 2.13327 196.5 2.13327 193 2.13327C189.5 2.13327 191.5 53.6328 193 60.1328C194.2 65.3328 174.5 64.9661 164.5 64.1328C161.333 55.4661 150.5 38.6328 132.5 40.6328C110 43.1328 101 47.1328 96 47.1328C91 47.1328 76.5 46.1326 68 40.6328C73.1667 41.9661 85.3 44.2328 92.5 42.6328C101.5 40.6328 116 33.6328 128 33.6328C140 33.6328 153.5 35.6328 158 42.6328C162.5 49.6328 160.669 54.1328 164.5 54.6328C168.331 55.1328 173.5 50.1332 177 38.1331C180.5 26.1331 180.5 15.6328 184 15.6328C187.5 15.6328 189.5 33.6334 196 38.1331C201.2 41.7329 259.167 40.6328 287.5 39.6328" stroke="black" stroke-width="3" stroke-linecap="round"/>
</svg>
